<svg xmlns="http://www.w3.org/2000/svg" viewBox="0 0 750 500" style="enable-background:new 0 0 750 500" xml:space="preserve"><style>.st0{fill:#ebebeb}.st1{fill:#f5f5f5}.st2{fill:#e0e0e0}.st3{fill:#fafafa}.st5{display:inline}.st6{fill:#263238}.st7{fill:#fff}.st8{opacity:.2}.st9{fill:#455a64}.st11{fill:#ff725e}.st12{opacity:.3}.st13{fill:#ae7461}.st14{fill:#6f4439}.st15{fill:#ffbf9d}.st16{fill:none}.st17{fill:#ff9a6c}</style><g id="Background_Complete"><path class="st0" d="M148.3 49.4h106.9v4.9H148.3zM177.1 58.7H242v4.9h-64.9zM177.1 67.5H204v4.9h-26.9z"/><path class="st1" d="M262.9 49.4h12.3v4.9h-12.3zM281.6 49.4h30.8v4.9h-30.8zM159.1 58.7h12.3v4.9h-12.3zM209.6 67.5h51.8v4.9h-51.8zM265.7 67.5H297v4.9h-31.3zM248 58.7h35.9v4.9H248z"/><path class="st0" d="M153.4 83.2h106.9v4.9H153.4zM182.2 92.5h64.9v4.9h-64.9zM182.2 101.3h26.9v4.9h-26.9z"/><path class="st1" d="M268 83.2h12.3v4.9H268zM286.7 83.2h30.8v4.9h-30.8zM164.3 92.5h12.3v4.9h-12.3zM214.7 101.3h51.8v4.9h-51.8zM270.8 101.3h31.3v4.9h-31.3zM253.1 92.5H289v4.9h-35.9z"/><path class="st0" d="M535.1 294.4H642v4.9H535.1zM563.9 303.7h64.9v4.9h-64.9zM563.9 312.5h26.9v4.9h-26.9z"/><path class="st1" d="M649.7 294.4H662v4.9h-12.3zM668.4 294.4h30.8v4.9h-30.8zM546 303.7h12.3v4.9H546zM596.4 312.5h51.8v4.9h-51.8zM652.5 312.5h31.3v4.9h-31.3zM634.8 303.7h35.9v4.9h-35.9z"/><path class="st0" d="M544.8 325.5h106.9v4.9H544.8zM573.6 334.9h64.9v4.9h-64.9zM573.6 343.7h26.9v4.9h-26.9z"/><path class="st1" d="M659.4 325.5h12.3v4.9h-12.3zM678.2 325.5H709v4.9h-30.8zM555.7 334.9H568v4.9h-12.3zM606.1 343.7h51.8v4.9h-51.8zM662.3 343.7h31.3v4.9h-31.3zM644.5 334.9h35.9v4.9h-35.9zM507.4 407.4c1.6-1 3.3-1.7 5.1-2.2l1-5 8.5-.1 1.2 5c1.8.4 3.5 1.1 5.1 2l4.3-2.8 6.1 5.9-2.7 4.4c1 1.6 1.7 3.3 2.2 5.1l5 1 .1 8.5-5 1.2c-.4 1.8-1.1 3.5-2 5.1l2.8 4.3-5.9 6.1-4.4-2.7c-1.6 1-3.3 1.7-5.1 2.2l-1 5-8.5.1-1.2-5c-1.8-.4-3.5-1.1-5.1-2l-4.3 2.8-6.1-5.9 2.7-4.4c-1-1.6-1.7-3.3-2.2-5.1l-5-1-.1-8.5 5-1.2c.4-1.8 1.1-3.5 2-5.1l-2.8-4.3 5.9-6.1 4.4 2.7zm4.6 11.3c-3.5 3.6-3.4 9.4.2 12.9s9.4 3.4 12.9-.2 3.4-9.4-.2-12.9c-3.7-3.5-9.5-3.4-12.9.2zM639.4 177.5c1.6-1 3.3-1.7 5.1-2.2l1-5 8.5-.1 1.2 5c1.8.4 3.5 1.1 5.1 2l4.3-2.8 6.1 5.9-2.7 4.4c1 1.6 1.7 3.3 2.2 5.1l5 1 .1 8.5-5 1.2c-.4 1.8-1.1 3.5-2 5.1l2.8 4.3-5.9 6.1-4.4-2.7c-1.6 1-3.3 1.7-5.1 2.2l-1 5-8.5.1-1.2-5c-1.8-.4-3.5-1.1-5.1-2l-4.3 2.8-6.1-5.9 2.7-4.4c-1-1.6-1.7-3.3-2.2-5.1l-5-1-.1-8.5 5-1.2c.4-1.8 1.1-3.5 2-5.1l-2.8-4.3 5.9-6.1 4.4 2.7zm4.5 11.3c-3.5 3.6-3.4 9.4.2 12.9s9.4 3.4 12.9-.2 3.4-9.4-.2-12.9-9.4-3.4-12.9.2zM250.2 376c1.6-1 3.3-1.7 5.1-2.2l1-5 8.5-.1 1.2 5c1.8.4 3.5 1.1 5.1 2l4.3-2.8 6.1 5.9-2.7 4.4c1 1.6 1.7 3.3 2.2 5.1l5 1 .1 8.5-5 1.2c-.4 1.8-1.1 3.5-2 5.1l2.8 4.3-5.9 6.1-4.4-2.7c-1.6 1-3.3 1.7-5.1 2.2l-1 5-8.5.1-1.2-5c-1.8-.4-3.5-1.1-5.1-2l-4.3 2.8-6.1-5.9 2.7-4.4c-1-1.6-1.7-3.3-2.2-5.1l-5-1-.1-8.5 5-1.2c.4-1.8 1.1-3.5 2-5.1l-2.8-4.3 5.9-6.1 4.4 2.7zm4.5 11.3c-3.5 3.6-3.4 9.4.2 12.9s9.4 3.4 12.9-.2 3.4-9.4-.2-12.9c-3.7-3.5-9.4-3.4-12.9.2zM599.7 73.5c2.2-1.3 4.5-2.3 6.8-3l1.4-6.8 11.4-.2 1.6 6.7c2.4.6 4.7 1.5 6.9 2.7l5.8-3.8 8.2 7.9-3.6 5.9c1.3 2.2 2.3 4.5 3 6.8l6.8 1.4.2 11.4-6.7 1.6c-.6 2.4-1.5 4.7-2.7 6.9l3.8 5.8-7.9 8.2-5.9-3.6c-2.2 1.3-4.5 2.3-6.8 3l-1.4 6.8-11.4.2-1.6-6.7c-2.4-.6-4.7-1.5-6.9-2.7l-5.8 3.8-8.2-7.9 3.6-5.9c-1.3-2.2-2.3-4.5-3-6.8l-6.8-1.4-.2-11.4 6.7-1.6c.6-2.4 1.5-4.7 2.7-6.9l-3.8-5.8 7.9-8.2 5.9 3.6zm6.1 15.2c-4.7 4.9-4.6 12.6.3 17.3 4.9 4.7 12.6 4.6 17.3-.3 4.7-4.9 4.6-12.6-.3-17.3-4.8-4.7-12.6-4.6-17.3.3zM61.5 126c1.6-1 3.4-1.7 5.2-2.2l1.1-5.1 8.6-.2 1.2 5.1c1.8.4 3.6 1.1 5.2 2.1l4.4-2.9 6.2 6-2.7 4.5c1 1.6 1.7 3.4 2.2 5.2l5.1 1.1.2 8.6-5.1 1.2c-.4 1.8-1.1 3.6-2.1 5.2l3 4.4-6 6.2-4.5-2.7c-1.6 1-3.4 1.7-5.2 2.2l-1.1 5.1-8.6.2-1.2-5.1c-1.8-.4-3.6-1.1-5.2-2.1l-4.4 2.9-6.2-6 2.7-4.5c-1-1.6-1.7-3.4-2.2-5.2l-5.1-1.1-.2-8.6 5.1-1.2c.4-1.8 1.1-3.6 2.1-5.2l-2.9-4.4 6-6.2 4.4 2.7zm4.6 11.5c-3.6 3.7-3.5 9.6.2 13.1 3.7 3.6 9.6 3.5 13.1-.2 3.6-3.7 3.5-9.6-.2-13.1-3.7-3.6-9.5-3.4-13.1.2zM605.4 435.7c.9-.6 1.9-1 3-1.3l.6-3 5-.1.7 2.9c1 .3 2.1.7 3 1.2l2.5-1.7 3.6 3.5-1.6 2.6c.6.9 1 1.9 1.3 3l3 .6.1 5-2.9.7c-.3 1-.7 2.1-1.2 3l1.7 2.5-3.5 3.6-2.6-1.6c-.9.6-1.9 1-3 1.3l-.6 3-5 .1-.7-2.9c-1-.3-2.1-.7-3-1.2l-2.5 1.7-3.6-3.5 1.6-2.6c-.6-.9-1-1.9-1.3-3l-3-.6-.1-5 2.9-.7c.3-1 .7-2.1 1.2-3l-1.7-2.5 3.5-3.6 2.6 1.6zm2.7 6.6c-2.1 2.1-2 5.5.1 7.6 2.1 2.1 5.5 2 7.6-.1 2.1-2.1 2-5.5-.1-7.6-2.2-2.1-5.6-2-7.6.1zM122.1 183.6c.9-.6 1.9-1 3-1.3l.6-3 5-.1.7 2.9c1 .3 2.1.7 3 1.2l2.5-1.7 3.6 3.5-1.6 2.6c.6.9 1 1.9 1.3 3l3 .6.1 5-2.9.7c-.3 1-.7 2.1-1.2 3l1.7 2.5-3.5 3.6-2.6-1.6c-.9.6-1.9 1-3 1.3l-.6 3-5 .1-.7-2.9c-1-.3-2.1-.7-3-1.2l-2.5 1.7-3.6-3.5 1.6-2.6c-.6-.9-1-1.9-1.3-3l-3-.6-.1-5 2.9-.7c.3-1 .7-2.1 1.2-3l-1.7-2.5 3.5-3.6 2.6 1.6zm2.6 6.7c-2.1 2.1-2 5.5.1 7.6 2.1 2.1 5.5 2 7.6-.1 2.1-2.1 2-5.5-.1-7.6-2.1-2.1-5.5-2.1-7.6.1z"/><path class="st2" d="M62.6 399.5c-3.5-2.2-7.5-3.6-11.6-4-1.9-.2-4-.1-5.5 1-.3.2-.6.6-.6 1 .1.3.3.5.5.7 4.8 3.6 12 4.1 17.2 1.3M62.3 399.2c-2.6-2-5.3-4.1-7.5-6.6s-4-5.4-4.7-8.7c-.2-1-.3-2.1.4-2.9 6 4.7 10.7 10.7 11.8 18.2"/><path class="st2" d="M62.6 399.5c-.4-3.3-.6-6.6.1-9.8.7-3.2 2.5-6.3 5.2-8.1 1 2.4.6 5.2-.1 7.7-1.1 3.9-2.9 7.6-5.2 10.9M68.4 409.9c-3.5.4-6.6 2.3-9.3 4.7-2.7 2.4-4.5 5.6-5.3 9.1 3.5-.2 6.4-2.7 8.6-5.4 2.1-2.7 3.6-5.7 6-8.4M69.7 411.6c-2.9-7-1.8-15.5 2.6-21.7 2 7.2 1.3 15.3-2.6 21.7M77.4 420.8c-3.2-.2-6.5.6-9.3 2.2-2.8 1.6-5.1 4.1-6.5 6.9-.2.4-.4.9-.1 1.2.2.3.7.3 1.1.3 3.1-.2 5.9-2.1 8.2-4.2 2.2-2.1 4.1-4.6 6.6-6.4M77.2 420.3c-1.7-5.3-1.8-11.1-.3-16.5.6-2.1 1.6-4.4 3.5-5.3.2-.1.4-.2.5-.1.2.1.3.2.3.4.7 1.5.9 3.1.8 4.7-.1 1.6-.4 3.2-.7 4.8-.6 2.9-.9 6.1-2.6 8.6-.4.6-.7 1.2-1 1.9-.3.6-.3.9-.6 1.4M97.6 423.3c-1.5-5.8.1-12.7 3.7-17.5.3-.3.6-.7 1.1-.7.7.1.8 1 .8 1.6-.3 6-2.2 11.8-5.6 16.6M99.4 424.6c7 1.8 15 .1 20.9-4.2-3.5-1.7-7.5-2.2-11.3-1.4-3.8.8-7.2 2.5-9.6 5.6M101 420.8c3.9-6.4 11.4-10.6 18.9-10.9-.9 3-3.4 5.4-6.2 6.8-2.8 1.4-6 2.1-9.1 2.7-1.2.2-2.8.4-3.6 1.4M98 402.2c1.1-3.6 2.1-7.3 2.4-11.1.3-3.8-.2-7.7-2.2-11-3.7 7.1-4 15.4-.3 22.4M110.3 395.9c4.3-7.8 13-14 21.9-14.9-3.4 8.5-12.7 15.1-21.9 14.9M107.6 397.4c6.4 1 11.8 5.1 17.8 7.5 1.3.5 2.7 1 4 .8 1.4-.2 2.7-1.1 3-2.4.3-1.1-.3-2.3-1.1-3.1-.8-.8-1.9-1.3-2.9-1.8-6.5-2.7-13.5-2.8-20.3-1.1"/><path class="st2" d="M103.9 401.9c1.4.4 1.9 1.2 3.1 2.1 3.9 3.3 8.5 5.7 13.5 6.9.5.1 1.2.2 1.4-.3.2-.4-.1-.9-.3-1.3-2.1-2.6-5-4.4-8.2-5.5-3.1-1.2-5.8-2.6-9.5-2.3M99.8 374.9c5.2 4.8 12.5 7.3 19.6 6.7.3 0 .7-.1.9-.3.5-.5-.1-1.4-.7-1.8-5.8-4.6-12.8-6.5-19.8-4.6"/><path class="st2" d="M104.7 373.1c6.9-5.1 16.3-6.7 24.4-4-3.1 3-7.3 4.7-11.6 5.1-4.3.4-8.6-.1-12.8-1.1M102.7 360.6c-.6-5.7-.2-10.3-.6-16.1 0-.5-.1-1-.6-1.2-.6-.2-1.1.5-1.3 1.1-1.7 5.3-.8 11.4 2.5 16"/><path class="st2" d="M102.3 361.3c3.9-2.4 6.8-5.6 9.5-9.3 1.9-2.6 3.5-5.7 3-8.8-2.6-.1-5.1 1.4-6.9 3.4-1.7 2-2.7 4.5-3.5 7-.6 2.6-1.2 5.2-2.1 7.7M111.7 358.7c8.5-3.2 16.5-7.9 23.4-13.8-2.8-1.1-6-.5-8.8.7-6.4 2.6-11.6 6.9-14.8 13.1M105 364.4c4.3.5 8.7.8 13 .1 4.2-.7 8.2-2.4 12.1-4 .3-.1.7-.3.8-.6.2-.4 0-.8-.3-1-.3-.3-.7-.4-1-.5-4.3-1.2-8.9-.6-13.1.8-4.2 1.3-7.7 3-11.5 5.2M80.3 375.1c-3-6-2.8-12.9-.2-19 1.8 2.7 2 6.2 1.7 9.5-.3 3.3-1.3 6.6-1.4 9.9M68.5 369.1c-7.4-.1-14.7 3-19.7 8.4 3.7.6 7.5-.4 10.8-2 3.3-1.6 6.3-3.9 9.3-6.2M60.6 366.5c-3.6-.3-7.1-.7-10.5.3-3.5 1.1-6.6 3.5-8 6.8 3.4.4 6.8-.5 9.9-1.9 2.9-1.4 5.8-3.3 8.6-5.2M72.3 366.6c-3.2-2.1-6.6-4.3-10.3-5.2-3.8-.9-8.2-.2-10.8 2.6 3.1 1.8 6.8 2 10.3 2s7.9 0 11.2 1.1"/><path class="st2" d="M72.3 366.8c-5.5-5.4-7.6-15.2-5.4-22.7 4.3 6.6 6.3 14.8 5.4 22.7M87.5 351.3c1-2.4 1.8-5 2.7-7.5.9-2.5 2.1-4.9 3.9-6.9 1.8-2 4.2-3.4 6.9-3.6-1.7 7.5-6.6 14.2-13.3 17.9M84.8 354.5c-1.7-2.4-3.7-5.6-6.1-7.4-2.3-1.8-5.4-2.9-8.3-2.2 3 5.3 8.5 9 14.4 9.6M85.3 351.5c-1.1-2.9-2.3-5.8-2.7-8.9-.5-3.1-.2-6.3 1.4-9 3 5.8 4 11.9 1.5 17.9M87.6 333.7c1.7-5.7 6.9-9.9 12.6-11.8.7-.2 1.5-.4 2.2-.3.7.1 1.5.6 1.6 1.4.2 1-.6 1.8-1.3 2.5-4.5 3.6-9.6 6.5-15.1 8.2M87.6 329c.2-3.7.4-7.4 1.6-10.9 1.2-3.5 3.5-6.8 6.9-8.3.6 3.7-1.1 7.4-3 10.6-2 3.2-4.4 6.2-5.5 9.8M87.5 331.5c-1.4-4.2-1.6-9.4-4.1-13.1-1.7-2.5-4.5-4.3-6-6.9-1 2.5-.7 5.4.4 7.9 1 2.5 2.8 4.6 4.6 6.6 1.9 2 3.4 3.5 5.1 5.5"/><path class="st2" d="M87.6 453.9c-.1 0-.2-27.7-.2-61.9s.1-61.9.2-61.9.2 27.7.2 61.9-.1 61.9-.2 61.9z"/><path class="st2" d="M111.8 370.9s-.4.2-1 .4c-.7.3-1.7.6-2.9 1-2.4.8-5.7 2-9.3 3.5-3.6 1.5-6.9 2.8-8.9 4.4-1 .8-1.5 1.7-1.8 2.4-.3.7-.3 1-.4 1v-.3c0-.2.1-.5.2-.8.2-.7.8-1.6 1.7-2.5 1-.9 2.3-1.7 3.8-2.4s3.2-1.5 5-2.2c3.6-1.5 7-2.6 9.4-3.4 1.2-.4 2.2-.7 2.9-.8.9-.3 1.3-.3 1.3-.3z"/><path class="st2" d="m119.7 351.4-.3.3c-.2.2-.5.5-.9.8-.8.8-2 1.8-3.3 3-2.9 2.6-6.8 6-11.1 9.8-4.3 3.8-8 7.5-10.6 10.3-1.3 1.4-2.3 2.5-3 3.3-.3.4-.6.7-.8.9l-.3.3s.1-.1.2-.4c.2-.2.4-.6.7-1 .7-.8 1.6-2 2.9-3.4 2.5-2.8 6.2-6.5 10.6-10.4 4.3-3.8 8.3-7.3 11.1-9.8 1.4-1.2 2.6-2.2 3.4-2.9.4-.3.7-.6.9-.8.4.1.5 0 .5 0z"/><path class="st2" d="M99.5 369.3c-.1-.1.8-2.1 1.7-4.8.9-2.6 1.3-4.9 1.4-4.8.1 0-.2 2.3-1.1 5-.5 1.3-.9 2.5-1.3 3.3-.3.8-.6 1.3-.7 1.3zM87.6 386.1s-.3-.3-.7-.8c-.5-.6-1-1.3-1.7-2.2-1.4-1.8-3.4-4.4-5.6-7.2-2.2-2.8-4.3-5.3-5.7-7.1-.7-.9-1.3-1.6-1.7-2.2-.4-.5-.6-.8-.6-.8s.3.2.7.7c.4.5 1.1 1.2 1.8 2.1 1.5 1.8 3.6 4.2 5.8 7 2.2 2.8 4.2 5.4 5.5 7.3.7.9 1.2 1.7 1.6 2.3.4.5.6.8.6.9z"/><path class="st2" d="M82.3 379.2c-.1.1-1.5-1.6-2.2-4.2-.5-1.8-.6-3.4-.5-4.2h.2c-.1.3-.1.5-.2.5v-.5h.2c.1.7.2 2.3.7 4.1.7 2.5 1.9 4.3 1.8 4.3zM75.4 370.6c-.1.1-.5-.5-1.6-.9-1-.4-2.6-.5-4.3-.3-1.7.1-3.2.4-4.3.7-1.1.3-1.8.5-1.8.4 0 0 .6-.4 1.7-.7 1.1-.3 2.6-.7 4.4-.8 1.7-.1 3.4 0 4.4.5 1.2.4 1.6 1.1 1.5 1.1zM73.8 368.5c0 .1-.9-.4-2.4-.9s-3.6-1-5.9-1.2c-2.4-.2-4.5 0-6.1.3-1.5.3-2.5.6-2.5.5l.6-.3c.4-.2 1-.3 1.8-.5 1.5-.4 3.7-.6 6.1-.4 2.4.2 4.5.8 6 1.4.7.3 1.3.6 1.7.8.5.2.7.3.7.3zM87.5 359.7c-.1 0-.9-2.7-1.7-6-.9-3.4-1.5-6.1-1.3-6.1.1 0 .9 2.7 1.7 6 .8 3.3 1.5 6.1 1.3 6.1z"/><path class="st2" d="M87.7 359.7c-.1 0-.6-1.8-1.9-3.6-1.3-1.9-2.9-2.8-2.8-2.9 0 0 .5.1 1.1.6.6.4 1.4 1.2 2.1 2.1 1.2 1.9 1.6 3.8 1.5 3.8zM87.6 439.1s-.1-.7-.4-1.8c-.3-1.2-.9-2.8-1.9-4.8-1.9-3.9-5.4-8.9-9.8-13.8-2.2-2.5-4.3-4.9-6.1-7.1-1.8-2.3-3.3-4.4-4.4-6.3-1.1-1.9-1.8-3.5-2.2-4.7-.2-.6-.4-1-.4-1.3-.1-.3-.1-.5-.1-.5s.2.6.7 1.8c.5 1.1 1.2 2.7 2.3 4.6 1.1 1.9 2.6 4 4.4 6.2 1.8 2.2 3.9 4.6 6.1 7.1 4.4 5 7.9 10 9.8 14 .9 2 1.5 3.7 1.7 4.9.1.6.2 1.1.2 1.4.1.2.1.3.1.3zM109.5 414.4s-.4.2-1.1.6c-.7.4-1.8 1.1-3 2-1.2.9-2.5 2.1-3.9 3.6-1.4 1.4-2.8 3.1-4.2 4.9-2.9 3.6-5.6 6.8-7.2 9.4-.8 1.3-1.4 2.3-1.8 3.1-.4.7-.6 1.2-.6 1.2s0-.1.1-.3c.1-.2.2-.5.4-.9.3-.8.9-1.9 1.7-3.2 1.6-2.6 4.2-5.9 7.1-9.5 1.4-1.8 2.9-3.5 4.3-4.9 1.4-1.4 2.8-2.6 4-3.5 1.2-.9 2.3-1.5 3.1-1.9.4-.2.7-.3.9-.4 0-.2.2-.2.2-.2z"/><path class="st2" d="M109.9 422.4c0 .1-.9.2-2.4.4s-3.6.4-5.8 1.1c-2.2.7-4 1.8-5.1 2.7-1.2.9-1.7 1.7-1.8 1.6 0 0 .1-.2.4-.6.3-.3.7-.8 1.3-1.3 1.2-1 3-2.1 5.2-2.9 2.2-.7 4.3-.9 5.8-1h2.4z"/><path class="st2" d="M95.5 427.4c-.1-.1 1-1.7 1.8-4s1-4.3 1.1-4.2c.1 0 0 .5 0 1.3-.1.8-.3 1.9-.7 3.1-.4 1.2-1 2.1-1.4 2.8-.5.6-.8 1-.8 1zM116.6 392.9s-.1.1-.4.2c-.3.1-.7.3-1.1.5-.5.2-1.1.5-1.8.8-.7.4-1.5.7-2.3 1.2-.4.2-.9.5-1.3.8-.5.3-.9.6-1.4.9-1 .6-2 1.3-3 2.1-2 1.5-4.2 3.4-6.3 5.5-2 2.1-3.8 4.3-5.3 6.4-.7 1.1-1.4 2.1-2 3.1-.3.5-.6 1-.8 1.4-.2.5-.5.9-.7 1.3-.5.8-.8 1.7-1.1 2.4-.3.7-.6 1.3-.8 1.8-.2.5-.4.9-.5 1.2-.1.3-.2.4-.2.4s0-.1.1-.4c.1-.3.2-.7.4-1.2s.4-1.1.7-1.8c.3-.7.6-1.5 1.1-2.4.2-.4.4-.9.7-1.4.2-.5.5-.9.8-1.4.5-1 1.2-2 1.9-3.1 1.5-2.1 3.2-4.4 5.3-6.5 2.1-2.1 4.3-4 6.3-5.5 1.1-.7 2-1.5 3-2 .5-.3 1-.6 1.4-.9.5-.3.9-.5 1.3-.7.8-.5 1.7-.8 2.4-1.2.7-.3 1.3-.6 1.8-.8.5-.2.9-.3 1.2-.4.4-.3.5-.3.6-.3z"/><path class="st2" d="M99.2 404.5s.2-.7 1-1.4 2.2-1.4 3.8-1.5c1.6 0 3.1.4 4 .8 1 .4 1.5.7 1.5.7 0 .1-.6-.2-1.6-.5s-2.4-.7-3.9-.7c-1.6 0-2.9.6-3.7 1.3-.7.7-1 1.3-1.1 1.3zM96.6 407.2c-.1-.1.9-1.5 1.1-3.5.3-2-.4-3.7-.2-3.7 0 0 .3.4.5 1 .2.7.3 1.6.2 2.7-.1 1.1-.5 2-.8 2.6-.4.6-.7.9-.8.9zM68.4 443.1c.6 10.6 3.8 21.4 8.7 32.3h21.4c4.7-10.8 7.7-21.5 8.2-32.3H68.4z"/><path class="st3" d="M103.2 460.3c0 .1-7 .2-15.7.2s-15.7-.1-15.7-.2 7-.2 15.7-.2 15.7 0 15.7.2zM102.7 464.1c0 .1-6.6.2-14.7.2s-14.7-.1-14.7-.2 6.6-.2 14.7-.2 14.7.1 14.7.2zM77.5 450.1c.1 0 .2 2.2.2 4.9s-.1 4.9-.2 4.9-.2-2.2-.2-4.9.1-4.9.2-4.9z"/><path class="st3" d="M88.9 450.1c.1 0 .2 2.3.2 5.1s-.1 5.1-.2 5.1-.2-2.3-.2-5.1c0-2.9.1-5.1.2-5.1zM99.7 450c.1 0 .2 2.3.2 5.2 0 2.9-.1 5.2-.2 5.2s-.2-2.3-.2-5.2c0-2.9 0-5.2.2-5.2z"/><path class="st3" d="M106 450.1c0 .1-8.2.2-18.4.2s-18.4-.1-18.4-.2 8.2-.2 18.4-.2c10.1 0 18.4.1 18.4.2z"/></g><path class="st6" d="M703.8 475.7c0 .1-147.2.3-328.8.3-181.6 0-328.8-.1-328.8-.3 0-.1 147.2-.3 328.8-.3 181.6.1 328.8.2 328.8.3z" id="Floor"/><g id="Character_3"><path class="st7" d="M584.3 386.9H215.1c-7.7 0-14-6.3-14-14V116.5c0-7.7 6.3-14 14-14h369.2c7.7 0 14 6.3 14 14v256.3c0 7.8-6.3 14.1-14 14.1z"/><path class="st2" d="M598.3 132.8H201v-16.6c0-7.6 6.2-13.7 13.7-13.7h369.9c7.6 0 13.7 6.1 13.7 13.7v16.6z"/><path class="st6" d="M585.1 386.9s.3 0 .9-.1c.3 0 .6 0 1.1-.1.2 0 .4-.1.7-.1.2-.1.5-.1.8-.2 1.1-.3 2.5-.8 3.9-1.7 1.4-.9 2.9-2.3 4-4.2 1.2-1.9 1.9-4.4 1.9-7.1v-31.5c0-33.9 0-83-.1-143.6v-79.4c0-2.2.1-4.4-.5-6.4-.5-2.1-1.7-4-3.2-5.6-1.5-1.6-3.4-2.7-5.5-3.4-1.1-.3-2.1-.5-3.2-.5-1.1-.1-2.2 0-3.4 0H214.4c-2.8 0-5.7.9-7.9 2.7-1.1.9-2.1 1.9-2.9 3.1-.8 1.2-1.4 2.5-1.7 3.8-.2.7-.3 1.4-.4 2.1 0 .7-.1 1.4-.1 2.1V371c0 2.5-.1 5 .8 7.2.8 2.3 2.3 4.3 4.2 5.8.9.8 2 1.3 3.1 1.8 1.1.4 2.3.7 3.5.9 1.2.1 2.4.1 3.6.1H389c60.6 0 109.7.1 143.6.1h52.5-52.8c-33.9 0-83 0-143.6.1H216.3c-1.2 0-2.4 0-3.7-.1-1.2-.1-2.4-.5-3.6-.9-1.1-.5-2.2-1.1-3.2-1.9-1.9-1.5-3.5-3.6-4.3-6-.2-.6-.4-1.2-.5-1.8-.1-.6-.2-1.2-.2-1.9-.1-1.3 0-2.5 0-3.7V116.5c0-.7 0-1.4.1-2.2.1-.7.2-1.5.4-2.2.4-1.4 1-2.8 1.8-4 .8-1.2 1.8-2.3 3-3.2 2.3-1.8 5.3-2.8 8.2-2.8h371.5c1.1 0 2.3.3 3.3.6 2.2.7 4.1 1.9 5.7 3.5 1.5 1.6 2.7 3.6 3.3 5.8.1.5.3 1.1.3 1.6.1.5.1 1.1.1 1.7V198c0 60.6-.1 109.7-.1 143.6v31.5c0 2.8-.7 5.3-1.9 7.2-1.2 1.9-2.6 3.3-4.1 4.2-1.4.9-2.8 1.4-3.9 1.7-.3.1-.5.1-.8.2-.2 0-.5.1-.7.1-.4.1-.8.1-1.1.1-.5.3-.8.3-.8.3z"/><path class="st1" d="M225.2 119c0 2.9-2.4 5.3-5.3 5.3s-5.3-2.4-5.3-5.3 2.4-5.3 5.3-5.3 5.3 2.4 5.3 5.3zM238.8 119c0 2.9-2.4 5.3-5.3 5.3s-5.3-2.4-5.3-5.3 2.4-5.3 5.3-5.3c2.9.1 5.3 2.4 5.3 5.3zM252.5 119c0 2.9-2.4 5.3-5.3 5.3s-5.3-2.4-5.3-5.3 2.4-5.3 5.3-5.3c2.9.1 5.3 2.4 5.3 5.3z"/><path class="st2" d="M449.2 290.9c0-.1 2.6-.3 5.8-.3 3.2 0 5.8.1 5.8.3s-2.6.3-5.8.3c-3.2-.1-5.8-.2-5.8-.3zM426 290.9c0-.1 2.6-.3 5.8-.3 3.2 0 5.8.1 5.8.3s-2.6.3-5.8.3c-3.2-.1-5.8-.2-5.8-.3zM402.7 290.9c0-.1 2.6-.3 5.8-.3 3.2 0 5.8.1 5.8.3s-2.6.3-5.8.3c-3.2-.1-5.8-.2-5.8-.3zM379.5 290.9c0-.1 2.6-.3 5.8-.3 3.2 0 5.8.1 5.8.3s-2.6.3-5.8.3c-3.2-.1-5.8-.2-5.8-.3zM366.9 277.6c.1 0 .3 2.6.3 5.8v2.2c.1.7.2 1.3.4 1.7.4.9.8 1.4.8 1.5 0 0-.6-.4-1.1-1.3-.3-.5-.5-1.1-.6-1.8-.1-.7 0-1.5-.1-2.3.1-3.2.2-5.8.3-5.8zM366.9 254.4c.1 0 .3 2.6.3 5.8 0 3.2-.1 5.8-.3 5.8s-.3-2.6-.3-5.8c.1-3.2.2-5.8.3-5.8zM366.9 231.1c.1 0 .3 2.6.3 5.8 0 3.2-.1 5.8-.3 5.8s-.3-2.6-.3-5.8c.1-3.2.2-5.8.3-5.8zM366.9 207.9c.1 0 .3 2.6.3 5.8 0 3.2-.1 5.8-.3 5.8s-.3-2.6-.3-5.8c.1-3.2.2-5.8.3-5.8zM384.4 199.6c0 .1-2.6.3-5.8.3-3.2 0-5.8-.1-5.8-.3 0-.1 2.6-.3 5.8-.3 3.2 0 5.8.1 5.8.3zM407.7 199.6c0 .1-2.6.3-5.8.3-3.2 0-5.8-.1-5.8-.3 0-.1 2.6-.3 5.8-.3 3.2 0 5.8.1 5.8.3zM431 199.6c0 .1-2.6.3-5.8.3-3.2 0-5.8-.1-5.8-.3 0-.1 2.6-.3 5.8-.3 3.1 0 5.8.1 5.8.3zM454.2 199.6c0 .1-2.6.3-5.8.3-3.2 0-5.8-.1-5.8-.3 0-.1 2.6-.3 5.8-.3 3.2 0 5.8.1 5.8.3zM466.7 212.8c-.1 0-.3-2.6-.3-5.8v-2.2c-.1-.7-.2-1.3-.4-1.7-.4-.9-.8-1.4-.8-1.5 0 0 .6.4 1.1 1.3.3.5.5 1.1.6 1.8.1.7 0 1.5.1 2.3 0 3.2-.1 5.8-.3 5.8zM466.7 236.1c-.1 0-.3-2.6-.3-5.8 0-3.2.1-5.8.3-5.8s.3 2.6.3 5.8c0 3.2-.1 5.8-.3 5.8zM466.7 259.3c-.1 0-.3-2.6-.3-5.8 0-3.2.1-5.8.3-5.8s.3 2.6.3 5.8c0 3.2-.1 5.8-.3 5.8zM466.7 282.6c-.1 0-.3-2.6-.3-5.8 0-3.2.1-5.8.3-5.8s.3 2.6.3 5.8c0 3.2-.1 5.8-.3 5.8zM448.4 312.3c0-.1 1.3-.3 2.9-.3 1.6 0 2.9.1 2.9.3s-1.3.3-2.9.3c-1.6-.1-2.9-.2-2.9-.3zM436.8 312.3c0-.1 1.3-.3 2.9-.3 1.6 0 2.9.1 2.9.3s-1.3.3-2.9.3c-1.6-.1-2.9-.2-2.9-.3zM425.1 312.3c0-.1 1.3-.3 2.9-.3 1.6 0 2.9.1 2.9.3s-1.3.3-2.9.3c-1.6-.1-2.9-.2-2.9-.3zM413.4 312.3c0-.1 1.3-.3 2.9-.3 1.6 0 2.9.1 2.9.3s-1.3.3-2.9.3c-1.5-.1-2.9-.2-2.9-.3zM401.8 312.3c0-.1 1.3-.3 2.9-.3 1.6 0 2.9.1 2.9.3s-1.3.3-2.9.3c-1.6-.1-2.9-.2-2.9-.3zM390.1 312.3c0-.1 1.3-.3 2.9-.3 1.6 0 2.9.1 2.9.3s-1.3.3-2.9.3c-1.6-.1-2.9-.2-2.9-.3zM378.5 312.3c0-.1 1.3-.3 2.9-.3 1.6 0 2.9.1 2.9.3s-1.3.3-2.9.3c-1.6-.1-2.9-.2-2.9-.3zM369 308.4c.2 0 .1 1.4 1.2 2.5 1 1.1 2.4 1.2 2.4 1.4 0 .1-.3.1-.9 0-.5-.1-1.3-.4-1.9-1.1-.6-.6-.9-1.4-.9-2 0-.5.1-.8.1-.8zM378.6 304.7c0 .1-1.3.3-2.9.3-1.6 0-2.9-.1-2.9-.3s1.3-.3 2.9-.3c1.6 0 2.9.2 2.9.3zM390.3 304.7c0 .1-1.3.3-2.9.3-1.6 0-2.9-.1-2.9-.3s1.3-.3 2.9-.3c1.6 0 2.9.2 2.9.3zM401.9 304.7c0 .1-1.3.3-2.9.3-1.6 0-2.9-.1-2.9-.3s1.3-.3 2.9-.3c1.6 0 2.9.2 2.9.3zM413.6 304.7c0 .1-1.3.3-2.9.3-1.6 0-2.9-.1-2.9-.3s1.3-.3 2.9-.3c1.6 0 2.9.2 2.9.3zM425.3 304.7c0 .1-1.3.3-2.9.3-1.6 0-2.9-.1-2.9-.3s1.3-.3 2.9-.3c1.6 0 2.9.2 2.9.3zM436.9 304.7c0 .1-1.3.3-2.9.3-1.6 0-2.9-.1-2.9-.3s1.3-.3 2.9-.3c1.6 0 2.9.2 2.9.3zM448.6 304.7c0 .1-1.3.3-2.9.3-1.6 0-2.9-.1-2.9-.3s1.3-.3 2.9-.3c1.6 0 2.9.2 2.9.3zM458 308.6c-.2 0-.1-1.4-1.2-2.5-1-1.1-2.4-1.2-2.4-1.4 0-.1.3-.1.9 0 .5.1 1.3.4 1.9 1.1.6.6.9 1.4.9 2 .1.4 0 .8-.1.8zM448.4 332.8c0-.1 1.3-.3 2.9-.3 1.6 0 2.9.1 2.9.3 0 .1-1.3.3-2.9.3-1.6-.1-2.9-.2-2.9-.3zM436.8 332.8c0-.1 1.3-.3 2.9-.3 1.6 0 2.9.1 2.9.3 0 .1-1.3.3-2.9.3-1.6-.1-2.9-.2-2.9-.3zM425.1 332.8c0-.1 1.3-.3 2.9-.3 1.6 0 2.9.1 2.9.3 0 .1-1.3.3-2.9.3-1.6-.1-2.9-.2-2.9-.3zM413.4 332.8c0-.1 1.3-.3 2.9-.3 1.6 0 2.9.1 2.9.3 0 .1-1.3.3-2.9.3-1.5-.1-2.9-.2-2.9-.3zM401.8 332.8c0-.1 1.3-.3 2.9-.3 1.6 0 2.9.1 2.9.3 0 .1-1.3.3-2.9.3-1.6-.1-2.9-.2-2.9-.3zM390.1 332.8c0-.1 1.3-.3 2.9-.3 1.6 0 2.9.1 2.9.3 0 .1-1.3.3-2.9.3-1.6-.1-2.9-.2-2.9-.3zM378.5 332.8c0-.1 1.3-.3 2.9-.3 1.6 0 2.9.1 2.9.3 0 .1-1.3.3-2.9.3-1.6-.1-2.9-.2-2.9-.3zM369 328.9c.2 0 .1 1.4 1.2 2.5 1 1.1 2.4 1.2 2.4 1.4 0 .1-.3.1-.9 0-.5-.1-1.3-.4-1.9-1.1-.6-.6-.9-1.4-.9-2 0-.5.1-.8.1-.8zM378.6 325.2c0 .1-1.3.3-2.9.3-1.6 0-2.9-.1-2.9-.3 0-.1 1.3-.3 2.9-.3 1.6.1 2.9.2 2.9.3zM390.3 325.2c0 .1-1.3.3-2.9.3-1.6 0-2.9-.1-2.9-.3 0-.1 1.3-.3 2.9-.3 1.6.1 2.9.2 2.9.3zM401.9 325.2c0 .1-1.3.3-2.9.3-1.6 0-2.9-.1-2.9-.3 0-.1 1.3-.3 2.9-.3 1.6.1 2.9.2 2.9.3zM413.6 325.2c0 .1-1.3.3-2.9.3-1.6 0-2.9-.1-2.9-.3 0-.1 1.3-.3 2.9-.3 1.6.1 2.9.2 2.9.3zM425.3 325.2c0 .1-1.3.3-2.9.3-1.6 0-2.9-.1-2.9-.3 0-.1 1.3-.3 2.9-.3 1.6.1 2.9.2 2.9.3zM436.9 325.2c0 .1-1.3.3-2.9.3-1.6 0-2.9-.1-2.9-.3 0-.1 1.3-.3 2.9-.3 1.6.1 2.9.2 2.9.3zM448.6 325.2c0 .1-1.3.3-2.9.3-1.6 0-2.9-.1-2.9-.3 0-.1 1.3-.3 2.9-.3 1.6.1 2.9.2 2.9.3zM458 329.1c-.2 0-.1-1.4-1.2-2.5-1-1.1-2.4-1.2-2.4-1.4 0-.1.3-.1.9 0 .5.1 1.3.4 1.9 1.1.6.6.9 1.4.9 2 .1.4 0 .8-.1.8zM448.4 352.6c0-.1 1.3-.3 2.9-.3 1.6 0 2.9.1 2.9.3s-1.3.3-2.9.3c-1.6 0-2.9-.1-2.9-.3zM436.8 352.6c0-.1 1.3-.3 2.9-.3 1.6 0 2.9.1 2.9.3s-1.3.3-2.9.3c-1.6 0-2.9-.1-2.9-.3zM425.1 352.6c0-.1 1.3-.3 2.9-.3 1.6 0 2.9.1 2.9.3s-1.3.3-2.9.3c-1.6 0-2.9-.1-2.9-.3zM413.4 352.6c0-.1 1.3-.3 2.9-.3 1.6 0 2.9.1 2.9.3s-1.3.3-2.9.3c-1.5 0-2.9-.1-2.9-.3zM401.8 352.6c0-.1 1.3-.3 2.9-.3 1.6 0 2.9.1 2.9.3s-1.3.3-2.9.3c-1.6 0-2.9-.1-2.9-.3zM390.1 352.6c0-.1 1.3-.3 2.9-.3 1.6 0 2.9.1 2.9.3s-1.3.3-2.9.3c-1.6 0-2.9-.1-2.9-.3zM378.5 352.6c0-.1 1.3-.3 2.9-.3 1.6 0 2.9.1 2.9.3s-1.3.3-2.9.3c-1.6 0-2.9-.1-2.9-.3zM369 348.8c.2 0 .1 1.4 1.2 2.5 1 1.1 2.4 1.2 2.4 1.4 0 .1-.3.1-.9 0-.5-.1-1.3-.4-1.9-1.1-.6-.6-.9-1.4-.9-2 0-.5.1-.8.1-.8zM378.6 345.1c0 .1-1.3.3-2.9.3-1.6 0-2.9-.1-2.9-.3s1.3-.3 2.9-.3c1.6 0 2.9.2 2.9.3zM390.3 345.1c0 .1-1.3.3-2.9.3-1.6 0-2.9-.1-2.9-.3s1.3-.3 2.9-.3c1.6 0 2.9.2 2.9.3zM401.9 345.1c0 .1-1.3.3-2.9.3-1.6 0-2.9-.1-2.9-.3s1.3-.3 2.9-.3c1.6 0 2.9.2 2.9.3zM413.6 345.1c0 .1-1.3.3-2.9.3-1.6 0-2.9-.1-2.9-.3s1.3-.3 2.9-.3c1.6 0 2.9.2 2.9.3zM425.3 345.1c0 .1-1.3.3-2.9.3-1.6 0-2.9-.1-2.9-.3s1.3-.3 2.9-.3c1.6 0 2.9.2 2.9.3zM436.9 345.1c0 .1-1.3.3-2.9.3-1.6 0-2.9-.1-2.9-.3s1.3-.3 2.9-.3c1.6 0 2.9.2 2.9.3zM448.6 345.1c0 .1-1.3.3-2.9.3-1.6 0-2.9-.1-2.9-.3s1.3-.3 2.9-.3c1.6 0 2.9.2 2.9.3zM458 349c-.2 0-.1-1.4-1.2-2.5-1-1.1-2.4-1.2-2.4-1.4 0-.1.3-.1.9 0 .5.1 1.3.4 1.9 1.1.6.6.9 1.4.9 2 .1.4 0 .8-.1.8zM573.6 308.8h-80.8c-1.6 0-2.9-1.3-2.9-2.9 0-1.6 1.3-2.9 2.9-2.9h80.8c1.6 0 2.9 1.3 2.9 2.9 0 1.6-1.3 2.9-2.9 2.9zM573.6 324.2h-80.1c-1.6 0-2.9-1.3-2.9-2.9 0-1.6 1.3-2.9 2.9-2.9h80.1c1.6 0 2.9 1.3 2.9 2.9 0 1.6-1.3 2.9-2.9 2.9zM534.4 341.3h-40.8c-1.6 0-2.9-1.3-2.9-2.9 0-1.6 1.3-2.9 2.9-2.9h40.8c1.6 0 2.9 1.3 2.9 2.9 0 1.6-1.3 2.9-2.9 2.9z"/><path d="M342.3 363.2H240.6c-5.7 0-10.3-4.6-10.3-10.3v-150c0-5.7 4.6-10.3 10.3-10.3h101.6c5.7 0 10.3 4.6 10.3 10.3v150c.1 5.6-4.5 10.3-10.2 10.3z" class="st8"/><path class="st1" d="M340.3 355.2H231.8c-3.8 0-6.8-3.1-6.8-6.8v-157c0-3.8 3.1-6.8 6.8-6.8h108.5c3.8 0 6.8 3.1 6.8 6.8v156.9c0 3.8-3 6.9-6.8 6.9z"/><path class="st6" d="M340.3 355.2s.5 0 1.5-.2c.9-.2 2.4-.7 3.6-2.2.6-.7 1.2-1.7 1.5-2.8.3-1.1.2-2.4.2-3.8v-9.6c0-14.5 0-35.5-.1-61.5v-81.7c0-1.1.1-2.1-.1-3.1-.3-2-1.7-3.9-3.6-4.8-1.9-1-4.1-.6-6.3-.7H231.8c-2.4 0-4.7 1.4-5.8 3.5-.6 1.1-.8 2.2-.8 3.4V346.8c0 .9-.1 1.9.1 2.8.2.9.5 1.7 1 2.5 1 1.5 2.6 2.5 4.3 2.8.9.2 1.8.1 2.7.1H256.4c26 0 47 .1 61.5.1h21c.9 0 1.4.1 1.4.1h-22.5c-14.5 0-35.5 0-61.5.1H233.2c-.9 0-1.8.1-2.7-.1-1.8-.3-3.5-1.4-4.6-3-.5-.8-.9-1.7-1.1-2.6-.2-1-.1-1.9-.1-2.8V191.7c0-1.2.2-2.6.8-3.7 1.2-2.3 3.7-3.8 6.3-3.8H340.2c1.1 0 2.2.3 3.2.7 2 1 3.5 2.9 3.8 5.1.2 1.1.1 2.2.1 3.2v81.7c0 26-.1 47-.1 61.5v9.6c0 1.4.1 2.7-.2 3.9-.3 1.2-.9 2.1-1.5 2.8-1.3 1.5-2.8 2-3.7 2.2-.5.1-.9.1-1.1.1-.3.2-.4.2-.4.2z"/><path class="st9" d="M329.3 264.7h-89.6v-69.4h89.6v69.4zm-88.6-1h87.6v-67.4h-87.6v67.4z"/><path class="st9" d="M243.8 196.2c0 2-1.6 3.6-3.6 3.6s-3.6-1.6-3.6-3.6 1.6-3.6 3.6-3.6 3.6 1.6 3.6 3.6zM332.5 196.2c0 2-1.6 3.6-3.6 3.6s-3.6-1.6-3.6-3.6 1.6-3.6 3.6-3.6c1.9 0 3.6 1.6 3.6 3.6zM243.8 264.2c0 2-1.6 3.6-3.6 3.6s-3.6-1.6-3.6-3.6 1.6-3.6 3.6-3.6c2-.1 3.6 1.5 3.6 3.6zM332.5 264.2c0 2-1.6 3.6-3.6 3.6s-3.6-1.6-3.6-3.6 1.6-3.6 3.6-3.6c1.9-.1 3.6 1.5 3.6 3.6zM269.2 213.2h33.9l.1 11.4h-1.6c-.5-4.1-2.1-6.8-4.6-8.3-1.4-.8-3.5-1.2-6.3-1.3v29.7c0 2.1.4 3.5 1.1 4.1.7.7 2.2 1 4.5 1v1.4h-20.1v-1.4c2.2 0 3.7-.3 4.4-1 .7-.7 1.1-2.1 1.1-4.1V215c-2.8.1-4.9.5-6.3 1.3-2.7 1.5-4.2 4.2-4.6 8.3h-1.6v-11.4z"/><path class="st2" d="M329.2 288.7h-90c-1.6 0-2.9-1.3-2.9-2.9 0-1.6 1.3-2.9 2.9-2.9h90c1.6 0 2.9 1.3 2.9 2.9 0 1.6-1.3 2.9-2.9 2.9zM329.2 303.3h-90c-1.6 0-2.9-1.3-2.9-2.9 0-1.6 1.3-2.9 2.9-2.9h90c1.6 0 2.9 1.3 2.9 2.9 0 1.6-1.3 2.9-2.9 2.9zM329.2 319.4h-90c-1.6 0-2.9-1.3-2.9-2.9 0-1.6 1.3-2.9 2.9-2.9h90c1.6 0 2.9 1.3 2.9 2.9 0 1.6-1.3 2.9-2.9 2.9zM280.3 334.4h-41.2c-1.6 0-2.9-1.3-2.9-2.9 0-1.6 1.3-2.9 2.9-2.9h41.2c1.6 0 2.9 1.3 2.9 2.9 0 1.6-1.3 2.9-2.9 2.9z"/><path d="M576.6 287.2H505c-4.3 0-7.7-3.4-7.7-7.7V218c0-4.3 3.4-7.7 7.7-7.7h71.7c4.3 0 7.7 3.4 7.7 7.7v61.5c-.1 4.3-3.5 7.7-7.8 7.7z" class="st8"/><path d="M463.1 296.3h-77c-4.4 0-7.9-3.6-7.9-7.9v-67.2c0-4.4 3.6-7.9 7.9-7.9h77c4.4 0 7.9 3.6 7.9 7.9v67.2c0 4.3-3.5 7.9-7.9 7.9z" style="opacity:.1"/><path class="st11" d="M571.3 282.4H499c-4.1 0-7.4-3.3-7.4-7.4v-62.1c0-4.1 3.3-7.4 7.4-7.4h72.3c4.1 0 7.4 3.3 7.4 7.4V275c0 4.1-3.4 7.4-7.4 7.4z"/><path d="M500.3 275.3h67.1c1.8 0 2.9-2 1.9-3.6l-18.5-31.4c-.8-1.4-2.8-1.5-3.7 0l-6.8 11.1c-.3.6-1.1.6-1.5 0l-12.5-21.1c-.9-1.5-3.1-1.5-4 0l-24.1 41.2c-.9 1.7.3 3.8 2.1 3.8z" class="st12"/><ellipse cx="556.9" cy="224.6" rx="8.4" ry="8.8" class="st12"/><path d="M596.3 276.6h-29.2c-1.1 0-2-.9-2-2v-27.4c0-1.1.9-2 2-2h29.2c1.1 0 2 .9 2 2v27.4c0 1.1-.9 2-2 2zM260.4 140.9l305.2 35.4c6.4.7 12.3-3.9 13-10.3.7-6.4-3.9-12.3-10.3-13l-305.2-35.4c-6.4-.7-12.3 3.9-13 10.3-.8 6.4 3.9 12.2 10.3 13z" class="st8"/><path class="st7" d="m255.9 132.9 305.2 35.4c6.4.7 12.3-3.9 13-10.3.7-6.4-3.9-12.3-10.3-13l-305.2-35.4c-6.4-.7-12.3 3.9-13 10.3-.8 6.5 3.8 12.3 10.3 13z"/><path class="st6" d="M255.9 132.9s-.1 0-.4-.1c-.3 0-.7-.1-1.3-.3-1.1-.3-2.8-.9-4.6-2.4-1.7-1.5-3.5-3.9-4-7.3-.2-1.7-.1-3.5.5-5.4.6-1.8 1.7-3.7 3.4-5.1.8-.7 1.8-1.4 2.8-1.9 1-.5 2.2-.9 3.4-1 .6-.1 1.2-.1 1.8-.1.6 0 1.3.1 1.9.2 1.3.1 2.5.3 3.9.4 5.3.6 11 1.3 17.1 2 12.3 1.4 26.3 3 41.7 4.8 61.9 7.2 147.3 17 241.7 28 3 .3 5.9 1.9 7.8 4.2 2 2.3 3 5.4 2.8 8.3-.1 3-1.4 5.9-3.6 8-2.1 2.1-5 3.3-8 3.4-1.5 0-2.9-.2-4.3-.4s-2.9-.3-4.3-.5c-2.9-.3-5.7-.7-8.5-1-5.7-.7-11.3-1.3-16.8-2-22.3-2.6-43.7-5.1-64.2-7.5-40.9-4.8-77.7-9.1-108.7-12.7-30.9-3.6-55.9-6.6-73.3-8.6-8.6-1-15.4-1.8-19.9-2.4-2.3-.3-4-.5-5.2-.6-1.1.1-1.7 0-1.7 0s.6.1 1.8.2c1.2.1 2.9.3 5.2.6 4.6.5 11.3 1.3 19.9 2.3 17.3 2 42.3 4.9 73.3 8.4 30.9 3.6 67.8 7.8 108.7 12.5 20.5 2.4 41.9 4.9 64.2 7.4 5.6.6 11.2 1.3 16.8 2 2.8.3 5.7.7 8.5 1 1.4.2 2.9.3 4.3.5 1.4.1 2.9.4 4.3.4 2.8-.1 5.6-1.3 7.7-3.3 2.1-2 3.3-4.8 3.4-7.6.2-2.9-.8-5.8-2.7-8-1.9-2.2-4.6-3.7-7.5-4-94.4-11-179.8-20.9-241.7-28.1-15.5-1.8-29.5-3.4-41.7-4.9-6.1-.7-11.9-1.4-17.1-2-1.3-.2-2.6-.3-3.9-.5-.6-.1-1.2-.1-1.9-.2-.6 0-1.2 0-1.8.1-1.2.2-2.3.5-3.3 1s-2 1.1-2.8 1.8c-1.6 1.4-2.7 3.2-3.3 5-.6 1.8-.7 3.7-.5 5.3.5 3.3 2.2 5.8 3.9 7.3 1.8 1.5 3.4 2.1 4.5 2.4 1.1.4 1.7.4 1.7.4z"/><path class="st1" d="m529.9 156.4-251.7-29.2c-2.1-.2-3.6-2.1-3.4-4.3.2-2.1 2.1-3.6 4.3-3.4l251.7 29.2c2.1.2 3.6 2.1 3.4 4.3-.3 2.2-2.2 3.7-4.3 3.4z"/><path class="st13" d="M452.3 102.4c0 .1.1.2.1.3.1.4.2.8.3 1.3v.6c0 .1.1.2.2.4.3.8.2 1.7.2 2.5 0 .9 0 1.9.5 2.7.5.8 1.6 1.3 2.4.7-.1.6.3 1.2.9 1.3.6.1 1.2-.1 1.6-.5.4-.4.7-1 .8-1.5 0 .7.6 1.3 1.3 1.3.7 0 1.3-.4 1.7-1 .4-.6.5-1.3.6-2 .1-.7.2-2 .4-2.6 0 0 .9.1 1.3.2h.1s.5-.8.8-1.4c.6-1.1 1-1.9 1.4-2.9.3-.8.5-1.5 0-2-1.2-1.2-3.4 1.3-3.4 1.3-.3-.9-2.9-1-3.4.1-.2-.6-.1-1-.6-1.4-.5-.4-1.2-.6-1.9-.5-.6.2-1.2.8-1.1 1.5-.5-.9-1.7-1.3-2.6-1.1-.6.1-1.1.5-1.5 1-.2.3-.3.5-.4.8 0 .1-.1.2-.1.3 0 .1 0 .1.1.2 0 0 .2.2.3.4z"/><path class="st13" d="M449.5 100.7c-.6 0-1.2.1-1.6.5-.5.5-.5 1.5-.5 2.2.8.1 1.2.2 2 .3.2 0 .3 0 .4.1.4.3.3 1.1.5 1.6.3.7 1.2 1.1 1.9.8.7-.3 1.2-1 1.2-1.8s-.3-1.5-.8-2.1c-.7-.9-1.9-1.5-3.1-1.6z"/><path class="st14" d="M456.4 100.3c.1 0 .1 2.4 0 5.3s-.4 5.3-.5 5.3c-.1 0-.1-2.4 0-5.3.1-3 .4-5.3.5-5.3zM460 100.8c.1 0 .3 2.1.1 4.8-.2 2.6-.8 4.7-.9 4.7-.2 0 .2-2.1.4-4.7.2-2.7.3-4.8.4-4.8zM463.6 101.3c.2 0 .2 1.8-.1 4-.3 2.2-.6 3.9-.7 3.9-.2 0-.1-1.8.2-3.9.3-2.3.4-4 .6-4zM450.6 101.1c0-.1.4-.1.9.1s1.2.9 1.5 1.7c.3.8.4 1.6.4 2.2-.1.7-.5.8-.6.8 0-.1.2-.3.2-.8-.1-.5-.2-1.2-.5-2-.3-.7-.7-1.3-1.1-1.6-.4-.3-.8-.3-.8-.4z"/><path class="st13" d="m527.1 86.4-10.4-38c-2.3-9.5-9.7-16.2-19.2-13.6l-.9.3C488 37.9 483 47 485.2 55.8c2 8.3 4.3 17.4 5.8 21.6 3.1 8.9 12.5 7.3 12.5 7.3s1.6 5.5 2.4 8.1l-.3 6.8 6.9-3.9 14.6-9.3z"/><path class="st14" d="M503.5 84.8s5.7-1.5 10.5-7.3c0 0-.6 7.6-9.8 9.8l-.7-2.5z"/><path class="st6" d="M489.8 63.6c.2.7.9 1.1 1.7.9.7-.2 1.1-.9.9-1.6-.2-.7-.9-1.1-1.7-.9-.6.2-1.1.9-.9 1.6zM488.4 59.1c.2.1.9-.9 2.3-1.4 1.4-.5 2.6-.1 2.7-.3 0-.1-.2-.3-.8-.5-.5-.2-1.4-.2-2.2 0-.9.3-1.5.8-1.8 1.3-.3.6-.3.9-.2.9zM501.9 60.4c.2.7.9 1.1 1.7.9.7-.2 1.1-.9.9-1.6-.2-.7-.9-1.1-1.7-.9-.7.2-1.1.9-.9 1.6zM502 55c.2.1.9-.9 2.3-1.4 1.4-.5 2.6-.1 2.7-.3 0-.1-.2-.3-.8-.5-.5-.2-1.4-.2-2.2 0-.9.3-1.5.8-1.8 1.3-.3.5-.3.9-.2.9zM500.5 67.2c0-.1-.9.1-2.4.3-.4.1-.7.1-.9-.1-.2-.2-.1-.7-.1-1.1 0-1 .1-2 .2-3 .2-4.3.2-7.7 0-7.8-.2 0-.5 3.5-.6 7.7 0 1.1-.1 2.1-.1 3 0 .4-.1 1 .3 1.4.2.2.5.3.7.3.2 0 .4-.1.6-.1 1.5-.3 2.4-.5 2.3-.6zM500.1 50.9c.3.3 1.5-.5 3.1-1.1 1.6-.6 3-.8 3.1-1.2 0-.2-.4-.4-1-.5-.7-.1-1.6 0-2.6.3-1 .4-1.7.9-2.2 1.4-.4.5-.5.9-.4 1.1zM487 55.1c.4.2 1.4-.5 2.8-.9 1.3-.5 2.6-.6 2.7-1 .1-.2-.2-.5-.8-.6-.6-.1-1.5-.1-2.4.2-.9.3-1.6.9-2 1.3-.4.6-.5.9-.3 1z"/><path class="st13" d="M518.2 55.2c.1-.1 5.5-3.8 7.4 2.3 1.8 6.2-4.7 6.7-4.8 6.6-.1-.2-2.6-8.9-2.6-8.9z"/><path class="st14" d="M522 61.2s.1 0 .3.1c.2 0 .5 0 .8-.2.6-.4.8-1.6.5-2.8-.2-.6-.4-1.1-.8-1.4-.3-.4-.7-.6-1.1-.6-.3 0-.5.3-.5.5v.3s-.2-.1-.2-.3c0-.1 0-.3.1-.5s.3-.3.5-.3c.5-.1 1 .2 1.4.6.4.4.7 1 .9 1.6.3 1.3 0 2.6-.8 3.1-.4.2-.8.2-1 .1-.1 0-.1-.2-.1-.2z"/><path class="st6" d="M505.1 66.8c-.2 0 .2 1.5-.8 2.8-.9 1.4-2.5 1.6-2.4 1.8 0 .1.4.2 1.1 0 .6-.2 1.5-.6 2.1-1.4.6-.8.7-1.7.5-2.3-.1-.6-.4-.9-.5-.9zM470.4 51.3c0-.4.2-.8.4-1.1.6-.6 1.4-.8 2.2-1.1 1.9-.6 3.7-1.7 5.2-3.1-.7-.1-1.4-.3-2-.7-1.3-.7-2.3-2-2.3-3.5 0-.3.1-.6.3-.7.4-.2.8 0 1.2.3 1.2.8 2.2.9 3.5.4.8-.3 1.6-.8 2.1-1.4 0 0 0-.1.1-.1.2-.4.4-.8.7-1.2 1.6-3 3.2-5.2 5-6.6 2.6-2.1 7.5-4.1 10.9-4.2 3.4-.1 7 1.6 8.4 4.7 1.3-2 4-2.8 6.4-2.6 2.6.1 4.8 2.3 6.2 4.5.1.1.2.2.2.4 1.2 1 2.6 1.8 4.2 2.2.3.1.6.2.7.4.1.3-.1.5-.2.8-.5.6-1 1-1.7 1.4.4.5.8 1 1.3 1.4.4.4.9.8.8 1.4-.1.4-.5.7-.9.8-.4.1-.8-.1-1.3-.2.5.6.9 1.1 1.4 1.7-.8.4-1.7.6-2.6.6.2 2.4 1 6.8.9 8.5-1.6.5-2.1.5-2.8 1-1 .7 0 2.4-1.5 2.3-.8-.1-2.7-2.4-3.1-3.1-3-4.3-5-9.3-6-14.4-1.3-.8-2.8-1.3-4.2-1.5l.1.1c-2.8-.1-5.9-.1-7.9 1.8-1.6 1.5-2.1 3.7-3 5.7-1.8 3.7-4.3 6.1-8.1 7.5.5 2.8 1.7 7.3 2.3 9.9l-3.7-4.4c-.3-.2-.5-.5-.7-.8l-.1-.1c-.4-.4-.7-.8-1.1-1.2-1 1.6-3.6.4-3-1.4.1-.4.3-.7.5-1-.5.8-1.3 1.3-2.2 1.3-.9 0-1.8-.7-2-1.5-.1-.6.1-1.3.6-1.6-1.1.4-2.3.5-3.4.3-1-.7-1.8-1.1-1.8-1.9z"/><path class="st9" d="M503.6 34.8s.4.1 1.2.6c.7.4 1.6 1.3 2.3 2.6.3.6.7 1.4.9 2.2.3.8.5 1.7.7 2.7.2 1 .4 2 .8 3 .2.5.4 1 .7 1.5.3.5.6 1 1.1 1.3.4.3 1 .3 1.4 0 .4-.2.8-.6 1-1 .4-.9.3-1.8.2-2.6l-.2.1c.5.6 1 1.2 1.7 1.6.6.4 1.4.6 2 .4.3-.1.6-.2.9-.4.2-.2.4-.5.4-.8.1-.3 0-.6 0-.9-.1-.3-.3-.5-.5-.6l-.1.1c.9.6 1.8.8 2.4.9.3 0 .5.1.7.1h.2-.2c-.2 0-.4 0-.7-.1-.6-.1-1.4-.3-2.3-.9l-.1.1c.4.2.6.8.5 1.3-.1.3-.2.5-.4.7-.2.2-.5.3-.8.4-.6.1-1.3 0-1.9-.4-.6-.4-1.1-.9-1.6-1.5l-.2-.3v.3c.1.8.2 1.7-.2 2.4-.2.4-.5.7-.9.9-.4.2-.8.2-1.2 0-.5-.3-.7-.8-1-1.2-.3-.5-.5-1-.7-1.5-.4-1-.6-2-.8-3-.2-1-.4-1.9-.7-2.7-.3-.8-.6-1.6-1-2.2-.7-1.3-1.6-2.2-2.4-2.6-.8-.5-1.2-.5-1.2-.5zM478.3 51.9c.2.1.3.1.4.1.1 0 .3.1.5.1s.4.1.6.1c1 .1 2.4.1 4.1-.5 1.6-.6 3.5-1.8 4.8-3.6 1.4-1.8 2.4-4.2 3.1-6.8.3-1.3.5-2.6.8-3.8.3-1.2.6-2.4 1.2-3.3.5-1 1.3-1.8 2.1-2.4.4-.3.9-.4 1.3-.6.5-.1.9-.1 1.3-.1.9 0 1.6.3 2.2.6.6.3 1.1.7 1.4 1 .7.7.8 1.2.9 1.2v-.1c0-.1-.1-.2-.1-.3-.1-.2-.3-.5-.6-.9s-.8-.7-1.4-1.1c-.6-.3-1.4-.6-2.3-.6-.4 0-.9 0-1.4.1-.5.1-.9.3-1.4.6-.9.5-1.6 1.4-2.2 2.4-.6 1-.9 2.2-1.2 3.4-.3 1.2-.5 2.5-.8 3.8-.6 2.6-1.6 4.9-3 6.7-1.4 1.8-3.1 3-4.7 3.6-1.6.6-3.1.6-4 .5-1.1.1-1.6-.1-1.6-.1z"/><path class="st9" d="M476.3 48.2s.1.1.4.1c.3.1.6.1 1.1.2.5.1 1 .1 1.7 0 .6 0 1.3-.1 2-.3.7-.2 1.3-.4 1.9-.7.6-.3 1-.6 1.4-.9.4-.3.7-.5.9-.7l.3-.3s-.5.4-1.2.9c-.4.3-.9.5-1.4.8-.6.3-1.2.5-1.9.7-.7.2-1.4.3-2 .3h-1.6c-1.1 0-1.6-.2-1.6-.1z"/><path class="st11" d="m552.9 83.5-28-4.4s.5 5.5-5.9 8.9c-8.2 4.5-15.5-2.6-15.5-2.6s-19.6 7.4-22.7 10.9c-3.1 3.5-2.2 6.1-2.2 6.1l72.1.4 2.2-19.3z"/><path class="st13" d="M553.8 84.5c1.4.6 37.3 16.5 38.3 25.8 1.3 11.9-19.9 43.1-19.9 43.1l-7.9-7.9 8.2-30.8-25.8-13.7 7.1-16.5z"/><path class="st11" d="M549.4 83.2c.4.1 3.4-.1 5.4.8 2 .8 20.4 11.4 20.4 11.4l-9.7 18.3s-18.8-11.4-24.2-14.9c-4.5-3 8.1-15.6 8.1-15.6z"/><path class="st13" d="M564.3 145.5s-6.4.7-7.9 1.8c-1.5 1-5.5 5.1-7.9 6 0 0-.2 2 2.1 1.6 2.2-.4 5.2-1.7 6.3-2.7 1.2-.9 1.8 0 1.6 1.1-.3 1-3.2 7.8-3.2 7.8s-4.6 7.1-4.2 8.2c.4 1.1 1.7 1.2 2.3.8.4-.3 4.9-6 4.9-6l1.7-3.3s-5.1 11.4-4.7 12.5c.5 1.1 1.5 1.3 2.1 1 .6-.3 3.1-5.9 3.1-5.9l3.2-6.2-3.9 12.5s-.2 1.2.8 1.6c.3.1.7 0 1-.1.6-.3 1-.8 1.3-1.4l5-11.9s-2.6 7.1-2.2 7.6c.5.7 1.2.7 1.6.2.8-1 3.4-7.3 3.4-7.3l4.2-12.2 2.4-5.8-10.6-4.3-2.4 4.4z"/><path class="st6" d="M550.2 85.2c0 .1-.9.4-2.1 1.4-1.2 1-2.5 2.9-3 5.3s-.1 4.6.4 6.1 1.1 2.3 1.1 2.4l-.5-.5c-.3-.4-.6-.9-.9-1.7-.6-1.5-1.1-3.8-.5-6.3.5-2.5 2-4.4 3.3-5.4.6-.5 1.3-.8 1.7-1 .2-.2.5-.3.5-.3z"/><path d="M593.1 204.5c-.6.6-1 1.5-1 2.4v14.5l-2.4 2.5c-.9 1-.9 2.5 0 3.5l1.4 1.4c.9 1 2.5 1 3.5.1l2.5-2.4 1.2.9v-26.3l-5.2 3.4zM360.8 386.7h-53.3v-6.3c0-4.8 3.9-8.7 8.7-8.7h35.9c4.8 0 8.7 3.9 8.7 8.7v6.3z" class="st8"/></g><g id="Ok_Icon"><path class="st11" d="M339.8 429.1h-28.4c-6.5 0-11.8-5.3-11.8-11.8v-28.4c0-6.5 5.3-11.8 11.8-11.8h28.4c6.5 0 11.8 5.3 11.8 11.8v28.4c0 6.5-5.3 11.8-11.8 11.8z"/><path d="M339.8 429.1h-28.4c-6.5 0-11.8-5.3-11.8-11.8v-28.4c0-6.5 5.3-11.8 11.8-11.8h28.4c6.5 0 11.8 5.3 11.8 11.8v28.4c0 6.5-5.3 11.8-11.8 11.8z" class="st12"/><path class="st11" d="M334.3 429.1h-28.4c-6.5 0-11.8-5.3-11.8-11.8v-28.4c0-6.5 5.3-11.8 11.8-11.8h28.4c6.5 0 11.8 5.3 11.8 11.8v28.4c0 6.5-5.3 11.8-11.8 11.8z"/><path class="st7" d="m303.7 404.1 4.5-5 9.5 7.7 14.2-16.3 4.6 4.5-19 20.9z"/></g><g id="Code_Icon"><path class="st11" d="M128.8 143.2H97c-6.5 0-11.8-5.3-11.8-11.8V99.6c0-6.5 5.3-11.8 11.8-11.8h31.8c6.5 0 11.8 5.3 11.8 11.8v31.8c0 6.5-5.3 11.8-11.8 11.8z"/><path d="M128.8 143.2H97c-6.5 0-11.8-5.3-11.8-11.8V99.6c0-6.5 5.3-11.8 11.8-11.8h31.8c6.5 0 11.8 5.3 11.8 11.8v31.8c0 6.5-5.3 11.8-11.8 11.8z" class="st12"/><path class="st11" d="M122.9 143.2H91.1c-6.5 0-11.8-5.3-11.8-11.8V99.6c0-6.5 5.3-11.8 11.8-11.8h31.8c6.5 0 11.8 5.3 11.8 11.8v31.8c.1 6.5-5.2 11.8-11.8 11.8z"/><path class="st7" d="M101.1 112.2 94 115l7.1 2.8v3.7l-11-4.6V113l11-4.6v3.8zM108.9 102.7h3.8l-7.4 23.6h-3.8l7.4-23.6zM123.9 113.1v3.9l-11 4.6v-3.7l7.1-2.8-7.1-2.8v-3.7l11 4.5z"/></g><g id="Speech_Bubble"><path class="st7" d="m536.8 61.8 2.9-5.3c-.8-3.9-.4-8.1 1.4-12.1 4.1-9.1 14.5-13.9 24.1-11 11.6 3.5 17.5 16.4 12.6 27.5-4.1 9.3-14.7 14-24.4 10.9-4.8-1.5-8.6-4.6-11-8.6l-5.6-1.4z"/><path class="st11" d="m548.7 53.8 2.9-3.2 6.1 5 9.3-10.2 3 2.9-12.5 13.1z"/><path class="st6" d="M536.8 61.8s.1 0 .4.1c.3.1.6.1 1.1.3.9.2 2.3.6 4.1 1l-.1.1s0-.1.1-.1h.1c1.3 2.1 3.5 4.7 7 6.7.9.5 1.8.9 2.8 1.3.5.2 1 .3 1.6.5.5.2 1.1.3 1.6.4 2.2.5 4.7.6 7.2.2 2.5-.4 5.1-1.3 7.5-2.8 2.4-1.5 4.5-3.6 6.1-6.1 1.6-2.5 2.7-5.5 3-8.7.2-1.6.1-3.2-.1-4.8-.3-1.6-.6-3.2-1.3-4.7-.6-1.5-1.4-2.9-2.3-4.2-1-1.3-2-2.5-3.2-3.5-2.4-2-5.2-3.5-8.1-4.2-2.9-.7-5.8-.7-8.6-.2-2.7.5-5.2 1.6-7.3 3-4.2 2.8-6.8 7-8 10.7-1.2 3.8-1 7.2-.5 9.7-.9 1.7-1.7 3-2.2 3.9-.2.4-.4.8-.6 1-.2.3-.3.4-.3.4s0-.1.2-.3l.5-1c.5-.9 1.2-2.3 2.1-4v.1c-.5-2.5-.7-5.9.5-9.8 1.1-3.8 3.7-8 8-10.9 2.1-1.4 4.7-2.5 7.5-3.1 2.8-.5 5.8-.5 8.7.2 2.9.7 5.8 2.2 8.2 4.2 1.2 1 2.3 2.2 3.3 3.5.9 1.3 1.8 2.8 2.4 4.3.7 1.5 1 3.2 1.3 4.8.2 1.6.3 3.3.1 4.9-.3 3.2-1.4 6.3-3.1 8.8-1.7 2.6-3.8 4.7-6.2 6.2-2.4 1.5-5 2.5-7.6 2.9-2.6.4-5.1.3-7.3-.2-.6-.1-1.1-.2-1.7-.4-.5-.2-1.1-.3-1.6-.5-1-.4-1.9-.9-2.8-1.4-3.5-2-5.7-4.7-7-6.9l.1-.1s0 .1-.1.1c-1.8-.5-3.2-.8-4.1-1.1-.4-.1-.8-.2-1-.3h-.4z"/></g><g id="Button"><path class="st1" d="M397.7 108.4h-34.2c-8.6 0-15.6-7-15.6-15.6s7-15.6 15.6-15.6h34.2c8.6 0 15.6 7 15.6 15.6s-7 15.6-15.6 15.6z"/><path class="st6" d="M397.7 108.4c0-.1 2.4.2 6.3-1.5 1.9-.9 4.1-2.3 5.9-4.7 1.8-2.3 3.2-5.6 3.2-9.3 0-3.7-1.4-7.8-4.5-11-1.5-1.5-3.5-2.8-5.7-3.6-1.1-.4-2.2-.7-3.4-.8-.6-.1-1.2-.1-1.8-.1h-34.3c-2.8 0-5.6.8-7.9 2.2-2.4 1.4-4.2 3.5-5.5 5.8-1.2 2.4-1.9 5-1.8 7.5.1 2.6.7 5.1 1.9 7.2 1.2 2.1 2.9 3.9 4.8 5.3 1.9 1.3 4.1 2.1 6.2 2.5 2.1.3 4.3.2 6.4.2h5.9c7.5 0 13.6.1 17.8.1h6.1c.3.2.4.2.4.2h-6.5c-4.2 0-10.3 0-17.8.1h-5.9c-2.1 0-4.2.1-6.4-.2-2.2-.3-4.4-1.2-6.4-2.5-2-1.4-3.7-3.2-4.9-5.4-1.2-2.2-1.9-4.8-2-7.4-.1-2.6.6-5.4 1.9-7.8 1.3-2.4 3.3-4.5 5.7-6 2.4-1.5 5.3-2.3 8.2-2.3h34.3c.6 0 1.2 0 1.9.1 1.2.2 2.4.4 3.5.9 2.2.8 4.2 2.1 5.8 3.7 3.2 3.2 4.6 7.5 4.6 11.3-.1 3.8-1.5 7.2-3.3 9.5-1.9 2.4-4.1 3.8-6 4.7-1.9.9-3.6 1.1-4.7 1.2h-1.3c-.6.1-.7.1-.7.1z"/><circle transform="rotate(-80.747 397.568 92.82)" class="st11" cx="397.6" cy="92.8" r="12.6"/></g><g id="Colors"><path class="st0" d="M651.4 272.6h-79c-2.4 0-4.4-2-4.4-4.4v-22.7c0-2.4 2-4.4 4.4-4.4h79c2.4 0 4.4 2 4.4 4.4v22.7c0 2.4-2 4.4-4.4 4.4z"/><path class="st6" d="M651.4 272.6s.2 0 .6-.1c.4-.1 1-.2 1.6-.6.6-.4 1.4-1.1 1.8-2.1.4-1 .3-2.4.3-3.8v-20.8c-.1-1.2-.8-2.3-1.8-3-.5-.3-1.1-.6-1.8-.7-.6-.1-1.3 0-2 0h-77.6c-.9 0-1.9.3-2.6.9-.7.6-1.2 1.4-1.4 2.3-.2.9-.1 1.9-.1 2.9v20c0 .9 0 1.8.4 2.6s1 1.4 1.8 1.8c.8.4 1.6.5 2.5.5h7.9c13.8 0 26.2 0 36.7.1 10.4 0 18.9.1 24.7.1h8.4c.4-.1.6-.1.6-.1h-9c-5.9 0-14.3 0-24.7.1-10.4 0-22.9 0-36.7.1h-7.9c-.9 0-1.9-.1-2.7-.5-.8-.4-1.6-1.1-2-2-.5-.8-.5-1.9-.5-2.8V246c0-.5 0-1 .1-1.5.2-1 .8-2 1.6-2.6.8-.7 1.9-1 2.9-1H650.1c.7 0 1.3 0 2.1.1.7.1 1.3.4 1.9.7 1.1.8 1.8 2 2 3.3V265.8c0 1.4.1 2.8-.3 3.9s-1.2 1.8-1.9 2.1c-.7.4-1.3.5-1.7.6-.6.2-.8.2-.8.2z"/><path class="st9" d="M592 270.7h-16.5c-2.9 0-5.2-2.3-5.2-5.2V249c0-2.9 2.3-5.2 5.2-5.2H592c2.9 0 5.2 2.3 5.2 5.2v16.5c0 2.9-2.4 5.2-5.2 5.2z"/><path class="st11" d="M620.4 270.7h-17.3c-2.7 0-4.8-2.2-4.8-4.8v-17.3c0-2.7 2.2-4.8 4.8-4.8h17.3c2.7 0 4.8 2.2 4.8 4.8v17.3c.1 2.6-2.1 4.8-4.8 4.8z"/><path class="st15" d="M648.7 270.7h-17.4c-2.6 0-4.8-2.1-4.8-4.8v-17.4c0-2.6 2.1-4.8 4.8-4.8h17.4c2.6 0 4.8 2.1 4.8 4.8v17.4c0 2.7-2.2 4.8-4.8 4.8z"/></g><g id="Dropper"><path class="st2" d="M591.8 216.9v-15.4c0-1 .4-1.9 1.1-2.5l46.5-46.1 24 21.4-48 46.9c-.5.5-1.3.8-2.2.8l-16.1.3-2.7 2.5c-1 1-2.7.9-3.7-.1l-1.5-1.5c-1-1-1-2.6 0-3.7l2.6-2.6z"/><path class="st11" d="M614.4 177.6 592.8 199c-.7.7-1.1 1.6-1.1 2.5v15.4l-2.6 2.7c-1 1-1 2.7 0 3.7l1.5 1.5c1 1 2.6 1 3.7.1l2.7-2.5 16.1-.3c.9 0 1.8-.4 2.2-.8l30.4-29.7c0-.1-31.3-14-31.3-14z"/><path class="st9" d="m673.5 179.2-.5.5c-2.1 2.1-5.5 2.1-7.6 0l-31-31c-2.1-2.1-2.1-5.5 0-7.6l.5-.5c2.1-2.1 5.5-2.1 7.6 0l31 31c2.1 2 2.1 5.5 0 7.6z"/><path class="st9" d="m698.2 137.9-30.8 30.8c-1.4 1.4-3.7 1.4-5.1 0l-16.9-16.9c-1.4-1.4-1.4-3.7 0-5.1l30.8-30.8c5.7-5.7 15-5.7 20.7 0l1.3 1.3c5.7 5.7 5.7 15 0 20.7z"/><path class="st6" d="M592.2 224.8c-.1 0-.3-1.1-1.2-2.1-.4-.5-.9-.8-1.3-.9-.4-.1-.7-.2-.7-.3 0-.1.3-.2.8-.1s1.1.4 1.6.9c1 1.3 1 2.6.8 2.5zM671.3 169.3s-.4-.3-1.1-.9c-.7-.6-1.6-1.5-2.8-2.6-2.3-2.2-5.5-5.3-9-8.7-3.4-3.4-6.5-6.5-8.9-8.8l-2.7-2.7c-.6-.6-1-1-.9-1 0 0 .4.3 1.1.9.7.6 1.6 1.5 2.8 2.6 2.3 2.2 5.5 5.3 9 8.7 3.4 3.4 6.5 6.5 8.9 8.8l2.7 2.7c.6.6.9 1 .9 1zM596.9 221.9c-.1.1-1.3-.9-2.8-2.3-1.4-1.4-2.5-2.5-2.4-2.6s1.3.9 2.8 2.3c1.4 1.3 2.5 2.5 2.4 2.6z"/><path class="st6" d="m639.4 152.8-.3.3-.9.9-3.4 3.4-12.6 12.6c-5.3 5.3-11.7 11.7-18.8 18.7-1.8 1.8-3.6 3.6-5.5 5.4l-2.8 2.8-1.4 1.4c-.5.5-1 .9-1.3 1.5-.3.6-.4 1.2-.4 1.9V217c-.5.5-.9 1-1.4 1.5l-.7.8c-.2.3-.5.5-.7.8-.4.5-.5 1.2-.3 1.9.1.3.2.6.4.9.2.2.5.5.7.8l.8.8c.3.3.5.5.8.6.6.3 1.4.3 2 0 .3-.2.6-.4.8-.6l.8-.8c.5-.5 1.1-1 1.6-1.5l.1-.1h.1c2.9-.1 5.8-.1 8.6-.2 1.4 0 2.8-.1 4.2-.1h2.1c.7 0 1.4 0 2-.1.3-.1.6-.2.9-.4.3-.2.5-.4.7-.6.5-.5 1-.9 1.4-1.4 1-.9 1.9-1.9 2.8-2.8 1.9-1.8 3.7-3.6 5.5-5.4 7.2-7 13.6-13.2 18.9-18.4 5.4-5.2 9.7-9.4 12.7-12.3 1.5-1.4 2.6-2.5 3.4-3.3.4-.4.7-.6.9-.8l.3-.3-.3.3-.9.9-3.4 3.4c-3 2.9-7.2 7.1-12.6 12.4-5.3 5.2-11.7 11.5-18.8 18.5-1.8 1.7-3.6 3.5-5.5 5.4-.9.9-1.9 1.8-2.8 2.8-.5.5-1 .9-1.4 1.4l-.4.4c-.1.1-.3.2-.4.3-.3.2-.7.3-1 .4-.7.2-1.4.1-2.1.2h-2.1c-1.4 0-2.8.1-4.2.1-2.8.1-5.7.1-8.6.2l.2-.1c-.5.5-1.1 1-1.6 1.5l-.8.8c-.3.2-.6.5-1 .7-.7.4-1.7.4-2.4 0-.4-.2-.7-.4-1-.7l-.8-.8-.8-.8c-.2-.3-.4-.7-.5-1.1-.2-.8 0-1.6.4-2.3.2-.3.5-.6.7-.8l.7-.8c.5-.5 1-1 1.4-1.5l-.1.2V202c0-.7.1-1.5.4-2.1l.6-.9.7-.7 1.4-1.4c1-.9 1.9-1.9 2.8-2.8 1.9-1.9 3.7-3.7 5.5-5.4 7.2-7.1 13.6-13.4 18.9-18.7 5.4-5.3 9.7-9.5 12.7-12.4 1.5-1.4 2.6-2.6 3.4-3.3l.9-.9c.7-.5.8-.6.8-.6z"/></g><g id="Settings_Icon"><path class="st2" d="M569.7 354.1c2.9-1.7 5.9-3.1 9.1-3.9l1.9-9 15.2-.3 2.2 8.9c3.2.8 6.3 2 9.2 3.6l7.7-5 10.9 10.6-4.8 7.8c1.7 2.9 3.1 5.9 3.9 9.1l9 1.9.3 15.2-8.9 2.2c-.8 3.2-2 6.3-3.6 9.2l5 7.7-10.6 10.9-7.8-4.8c-2.9 1.7-5.9 3.1-9.1 3.9l-1.9 9-15.2.3-2.2-8.9c-3.2-.8-6.3-2-9.2-3.6l-7.7 5-10.9-10.6 4.8-7.8c-1.7-2.9-3.1-5.9-3.9-9.1l-9-1.9-.3-15.2 8.9-2.2c.8-3.2 2-6.3 3.6-9.2l-5-7.7 10.6-10.9 7.8 4.8zm8.1 20.3c-6.3 6.5-6.1 16.8.4 23 6.5 6.3 16.8 6.1 23-.4 6.3-6.5 6.1-16.8-.4-23-6.5-6.3-16.8-6.1-23 .4z"/><path class="st16" d="M569.7 354.1c2.9-1.7 5.9-3.1 9.1-3.9l1.9-9 15.2-.3 2.2 8.9c3.2.8 6.3 2 9.2 3.6l7.7-5 10.9 10.6-4.8 7.8c1.7 2.9 3.1 5.9 3.9 9.1l9 1.9.3 15.2-8.9 2.2c-.8 3.2-2 6.3-3.6 9.2l5 7.7-10.6 10.9-7.8-4.8c-2.9 1.7-5.9 3.1-9.1 3.9l-1.9 9-15.2.3-2.2-8.9c-3.2-.8-6.3-2-9.2-3.6l-7.7 5-10.9-10.6 4.8-7.8c-1.7-2.9-3.1-5.9-3.9-9.1l-9-1.9-.3-15.2 8.9-2.2c.8-3.2 2-6.3 3.6-9.2l-5-7.7 10.6-10.9 7.8 4.8zm8.1 20.3c-6.3 6.5-6.1 16.8.4 23 6.5 6.3 16.8 6.1 23-.4 6.3-6.5 6.1-16.8-.4-23-6.5-6.3-16.8-6.1-23 .4z"/><path class="st6" d="m577.8 374.4.2-.2c.1-.1.3-.3.5-.6.2-.2.5-.5.9-.8.4-.3.8-.7 1.4-1 1.1-.7 2.5-1.4 4.3-1.9 1.8-.5 3.9-.8 6.3-.5 2.3.3 4.8 1 7.1 2.6 2.3 1.5 4.4 3.7 5.8 6.5.7 1.4 1.2 2.9 1.5 4.5.2.8.2 1.6.2 2.5 0 .8 0 1.7-.2 2.5-.4 3.4-2 6.7-4.5 9.3-2.5 2.6-5.8 4.3-9.1 4.8-.8.2-1.7.2-2.5.2s-1.7 0-2.5-.2c-1.6-.2-3.2-.6-4.6-1.3-2.9-1.2-5.1-3.3-6.7-5.5-1.6-2.2-2.5-4.8-2.8-7.1-.3-2.3-.2-4.5.3-6.3.5-1.8 1.1-3.3 1.8-4.4.3-.6.7-1 1-1.4.3-.4.6-.7.8-1 .2-.2.4-.4.5-.6.2-.1.3-.1.3-.1.1.1-1 1-2.3 3.3-.7 1.1-1.3 2.6-1.7 4.4-.4 1.8-.6 3.9-.2 6.1.4 2.3 1.2 4.7 2.8 6.9 1.6 2.2 3.8 4.2 6.6 5.3 1.4.6 2.9 1 4.4 1.2.8.1 1.6.1 2.4.1.8-.1 1.6-.1 2.4-.2 3.2-.5 6.4-2.2 8.8-4.7 2.4-2.5 3.9-5.7 4.3-9 .1-.8.1-1.6.2-2.4-.1-.8-.1-1.6-.2-2.4-.3-1.6-.7-3-1.4-4.4-1.3-2.7-3.4-4.9-5.6-6.4-2.2-1.5-4.7-2.3-7-2.6-2.3-.3-4.4 0-6.1.4-1.8.5-3.2 1.1-4.3 1.8-2.1 1.5-3.1 2.6-3.1 2.6z"/><path class="st6" d="M569.7 354.1s-.2-.1-.5-.3c-.3-.2-.8-.5-1.5-.9-1.3-.8-3.3-2-5.9-3.5h.1c-2.7 2.8-6.2 6.5-10.5 11v-.2c1.5 2.3 3.2 4.9 5 7.7l.1.1v.1c-1.5 2.7-2.8 5.8-3.6 9.2v.1h-.1c-2.8.7-5.8 1.4-8.9 2.2l.1-.2c.1 4.8.2 9.9.3 15.2l-.2-.2c2.8.6 5.8 1.2 9 1.9h.1v.1c.8 2.9 2.1 6.1 3.9 9l.1.1-.1.1c-1.5 2.4-3.1 5.1-4.8 7.9v-.3c3.4 3.3 7.1 6.9 10.9 10.5h-.3c2.4-1.6 5-3.3 7.7-5l.1-.1.1.1c2.7 1.5 5.8 2.8 9.2 3.6h.1v.1c.7 2.8 1.4 5.8 2.2 8.9l-.3-.2c4.8-.1 10-.2 15.2-.3l-.2.2c.6-2.8 1.2-5.9 1.9-9v-.2h.2c3-.9 6.1-2.2 9-3.9l.1-.1.1.1 7.8 4.8h-.3c3.6-3.7 7.1-7.3 10.6-10.9v.3c-1.7-2.6-3.4-5.1-5-7.7l-.1-.1.1-.1c1.6-2.9 2.8-6 3.6-9.2v-.1h.1c3-.7 6-1.5 8.9-2.2v.3c-.1-5.2-.2-10.3-.3-15.2l.2.2c-3.1-.6-6-1.3-9-1.9h-.1v-.1c-.9-3.2-2.3-6.3-3.9-9l-.1-.1.1-.1c1.6-2.7 3.2-5.3 4.8-7.8v.3c-3.8-3.7-7.5-7.2-10.9-10.6h.2c-2.7 1.8-5.2 3.4-7.7 5l-.1.1-.1-.1c-3.1-1.7-6.2-2.9-9.2-3.6h-.1v-.1c-.8-3.2-1.5-6.2-2.2-8.9l.2.1c-5.9.1-10.9.2-15.2.2l.1-.1c-.8 3.6-1.4 6.5-1.9 9-3.2.9-5.5 2-6.9 2.7-.7.4-1.3.7-1.6.9-.4.2-.6.2-.6.2s.2-.1.5-.3c.4-.2.9-.5 1.6-.9 1.5-.8 3.7-1.9 6.9-2.8l-.1.1c.5-2.4 1.1-5.4 1.8-9v-.1h.1c4.3-.1 9.3-.2 15.2-.3h.1v.1c.7 2.8 1.4 5.7 2.2 8.9l-.1-.1c3 .7 6.2 1.9 9.3 3.6h-.2c2.4-1.6 5-3.3 7.7-5l.1-.1.1.1c3.5 3.3 7.1 6.8 10.9 10.5l.1.1-.1.1c-1.5 2.5-3.1 5.2-4.8 7.9v-.2c1.7 2.8 3 5.9 4 9.1l-.2-.2c2.9.6 5.9 1.2 9 1.9h.2v.2c.1 4.9.2 10 .3 15.2v.2h-.2c-2.9.7-5.9 1.4-8.9 2.2l.2-.2c-.8 3.2-2 6.3-3.6 9.3v-.3c1.7 2.5 3.3 5.1 5 7.7l.1.2-.1.1c-3.5 3.6-7 7.2-10.6 10.9l-.1.1-.2-.1-7.8-4.8h.3c-2.9 1.8-6.1 3.1-9.1 4l.2-.2c-.6 3.1-1.3 6.2-1.9 9v.2h-.2c-5.2.1-10.4.2-15.2.3h-.2v-.2c-.8-3.1-1.5-6.1-2.2-8.9l.2.2c-3.4-.8-6.5-2.1-9.3-3.7h.3c-2.7 1.7-5.3 3.5-7.7 5l-.2.1-.1-.1c-3.8-3.7-7.5-7.2-10.9-10.6l-.1-.1.1-.2c1.7-2.7 3.3-5.4 4.8-7.8v.2c-1.8-3-3.1-6.2-4-9.1l.2.2c-3.1-.7-6.2-1.3-9-1.9h-.2v-.2c-.1-5.3-.2-10.4-.2-15.2v-.1h.1c3.1-.8 6.1-1.5 8.9-2.2l-.1.1c.8-3.4 2.1-6.5 3.7-9.2v.2c-1.8-2.8-3.5-5.4-5-7.7l-.1-.1.1-.1c4.3-4.4 7.9-8.1 10.6-10.9h.1c2.5 1.6 4.5 2.8 5.8 3.6.7.4 1.1.7 1.5.9.2.3.4.4.4.4z"/><path class="st2" d="M649.2 397c1.2-.7 2.4-1.2 3.6-1.6l.8-3.6 6.1-.1.9 3.6c1.3.3 2.5.8 3.7 1.5l3.1-2 4.4 4.2-1.9 3.2c.7 1.2 1.2 2.4 1.6 3.6l3.6.8.1 6.1-3.6.9c-.3 1.3-.8 2.5-1.5 3.7l2 3.1-4.2 4.4-3.2-1.9c-1.2.7-2.4 1.2-3.6 1.6l-.8 3.6-6.1.1-.9-3.6c-1.3-.3-2.5-.8-3.7-1.5l-3.1 2-4.4-4.2 1.9-3.2c-.7-1.2-1.2-2.4-1.6-3.6l-3.6-.8-.1-6.1 3.6-.9c.3-1.3.8-2.5 1.5-3.7l-2-3.1 4.2-4.4 3.2 1.9zm3.2 8.1c-2.5 2.6-2.4 6.7.2 9.3 2.6 2.5 6.7 2.4 9.3-.2 2.5-2.6 2.4-6.7-.2-9.3-2.6-2.5-6.8-2.4-9.3.2z"/><path class="st16" d="M649.2 397c1.2-.7 2.4-1.2 3.6-1.6l.8-3.6 6.1-.1.9 3.6c1.3.3 2.5.8 3.7 1.5l3.1-2 4.4 4.2-1.9 3.2c.7 1.2 1.2 2.4 1.6 3.6l3.6.8.1 6.1-3.6.9c-.3 1.3-.8 2.5-1.5 3.7l2 3.1-4.2 4.4-3.2-1.9c-1.2.7-2.4 1.2-3.6 1.6l-.8 3.6-6.1.1-.9-3.6c-1.3-.3-2.5-.8-3.7-1.5l-3.1 2-4.4-4.2 1.9-3.2c-.7-1.2-1.2-2.4-1.6-3.6l-3.6-.8-.1-6.1 3.6-.9c.3-1.3.8-2.5 1.5-3.7l-2-3.1 4.2-4.4 3.2 1.9zm3.2 8.1c-2.5 2.6-2.4 6.7.2 9.3 2.6 2.5 6.7 2.4 9.3-.2 2.5-2.6 2.4-6.7-.2-9.3-2.6-2.5-6.8-2.4-9.3.2z"/><path class="st6" d="m652.4 405.1.3-.3c.2-.2.5-.5.9-.8.9-.6 2.4-1.2 4.3-1 1.9.2 4.2 1.4 5.3 3.7.6 1.1.8 2.5.6 3.9-.2 1.4-.8 2.7-1.8 3.8-1 1.1-2.4 1.8-3.7 2-1.4.2-2.8 0-3.9-.5-2.4-1.1-3.7-3.3-3.9-5.2-.3-1.9.3-3.4.9-4.3.3-.4.5-.8.7-1l.3-.3s-.4.4-.9 1.3-1 2.4-.7 4.2c.3 1.8 1.5 3.8 3.7 4.8 1.1.5 2.4.7 3.6.4 1.3-.2 2.5-.9 3.5-1.8.9-1 1.5-2.2 1.7-3.5.2-1.3 0-2.6-.6-3.6-1-2.2-3.1-3.3-4.9-3.5-1.8-.2-3.3.3-4.1.8-.9.5-1.2.9-1.3.9z"/><path class="st6" d="M649.2 397s-.1 0-.2-.1l-.6-.3c-.6-.3-1.4-.8-2.4-1.4h.1c-1.1 1.1-2.5 2.6-4.2 4.4v-.2c.6.9 1.3 2 2 3.1l.1.1v.1c-.6 1.1-1.1 2.3-1.4 3.7v.1h-.1c-1.1.3-2.3.6-3.6.9l.1-.2c0 1.9.1 4 .1 6.1l-.2-.2c1.1.2 2.3.5 3.6.7h.1v.1c.3 1.2.9 2.4 1.6 3.6l.1.1-.1.1c-.6 1-1.2 2.1-1.9 3.2v-.3c1.4 1.3 2.9 2.8 4.4 4.2h-.3c1-.6 2-1.3 3.1-2l.1-.1.1.1c1.1.6 2.3 1.1 3.6 1.4h.1v.1c.3 1.1.6 2.3.9 3.6l-.3-.2c1.9 0 4-.1 6.1-.1l-.2.2c.2-1.1.5-2.4.8-3.6v-.2h.2c1.2-.3 2.4-.9 3.6-1.6h.3l.1.1.2.1.4.2.8.5c.5.3 1 .6 1.6 1h-.3c1.4-1.5 2.8-2.9 4.2-4.4v.3c-.7-1-1.4-2.1-2-3.1l-.1-.1.1-.1c.6-1.2 1.1-2.4 1.4-3.6v-.1h.1l3.6-.9-.2.2c0-2.1-.1-4.1-.1-6.1l.2.2c-1.2-.3-2.4-.5-3.6-.8h-.1v-.1c-.4-1.3-.9-2.5-1.6-3.6l-.1-.1.1-.1c.7-1.1 1.3-2.1 1.9-3.1v.3c-1.5-1.5-3-2.9-4.4-4.2h.2c-1.1.7-2.1 1.4-3.1 2l-.1.1-.1-.1c-1.2-.7-2.5-1.2-3.7-1.5h-.1v-.1c-.3-1.3-.6-2.5-.9-3.6l.2.1c-2.4 0-4.4 0-6.1.1l.1-.1c-.3 1.4-.6 2.6-.8 3.6v.1c-1.3.4-2.2.8-2.8 1.1-.3.1-.5.3-.7.3.1 0 .1.1.1.1s.1-.1.2-.1c.1-.1.3-.2.6-.4.6-.3 1.5-.8 2.8-1.1l-.1.1c.2-1 .4-2.2.7-3.6v-.1h.1c1.7 0 3.7-.1 6.1-.1h.1v.1c.3 1.1.6 2.3.9 3.6l-.1-.1c1.2.3 2.5.8 3.8 1.5h-.2c1-.6 2-1.3 3.1-2l.1-.1.1.1c1.4 1.3 2.9 2.7 4.4 4.2l.1.1-.1.1c-.6 1-1.3 2.1-1.9 3.2v-.2c.7 1.1 1.2 2.4 1.6 3.7l-.2-.2c1.2.2 2.4.5 3.6.7h.2v.2c0 2 .1 4 .1 6.1v.2h-.2l-3.6.9.2-.2c-.3 1.3-.8 2.6-1.5 3.8v-.3c.7 1 1.3 2 2 3.1l.1.2-.1.1c-1.4 1.4-2.8 2.9-4.2 4.4l-.1.1-.2-.1c-.5-.3-1-.6-1.6-1l-.8-.5-.4-.2-.2-.1-.1-.1h.3c-1.2.7-2.5 1.3-3.7 1.6l.2-.2c-.3 1.2-.5 2.5-.8 3.6v.2h-.2c-2.1 0-4.2.1-6.1.1h-.2v-.2c-.3-1.2-.6-2.5-.9-3.6l.2.2c-1.4-.3-2.7-.9-3.8-1.5h.3c-1.1.7-2.1 1.4-3.1 2l-.2.1-.1-.1c-1.5-1.5-3-2.9-4.4-4.2l-.1-.1.1-.2c.7-1.1 1.3-2.2 1.9-3.1v.2c-.7-1.2-1.3-2.5-1.6-3.7l.2.2c-1.3-.3-2.5-.5-3.6-.8h-.2v-.2c0-2.1-.1-4.2-.1-6.1v-.1h.1c1.3-.3 2.5-.6 3.6-.9l-.1.1c.3-1.4.9-2.6 1.5-3.7v.2c-.7-1.1-1.4-2.2-2-3.1l-.1-.1.1-.1c1.7-1.8 3.2-3.2 4.3-4.4h.1c1 .6 1.8 1.1 2.3 1.5.2.2.4.3.6.4.1-.1.2-.1.2 0z"/></g><g id="Character_2"><path class="st7" d="M465.3 291.5h-79.2c-4.4 0-7.9-3.5-7.9-7.9V219c0-4.4 3.5-7.9 7.9-7.9h79.2c4.4 0 7.9 3.5 7.9 7.9v64.6c0 4.3-3.6 7.9-7.9 7.9z"/><path class="st6" d="M465.3 291.5c0-.1 1.2.1 3.3-.8 1-.5 2.2-1.3 3.1-2.6.9-1.3 1.5-3.2 1.4-5.3 0-8.5 0-20.9-.1-36.1v-28.4c-.1-1.1-.4-2.2-1-3.2-1.1-2-3.2-3.4-5.5-3.7-1.1-.2-2.4-.1-3.6-.1h-76.8c-2.8 0-5.6 1.7-6.8 4.2-.3.6-.5 1.3-.7 2-.1.7-.2 1.4-.2 2.1V283.5c0 1.2.2 2.4.7 3.4.9 2.1 2.9 3.7 5.1 4.3 1.1.3 2.2.2 3.4.3H416c15.2 0 27.6.1 36.1.1h12.4c.5-.2.8-.1.8-.1H452c-8.5 0-20.9 0-36.1.1h-28.4c-1.1 0-2.3.1-3.5-.3-2.3-.6-4.4-2.3-5.4-4.5-.5-1.1-.7-2.4-.7-3.6V219.3c0-.7 0-1.5.2-2.2.2-.7.4-1.4.7-2.1 1.3-2.7 4.2-4.5 7.3-4.4h76.8c1.2 0 2.4-.1 3.6.1 2.4.3 4.6 1.9 5.8 3.9.6 1 1 2.2 1.1 3.3.1 1.2 0 2.3 0 3.4v25c0 15.2-.1 27.6-.1 36.1 0 1.1 0 2.1-.3 3-.3.9-.7 1.7-1.2 2.4-1 1.4-2.2 2.2-3.2 2.6-1 .5-1.9.6-2.5.7-.5.4-.8.4-.8.4z"/><path class="st6" d="M463.2 288.3s.3 0 .8-.1 1.3-.3 2.2-.8c.9-.5 1.8-1.5 2.4-2.9.6-1.4.3-3.2.4-5.2 0-7.9 0-19.3-.1-33.4v-23.1c0-1 .1-2.1-.1-3.1s-.7-2-1.4-2.7c-.7-.8-1.6-1.3-2.6-1.6-1-.3-2.1-.2-3.2-.2h-76.3c-.6 0-1.2.3-1.7.7-.4.4-.8 1-.8 1.6v66.7c0 .6 0 1.1.2 1.6.4 1 1.1 1.8 2.1 2.1.5.2 1 .3 1.5.2h31c14.1 0 25.5.1 33.4.1h11.5c.4.1.7.1.7.1h-12.3c-7.9 0-19.3 0-33.4.1H386.5c-.5 0-1.1-.1-1.7-.3-1.1-.4-2-1.3-2.4-2.4-.2-.5-.3-1.2-.3-1.7v-66.7c.1-.7.5-1.4 1-1.9s1.3-.8 2-.8h78c.6 0 1.1.1 1.7.2 1.1.3 2.1.9 2.8 1.8.8.8 1.2 1.9 1.5 2.9.2 1.1.1 2.1.1 3.2v23.1c0 14.1-.1 25.5-.1 33.4v2.8c0 .9-.1 1.7-.4 2.4-.6 1.4-1.6 2.4-2.5 2.9-.9.5-1.7.7-2.2.8-.6.2-.8.2-.8.2z"/><path class="st7" d="m383 287.4 84.9-71.5"/><path class="st6" d="M467.9 215.9c.1.1-18.8 16.2-42.3 35.9-23.5 19.7-42.5 35.6-42.6 35.5-.1-.1 18.8-16.2 42.3-35.9 23.4-19.7 42.5-35.6 42.6-35.5z"/><path class="st6" d="M382.9 215.9c.1-.1 19.2 15.5 42.6 35 23.5 19.4 42.4 35.3 42.3 35.4-.1.1-19.2-15.5-42.6-35-23.4-19.5-42.4-35.3-42.3-35.4zM494.6 194.5c-.6-2.2-1.5-4.3-2.7-6.3 1.3-1 2.2-2.6 2.3-4.3.2-2.3-1.2-4.7-3.2-5.8.4-.6.4-1.4.2-2 0-1.8-.8-3.6-2.2-4.8-1.9-1.6-4.8-1.9-7-.8-1.9-2.6-4.9-4.4-8.1-4.8-3.1-.4-6.4.5-8.8 2.4-9.3-7.8-15.1-7.2-23.5-4.1-2.2.8-5.2 3.1-6 5.2-1.9.4-3.7 1-5.4 1.9-1.2.6-2.4 1.3-2.8 2.6-.4 1.2.5 2.9 1.8 2.7-1.5.8-3.1 1.7-4 3.2-.8 1.5-.4 3.8 1.2 4.3-1.7 2.6-3 5.4-3.8 8.4l-.3.6c-1.1.8-1.7 2.2-1.5 3.6.3 1.4 1.6 2.6 3 2.8-1.8.9-2.8 3.2-2.3 5.1.5 2 2.4 3.5 4.5 3.4-2.7 1.6-3.7 5.4-2.1 8.1 1.5 2.7 5.4 3.7 8.1 2.2 2.6 4.3 8.2 6.5 13.1 5.3 1.3-.3 2.5-.8 3.7-1 1.6-.2 3.2.3 4.7.1 2.6-.4 4.6-2.7 5.4-5.2 2.7-.3 5.6-.7 8.7-1.2 4.6 4.2 9.3.8 8.7-1 2.7-.1 4.1.2 6.6-.8 1-.4 2.6-1.1 3.3-1.9.1-.1.2-.3.4-.5 1.5-1.8 1.2-4.4-.4-6-.2-.2-.3-.4-.3-.7.9-.5 2.1-.4 3.1-.2 1.1.1 2.2.1 3-.6.8-.7.6-2.4-.4-2.5.6-.9.7-2.1.1-3 .9.7 2.3.1 2.8-.9.6-1.2.4-2.4.1-3.5z"/><path class="st15" d="m467.4 178.3-14.2-6.3c-5.6-1.4-10.4 5.1-11.6 10.8-1.3 6.3-2.7 14.1-2.6 18.9.2 9.8 8.4 13.2 8.4 13.2l-.8 5.8c.3 4.6 5.1 5.1 5.1 5.1 13.1 1.6 14.7-5.8 14.7-5.8l3.4-36.3c.3-1.6-.7-5-2.4-5.4z"/><path class="st6" d="M449.4 198.3c0-.1-.8-.3-2.1-.7-.3-.1-.6-.2-.7-.4 0-.3.1-.6.4-1 .4-.8.9-1.6 1.4-2.4 1.9-3.5 3.3-6.3 3.2-6.4-.1-.1-1.8 2.7-3.7 6.1-.5.9-.9 1.7-1.3 2.4-.2.4-.5.8-.4 1.3.1.3.3.5.5.6.2.1.4.1.6.2 1.3.2 2.1.4 2.1.3z"/><path class="st17" d="M447.4 214.9s5.3.2 12.2-2.8c0 0-2.8 5.8-12.5 5.7l.3-2.9z"/><path class="st6" d="M456.5 184.1c.1.4 1.4.4 2.9.8s2.7 1 3 .7c.1-.1-.1-.5-.5-.9-.5-.4-1.2-.9-2.1-1.1-.9-.2-1.8-.2-2.4-.1-.6.1-.9.4-.9.6zM443.8 182.6c.2.3 1.1.2 2.2.3 1.1.1 2 .5 2.2.2.1-.1 0-.5-.4-.8-.4-.3-1-.7-1.7-.7-.8-.1-1.4.1-1.9.3-.3.3-.5.5-.4.7z"/><path class="st6" d="M436.8 187c.2-1.5.9-3 2-4 .6-.5 1.4-.9 1.9-1.5 1.2-1.3 1.3-3.3 1.9-5 .8-2.2 2.7-3.9 5-4.4 1.9-.5 3.9-.2 5.7-.9 1.3-.5 2.4-1.6 3.7-2.1 2.6-.9 5.4.7 7.6 2.3.3 1.9-1.1 3.4-2.4 4.9-1.3 1.5-3.3 2.3-5.2 2.2-1.5-.1-3.2-.6-4.4.4-1.2 1-1 3-2 4.2-1.5 1.7-4.4.7-6.4 1.7-1.6.7-2.4 2.5-3.3 4-.9 1.5-2.4 3-4.1 2.8-.1-1.6-.2-3.1 0-4.6z"/><path class="st6" d="M460.5 174.4c4.4.4 8.7 1.6 12.6 3.6 1.2.6 2.4 1.3 3 2.5.5 1 .5 2.2.3 3.4-.4 3.6-2.3 7.9-4 11l-4.8 2.3c-3.4-1.2-1.2-7-.8-10-2.3-1.3-3.7-4-3.5-6.6-1.7-1.5-2.8-3.8-2.8-6.2z"/><path class="st15" d="M468 195.9c.3-2 2.9-2.2 4.6-1 .9.7 1.5 1.9 1.2 4.1-.9 5.8-6.5 3.7-6.5 3.5-.1-.1.3-4.2.7-6.6z"/><path class="st17" d="m469.3 200.6.2.2c.2.1.4.2.8.1.6-.1 1.3-1 1.5-2.1.1-.5.1-1-.1-1.5-.1-.5-.3-.8-.6-.9-.3-.1-.5 0-.6.2-.1.2-.1.3-.1.3s-.1-.1 0-.3c0-.1.1-.2.3-.3.2-.1.4-.1.6-.1.4.1.8.6.9 1.1.2.5.2 1.1.1 1.7-.2 1.2-1 2.2-1.9 2.3-.4 0-.7-.1-.9-.3-.2-.3-.2-.4-.2-.4z"/><path class="st6" d="M454.6 193.2c-.1.7.3 1.3 1 1.4.7.1 1.3-.3 1.5-1 .1-.7-.3-1.3-1-1.4-.7-.1-1.4.4-1.5 1zM443 191.9c-.1.7.3 1.3 1 1.4.7.1 1.3-.3 1.5-1 .1-.7-.3-1.3-1-1.4-.8-.1-1.4.4-1.5 1zM443.5 187c.1.2 1.1-.4 2.4-.1 1.2.2 2 1.2 2.1 1 .1-.1 0-.4-.3-.8s-.9-.9-1.7-1c-.8-.2-1.5 0-1.9.3-.5.3-.6.5-.6.6zM455.3 189.2c.2.2 1.3-.5 2.8-.4 1.5.1 2.5 1.1 2.7.9.1-.1 0-.4-.5-.9-.4-.4-1.2-.9-2.1-1-.9-.1-1.8.2-2.2.5-.6.5-.8.8-.7.9z"/><path class="st17" d="M455 201.7c-.1-.9-.9-1.6-1.7-1.6-.6 0-1.3.3-1.6.9-.4.5-.5 1.2-.3 1.8v.1c.5.7 1.5 1.1 2.3.8.8-.2 1.4-1.1 1.3-2z"/><path class="st6" d="M450.4 202.8c0-.2 1.4 0 2.7-1 1.2-1 1.3-2.6 1.5-2.6.1 0 .2.4.1 1s-.5 1.5-1.2 2.1c-.7.6-1.6.8-2.2.8-.7 0-1-.2-.9-.3z"/><path class="st9" d="m420.8 446.5 1.7 18.1s-19.7 7.4-19.9 11l37.2.1V473l-1.6-9.3-2.3-18-15.1.8z"/><path class="st2" d="M433.7 461.7c.7.2 1.2 1 1.1 1.8-.2.7-1 1.3-1.7 1.1-.7-.2-1.4-1.2-1.1-1.9.3-.7 1.3-1.3 1.9-.9"/><path class="st6" d="M439.8 475.6v-2.7l-35.7.7s-1.7.7-1.5 1.9l37.2.1zM421.9 464.4c0 .2.9.3 1.9.9.9.6 1.4 1.4 1.6 1.3.2 0-.1-1.1-1.2-1.8-1.3-.8-2.4-.6-2.3-.4zM417.9 466c0 .2.8.5 1.4 1.3.7.8.8 1.6 1 1.6.2 0 .3-1.1-.5-2-.8-1-1.9-1.1-1.9-.9zM415.6 470.8c.2 0 .4-.9-.1-1.9-.5-1-1.4-1.4-1.4-1.3-.1.2.5.7.8 1.5.5.9.5 1.7.7 1.7zM420.5 460c.1.2.9-.1 2 0 1.1 0 1.9.4 2 .2.1-.1-.7-.8-1.9-.9-1.3 0-2.1.6-2.1.7z"/><path class="st9" d="m466.5 447 1.6 17.7s-19.4 7.1-19.6 10.7l36.5.3V473l-1.5-9.1-2.2-17.7-14.8.8z"/><path class="st2" d="M479.1 462.1c.7.2 1.2 1 1 1.7-.2.7-1 1.2-1.7 1.1-.7-.2-1.4-1.1-1.1-1.9.3-.7 1.3-1.3 1.9-.9"/><path class="st6" d="M485 475.7V473l-35.1.5s-1.7.7-1.5 1.9l36.6.3zM467.5 464.6c0 .2.9.3 1.8.9.9.6 1.4 1.4 1.5 1.3.2 0-.1-1.1-1.2-1.8-1.1-.8-2.2-.6-2.1-.4zM463.5 466.2c0 .2.7.5 1.4 1.3.6.8.8 1.6 1 1.6.2 0 .3-1-.5-2s-1.9-1.1-1.9-.9zM461.3 470.8c.2 0 .4-.9 0-1.9-.5-1-1.3-1.4-1.4-1.3-.1.1.4.7.8 1.5.3 1 .4 1.7.6 1.7zM466.2 460.3c.1.2.9-.1 1.9 0 1 .1 1.8.4 1.9.2.1-.1-.7-.8-1.9-.9-1.1 0-2 .5-1.9.7zM419.9 289.5s-8.8 25.5-9.1 44.5c-.3 19-.6 49.2 3.3 82.5 4 33.3 5.8 46.7 5.8 46.7H440s2.1-20.9 1.8-39.5c-.3-18.7-1.8-24.6 0-45.2s4.6-32.9 7.6-39.1c0 0 8.3-9.8 8.9-23.4.6-13.5-4.2-25.1-4.2-25.1l-34.2-1.4z"/><path class="st6" d="M437.8 325.3c.3 1 6.3 42.9 10.6 61.4s9.2 23.4 10 38.4c1 17.3 5.7 38.2 5.7 38.2h21.4s-3-31.9-6-56.9-7.3-55.7-6.7-65c.7-9.2 2.3-20.6 0-33.6-2.3-12.9-7.4-16.3-7.4-16.3l-18.1-.8-9.5 34.6z"/><path class="st9" d="m457.9 301.4.3.6c.2.4.4 1.1.7 2 .5 1.8.8 4.4.7 7.7-.1 3.3-.6 7.1-1.8 11.3-.6 2.1-1.3 4.2-2.3 6.3-1 2.1-2.4 4.1-3.9 6.1-2.9 4-4.3 8.6-5.4 12.7-1.1 4.1-1.6 8-2 11.2-.4 3.2-.6 5.8-.8 7.6-.1.9-.2 1.6-.2 2.1-.1.5-.1.7-.1.7v-.7c0-.5.1-1.2.1-2.1.1-1.8.3-4.4.7-7.7.4-3.2.9-7.1 1.9-11.2.5-2.1 1.2-4.3 2-6.4.4-1.1.9-2.2 1.5-3.3.6-1.1 1.2-2.1 1.9-3.1 1.4-2 2.8-4 3.8-6.1 1-2.1 1.8-4.2 2.3-6.3 1.1-4.1 1.7-7.9 1.8-11.2.2-3.2-.1-5.8-.6-7.6-.2-.9-.4-1.5-.6-2 .1-.4 0-.6 0-.6z"/><path class="st11" d="m466.4 220.1-16.6-1.3s-18.5 14.7-22.3 33.5c-3.8 18.8-8.1 37.5-8.1 37.5l33.8 4.2c3.5.4 7.1.4 10.6-.1l3.5-.5-2.9-11.9s5.3-22.6 7.4-31.1c4.5-18.5-5.4-30.3-5.4-30.3z"/><path d="m434.6 256-13.7 26.8c3.5-.1 6.1-1.6 8.5-4.2 2.4-2.6 4.1-5.8 5.7-9 4.1-8 8-16.3 8.8-25.3-3.4 3.7-6.5 7.6-9.3 11.7z" class="st12"/><path class="st11" d="M471.3 226.1s17.2 39.9 15.8 45.2c-1.6 6-6.9 8.2-10.5 7.1-3.6-1.1-12.8-7.5-12.8-7.5l7.5-44.8z"/><path class="st15" d="m381.7 244.7 1.5.6s-.2-1.3-1.3-2.9c-.4-.5-1-2-1.1-2.4-.1-1.7 1.1-2.9 2.2-1 .4.7 1.4 1.9 2.1 2.5 2.3 2.3 9.9 10.5 9.9 10.5l-5.8 7.6s-7-.4-11.1-1.7c-3.1-.9-4.3-2.1-4.3-2.8 0-.7 1.2-1.1 1.2-1.1s-.8-1.1-.6-2.1c.1-1 1.5-1.4 1.5-1.4s-.4-.9-.5-1.9c0-1 1.2-2.2 1.2-2.2s-2.1-.8-.9-2.6c.3-.5 1.3-.8 3.1-.2 1.1.4 2.9 1.1 2.9 1.1z"/><path class="st11" d="M394 249.3c.2.3 19.9 11.6 19.9 11.6s9.2-17.6 12.2-23.7c2.9-6.1 6.5-14.7 11.2-17.4 4.7-2.7 12.5-1 12.5-1l-3.1 22.9-7.7 16.5s-9.1 18.2-14.1 22.4c-4.5 3.9-11.6 2.3-14.8.4-3.2-1.9-24.3-20-24.3-20l8.2-11.7z"/><path class="st6" d="M446.6 242s-.1.2-.2.5c-.2.4-.4.9-.7 1.5-.6 1.3-1.4 3.2-2.5 5.6-2.2 4.7-5.3 11.1-9 18-1.9 3.5-3.6 6.8-5.7 9.5-1.1 1.4-2.2 2.5-3.4 3.5-1.2.9-2.5 1.6-3.8 2-2.5.8-4.7.6-6.1.3-.7-.1-1.3-.3-1.6-.4-.4-.1-.5-.2-.5-.2s.8.2 2.2.5c1.4.2 3.5.3 6-.5 1.2-.4 2.5-1 3.6-2 1.2-.9 2.3-2.1 3.3-3.4 2.1-2.7 3.8-6 5.6-9.5 3.7-6.9 6.9-13.3 9.1-18 1.1-2.3 2-4.2 2.7-5.5.3-.6.5-1.1.7-1.5.2-.3.3-.5.3-.4zM472.3 242.5s0 .5-.1 1.3-.3 2.1-.5 3.6c-.5 3-1.2 7.1-2 11.7-.9 4.5-1.7 8.6-2.4 11.6-.4 1.5-.6 2.7-.9 3.5-.2.8-.4 1.3-.4 1.3s.1-.5.2-1.3c.2-.9.4-2.1.7-3.5.6-3 1.4-7.1 2.3-11.6.8-4.5 1.6-8.6 2.2-11.6.3-1.4.5-2.6.7-3.5.1-1.1.2-1.5.2-1.5zM486.5 187.7c2.6.1 5.3.4 7.7 1.7 2.3 1.3 4.2 3.6 4.3 6.2.1 2.6-1.9 5.4-4.6 5.4 2.5 1.2 3.9 4.3 3.3 7-.6 2.7-3.2 4.8-6 4.8 2.8 1.4 2.9 5.7.9 8.1-2 2.4-5.3 3.3-8.4 3.8-2 3.7-6.3 6.2-10.6 6s-8.3-3-10-6.9c-3.5-.1-6.6-3.2-6.6-6.6s2.9-6.7 6.4-6.9c-.4-1.8.2-3.7 1.4-5 1.3-1.3 3.1-2.6 5.8-2 0 0 2.9 0 3.9-2s1.6-6.8 1.6-6.8l10.9-6.8z"/></g><g id="Character_1"><path class="st1" d="m165.3 475.8.2-238h7.1c-.5 1.6 0 238 0 238h-7.3z"/><path class="st2" d="M148.6 359.6H219v7.7h-70.4z"/><path transform="rotate(-180 156.273 363.381)" d="M148.6 359.6h15.3v7.7h-15.3z" class="st12"/><path class="st2" d="M161.5 411.1h70.4v7.7h-70.4zM172.5 452.7h70.4v7.7h-70.4zM198.9 307.8h-84v7.6h84"/><path transform="rotate(-180 132.056 311.471)" d="M114.6 307.8h34.9v7.4h-34.9z" class="st12"/><path class="st2" d="M159.6 187.3 253 475.7h-8.4l-93.4-286z"/><path transform="rotate(-180 169.804 414.953)" d="M161.5 411.1h16.6v7.7h-16.6z" class="st12"/><path transform="rotate(-180 183.303 456.512)" d="M172.6 452.7H194v7.7h-21.4z" class="st12"/><path class="st2" d="M113.9 167.4c11.8-.1 21.3.8 29.1 4.3 8.5 3.7 14.4 9.8 17.1 17.3l-8.9.8s-5.8-10.7-17-13.8c-8.1-2.2-19.5-1.9-22-1.3-5.2 1.1-8 6.7-4.6 17.1l85.5 284.1h-8.7L98.1 189.6c-1.1-3.3-5.3-22 15.8-22.2z"/><path class="st2" d="m114.9 475.8.2-238 7.1 2.4c-.5 1.6 0 235.6 0 235.6h-7.3z"/><path class="st6" d="M115 245.9c.1 0 .3 51.5.3 114.9 0 63.5-.1 114.9-.3 114.9s-.3-51.4-.3-114.9c.1-63.4.2-114.9.3-114.9zM122.4 269.9c.1 0 .3 46.1.3 103s-.1 103-.3 103c-.1 0-.3-46.1-.3-103s.2-103 .3-103z"/><path class="st6" d="M165.8 414c-.1 0-13.7-44.6-30.4-99.8-16.6-55.2-30-99.9-29.9-99.9.1 0 13.7 44.6 30.4 99.8 16.6 55.1 30 99.9 29.9 99.9zM193.9 414l-.8 22.3s22.4 8.3 22.7 12.4l-43.3.1-.1-20.1 21.5-14.7z"/><path class="st2" d="M179.7 434.5c-.8.2-1.4 1.2-1.2 2 .2.8 1.1 1.4 2 1.2.8-.2 1.6-1.3 1.3-2.1-.3-.8-1.4-1.5-2.2-1"/><path class="st9" d="m172.5 448.8.1-3.5 41.5 1.2s1.9.8 1.7 2.2l-43.3.1z"/><path class="st7" d="M193.8 436.1c0 .2-1.1.3-2.1 1-1.1.7-1.6 1.6-1.8 1.5-.2 0 .1-1.3 1.4-2.1 1.3-.8 2.6-.6 2.5-.4zM198.4 438c0 .2-.9.6-1.6 1.5-.7.9-.9 1.8-1.1 1.8-.2 0-.3-1.2.6-2.3.8-1.1 2.1-1.2 2.1-1zM201 443.4c-.2 0-.5-1 .1-2.2.5-1.2 1.5-1.6 1.6-1.4.1.2-.5.8-1 1.8-.5.9-.5 1.8-.7 1.8zM193.4 431c-.1.2-1.1-.1-2.3 0-1.2.1-2.1.5-2.2.3-.1-.2.8-.9 2.2-1 1.4-.1 2.4.5 2.3.7z"/><path class="st6" d="m211 370.2-1.4 21.4s21.3 8.6 21.4 12.5l-41.5-1.2.8-33.4 20.7.7z"/><path class="st2" d="M196.9 389.4c-.8.2-1.4 1.1-1.2 1.9.2.8 1.1 1.4 1.9 1.2.8-.2 1.5-1.2 1.3-2-.3-.8-1.3-1.4-2.1-1.1"/><path class="st9" d="m189.5 403 .2-3.4 39.7 2.4s1.8.9 1.6 2.2l-41.5-1.2z"/><path class="st7" d="M210.4 391.4c0 .2-1 .3-2 .9-1 .6-1.6 1.5-1.8 1.4-.2 0 .2-1.2 1.4-2s2.4-.5 2.4-.3zM214.7 393.3c0 .2-.8.5-1.6 1.4-.7.8-.9 1.7-1.1 1.7-.2 0-.3-1.2.6-2.2.9-1 2.1-1.1 2.1-.9zM217 398.6c-.2 0-.4-1 .1-2.1s1.5-1.5 1.6-1.3c.1.2-.5.7-1 1.7-.4.8-.5 1.7-.7 1.7zM210.1 386.5c-.1.2-1-.1-2.2-.1-1.1 0-2.1.4-2.2.2-.1-.1.8-.9 2.1-.9 1.5 0 2.4.6 2.3.8z"/><path class="st6" d="M172.2 124c.4-1.7 2-3.1 3.8-3.2 1.6-2.1 4.7-2.8 7-1.6 1.3-1.3 3.2-1.8 5-1.3 1.7.5 3.2 1.9 3.7 3.6 2.5.6 4.1.3 5 1.1 1.3 1.3 1.4 3.5.5 5.1 2 .2 3.8 2 3.9 4.1.1 2-1.6 4-3.6 4.3l-23.2-7.5c-1.7-1-2.6-2.9-2.1-4.6z"/><path class="st15" d="M198 136.4c-2.9-8.8-12.1-13.8-21.1-11.6l-.9.2c-9.5 2.9-12.3 12.6-9.1 22l9.2 31.7 2.6 8.6 21.2-8.1-2-8.2s8.9-3.7 6.8-13c-1.1-4.3-3.9-13.4-6.7-21.6z"/><path class="st17" d="M198 171.1s-5.8 1.8-13-.6c0 0 4.5 6 13.5 2.9l-.5-2.3z"/><path class="st6" d="M197.8 145.9c.2.7-.2 1.4-.9 1.6-.7.2-1.5-.2-1.7-.9-.2-.7.2-1.4.9-1.6.7-.2 1.5.2 1.7.9zM197.2 141.5c-.1.2-1.3-.3-2.7.1-1.4.3-2.3 1.3-2.5 1.2-.1-.1 0-.4.4-.9.4-.4 1.1-.9 1.9-1.2.9-.2 1.7-.1 2.2.2.5.2.7.5.7.6zM185.3 149.2c.2.7-.2 1.4-.9 1.6-.7.2-1.5-.2-1.7-.9-.2-.7.2-1.4.9-1.6.7-.2 1.5.2 1.7.9zM183.2 145.1c-.1.2-1.3-.3-2.7.1-1.4.3-2.3 1.3-2.5 1.2-.1-.1 0-.4.4-.9.4-.4 1.1-.9 1.9-1.2.9-.2 1.7-.1 2.2.2.6.3.8.5.7.6zM191 154.4c0-.1.8-.4 2.2-1 .4-.1.7-.3.7-.5 0-.3-.2-.6-.5-1-.6-.8-1.1-1.6-1.8-2.5-2.5-3.6-4.3-6.5-4.2-6.6.1-.1 2.3 2.7 4.7 6.3.6.9 1.2 1.7 1.7 2.5.2.4.6.8.5 1.4 0 .3-.2.6-.5.7-.2.1-.4.2-.6.2-1.3.4-2.2.6-2.2.5zM187 156.4c.2-.1.6 1.5 2.2 2.2 1.6.8 3.2.2 3.3.4 0 .1-.3.4-1 .6-.7.2-1.7.2-2.7-.3-1-.5-1.5-1.3-1.7-1.9-.2-.5-.2-1-.1-1zM182.2 139.5c0 .4-1.5.6-3.1 1.2s-2.9 1.4-3.2 1.1c-.1-.1 0-.6.5-1.1.4-.5 1.2-1.1 2.2-1.4 1-.4 1.9-.4 2.6-.3.7 0 1.1.3 1 .5zM196.4 137.3c-.2.4-1.2.3-2.4.6-1.2.2-2.1.8-2.4.5-.1-.1-.1-.5.3-.9s1-.8 1.8-1c.8-.2 1.6-.1 2.1.2.4.1.6.4.6.6z"/><path class="st6" d="M196.1 131.8s-3.9-5.2-7-5.9c-3.8-.8-4.3 3.3-7.8 3.2-3.4-.1-7.1-.9-9.7 2.4-2.9 3.6-.8 5.1 0 9.3 3.2 16.9 1.3 22.3-1.5 14.7-.3-.8-2.9-.9-4.1-4.5-1.6-4.6-3.2-10.3-3-13.9.2-3 1.3-5.4 3.7-8.2 3.7-4.5 9.9-6.1 14.3-6.7 4.3-.6 13.7 2.3 15.1 9.6z"/><path class="st15" d="M170.6 155.7c-.4-1.4-1.9-2.2-3.3-1.8-1.7.6-3.4 2-2.4 5.6 1.8 6.3 7.7 3.2 7.7 3 0-.1-1.2-4.2-2-6.8z"/><path class="st17" d="m170.6 160.5-.2.2c-.2.1-.5.3-.8.2-.7-.1-1.6-1-1.9-2.1-.2-.6-.2-1.1-.1-1.7.1-.5.3-.9.6-1.1.3-.2.6 0 .7.1.1.2.1.3.2.3 0 0 .1-.1 0-.4-.1-.1-.2-.2-.4-.3-.2-.1-.4-.1-.6 0-.5.2-.8.7-.9 1.3-.1.6-.1 1.2.1 1.9.4 1.3 1.4 2.3 2.4 2.3.5 0 .8-.2 1-.4-.1-.1-.1-.2-.1-.3z"/><path class="st6" d="M167.8 143.4c1 .4 2 .7 3 .6 1-.1 2-1 1.9-2 0-.5-.3-.9-.1-1.4.2-.5.9-.5 1.5-.6 1.9-.3 3.5-2 3.5-3.9.6.6 1.7.3 2.3-.3.6-.6.9-1.5 1.3-2.3.4-.8 1-1.5 1.9-1.6.5 0 1 .1 1.5 0 .8-.3 1-1.3.9-2.2-.1-.9-.2-1.8.4-2.5.6-.6 1.5-.5 2.2-.6.8-.1 1.7-.5 1.7-1.3 0-.4-.3-.8-.6-1.1-1.4-1.3-3.7-1.5-5.2-.4-1.1-1.9-3.5-3.1-5.7-2.8-2.2.3-4.2 2-4.8 4.2-1.6-.9-3.7-.9-5.4-.1-1.7.8-2.9 2.5-3.1 4.3-1.6 0-3.2 1-3.9 2.5s-.4 3.4.8 4.6c-1 .9-1.7 2.3-1.4 3.6.3 1.3 1.9 2.3 3.1 1.7-.3 1.1.5 2.4 1.6 2.8 1.1.3 2.5-.4 2.8-1.5"/><path class="st9" d="M163.1 141.9s0 .6.7 1.1c.3.3.8.5 1.5.4.6 0 1.3-.4 1.7-1h-.3c.4.5 1 .9 1.6 1.3.4.2.9.4 1.3.4.5.1.9 0 1.3-.2.8-.3 1.4-.9 1.6-1.5.2-.6.2-1.1.2-1.4 0-.3-.1-.5-.1-.5s0 .2-.1.5c0 .3-.1.8-.3 1.3-.4 1.1-2.2 2-3.8 1-.6-.3-1.1-.7-1.6-1.2l-.2-.2-.1.2c-.3.5-.9.8-1.4.9-.5.1-1-.1-1.3-.3-.5-.3-.6-.8-.7-.8zM171.5 124.5s.2 0 .5.1.8.2 1.2.6l.1.1.1-.1c.4-.9 1.1-2.2 2.5-3.2.7-.5 1.5-.9 2.4-1.2.9-.2 1.9-.2 2.9.1.7.2 1.4.6 2 1.1.5.5.9 1.1 1.2 1.7l.1.2.2-.1c.9-.5 1.9-.5 2.7-.3.8.2 1.4.7 1.8 1.2.8 1 .8 1.8.9 1.8 0 0 0-.2-.1-.5s-.2-.8-.6-1.4c-.4-.5-1-1.1-1.9-1.3-.9-.3-2-.2-3 .3l.2.1c-.2-.7-.7-1.4-1.2-1.9-.6-.5-1.3-1-2.1-1.2-1-.3-2.1-.4-3.1-.1-1 .2-1.8.7-2.5 1.3-1.4 1.1-2.1 2.4-2.4 3.4h.2c-.5-.4-1-.5-1.3-.6-.6-.1-.8-.1-.8-.1z"/><path class="st6" d="M214.2 282.1c.6.9-1.1 76.6-1.4 84.2-.3 7.6-15.8 66.9-15.8 66.9l-26-1.8s7.9-59.3 8.5-61.6c.6-2.3.9-8.2.9-9.1 0-.9-11-60.3-11-60.3s-5.9-13.4-6.7-17.5c-.9-4.1.5-27.8.5-27.8l48.4 6.5 2.6 20.5z"/><path class="st6" d="M235.9 317.7c0-2.9-.7-5.8-2-8.5-2.9-5.9-11.3-21.8-14-25.5-3.7-5.3-11-20.3-11-20.3L185 280.6l17.4 43-11.5 59.3 25.5 5.1 18.6-64.7c.6-1.8.9-3.7.9-5.6z"/><path class="st9" d="M217 287.2v.4c0 .3 0 .7-.1 1.1 0 1-.1 2.5-.2 4.3-.1 3.8-.3 9.2-.5 15.9-.2 6.7-.5 14.7-.8 23.5-.2 4.4-.3 9.1-.5 13.9-.2 4.8-.4 9.8-.8 14.9-.9 5-2.1 9.9-3.2 14.5-1.1 4.7-2.2 9.2-3.3 13.5-2.1 8.6-4 16.3-5.6 22.9-1.6 6.5-2.9 11.7-3.8 15.4-.4 1.8-.8 3.2-1 4.2-.1.5-.2.8-.2 1.1-.1.2-.1.4-.1.4s.1-.1.1-.4c.1-.3.2-.6.3-1.1.3-1 .6-2.4 1.1-4.2.9-3.7 2.3-8.9 3.9-15.4s3.6-14.2 5.7-22.8c1-4.3 2.1-8.8 3.3-13.5 1.1-4.7 2.3-9.5 3.3-14.6.5-5.1.6-10.1.8-14.9.2-4.8.3-9.5.5-13.9.2-8.8.5-16.8.7-23.5.1-6.7.3-12.1.3-15.9 0-1.8 0-3.3.1-4.3v-1.5z"/><path class="st15" d="M261.3 135.1s-2.3-5.8-2.4-7.5c-.1-1.8.3-7.5-.5-9.9 0 0 1.4-1.4 2.6.5 1.1 1.9 2 5 2.1 6.5 0 1.5 1.2 1.4 1.8.5.6-.9 3.8-7.5 3.8-7.5s2.4-8.1 3.5-8.5c1-.4 2.1.5 2.1 1.3 0 .5-1.4 7.7-1.4 7.7l-1.4 3.5s5.4-11.3 6.5-11.6c1.2-.3 1.9.3 2.1 1 .2.7-2.5 6.2-2.5 6.2l-2.7 6.4 7-11.1s.8-1 1.7-.4c.3.2.5.5.6.8.2.6.1 1.3-.2 1.9l-5.9 11.5s3.7-6.5 4.4-6.6c.9 0 1.3.5 1.2 1.1-.2 1.2-3.4 7.3-3.4 7.3l-6.5 11.1-2.8 5.6-11.1-6.3 1.4-3.5z"/><path class="st15" d="M211.7 197.3c15.9-3.2 31.5-8.3 40.2-12.8 3.9-2 7.2-5.1 9.4-8.8l11.8-35.1-13.3-2.1-13.5 28.6L201 182l10.7 15.3z"/><path class="st11" d="m176.6 177.1 23.6-.7 12 3s6.3 7.8 7.8 14.4l-2.4 19.6-.9 36.9 1.2 24.4c.9 1.5.7 2 .1 3.7-13.5 5.8-39 6.9-56.8-.4l-1.1-65.3 1.3-30.7 15.2-4.9z"/><path class="st15" d="M146.6 239.8c-6.3 6.7-11.5 1.7-12.9-1-1.4-2.7.2-9 .2-9l8.5-16.3 15.5 8.7-11.3 17.6z"/><path class="st11" d="M161.4 181.9s-7.4 3-10.6 11.1c-.7 1.9-12 24.4-12 24.4l12 8.5 4.5 3.2 6.1-10.6v-36.6z"/><path class="st6" d="M159.7 196.5s-.1.5-.1 1.4v3.8c0 3.2.1 7.7.3 12.6.2 4.9.3 9.2.4 12.6.1 1.5.1 2.8.1 3.8 0 .9.1 1.4.1 1.4s.1-.5.1-1.4v-3.8c0-3.2-.1-7.7-.3-12.6-.2-4.9-.3-9.2-.4-12.6-.1-1.5-.1-2.8-.1-3.8 0-.9-.1-1.4-.1-1.4z"/><path class="st11" d="m228.9 171.2-26.5 5.7s-8.9 6.8-4.9 16.7c5.3 12.8 13 7.8 18.4 8l21.8-6.4-8.8-24z"/><path class="st6" d="M204.4 200.5s-.4 0-1.2-.3c-.7-.3-1.7-.8-2.8-1.7-2.1-1.8-4.2-5.3-4.6-9.5-.2-2.1.2-4.1.6-5.9.2-.9.6-1.7 1-2.4s1-1.3 1.5-1.7c1.1-.8 2.1-1.3 2.7-1.8.6-.4.9-.8.9-.7 0 0-.2.4-.8.9-.6.5-1.5 1.1-2.6 1.9-1.1.8-1.8 2.3-2.2 4-.4 1.7-.7 3.7-.6 5.7.4 4.1 2.4 7.4 4.3 9.3 2.1 1.8 3.9 2.1 3.8 2.2z"/></g></svg>