<?xml version="1.0" encoding="utf-8"?>
<!-- Generator: Adobe Illustrator 25.2.1, SVG Export Plug-In . SVG Version: 6.00 Build 0)  -->
<svg version="1.1" id="Capa_1" xmlns="http://www.w3.org/2000/svg" xmlns:xlink="http://www.w3.org/1999/xlink" x="0px" y="0px"
	 viewBox="0 0 1080 1080" enable-background="new 0 0 1080 1080" xml:space="preserve">
<g>
	<g>
		<g>
			<g>
				<path fill="#B2C9C6" d="M151.132,525.799c-5.893,6.015-9.557,5.932-11.914,3.622c-2.358-2.31-2.516-5.972,3.377-11.987
					c10.735-10.957,20.193-12.07,20.193-12.07S162.024,514.683,151.132,525.799z"/>
			</g>
			<g>
				<path fill="#B2C9C6" d="M165.06,578.559c-3.63,7.598-7.124,8.705-10.102,7.282c-2.978-1.423-4.313-4.836-0.682-12.434
					c6.611-13.841,15.2-17.955,15.2-17.955S171.768,564.516,165.06,578.559z"/>
			</g>
			<g>
				<g>
					<g>
						<path fill="#B2C9C6" d="M198.982,716.496l-1.57,0.283c-0.043-0.241-4.561-24.559-22.006-57.244
							c-16.097-30.157-46.809-73.811-101.708-110.515l0.886-1.325c55.202,36.906,86.079,80.816,102.262,111.153
							C194.392,691.739,198.938,716.252,198.982,716.496z"/>
					</g>
				</g>
				<g>
					<g>
						<path fill="#B2C9C6" d="M132.262,597.191l-1.521-0.478c17.373-55.21-16.268-107.404-16.61-107.925l1.332-0.875
							C115.809,488.44,149.865,541.248,132.262,597.191z"/>
					</g>
				</g>
				<g>
					<g>
						<path fill="#B2C9C6" d="M102.332,578.514c-15.624,4.236-29.553-0.385-29.713-0.439l0.514-1.508
							c0.177,0.06,18.021,5.959,35.673-2.066l0.66,1.45C107.078,577.037,104.684,577.876,102.332,578.514z"/>
					</g>
				</g>
				<g>
					<g>
						<path fill="#B2C9C6" d="M70.346,540.722c10.128,5.135,11.931,9.048,10.44,11.992c-1.493,2.943-5.715,3.803-15.844-1.332
							c-18.451-9.353-24.666-19.204-24.666-19.204S51.626,531.233,70.346,540.722z"/>
					</g>
				</g>
				<g>
					<g>
						<path fill="#B2C9C6" d="M75.396,571.984c11.206,1.842,14.105,5.03,13.57,8.287c-0.535,3.256-4.302,5.349-15.508,3.507
							c-20.412-3.355-29.309-10.873-29.309-10.873S54.686,568.58,75.396,571.984z"/>
					</g>
				</g>
				<g>
					<g>
						<path fill="#B2C9C6" d="M111.42,549.746c4,7.41,2.834,10.885-0.07,12.453c-2.905,1.568-6.449,0.634-10.448-6.776
							c-7.285-13.5-5.546-22.862-5.546-22.862S104.029,536.05,111.42,549.746z"/>
					</g>
				</g>
				<g>
					<g>
						<path fill="#B2C9C6" d="M117.017,480.803c5.445,9.966,4.716,14.213,1.819,15.795c-2.897,1.582-6.864-0.1-12.308-10.065
							c-9.917-18.154-9.465-29.793-9.465-29.793S106.956,462.384,117.017,480.803z"/>
					</g>
				</g>
			</g>
		</g>
	</g>
	<g>
		<path fill="#B2C9C6" d="M362.284,882.347c0,0,43.292-230.474-19.688-239.872c-62.981-9.397,5.209,160.866-9.519,227.559
			L362.284,882.347z"/>
	</g>
	<g>
		<g>
			<g>
				<path fill="#CFD3A3" d="M80.344,701.771c33.733,23.386,4.314,76.928,50.86,84.033c46.558,7.08,44.177,2.925,56.882,29.692
					c0,0,0.558,21.009,16.131,30.921c61.447,39.106,192.69-21.325,145.948-103.998c-3.376-5.97-10.02-10.485-17.543-15.081
					c-40.819-24.906-62.724-10.512-75.778-76.198c-13.06-65.705-90.306-11.299-118.498-26.03
					c-28.192-14.731-50.345-34.203-86.01-12.646C16.658,634.044,46.597,678.409,80.344,701.771z"/>
			</g>
		</g>
		<g>
			<g>
				<g>
					<path fill="#C5C796" d="M299.488,804.964l2.249-1.492c-0.657-0.991-67.981-100.217-258.305-184.38l-1.093,2.47
						C231.949,705.409,298.833,803.977,299.488,804.964z"/>
				</g>
			</g>
			<g>
				<g>
					<path fill="#C5C796" d="M210.68,681.177c34.807-12.306,46.776-28.568,47.269-29.254l-2.193-1.576
						c-0.116,0.162-12.059,16.293-45.978,28.285L210.68,681.177z"/>
				</g>
			</g>
			<g>
				<g>
					<path fill="#C5C796" d="M195.136,706.263c12.325-9.6,19.148-27.968,19.735-53.117c0.439-18.833-2.781-35.08-2.813-35.242
						l-2.646,0.532c0.127,0.633,12.403,63.623-15.936,85.698L195.136,706.263z"/>
				</g>
			</g>
			<g>
				<g>
					<path fill="#C5C796" d="M146.353,680.958c4.063-1.274,6.374-2.239,6.48-2.284l-1.061-2.482
						c-0.485,0.208-49.174,20.478-99.279-2.085l-1.107,2.461C91.758,694.749,131.214,685.705,146.353,680.958z"/>
				</g>
			</g>
			<g>
				<g>
					<path fill="#C5C796" d="M97.523,728.295c16.935-8.118,25.59-19.658,29.869-27.909c4.657-8.981,5.277-15.978,5.302-16.272
						l-2.692-0.223c-0.022,0.269-2.642,27.106-33.648,41.97L97.523,728.295z"/>
				</g>
			</g>
		</g>
	</g>
	<g opacity="0.6">
		<path fill="#B2C9C6" d="M615.835,537.887c0,0-62.918-310.612,22.007-324.518c84.926-13.906-3.956,217.479,17.225,307.32
			L615.835,537.887z"/>
	</g>
	<g>
		<g>
			<g>
				<path fill="#B2C9C6" d="M878.491,349.963c-27.56,25.915,6.553,70.709-34.904,83.529c-35.074,10.825-39.338,9.554-44.617,24.71
					c-1.81,5.195-2.791,10.637-3.077,16.13c-0.345,6.584-2.3,17.155-10.596,24.361c-50.679,44.021-178.544,6.828-147.208-74.9
					c2.263-5.902,7.704-10.923,13.935-16.138c33.812-28.267,55.741-18.132,58.686-79.785c2.947-61.671,80.774-22.608,104.463-39.879
					c23.688-17.27,41.227-38.038,76.674-23.251C927.307,279.55,906.065,324.069,878.491,349.963z"/>
			</g>
		</g>
		<g opacity="0.5">
			<g>
				<g>
					<path fill="#75A2BD" d="M692.805,473.896l-2.253-1.053c0.464-0.993,48.304-100.614,210.313-203.273l1.333,2.102
						C740.798,373.945,693.268,472.908,692.805,473.896z"/>
				</g>
			</g>
			<g>
				<g>
					<path fill="#75A2BD" d="M756.882,348.958c-33.404-6.472-46.531-19.664-47.073-20.221l1.783-1.735
						c0.127,0.131,13.212,13.207,45.765,19.514L756.882,348.958z"/>
				</g>
			</g>
			<g>
				<g>
					<path fill="#75A2BD" d="M774.469,369.705c-12.542-7.071-21.265-22.882-25.229-45.725c-2.968-17.107-2.247-32.355-2.239-32.506
						l2.484,0.124c-0.029,0.595-2.633,59.684,26.208,75.942L774.469,369.705z"/>
				</g>
			</g>
			<g>
				<g>
					<path fill="#75A2BD" d="M815.486,339.99c-3.878-0.607-6.115-1.172-6.218-1.199l0.628-2.406
						c0.471,0.123,47.614,11.962,90.21-15.433l1.344,2.092C867.129,345.119,829.933,342.254,815.486,339.99z"/>
				</g>
			</g>
			<g>
				<g>
					<path fill="#75A2BD" d="M866.446,376.482c-16.542-5.092-26.005-14.431-31.029-21.368c-5.469-7.552-6.989-13.845-7.051-14.11
						l2.423-0.569c0.057,0.242,6.103,24.347,36.391,33.669L866.446,376.482z"/>
				</g>
			</g>
		</g>
	</g>
	<g>
		<path fill="#B2C9C6" d="M696.359,236.797c-0.017-12.241,3.868-15.887,8.666-15.894c4.798-0.007,8.692,3.629,8.708,15.87
			c0.03,22.298-8.642,33.087-8.642,33.087S696.389,259.42,696.359,236.797z"/>
	</g>
	<g>
		<path fill="#B2C9C6" d="M735.309,245.271c8.426-8.879,13.754-8.842,17.234-5.54c3.48,3.303,3.795,8.621-4.632,17.5
			c-15.35,16.174-29.07,18.011-29.07,18.011S719.735,261.68,735.309,245.271z"/>
	</g>
	<g>
		<path fill="#BED5DC" d="M1043.783,870.416c0,33.124-211.02,59.977-471.326,59.977s-471.326-26.852-471.326-59.977
			c0-33.125,211.02-59.978,471.326-59.978S1043.783,837.292,1043.783,870.416z"/>
	</g>
	<g>
		<g>
			<path fill="#704A76" d="M316.532,883.478c-0.371,0-0.753-0.056-1.127-0.172c-1.982-0.613-3.08-2.685-2.459-4.631l82.547-257.931
				c0.623-1.944,2.72-3.032,4.713-2.416c1.982,0.613,8.986,1.578,8.366,3.524L320.118,880.89
				C319.611,882.469,318.132,883.478,316.532,883.478z"/>
		</g>
		<g>
			<path fill="#704A76" d="M344.467,617.193h239.06c2.257,0,4.087,1.717,4.087,3.834l0,0c0,2.117-0.018,9.051-2.275,9.051
				l-239.548-3.159c-3.768,0.151-5.411-3.775-5.411-5.892l0,0C340.38,618.91,342.21,617.193,344.467,617.193z"/>
		</g>
		<g>
			<path fill="#75A2BD" d="M803.014,861.749l-350.739,26.047c-14.354,1.066-27.254-8.742-30.06-22.859l-35.559-178.911
				l-4.621-23.241l-7.05-35.479l-2.009-10.115l-39.162-197.041c-3.501-17.623,9.98-34.046,27.943-34.046h347.949
				c13.401,0,24.991,9.334,27.841,22.428l11.467,52.644l79.73,366.095C832.427,844.195,820.287,860.467,803.014,861.749z"/>
		</g>
	</g>
	<g>
		<g>
			<path fill="#704A76" d="M239.248,616.312c0,0,21.978,192.923,12.408,198.475c-9.571,5.551-13.718-6.911-18.732-26.9
				c-5.013-19.99-29.522-165.168-29.522-165.168L239.248,616.312z"/>
		</g>
		<g>
			<polygon fill="#75A2BD" points="237.903,586.064 239.248,616.312 203.403,622.719 198.123,593.175 			"/>
		</g>
		<g>
			<path fill="#2F1A31" d="M237.903,586.064c0,0,17.921-32.701,2.886-52.355c-7.924-10.357-21.856-19.695-33.264-26.211
				c-7.542-4.308-16.937,1.248-16.733,9.93c0.275,11.681-0.835,26.122-6.624,35.778c-8.944,14.923,13.956,39.968,13.956,39.968
				L237.903,586.064z"/>
		</g>
	</g>
	<g>
		<g>
			<path fill="#E38669" d="M295.817,660.741c0,0-24.296,146.892-32.519,148.977c-8.223,2.085-8.666-7.977-8.167-23.771
				c0.5-15.795,12.906-128.007,12.906-128.007L295.817,660.741z"/>
		</g>
		<g>
			<polygon fill="#75A2BD" points="301.175,638.152 295.817,660.741 268.037,657.941 270.345,635.044 			"/>
		</g>
		<g>
			<path fill="#2F1A31" d="M301.175,638.152c0,0,18.884-17.236,11.921-34.888c-3.754-9.517-12.023-20.475-18.847-28.553
				c-3.586-4.246-10.485-2.377-11.471,3.091c-1.571,8.706-5.454,19.71-14.741,28.568c-9.654,9.208,2.308,28.674,2.308,28.674
				L301.175,638.152z"/>
		</g>
	</g>
	<g>
		<path fill="#75A2BD" d="M197.801,737.874l-20.196,98.141c-2.739,13.311,10.238,25.395,27.272,25.395h87.497
			c15.823,0,28.415-10.501,27.594-23.012l-6.44-98.141c-0.763-11.625-12.89-20.742-27.594-20.742h-60.862
			C211.527,719.515,199.979,727.289,197.801,737.874z"/>
	</g>
	<g>
		<g>
			<path fill="#2F1A31" d="M905.639,838.898c0,0-0.189,7.573-5.314,9.71c-5.125,2.136-19.974,4.064-14.425,8.933
				c3.183,2.795,18.187,0.989,22.424,0.989c4.236-0.001,8.213,1.846,11.361-0.989c3.463-3.12,0-18.643,0-18.643
				s-3.656,1.904-6.943,1.819C908.004,840.594,905.639,838.898,905.639,838.898z"/>
		</g>
		<g>
			<path fill="#2F1A31" d="M964.493,838.897c0,0-0.19,7.573-5.315,9.71c-5.125,2.136-19.973,4.064-14.425,8.934
				c3.184,2.794,18.188,0.989,22.424,0.989c4.237-0.001,8.214,1.846,11.362-0.99c3.463-3.119-0.001-18.643-0.001-18.643
				s-3.655,1.904-6.943,1.819C966.858,840.592,964.493,838.897,964.493,838.897z"/>
		</g>
		<g>
			<path fill="#446F8F" d="M867.55,631.278c0,0-0.947,31.702,9.171,92.518c7.305,43.904,15.928,88.145,20.159,109.355
				c1.514,7.587,7.894,13.135,15.457,13.437l4.064,0.163c8.177,0.328,14.813-6.696,14.216-15.047l-10.266-143.495l-2.53-47.229
				L867.55,631.278z"/>
		</g>
		<g>
			<path fill="#2F1A31" d="M960.108,659.177c-0.466,3.858-22.284,3.39-48.997,0.009s-47.506-9.168-47.039-13.026
				c0.467-3.859,22.016-4.328,48.729-0.947C939.513,648.593,960.575,655.318,960.108,659.177z"/>
		</g>
		<g>
			<path fill="#446F8F" d="M898.218,653.921l57.031,183.2c2.387,7.669,9.291,12.924,17.156,13.058l3.427,0.058
				c8.094,0.139,14.281-7.345,12.805-15.488L957.44,662.609c-0.454-2.047-1.963-3.674-3.937-4.243
				C942.807,655.281,897.169,646.344,898.218,653.921z"/>
		</g>
		<g>
			<path fill="#97A6D5" d="M951.189,553.7c0,0-7.588-21.348-34.619-20.378c-27.031,0.971-47.441,36.492-52.498,112.836
				c0,0,44.263-9.706,96.115,12.937C960.187,659.096,963.061,584.817,951.189,553.7z"/>
		</g>
		<g>
			<path fill="#97A6D5" d="M970.173,552.415l-19.15,12.257c0,0-49.224,4.924-62.291,2.554c-13.067-2.371-15.1-11.979-15.1-11.979
				s12.431-17.051,36.086-21.286c2.223-0.401,4.463-0.467,6.852-0.639c4.012-0.285,8.024-0.162,11.957,0.262
				C951.898,536.109,970.173,552.415,970.173,552.415z"/>
		</g>
		<g>
			<path fill="#030304" d="M923.708,735.804l-12.265-37.285c-2.758-8.384-8.431-15.381-15.973-19.703l0.477-0.832
				c7.748,4.438,13.575,11.625,16.406,20.235l12.265,37.285L923.708,735.804z"/>
		</g>
		<g>
			<g>
				<path fill="#E38669" d="M898.033,528.568c-0.148-0.035-3.634-0.885-4.671-3.382c-0.547-1.318-0.298-2.84,0.739-4.525
					c0.461-0.75,0.886-1.428,1.276-2.049c2.707-4.317,3.62-5.772,2.911-9.149l0.307-0.065c0.735,3.502-0.269,5.103-2.952,9.382
					c-0.389,0.62-0.814,1.298-1.275,2.047c-0.981,1.594-1.221,3.02-0.716,4.238c0.974,2.348,4.419,3.19,4.453,3.198L898.033,528.568
					z"/>
			</g>
			<g>
				<path fill="#E38669" d="M898.441,509.43c0,0,1.198,5.421-2.393,11.095c-3.592,5.674,0.317,9.822,5.183,7.639
					c4.866-2.183,6.721,4.021,12.941,0.592C920.391,525.327,898.441,509.43,898.441,509.43z"/>
			</g>
			<g>
				<path fill="#F7B788" d="M927.189,533.402c-2.688-0.288-5.022-1.974-6.091-4.457l-3.35-7.78l-0.972-2.259l-5.717-13.276
					l0.991,13.759l0.596,8.258l0.17,2.354c0.138,1.921-1.204,3.621-3.1,3.961l-0.033,0.006c-1.017,1.654-2.422,5.017,1.775,6.352
					c4.933,1.57,12.911-2.313,15.774-6.914C927.219,533.405,927.204,533.403,927.189,533.402z"/>
			</g>
			<g>
				<path fill="#2F1A31" d="M917.762,520.937c-0.002,0.076-0.007,0.152-0.014,0.228c-0.328,4.435-5.072,6.507-5.072,6.507
					l-0.029-0.025l-0.596-8.258c1.451-0.531,3.516-1.078,4.725-0.482C917.408,519.217,917.805,519.839,917.762,520.937z"/>
			</g>
			<g>
				<path fill="#F7B788" d="M897.508,507.83c0-8.808,5.787-15.949,12.927-15.949c7.139,0,12.927,7.14,12.927,15.949
					c0,8.808-5.788,15.949-12.927,15.949C903.295,523.779,897.508,516.639,897.508,507.83z"/>
			</g>
			<g>
				<path fill="#F7B788" d="M921.634,510.236c-1.464,1.398-3.511,1.541-4.573,0.32c-1.061-1.221-0.735-3.345,0.729-4.743
					c1.464-1.398,3.512-1.542,4.573-0.32C923.424,506.714,923.097,508.837,921.634,510.236z"/>
			</g>
			<g>
				<path fill="#DA6B49" d="M903.474,518.15c0,0,4.415,0.102,8.831-1.449c0,0,0.367,4.352-4.416,4.643
					C905.108,521.515,903.474,518.15,903.474,518.15z"/>
			</g>
			<g>
				<path fill="#FFFFFF" d="M903.474,518.15c0,0,1.068,0.887,3.562,0.876c2.492-0.011,5.27-2.325,5.27-2.325
					S906.984,518.163,903.474,518.15z"/>
			</g>
			<g>
				<g>
					<path fill="#171730" d="M909.185,507.985c-0.086-0.024-0.161-0.086-0.196-0.176c-0.06-0.15,0.012-0.321,0.163-0.382
						c0.089-0.035,2.068-1.053,3.807,0.849c0.11,0.12,0.107,0.304-0.01,0.416c-0.118,0.112-0.281,0.08-0.416-0.01
						c-1.351-0.908-3.087-0.738-3.161-0.708C909.309,507.998,909.244,508,909.185,507.985z"/>
				</g>
			</g>
			<g>
				<path fill="#171730" d="M911.511,511.216c0.022,0.701-0.372,1.283-0.881,1.299c-0.509,0.017-0.939-0.539-0.962-1.241
					c-0.022-0.702,0.372-1.282,0.881-1.299C911.058,509.959,911.489,510.514,911.511,511.216z"/>
			</g>
			<g>
				<g>
					<path fill="#171730" d="M898.689,509.517c-0.089,0.011-0.181-0.018-0.248-0.087c-0.112-0.116-0.11-0.302,0.005-0.415
						c0.069-0.066,1.511-1.761,3.843-0.665c0.147,0.069,0.215,0.24,0.149,0.387c-0.066,0.149-0.229,0.182-0.389,0.149
						c-1.594-0.325-3.135,0.495-3.192,0.55C898.809,509.483,898.75,509.509,898.689,509.517z"/>
				</g>
			</g>
			<g>
				<path fill="#171730" d="M902.071,511.618c0.289,0.64,0.145,1.329-0.319,1.538c-0.465,0.209-1.074-0.141-1.362-0.781
					c-0.287-0.64-0.145-1.328,0.32-1.537C901.174,510.628,901.784,510.978,902.071,511.618z"/>
			</g>
			<g>
				<path fill="#E38669" d="M904.946,494.772c0,0,0.278,5.534,7.189,6.477c6.911,0.944,11.677,3.867,10.749,8.845
					c-0.928,4.978-12.067,15.306-3.88,19.306c8.186,4.001,6.444-3.459,15.319-1.729c8.876,1.729,10.476-10.122,4.365-17
					c-6.111-6.878-3.636-25.079-26.553-24.272c-22.917,0.807-14.52,19.09-14.52,19.09S904.96,500.883,904.946,494.772z"/>
			</g>
			<g>
				<path fill="#FFFFFF" d="M921.36,530.425c-1.724-0.696-2.785-1.733-3.151-3.082c-1.007-3.711,3.318-9.317,7.133-14.263
					c1.005-1.302,1.953-2.531,2.794-3.704c2.333-3.258,2.534-6.989,0.536-9.981c-2.19-3.281-6.36-4.669-10.886-3.619
					c-4.511,1.046-7.612,0.102-9.42-0.875c-1.965-1.06-2.846-2.351-2.882-2.405l0.154-0.104c0.036,0.052,3.596,5.175,12.105,3.202
					c4.605-1.068,8.85,0.349,11.084,3.697c2.011,3.014,1.804,6.92-0.541,10.193c-0.843,1.176-1.792,2.407-2.798,3.71
					c-3.789,4.912-8.084,10.479-7.101,14.101c0.355,1.307,1.349,2.275,3.04,2.958L921.36,530.425z"/>
			</g>
			<g>
				<g>
					<path fill="#704A76" d="M898.208,519.719c-1.941-0.715-3.65-2.86-4.564-5.736c-1.493-4.689-0.445-9.901,2.336-11.623
						c1.035-0.657,2.199-0.756,3.359-0.332c1.941,0.715,3.65,2.86,4.564,5.728l0,0c1.492,4.681,0.445,9.902-2.337,11.631
						c-0.623,0.391-1.292,0.582-1.978,0.582C899.131,519.969,898.669,519.886,898.208,519.719z M903.355,507.939
						c-0.861-2.71-2.436-4.714-4.215-5.371c-1.001-0.358-1.982-0.266-2.856,0.275c-2.573,1.597-3.508,6.518-2.091,10.966
						c0.861,2.702,2.436,4.714,4.215,5.371c0.993,0.349,1.983,0.266,2.852-0.275C903.833,517.3,904.772,512.379,903.355,507.939
						L903.355,507.939z"/>
				</g>
			</g>
			<g opacity="0.3">
				<path fill="#FFFFFF" d="M918.858,504.713c1.037,4.554-0.62,9.443-3.702,10.92c-3.082,1.478-6.421-1.016-7.459-5.57
					c-1.037-4.554,0.621-9.443,3.703-10.92C914.482,497.665,917.821,500.159,918.858,504.713z"/>
			</g>
			<g opacity="0.3">
				<path fill="#FFFFFF" d="M904.027,508.139c1.039,4.575-0.345,9.535-3.093,11.08c-2.748,1.544-5.819-0.912-6.858-5.487
					c-1.04-4.575,0.345-9.535,3.092-11.08C899.916,501.108,902.987,503.564,904.027,508.139z"/>
			</g>
			<g>
				<g>
					<path fill="#704A76" d="M910.854,515.696c-1.987-0.964-3.504-3.142-4.161-5.978c-1.13-4.863,0.711-10.118,4.107-11.714
						c1.367-0.64,2.814-0.632,4.198,0.033c1.982,0.964,3.495,3.143,4.148,5.97l0,0c1.135,4.872-0.706,10.126-4.107,11.714
						c-0.674,0.324-1.368,0.482-2.063,0.482C912.267,516.203,911.552,516.028,910.854,515.696z M911.04,498.52
						c-3.159,1.488-4.859,6.451-3.791,11.065c0.611,2.627,2.054,4.723,3.858,5.595c1.21,0.565,2.49,0.574,3.691,0.025
						c3.163-1.488,4.863-6.452,3.791-11.065l0,0c-0.607-2.619-2.046-4.706-3.845-5.587c-0.616-0.299-1.251-0.449-1.887-0.449
						C912.246,498.104,911.635,498.245,911.04,498.52z"/>
				</g>
			</g>
			<g>
				<g>
					<path fill="#704A76" d="M903.417,509.843c0.12,0,0.241-0.041,0.341-0.125l0,0c0.058-0.05,1.451-1.139,3.854-0.682
						c0.283,0.042,0.573-0.133,0.632-0.423c0.058-0.292-0.133-0.574-0.424-0.624c-2.902-0.607-4.669,0.84-4.747,0.898
						c-0.224,0.191-0.258,0.533-0.066,0.757C903.109,509.777,903.263,509.843,903.417,509.843z"/>
				</g>
			</g>
		</g>
		<g>
			<path fill="#2F1A31" d="M970.446,552.839c0.664,1.928-4.345,5.537-11.187,8.061c-6.842,2.523-12.927,3.007-13.591,1.078
				c-0.665-1.927,4.344-5.537,11.186-8.061C963.696,551.394,969.781,550.911,970.446,552.839z"/>
		</g>
		<g>
			<path fill="#446F8F" d="M938.63,654.994c0,0-53.314-10.185-70.599-5.38l8.289,12.284l30.815,1.744L938.63,654.994z"/>
		</g>
		<g>
			<g>
				<path fill="#CED892" d="M990.911,702.903c2.143,13.639-92.37,61.505-104.786,59.244c-5.911-1.076-21.867-35.175-37.688-73.303
					c-10.812-26.061-21.559-54.003-28.994-74.574c-4.538-12.556-7.846-22.368-9.171-27.329c-6.7-24.984,6.901-41.954,6.901-41.954
					s14.004-16.27,29.496-16.677c15.493-0.406,30.868,8.535,39.248,16.791c1.887,1.86,8.136,10.188,16.717,22.136
					c11.836,16.48,28.101,39.854,43.448,62.622C969.02,663.887,989.918,696.572,990.911,702.903z"/>
			</g>
			<g>
				<path fill="#97A6D5" d="M833.792,519.107l-4.099-6.048l-14.066,7.953l2.451,5.857c2.011,4.803,1.593,10.28-1.135,14.716
					c-3.069,4.99-6.506,11.678-6.08,16.044c0,0,32.197-0.681,47.918-27.867c0,0-5.766-1.82-12.406-2.789
					C841.263,526.224,836.69,523.384,833.792,519.107z"/>
			</g>
			<g>
				<g>
					<path fill="#E38669" d="M791.025,520.487l3.691,11.03c1.539,4.599,6.889,6.653,11.11,4.267l41.268-23.332
						c4.102-2.32,5.183-7.744,2.284-11.459l-7.104-9.102c-2.35-3.011-6.551-3.848-9.876-1.968l-37.856,21.402
						C791.328,513.144,789.853,516.985,791.025,520.487z"/>
				</g>
				<g>
					
						<rect x="800" y="509.715" transform="matrix(0.9592 -0.2826 0.2826 0.9592 -115.3 247.5331)" fill="#C5634D" width="0.539" height="27.335"/>
				</g>
				<g>
					
						<rect x="808.663" y="505.026" transform="matrix(0.9358 -0.3526 0.3526 0.9358 -130.8987 318.4968)" fill="#C5634D" width="0.539" height="27.167"/>
				</g>
				<g>
					
						<rect x="819.31" y="499.163" transform="matrix(0.8818 -0.4716 0.4716 0.8818 -144.875 447.1217)" fill="#C5634D" width="0.539" height="26.852"/>
				</g>
				<g>
					
						<rect x="839.198" y="487.629" transform="matrix(0.7503 -0.661 0.661 0.7503 -121.835 680.0939)" fill="#C5634D" width="0.538" height="27.434"/>
				</g>
				<g>
					<polygon fill="#C5634D" points="837.296,518.023 821.74,495.98 822.18,495.67 837.736,517.712 					"/>
				</g>
			</g>
			<g>
				<path fill="#E38669" d="M946.08,629.858c0,0-18.969,40.505-97.644,58.986c-10.812-26.061-21.559-54.003-28.994-74.574
					c0,0,52.755-13.084,83.191-47.034C914.468,583.716,930.733,607.091,946.08,629.858z"/>
			</g>
			<g>
				<path fill="#C6CC7D" d="M867.563,756.055c0,0,9.737,17.952,14.471,17.571c4.734-0.381,108.429-51.17,119.315-64.748
					c0,0,1.167-11.797-1.525-17.288c-2.691-5.491-9.844-4.747-18.696,0.258C972.276,696.853,862.977,748.437,867.563,756.055z"/>
			</g>
		</g>
		<g>
			<g>
				<path fill="#F7B788" d="M923.475,619.54l-0.229-13.994c-0.031-1.912,1.44-3.515,3.348-3.652
					c9.701-0.694,16.491-3.703,20.212-8.964c5.165-7.306,4.621-18.652,3.181-26.521c-0.736-4.026,0.592-6.72,5.457-9.301
					c0,0,4.185-2.302,9.345-3.181c2.067-0.352,4.119,0.479,4.652,2.506c0.834,3.174,1.915,8.111,2.431,13.921
					c1.224,13.799-1.438,25.802-7.697,34.712c-7.683,10.936-20.068,16.986-36.847,18.015
					C925.267,623.208,923.509,621.604,923.475,619.54z"/>
			</g>
		</g>
		<g opacity="0.5">
			<path fill="#E08B66" d="M959.148,601.422c-0.681,0-1.295-0.203-1.79-0.602c-1.526-1.229-1.36-3.974,0.369-6.121
				c0.817-1.015,1.861-1.754,2.94-2.082c1.143-0.348,2.194-0.201,2.961,0.417c1.525,1.228,1.36,3.974-0.369,6.12
				c-0.817,1.015-1.861,1.754-2.94,2.083C959.914,601.361,959.521,601.422,959.148,601.422z M961.834,593.373
				c-0.28,0-0.58,0.047-0.893,0.142c-0.901,0.275-1.782,0.905-2.483,1.774c-1.38,1.714-1.614,3.912-0.511,4.801
				c0.516,0.416,1.262,0.505,2.099,0.251c0.901-0.274,1.783-0.904,2.483-1.774l0,0c1.38-1.714,1.614-3.912,0.511-4.801
				C962.716,593.505,962.303,593.373,961.834,593.373z"/>
		</g>
		<g>
			<g>
				<g>
					<path fill="#F7B788" d="M930.156,601.007c0,0-3.407-10.311-9.24-12.835c-5.833-2.525-15.193-1.34-11.91,0.993
						c3.284,2.333,8.303,4.154,8.303,4.154s-10.906-3.387-10.594-0.493c0.312,2.893,9.826,5.748,9.826,5.748
						s-13.299-2.997-12.119-0.359c1.18,2.637,11.299,4.843,11.299,4.843s-12.485-2.294-11.042,0.738
						c1.443,3.032,10.329,1.829,10.642,4.723c0.312,2.894,2.532,14.282,10.681,14.396L930.156,601.007z"/>
				</g>
			</g>
			<g>
				<path fill="#DD8964" d="M921.197,595.717c-0.792-1.666-3.893-2.16-3.924-2.165l0.07-0.464c0.139,0.021,3.38,0.539,4.277,2.427
					L921.197,595.717z"/>
			</g>
			<g>
				<path fill="#DD8964" d="M921.249,601.456c-1.653-2.21-4.708-2.644-4.738-2.649l0.061-0.465c0.134,0.018,3.283,0.466,5.053,2.833
					L921.249,601.456z"/>
			</g>
			<g>
				<path fill="#DD8964" d="M920.1,605.716c-0.69-1.84-4.377-2.42-4.413-2.426l0.07-0.464c0.163,0.025,3.996,0.63,4.783,2.724
					L920.1,605.716z"/>
			</g>
		</g>
		<g>
			<g>
				<path fill="#F7B788" d="M812.637,610.851c0,0-3.692-7.202,2.906-10.526c8.406-4.234,22.939-1.449,17.65,1.306
					c-4.69,2.444-8.392,3.245-8.392,3.245s15.327-3.428,14.904,0.861c-0.422,4.289-16.914,7.937-16.914,7.937
					s19.025-2.628,17.315,1.295c-1.711,3.923-16.664,7.329-16.664,7.329s18.455-3.57,16.361,0.939
					c-2.094,4.511-12.012,4.422-16.222,5.345c-3.979,0.872-5.829-1.411-6.395-5.308c0,0-2.82-3.553-2.546-6.193
					c0.105-1.013-0.998-1.753-1.233-2.43C812.958,613.354,812.637,610.851,812.637,610.851z"/>
			</g>
		</g>
	</g>
	<g>
		<polygon fill="#DEECE9" points="796.841,810.44 474.751,812.471 424.251,632.709 401.727,552.515 367.131,429.377 675.357,405.28 
					"/>
	</g>
	<g>
		<g>
			<path fill="#BED5DC" d="M134.127,854.366c0,0-19.917-20.305-13.063-31.87c6.853-11.564,18.418,24.843,18.418,24.843
				s-5.996-43.05,6.425-43.798c12.421-0.748,0,43.798,0,43.798s4.604-10.387,9.102-11.029c4.497-0.643,3.212,8.807-4.818,18.056
				H134.127z"/>
		</g>
		<g>
			<path fill="#42438F" d="M135.553,854.876c-0.938-0.957-22.89-23.585-14.924-37.029c1.26-2.126,2.773-3.105,4.496-2.907
				c3.435,0.392,7.47,5.817,11.993,16.123c1.377,3.14,2.598,6.277,3.554,8.873c-1.097-11.269-2.37-33.718,3.833-41.293
				c1.347-1.645,2.991-2.537,4.884-2.651c1.851-0.117,3.362,0.55,4.505,1.965c5.577,6.905,0.536,31.3-2.234,42.715
				c2.066-3.348,4.998-7.079,7.993-7.507c1.418-0.202,2.546,0.326,3.18,1.49c1.808,3.318-0.687,11.777-7.992,20.189l-1.101-0.955
				c7.181-8.27,9.152-16.079,7.812-18.536c-0.34-0.625-0.877-0.862-1.693-0.745c-3.853,0.55-8.352,8.909-9.761,12.083l-1.368-0.491
				c0.028-0.098,2.75-9.911,4.577-20.655c2.389-14.049,2.199-23.272-0.548-26.673c-0.842-1.042-1.917-1.507-3.284-1.426
				c-1.492,0.091-2.749,0.784-3.844,2.12c-7.835,9.568-2.817,46.358-2.765,46.729l-1.417,0.321
				c-2.599-8.181-10.628-29.559-16.491-30.228c-1.12-0.123-2.124,0.593-3.077,2.202c-7.398,12.485,14.489,35.039,14.71,35.265
				L135.553,854.876z"/>
		</g>
	</g>
	<g>
		<path fill="#CED892" d="M749.012,461.177c-46.509,0.651-54.313,25.239-54.313,25.239l-95.453-13.851
			c2.311-36.47,21.168-69.941,45.077-86.46h65.382c13.401,0,24.991,9.334,27.841,22.428L749.012,461.177z"/>
	</g>
	<g>
		<g>
			<g>
				<path fill="#446F8F" d="M607.461,612.072L607.461,612.072c4.45,1.335,9.139-1.188,10.475-5.638l14.208-47.325
					c1.336-4.449-1.188-9.138-5.637-10.474l0,0c-4.449-1.335-9.138,1.188-10.474,5.637l-14.209,47.325
					C600.488,606.047,603.013,610.736,607.461,612.072z"/>
			</g>
			<g>
				<path fill="#446F8F" d="M587.806,547.838l69.003,20.717c5.569,1.672,11.438-1.487,13.111-7.056l4.997-16.644l-89.17-26.773
					l-4.997,16.646C579.078,540.296,582.237,546.166,587.806,547.838z"/>
			</g>
			<g>
				
					<rect x="585.787" y="517.809" transform="matrix(-0.9578 -0.2876 0.2876 -0.9578 1087.0614 1209.2407)" fill="#97A6D5" width="93.103" height="13.954"/>
			</g>
			<g>
				<path fill="#2F1A31" d="M697.08,494.072c-0.145,2.111-0.91,4.223-2.381,6.06c-6.813,8.537-14.445,20.284-15.771,31.358
					l-89.167-26.774c0,0,1.767-13.848,6.776-27.033c0.706-1.848,1.616-3.56,2.709-5.116c0.582-0.841,1.218-1.632,1.902-2.381
					c4.012-4.398,49.615,2.36,76.683,10.961C690.805,485.268,697.193,492.484,697.08,494.072z"/>
			</g>
		</g>
		<g>
			<g>
				<path fill="#F7B788" d="M814.288,719.681L814.288,719.681c1.154-0.094,2.176,0.773,2.27,1.928l1.46,17.917
					c0.094,1.154-0.773,2.176-1.928,2.27l0,0c-1.154,0.094-2.175-0.773-2.269-1.928l-1.46-17.918
					C812.266,720.797,813.134,719.776,814.288,719.681z"/>
			</g>
			<g>
				<path fill="#F7B788" d="M808.915,720.119L808.915,720.119c1.154-0.094,2.176,0.773,2.27,1.928l1.633,20.038
					c0.094,1.154-0.773,2.176-1.928,2.27l0,0c-1.154,0.094-2.176-0.773-2.27-1.928l-1.633-20.038
					C806.893,721.234,807.761,720.213,808.915,720.119z"/>
			</g>
			<g>
				<path fill="#F7B788" d="M806.622,709.808l0.622,0.417c1.162,0.78,1.476,2.369,0.696,3.532l-7.598,11.329
					c-0.78,1.163-2.37,1.476-3.532,0.696l-0.622-0.418c-1.163-0.78-1.477-2.37-0.696-3.532l7.598-11.329
					C803.869,709.341,805.458,709.028,806.622,709.808z"/>
			</g>
			<g>
				<path fill="#F7B788" d="M803.543,720.557L803.543,720.557c1.154-0.094,2.175,0.773,2.269,1.928l1.309,16.062
					c0.094,1.154-0.773,2.176-1.927,2.27l0,0c-1.154,0.094-2.176-0.773-2.27-1.928l-1.308-16.062
					C801.521,721.672,802.388,720.651,803.543,720.557z"/>
			</g>
			<g>
				<path fill="#F7B788" d="M817.103,709.179c0,0,6.917,9.848,4.442,18.033c-0.856,2.833-16.709,3.687-18.4,0.835
					c-1.691-2.852-1.517-13.786-1.517-13.786L817.103,709.179z"/>
			</g>
			<g>
				<path fill="#F7B788" d="M819.623,719.23L819.623,719.23c1.152-0.094,2.171,0.772,2.265,1.925l1.306,16.028
					c0.094,1.152-0.772,2.171-1.924,2.265l0,0c-1.152,0.094-2.172-0.771-2.265-1.924l-1.306-16.029
					C817.605,720.343,818.471,719.324,819.623,719.23z"/>
			</g>
		</g>
		<g>
			<g>
				<path fill="#F7B788" d="M610.913,595.358l-0.476,0.337c-0.814,0.578-1.952,0.384-2.529-0.43l-6.387-9.006
					c-0.578-0.815-0.383-1.952,0.431-2.529l0.475-0.338c0.814-0.577,1.952-0.384,2.529,0.43l6.387,9.007
					C611.92,593.643,611.727,594.781,610.913,595.358z"/>
			</g>
			<g>
				<path fill="#F7B788" d="M615.28,592.262l-0.415,0.294c-0.83,0.589-1.992,0.392-2.581-0.439l-8.313-11.724
					c-0.589-0.831-0.391-1.992,0.439-2.581l0.416-0.295c0.831-0.589,1.992-0.391,2.58,0.439l8.314,11.724
					C616.308,590.512,616.111,591.673,615.28,592.262z"/>
			</g>
			<g>
				<path fill="#F7B788" d="M622.307,600.106l-0.748-0.042c-1.399-0.077-2.479-1.285-2.401-2.683l0.755-13.62
					c0.077-1.398,1.284-2.479,2.683-2.401l0.748,0.042c1.398,0.077,2.479,1.285,2.401,2.682l-0.754,13.62
					C624.912,599.103,623.705,600.183,622.307,600.106z"/>
			</g>
			<g>
				<path fill="#F7B788" d="M619.47,589.291L619.47,589.291c-0.945,0.67-2.266,0.445-2.936-0.5l-9.322-13.146
					c-0.669-0.945-0.445-2.266,0.5-2.936l0,0c0.945-0.67,2.266-0.445,2.936,0.5l9.322,13.146
					C620.639,587.3,620.414,588.621,619.47,589.291z"/>
			</g>
			<g>
				<path fill="#F7B788" d="M613.613,605.995c0,0-10.974-4.94-13.022-13.242c-0.709-2.874,10.09-14.817,13-13.228
					c2.909,1.59,10.738,14.203,10.738,14.203L613.613,605.995z"/>
			</g>
			<g>
				<path fill="#F7B788" d="M606.621,598.421l-0.607,0.431c-0.776,0.55-1.861,0.366-2.411-0.41l-5.139-7.247
					c-0.55-0.776-0.365-1.86,0.411-2.411l0.607-0.43c0.775-0.55,1.861-0.366,2.411,0.411l5.139,7.247
					C607.582,596.787,607.396,597.872,606.621,598.421z"/>
			</g>
		</g>
		<g>
			<g>
				<path fill="#F7B788" d="M798.945,716.551c-8.145-22.028-21.562-53.044-39.233-75.708c-4.094-5.251-5.734-7.195-8.553-9.905
					c-2.269-2.18-1.008-8.659,2.68-12.581c3.461-3.68,10.039-5.005,11.404-4.014c2.321,1.686,5.291,5.315,9.949,11.093
					c16.184,20.076,30.139,47.885,42.813,85.172L798.945,716.551z"/>
			</g>
		</g>
		<g opacity="0.5">
			<path fill="#E08B66" d="M789.88,664.35c-0.562,0-1.153-0.178-1.733-0.531c-0.898-0.546-1.67-1.456-2.173-2.561
				c-1.063-2.338-0.577-4.855,1.084-5.612c1.66-0.753,3.879,0.531,4.943,2.87l0,0c1.063,2.338,0.576,4.855-1.085,5.612
				C790.59,664.277,790.241,664.35,789.88,664.35z M788.083,656.304c-0.232,0-0.456,0.045-0.663,0.139
				c-1.222,0.556-1.514,2.554-0.65,4.453c0.43,0.947,1.081,1.72,1.83,2.176c0.696,0.423,1.39,0.515,1.953,0.26
				c1.222-0.556,1.514-2.554,0.65-4.453C790.502,657.334,789.194,656.304,788.083,656.304z"/>
		</g>
		<g>
			<path fill="#F7B788" d="M714.382,604.876l-2.437-10.589l-0.709-3.082l-4.17-18.125l-2.034,17.569l-1.219,10.546l-0.386,3.338
				c-0.263,2.266-1.684,2.641-3.517,4.491c-0.742,0.749-5.475,5.277-0.676,7.837c5.977,3.191,17.839-0.084,22.635-5.174
				C721.836,611.678,715.17,608.299,714.382,604.876z"/>
		</g>
		<g>
			<path fill="#F7B788" d="M691.953,576.544c2.138-10.294,10.793-17.202,19.33-15.428c8.538,1.773,13.725,11.556,11.586,21.851
				c-2.138,10.294-10.793,17.202-19.33,15.428C695.002,596.621,689.814,586.838,691.953,576.544z"/>
		</g>
		<g>
			<path fill="#2F1A31" d="M699.037,572.483c-9.027-0.332-13.007-5.852-12.752-10.668c0.326-6.177,4.616-11.351,8.967-8.722
				c4.351,2.628,2.829-3.137,7.221-3.41c8.207-0.511,9.302,5.382,15.93,6.158c8.744,1.023,17.657,16.382,9.512,26.501
				C727.916,582.342,706.167,572.745,699.037,572.483z"/>
		</g>
		<g>
			<path fill="#2F1A31" d="M691.485,565.667c0,0,8.929,9.976,7.272,15.092c-1.656,5.117-1.487,7.181,3.924,10.379
				c5.411,3.197,0.114,7.342,7.576,8.225c7.462,0.883,17.291-7.281,18.372-21.825c0.602-8.108-3.66-13.76-3.66-13.76
				L691.485,565.667z"/>
		</g>
		<g>
			<path fill="#F7B788" d="M693.919,580.168c1.206-1.465,3.244-1.781,4.553-0.704c1.309,1.077,1.394,3.138,0.188,4.603
				c-1.205,1.465-3.243,1.781-4.552,0.704C692.799,583.694,692.714,581.633,693.919,580.168z"/>
		</g>
		<g>
			<path fill="#2F1A31" d="M726.018,580.274c-0.094,0-0.182-0.058-0.217-0.151c-0.707-1.886-2.723-2.742-2.744-2.751
				c-0.118-0.049-0.174-0.185-0.125-0.303c0.049-0.119,0.185-0.174,0.303-0.126c0.091,0.038,2.221,0.939,3,3.018
				c0.046,0.12-0.016,0.255-0.136,0.299C726.073,580.269,726.045,580.274,726.018,580.274z"/>
		</g>
		<g>
			<path fill="#2F1A31" d="M722.989,576.27c-0.109,0-0.206-0.076-0.228-0.186c-0.026-0.125,0.056-0.248,0.181-0.275
				c0.024-0.005,2.411-0.52,2.495-2.437c0.006-0.128,0.121-0.223,0.242-0.222c0.128,0.005,0.227,0.115,0.222,0.243
				c-0.099,2.281-2.838,2.867-2.866,2.872C723.02,576.268,723.004,576.27,722.989,576.27z"/>
		</g>
		<g>
			<path fill="#2F1A31" d="M696.754,552.829c-0.193,0-0.391-0.039-0.594-0.115c-0.733-0.278-1.263-0.707-1.775-1.121
				c-0.947-0.768-1.765-1.43-3.685-0.964c-0.126,0.031-0.251-0.047-0.28-0.172c-0.03-0.124,0.047-0.25,0.171-0.281
				c2.141-0.519,3.131,0.281,4.087,1.055c0.484,0.392,0.984,0.796,1.647,1.048c0.337,0.128,0.64,0.111,0.925-0.052
				c1.071-0.612,1.486-2.964,1.49-2.988c0.022-0.126,0.146-0.211,0.269-0.189c0.126,0.021,0.211,0.142,0.19,0.268
				c-0.018,0.106-0.459,2.594-1.717,3.313C697.249,552.763,697.006,552.829,696.754,552.829z"/>
		</g>
		<g>
			<path fill="#2F1A31" d="M718.258,555.041c-3.435,0-5.973-2.745-6.085-2.868c-0.087-0.095-0.08-0.242,0.015-0.328
				c0.096-0.086,0.242-0.08,0.329,0.015c0.027,0.03,2.767,2.991,6.249,2.694c0.118-0.007,0.24,0.084,0.252,0.212
				c0.011,0.128-0.085,0.24-0.212,0.252C718.621,555.034,718.438,555.041,718.258,555.041z"/>
		</g>
		<g>
			<path fill="#2F1A31" d="M696.137,585.591c-0.488,0-0.808-0.132-0.816-0.135c-0.057-0.024-0.083-0.09-0.059-0.147
				c0.024-0.058,0.091-0.084,0.147-0.059c0.08,0.033,1.981,0.801,3.565-1.848c0.031-0.053,0.101-0.071,0.154-0.039
				c0.053,0.032,0.071,0.101,0.039,0.154C698.127,585.255,696.917,585.591,696.137,585.591z"/>
		</g>
		<g>
			<g>
				<path fill="#F7B788" d="M611.859,604.767c-1.81-4.367,12.247-11.883,12.247-11.883c1.537-0.331,13.373,26.747,39.041,29.145
					c9.141,0.854,26.256-8.541,27.946-10.296c0.225-0.234,15.253,13.685,15.253,13.685c-3.06,3.18-9.822,14.474-21.876,18.79
					C659.535,653.138,619.016,634.1,611.859,604.767z"/>
			</g>
		</g>
		<g>
			<path fill="#2F1A31" d="M723.074,898.146c0,0-0.167,6.652-4.668,8.527s-17.541,3.569-12.668,7.845
				c2.796,2.454,15.973,0.868,19.693,0.868c3.72,0,7.213,1.622,9.977-0.868c3.042-2.739,0-16.373,0-16.373s-3.21,1.672-6.098,1.598
				C725.15,899.635,723.074,898.146,723.074,898.146z"/>
		</g>
		<g>
			<path fill="#446F8F" d="M684.244,697.424c0,0-0.898,30.016,8.682,87.598c6.915,41.57,15.08,83.459,19.084,103.541
				c1.433,7.183,7.475,12.436,14.635,12.723l3.848,0.155c7.742,0.311,14.026-6.34,13.461-14.246l-9.716-135.865l-2.395-44.718
				L684.244,697.424z"/>
		</g>
		<g>
			<path fill="#2F1A31" d="M765.698,898.146c0,0-0.167,6.652-4.667,8.527s-17.541,3.569-12.668,7.845
				c2.796,2.454,15.973,0.868,19.692,0.868c3.721,0,7.214,1.622,9.977-0.868c3.042-2.739,0-16.373,0-16.373s-3.21,1.672-6.097,1.598
				C767.775,899.635,765.698,898.146,765.698,898.146z"/>
		</g>
		<g>
			<path fill="#446F8F" d="M726.869,697.424c0,0-0.898,30.016,8.682,87.598c6.915,41.57,15.079,83.459,19.085,103.541
				c1.433,7.183,7.474,12.436,14.634,12.723l3.848,0.155c7.742,0.311,14.025-6.34,13.46-14.246l-9.716-135.865l-2.395-44.718
				L726.869,697.424z"/>
		</g>
		<g>
			<path fill="#704A76" d="M756.671,618.915c0,0-7.385-18.131-42.404-13.402c-50.501,6.819-39.31,52.529-34.073,123.651
				c0,0,48.718-14.017,97.217-10.531C777.411,718.634,771.666,646.097,756.671,618.915z"/>
		</g>
		<g>
			<path fill="#704A76" d="M775.097,621.084c0,0-4.914,16.816-20.711,22.631c-15.013,5.527-67.71,15.043-78.779,7.15
				c-24.437-17.423-14.155-31.212-14.155-31.212s17.874-4.838,41.08-13.011c5.774-2.034,15.206-3.126,22.05-2.938
				C761.797,604.727,775.097,621.084,775.097,621.084z"/>
		</g>
		<g>
			<path fill="#704A76" d="M777.51,719.52c0.412,3.599-21.073,8.072-48.011,11.006c-26.939,2.934-48.892,2.238-49.305-1.361
				c-0.412-3.599,20.873-8.738,47.811-11.672C754.944,714.558,777.097,715.921,777.51,719.52z"/>
		</g>
		<g>
			<path fill="#2F1A31" d="M737.545,797.88c-0.138,0-0.26-0.099-0.285-0.239c-5.578-30.709,9.647-50.48,9.801-50.676
				c0.1-0.126,0.284-0.147,0.408-0.049c0.126,0.1,0.148,0.282,0.048,0.408c-0.152,0.194-15.215,19.773-9.686,50.212
				c0.028,0.158-0.077,0.309-0.234,0.338C737.58,797.877,737.562,797.88,737.545,797.88z"/>
		</g>
		<g>
			<path fill="#E6EAA8" d="M697.08,494.072c-1.158,0.878-2.542,1.573-4.19,1.944c-8.796,1.977-9.157-9.695-12.749-13.105
				c-3.587-3.415-7.358,0.717-16.336,1.794c-8.979,1.077-7.718-7.179-14.903-9.221c-7.18-2.036-10.05,5.628-14.36,3.857
				c-4.308-1.772-0.899-6.124-4.131-7.562c-3.232-1.438-6.286,8.079-17.236,7.541c-10.95-0.538-13.929-6.754-13.929-6.754
				l1.902-2.381c5.935-6.507,15.275-9.355,24.189-6.679l63.901,19.186C694.462,484.258,697.43,489.171,697.08,494.072z"/>
		</g>
	</g>
	<g>
		<g>
			<path fill="#704A76" d="M611.409,776.517c13.225,3.962,15.545,109.879,8.14,120.099c-3.525,4.866-41.17,4.518-82.392,2.307
				c-28.174-1.513-58.017-3.896-79.781-6.081c-13.284-1.334-23.561-2.592-28.609-3.54c-25.425-4.755-34.851-24.355-34.851-24.355
				s-8.621-19.66-2.292-33.806c6.329-14.146,21.037-24.148,32.103-28.137c2.493-0.898,12.704-2.934,27.186-5.508
				c19.977-3.552,48.085-8.118,75.248-12.118C566.764,779.397,605.27,774.677,611.409,776.517z"/>
		</g>
		<g>
			<path fill="#75A2BD" d="M377.76,838.775l-7.225,1.083l1.092,16.121l6.342,0.321c5.2,0.263,9.959,3.007,12.78,7.384
				c3.173,4.924,7.719,10.914,11.841,12.417c0,0,13.3-29.329-4.422-55.255c0,0-4.133,4.414-7.877,9.982
				C387.408,835.114,382.87,838.009,377.76,838.775z"/>
		</g>
		<g>
			<g>
				<path fill="#E38669" d="M360.522,877.938l11.543,1.439c4.812,0.599,8.977-3.338,8.649-8.175l-3.205-47.298
					c-0.319-4.702-4.744-8.022-9.347-7.012l-11.278,2.472c-3.73,0.818-6.302,4.245-6.043,8.056l2.94,43.387
					C354.031,874.491,356.858,877.482,360.522,877.938z"/>
			</g>
			<g>
				
					<rect x="366.859" y="857.185" transform="matrix(0.1597 -0.9872 0.9872 0.1597 -551.1707 1094.2218)" fill="#C5634D" width="0.538" height="27.335"/>
			</g>
			<g>
				
					<rect x="366.299" y="847.395" transform="matrix(0.0865 -0.9963 0.9963 0.0865 -522.8877 1151.7081)" fill="#C5634D" width="0.539" height="27.166"/>
			</g>
			<g>
				
					<rect x="352.315" y="848.505" transform="matrix(0.999 -0.0437 0.0437 0.999 -36.7182 16.7822)" fill="#C5634D" width="26.851" height="0.538"/>
			</g>
			<g>
				
					<rect x="350.479" y="825.712" transform="matrix(0.9624 -0.2717 0.2717 0.9624 -210.7221 130.0267)" fill="#C5634D" width="27.434" height="0.538"/>
			</g>
			<g>
				
					<rect x="351.462" y="836.862" transform="matrix(0.986 -0.1669 0.1669 0.986 -134.6038 72.6558)" fill="#C5634D" width="26.979" height="0.538"/>
			</g>
		</g>
		<g>
			<path fill="#E38669" d="M526.162,785.377c0,0,28.329,34.611,10.994,113.546c-28.174-1.513-58.017-3.896-79.781-6.081
				c0,0,11.001-53.229-6.462-95.347C470.891,793.944,498.999,789.377,526.162,785.377z"/>
		</g>
		<g>
			<path fill="#5D3B63" d="M606.033,910.722c0,0,20.396-1.023,22.099-5.456c1.703-4.435,0.716-119.895-6.825-135.579
				c0,0-10.134-6.152-16.249-6.097c-6.115,0.054-8.535,6.826-7.847,16.972C597.899,790.707,597.182,911.565,606.033,910.722z"/>
		</g>
	</g>
	<g>
		<path fill="#E38669" d="M657.163,763.592c-12.571-0.313-12.571-23.656-20.467-27.604c-7.901-3.948-0.824,14.004-12.98,16.875
			c-12.157,2.877-15.227-16.875-26.619-26.931c-11.391-10.051-4.567,10.417-19.649,5.747c-15.081-4.67-32.478-114.773-153.197-98.97
			l-22.524-80.194c60.2,2.283,263.715,23.133,266.925,200.708C668.651,753.223,669.729,763.899,657.163,763.592z"/>
	</g>
	<g>
		<path fill="#97A6D5" d="M428.962,531.687c0,0,92.142,5.183,140.345-60.234c0,0,5.387-8.814-7.425-13.497
			c-12.812-4.683-7.008-13.354-18.161-13.35c-11.153,0.004-41.038,47.773-79.832,41.389c-38.794-6.383-40.138,0.8-36.376,6.522
			c3.762,5.722-6.409,6.933-3.669,15.39C426.582,516.366,418.119,527.528,428.962,531.687z"/>
	</g>
	<g>
		<path fill="#97A6D5" d="M451.713,479.651c-10.865,0-17.952-1.706-18.348-1.803c-1.01-0.249-1.628-1.27-1.38-2.281
			c0.25-1.011,1.272-1.629,2.281-1.38l0,0c0.125,0.031,12.733,3.047,29.859,0.929c15.738-1.947,38.65-8.762,58.435-30.18
			c0.706-0.765,1.899-0.811,2.664-0.106c0.765,0.707,0.812,1.899,0.106,2.664c-20.606,22.308-44.49,29.379-60.898,31.383
			C459.811,479.44,455.528,479.651,451.713,479.651z"/>
	</g>
	<g>
		<path fill="#97A6D5" d="M533.282,527.096c-0.664,0-1.308-0.351-1.652-0.973c-0.503-0.912-0.172-2.058,0.739-2.562
			c39.49-21.823,39.606-49.398,39.603-49.674c-0.013-1.041,0.82-1.896,1.861-1.909c0.008-0.001,0.017-0.001,0.024-0.001
			c1.03,0,1.872,0.829,1.884,1.862c0.004,0.312,0.036,7.759-5.137,18.06c-4.707,9.37-14.843,23.042-36.411,34.961
			C533.903,527.02,533.591,527.096,533.282,527.096z"/>
	</g>
	<g>
		<path fill="#E38669" d="M537.775,733.91c-1.343,0-2.505-1.003-2.671-2.37c-2.281-18.852-7.885-34.866-16.654-47.599
			c-6.973-10.124-15.966-18.227-26.732-24.081c-18.36-9.985-35.6-9.966-35.79-9.974c-0.006,0-0.013,0-0.02,0
			c-1.478,0-2.681-1.192-2.693-2.673c-0.011-1.487,1.185-2.702,2.673-2.713c0.755-0.004,18.83-0.018,38.404,10.628
			c11.516,6.263,21.136,14.929,28.594,25.757c9.269,13.458,15.178,30.283,17.566,50.007c0.179,1.477-0.873,2.818-2.351,2.997
			C537.992,733.904,537.882,733.91,537.775,733.91z"/>
	</g>
	<g>
		<path fill="#E38669" d="M589.76,603.004c-0.636,0-1.275-0.224-1.789-0.681c-14.795-13.159-33.846-24.176-56.621-32.744
			c-18.306-6.887-39.035-12.214-61.615-15.831c-38.538-6.176-69.479-5.207-69.787-5.196c-1.496,0.054-2.732-1.113-2.784-2.6
			c-0.051-1.486,1.113-2.732,2.599-2.783c0.313-0.012,31.686-1,70.718,5.243c22.952,3.672,44.05,9.09,62.708,16.104
			c23.421,8.805,43.057,20.172,58.361,33.782c1.111,0.989,1.211,2.691,0.222,3.803C591.242,602.699,590.503,603.004,589.76,603.004z
			"/>
	</g>
	<g>
		<g>
			<path fill="#F7B788" d="M265.283,266.345c0,0-12.722-2.357-16.337-7.821c-2.979-4.505-2.111-13.711,5.293-18.481
				c3.79-2.442,14.113-2.481,16.513-2.703c6.821-0.632,13.388,14.293,13.388,14.293L265.283,266.345z"/>
		</g>
		<g>
			<g>
				<path fill="#F7B788" d="M385.011,282.075l-14.508-23.435l7.254,11.718l-7.24-11.726c-9.552,5.88-38.468,20.305-57.313,16.485
					c-14.668-2.974-26.761-20.391-29.841-26.258l-24.404,12.81c0.46,0.876,4.712,8.808,12.352,17.511
					c10.873,12.388,23.465,20.323,36.417,22.949c14.476,2.935,32.025,0.353,52.161-7.673
					C374.113,288.786,384.573,282.346,385.011,282.075z"/>
			</g>
		</g>
		<g>
			<path fill="#2F1A31" d="M308.199,498.41c0,0-2.144,13.988-7.85,21.118c-3.761,4.701-14.138,14.01-6.759,17.111
				c5.893,2.478,17.242-8.552,20.925-11.295c3.684-2.745,9.239-7.937,8.007-12.363c-2.552-9.168-1.711-20.692-1.711-20.692
				L308.199,498.41z"/>
		</g>
		<g>
			<path fill="#2F1A31" d="M336.695,487.56c0,0,2.853,13.861-0.018,22.531c-1.893,5.714-8.385,18.05-0.388,18.393
				c6.387,0.274,13.192-14.013,15.692-17.866c2.5-3.853,5.903-10.654,3.21-14.375c-5.581-7.709-8.799-18.806-8.799-18.806
				L336.695,487.56z"/>
		</g>
		<g>
			<g>
				<path fill="#E38669" d="M332.695,497.356c-76.496-51.027-72.719-95.729-62.118-113.211
					c12.312-20.303,31.806-36.356,61.682-43.517c7.965-1.909,15.547-3.014,21.882-3.649c9.174-0.92,17.076,6.406,16.833,15.623
					l-0.686,26.034l0.058,0.001c-12.764-0.267-51.487,3.624-61.632,24.259c-2.109,4.289,49.384,64.769,47.462,75.621
					C354.004,490.794,340.175,502.345,332.695,497.356z"/>
			</g>
		</g>
		<g>
			<g>
				<path fill="#E38669" d="M303.035,504.998c-8.797,0.044-15.813-7.345-15.295-16.128c1.154-19.523,4.781-52.753,16.15-77.858
					c6.449-14.238,16.7-27.184,30.47-38.478c10.384-8.516,22.811-16.127,36.935-22.623c23.494-10.802,40.415-9.296,40.415-9.296
					l23.986,20.464c-0.17,0.034,3.966,28.66-25.879,45.306c-30.561,17.045-53.894,4.372-66.28,28.612
					c-8.843,17.304-12.221,40.248-13.345,56.282c-0.538,7.67-6.908,13.619-14.597,13.657L303.035,504.998z"/>
			</g>
		</g>
		<g>
			<path fill="#030304" d="M290.645,461.941l-0.471-0.032c0.012-0.174,1.231-17.649,6.632-37.407
				c4.99-18.256,14.674-42.255,32.472-52.906l0.242,0.405c-9.748,5.834-23.256,19.698-32.257,52.618
				C291.874,444.333,290.656,461.768,290.645,461.941z"/>
		</g>
		<g>
			<path fill="#030304" d="M329.635,495.128l-0.472-0.004c0.193-27.187,9.085-48.175,9.175-48.383l0.434,0.187
				C338.682,447.136,329.826,468.04,329.635,495.128z"/>
		</g>
		<g>
			<path fill="#704A76" d="M424.894,268.727c0,0-8.035-21.319-37.871-19.718c-29.837,1.601-50.432,8.351-54.763,91.619
				c0,0,25.11,24.822,87.194,28.608c9.181,0.56,20.3,3.725,20.807-5.459C441.272,345.486,437.508,310.554,424.894,268.727z"/>
		</g>
		<g>
			<path fill="#704A76" d="M451.105,272.378l-26.216,8.305c0,0-54.28,6.354-68.75,4.033c-14.47-2.32-18.604-13.761-18.604-13.761
				s15.109-17.558,41.164-22.647c2.448-0.482,4.989-0.849,7.626-1.084c4.426-0.391,8.682-0.796,13.025-0.34
				C441.8,251.335,451.105,272.378,451.105,272.378z"/>
		</g>
		<g>
			<path fill="#2F1A31" d="M451.105,272.378c1.404,3.126-4.738,6.059-12.266,8.85c-7.53,2.791-14.245,3.354-14.999,1.257
				c-0.754-2.097,4.738-6.059,12.267-8.85C443.636,270.843,450.192,270.344,451.105,272.378z"/>
		</g>
		<g>
			<path fill="#F7B788" d="M391.704,243.204l-4.494-7.924l-1.307-2.308l-7.69-13.565l2.573,14.604l1.545,8.766l0.489,2.775
				c0.332,1.883-0.72,2.525-1.75,4.45c-0.417,0.78-3.136,5.551,1.332,6.459c5.567,1.133,14.314-4.339,16.949-9.576
				C399.321,246.884,393.156,245.765,391.704,243.204z"/>
		</g>
		<g>
			<g>
				<path fill="#57335B" d="M365.419,216.48c0,0-0.149,3.723,1.736,7.938c1.885,4.215,4.002-7.622,4.002-7.622L365.419,216.48z"/>
			</g>
			<g>
				<path fill="#F7B788" d="M366.898,225.809c-0.746-8.784,4.554-16.406,11.838-17.025c7.284-0.619,13.795,6,14.541,14.783
					c0.747,8.783-4.554,16.406-11.838,17.024C374.155,241.211,367.645,234.593,366.898,225.809z"/>
			</g>
			<g>
				<path fill="#2F1A31" d="M392.624,219.033l-6.401,0.72c-1.408,0.158-2.829-0.306-3.828-1.309c-1.722-1.727-3.49-2.42-9.282-0.924
					c-7.333,1.894-13.178-1.446-14.824-5.14c-1.678-3.77,1.519-7.275,5.645-6.204c4.125,1.07,1.522-3.198,4.985-4.469
					c6.473-2.375,8.848,2.495,14.275,1.133c7.116-1.786,21.139,0.851,17.811,14.793L392.624,219.033z"/>
			</g>
			<g>
				<g>
					<path fill="#171730" d="M379.265,224.184c-0.077-0.028-0.14-0.09-0.165-0.174c-0.043-0.141,0.035-0.291,0.177-0.335
						c0.083-0.026,1.96-0.802,3.397,1.059c0.09,0.117,0.075,0.284-0.041,0.378c-0.115,0.093-0.261,0.052-0.377-0.041
						c-1.159-0.927-2.752-0.903-2.822-0.882C379.377,224.206,379.318,224.203,379.265,224.184z"/>
				</g>
			</g>
			<g>
				<path fill="#171730" d="M381.137,227.298c-0.033,0.64-0.435,1.138-0.9,1.115c-0.463-0.024-0.814-0.561-0.781-1.201
					c0.033-0.639,0.435-1.139,0.9-1.115C380.82,226.121,381.17,226.658,381.137,227.298z"/>
			</g>
			<g>
				<g>
					<path fill="#171730" d="M369.397,225.527c-0.063,0.003-0.126-0.032-0.17-0.1c-0.074-0.115-0.064-0.283,0.024-0.377
						c0.052-0.055,1.151-1.473,2.739-0.281c0.1,0.075,0.139,0.236,0.085,0.365c-0.054,0.129-0.17,0.146-0.28,0.102
						c-1.107-0.429-2.233,0.185-2.276,0.231C369.483,225.505,369.44,225.525,369.397,225.527z"/>
				</g>
			</g>
			<g>
				<path fill="#171730" d="M372.375,227.69c0.214,0.604,0.031,1.219-0.407,1.374c-0.438,0.155-0.966-0.209-1.18-0.813
					c-0.213-0.604-0.031-1.219,0.407-1.374C371.633,226.723,372.162,227.087,372.375,227.69z"/>
			</g>
			<g>
				<path fill="#57335B" d="M401.006,217.634c0,0-2.282,10.273-8.262,12.298c0,0,3.402-8.193-7.993-10.24
					C384.751,219.692,394.013,216.085,401.006,217.634z"/>
			</g>
			<g>
				<path fill="#F7B788" d="M393.49,224.672c-1.129,1.121-2.855,1.212-3.857,0.203c-1.002-1.009-0.899-2.735,0.229-3.855
					c1.129-1.121,2.856-1.212,3.858-0.203C394.722,221.825,394.618,223.551,393.49,224.672z"/>
			</g>
			<g>
				<path fill="#57335B" d="M384.751,219.692c0,0,2.549,7.645,1.279,9.473c-1.27,1.828-11.65,4.766-16.976,3.943l0,0
					c1.018,5.045,5.532,8.709,10.673,8.457c1.701-0.083,3.398-0.453,5.019-1.116l0,0c3.305-1.352,6.337-3.505,7.056-7.003
					c0.219-1.065-2.34-6.759-2.34-6.759s-1.238-3.4,0.401-5.668C389.863,221.02,387.048,219.42,384.751,219.692z"/>
			</g>
			<g>
				<path fill="#FFFFFF" d="M372.264,235.364c0,0,4.269,0.209,8.58-1.18c0,0,0.246,4.22-4.389,4.382
					C373.76,238.66,372.264,235.364,372.264,235.364z"/>
			</g>
			<g>
				<path fill="#2F1A31" d="M364.487,205.409l-0.066-0.355c1.714-0.32,1.568-1.717,1.561-1.776l0.359-0.044
					C366.343,203.251,366.54,205.026,364.487,205.409z"/>
			</g>
			<g>
				<path fill="#FFFFFF" d="M370.565,215.906c-0.021-0.001-2.162-0.152-4.428-0.801c-3.018-0.865-4.886-2.222-5.405-3.923
					c-0.361-1.184-0.326-2.039,0.106-2.613c0.688-0.915,2.229-0.896,3.588-0.874c0.201,0.003,0.4,0.007,0.587,0.005l0.001,0.181
					c-0.191-0.002-0.387-0.002-0.59-0.005c-1.316-0.019-2.809-0.039-3.441,0.802c-0.395,0.525-0.42,1.327-0.078,2.452
					c1.212,3.98,9.588,4.591,9.673,4.596L370.565,215.906z"/>
			</g>
			<g>
				<path fill="#FFFFFF" d="M380.951,204.671c-1.352,0-2.491-0.191-3.378-0.425c-2.102-0.554-3.252-1.436-3.301-1.473l0.111-0.143
					c0.011,0.009,1.175,0.9,3.245,1.444c1.909,0.502,5.002,0.801,8.896-0.62l0.062,0.17
					C384.451,204.404,382.551,204.671,380.951,204.671z"/>
			</g>
		</g>
		<g>
			<g>
				<path fill="#F7B788" d="M421.48,369.508l-9.862-24.211c20.022-8.156,17.514-47.224,14.556-61.545c0,0-0.404-4.385,9.676-7.511
					c5.674-1.759,9.717-1.654,11.696-1.415c0.822,0.1,1.494,0.695,1.699,1.498c1.127,4.389,4.727,19.528,3.89,36.436
					C451.301,349.753,434.909,364.039,421.48,369.508z"/>
			</g>
		</g>
		<g>
			<path fill="#F7B788" d="M418.893,348.371c0,0-38.215-0.294-34.691,12.583c1.742,6.364,22.043,9.801,29.561,8.092
				C421.283,367.337,418.893,348.371,418.893,348.371z"/>
		</g>
		<g>
			<g>
				<path fill="#EDF6F6" d="M322.536,378.482c3.444,13.446,23.077,44.325,62.481,31.27c39.397-13.055,61.911-52.664,32.8-66.051
					c-29.111-13.386-65.607,0-65.607,0C343.447,346.252,319.091,365.036,322.536,378.482z M401.853,347.682
					c0,0,9.658,0.132,13.293,4.106c3.63,3.974-5.888,10.751-14.379,6.697C392.282,354.438,395.528,349.537,401.853,347.682z"/>
			</g>
			<g>
				<path fill="#E38669" d="M391.732,376.37c2.091-1.545,4.734-2.136,7.319-1.855c3.402,0.37,8.864,1.399,11.468,4.248
					c3.939,4.31-6.384,11.656-15.589,7.264C388.026,382.735,388.279,378.92,391.732,376.37z"/>
			</g>
			<g>
				<path fill="#75A2BD" d="M369.277,389.173c1.252-0.527,2.619-0.703,3.973-0.595c3.468,0.279,10.567,1.27,13.75,4.754
					c4.299,4.704-6.968,12.724-17.016,7.93C360.871,396.915,363.181,391.736,369.277,389.173z"/>
			</g>
			<g>
				<path fill="#75A2BD" d="M342.15,385.917c1.461-0.733,3.113-0.984,4.741-0.828c3.08,0.296,8.523,1.203,11.049,3.966
					c3.631,3.974-5.887,10.748-14.375,6.699C336.289,392.284,337.634,388.185,342.15,385.917z"/>
			</g>
			<g>
				<path fill="#9CBCB6" d="M336.649,363.741c1.806-0.924,3.846-1.283,5.866-1.095c3.804,0.355,10.69,1.467,13.866,4.943
					c4.514,4.94-7.318,13.361-17.869,8.327C329.524,371.628,331.118,366.57,336.649,363.741z"/>
			</g>
			<g>
				<path fill="#B2C9C6" d="M365.722,349.355c0.633-0.231,1.308-0.328,1.98-0.287c2.543,0.154,9.39,0.862,12.319,4.066
					c3.631,3.974-5.887,10.748-14.375,6.699C357.619,356.003,360.083,351.411,365.722,349.355z"/>
			</g>
		</g>
		<g>
			<path fill="#F7B788" d="M412.035,350.245c-3.634-4.243-21.206-9.544-22.45-6.592c-1.196,2.838,11.128,9.435,11.128,9.435
				S413.933,352.461,412.035,350.245z"/>
		</g>
		<g>
			<g>
				<path fill="#704A76" d="M264.593,213.723c0,0,24.708,106.805,19.859,110.473c-4.849,3.668-7.932-3.072-11.983-13.979
					c-4.051-10.907-26.988-90.815-26.988-90.815L264.593,213.723z"/>
			</g>
			<g>
				<polygon fill="#75A2BD" points="261.864,196.855 264.593,213.723 245.482,219.402 240.654,203.158 				"/>
			</g>
			<g>
				<path fill="#9CBCB6" d="M261.864,196.855c0,0,7.608-19.366-1.883-29.5c-9.491-10.134-30.531-16.952-30.531-16.952
					s5.905,18.081-0.562,25.181c-6.466,7.1,11.766,27.574,11.766,27.574L261.864,196.855z"/>
			</g>
			<g>
				<path fill="#E38669" d="M255.775,163.586c0,0,0.399,6.09-5.578,5.666c-5.976-0.424-4.949,6.44-10.044,8.372
					c-5.095,1.932-10.063-3.733-10.063-3.733s0.582-18.754-0.64-23.487C228.228,145.671,255.775,163.586,255.775,163.586z"/>
			</g>
		</g>
		<g>
			<g>
				<path fill="#F7B788" d="M246.986,257.097c0,0-1.296,7.516,5.573,8.65c8.751,1.446,29.048-6.965,6.401-8.716
					c-0.564-0.044,14.533-0.248,12.947-3.987c-1.585-3.739-14.672-2.813-14.672-2.813s15.941-1.512,13.299-4.559
					c-2.641-3.048-12.896-3.251-12.896-3.251s13.45-0.633,10.299-4.1c-3.151-3.468-12.046-0.601-16.092-0.247
					c-3.823,0.334-4.846,2.907-4.259,6.572c0,0-1.537,3.988-0.549,6.286c0.378,0.881-0.405,1.857-0.427,2.533
					C246.57,254.756,246.986,257.097,246.986,257.097z"/>
			</g>
		</g>
		<g>
			<path fill="#F7B788" d="M284.557,250.946l-4.102-0.589c-1.613,0.994-3.716,0.535-4.675-1.02c0,0-4.278-10.393-8.824-16.15
				c-5.975-7.565,0.614-8.045,5.452-3.624C285.493,241.522,283.497,245.995,284.557,250.946z"/>
		</g>
	</g>
	<g>
		<g>
			<path fill="#BED5DC" d="M657.933,897.499c0,0-19.917-20.305-13.063-31.87c6.853-11.565,18.417,24.842,18.417,24.842
				s-5.996-43.049,6.426-43.798c12.421-0.747,0,43.798,0,43.798s4.604-10.387,9.101-11.029c4.497-0.642,3.212,8.807-4.818,18.056
				H657.933z"/>
		</g>
		<g>
			<path fill="#42438F" d="M659.359,898.009c-0.938-0.957-22.891-23.585-14.924-37.029c1.259-2.125,2.773-3.105,4.496-2.906
				c3.436,0.392,7.471,5.817,11.993,16.123c1.378,3.139,2.598,6.276,3.554,8.873c-1.097-11.27-2.37-33.718,3.833-41.293
				c1.348-1.645,2.991-2.537,4.884-2.651c1.846-0.115,3.362,0.55,4.505,1.965c5.577,6.905,0.536,31.3-2.234,42.716
				c2.066-3.348,4.998-7.08,7.994-7.508c1.412-0.201,2.545,0.326,3.179,1.49c1.808,3.318-0.687,11.777-7.992,20.189l-1.1-0.955
				c7.181-8.27,9.151-16.079,7.812-18.536c-0.34-0.625-0.879-0.861-1.694-0.745c-3.853,0.55-8.352,8.909-9.76,12.084l-1.368-0.491
				c0.028-0.098,2.75-9.911,4.577-20.655c2.389-14.049,2.2-23.272-0.547-26.673c-0.842-1.042-1.914-1.506-3.284-1.426
				c-1.492,0.09-2.75,0.783-3.844,2.119c-7.835,9.568-2.817,46.358-2.765,46.729l-1.416,0.321
				c-2.6-8.181-10.628-29.559-16.492-30.228c-1.114-0.125-2.124,0.593-3.077,2.201c-7.398,12.485,14.489,35.04,14.711,35.266
				L659.359,898.009z"/>
		</g>
	</g>
	<g>
		<g>
			<path fill="#BED5DC" d="M852.4,829.659c0,0-13.278-13.537-8.709-21.247c4.569-7.71,12.279,16.562,12.279,16.562
				s-3.998-28.701,4.283-29.199c8.281-0.498,0,29.199,0,29.199s3.069-6.925,6.068-7.353c2.998-0.429,2.141,5.871-3.212,12.038H852.4
				z"/>
		</g>
		<g>
			<path fill="#42438F" d="M853.351,829.999c-0.038-0.039-3.837-3.933-6.946-8.851c-4.243-6.711-5.253-12.039-3.003-15.836
				c0.84-1.417,1.846-2.072,2.997-1.938c3.89,0.444,8.153,10.568,10.359,16.6c-0.73-7.535-1.563-22.43,2.562-27.465
				c0.898-1.097,1.994-1.692,3.256-1.768c1.233-0.074,2.242,0.367,3.004,1.31c3.719,4.603,0.357,20.868-1.49,28.478
				c1.378-2.232,3.333-4.721,5.33-5.006c0.941-0.134,1.698,0.218,2.12,0.994c1.206,2.212-0.458,7.852-5.328,13.46l-0.734-0.637
				c4.787-5.513,6.101-10.72,5.209-12.358c-0.226-0.416-0.587-0.574-1.129-0.496c-2.57,0.367-5.569,5.94-6.508,8.056l-0.911-0.328
				c0.018-0.065,1.833-6.608,3.051-13.77c1.592-9.367,1.466-15.516-0.366-17.783c-0.561-0.695-1.27-1.002-2.188-0.951
				c-0.995,0.059-1.833,0.522-2.562,1.413c-5.224,6.379-1.879,30.907-1.844,31.154l-0.944,0.214
				c-1.733-5.454-7.087-19.707-10.995-20.153c-0.741-0.087-1.416,0.395-2.051,1.468c-4.933,8.324,9.659,23.361,9.807,23.512
				L853.351,829.999z"/>
		</g>
	</g>
	<g>
		<g>
			<path fill="#BED5DC" d="M832.834,898.657c0,0-13.279-13.537-8.709-21.247c4.569-7.711,12.279,16.562,12.279,16.562
				s-3.999-28.701,4.283-29.199c8.281-0.499,0,29.199,0,29.199s3.07-6.925,6.068-7.354c2.998-0.428,2.141,5.872-3.212,12.038
				H832.834z"/>
		</g>
		<g>
			<path fill="#42438F" d="M833.785,898.997c-0.039-0.039-3.837-3.933-6.946-8.851c-4.243-6.712-5.254-12.04-3.004-15.836
				c0.84-1.417,1.851-2.07,2.998-1.937c3.891,0.444,8.152,10.568,10.358,16.599c-0.731-7.534-1.562-22.428,2.562-27.465
				c0.898-1.097,1.994-1.692,3.256-1.768c1.236-0.073,2.24,0.367,3.004,1.311c3.719,4.603,0.358,20.868-1.49,28.478
				c1.378-2.232,3.332-4.719,5.33-5.005c0.944-0.133,1.697,0.218,2.12,0.993c1.205,2.212-0.459,7.851-5.328,13.46l-0.734-0.637
				c4.787-5.514,6.101-10.72,5.209-12.358c-0.226-0.415-0.587-0.574-1.13-0.496c-2.568,0.367-5.568,5.94-6.507,8.056l-0.912-0.328
				c0.019-0.065,1.834-6.608,3.051-13.77c1.593-9.366,1.467-15.515-0.364-17.783c-0.562-0.694-1.273-1.002-2.19-0.951
				c-0.995,0.059-1.834,0.522-2.563,1.413c-5.224,6.379-1.877,30.907-1.843,31.154l-0.944,0.214
				c-1.732-5.454-7.086-19.706-10.995-20.153c-0.749-0.084-1.416,0.395-2.051,1.468c-4.935,8.327,9.659,23.361,9.807,23.512
				L833.785,898.997z"/>
		</g>
	</g>
	<g>
		<g>
			<path fill="#BED5DC" d="M1018.949,865.885c0,0-13.278-13.538-8.709-21.248c4.57-7.71,12.279,16.562,12.279,16.562
				s-3.998-28.701,4.283-29.199c8.281-0.498,0,29.199,0,29.199s3.07-6.924,6.068-7.353c2.998-0.429,2.142,5.872-3.213,12.038
				H1018.949z"/>
		</g>
		<g>
			<path fill="#42438F" d="M1019.9,866.226c-0.038-0.039-3.837-3.933-6.946-8.851c-4.243-6.712-5.253-12.04-3.004-15.837
				c0.84-1.417,1.849-2.073,2.998-1.938c3.891,0.444,8.153,10.568,10.359,16.6c-0.73-7.534-1.563-22.428,2.562-27.465
				c0.898-1.097,1.994-1.692,3.257-1.768c1.232-0.074,2.24,0.367,3.003,1.31c3.719,4.603,0.358,20.869-1.49,28.478
				c1.378-2.232,3.333-4.72,5.329-5.005c0.945-0.135,1.698,0.218,2.121,0.993c1.205,2.213-0.459,7.852-5.329,13.46l-0.734-0.637
				c4.788-5.513,6.101-10.72,5.209-12.359c-0.226-0.416-0.587-0.574-1.129-0.496c-2.57,0.367-5.569,5.94-6.508,8.056l-0.911-0.327
				c0.018-0.066,1.833-6.608,3.051-13.77c1.593-9.367,1.466-15.515-0.365-17.783c-0.561-0.694-1.27-1.001-2.189-0.951
				c-0.995,0.06-1.833,0.522-2.563,1.414c-5.224,6.379-1.878,30.907-1.843,31.154l-0.944,0.214
				c-1.733-5.454-7.086-19.707-10.995-20.153c-0.739-0.085-1.415,0.395-2.051,1.468c-4.932,8.324,9.659,23.361,9.807,23.512
				L1019.9,866.226z"/>
		</g>
	</g>
	<g>
		<g>
			<path fill="#BED5DC" d="M276.633,873.586c0,0-13.279-13.538-8.709-21.247c4.569-7.71,12.278,16.563,12.278,16.563
				s-3.998-28.701,4.284-29.2c8.281-0.498,0,29.2,0,29.2s3.069-6.925,6.068-7.353c2.998-0.429,2.142,5.872-3.212,12.038H276.633z"/>
		</g>
		<g>
			<path fill="#42438F" d="M277.583,873.926c-0.037-0.039-3.837-3.932-6.946-8.85c-4.243-6.712-5.252-12.04-3.003-15.837
				c0.839-1.417,1.845-2.07,2.997-1.937c3.891,0.444,8.153,10.568,10.359,16.599c-0.73-7.534-1.562-22.428,2.562-27.464
				c0.898-1.097,1.994-1.692,3.256-1.768c1.231-0.077,2.241,0.367,3.004,1.31c3.719,4.603,0.357,20.868-1.49,28.478
				c1.378-2.232,3.332-4.72,5.33-5.006c0.944-0.134,1.697,0.218,2.12,0.994c1.204,2.212-0.459,7.852-5.328,13.46l-0.734-0.637
				c4.787-5.514,6.101-10.72,5.209-12.358c-0.227-0.416-0.586-0.574-1.129-0.496c-2.572,0.367-5.569,5.94-6.507,8.056l-0.913-0.328
				c0.018-0.065,1.833-6.607,3.051-13.77c1.592-9.366,1.466-15.515-0.365-17.782c-0.561-0.695-1.282-1.006-2.189-0.951
				c-0.995,0.06-1.833,0.522-2.563,1.414c-5.224,6.379-1.877,30.906-1.844,31.153l-0.944,0.214
				c-1.732-5.454-7.086-19.706-10.995-20.153c-0.748-0.086-1.416,0.396-2.051,1.468c-4.932,8.324,9.66,23.361,9.808,23.511
				L277.583,873.926z"/>
		</g>
	</g>
</g>
</svg>
