<svg xmlns="http://www.w3.org/2000/svg" viewBox="0 0 1080 1080" xml:space="preserve"><path fill="#DED7E1" d="m672.598 323.76 6.723-1.718 3.447 13.494-6.723 1.717z"/><path fill="#DED7E1" d="m672.744 310.318 5.944 6.085 5.945 6.085-8.242 2.105-8.241 2.105 2.297-8.189zM749.731 413.62a.865.865 0 0 1-.728-.982c.07-.472.538-.767.982-.728 2.785.412 5.636.581 8.467.503a.87.87 0 0 1 .888.84.864.864 0 0 1-.842.887 50.707 50.707 0 0 1-8.767-.52zm-8.526-2.01a58.232 58.232 0 0 1-8.093-3.342.862.862 0 0 1-.384-1.16.862.862 0 0 1 1.159-.385 56.58 56.58 0 0 0 7.853 3.244.865.865 0 0 1-.535 1.643zm25.009.961a.863.863 0 0 1 .722-.985 74.537 74.537 0 0 0 8.345-1.759.864.864 0 1 1 .455 1.667 76.304 76.304 0 0 1-8.537 1.8.861.861 0 0 1-.985-.723zm-40.642-8.736a81.818 81.818 0 0 1-6.952-5.287.862.862 0 0 1-.102-1.217.86.86 0 0 1 1.217-.102 80.259 80.259 0 0 0 6.806 5.175.866.866 0 0 1-.586 1.575.916.916 0 0 1-.383-.144zm57.298 4.358a.863.863 0 0 1 .461-1.132 58.92 58.92 0 0 0 7.585-3.844.86.86 0 0 1 1.185.295.863.863 0 0 1-.294 1.186 60.932 60.932 0 0 1-7.805 3.957.864.864 0 0 1-1.132-.462zm-70.638-15.584a117.288 117.288 0 0 1-5.876-6.435.864.864 0 1 1 1.32-1.118 114.95 114.95 0 0 0 5.788 6.34.865.865 0 0 1-1.232 1.213zm85.493 6.9a.867.867 0 0 1 .11-1.218 55.88 55.88 0 0 0 6.088-5.931.863.863 0 1 1 1.295 1.143 57.61 57.61 0 0 1-6.277 6.115.86.86 0 0 1-1.216-.109zm-96.782-20.157a156.281 156.281 0 0 1-4.991-7.127.865.865 0 0 1 1.442-.953 153.618 153.618 0 0 0 4.936 7.048.867.867 0 0 1-.796 1.375.861.861 0 0 1-.591-.343zm108.375 7.422a.864.864 0 0 1-.254-1.196 62.478 62.478 0 0 0 4.131-7.457.864.864 0 1 1 1.565.733 64.017 64.017 0 0 1-4.247 7.664.86.86 0 0 1-1.195.256zM691.34 364.849a192.04 192.04 0 0 1-4.255-7.583.864.864 0 1 1 1.524-.812 192.443 192.443 0 0 0 4.219 7.514.862.862 0 0 1-.846 1.298.855.855 0 0 1-.642-.417zm125.52 6.405a.864.864 0 0 1-.565-1.085c1.524-4.83 1.928-8.144 1.944-8.282a.863.863 0 1 1 1.716.204c-.043.365-.467 3.7-2.012 8.599a.865.865 0 0 1-1.083.564zm-133.696-21.755a173.358 173.358 0 0 1-3.562-7.955.864.864 0 0 1 1.595-.664 172.127 172.127 0 0 0 3.527 7.875.865.865 0 0 1-1.56.744zM432.31 425.069l-6.976-1.728 3.467-13.998 6.976 1.728z"/><path fill="#DED7E1" d="m435.51 397.194-6.108 6.345-6.108 6.346 8.549 2.117 8.55 2.117-2.442-8.463zM426.796 436.012a.895.895 0 0 0 .834-.666c.734-2.78 1.086-4.37 1.086-4.37a.896.896 0 0 0-1.749-.387 119.86 119.86 0 0 1-1.067 4.3.895.895 0 0 0 .896 1.123zM314.126 545.211a.895.895 0 0 1 .675-1.071 50.605 50.605 0 0 0 8.324-2.663.9.9 0 0 1 1.171.48.895.895 0 0 1-.48 1.171 52.491 52.491 0 0 1-8.62 2.758.897.897 0 0 1-1.07-.675zm16.475-6.55a.896.896 0 0 1 .278-1.236 55.54 55.54 0 0 0 7.001-5.263.895.895 0 0 1 1.184 1.342 57.425 57.425 0 0 1-7.227 5.434.896.896 0 0 1-1.236-.277zm14.746-8.567c-3.187-.175-6.203-.727-8.965-1.642a.894.894 0 0 1-.568-1.131.89.89 0 0 1 1.131-.568c2.611.864 5.471 1.388 8.5 1.553a.896.896 0 0 1-.098 1.788zm8.048-1.19a.895.895 0 0 1 .767-1.006l.674-.097a49.716 49.716 0 0 0 7.835-1.849.898.898 0 0 1 1.127.576.896.896 0 0 1-.576 1.127 51.673 51.673 0 0 1-8.116 1.915s-.705.102-.794.109a.895.895 0 0 1-.917-.775zm-9.281-1.749a.895.895 0 0 1-.104-1.262 64.165 64.165 0 0 0 5.197-7.076.898.898 0 0 1 1.236-.276c.417.265.54.818.276 1.236a66.236 66.236 0 0 1-5.342 7.273.897.897 0 0 1-1.263.105zm26.239-3.378a.894.894 0 0 1 .383-1.206 60.476 60.476 0 0 0 7.46-4.607.896.896 0 0 1 1.046 1.454 62.516 62.516 0 0 1-7.682 4.742.896.896 0 0 1-1.207-.383zm-42.09.447c-2.417-1.823-4.536-4.06-6.297-6.649a.895.895 0 0 1 1.479-1.007 26.293 26.293 0 0 0 5.896 6.228.895.895 0 0 1-1.078 1.428zm56.688-10.575a.897.897 0 0 1 .049-1.265 87.836 87.836 0 0 0 6.155-6.316.895.895 0 0 1 1.341 1.185 89.554 89.554 0 0 1-6.28 6.447.895.895 0 0 1-1.265-.051zm-31.102-1.363a.896.896 0 0 1-.439-1.188 63.544 63.544 0 0 0 3.121-8.212.894.894 0 1 1 1.713.517 65.488 65.488 0 0 1-3.207 8.444.897.897 0 0 1-1.188.439zm-35.888-2.916c-.93-2.805-1.549-5.802-1.839-8.91a.895.895 0 0 1 .807-.974.874.874 0 0 1 .975.807c.278 2.973.869 5.837 1.757 8.514a.895.895 0 1 1-1.7.563zm78.938-8.921a.895.895 0 0 1-.185-1.252 128.26 128.26 0 0 0 5.027-7.291.894.894 0 1 1 1.507.965 129.74 129.74 0 0 1-5.097 7.393.894.894 0 0 1-1.252.185zm-37.72-5.115a.894.894 0 0 1-.765-1.008c.355-2.604.491-5.148.407-7.561a33.585 33.585 0 0 0-.057-1.151.895.895 0 0 1 .833-.953c.479-.046.92.341.953.834.026.4.046.804.06 1.208.088 2.513-.054 5.159-.422 7.864a.895.895 0 0 1-1.009.767zm-42.185-2.967a.894.894 0 0 1-.792-.987 43.912 43.912 0 0 1 1.902-8.883.895.895 0 0 1 1.7.558 42.163 42.163 0 0 0-1.824 8.519.894.894 0 0 1-.986.793zm89.644-6.848a.893.893 0 0 1-.343-1.217 174.287 174.287 0 0 0 4.132-7.853.894.894 0 1 1 1.604.794 175.79 175.79 0 0 1-4.174 7.933.893.893 0 0 1-1.219.343zm-49.59-8.355c-1.063-2.856-2.579-5.26-4.506-7.142a.896.896 0 0 1 1.251-1.281c2.117 2.069 3.776 4.693 4.933 7.799a.896.896 0 0 1-1.678.624zm-34.819-1.691a.896.896 0 0 1-.274-1.236c1.762-2.764 3.829-5.058 6.141-6.82a.895.895 0 1 1 1.086 1.424c-2.145 1.634-4.069 3.773-5.717 6.358a.894.894 0 0 1-1.236.274zm92.407-5.892a.893.893 0 0 1-.458-1.179 220.96 220.96 0 0 0 3.408-8.204.897.897 0 0 1 1.16-.507c.46.181.686.7.507 1.16a223.627 223.627 0 0 1-3.437 8.272.895.895 0 0 1-1.18.458zm-69.369-3.695c-.57-.16-1.159-.297-1.769-.408a19.352 19.352 0 0 0-4.196-.324c-.745.028-1.65.115-2.453.259a.895.895 0 0 1-.316-1.762c.88-.158 1.784-.253 2.707-.286a21.208 21.208 0 0 1 4.583.353 21.8 21.8 0 0 1 1.928.445.896.896 0 0 1-.484 1.723zm75.958-12.884a.895.895 0 0 1-.55-1.14 244.946 244.946 0 0 0 2.778-8.448.895.895 0 1 1 1.709.528 248.545 248.545 0 0 1-2.798 8.51.896.896 0 0 1-1.139.55zM305.296 547.161c.261-.009.522-.02.781-.033a.896.896 0 0 0 .85-.937c-.023-.496-.468-.897-.938-.851-1.441.07-2.923.085-4.403.039-.494-.035-.906.373-.922.867a.895.895 0 0 0 .867.923c1.261.037 2.524.035 3.765-.008z"/><path fill="#F8AE4A" d="M651.783 668.446c0 5.373-40.331 9.729-90.082 9.729-49.751 0-90.082-4.356-90.082-9.729s40.331-9.729 90.082-9.729c49.75 0 90.082 4.356 90.082 9.729z"/><path fill="#F8AE4A" d="M471.618 646.878h180.164v21.569H471.618z"/><path fill="#FBC481" d="M651.783 646.878c0 5.373-40.331 9.729-90.082 9.729-49.751 0-90.082-4.356-90.082-9.729 0-5.373 40.331-9.729 90.082-9.729 49.75 0 90.082 4.355 90.082 9.729z"/><path fill="#F4942E" d="M585.416 662.513c-1.214 0-1.907-.006-1.949-.006-.322-.003-.581-.334-.578-.74.002-.403.263-.729.583-.729.04.004.705.006 1.949.006 6.463 0 27.712-.164 43.8-2.191.311-.052.606.253.637.657.033.403-.201.763-.521.804-16.142 2.034-37.444 2.199-43.921 2.199z"/><path fill="#F8AE4A" d="M651.783 644.499c0 5.373-40.331 9.729-90.082 9.729-49.751 0-90.082-4.356-90.082-9.729s40.331-9.729 90.082-9.729c49.75 0 90.082 4.356 90.082 9.729z"/><path fill="#F8AE4A" d="M471.618 622.931h180.164V644.5H471.618z"/><ellipse fill="#FBC481" cx="561.7" cy="622.931" rx="90.082" ry="9.729"/><path fill="#F4942E" d="M585.432 638.565c-1.225 0-1.924-.006-1.966-.006-.322-.003-.581-.334-.578-.74.002-.403.263-.729.583-.729.046.021.713.006 1.966.006 6.483 0 27.709-.165 43.783-2.191.311-.054.606.254.637.657.033.403-.201.763-.521.804-16.126 2.034-37.405 2.199-43.904 2.199z"/><path fill="#F8AE4A" d="M635.671 621.373c0 5.373-40.331 9.729-90.082 9.729-49.751 0-90.082-4.356-90.082-9.729 0-5.373 40.331-9.729 90.082-9.729 49.751 0 90.082 4.356 90.082 9.729z"/><path fill="#F8AE4A" d="M455.506 599.805H635.67v21.569H455.506z"/><path fill="#FBC481" d="M635.671 599.805c0 5.373-40.331 9.729-90.082 9.729-49.751 0-90.082-4.356-90.082-9.729s40.331-9.729 90.082-9.729c49.751 0 90.082 4.355 90.082 9.729z"/><path fill="#F4942E" d="M569.304 615.44c-1.213 0-1.907-.006-1.949-.006-.322-.003-.58-.335-.578-.74.002-.403.263-.729.583-.729.041-.019.705.006 1.949.006 6.463 0 27.712-.164 43.8-2.191.315-.052.606.253.638.657.033.403-.201.763-.521.804-16.143 2.034-37.445 2.199-43.922 2.199z"/><ellipse fill="#F8AE4A" cx="545.589" cy="597.426" rx="90.082" ry="9.729"/><path fill="#F8AE4A" d="M455.506 575.858H635.67v21.569H455.506z"/><ellipse fill="#FBC481" cx="545.589" cy="575.858" rx="90.082" ry="9.729"/><path fill="#F4942E" d="M569.321 591.492c-1.224 0-1.924-.006-1.966-.006-.322-.003-.58-.334-.578-.74.002-.403.263-.729.583-.729.043.007.712.006 1.966.006 6.483 0 27.709-.165 43.783-2.191.315-.055.606.254.638.657.033.403-.201.763-.521.803-16.128 2.035-37.407 2.2-43.905 2.2z"/><path fill="#F8AE4A" d="M646.359 572.614c0 5.373-40.331 9.729-90.082 9.729-49.751 0-90.082-4.356-90.082-9.729 0-5.373 40.331-9.729 90.082-9.729 49.75 0 90.082 4.355 90.082 9.729z"/><path fill="#F8AE4A" d="M466.194 551.045h180.164v21.569H466.194z"/><path fill="#FBC481" d="M646.359 551.045c0 5.373-40.331 9.729-90.082 9.729-49.751 0-90.082-4.356-90.082-9.729s40.331-9.729 90.082-9.729c49.75 0 90.082 4.356 90.082 9.729z"/><path fill="#F4942E" d="M579.992 566.681c-1.214 0-1.907-.006-1.949-.006-.322-.003-.581-.334-.578-.74.002-.403.263-.729.583-.729.03-.001.703.006 1.949.006 6.463 0 27.711-.164 43.799-2.191.311-.056.606.254.637.657.033.403-.202.763-.521.804-16.142 2.034-37.442 2.199-43.92 2.199z"/><ellipse fill="#F8AE4A" cx="556.276" cy="548.667" rx="90.082" ry="9.729"/><path fill="#F8AE4A" d="M466.194 527.098h180.164v21.569H466.194z"/><path fill="#FBC481" d="M646.359 527.098c0 5.373-40.331 9.729-90.082 9.729-49.751 0-90.082-4.356-90.082-9.729 0-5.373 40.331-9.729 90.082-9.729 49.75 0 90.082 4.356 90.082 9.729z"/><path fill="#F4942E" d="M579.992 542.733c-1.214 0-1.907-.006-1.949-.006-.322-.003-.581-.335-.578-.74.002-.403.263-.729.583-.729.03 0 .703.006 1.949.006 6.463 0 27.711-.164 43.799-2.191.311-.046.606.254.637.657.033.403-.202.763-.521.804-16.142 2.034-37.442 2.199-43.92 2.199z"/><path fill="#F8AE4A" d="M860.144 744.487c0 5.373-40.331 9.729-90.082 9.729-49.751 0-90.082-4.356-90.082-9.729 0-5.373 40.331-9.729 90.082-9.729 49.751 0 90.082 4.356 90.082 9.729z"/><path fill="#F8AE4A" d="M679.98 722.918h180.164v21.569H679.98z"/><path fill="#FBC481" d="M860.144 722.918c0 5.373-40.331 9.729-90.082 9.729-49.751 0-90.082-4.356-90.082-9.729 0-5.373 40.331-9.729 90.082-9.729 49.751 0 90.082 4.356 90.082 9.729z"/><path fill="#F4942E" d="M793.777 738.554c-1.214 0-1.907-.006-1.949-.006-.322-.003-.581-.334-.578-.74.002-.403.263-.729.583-.729.041-.019.705.006 1.949.006 6.463 0 27.712-.164 43.8-2.191.315-.052.606.253.637.657.033.403-.201.763-.521.804-16.141 2.034-37.443 2.199-43.921 2.199z"/><path fill="#F8AE4A" d="M860.144 720.54c0 5.373-40.331 9.729-90.082 9.729-49.751 0-90.082-4.356-90.082-9.729 0-5.373 40.331-9.729 90.082-9.729 49.751 0 90.082 4.356 90.082 9.729z"/><path fill="#F8AE4A" d="M679.98 698.971h180.164v21.569H679.98z"/><path fill="#FBC481" d="M860.144 698.971c0 5.373-40.331 9.729-90.082 9.729-49.751 0-90.082-4.356-90.082-9.729 0-5.373 40.331-9.729 90.082-9.729 49.751 0 90.082 4.356 90.082 9.729z"/><path fill="#F4942E" d="M793.794 714.606c-1.224 0-1.924-.006-1.966-.006-.322-.003-.581-.334-.578-.74.002-.403.263-.729.583-.729.043.007.712.006 1.966.006 6.483 0 27.709-.165 43.783-2.191.315-.055.606.254.637.657.033.403-.201.763-.521.804-16.127 2.034-37.405 2.199-43.904 2.199z"/><ellipse fill="#F8AE4A" cx="780.75" cy="695.727" rx="90.082" ry="9.729"/><path fill="#F8AE4A" d="M690.668 674.159h180.164v21.569H690.668z"/><ellipse fill="#FBC481" cx="780.75" cy="674.159" rx="90.082" ry="9.729"/><path fill="#F4942E" d="M804.466 689.794c-1.214 0-1.907-.006-1.949-.006-.322-.003-.581-.334-.578-.74.002-.403.263-.729.583-.729.03-.001.704.006 1.949.006 6.463 0 27.711-.164 43.799-2.191.311-.056.606.254.638.657.033.403-.202.763-.521.804-16.143 2.034-37.444 2.199-43.921 2.199z"/><path fill="#F8AE4A" d="M870.832 671.78c0 5.373-40.331 9.729-90.082 9.729-49.751 0-90.082-4.356-90.082-9.729 0-5.373 40.331-9.729 90.082-9.729 49.751 0 90.082 4.356 90.082 9.729z"/><path fill="#F8AE4A" d="M690.668 650.212h180.164v21.568H690.668z"/><path fill="#FBC481" d="M870.832 650.212c0 5.373-40.331 9.729-90.082 9.729-49.751 0-90.082-4.356-90.082-9.729 0-5.373 40.331-9.729 90.082-9.729 49.751-.001 90.082 4.355 90.082 9.729z"/><path fill="#F4942E" d="M804.466 665.847c-1.214 0-1.907-.006-1.949-.006-.322-.003-.581-.335-.578-.74.002-.403.263-.729.583-.729.03 0 .704.006 1.949.006 6.463 0 27.711-.164 43.799-2.191.311-.046.606.254.638.657.033.403-.202.764-.521.804-16.143 2.034-37.444 2.199-43.921 2.199z"/><path fill="#F8AE4A" d="M392.538 858.258c0 5.373-40.331 9.729-90.082 9.729s-90.082-4.356-90.082-9.729c0-5.373 40.331-9.729 90.082-9.729s90.082 4.355 90.082 9.729z"/><path fill="#F8AE4A" d="M212.373 836.689h180.165v21.569H212.373z"/><path fill="#FBC481" d="M392.538 836.689c0 5.373-40.331 9.729-90.082 9.729s-90.082-4.356-90.082-9.729c0-5.373 40.331-9.729 90.082-9.729s90.082 4.356 90.082 9.729z"/><path fill="#F4942E" d="M326.171 852.324c-1.214 0-1.907-.006-1.949-.006-.322-.003-.58-.334-.578-.74.002-.403.263-.729.583-.729.041-.019.705.006 1.949.006 6.463 0 27.712-.164 43.8-2.191.315-.052.606.253.638.657.033.403-.201.763-.521.804-16.143 2.034-37.445 2.199-43.922 2.199z"/><ellipse fill="#F8AE4A" cx="302.456" cy="834.311" rx="90.082" ry="9.729"/><path fill="#F8AE4A" d="M212.373 812.742h180.165v21.569H212.373z"/><ellipse fill="#FBC481" cx="302.456" cy="812.742" rx="90.082" ry="9.729"/><path fill="#F4942E" d="M326.188 828.377c-1.224 0-1.924-.006-1.966-.006-.322-.003-.58-.334-.578-.74.002-.403.263-.729.583-.729.043.007.712.006 1.966.006 6.483 0 27.709-.165 43.783-2.191.315-.054.606.254.638.657.033.403-.201.763-.521.804-16.128 2.033-37.407 2.199-43.905 2.199z"/><path fill="#F8AE4A" d="M403.226 809.498c0 5.373-40.331 9.729-90.082 9.729s-90.082-4.356-90.082-9.729c0-5.373 40.331-9.729 90.082-9.729s90.082 4.356 90.082 9.729z"/><path fill="#F8AE4A" d="M223.061 787.929h180.164v21.569H223.061z"/><path fill="#FBC481" d="M403.226 787.929c0 5.373-40.331 9.729-90.082 9.729s-90.082-4.356-90.082-9.729c0-5.373 40.331-9.729 90.082-9.729s90.082 4.356 90.082 9.729z"/><path fill="#F4942E" d="M336.859 803.565c-1.214 0-1.907-.006-1.949-.006-.322-.003-.581-.334-.578-.74.002-.403.263-.729.583-.729.03-.001.704.006 1.949.006 6.463 0 27.711-.164 43.799-2.191.311-.056.606.254.638.657.033.403-.202.763-.521.804-16.143 2.034-37.443 2.199-43.921 2.199z"/><path fill="#F8AE4A" d="M888.927 826.3c0 5.373 40.331 9.729 90.082 9.729 49.751 0 90.082-4.356 90.082-9.729 0-5.373-40.331-9.729-90.082-9.729-49.75 0-90.082 4.356-90.082 9.729z"/><path fill="#F8AE4A" d="M888.927 804.731h180.164V826.3H888.927z"/><path fill="#FBC481" d="M888.927 804.731c0 5.373 40.331 9.729 90.082 9.729 49.751 0 90.082-4.356 90.082-9.729 0-5.373-40.331-9.729-90.082-9.729-49.75 0-90.082 4.356-90.082 9.729z"/><path fill="#F4942E" d="M955.277 820.366c1.224 0 1.924-.006 1.966-.006.322-.003.58-.334.578-.74-.002-.403-.263-.729-.583-.729-.043.007-.712.006-1.966.006-6.483 0-27.709-.165-43.783-2.191-.315-.055-.606.254-.638.657-.033.403.201.763.521.803 16.128 2.035 37.407 2.2 43.905 2.2z"/><ellipse fill="#F8AE4A" cx="968.322" cy="801.487" rx="90.082" ry="9.729"/><path fill="#F8AE4A" d="M878.24 779.918h180.164v21.569H878.24z"/><path fill="#FBC481" d="M878.24 779.918c0 5.373 40.331 9.729 90.082 9.729 49.751 0 90.082-4.356 90.082-9.729 0-5.373-40.331-9.729-90.082-9.729-49.751 0-90.082 4.356-90.082 9.729z"/><path fill="#F4942E" d="M944.606 795.554c1.214 0 1.907-.006 1.949-.006.322-.003.581-.334.578-.74-.002-.403-.263-.729-.583-.729-.03-.001-.703.006-1.949.006-6.463 0-27.711-.164-43.799-2.191-.311-.056-.606.254-.638.657-.033.403.202.763.521.804 16.143 2.034 37.443 2.199 43.921 2.199z"/><ellipse fill="#F8AE4A" cx="100.991" cy="856.21" rx="90.082" ry="9.729"/><path fill="#F8AE4A" d="M10.908 834.641h180.165v21.569H10.908z"/><ellipse fill="#FBC481" cx="100.991" cy="834.641" rx="90.082" ry="9.729"/><path fill="#F4942E" d="M77.274 850.277c1.214 0 1.907-.006 1.949-.006.322-.003.581-.334.578-.74-.002-.403-.263-.729-.583-.729-.029-.001-.703.006-1.949.006-6.463 0-27.711-.164-43.799-2.191-.311-.056-.606.254-.637.657-.033.403.202.763.521.804 16.142 2.034 37.443 2.199 43.92 2.199z"/><ellipse transform="rotate(-76.962 994.441 507.31)" fill="#D0C8D6" cx="994.459" cy="507.288" rx="29.5" ry="21.989"/><ellipse transform="rotate(-76.962 991.396 506.6)" fill="#E3DAEA" cx="991.404" cy="506.58" rx="29.5" ry="21.989"/><ellipse transform="rotate(-76.962 991.387 506.601)" fill="#B6B0C0" cx="991.404" cy="506.58" rx="24.439" ry="18.217"/><path fill="#E3DAEA" d="M990.749 520.959c-3.798-.073-8.036-2.363-10.104-4.928a1.477 1.477 0 1 1 2.297-1.853c1.836 2.274 6.127 4.354 9.115 3.722 1.63-.343 2.677-1.45 3.201-3.385.97-3.583-1.81-6.293-4.75-9.162-2.507-2.445-5.1-4.973-5.169-8.205-.032-1.494.527-2.841 1.618-3.892 3.454-3.328 11.446-2.967 12.349-2.91a1.474 1.474 0 0 1 1.386 1.558 1.477 1.477 0 0 1-1.501 1.391c-2.149-.117-8.044.021-10.186 2.088-.502.483-.729 1.024-.713 1.701.042 2.024 2.1 4.031 4.276 6.155 3.264 3.182 6.962 6.789 5.539 12.045-1.033 3.82-3.531 5.101-5.442 5.503a8.418 8.418 0 0 1-1.916.172z"/><path fill="#E3DAEA" d="M986.245 526.756a1.477 1.477 0 0 1-1.414-1.798l8.58-38.342a1.483 1.483 0 0 1 1.763-1.119 1.477 1.477 0 0 1 1.118 1.763l-8.58 38.342a1.476 1.476 0 0 1-1.467 1.154z"/><ellipse transform="rotate(-19.144 130.38 483.255)" fill="#D0C8D6" cx="130.352" cy="483.268" rx="23.424" ry="31.426"/><ellipse transform="rotate(-19.144 133.246 482.261)" fill="#E3DAEA" cx="133.217" cy="482.273" rx="23.424" ry="31.426"/><ellipse transform="rotate(-19.144 133.244 482.256)" fill="#B6B0C0" cx="133.217" cy="482.273" rx="19.406" ry="26.034"/><path fill="#E3DAEA" d="M133.157 497.542c-1.556 0-3.042-.218-4.277-.643a1.571 1.571 0 0 1-.977-1.997 1.568 1.568 0 0 1 1.997-.977c2.944 1.009 7.989.448 10.33-1.818 1.275-1.234 1.592-2.826.965-4.869-1.159-3.78-5.201-4.646-9.482-5.563-3.647-.782-7.419-1.591-9.315-4.464-.878-1.329-1.136-2.861-.75-4.427 1.226-4.962 8.64-9.168 9.482-9.631a1.572 1.572 0 0 1 1.517 2.754c-1.953 1.078-7.188 4.551-7.947 7.632-.178.722-.076 1.337.322 1.939 1.188 1.801 4.181 2.443 7.349 3.121 4.748 1.017 10.13 2.171 11.829 7.717 1.236 4.031-.288 6.602-1.785 8.05-2.234 2.164-5.911 3.176-9.258 3.176z"/><path fill="#E3DAEA" d="M139.2 503.616a1.574 1.574 0 0 1-1.482-1.046l-14.021-39.436a1.572 1.572 0 0 1 2.963-1.053l14.021 39.437a1.572 1.572 0 0 1-1.481 2.098z"/><path fill="#D0C8D6" d="M945.183 474.488c2.434 11.621-2.615 22.512-11.277 24.327-8.662 1.814-17.657-6.135-20.091-17.756-2.434-11.621 2.614-22.512 11.276-24.327 8.663-1.815 17.658 6.135 20.092 17.756z"/><ellipse transform="rotate(-11.829 931.578 477.363)" fill="#E3DAEA" cx="931.53" cy="477.348" rx="16.024" ry="21.498"/><path fill="#B6B0C0" d="M944.523 474.626c2.017 9.627-2.166 18.65-9.342 20.153-7.176 1.503-14.628-5.083-16.645-14.71-2.017-9.627 2.166-18.65 9.342-20.153 7.176-1.503 14.628 5.083 16.645 14.71z"/><path fill="#E3DAEA" d="M930.158 487.703c-1.056-.136-2.045-.413-2.846-.809a1.074 1.074 0 0 1-.489-1.44 1.073 1.073 0 0 1 1.44-.489c1.91.941 5.382 1 7.167-.334.973-.726 1.326-1.779 1.079-3.219-.457-2.666-3.124-3.606-5.949-4.601-2.407-.849-4.896-1.726-5.931-3.841-.48-.978-.522-2.04-.123-3.069 1.264-3.26 6.662-5.468 7.273-5.709a1.074 1.074 0 1 1 .789 2.001c-1.419.561-5.274 2.461-6.057 4.486-.183.474-.168.901.049 1.344.649 1.325 2.624 2.022 4.715 2.758 3.133 1.104 6.684 2.356 7.354 6.267.487 2.843-.771 4.454-1.912 5.307-1.704 1.273-4.287 1.639-6.559 1.348z"/><path fill="#E3DAEA" d="M933.73 492.351a1.076 1.076 0 0 1-.914-.839l-6.078-27.98a1.075 1.075 0 1 1 2.102-.456l6.078 27.98a1.076 1.076 0 0 1-1.188 1.295z"/><path fill="#F08463" d="M323.033 604.033s6.143 9.696 7.205 14.507c1.061 4.811-1.698 6.018-1.698 6.018s5.095-1.958 4.671.54c-.425 2.499-10.463 5.875-10.463 5.875l-6.733-26.94-3.458-12.269 12.069 3.557-1.593 8.712zM315.421 751.191l-.173 13.057 23.74-.607.161-12.136zM260.653 748.995l-.173 13.057 21.977-.631.16-12.135z"/><path fill="#6B82BB" d="M250.012 751.473c-.435 1.755 39.327 3.589 40.661 2.312 1.32-1.278 6.378-77.861 6.378-77.861s.042.224.14.66c.674 3.327 3.678 18.628 4.576 30.363 1.011 13.237 5.025 46.745 5.025 46.745l40.035.533s-1.544-33.956-10.261-75.1c-5.011-23.667-9.896-42.477-13.406-54.998-3.186-11.342-5.236-17.533-5.236-17.533s-48.724-25.674-52.247-.07c-1.15 8.338-15.23 143.209-15.665 144.949z"/><path fill="#5876AF" d="M297.191 676.584c.674 3.327 3.678 18.628 4.576 30.363 1.011 13.237 5.025 46.745 5.025 46.745l40.035.533s-1.544-33.956-10.261-75.1c-5.011-23.667-9.896-42.477-13.406-54.998l-20.916 8.072-1.979 1.6c.001-.001-2.386 28.565-3.074 42.785z"/><path fill="#405385" d="M257.391 753.317c-.271-.023-.441-.229-.42-.461l12.458-132.413a.418.418 0 0 1 .459-.38.423.423 0 0 1 .38.459L257.81 752.936a.422.422 0 0 1-.419.381zM265.52 753.949c-.266-.019-.439-.222-.42-.454l10.952-138.678c.018-.233.228-.414.452-.387a.42.42 0 0 1 .387.452L265.939 753.56a.42.42 0 0 1-.419.389zM273.526 754.206c-.264-.018-.438-.221-.421-.452l11.093-148.806c.017-.231.23-.393.452-.389a.422.422 0 0 1 .389.452l-11.093 148.806a.422.422 0 0 1-.42.389zM281.101 754.206c-.264-.018-.438-.219-.421-.452l11.004-149.153a.437.437 0 0 1 .451-.389.421.421 0 0 1 .389.451L281.52 753.817a.42.42 0 0 1-.419.389zM289.572 754.206c-.262-.017-.437-.218-.421-.45l10.333-147.61c.016-.232.233-.399.45-.391a.421.421 0 0 1 .391.45l-10.333 147.609a.424.424 0 0 1-.42.392zM306.976 630.518a.421.421 0 0 1-.421-.404l-.984-25.118a.421.421 0 0 1 .404-.437.418.418 0 0 1 .437.404l.984 25.119a.421.421 0 0 1-.404.437l-.016-.001zM313.974 628.092a.421.421 0 0 1-.421-.402l-1.025-22.693a.422.422 0 0 1 .402-.44c.26.012.43.17.44.402l1.025 22.693a.422.422 0 0 1-.402.44h-.019zM247.232 787.423c.758.997 2.892 1.811 13.251 2.892 10.837 1.123 23.232-.098 24.776-.744 1.418-.59 2.19-2.85 2.316-4.997.014-.197.028-.379.028-.576.014-.393-.056-.856-.154-1.39a23.452 23.452 0 0 0-.407-1.755c-.618-2.513-1.6-5.545-1.572-7.075l.014-1.642c.028-1.642-.59-12.535-2.092-13.855-1.516-1.348-22.867-.126-22.867-.126s-1.881.463-2.667 2.737c-.8 2.302-2.007 7.229-2.779 9.503-.59 1.713-2.864 4.997-4.001 6.598a12.07 12.07 0 0 0-1.207 2.091c-.337.772-.786 1.853-1.235 2.976-.056.112-.084.225-.14.337-.87 2.233-1.628 4.521-1.264 5.026zM312.59 782.959c0 .084.014.168.014.253.168 2.878.435 5.138.842 5.826 1.376 2.344 61.947 1.432 63.379.842.632-.267.66-2.836.014-5.769-.056-.225-.112-.449-.168-.688-.912-3.608-2.807-7.44-5.811-7.987-5.657-1.025-10.051-3.467-10.051-3.467l-19.554-12.395s-26.91-1.235-27.008.407c-.098 1.655-2.05 15.931-1.657 22.978z"/><path fill="#405385" d="M265.596 622.792a.42.42 0 0 1-.13-.822c7.826-2.543 11.639-8.69 11.677-8.751a.42.42 0 1 1 .719.437c-.159.263-4.001 6.472-12.136 9.115a.393.393 0 0 1-.13.021z"/><path fill="#F08463" d="M301.573 535.846s29.651 16.31 36.232 43.752c4.155 17.323-14.772 26.932-14.772 26.932l-7.643-12.101-13.817-58.583z"/><path fill="#5ABBDE" d="M301.573 535.846h-28.06c-2.597 0-5.956 1.218-6.586 3.354-4.403 14.935-4.471 65.814-1.251 67.33 3.754 1.767 46.908.605 52.248.057 0 0-4.88-41.037-5.9-46.953-2.34-13.57-10.451-23.788-10.451-23.788z"/><path fill="#F08463" d="M271.311 536.085s-40.659 14.531-40.659 40.862c0 21.446 26.314 35.373 26.314 35.373l7.775-16.041s-8.081-13.518-8.081-15.383c0-1.865 9.421-10.386 9.421-10.386l5.23-34.425z"/><path fill="#F08463" d="M264.742 596.278s7.762 14.284 7.969 18.318-7.419 18.477-12.231 17.514c-2.637-.527-.037-2.654-.037-2.654s-1.961.212-3.023-.212c-1.061-.425 1.274-4.183 1.274-4.183s-6.074-4.946-3.462-16.345c2.611-11.398 9.51-12.438 9.51-12.438z"/><path fill="#020203" d="M260.441 629.878a.42.42 0 0 1-.34-.668l5.616-7.747a.42.42 0 1 1 .681.495l-5.616 7.747a.42.42 0 0 1-.341.173zM258.694 625.483a.422.422 0 0 1-.376-.609l1.38-2.754a.421.421 0 1 1 .753.377l-.825 1.648 1.646-.795a.42.42 0 0 1 .562.196.42.42 0 0 1-.196.562l-2.759 1.334a.455.455 0 0 1-.185.041z"/><path fill="#F8B169" d="M277.454 767.795h-13.216a.421.421 0 0 1 0-.842h13.216a.421.421 0 0 1 0 .842zM278.251 773.691h-14.925a.421.421 0 0 1 0-.842h14.925a.421.421 0 0 1 0 .842zM343.053 766.79a.42.42 0 0 1-.406-.311.423.423 0 0 1 .297-.517l6.264-1.686a.422.422 0 0 1 .219.814l-6.264 1.686a.42.42 0 0 1-.11.014zM346.185 770.907a.42.42 0 0 1-.164-.809l7.379-3.112a.422.422 0 0 1 .552.225.42.42 0 0 1-.224.551l-7.379 3.112a.436.436 0 0 1-.164.033z"/><path fill="#020203" d="M289.385 511.145s9.061.433 9.574-8.257c.546-9.251-8.013-10.138-11.648-6.398s-2.962 7.545-2.962 7.545-2.533-2.284-5.297.521c-2.028 2.059-.982 5.424-.982 5.424s-4.673-.18-4.238 3.901c.436 4.081 3.354 6.152 3.354 6.152l12.199-8.888z"/><path fill="#F08463" d="m281.101 527.144.942 9.628s2.007 2.598 7.684 2.505c4.229-.069 5.61-1.162 5.61-1.162l-1.062-4.819-1.042-4.699-10.389-1.242-1.743-.211z"/><path fill="#020203" d="M282.844 527.354c.05.26.18.561.371.902 2.625 4.599 8.616 5.059 11.06 5.039l-1.042-4.699-10.389-1.242z"/><path fill="#F08463" d="M293.233 506.441s6.234 11.577 4.898 18.478c-1.336 6.902-7.57 6.345-11.354 5.343-3.785-1.002-5.677-3.117-5.677-3.117s-3.34 1.447-5.9-1.558-1.447-6.79.445-7.792c1.892-1.002 4.341.223 4.341.223l-2.115-3.339c.001 0 6.234-18.367 15.362-8.238z"/><path fill="#020203" d="M280.101 523.289a.414.414 0 0 1-.21-.058l-4.643-2.694a.42.42 0 1 1 .422-.728l4.643 2.694a.42.42 0 0 1 .153.575.419.419 0 0 1-.365.211z"/><path fill="#020203" d="M276.143 523.622a.42.42 0 0 1-.395-.278.42.42 0 0 1 .252-.539l2.784-1.014a.42.42 0 1 1 .287.791l-2.784 1.015a.424.424 0 0 1-.144.025zM293.629 521.941a.42.42 0 0 1-.378-.606c1.537-3.147-1.291-5.71-1.412-5.817a.42.42 0 0 1 .558-.631c.035.031 3.433 3.089 1.611 6.819a.423.423 0 0 1-.379.235zM295.331 515.611a.42.42 0 0 1-.393-.271l-.818-2.149a.422.422 0 0 1 .787-.301l.818 2.149a.422.422 0 0 1-.394.572zM289.25 516.326a.42.42 0 0 1-.393-.271l-.818-2.15a.422.422 0 0 1 .787-.301l.818 2.149a.422.422 0 0 1-.394.573z"/><path fill="#020203" d="M294.513 509.063s-1.235-1.833-3.638-1.615c-2.403.219-3.64 2.047-3.64 2.047s1.449 3.941-1.606 6.409c-3.056 2.468-5.642 2.114-5.642 2.114l-2.451-.613-2.076-3.291 6.13-8.056 8.412-5.549 4.921 3.661-.41 4.893zM291.63 524.408c-.827 0-2.266-.237-3.151-1.727a.42.42 0 1 1 .724-.43c.964 1.622 2.826 1.293 2.903 1.279a.417.417 0 0 1 .492.335.42.42 0 0 1-.332.492c-.03.006-.275.051-.636.051z"/><path fill="#5ABBDE" d="M294.922 535.846s9.172-3.351 22.518 6.475 20.96 25.735 20.96 25.735l-28.492 11.217-14.986-43.427zM281.101 535.846s-12.422-3.351-26.522 6.475c-14.1 9.826-22.055 19.652-22.055 19.652l25.267 19.808 16.845-7.58 6.465-38.355z"/><path fill="#FFF" d="M283.49 544.713c-.262 0-.521-.038-.775-.119-.607-.195-1.071-.601-1.381-1.206-1.137-2.224.248-6.563.308-6.746a.421.421 0 0 1 .675-.19c2.276 1.96 4.86 2.487 7.176 2.474a.43.43 0 0 1 .204-.07.412.412 0 0 1 .243.057c2.923-.135 5.179-1.162 5.22-1.181a.422.422 0 0 1 .508.12c.219.275 2.122 2.735 1.76 4.433-.11.521-.428.931-.916 1.185-2.036 1.055-5.557-2.308-6.739-3.532-.923 1.25-3.746 4.775-6.283 4.775zm-1.219-7.213c-.328 1.226-.942 4.03-.186 5.505.206.404.497.661.888.787 1.861.605 4.521-2.254 5.883-4.033-2.118-.068-4.462-.636-6.585-2.259zm8.445 2.198c1.718 1.702 4.247 3.625 5.405 3.025.269-.14.422-.334.481-.613.213-.994-.81-2.664-1.404-3.481-.674.268-2.363.866-4.482 1.069zM314.937 577.715a.42.42 0 0 1-.414-.348l-1.988-11.111a.422.422 0 0 1 .341-.489.428.428 0 0 1 .489.341l1.988 11.111a.422.422 0 0 1-.416.496zM263.647 579.693a.423.423 0 0 1-.406-.533c.073-.263 1.819-6.457 4.366-7.722.577-.287 1.158-.318 1.726-.093.685.272.882.74.925 1.084.28 2.204-5.251 6.37-6.363 7.182a.406.406 0 0 1-.248.082zm4.932-7.652a1.35 1.35 0 0 0-.597.151c-1.483.737-2.827 3.875-3.537 5.945 2.324-1.832 5.124-4.454 4.978-5.601-.016-.122-.075-.279-.401-.408a1.2 1.2 0 0 0-.443-.087z"/><path fill="#FFF" d="M263.647 579.693a.418.418 0 0 1-.262-.091l-26.101-20.734a.421.421 0 0 1 .523-.66l26.102 20.734a.422.422 0 0 1-.262.751zM313.944 572.159a.42.42 0 0 1-.161-.811l21.153-8.762a.422.422 0 0 1 .322.778l-21.153 8.762a.418.418 0 0 1-.161.033z"/><path fill="#020203" d="M294.922 511.39h-1.8a.421.421 0 0 1 0-.842h1.8a.422.422 0 0 1 0 .842zM287.075 512.328a.422.422 0 0 1-.078-.836l2.457-.468a.425.425 0 0 1 .493.335.423.423 0 0 1-.335.493l-2.457.468a.368.368 0 0 1-.08.008z"/><path fill="#F08463" d="M272.715 615.549s-3.284 15.126-6.345 16.607c-3.061 1.482-3.431-1.556-3.431-1.556l9.776-15.051z"/><path fill="#020203" d="M263.985 631.394a.422.422 0 0 1-.345-.662l7.063-10.12a.423.423 0 0 1 .691.483l-7.063 10.12a.424.424 0 0 1-.346.179z"/><path fill="#425180" d="M267.17 600.032s-5.47 3.269-8.476 4.947c-3.709 2.07-7.531 3.708-7.531 3.708l3.416 3.633 14.93-6.579-2.339-5.709z"/><circle fill="#F8B169" cx="262.939" cy="604.979" r="4.245"/><path fill="#B2769B" d="M260.446 604.979a2.493 2.493 0 1 0 4.986 0 2.493 2.493 0 0 0-4.986 0z"/><path fill="#FFF" d="M262.938 606.596a.421.421 0 0 1-.421-.421v-1.544c0-.232.188-.421.421-.421h1.482a.421.421 0 0 1 0 .842h-1.061v1.123a.42.42 0 0 1-.421.421z"/><path fill="#EA6658" d="M321.514 579.424c-2.229 0-5.863-1.393-6.733-1.74a.421.421 0 0 1 .041-.796c.223-.064 5.492-1.539 7.596-.258.484.295.783.707.889 1.227.13.635-.123 1.003-.358 1.199-.313.262-.821.368-1.435.368zm-5.144-2.045c2.441.857 5.375 1.585 6.04 1.032.038-.032.129-.108.073-.385-.058-.285-.222-.506-.501-.676-1.149-.699-3.805-.352-5.612.029zM253.89 581.476c-2.306 0-5.184-.364-5.407-2.152-.075-.603.224-.91.408-1.039 1.409-.989 6.451 1.462 7.962 2.235a.422.422 0 0 1-.142.793c-.298.036-1.46.163-2.821.163zm-4.056-2.601c-.205 0-.362.032-.459.1-.026.019-.08.056-.056.245.16 1.282 3.344 1.491 5.766 1.378-2.1-.966-4.252-1.723-5.251-1.723z"/><path fill="#344971" d="M315.402 754.206a.42.42 0 0 1-.417-.367c-.032-.252-3.228-25.367-6.14-44.252-3.232-20.963-9.944-56.24-10.012-56.595a.422.422 0 0 1 .335-.492.43.43 0 0 1 .493.336c.067.354 6.782 35.646 10.016 56.622 2.914 18.897 6.111 44.023 6.143 44.274a.421.421 0 0 1-.365.471c-.017.001-.035.003-.053.003zM324.079 754.206a.42.42 0 0 1-.418-.377c-.032-.302-3.167-30.311-7.481-52.65-4.315-22.341-16.278-65.039-16.399-65.469a.423.423 0 0 1 .292-.52.425.425 0 0 1 .52.292c.12.429 12.093 43.162 16.414 65.537 4.32 22.375 7.461 52.421 7.492 52.721a.421.421 0 0 1-.376.463c-.015.003-.03.003-.044.003zM333.234 754.206a.421.421 0 0 1-.417-.366c-.043-.33-4.375-33.313-9.152-58.433-4.773-25.1-18.504-63.904-18.643-64.292a.422.422 0 0 1 .794-.282c.138.39 13.891 39.254 18.677 64.418 4.781 25.144 9.116 58.15 9.159 58.48a.422.422 0 0 1-.363.473l-.055.002zM341.08 753.949a.42.42 0 0 1-.418-.38c-.034-.345-3.481-34.897-7.84-58.007-4.357-23.094-20.192-66.639-20.351-67.075a.422.422 0 0 1 .791-.289c.16.438 16.017 44.046 20.388 67.208 4.367 23.146 7.816 57.734 7.85 58.081a.422.422 0 0 1-.377.461l-.043.001zM334.498 670.014a.42.42 0 0 1-.411-.333c-3.354-15.824-15.03-43.328-15.147-43.604a.42.42 0 1 1 .774-.33c.118.277 11.826 27.856 15.196 43.759a.422.422 0 0 1-.412.508z"/><path fill="#405385" d="m297.464 675.964-.839-.08s1.208-12.555 1.939-19.902c.681-6.84 1.299-22.766 1.305-22.926a.423.423 0 0 1 .273-.378l19.037-7.16a.42.42 0 1 1 .296.788l-18.775 7.062c-.086 2.168-.664 16.334-1.298 22.696-.731 7.347-1.938 19.9-1.938 19.9z"/><path fill="#FFF" d="M312.605 783.212c.168 2.878.435 5.138.842 5.826 1.376 2.344 61.947 1.432 63.379.842.632-.267.66-2.836.014-5.769-4.773.098-23.793.505-39.431.505-13.125-.001-21.323-.913-24.804-1.404zM247.232 787.423c.758.997 2.892 1.811 13.251 2.892 10.837 1.123 23.232-.098 24.776-.744 1.418-.59 2.19-2.85 2.316-4.997-3.102.435-11.595 1.432-20.888 1.067-8.83-.365-15.469-2.316-18.192-3.243-.869 2.232-1.627 4.52-1.263 5.025z"/><path fill="#020203" d="M83.891 563.003s-9.713 1.233-14.221 11.669c-4.508 10.437 7.11 18.796 7.11 18.796l40.436-1.982v-16.813l-33.325-11.67z"/><path fill="#F08463" d="m91.032 572.53-.029 10.098s1.813 2.908 7.719 3.406c4.4.37 5.949-.62 5.949-.62l-.599-5.116-.59-4.989-10.661-2.378-1.789-.401z"/><path fill="#020203" d="M92.82 572.931c.025.276.129.602.291.975 2.245 5.051 8.419 6.157 10.961 6.392l-.59-4.989-10.662-2.378z"/><path fill="#F08463" d="M105.8 552.297s5.263 12.677 3.153 19.706-8.526 5.798-12.352 4.361c-3.826-1.437-5.57-3.832-5.57-3.832s-3.62 1.154-5.965-2.236c-2.345-3.39-.792-7.204 1.278-8.047s4.486.686 4.486.686l-1.847-3.69c-.001 0 8.396-18.425 16.817-6.948z"/><path fill="#020203" d="M90.441 568.404a.419.419 0 0 1-.246-.079l-4.54-3.285a.42.42 0 0 1 .494-.683l4.54 3.285a.42.42 0 0 1-.248.762z"/><path fill="#020203" d="M86.295 568.337a.42.42 0 0 1-.104-.829l2.998-.763a.418.418 0 0 1 .512.304.42.42 0 0 1-.304.512l-2.998.763a.47.47 0 0 1-.104.013zM105.395 566.773c-.295-.04-.452-.256-.417-.486.471-3.017-1.5-4.665-1.52-4.681a.422.422 0 0 1 .533-.653c.097.079 2.363 1.975 1.819 5.464a.42.42 0 0 1-.415.356zM107.32 556.624a.417.417 0 0 1-.165-.034l-1.918-.819a.42.42 0 1 1 .331-.774l1.918.819a.422.422 0 0 1-.166.808zM98.692 558.278a.422.422 0 0 1-.214-.785l3.535-2.064a.425.425 0 0 1 .577.151.423.423 0 0 1-.151.577l-3.535 2.064a.43.43 0 0 1-.212.057z"/><path fill="#F08463" d="M122.565 577.803s-4.737-16.667-7.226-16.477c-5.002.382-7.409 5.253-8.413 7.07-1.005 1.818 0 4.131 0 4.131s-.978 1.227 0 2.018c.978.791 3.787-.889 3.787-.889s-2.478 12.42 4.792 13.907 7.06-9.76 7.06-9.76z"/><path fill="#020203" d="M106.926 571.934a.373.373 0 0 1-.099-.012c-.523-.125-.776-.424-.895-.652-.242-.46-.207-1.077.106-1.887.515-1.337 1.483-2.493 2.797-3.343l3.301-2.134a.421.421 0 1 1 .458.708l-3.301 2.134c-1.165.753-2.019 1.769-2.47 2.939-.284.737-.213 1.064-.145 1.193a.364.364 0 0 0 .169.161l5.259-4.121a.422.422 0 0 1 .52.664l-5.439 4.262a.43.43 0 0 1-.261.088z"/><path fill="#405385" d="M108.112 623.243s11.403-10.067 9.822-17.44c-1.581-7.372-7.245-16.071-7.245-16.071l13.06-13.118s14.961 20.195 19.184 37.881c4.223 17.686-.945 26.553-13.277 24.817-11.089-1.562-21.544-16.069-21.544-16.069z"/><path fill="#F8B169" d="M114.549 590.694c-1.054-.069-2.862-.679-2.938-.705a.42.42 0 1 1 .27-.798c.018.006 1.779.601 2.67.66.265-.138.556-1.577.591-3.015a.423.423 0 0 1 .58-.379c.024.008 2.459.987 3.81.044.987-.692 1.084-3.696.914-5.428a.421.421 0 0 1 .665-.383c1.128.814 2.631 1.513 2.985 1.216.339-.286.09-2.3-.535-4.31a.422.422 0 0 1 .805-.249c.314 1.01 1.261 4.37.273 5.204-.781.658-2.312-.086-3.298-.694.062 1.498-.001 4.405-1.328 5.334-1.284.897-3.141.513-4.058.237-.06.907-.25 2.495-.84 3.034a.823.823 0 0 1-.566.232z"/><path fill="#F08463" d="m89.622 812.358-.026-13.108 24.482-.876.868 18.069-12.093 3.125z"/><path fill="#81AADB" d="M76.648 800.157s45.621.533 46.422-1.334c.786-1.853 3.902-35.164 4.773-70.833.632-25.829-3.818-50.731-7.58-66.804-2.246-9.588-4.239-16.045-4.759-17.673-.084-.267-.126-.407-.126-.407l-19.596 3.215-.309 2.513-1.684 13.49-17.141 137.833z"/><path fill="#F08463" d="m40.545 800.951 4.51-9.551 23.61 7.694-6.367 15.121-12.734-1.592z"/><path fill="#94B3DF" d="m93.338 649.396.449 12.928.407 11.553 26.067-12.69c-2.246-9.588-4.239-16.045-4.759-17.673l-20.031 5.32-2.133.562z"/><path fill="#94B3DF" d="M67.869 643.108s-9.815 18.304-8.489 44.833c1.326 26.528 3.449 35.813 3.449 35.813S35.77 789.013 36.3 790.604c.531 1.592 39.8 17.799 42.453 16.473 2.653-1.326 23.991-59.143 25.584-72.696 3.774-32.116-7.666-85.146-7.666-85.146l-28.802-6.127z"/><path fill="#FFF" d="M94.545 667.485c-4.615 0-7.02-5.05-7.664-6.642-1.473.533-4.001.717-5.471-1.664-2.038-3.301 2.961-7.777 3.174-7.965a.468.468 0 0 1 .62.699c-.047.041-4.624 4.141-2.999 6.775 1.613 2.612 4.61 1.179 4.736 1.116a.47.47 0 0 1 .65.274c.025.075 2.508 7.453 8.082 6.358 1.42-.278 2.496-.962 3.195-2.033 1.592-2.436.796-6.114.788-6.151a.466.466 0 0 1 .103-.408.489.489 0 0 1 .391-.159c2.066.171 7.512.07 7.941-2.4.426-2.459-4.075-4.049-5.846-4.455a.467.467 0 1 1 .208-.91c.295.067 7.223 1.694 6.559 5.524-.564 3.252-6.409 3.285-8.339 3.208.178 1.234.389 4.099-1.021 6.259-.843 1.291-2.121 2.114-3.801 2.444-.452.088-.889.13-1.306.13z"/><path fill="#405385" d="M121.187 621.624s-1.325 5.038-1.325 6.1c0 1.062-1.488 15.799-2.287 17.924-.788 2.113-8.213 8.225-23.875 7.163-15.65-1.062-25.726-2.925-28.113-5.575-2.388-2.65.962-53.474 4.938-58.249s14.588-5.038 14.588-5.038-.8-2.65 1.325-3.713c2.125-1.062 9.55 2.387 13.537 2.65 3.975.263 5.563-1.062 7.163-.788 1.588.263 2.113 3.713 2.113 3.713s5.444 3.45 9.956 14.588c4.498 11.137 1.98 21.225 1.98 21.225z"/><path fill="#F8B169" d="M117.864 625.567a.421.421 0 0 1-.371-.619c.038-.072 3.825-7.277 3.642-15.533-.182-8.243-6.465-16.924-6.529-17.01a.422.422 0 0 1 .68-.498c.265.363 6.503 8.984 6.691 17.488.188 8.483-3.702 15.875-3.741 15.948a.421.421 0 0 1-.372.224z"/><path fill="#B2769B" d="M90.121 836.302c-1.806-.064-3.245-1.593-3.272-3.482-.108-7.466-.207-24.75 1.184-24.77 1.775-.025 18.588 5.044 18.588 5.044s.361-10.352 7.741-8.599c5.663 1.345 12.295 7.831 15.075 10.777a6.388 6.388 0 0 0 3.221 1.861c5.275 1.211 19.796 5.229 20.111 12.82.385 9.28-3.434 8.273-5.209 8.298-1.524.02-45.122-1.514-57.439-1.949zM31.574 823.591c-1.53-.887-2.055-2.9-1.192-4.581 3.413-6.641 10.251-21.946 11.462-21.323 1.545.795 14.883 13.007 14.883 13.007s5.174-8.973 10.727-4.029c4.261 3.794 6.944 12.573 7.962 16.452a6.221 6.221 0 0 0 1.909 3.125c3.988 3.497 14.646 13.727 11.353 20.574-4.026 8.37-6.852 5.723-8.398 4.929-1.327-.682-38.27-22.102-48.706-28.154z"/><path fill="#020203" d="M100.672 562.129a.422.422 0 0 1-.407-.312l-.625-2.317a.417.417 0 0 1 .034-.306l.625-1.188a.42.42 0 1 1 .746.392l-.548 1.042.582 2.158a.42.42 0 0 1-.407.531zM107.064 561.701a.422.422 0 0 1-.407-.312l-.626-2.318a.42.42 0 0 1 .02-.277l.639-1.477a.421.421 0 0 1 .773.335l-.581 1.342.587 2.176a.42.42 0 0 1-.405.531z"/><path fill="#020203" d="m90.829 562.935 2.752 3.277-1.001-4.389s7.315-2.682 9.566-6.923 1.669-4.78 1.669-4.78l1.984 2.177s2.155-7.852-9.927-8.757-12.347 9.26-12.347 9.26-3.726 1.346-3.194 6.581 3.581 6.83 3.581 6.83 1.395-5.437 6.917-3.276z"/><path fill="#FFF" d="M67.589 666.923a.42.42 0 0 1-.124-.824c.335-.103 8.204-2.639 8.756-11.941.014-.232.228-.391.445-.396a.422.422 0 0 1 .395.446c-.587 9.899-9.261 12.671-9.349 12.698a.43.43 0 0 1-.123.017zM62.017 816.007a.424.424 0 0 1-.286-.111l-5.289-4.891a.422.422 0 0 1 .572-.619l5.289 4.891a.422.422 0 0 1-.286.73zM112.499 816.007a.438.438 0 0 1-.165-.033l-5.878-2.494a.42.42 0 1 1 .33-.775l5.878 2.494a.42.42 0 0 1-.165.808z"/><path fill="#FBBC4A" d="M92.543 585.966c-3.144 0-7.378-1.599-7.564-1.67a.372.372 0 1 1 .265-.695c.047.018 4.679 1.756 7.663 1.613a.369.369 0 0 1 .389.354.37.37 0 0 1-.354.389 8.72 8.72 0 0 1-.399.009z"/><path fill="#FFF" d="M69.118 724.881c-3.099 0-6.135-.661-6.381-.715a.423.423 0 0 1-.094-.79c1.073-.526 10.544-5.105 12.76-3.348.328.261.673.773.448 1.734-.579 2.48-3.686 3.119-6.733 3.119zm-4.956-1.297c3.631.625 10.148 1.073 10.87-2.014.15-.643-.078-.824-.153-.883-1.228-.976-6.804 1.086-10.717 2.897z"/><path fill="#F08463" d="M82.496 583.948s6.828-20.127 9.306-19.831c2.478.296 7.409 5.253 8.413 7.07 1.005 1.817 0 4.131 0 4.131s.978 1.227 0 2.018c-.978.791-3.787-.889-3.787-.889s2.42 11.447-4.85 12.934c-7.268 1.487-9.082-5.433-9.082-5.433z"/><path fill="#020203" d="M100.215 575.739a.42.42 0 0 1-.247-.08l-5.226-3.805a.422.422 0 1 1 .496-.682l5.226 3.805a.423.423 0 0 1-.249.762z"/><path fill="#020203" d="M86.983 572.494a.42.42 0 0 1-.385-.591c.012-.029 1.268-2.863 2.742-5.742 1.643-3.214 3.912-2.3 3.938-2.289.224.093 5.568 2.333 6.526 4.777.215.549.21 1.078-.017 1.57a.42.42 0 0 1-.612.178l-4.627-2.992a.422.422 0 0 1 .458-.708l4.109 2.657a1.392 1.392 0 0 0-.095-.398c-.687-1.753-4.613-3.703-6.067-4.306-.064-.026-1.588-.596-2.862 1.895-1.463 2.857-2.709 5.67-2.722 5.698a.424.424 0 0 1-.386.251z"/><path fill="#020203" d="M96.672 582.683c-.293-.038-.452-.253-.417-.483.54-3.624-1.106-6.128-1.122-6.153a.422.422 0 0 1 .533-.614c.932.452 3.55 1.598 4.502 1.485.036-.004.156-.022.178-.069.093-.203-.175-.851-.476-1.295a.421.421 0 0 1 .099-.576c.445-.327.684-.726.73-1.222.119-1.281-1.115-2.908-1.601-3.426a.423.423 0 0 1 .02-.596.425.425 0 0 1 .596.02c.082.088 2.001 2.163 1.824 4.08a2.421 2.421 0 0 1-.77 1.572c.254.452.6 1.232.345 1.791-.1.219-.328.495-.846.556-.91.118-2.687-.559-3.857-1.06.488 1.156 1.051 3.138.68 5.631a.425.425 0 0 1-.418.359zM104.599 570.463a.412.412 0 0 1-.104-.013l-3.509-.893a.42.42 0 0 1-.236-.657 2.877 2.877 0 0 1 2.232-1.064c1.594.012 2.013 2.038 2.03 2.125a.422.422 0 0 1-.413.502zm-2.619-1.521 1.964.5c-.184-.372-.486-.759-.947-.763-.458-.032-.763.118-1.017.263zM83.891 553.859s-7.399-12.322-13.326-4.055c-5.927 8.266 11.542 14.012 11.542 14.012l1.784-9.957z"/><path fill="#405385" d="m82.496 581.778 14.175 8.656s-4.246 51.143-29.082 46.557c-26.609-4.913-1.853-46.192 3.945-49.009s7.687-3.211 7.687-3.211l3.275-2.993z"/><path fill="#F8B169" d="M72.252 591.089a.422.422 0 0 1-.272-.743l6.969-5.897a.42.42 0 1 1 .544.643l-6.969 5.897a.413.413 0 0 1-.272.1zM76.084 636.683a.42.42 0 0 1-.167-.808c18.626-8.017 20.318-44.004 20.333-44.367.009-.233.186-.402.438-.404.232.01.413.206.404.438-.062 1.503-1.729 36.879-20.842 45.105a.395.395 0 0 1-.166.036z"/><path fill="#020203" d="M107.483 575.065c-.283 0-.534-.042-.738-.139a1.354 1.354 0 0 1-.71-.81c-.357-1.071.428-2.624.518-2.798a.422.422 0 0 1 .747.39c-.187.358-.673 1.522-.466 2.142.05.149.137.25.274.315.733.351 3.33-.727 4.934-1.604a.422.422 0 0 1 .405.739c-.605.332-3.318 1.765-4.964 1.765z"/><path fill="#F8B169" d="M101.127 652.62a.414.414 0 0 1-.313-.14c-.933-1.038-3.692-3.645-5.235-3.239-1.969.52-3.646 2.721-3.662 2.743a.417.417 0 0 1-.402.162.417.417 0 0 1-.332-.277c-.018-.049-1.729-4.873-4.828-4.424-3.272.461-5.719 3.531-5.744 3.563a.423.423 0 0 1-.706-.069c-.014-.027-1.377-2.652-3.135-2.652-.033 0-.066 0-.099.003-1.88.106-3.46 2.18-3.475 2.2a.415.415 0 0 1-.406.163.424.424 0 0 1-.332-.284c-.561-1.712-1.871-4.363-3.087-4.302-1.814.144-3.506 1.483-3.523 1.497a.422.422 0 0 1-.528-.658c.077-.062 1.908-1.513 3.983-1.678 1.812-.174 3.16 2.78 3.707 4.189.684-.721 2.021-1.879 3.613-1.97 1.771-.1 3.14 1.663 3.723 2.579.864-.942 3.056-3.016 5.89-3.415 3.018-.428 4.825 2.851 5.472 4.311.685-.759 2.056-2.075 3.656-2.496 1.93-.514 4.603 1.964 5.657 3.045.696-1.327 2.612-4.625 4.799-5.328 2.075-.674 4.464 1.319 5.592 2.435.157-1.136.591-3.065 1.792-4.594.473-.602 1.026-.905 1.679-.864 1.559.071 2.897 2.071 3.045 2.299a.422.422 0 0 1-.707.458c-.337-.518-1.421-1.873-2.378-1.915-.35-.036-.677.16-.977.543-1.606 2.044-1.699 5.023-1.699 5.052a.42.42 0 0 1-.741.264c-.031-.037-3.098-3.585-5.348-2.876-2.348.755-4.548 5.389-4.57 5.435a.418.418 0 0 1-.32.237c-.02.001-.04.003-.061.003zM93.6 593.962c-.185 0-.362-.036-.525-.117-.981-.482-.827-2.563-.59-3.993-1.19.817-3.316 1.978-4.88 1.193-1.742-.873-2.067-3.98-2.119-5.494-.72.434-1.929 1.041-3.003.987-.493-.016-.755-.272-.888-.484-.622-.99.321-3.245.516-3.686a.42.42 0 1 1 .77.34c-.398.904-.856 2.448-.573 2.898.02.032.053.086.202.09 1.383.069 3.12-1.247 3.137-1.261a.42.42 0 0 1 .675.346c-.033 1.285.201 4.778 1.661 5.51 1.451.726 3.997-1.025 4.857-1.761a.42.42 0 0 1 .685.415c-.464 1.999-.5 3.936-.077 4.144.533.257 2.034-.908 2.916-1.851a.42.42 0 1 1 .616.574c-.371.397-2.081 2.15-3.38 2.15z"/><path fill="#FFF" d="M70.697 805.579a.418.418 0 0 1-.272-.1c-.117-.099-2.867-2.462-2.658-5.283.177-2.373 2.962-4.536 3.933-5.222-.76-1.46-3.406-7.223-1.402-13.296 2.061-6.251 10.893-6.402 13.127-6.342-.136-1.73-.282-7.39 3.399-8.901.972-.399 1.925-.384 2.831.044 2.534 1.197 3.809 5.253 3.862 5.426a.42.42 0 0 1-.278.525.418.418 0 0 1-.526-.277c-.012-.04-1.22-3.875-3.418-4.913-.692-.325-1.395-.334-2.15-.026-3.677 1.509-2.843 8.442-2.834 8.512a.42.42 0 0 1-.112.343.403.403 0 0 1-.335.13c-.106.001-10.657-.65-12.765 5.743-2.149 6.518 1.483 12.891 1.52 12.956a.422.422 0 0 1-.136.566c-.037.023-3.695 2.398-3.873 4.795-.178 2.396 2.337 4.557 2.362 4.579a.421.421 0 0 1 .049.594.433.433 0 0 1-.324.147zM44.378 774.428c-.657 0-1.33-.171-2.011-.511a.421.421 0 0 1 .377-.754c.93.465 1.828.546 2.666.236 1.922-.706 2.999-3.193 3.009-3.217a.418.418 0 0 1 .313-.249.43.43 0 0 1 .38.125c.038.04 3.81 3.952 7.417 2.023 3.673-1.962 3.788-8.21 3.788-8.273a.42.42 0 0 1 .487-.411c.336.051 8.325 1.205 10.906-7.673 2.588-8.904-6.712-13.57-7.11-13.765a.422.422 0 0 1-.098-.69c.037-.034 3.703-3.407 2.678-7.389-.184-.713-.554-1.175-1.132-1.413-1.82-.751-5.282.899-6.463 1.598a.42.42 0 1 1-.429-.724c.188-.111 4.639-2.716 7.213-1.653.829.343 1.376 1.009 1.627 1.981.943 3.664-1.5 6.732-2.516 7.814 2.052 1.189 9.461 6.145 7.039 14.477-2.422 8.332-9.489 8.44-11.379 8.314-.095 1.568-.678 6.661-4.215 8.55-3.445 1.842-6.822-.721-7.995-1.775-.467.865-1.548 2.522-3.226 3.141a3.823 3.823 0 0 1-1.326.238zM101.127 746.962a.386.386 0 0 1-.106-.014c-.313-.081-7.675-2.047-8.323-6.145-.52-3.294 2.152-5.131 3.306-5.762-1.611-1.974-7.834-10.28-2.968-15.307 5.448-5.626 12.281.522 12.351.587a.422.422 0 0 1-.57.62c-.255-.232-6.297-5.659-11.176-.62-4.899 5.061 3.265 14.487 3.348 14.582a.424.424 0 0 1-.159.669c-.158.063-3.851 1.609-3.3 5.099.563 3.557 7.632 5.444 7.703 5.463a.42.42 0 0 1-.106.828zM80.097 707.914c-.308 0-.624-.027-.952-.088-1.364-.248-2.422-.916-3.145-1.984-1.291-1.907-1.161-4.574-1.012-5.804-1.687.443-6.243 1.435-8.506-.036-.759-.494-1.202-1.21-1.315-2.132-.738-6.048 6.618-9.348 8.556-10.108-.365-.81-1.007-2.614-.501-4.444.367-1.326 1.26-2.395 2.655-3.179.963-.54 1.945-.622 2.923-.237 2.796 1.1 4.711 5.789 5.301 7.415 1.422-.998 5.66-3.629 7.792-1.242 2.184 2.446.198 6.586-.385 7.668.879 1.104 4.369 5.796 1.877 7.907-2.191 1.859-5.082.345-6.198-.37-.661 1.656-2.993 6.634-7.09 6.634zm-4.595-8.878a.424.424 0 0 1 .413.505c-.007.036-.711 3.626.784 5.832.592.873 1.466 1.42 2.597 1.626 4.725.857 7.264-6.432 7.288-6.506a.422.422 0 0 1 .655-.199c.035.026 3.41 2.573 5.602.716 1.772-1.502-.959-5.526-2.161-6.949a.42.42 0 0 1-.041-.485c.027-.047 2.692-4.627.626-6.938-2.014-2.254-7.065 1.649-7.116 1.689a.416.416 0 0 1-.383.071.424.424 0 0 1-.277-.274c-.02-.063-2.044-6.277-4.998-7.438-.738-.289-1.458-.228-2.202.189-1.191.669-1.949 1.564-2.255 2.664-.576 2.073.626 4.226.639 4.248.062.108.072.24.027.356a.413.413 0 0 1-.256.249c-.092.033-9.19 3.243-8.442 9.378.082.67.389 1.171.937 1.527 2.422 1.574 8.379-.223 8.439-.243a.448.448 0 0 1 .124-.018zM59.633 686.075a.422.422 0 0 1-.121-.824c4.977-1.497 3-8.311 2.913-8.601a.423.423 0 0 1 .383-.541c.046-.003 4.605-.259 7.635-2.566 2.925-2.23 1.413-9.721 1.398-9.796a.422.422 0 0 1 .327-.498.426.426 0 0 1 .498.328c.068.329 1.633 8.084-1.712 10.635-2.656 2.025-6.27 2.564-7.595 2.698.397 1.766 1.322 7.666-3.603 9.148a.445.445 0 0 1-.123.017z"/><path fill="#DBE8F8" d="M123.158 718.7c-2.036 0-4.293-.295-5.839-1.354-1.015-.695-1.63-1.651-1.828-2.838-.694-4.163 1.595-6.147 3.056-6.969-2.16-.898-6.716-3.43-7.266-8.969-.628-6.331 4.889-8.888 6.443-9.479-.217-1.342-.673-5.544 1.916-6.45 2.992-1.047 5.323 2.609 5.421 2.766a.467.467 0 0 1-.792.496c-.02-.032-2.038-3.182-4.32-2.38-1.875.655-1.529 4.393-1.238 5.779a.467.467 0 0 1-.326.544c-.279.082-6.824 2.089-6.174 8.63.656 6.605 7.633 8.544 7.703 8.564a.466.466 0 0 1 .006.9c-.178.051-4.36 1.297-3.507 6.414.156.939.625 1.666 1.433 2.219 3.094 2.119 9.828.758 9.896.743a.467.467 0 0 1 .189.915c-.159.034-2.304.469-4.773.469zM92.192 792.481c-3.103 0-5.912-1.764-6.066-1.863a.467.467 0 1 1 .503-.786c.045.029 4.603 2.884 8.156 1.15 3.479-1.7 2.328-9.021 2.316-9.096a.468.468 0 0 1 .508-.54c.116.01 11.522 1.047 14.2-5.737 2.678-6.784-4.689-12.237-4.764-12.291a.469.469 0 0 1-.053-.711c.069-.068 6.891-6.869 3.439-11.426-.743-.983-1.645-1.498-2.757-1.577-3.321-.218-7.259 3.616-7.298 3.656a.467.467 0 0 1-.659-.664c.172-.171 4.284-4.196 8.021-3.925 1.379.096 2.536.751 3.439 1.944 3.481 4.597-1.686 10.697-3.165 12.279 1.613 1.348 7.208 6.616 4.665 13.057-2.6 6.587-12.083 6.51-14.575 6.367.219 1.899.592 7.793-2.908 9.501-.977.48-2.006.662-3.002.662z"/><path fill="#FFF" d="M83.379 798.09a.42.42 0 0 1-.39-.58c.194-.476 19.436-47.763 20.853-62.365 3.291-33.905-3.759-64.099-3.831-64.401a.42.42 0 0 1 .228-.477l11.325-5.418a.42.42 0 1 1 .363.759l-11.021 5.272c.762 3.398 6.893 32.212 3.775 64.346-1.43 14.723-20.717 62.124-20.912 62.601a.419.419 0 0 1-.39.263z"/><path fill="#020203" d="M969.445 654.861s7.033-5.134 15.12.056 2.982 13.136 8.873 15.952c5.891 2.817 11.56 6.186 11.49 12.15-.07 5.965 3.444 12.872 8.074 9.438 7.05-5.229 24.996 15.479 15.023 25.67-21.526 21.998-59.799-19.308-59.799-19.308s-7.928-2.981-7.268-13.339c.46-7.223 9.87-19.67 8.487-30.619z"/><path fill="#020203" d="M988.663 659.483s.113 7.78 5.816 9.183c4.516 1.11 8.476 1.286 11.211 7.022 2.677 5.615-.584 9.769 4.281 12.776 4.865 3.008 6.453-1.284 13.43 1.924 9.213 4.237 5.665 15.376 1.126 16.289-4.539.913-26.308-11.775-26.308-11.775l-16.058-29.983 6.502-5.436z"/><path fill="#F8B169" d="m951.013 701.47-22.318 44.38 9.963 11.124s60.327-45.245 40.284-64.53c-15.44-14.858-27.929 9.026-27.929 9.026z"/><path fill="#FAB612" d="M911.576 767.823a.48.48 0 0 0 .183-.036c.611-.238 5.995-2.408 6.638-4.595a1.532 1.532 0 0 0-.235-1.375c-.305-.424-.743-.675-1.3-.751-1.258-.167-2.991.641-4.414 1.5 1.642-2.369 3.608-5.691 2.987-7.276-.141-.361-.474-.817-1.26-.938a2.101 2.101 0 0 0-.306-.023c-3.727 0-6.171 10.527-6.445 11.758-.06.269.11.535.379.594a.493.493 0 0 0 .595-.378c.981-4.423 3.375-11.355 5.625-10.964.337.051.433.187.482.314.552 1.41-2.568 6.117-4.664 8.752a.5.5 0 0 0 .703.7c1.152-.925 4.511-3.292 6.184-3.05.283.038.481.148.624.344.116.163.144.32.087.513-.38 1.296-3.91 3.108-6.046 3.948a.498.498 0 0 0 .183.963z"/><path fill="#F08463" d="m983.605 678.56.968 9.758s-1.482 2.979-7.144 4.01c-4.218.768-5.781-1.283-5.781-1.283l.183-8.641 10.083-3.29 1.691-.554z"/><path fill="#020203" d="M983.531 677.967c.002.269-.068.593-.19.97-1.7 5.091-9.182 7.882-11.616 8.345l.106-4.877 11.7-4.438z"/><path fill="#F08463" d="M967.449 660.378s-3.907 12.742-1.214 19.339c2.693 6.597 8.78 4.811 12.345 3.066 3.565-1.744 5.027-4.221 5.027-4.221s3.606.778 5.557-2.716c1.951-3.494.095-7.037-1.984-7.659-2.08-.622-4.272 1.08-4.272 1.08l1.442-3.738s-9.83-17.027-16.901-5.151z"/><path fill="#020203" d="M982.908 669.267s-5.08 1.701-9.423-3.647-4.465-6.613-4.465-6.613l-2.661 5.732s-1.366-4.505-.035-7.358c1.33-2.853 3.122-2.52 3.122-2.52l11.849 1.439 4.173 8.834-2.56 4.133z"/><path fill="#F8B169" d="m982.309 688.124 3.59-1.77c19.537 2.234 18.076 24.875 18.076 24.875s2.869 32.445 2.358 33.127c-.511.681-14.421 3.776-30.041 2.91-15.62-.866-19.026-3.081-19.879-3.592-.853-.511 3.918-49.716 3.918-49.716s9.711-5.67 21.978-5.834z"/><path fill="#F8B169" d="M970.303 690.412s.539-2.087 1.084-2.961c.545-.873 3.334.01 7.117-.586s5.64-2.735 6.293-2.81c.653-.075 1.102 2.299 1.102 2.299s-2.103 2.648-2.431 3.028c-.329.38-13.165 1.03-13.165 1.03z"/><path fill="#B2769B" d="M942.759 734.847a1.92 1.92 0 0 1-.271-.019 2.304 2.304 0 0 1-1.671-1.051c-1.413-2.123-.203-6.768-.151-6.965a.421.421 0 0 1 .712-.182l1.02 1.065 1.476-1.336a.42.42 0 0 1 .7.249l.289 1.91 2.031.005a.418.418 0 0 1 .399.55c-.195.607-1.932 5.774-4.534 5.774zm-1.447-7.071c-.274 1.352-.695 4.18.207 5.535.262.395.617.618 1.084.683 1.586.214 3.062-2.938 3.696-4.632l-1.8-.004a.42.42 0 0 1-.415-.358l-.226-1.491-1.198 1.084a.421.421 0 0 1-.587-.022l-.761-.795z"/><path fill="#EF7A60" d="m901.25 798.956 1.011 11.252h21.615v-12.743zM938.723 804.487l3.265 10.953 23.79-5.643-4.156-12.332z"/><path fill="#A56991" d="M900.973 809.208s-3.398 11.061-4.667 12.516c-1.269 1.455-15.532 14.214-17.388 18.715-1.855 4.501.553 10.751 1.714 10.937 1.161.186 55.75-23.895 55.75-23.895l-10.759-26.689-24.65 8.416z"/><path fill="#81AADB" d="M935.548 733.24s-31.259-7.607-39.831 5.601c-8.571 13.208 3.415 63.613 3.415 63.613h28.784l7.632-69.214z"/><path fill="#FFF" d="M897.808 817.153s11.405 5.489 9.961 6.951c-1.444 1.462-17.182 5.53-17.477 3.787-.296-1.744 5.691-10.108 7.516-10.738z"/><path fill="#6B82BB" d="M899.132 802.875a.422.422 0 0 1-.35-.656c.477-.707 2.945-4.254 4.738-4.104 1.384.097 2.27 2.056 2.685 3.256 1.032-1.502 3.379-4.528 5.516-4.324 2.086.213 3.781 3.104 4.465 4.458.768-1.095 2.293-3.041 3.446-3.041 1.157 0 2.491 1.774 3.156 2.781.588-.858 1.849-2.339 3.608-2.43a.422.422 0 0 1 .044.842c-1.953.102-3.263 2.557-3.276 2.581a.421.421 0 0 1-.362.226.455.455 0 0 1-.373-.206c-.728-1.227-2.075-2.953-2.797-2.953-.72 0-2.307 1.955-3.154 3.275-.083.13-.226.221-.389.192a.417.417 0 0 1-.352-.254c-.528-1.227-2.291-4.45-4.1-4.633-1.822-.214-4.374 3.324-5.213 4.688a.431.431 0 0 1-.422.196.426.426 0 0 1-.346-.314c-.334-1.317-1.226-3.433-2.196-3.502-1.02-.001-2.921 2.169-3.978 3.737a.424.424 0 0 1-.35.185z"/><path fill="#94B3DF" d="M1006.312 744.692s6.509 30.243-6.534 35.112c-13.044 4.87-43.112-.905-43.112-.905l12.199 21.527-39.234 11.623s-32.58-58.83-12.749-74.509c19.83-15.679 75.149 7.151 75.149 7.151h14.281z"/><path fill="#B2769B" d="M939.73 814.94s-1.653 12.1-3.946 13.621c-2.293 1.52-12.01 9.324-17.01 15.962-4.192 5.566.92 7.885.92 7.885l33.015-3.853 25.948-24.162-12.67-20.504-26.257 11.051z"/><path fill="#FFF" d="M937.477 822.41s11.383 5.534 9.933 6.99c-1.45 1.456-17.203 5.463-17.492 3.718-.288-1.745 5.731-10.085 7.559-10.708z"/><path fill="#F08463" d="M1019.693 757.072s2.339 8.383 3.675 9.739c1.337 1.356 17.168 4.959 16.722 6.769-.445 1.811-2.97 1.444-2.97 1.444s5.198.531 4.01 2.507c-1.188 1.975-5.94 1.646-5.94 1.646s4.455.988.742 2.634-17.673-3.128-20.049-2.963c-2.376.165-6.98 2.634-8.911 2.469-1.931-.165 2.079-7.078 2.079-7.078s-.148-4.768.149-5.594c.297-.826-2.079-8.234-2.079-8.234l12.572-3.339z"/><path fill="#F8B169" d="m1000.051 694.966 32.287 68.157-28.512 7.718-20.198-53.956z"/><path fill="#020203" d="M969.765 679.514a.421.421 0 0 1-.369-.624c1.246-2.273 4.462-1.368 4.599-1.328a.422.422 0 0 1-.235.809c-.029-.01-2.706-.754-3.627.925a.417.417 0 0 1-.368.218zM1037.121 776.143a.42.42 0 0 1-.138-.023l-10.612-3.677a.42.42 0 0 1-.259-.536.415.415 0 0 1 .536-.259l10.612 3.677a.42.42 0 0 1-.139.818zM1035.189 779.598a.435.435 0 0 1-.136-.022l-10.129-3.454a.42.42 0 0 1-.263-.535.418.418 0 0 1 .535-.263l10.129 3.455a.42.42 0 0 1-.136.819z"/><path fill="#B2769B" d="M955.858 729.104c-.282-.031-.447-.241-.418-.473l1.445-11.699c-.41-1.197-4.014-12.602 4.979-18.572a.421.421 0 1 1 .466.702c-8.888 5.9-4.664 17.559-4.62 17.676.023.064.032.133.023.2l-1.457 11.797a.422.422 0 0 1-.418.369z"/><path fill="#020203" d="M969.554 675.98a.424.424 0 0 1-.304-.129c-1.452-1.516-.048-5.79.116-6.273a.422.422 0 0 1 .798.272c-.558 1.637-1.134 4.554-.306 5.418a.423.423 0 0 1-.012.596.425.425 0 0 1-.292.116zM972.944 670.979a.422.422 0 0 1-.413-.505l.421-2.037-.781-.836a.423.423 0 0 1 .021-.596.427.427 0 0 1 .596.02l.929.995a.42.42 0 0 1 .104.373l-.465 2.251a.421.421 0 0 1-.412.335zM966.982 670.979a.422.422 0 0 1-.413-.505l.421-2.037-.781-.836a.423.423 0 0 1 .021-.596.427.427 0 0 1 .596.02l.929.995a.42.42 0 0 1 .104.373l-.465 2.251a.421.421 0 0 1-.412.335zM974.467 666.184a.424.424 0 0 1-.156-.03l-2.983-1.193a.42.42 0 1 1 .313-.781l2.983 1.193a.422.422 0 0 1-.157.811zM966.284 665.979a.422.422 0 0 1-.155-.813l2.071-.818a.427.427 0 0 1 .547.237.422.422 0 0 1-.237.547l-2.071.818a.443.443 0 0 1-.155.029zM984.117 674.958a.422.422 0 0 1-.341-.668l2.866-3.978a.425.425 0 0 1 .588-.095c.188.136.23.399.095.588l-2.866 3.978a.42.42 0 0 1-.342.175z"/><path fill="#020203" d="M987.802 673.532c-.058-.004-2.476-.336-2.476-.336a.42.42 0 1 1 .115-.833l2.418.332a.42.42 0 0 1-.057.837z"/><path fill="#B2769B" d="M980.814 689.462a.42.42 0 0 1-.056-.838c3.2-.436 4.788-2.503 4.803-2.524a.42.42 0 1 1 .675.503c-.071.097-1.8 2.369-5.365 2.854a.293.293 0 0 1-.057.005zM994.037 745.113a.422.422 0 0 1-.395-.273l-5.293-14.14c-.618-.653-2.938-3.216-2.476-4.529.102-.288.366-.65 1.055-.74.361-.045.695.06.98.307 1.099.957 1.213 4.033 1.224 4.654l5.298 14.153a.423.423 0 0 1-.247.543.435.435 0 0 1-.146.025zm-6.945-18.85c-.266.032-.391.093-.424.188-.162.459.596 1.685 1.557 2.842-.117-1.18-.388-2.5-.87-2.92a.385.385 0 0 0-.263-.11zM991.529 703.001a2.34 2.34 0 0 1-1.143-.306c-2.236-1.228-3.317-5.904-3.363-6.103a.425.425 0 0 1 .129-.406.424.424 0 0 1 .417-.086l1.398.472.69-1.867a.421.421 0 0 1 .735-.104l1.142 1.559 1.801-.938a.408.408 0 0 1 .381-.003.42.42 0 0 1 .229.306c.112.651 1.025 6.389-1.59 7.327a2.43 2.43 0 0 1-.826.149zm-3.486-5.852c.384 1.324 1.321 4.025 2.749 4.808.414.228.835.263 1.278.103 1.471-.528 1.352-4.021 1.128-5.816l-1.596.831a.425.425 0 0 1-.535-.125l-.892-1.217-.559 1.516a.425.425 0 0 1-.529.254l-1.044-.354zM962.242 709.717a2.314 2.314 0 0 1-1.76-.777c-1.726-1.877-1.257-6.654-1.236-6.856a.422.422 0 0 1 .674-.293l1.174.894 1.249-1.552a.44.44 0 0 1 .404-.15.424.424 0 0 1 .325.286l.585 1.841 2.007-.313a.43.43 0 0 1 .362.119c.095.094.14.229.119.362-.101.652-1.068 6.381-3.848 6.436l-.055.003zm-2.209-6.781c-.059 1.376-.033 4.234 1.069 5.433.321.347.68.503 1.178.505 1.563-.031 2.565-3.379 2.928-5.152l-1.779.277a.422.422 0 0 1-.466-.289l-.456-1.438-1.014 1.26a.42.42 0 0 1-.583.071l-.877-.667zM949.912 719.107c-.089 0-.18-.005-.271-.019a2.31 2.31 0 0 1-1.671-1.05c-1.413-2.123-.203-6.768-.151-6.965a.421.421 0 0 1 .712-.182l1.02 1.065 1.477-1.336a.42.42 0 0 1 .699.249l.289 1.91 2.031.005a.418.418 0 0 1 .399.55c-.195.608-1.932 5.773-4.534 5.773zm-1.447-7.07c-.274 1.352-.695 4.18.207 5.534.262.395.617.618 1.084.683 1.544.207 3.06-2.935 3.696-4.631l-1.8-.005a.42.42 0 0 1-.415-.358l-.226-1.49-1.198 1.084a.42.42 0 0 1-.587-.022l-.761-.795zM984.574 714.12c-.385 0-.765-.1-1.135-.302-2.241-1.217-3.341-5.891-3.386-6.089a.422.422 0 0 1 .543-.494l1.401.465.68-1.87a.422.422 0 0 1 .735-.107l1.147 1.555 1.798-.944a.42.42 0 0 1 .61.298c.117.651 1.053 6.387-1.56 7.335a2.418 2.418 0 0 1-.833.153zm-3.5-5.839c.389 1.323 1.337 4.021 2.768 4.798.414.225.832.258 1.278.096 1.47-.533 1.335-4.026 1.105-5.821l-1.593.836a.423.423 0 0 1-.535-.122l-.897-1.213-.552 1.518a.42.42 0 0 1-.529.255l-1.045-.347zM971.991 722.363a2.303 2.303 0 0 1-1.594-.633c-1.881-1.722-1.82-6.522-1.816-6.725a.418.418 0 0 1 .221-.363.418.418 0 0 1 .425.015l1.246.79 1.112-1.652a.394.394 0 0 1 .392-.184.427.427 0 0 1 .347.258l.74 1.785 1.973-.482a.42.42 0 0 1 .519.437c-.044.659-.52 6.451-3.284 6.742a3.865 3.865 0 0 1-.281.012zm-2.553-6.576c.059 1.376.328 4.224 1.527 5.322.35.32.738.454 1.217.402 1.555-.163 2.267-3.585 2.477-5.382l-1.748.428a.42.42 0 0 1-.489-.247l-.578-1.394-.902 1.341a.416.416 0 0 1-.574.119l-.93-.589zM973.8 701.818a2.31 2.31 0 0 1-1.596-.633c-1.881-1.723-1.821-6.522-1.816-6.725a.418.418 0 0 1 .221-.363.418.418 0 0 1 .425.015l1.246.79 1.113-1.652a.417.417 0 0 1 .392-.184.424.424 0 0 1 .347.258l.739 1.785 1.973-.483a.417.417 0 0 1 .519.437c-.044.659-.52 6.451-3.283 6.742a2.96 2.96 0 0 1-.28.013zm-2.553-6.576c.059 1.376.328 4.222 1.528 5.322.348.319.736.454 1.217.402 1.555-.163 2.267-3.585 2.477-5.382l-1.749.428a.42.42 0 0 1-.489-.247l-.577-1.394-.903 1.341a.418.418 0 0 1-.574.119l-.93-.589zM960.978 733.869a2.312 2.312 0 0 1-1.989-1.177c-1.294-2.199.167-6.771.23-6.964a.42.42 0 0 1 .72-.144l.961 1.119 1.546-1.253a.425.425 0 0 1 .428-.06.419.419 0 0 1 .256.347l.185 1.922 2.029.117a.422.422 0 0 1 .369.572c-.225.588-2.19 5.521-4.735 5.521zm-1.168-7.14c-.347 1.334-.923 4.135-.096 5.537a1.48 1.48 0 0 0 1.047.74c1.524.309 3.217-2.764 3.943-4.422l-1.797-.103a.423.423 0 0 1-.395-.38l-.145-1.501-1.256 1.017a.42.42 0 0 1-.584-.053l-.717-.835zM981.618 737.279a2.303 2.303 0 0 1-1.498-.555c-1.967-1.625-2.15-6.421-2.156-6.625a.422.422 0 0 1 .203-.374.427.427 0 0 1 .425-.005l1.284.725 1.028-1.707a.436.436 0 0 1 .381-.203.42.42 0 0 1 .359.24l.829 1.745 1.947-.581a.418.418 0 0 1 .542.41c-.011.661-.193 6.469-2.938 6.898a2.695 2.695 0 0 1-.406.032zm-2.758-6.442c.129 1.372.541 4.2 1.796 5.238.366.3.773.409 1.237.34 1.544-.243 2.084-3.696 2.201-5.501l-1.724.516a.42.42 0 0 1-.5-.222l-.649-1.364-.835 1.386a.423.423 0 0 1-.568.148l-.958-.541zM994.962 731.483c-.392 0-.776-.104-1.149-.31-2.233-1.232-3.301-5.912-3.346-6.111a.423.423 0 0 1 .547-.491l1.397.476.694-1.866a.42.42 0 0 1 .735-.101l1.138 1.56 1.804-.932a.429.429 0 0 1 .381-.003c.121.06.204.174.228.306.111.653 1.009 6.392-1.609 7.324a2.452 2.452 0 0 1-.82.148zm-3.476-5.862c.38 1.324 1.309 4.029 2.735 4.816.417.228.833.262 1.278.105 1.472-.525 1.363-4.018 1.143-5.815l-1.598.827a.423.423 0 0 1-.533-.126l-.888-1.219-.563 1.515a.423.423 0 0 1-.531.252l-1.043-.355zM1004.158 757.849c-.391 0-.776-.103-1.147-.309-2.233-1.232-3.301-5.912-3.346-6.111a.423.423 0 0 1 .547-.491l1.397.474.694-1.866a.42.42 0 0 1 .735-.101l1.138 1.561 1.805-.932a.432.432 0 0 1 .381-.003c.121.06.204.174.228.306.111.652 1.008 6.391-1.611 7.323-.277.1-.551.149-.821.149zm-3.477-5.86c.381 1.324 1.311 4.027 2.736 4.814.415.229.829.262 1.278.105 1.472-.525 1.363-4.018 1.145-5.814l-1.6.827a.42.42 0 0 1-.533-.126l-.888-1.22-.563 1.515a.425.425 0 0 1-.53.252l-1.045-.353zM1002.803 717.308c-.392 0-.776-.104-1.149-.31-2.233-1.232-3.301-5.912-3.346-6.111a.423.423 0 0 1 .547-.491l1.396.476.695-1.866a.423.423 0 0 1 .735-.101l1.138 1.56 1.804-.932a.426.426 0 0 1 .381-.003c.121.06.204.174.228.306.111.652 1.008 6.392-1.609 7.324a2.427 2.427 0 0 1-.82.148zm-3.476-5.861c.38 1.326 1.309 4.029 2.735 4.816.417.228.834.263 1.278.106 1.471-.525 1.361-4.018 1.143-5.815l-1.598.827a.423.423 0 0 1-.533-.126l-.89-1.219-.563 1.515a.42.42 0 0 1-.53.252l-1.042-.356zM1013.194 740.252c-.322 0-.647-.071-.969-.212-2.336-1.024-3.826-5.588-3.888-5.781a.418.418 0 0 1 .092-.415.43.43 0 0 1 .407-.123l1.434.345.519-1.921a.417.417 0 0 1 .313-.3.407.407 0 0 1 .411.132l1.275 1.45 1.714-1.093a.42.42 0 0 1 .634.247c.17.639 1.586 6.274-.936 7.441-.333.153-.669.23-1.006.23zm-3.793-5.529c.5 1.284 1.671 3.892 3.163 4.546.433.191.854.187 1.282-.012 1.419-.655.991-4.125.61-5.895l-1.519.969a.423.423 0 0 1-.543-.077l-.995-1.134-.422 1.56a.43.43 0 0 1-.506.3l-1.07-.257zM1024.124 761.433c-.178 0-.361-.019-.546-.06-2.492-.543-4.854-4.721-4.953-4.898a.422.422 0 0 1 .008-.425.387.387 0 0 1 .376-.201l1.472.056.13-1.986a.423.423 0 0 1 .676-.307l1.538 1.169 1.463-1.409a.42.42 0 0 1 .669.117c.293.592 2.794 5.836.551 7.478-.425.31-.889.466-1.384.466zm-4.364-4.713c.743 1.16 2.407 3.485 3.997 3.83.456.101.872.015 1.254-.265 1.26-.922.156-4.239-.566-5.897l-1.297 1.249a.425.425 0 0 1-.547.032l-1.201-.913-.106 1.612c-.015.228-.243.393-.437.393l-1.097-.041z"/><path fill="#6B82BB" d="M924.727 802.773a.418.418 0 0 1-.367-.215c-.122-.219-12.242-22.121-14.795-45.084-.775-6.958.672-12.73 4.296-17.155 6.128-7.482 16.191-8.447 16.616-8.484.226-.031.436.151.456.383a.421.421 0 0 1-.382.457c-.102.01-10.146.976-16.043 8.184-3.472 4.243-4.854 9.801-4.107 16.523 2.536 22.796 14.573 44.549 14.694 44.766a.42.42 0 0 1-.368.625zM956.666 779.321a.41.41 0 0 1-.134-.022c-.414-.14-10.122-3.471-9.053-8.335.213-.968.714-1.25 1.097-1.316 2.377-.452 7.456 7.446 8.447 9.028a.42.42 0 0 1-.357.645zm-7.853-8.85a.48.48 0 0 0-.093.007c-.233.041-.356.385-.418.668-.71 3.23 4.818 5.882 7.316 6.905-2.297-3.484-5.515-7.58-6.805-7.58zM929.909 811.637a.422.422 0 0 1-.421-.414c-.003-.166-.042-4.078 2.269-5.153 1.83-.847 4.706 1.102 5.977 2.085.243-1.615 1.055-5.313 3.519-7.015 2.703-1.867 6.728 1.641 8.169 3.051.347-1.176 1.194-3.459 2.829-4.768 1.953-1.561 6.144 1.025 7.781 2.151.111-1.117.428-3.19 1.285-4.359a1.19 1.19 0 0 1 .847-.47c1.927-.218 5.971 3.136 6.429 3.52a.421.421 0 0 1-.543.644c-1.619-1.361-4.639-3.456-5.786-3.328-.166.02-.23.081-.267.133-1.039 1.415-1.179 4.623-1.18 4.654a.423.423 0 0 1-.673.32c-1.528-1.143-5.826-3.837-7.366-2.607-1.985 1.587-2.716 4.988-2.722 5.023a.421.421 0 0 1-.723.199c-.049-.053-4.925-5.324-7.6-3.469-2.805 1.936-3.25 7.108-3.254 7.16a.417.417 0 0 1-.259.356.417.417 0 0 1-.436-.07c-1.065-.917-4.158-3.15-5.673-2.445-1.814.843-1.781 4.339-1.781 4.374a.42.42 0 0 1-.414.428h-.007z"/><path fill="#DED7E1" d="m944.954 602.077 2.185-5.33 10.698 4.385-2.185 5.33z"/><path fill="#DED7E1" d="m966.704 607.923-4.32-5.587-4.319-5.586-2.679 6.534-2.678 6.534 6.998-.948zM904.226 548.495a.702.702 0 0 1-.694-.609c-.296-2.206-.347-3.5-.35-3.555a.702.702 0 0 1 .676-.727c.377-.026.713.289.728.675 0 .012.051 1.288.336 3.42a.701.701 0 0 1-.696.796zM932.27 594.074a.712.712 0 0 1-.369-.104 57.176 57.176 0 0 1-5.714-4.027.702.702 0 0 1 .878-1.095 55.932 55.932 0 0 0 5.574 3.928.703.703 0 0 1 .229.966.708.708 0 0 1-.598.332zm-10.755-8.626a.703.703 0 0 1-.505-.213 58.207 58.207 0 0 1-4.552-5.305.704.704 0 0 1 .134-.984.704.704 0 0 1 .984.135 56.544 56.544 0 0 0 4.443 5.176.702.702 0 0 1-.504 1.191zm-8.347-10.976a.7.7 0 0 1-.603-.344 65.395 65.395 0 0 1-3.232-6.193.703.703 0 0 1 .347-.93.705.705 0 0 1 .931.348 64.105 64.105 0 0 0 3.161 6.06.702.702 0 0 1-.604 1.059zm-5.749-12.549a.704.704 0 0 1-.665-.475 73.777 73.777 0 0 1-1.937-6.705.702.702 0 1 1 1.366-.325 72.006 72.006 0 0 0 1.901 6.576.702.702 0 0 1-.665.929zM941.602 598.732a.711.711 0 0 1-.258-.049 62.385 62.385 0 0 1-3.263-1.399.702.702 0 1 1 .589-1.273c1.043.483 2.115.942 3.189 1.367.36.143.537.55.395.911a.697.697 0 0 1-.652.443zM160.541 579.914l-2.185-5.33 10.699-4.386 2.185 5.33z"/><path fill="#DED7E1" d="m149.461 581.324 4.319-5.587 4.32-5.586 2.679 6.534 2.678 6.534-6.998-.948zM211.938 521.895a.7.7 0 0 1-.696-.795c.285-2.132.337-3.409.338-3.421.015-.388.383-.688.728-.674.387.015.69.341.674.728-.002.054-.054 1.349-.349 3.554a.703.703 0 0 1-.695.608zM183.897 567.474a.702.702 0 0 1-.368-1.3 55.146 55.146 0 0 0 5.573-3.927.702.702 0 0 1 .879 1.095 56.864 56.864 0 0 1-5.715 4.027.706.706 0 0 1-.369.105zm10.75-8.624a.703.703 0 0 1-.504-1.19 56.644 56.644 0 0 0 4.444-5.176.702.702 0 0 1 1.118.848 58.17 58.17 0 0 1-4.555 5.305.7.7 0 0 1-.503.213zm8.351-10.976a.702.702 0 0 1-.603-1.06 63.883 63.883 0 0 0 3.161-6.06.703.703 0 0 1 1.278.582 65.52 65.52 0 0 1-3.231 6.193.702.702 0 0 1-.605.345zm5.747-12.549a.701.701 0 0 1-.664-.929 72.146 72.146 0 0 0 1.901-6.577.708.708 0 0 1 .846-.52c.377.09.609.468.52.846a73.904 73.904 0 0 1-1.938 6.705.704.704 0 0 1-.665.475zM174.563 572.133a.7.7 0 0 1-.257-1.354 60.29 60.29 0 0 0 3.189-1.367.702.702 0 0 1 .59 1.273 62.25 62.25 0 0 1-3.263 1.398.685.685 0 0 1-.259.05z"/><path fill="#F08463" d="M823.378 479.931s-.758 5.838 1.71 5.66c2.469-.178 4.34-8.601 4.34-8.601l-6.05 2.941z"/><path fill="#F8B169" d="M839.615 509.633c-13.296 0-24.113-8.372-24.113-18.661 0-10.29 10.817-18.661 24.113-18.661s24.112 8.372 24.112 18.661c0 10.29-10.816 18.661-24.112 18.661zm0-33.111c-10.974 0-19.902 6.482-19.902 14.45 0 7.968 8.928 14.45 19.902 14.45s19.901-6.482 19.901-14.45c-.001-7.968-8.928-14.45-19.901-14.45z"/><path fill="#5876AF" d="M777.491 606.873s-11.944 5.807-11.723 7.256c.221 1.448-5.437 20.18-5.437 20.18l28.178-7.633v-23.382l-11.018 3.579z"/><path fill="#F08463" d="M806.954 608.015v18.075l-26.821-1.944v-17.273z"/><path fill="#B2769B" d="M732.907 527.88c-.211 18.108 36.315 77.234 37.887 79.774.042.056.056.084.056.084s10.374 4.253 25.604 3.762c15.231-.491 17.631-2.232 17.631-2.232s-2.611-131.614-8.703-143.925c-6.092-12.325-45.916-2.878-45.916-2.878s-5.068 9.026-10.781 20.747c-7.299 14.965-15.652 34.28-15.778 44.668z"/><path fill="#A56991" d="M732.907 527.88c-.211 18.108 36.315 77.234 37.887 79.774-.309-21.028-1.586-110.825-1.572-112.369.028-1.755-2.358-2.541-2.358-2.541l-18.178-9.531c-7.3 14.964-15.653 34.279-15.779 44.667z"/><path fill="#FFF" d="M770.851 608.157a.422.422 0 0 1-.421-.396c-.85-14.608-.884-31.951-.917-48.722-.011-5.271-.021-10.49-.056-15.558a4316.276 4316.276 0 0 0-.633-49.088l-13.177-7.804a.42.42 0 0 1 .43-.725l13.378 7.923a.423.423 0 0 1 .206.354c.004.223.451 22.7.637 49.333.036 5.069.045 10.289.056 15.562.033 16.76.067 34.09.917 48.674a.421.421 0 0 1-.396.445c-.008.002-.016.002-.024.002z"/><path fill="#FFF" d="M769.852 540.506a.407.407 0 0 1-.141-.025c-1.432-.509-14.02-5.086-14.764-8.762-.092-.452-.058-1.125.631-1.755.573-.525 1.285-.754 2.144-.679 4.646.407 12.147 10.129 12.465 10.543a.42.42 0 0 1 .005.504.417.417 0 0 1-.34.174zm-12.44-10.392c-.506 0-.921.155-1.265.47-.329.302-.448.609-.376.968.492 2.425 8.413 5.927 12.797 7.608-2.167-2.625-7.549-8.741-10.921-9.035a2.73 2.73 0 0 0-.235-.011zM804.048 483.898a.414.414 0 0 1-.084-.009c-7.049-1.424-10.605-9.921-10.753-10.282a.42.42 0 1 1 .779-.319c.034.084 3.538 8.442 10.141 9.776a.42.42 0 0 1 .329.496.42.42 0 0 1-.412.338z"/><path fill="#F08463" d="m822.85 477.427 4.567-1.762s2.502 11.841 4.513 12.05c2.011.209 3.729-3.081 3.729-3.081s4.232 1.276 5.719.773 8.677-2.066 9.941-6.043c1.264-3.976-7.248-19.33-7.248-19.33l-16.197.64s-6.556 8.206-5.024 16.753z"/><path fill="#020203" d="M835.659 485.055a.421.421 0 0 1-.417-.364l-.639-4.703a.42.42 0 0 1 .361-.474.413.413 0 0 1 .473.36l.639 4.703a.42.42 0 0 1-.417.478zM827.417 476.086a.422.422 0 0 1-.42-.384l-.484-5.537a.421.421 0 1 1 .839-.073l.484 5.537a.42.42 0 0 1-.383.456l-.036.001z"/><path fill="#F8B169" d="M798.263 469.105s-2.709 1.502-13.013 2.513c-2.232.225-4.618.267-6.963.182a79.15 79.15 0 0 1-5.32-.323c-6.205-.576-11.146-1.628-11.146-1.628v-39.305l12.592-29.97 18.122-.828 5.728 69.359z"/><path fill="#6B82BB" d="M779.404 399.483c-.148.441-6.862 15.729-10.758 39.373-2.642 16.034-5.777 27.806-6.36 34.427l-7.162-2.254s4.312-59.315 7.4-64.203c2.329-3.697 12.352-7.079 16.88-7.343zM853.243 461.497l-31.351 3.255s-1.909-11.752-5.396-17.171c-3.156-4.911-8.039-5.58-8.039-5.58v31.67l-20.749 1.243 4.043-70.728.339-4.624c10.892-.353 26.028 1.473 39.612 12.696 21.31 17.613 21.541 49.239 21.541 49.239z"/><path fill="#425180" d="M816.497 448.003a.425.425 0 0 1-.296-.121.423.423 0 0 1-.085-.478c.111-.235 2.736-5.771 5.33-6.524.595-.174 1.156-.099 1.657.221.609.387.713.875.694 1.217-.123 2.141-5.949 5.077-7.116 5.644a.44.44 0 0 1-.184.041zm5.556-6.371c-.119 0-.244.019-.373.056-1.485.431-3.22 3.106-4.215 4.927 2.444-1.306 5.429-3.248 5.492-4.346.007-.118-.022-.278-.306-.458a1.097 1.097 0 0 0-.598-.179z"/><path fill="#EE7357" d="M757.43 387.178s9.053-10.136 16.531-14.249c7.478-4.113 10.947-3.822 11.712-2.798.765 1.024-3.341 4.642-3.341 4.642s7.133-3.672 8.77-1.398c1.637 2.274-4.268 6.194-4.268 6.194s5.635-1.571 5.699.896c.064 2.467-11.38 8.745-11.38 8.745s6.637-1.215 6.712.691c.075 1.907-7.985 7.13-11.692 7.506s-10.703 1.254-10.703 1.254l-8.04-11.483z"/><path fill="#020203" d="M780.032 377.6s-7.326-6.775-3.415-11.671c3.911-4.895 11.121.891 11.121.891s3.169-2.744 7.179-.05c4.009 2.694 4.067 8.564 4.067 8.564s4.267.21 4.137 5.411c-.13 5.201-6.042 9.415-6.042 9.415l-17.047-12.56z"/><path fill="#F08463" d="m792.66 392.711-1.053 10.351s-1.52 2.265-7.332 2.376c-4.33.083-5.782-.985-5.782-.985l.912-4.969.895-4.845 10.585-1.648 1.775-.28z"/><path fill="#020203" d="M790.884 392.989c-.042.268-.164.581-.346.936-2.519 4.8-8.632 5.489-11.133 5.558l.895-4.845 10.584-1.649z"/><path fill="#F08463" d="M779.495 371.969s-5.958 12.071-4.34 19.084c1.617 7.013 7.975 6.217 11.811 5.055 3.836-1.162 5.695-3.395 5.695-3.395s3.469 1.359 5.98-1.809c2.51-3.168 1.234-7-.739-7.957-1.973-.956-4.434.385-4.434.385l2.043-3.494c0 .002-7.045-18.564-16.016-7.869z"/><path fill="#020203" d="M793.527 388.72a.423.423 0 0 1-.224-.778l4.653-2.926a.42.42 0 1 1 .449.712l-4.653 2.926a.414.414 0 0 1-.225.066z"/><path fill="#020203" d="M797.589 388.917a.43.43 0 0 1-.13-.021l-2.886-.937a.42.42 0 0 1-.27-.53.417.417 0 0 1 .53-.27l2.886.937a.42.42 0 0 1-.13.821zM779.637 387.833a.421.421 0 0 1-.41-.326c-.94-4.063 1.311-6.773 1.406-6.887a.424.424 0 0 1 .592-.049c.177.15.2.415.051.594-.022.025-2.071 2.516-1.23 6.152a.421.421 0 0 1-.409.516zM777.665 381.417a.422.422 0 0 1-.399-.558l.759-2.229a.422.422 0 0 1 .798.272l-.759 2.229a.42.42 0 0 1-.399.286zM783.914 381.928a.42.42 0 0 1-.399-.558l.759-2.228a.419.419 0 0 1 .535-.263.42.42 0 0 1 .263.535l-.759 2.228a.423.423 0 0 1-.399.286z"/><path fill="#020203" d="M778.281 374.698s1.197-1.92 3.664-1.784c2.467.136 3.799 1.962 3.799 1.962s-1.34 4.085 1.877 6.499c3.216 2.414 5.849 1.958 5.849 1.958l2.486-.716 2.005-3.443-6.565-8.02-8.808-5.373-4.902 3.925.595 4.992z"/><path fill="#020203" d="M786.045 376.87a.412.412 0 0 1-.164-.034l-2.132-.901a.42.42 0 0 1 .329-.776l2.132.901a.42.42 0 0 1 .223.552.42.42 0 0 1-.388.258zM777.584 377.709a.422.422 0 0 1-.077-.835l2.454-.451c.239-.041.45.11.491.338a.42.42 0 0 1-.337.49l-2.454.451a.408.408 0 0 1-.077.007zM781.697 389.862a.42.42 0 0 1-.116-.826l2.217-.638a.42.42 0 1 1 .233.809l-2.217.638a.4.4 0 0 1-.117.017zM765.47 387.98a.421.421 0 0 1-.078-.835c8.38-1.57 7.718-7.048 7.686-7.281a.421.421 0 0 1 .834-.119c.01.064.836 6.504-8.364 8.228a.426.426 0 0 1-.078.007z"/><path fill="#6B82BB" d="m770.083 401.189-14.222-17.949s-37.548 20.241-31.396 40.835c6.152 20.594 38.891 17.177 38.891 17.177l5.148-37.202 1.579-2.861z"/><path fill="#425180" d="M759.38 430.961c-.28-.029-.446-.238-.418-.47 1.929-16.643 9.131-26.591 9.204-26.69a.42.42 0 1 1 .677.499c-.07.097-7.143 9.882-9.045 26.289a.421.421 0 0 1-.418.372z"/><path fill="#425180" d="M753.639 431.296c-.433 0-.831-.147-1.169-.436-.425-.364-.613-.828-.544-1.342.34-2.524 7.404-5.914 8.208-6.293a.422.422 0 0 1 .549.584c-.392.709-3.904 6.948-6.681 7.453a1.995 1.995 0 0 1-.363.034zm5.597-6.686c-2.802 1.452-6.294 3.673-6.476 5.021-.021.154-.01.361.258.589a.93.93 0 0 0 .832.214c1.664-.302 4.037-3.635 5.386-5.824zM820.512 458.156a.421.421 0 0 1-.049-.839l32.072-3.779a.42.42 0 1 1 .098.836l-32.072 3.779c-.016.003-.032.003-.049.003zM766.864 407.096a.423.423 0 0 1-.328-.156l-16.372-20.208a.422.422 0 0 1 .655-.53l16.372 20.207a.422.422 0 0 1-.327.687z"/><path fill="#FFF" d="M791.061 603.396c-6.459 0-13.643-.53-20.665-2.121a.423.423 0 0 1-.318-.505.42.42 0 0 1 .505-.318c20.776 4.706 42.999.047 43.222 0a.42.42 0 1 1 .175.822c-.148.035-10.104 2.122-22.919 2.122z"/><path fill="#6B82BB" d="M740.311 648.545c-.614-.082-1.026-.687-.918-1.326.512-3.029 2.333-11.492 7.123-15.084 5.887-4.414 18.223-6.18 22.708-9.123 4.485-2.943 9.505-10.048 12.182-8.702 2.677 1.345 7.723 7.525 15.012 6.642 7.289-.883 10.653-2.649 12.616-.883 1.962 1.766 3.084 26.486 2.243 27.958-.841 1.471-11.108.112-12.002.35-.894.238-3.417-5.648-5.099-4.765-1.682.883-3.734 3.644-6.213 4.912-2.312 1.184-40.302 1.007-47.652.021z"/><path fill="#F6A357" d="M784.675 406.681s-2.499 19.231-3.72 32.174c-.94 10.037-2.176 26.208-2.667 32.946a79.15 79.15 0 0 1-5.32-.323c.533-5.727 1.797-17.954 3.776-31.177 2.723-18.249 4.955-33.62 4.955-33.62 2.372-2.204 2.976 0 2.976 0z"/><path fill="#FFF" d="M779.244 400.356s-.751 4.097 4.015 5.086c3.562.74 8.555-4.412 8.555-4.412s2.171 8.035-.032 9.595-8.52-4.639-8.52-4.639-6.373 5.687-7.794 3.314c-1.421-2.374 3.776-8.944 3.776-8.944z"/><path fill="#425180" d="M789.295 461.737a.422.422 0 0 1-.401-.549c2.743-8.625 6.827-21.801 6.836-22.755-.138-.416-2.446-5.383-3.959-8.601a.422.422 0 0 1 .136-.521c3.505-2.519 7.27-5.465 7.692-6.175-.359-1.25-4.533-13.543-7.338-21.748a.422.422 0 0 1 .798-.273c.74 2.167 7.235 21.186 7.387 21.937.055.274.202.996-7.763 6.739.766 1.632 3.666 7.82 3.867 8.473.211.684-3.611 12.982-6.853 23.179a.421.421 0 0 1-.402.294zM763.942 460.455a.422.422 0 0 1-.421-.398c-.265-4.987-1.088-21.341-.539-22.408.495-.962 4.753-7.719 5.649-9.139-1.341-1.718-4.034-5.189-4.188-5.572-.097-.246-.232-.582 12.683-22.794a.422.422 0 0 1 .73.424c-4.776 8.212-11.892 20.6-12.565 22.162.44.663 2.739 3.644 4.186 5.495.11.14.119.334.025.484-.052.083-5.246 8.307-5.771 9.326-.339.955.207 13.989.632 21.977a.422.422 0 0 1-.399.443h-.022z"/><path fill="#F8B169" d="M780.133 624.566a.425.425 0 0 1-.214-.058l-7.165-4.228a.422.422 0 0 1-.149-.577.425.425 0 0 1 .577-.149l7.165 4.228c.2.119.267.377.15.577a.424.424 0 0 1-.364.207zM776.551 627.442a.405.405 0 0 1-.201-.052l-7.326-4.01a.418.418 0 0 1-.167-.57.417.417 0 0 1 .57-.167l7.326 4.01c.204.111.28.367.167.57a.418.418 0 0 1-.369.219z"/><path fill="#F6A357" d="M875.34 529.072h-67.085a2.076 2.076 0 0 1-2.076-2.076v-34.898c0-1.146.929-2.076 2.076-2.076h67.085c1.146 0 2.076.929 2.076 2.076v34.898a2.075 2.075 0 0 1-2.076 2.076z"/><path fill="#F8B169" d="M873.157 529.072h-67.085a2.076 2.076 0 0 1-2.076-2.076v-34.898c0-1.146.929-2.076 2.076-2.076h67.085c1.146 0 2.076.929 2.076 2.076v34.898a2.077 2.077 0 0 1-2.076 2.076z"/><path fill="#425180" d="M875.232 507.137h-71.184a.421.421 0 0 1 0-.842h71.184a.421.421 0 0 1 0 .842z"/><path fill="#425180" d="M817.945 516.848h-3.523a.421.421 0 0 1-.421-.421v-9.711c0-.232.188-.421.421-.421h3.523c.233 0 .421.189.421.421v9.711a.422.422 0 0 1-.421.421zm-3.103-.842h2.681v-8.869h-2.681v8.869zM864.859 516.848h-3.523a.421.421 0 0 1-.421-.421v-9.711c0-.232.188-.421.421-.421h3.523c.233 0 .421.189.421.421v9.711a.421.421 0 0 1-.421.421zm-3.102-.842h2.681v-8.869h-2.681v8.869z"/><ellipse fill="#F8AE4A" cx="553.644" cy="524.691" rx="90.082" ry="9.729"/><path fill="#F8AE4A" d="M463.562 503.122h180.164v21.569H463.562z"/><ellipse fill="#FBC481" cx="553.644" cy="503.122" rx="90.082" ry="9.729"/><path fill="#F4942E" d="M577.377 518.757c-1.225 0-1.924-.006-1.966-.006-.322-.003-.581-.334-.578-.74.002-.403.263-.729.583-.729.046.021.713.006 1.966.006 6.483 0 27.709-.165 43.783-2.191.311-.054.606.254.637.657.033.403-.201.763-.521.804-16.127 2.034-37.406 2.199-43.904 2.199z"/><path fill="#F08463" d="M503.771 236.557s6.908-4.295 8.19-5.994c1.282-1.699 1.033-6.392 1.033-6.392s.96-8.386-.537-9.875c-1.497-1.489-4.974-.145-4.974-.145s-9.014-3.687-14.107-1.377c-5.093 2.31-3.009 20.998-3.009 20.998l7.688 5.83 5.716-3.045z"/><path fill="#F08463" d="M491.246 215.473s-3.558 8.871.258 10.494c3.816 1.623 10.584 2.331 10.584 2.331l3.978-11.218-14.82-1.607z"/><path fill="#F08463" d="M512.671 228.812s-4.525-10.723-7.637-8.812c-3.112 1.912-.486 6.697-.486 6.697s-7.847 3.456-5.991 8.721l14.114-6.606z"/><path fill="#020203" d="M498.556 235.84a.42.42 0 0 1-.397-.282c-1.732-4.912 4.171-8.239 5.816-9.056-.909-1.897-1.704-5.299.839-6.861.51-.312 1.076-.374 1.678-.181 3.076.986 6.426 8.854 6.568 9.188a.421.421 0 0 1-.776.328c-.92-2.179-3.8-7.993-6.048-8.714-.363-.115-.685-.086-.98.097-2.733 1.678-.362 6.091-.339 6.135a.418.418 0 0 1-.199.587c-.075.033-7.468 3.362-5.764 8.196a.421.421 0 0 1-.258.537.385.385 0 0 1-.14.026zM497.566 225.411c-1.829 0-3.729-2.11-3.819-2.211a.422.422 0 0 1 .629-.56c.59.661 2.395 2.291 3.618 1.86.942-.326 2.299-6.003 3.014-11.076a.414.414 0 0 1 .476-.358.42.42 0 0 1 .358.476c-.366 2.594-1.705 11.109-3.572 11.755a2.162 2.162 0 0 1-.704.114z"/><path fill="#020203" d="M501.011 226.725c-.234 0-.462-.032-.681-.097-1.471-.432-1.974-2.142-1.995-2.214a.42.42 0 0 1 .288-.52.426.426 0 0 1 .521.288c.004.013.402 1.341 1.427 1.639.786.225 1.81-.199 2.979-1.228a.422.422 0 0 1 .557.632c-1.133.998-2.171 1.5-3.096 1.5z"/><path fill="#F18776" d="m506.123 219.808 1.361-5.656-1.361 5.656z"/><path fill="#020203" d="M506.123 220.23a.421.421 0 0 1-.41-.52l1.361-5.657a.421.421 0 0 1 .82.197l-1.361 5.657a.424.424 0 0 1-.41.323zM491.326 225.086c-.485 0-.986-.139-1.498-.417a.421.421 0 0 1 .402-.74c.698.379 1.326.414 1.917.103 2.452-1.285 3.695-8.084 3.967-10.595a.435.435 0 0 1 .464-.374.423.423 0 0 1 .374.464c-.042.387-1.063 9.494-4.413 11.251a2.572 2.572 0 0 1-1.213.308zM534.967 235.418s-11.762-5.431-17.845-1.843c-6.083 3.587-20.446 74.398-15.838 83.912 4.608 9.514 31.275 11.361 35.878 8.8 4.603-2.561 1.313-87.731 1.313-87.731l-3.508-3.138z"/><path fill="#F08463" d="M595.496 238.835s-5.659-5.843-6.49-7.802c-.831-1.959.55-6.452.55-6.452s1.104-8.368 2.918-9.449 4.86 1.067 4.86 1.067 9.64-1.389 14.019 2.089c4.38 3.477-2.178 21.1-2.178 21.1l-8.873 3.789-4.806-4.342z"/><path fill="#F08463" d="M612.765 221.423s1.298 9.47-2.798 10.118c-4.096.648-10.833-.308-10.833-.308l-1.136-11.848 14.767 2.038z"/><path fill="#F08463" d="M588.743 229.161s6.993-9.304 9.548-6.694c2.555 2.61-1.154 6.615-1.154 6.615s6.773 5.258 3.695 9.914l-12.089-9.835z"/><path fill="#020203" d="M600.831 239.417a.42.42 0 0 1-.351-.653c2.827-4.276-3.537-9.3-3.601-9.35a.422.422 0 0 1-.052-.618c.036-.037 3.407-3.742 1.162-6.034-.241-.249-.54-.361-.927-.332-2.357.154-6.562 5.093-7.982 6.984a.422.422 0 0 1-.675-.505c.218-.29 5.378-7.109 8.602-7.319.631-.035 1.164.156 1.585.583 2.086 2.132.489 5.24-.853 6.859 1.397 1.193 6.315 5.851 3.442 10.197a.418.418 0 0 1-.35.188zM604.894 229.607c-.472 0-.929-.101-1.327-.36-1.655-1.08-.887-9.665-.613-12.27.025-.23.222-.387.463-.375a.423.423 0 0 1 .376.463c-.537 5.095-.6 10.932.234 11.477 1.089.714 3.228-.427 3.96-.925a.422.422 0 0 1 .474.696c-.096.065-1.921 1.294-3.567 1.294z"/><path fill="#020203" d="M610.441 229.766c-.504 0-1.039-.079-1.505-.318-.55-.283-.925-.742-1.113-1.363-.687-2.271 1.556-9.004 1.814-9.764a.42.42 0 0 1 .535-.264.423.423 0 0 1 .263.534c-.677 1.995-2.321 7.546-1.805 9.25.121.399.347.679.691.857 1.014.522 2.665-.019 2.681-.025a.42.42 0 0 1 .27.798 6.331 6.331 0 0 1-1.831.295zM601.151 230.041c-1.099 0-2.185-.766-3.228-2.28a.421.421 0 1 1 .693-.478c.886 1.285 1.77 1.923 2.596 1.914 1.056-.042 1.77-1.231 1.777-1.243a.422.422 0 0 1 .729.421c-.037.065-.94 1.602-2.473 1.664-.031.002-.063.002-.094.002z"/><path fill="#F18776" d="m597.281 222.016.053-5.817-.053 5.817z"/><path fill="#020203" d="M597.281 222.436a.421.421 0 0 1-.421-.425l.053-5.817a.42.42 0 1 1 .842.008l-.053 5.817a.42.42 0 0 1-.421.417z"/><path fill="#B2769B" d="M555.539 265.356s13.053.968 24.439-5.58 8.812-23.543 8.812-23.543l25.033 2.324s6.228 31.925-9.358 48.422c-11.124 11.774-31.038 11.774-31.038 11.774l1.094 34.067-16.223-23.13-2.759-44.334z"/><path fill="#F08463" d="M557.527 458.244 557.44 475l-25.504-1.4v-15.49z"/><path fill="#94B3DF" d="M567.171 479.75s17.301 7.75 23.946 14.345c6.646 6.594 6.884 10.979 6.048 13.111-.836 2.132-48.392-1.179-48.392-1.179s-.193-13.089-5.286-12.371c-5.093.719-2.612 12.502-2.612 12.502l-14.39-.491s-.343-13.018.828-18.095c1.263-5.478 4.623-13.971 4.623-13.971l35.235 6.149z"/><path fill="#F08463" d="M556.128 474.09s20.31 9.557 16.666 10.628c-3.643 1.071-24.059.763-29.989-1.562s-10.87-9.555-10.87-9.555l13.828-5.192 10.365 5.681z"/><path fill="#B2769B" d="m486.395 229.949 23.24 7.116s-3.251 14.068 1.404 21.601 25.563 6.524 25.563 6.524l-10.044 33.561s-32.208-1.088-43.75-22.129c-11.542-21.04 3.587-46.673 3.587-46.673z"/><path fill="#94B3DF" d="M501.178 389.376s-12.979 12.683-21.185 16.284c-8.206 3.601-12.194 2.273-13.799.78-1.605-1.494 18.049-42.677 18.049-42.677s11.724 4.426 12.873-.361c1.149-4.787-10.215-6.717-10.215-6.717l5.492-12.641s11.663 4.341 15.822 7.094c7.328 4.85 10.817 13.644 10.817 13.644l-17.854 24.594z"/><path fill="#F6A357" d="M580.814 386.722c.379 39.319-13.602 85.614-14.922 86.007-1.333.379-37.494.351-39.192-.407-1.713-.772 13.307-62.017 14.332-81.669 1.039-19.666 4.52-56.978 4.52-56.978l22.558-1.516 5.867-.393s2.302 5.573 4.225 18.417c1.32 8.689 2.457 20.691 2.612 36.539z"/><path fill="#F8B169" d="m578.203 350.183-18.712 4.029-3.958.702v-18.558l12.578-4.197 5.867-.393c-.001 0 2.302 5.573 4.225 18.417z"/><path fill="#F8B169" d="M558.454 334.332s5.265 74.26-24.168 84.368c-19.759 6.786-30.44-13.464-35.326-27.507-2.996-8.611.212-18.38 8.003-23.117.313-.19.623-.365.929-.522l1.108-.569a23.568 23.568 0 0 1 9.336-2.562l5.166-38.135 25.215 5.484 9.737 2.56z"/><path fill="#5E6AA6" d="M535.57 418.736a.42.42 0 0 1-.163-.81c23.302-9.823 22.416-62.895 22.405-63.431a.42.42 0 0 1 .332-.42l13.571-2.958a.421.421 0 0 1 .178.822l-13.233 2.884c.071 5.05.162 54.145-22.927 63.878a.392.392 0 0 1-.163.035zM517.447 381.139a.425.425 0 0 1-.421-.441l.888-18.017a.433.433 0 0 1 .441-.4.421.421 0 0 1 .4.441l-.888 18.017a.42.42 0 0 1-.42.4z"/><path fill="#5E6AA6" d="M513.793 377.123c-.521 0-.775-.236-.897-.454-.795-1.424 3.003-6.163 4.675-8.135a.42.42 0 0 1 .74.307c-.026.315-.672 7.718-4.204 8.258a2.12 2.12 0 0 1-.314.024zm3.494-6.921c-2.324 2.902-3.969 5.59-3.655 6.056.014.012.115.042.348.008 1.929-.296 2.915-3.724 3.307-6.064zM525.601 346.139a.42.42 0 0 1-.087-.834c.058-.012 5.848-1.312 6.875-6.418a.417.417 0 0 1 .496-.33.42.42 0 0 1 .329.496c-1.136 5.655-7.264 7.02-7.524 7.076a.467.467 0 0 1-.089.01z"/><path fill="#B2769B" d="M542.303 265.447c-5.647 0-4.527-.965-15.772.828-6.971 1.112-4.492 33.611-4.492 33.611s-1.311 26.959-1.211 32.585c.015.835 12.449 4.634 23.908 5.162 17.785.819 26.496-3.845 29.784-4.814.858-.253-14.518-66.723-14.518-66.723l-17.699-.649z"/><path fill="#FFF" d="M586.923 267.616c-.195 0-.395-.038-.6-.113-2.367-.873-4.902-6.947-5.183-7.636a.418.418 0 0 1 .132-.492.425.425 0 0 1 .509-.005c1.112.826 6.647 5.051 6.479 7.136-.023.288-.156.685-.654.942a1.477 1.477 0 0 1-.683.168zm-4.331-6.549c1.013 2.141 2.684 5.153 4.021 5.646.234.085.425.082.605-.013.155-.08.193-.163.2-.263.082-.999-2.464-3.46-4.826-5.37zM506.574 266.441c-.369 0-.838-.167-1.296-.801-1.273-1.762 3.375-6.027 4.83-7.292a.421.421 0 0 1 .686.42c-.302 1.208-1.912 7.25-3.985 7.65a1.24 1.24 0 0 1-.235.023zm3.017-6.483c-2.267 2.157-4.107 4.528-3.63 5.189.367.509.61.461.688.444.959-.184 2.168-3.064 2.942-5.633zM572.177 299.173a.422.422 0 0 1-.303-.714c.03-.032 3.038-3.227 2.898-9.328-.143-6.156-5.885-13.594-5.943-13.669a.42.42 0 1 1 .664-.519c.244.312 5.973 7.731 6.121 14.168.149 6.474-3.001 9.795-3.135 9.933a.42.42 0 0 1-.302.129z"/><path fill="#5ABBDE" d="M560.328 260.792c-1.38.001-2.883-1.638-3.582-4.014-.359-1.219-.447-2.446-.248-3.453.217-1.105.755-1.836 1.516-2.06 1.5-.441 3.275 1.293 4.056 3.945.78 2.652.224 5.075-1.268 5.514a1.627 1.627 0 0 1-.474.068zm-1.846-8.751a.827.827 0 0 0-.229.031c-.439.13-.777.645-.928 1.415-.173.877-.092 1.962.23 3.053.68 2.311 2.13 3.638 3.009 3.377.876-.258 1.379-2.157.698-4.468-.625-2.119-1.897-3.408-2.78-3.408z"/><path fill="#020203" d="M559.341 248.939s3.339-4.096 2.004-10.107c-.905-4.075-2.803-5.311-2.803-5.311s2.496-5.756-5.781-4.986c-8.277.77-15.119.545-18.306 7.939-1.877 4.356-.362 13.42-.362 13.42l25.248-.955z"/><path fill="#F08463" d="m541.486 256.718.779 10.112s2.047 2.766 8 2.792c4.435.019 5.656-2.352 5.656-2.352l-1.749-8.767-10.863-1.527-1.823-.258z"/><path fill="#020203" d="M541.454 256.1c.047.274.177.592.369.953 2.652 4.877 10.776 6.366 13.339 6.398l-.99-4.948-12.718-2.403z"/><path fill="#F08463" d="M554.652 235.28s6.283 12.27 4.734 19.475c-1.55 7.205-8.072 6.487-12.017 5.355-3.946-1.132-5.883-3.39-5.883-3.39s-3.532 1.445-6.151-1.761c-2.619-3.206-1.37-7.149.636-8.158 2.005-1.009 4.546.327 4.546.327l-2.145-3.546c-.001 0 6.931-19.118 16.28-8.302z"/><path fill="#020203" d="M540.516 247.128s5.481.814 8.937-5.418c3.456-6.232 2.981-8.693 2.981-8.693l4.078 6.038s.615-4.365-1.256-7.03-3.636-2.001-3.636-2.001l-11.806 3.608-2.653 9.751 3.355 3.745zM540.281 253.092a.423.423 0 0 1-.291-.116l-3.626-3.443a.422.422 0 0 1 .581-.611l3.626 3.443a.422.422 0 0 1-.29.727z"/><path fill="#020203" d="M536.601 252.318a.422.422 0 0 1-.087-.834l2.351-.489c.245-.048.452.1.499.327a.422.422 0 0 1-.326.498l-2.351.489a.441.441 0 0 1-.086.009z"/><path fill="#F08463" d="m555.539 265.356 5.684-.106s-.202 7.395-9.631 8.924-16.022-8.974-16.022-8.974l9.428-.417 10.541.573z"/><path fill="#5ABBDE" d="M539.048 263.597c-1.549.001-2.779-2.15-2.805-4.905-.007-.864.014-1.351.24-2.096a.421.421 0 0 1 .806.244c-.193.637-.21 1.051-.204 1.845.023 2.403 1.052 4.071 1.963 4.071.921-.008 1.923-1.697 1.903-4.107-.023-2.403-1.051-4.071-1.962-4.071a.42.42 0 1 1-.015-.842c1.563 0 2.792 2.149 2.819 4.905.025 2.766-1.175 4.943-2.729 4.956h-.016z"/><path fill="#020203" d="M555.016 250.71a.42.42 0 0 1-.391-.575c1.094-2.783-1.538-5.674-1.564-5.703a.422.422 0 0 1 .617-.573c.123.133 3.02 3.304 1.731 6.584a.422.422 0 0 1-.393.267zM556.863 239.967a.412.412 0 0 1-.211-.058c-.84-.487-2.176-.222-2.188-.219a.426.426 0 0 1-.498-.328.422.422 0 0 1 .328-.498c.066-.014 1.66-.334 2.78.317a.421.421 0 0 1-.211.786zM555.348 244.426a.42.42 0 0 1-.373-.616c.753-1.447 2.167-1.349 2.812-1.097.215.086.322.33.237.546a.42.42 0 0 1-.545.238c-.126-.047-1.18-.403-1.758.702a.42.42 0 0 1-.373.227zM548.084 241.046a.43.43 0 0 1-.327-.71c.842-.989 2.455-1.217 2.524-1.227a.428.428 0 0 1 .484.368.433.433 0 0 1-.367.485c-.014.002-1.358.195-1.985.932a.433.433 0 0 1-.329.152zM550.997 244.735a.421.421 0 0 1-.288-.113c-.914-.855-1.797-.158-1.892-.075a.42.42 0 0 1-.55-.638c.521-.454 1.823-1.018 3.017.098a.42.42 0 0 1-.287.728zM553.063 255.457a.958.958 0 0 1-.196-.019c-1.08-.221-1.981-2.157-1.934-2.803a.596.596 0 0 1 .219-.38c.163-.11.599-.402 4.574.837a.422.422 0 0 1 .163.71c-.434.406-1.854 1.655-2.826 1.655zm-1.23-2.472c.181.549.733 1.533 1.201 1.628.296.054 1.02-.384 1.712-.937-1.161-.338-2.352-.632-2.913-.691z"/><path fill="#FFF" d="M549.916 278.568c-3.877.001-5.538-3.034-6.06-4.296-.962.598-3.213 1.714-5.076.43-1.777-1.221-1.563-3.613-1.312-4.833-1.076.276-3.078.6-4.225-.373a1.345 1.345 0 0 1-.491-1.077c.023-1.494 2.297-3.343 2.557-3.549a.42.42 0 0 1 .625.117c.06.101 6.018 10.048 15.008 8.845 8.976-1.196 9.855-8.335 9.863-8.407a.419.419 0 0 1 .643-.311c.835.528 2.084 1.717 1.468 2.823-.456.822-1.265 1.18-1.767 1.328.177 1.075.455 3.909-1.322 4.845-1.522.802-3.135.254-3.941-.129-.374 1.317-1.688 4.452-5.723 4.583a6.893 6.893 0 0 1-.247.004zm-5.356-4.788c.35.96 1.808 4.064 5.575 3.943 3.762-.122 4.769-3.185 4.994-4.152-1.147.499-2.495.886-4.075 1.097-2.394.318-4.568-.092-6.494-.888zm-6.128-4.302c-.159.547-.873 3.364.824 4.531 1.638 1.127 3.86-.245 4.421-.629-2.108-1.036-3.877-2.506-5.245-3.902zm17.624 3.644c.558.293 2.056.941 3.379.243 1.275-.672 1.053-3.179.836-4.221-.828 1.369-2.141 2.863-4.215 3.978zm-20.583-7.29c-.835.736-1.869 1.882-1.879 2.601a.5.5 0 0 0 .195.42c.99.84 3.223.318 4.074.023a24.447 24.447 0 0 1-2.39-3.044zm26.029.382c-.137.551-.4 1.381-.883 2.312.122-.02 1.117-.2 1.561-.998.22-.395-.249-.939-.678-1.314zM504.374 239.667c-.207 0-.417-.019-.625-.059-1.624-.311-2.284-1.768-2.484-3.023-.873.994-2.513 2.387-4.753 2.282-2.72-.136-3.703-3.505-4.014-5.077-1.031.882-3.15 2.448-4.729 2.035-2.177-.577-1.557-4.9-1.478-5.391a.421.421 0 1 1 .832.132c-.166 1.05-.364 4.12.862 4.445 1.357.356 3.712-1.579 4.512-2.354a.421.421 0 0 1 .712.256c.005.049.583 4.975 3.346 5.113 2.845.141 4.688-2.797 4.706-2.826a.423.423 0 0 1 .782.245c-.008.12-.154 2.951 1.866 3.337 2.125.407 4.573-2.223 4.596-2.25a.421.421 0 0 1 .625.565c-.104.114-2.359 2.57-4.756 2.57zM601.903 242.774c-2.448 0-5.195-3.175-6.161-4.396-.643.861-2.052 2.537-3.365 2.657-1.724.165-3.552-3.372-3.9-4.081a.42.42 0 0 1 .192-.563.423.423 0 0 1 .565.192c.762 1.547 2.189 3.703 3.067 3.613 1.08-.099 2.589-2.026 3.079-2.761a.427.427 0 0 1 .343-.187.427.427 0 0 1 .35.174c.939 1.297 3.797 4.611 5.949 4.506 2.547-.157 4.555-3.549 4.576-3.583a.42.42 0 0 1 .757.061c.303.788 1.394 2.854 2.795 2.937l.077.002c1.379 0 2.788-2.141 3.223-2.982a.421.421 0 1 1 .749.387c-.074.143-1.8 3.438-3.973 3.438-.041 0-.082-.001-.125-.004-1.598-.094-2.694-1.769-3.205-2.761-.783 1.101-2.566 3.207-4.821 3.346a3.324 3.324 0 0 1-.172.005z"/><path fill="#5E6AA6" d="M565.891 473.15a.424.424 0 0 1-.38-.237c-.021-.043-2.082-4.254-4.544-4.906-1.985-.538-5.696 3.135-6.957 4.591a.418.418 0 0 1-.422.132.417.417 0 0 1-.307-.319c-.008-.037-.869-3.822-4.742-5.468-3.797-1.618-9.697 4.891-9.756 4.957a.422.422 0 0 1-.699-.11c-.021-.047-2.093-4.638-4.598-4.812l-.108-.003c-2.09 0-5.265 4.01-6.331 5.583a.415.415 0 0 1-.584.112.42.42 0 0 1-.114-.584c.419-.618 4.111-5.954 7.034-5.954.055 0 .107.001.16.005 2.437.169 4.348 3.408 5.036 4.745 1.493-1.541 6.531-6.315 10.288-4.717 3.228 1.372 4.543 4.022 5.01 5.32 1.352-1.453 4.894-4.928 7.305-4.293 2.835.753 4.997 5.167 5.087 5.353a.424.424 0 0 1-.378.605z"/></svg>