<?xml version="1.0" encoding="utf-8"?>
<!-- Generator: Adobe Illustrator 25.2.1, SVG Export Plug-In . SVG Version: 6.00 Build 0)  -->
<svg version="1.1" id="Capa_1" xmlns="http://www.w3.org/2000/svg" xmlns:xlink="http://www.w3.org/1999/xlink" x="0px" y="0px"
	 viewBox="0 0 1080 1080" enable-background="new 0 0 1080 1080" xml:space="preserve">
<g>
	<g>
		<g>
			<polyline fill="none" stroke="#5388B9" stroke-width="0.5311" stroke-miterlimit="10" points="658.89,385.963 934.279,303.403 
				1009.487,376.272 			"/>
			<g>
				<polygon fill="none" stroke="#6AA7DC" stroke-width="0.5109" stroke-miterlimit="10" points="658.89,385.963 1003.408,385.963 
					1003.408,376.272 673.886,376.272 				"/>
				
					<line fill="none" stroke="#6AA7DC" stroke-width="0.5109" stroke-miterlimit="10" x1="673.886" y1="376.272" x2="673.886" y2="385.963"/>
				<g>
					
						<line fill="none" stroke="#6AA7DC" stroke-width="0.5311" stroke-miterlimit="10" x1="673.886" y1="385.963" x2="683.578" y2="376.272"/>
					
						<line fill="none" stroke="#6AA7DC" stroke-width="0.5311" stroke-miterlimit="10" x1="673.886" y1="376.272" x2="683.578" y2="385.963"/>
				</g>
				<g>
					
						<line fill="none" stroke="#6AA7DC" stroke-width="0.5311" stroke-miterlimit="10" x1="683.578" y1="385.963" x2="693.269" y2="376.272"/>
					
						<line fill="none" stroke="#6AA7DC" stroke-width="0.5311" stroke-miterlimit="10" x1="683.578" y1="376.272" x2="693.269" y2="385.963"/>
				</g>
				<g>
					
						<line fill="none" stroke="#6AA7DC" stroke-width="0.5311" stroke-miterlimit="10" x1="693.269" y1="385.963" x2="702.96" y2="376.272"/>
					
						<line fill="none" stroke="#6AA7DC" stroke-width="0.5311" stroke-miterlimit="10" x1="693.269" y1="376.272" x2="702.96" y2="385.963"/>
				</g>
				<g>
					
						<line fill="none" stroke="#6AA7DC" stroke-width="0.5311" stroke-miterlimit="10" x1="702.96" y1="385.963" x2="712.651" y2="376.272"/>
					
						<line fill="none" stroke="#6AA7DC" stroke-width="0.5311" stroke-miterlimit="10" x1="702.96" y1="376.272" x2="712.651" y2="385.963"/>
				</g>
				<g>
					
						<line fill="none" stroke="#6AA7DC" stroke-width="0.5311" stroke-miterlimit="10" x1="712.651" y1="385.963" x2="722.342" y2="376.272"/>
					
						<line fill="none" stroke="#6AA7DC" stroke-width="0.5311" stroke-miterlimit="10" x1="712.651" y1="376.272" x2="722.342" y2="385.963"/>
				</g>
				<g>
					
						<line fill="none" stroke="#6AA7DC" stroke-width="0.5311" stroke-miterlimit="10" x1="722.342" y1="385.963" x2="732.033" y2="376.272"/>
					
						<line fill="none" stroke="#6AA7DC" stroke-width="0.5311" stroke-miterlimit="10" x1="722.342" y1="376.272" x2="732.033" y2="385.963"/>
				</g>
				<g>
					
						<line fill="none" stroke="#6AA7DC" stroke-width="0.5311" stroke-miterlimit="10" x1="732.033" y1="385.963" x2="741.724" y2="376.272"/>
					
						<line fill="none" stroke="#6AA7DC" stroke-width="0.5311" stroke-miterlimit="10" x1="732.033" y1="376.272" x2="741.724" y2="385.963"/>
				</g>
				<g>
					
						<line fill="none" stroke="#6AA7DC" stroke-width="0.5311" stroke-miterlimit="10" x1="741.724" y1="385.963" x2="751.416" y2="376.272"/>
					
						<line fill="none" stroke="#6AA7DC" stroke-width="0.5311" stroke-miterlimit="10" x1="741.724" y1="376.272" x2="751.416" y2="385.963"/>
				</g>
				<g>
					
						<line fill="none" stroke="#6AA7DC" stroke-width="0.5311" stroke-miterlimit="10" x1="751.416" y1="385.963" x2="761.107" y2="376.272"/>
					
						<line fill="none" stroke="#6AA7DC" stroke-width="0.5311" stroke-miterlimit="10" x1="751.416" y1="376.272" x2="761.107" y2="385.963"/>
				</g>
				<g>
					
						<line fill="none" stroke="#6AA7DC" stroke-width="0.5311" stroke-miterlimit="10" x1="761.107" y1="385.963" x2="770.798" y2="376.272"/>
					
						<line fill="none" stroke="#6AA7DC" stroke-width="0.5311" stroke-miterlimit="10" x1="761.107" y1="376.272" x2="770.798" y2="385.963"/>
				</g>
				<g>
					
						<line fill="none" stroke="#6AA7DC" stroke-width="0.5311" stroke-miterlimit="10" x1="770.798" y1="385.963" x2="780.489" y2="376.272"/>
					
						<line fill="none" stroke="#6AA7DC" stroke-width="0.5311" stroke-miterlimit="10" x1="770.798" y1="376.272" x2="780.489" y2="385.963"/>
				</g>
				<g>
					
						<line fill="none" stroke="#6AA7DC" stroke-width="0.5311" stroke-miterlimit="10" x1="780.489" y1="385.963" x2="790.18" y2="376.272"/>
					
						<line fill="none" stroke="#6AA7DC" stroke-width="0.5311" stroke-miterlimit="10" x1="780.489" y1="376.272" x2="790.18" y2="385.963"/>
				</g>
				<g>
					
						<line fill="none" stroke="#6AA7DC" stroke-width="0.5311" stroke-miterlimit="10" x1="790.18" y1="385.963" x2="799.871" y2="376.272"/>
					
						<line fill="none" stroke="#6AA7DC" stroke-width="0.5311" stroke-miterlimit="10" x1="790.18" y1="376.272" x2="799.871" y2="385.963"/>
				</g>
				<g>
					
						<line fill="none" stroke="#6AA7DC" stroke-width="0.5311" stroke-miterlimit="10" x1="799.871" y1="385.963" x2="809.562" y2="376.272"/>
					
						<line fill="none" stroke="#6AA7DC" stroke-width="0.5311" stroke-miterlimit="10" x1="799.871" y1="376.272" x2="809.562" y2="385.963"/>
				</g>
				<g>
					
						<line fill="none" stroke="#6AA7DC" stroke-width="0.5311" stroke-miterlimit="10" x1="809.562" y1="385.963" x2="819.254" y2="376.272"/>
					
						<line fill="none" stroke="#6AA7DC" stroke-width="0.5311" stroke-miterlimit="10" x1="809.562" y1="376.272" x2="819.254" y2="385.963"/>
				</g>
				<g>
					
						<line fill="none" stroke="#6AA7DC" stroke-width="0.5311" stroke-miterlimit="10" x1="819.254" y1="385.963" x2="828.945" y2="376.272"/>
					
						<line fill="none" stroke="#6AA7DC" stroke-width="0.5311" stroke-miterlimit="10" x1="819.254" y1="376.272" x2="828.945" y2="385.963"/>
				</g>
				<g>
					
						<line fill="none" stroke="#6AA7DC" stroke-width="0.5311" stroke-miterlimit="10" x1="828.945" y1="385.963" x2="838.636" y2="376.272"/>
					
						<line fill="none" stroke="#6AA7DC" stroke-width="0.5311" stroke-miterlimit="10" x1="828.945" y1="376.272" x2="838.636" y2="385.963"/>
				</g>
				<g>
					
						<line fill="none" stroke="#6AA7DC" stroke-width="0.5311" stroke-miterlimit="10" x1="838.636" y1="385.963" x2="848.327" y2="376.272"/>
					
						<line fill="none" stroke="#6AA7DC" stroke-width="0.5311" stroke-miterlimit="10" x1="838.636" y1="376.272" x2="848.327" y2="385.963"/>
				</g>
				<g>
					
						<line fill="none" stroke="#6AA7DC" stroke-width="0.5311" stroke-miterlimit="10" x1="848.327" y1="385.963" x2="858.018" y2="376.272"/>
					
						<line fill="none" stroke="#6AA7DC" stroke-width="0.5311" stroke-miterlimit="10" x1="848.327" y1="376.272" x2="858.018" y2="385.963"/>
				</g>
				<g>
					
						<line fill="none" stroke="#6AA7DC" stroke-width="0.5311" stroke-miterlimit="10" x1="858.018" y1="385.963" x2="867.709" y2="376.272"/>
					
						<line fill="none" stroke="#6AA7DC" stroke-width="0.5311" stroke-miterlimit="10" x1="858.018" y1="376.272" x2="867.709" y2="385.963"/>
				</g>
				<g>
					
						<line fill="none" stroke="#6AA7DC" stroke-width="0.5311" stroke-miterlimit="10" x1="867.709" y1="385.963" x2="877.4" y2="376.272"/>
					
						<line fill="none" stroke="#6AA7DC" stroke-width="0.5311" stroke-miterlimit="10" x1="867.709" y1="376.272" x2="877.4" y2="385.963"/>
				</g>
				<g>
					
						<line fill="none" stroke="#6AA7DC" stroke-width="0.5311" stroke-miterlimit="10" x1="877.4" y1="385.963" x2="887.092" y2="376.272"/>
					
						<line fill="none" stroke="#6AA7DC" stroke-width="0.5311" stroke-miterlimit="10" x1="877.4" y1="376.272" x2="887.092" y2="385.963"/>
				</g>
				<g>
					
						<line fill="none" stroke="#6AA7DC" stroke-width="0.5311" stroke-miterlimit="10" x1="887.092" y1="385.963" x2="896.783" y2="376.272"/>
					
						<line fill="none" stroke="#6AA7DC" stroke-width="0.5311" stroke-miterlimit="10" x1="887.092" y1="376.272" x2="896.783" y2="385.963"/>
				</g>
				<g>
					
						<line fill="none" stroke="#6AA7DC" stroke-width="0.5311" stroke-miterlimit="10" x1="896.783" y1="385.963" x2="906.474" y2="376.272"/>
					
						<line fill="none" stroke="#6AA7DC" stroke-width="0.5311" stroke-miterlimit="10" x1="896.783" y1="376.272" x2="906.474" y2="385.963"/>
				</g>
				<g>
					
						<line fill="none" stroke="#6AA7DC" stroke-width="0.5311" stroke-miterlimit="10" x1="906.474" y1="385.963" x2="916.165" y2="376.272"/>
					
						<line fill="none" stroke="#6AA7DC" stroke-width="0.5311" stroke-miterlimit="10" x1="906.474" y1="376.272" x2="916.165" y2="385.963"/>
				</g>
				<g>
					
						<line fill="none" stroke="#6AA7DC" stroke-width="0.5311" stroke-miterlimit="10" x1="916.165" y1="385.963" x2="925.856" y2="376.272"/>
					
						<line fill="none" stroke="#6AA7DC" stroke-width="0.5311" stroke-miterlimit="10" x1="916.165" y1="376.272" x2="925.856" y2="385.963"/>
				</g>
				<g>
					
						<line fill="none" stroke="#6AA7DC" stroke-width="0.5311" stroke-miterlimit="10" x1="925.856" y1="385.963" x2="935.547" y2="376.272"/>
					
						<line fill="none" stroke="#6AA7DC" stroke-width="0.5311" stroke-miterlimit="10" x1="925.856" y1="376.272" x2="935.547" y2="385.963"/>
				</g>
				<g>
					
						<line fill="none" stroke="#6AA7DC" stroke-width="0.5311" stroke-miterlimit="10" x1="935.547" y1="385.963" x2="945.238" y2="376.272"/>
					
						<line fill="none" stroke="#6AA7DC" stroke-width="0.5311" stroke-miterlimit="10" x1="935.547" y1="376.272" x2="945.238" y2="385.963"/>
				</g>
				<g>
					
						<line fill="none" stroke="#6AA7DC" stroke-width="0.5311" stroke-miterlimit="10" x1="945.238" y1="385.963" x2="954.93" y2="376.272"/>
					
						<line fill="none" stroke="#6AA7DC" stroke-width="0.5311" stroke-miterlimit="10" x1="945.238" y1="376.272" x2="954.93" y2="385.963"/>
				</g>
				<g>
					
						<line fill="none" stroke="#6AA7DC" stroke-width="0.5311" stroke-miterlimit="10" x1="954.93" y1="385.963" x2="964.621" y2="376.272"/>
					
						<line fill="none" stroke="#6AA7DC" stroke-width="0.5311" stroke-miterlimit="10" x1="954.93" y1="376.272" x2="964.621" y2="385.963"/>
				</g>
				<g>
					
						<line fill="none" stroke="#6AA7DC" stroke-width="0.5311" stroke-miterlimit="10" x1="964.621" y1="385.963" x2="974.312" y2="376.272"/>
					
						<line fill="none" stroke="#6AA7DC" stroke-width="0.5311" stroke-miterlimit="10" x1="964.621" y1="376.272" x2="974.312" y2="385.963"/>
				</g>
				<g>
					
						<line fill="none" stroke="#6AA7DC" stroke-width="0.5311" stroke-miterlimit="10" x1="974.312" y1="385.963" x2="984.003" y2="376.272"/>
					
						<line fill="none" stroke="#6AA7DC" stroke-width="0.5311" stroke-miterlimit="10" x1="974.312" y1="376.272" x2="984.003" y2="385.963"/>
				</g>
				<g>
					
						<line fill="none" stroke="#6AA7DC" stroke-width="0.5311" stroke-miterlimit="10" x1="984.003" y1="385.963" x2="993.694" y2="376.272"/>
					
						<line fill="none" stroke="#6AA7DC" stroke-width="0.5311" stroke-miterlimit="10" x1="984.003" y1="376.272" x2="993.694" y2="385.963"/>
				</g>
				<g>
					
						<line fill="none" stroke="#6AA7DC" stroke-width="0.5311" stroke-miterlimit="10" x1="993.694" y1="385.963" x2="1003.385" y2="376.272"/>
					
						<line fill="none" stroke="#6AA7DC" stroke-width="0.5311" stroke-miterlimit="10" x1="993.694" y1="376.272" x2="1003.385" y2="385.963"/>
				</g>
			</g>
			<g>
				<g>
					
						<line fill="none" stroke="#6AA7DC" stroke-width="0.9927" stroke-miterlimit="10" x1="899.181" y1="388.805" x2="917.294" y2="406.918"/>
					
						<line fill="none" stroke="#6AA7DC" stroke-width="0.9927" stroke-miterlimit="10" x1="917.294" y1="388.805" x2="899.181" y2="406.918"/>
				</g>
				<g>
					
						<line fill="none" stroke="#6AA7DC" stroke-width="0.9927" stroke-miterlimit="10" x1="899.181" y1="406.918" x2="917.294" y2="425.032"/>
					
						<line fill="none" stroke="#6AA7DC" stroke-width="0.9927" stroke-miterlimit="10" x1="917.294" y1="406.918" x2="899.181" y2="425.032"/>
				</g>
				<g>
					
						<line fill="none" stroke="#6AA7DC" stroke-width="0.9927" stroke-miterlimit="10" x1="899.181" y1="425.032" x2="917.294" y2="443.145"/>
					
						<line fill="none" stroke="#6AA7DC" stroke-width="0.9927" stroke-miterlimit="10" x1="917.294" y1="425.032" x2="899.181" y2="443.145"/>
				</g>
				<g>
					
						<line fill="none" stroke="#6AA7DC" stroke-width="0.9927" stroke-miterlimit="10" x1="899.181" y1="443.145" x2="917.294" y2="461.259"/>
					
						<line fill="none" stroke="#6AA7DC" stroke-width="0.9927" stroke-miterlimit="10" x1="917.294" y1="443.145" x2="899.181" y2="461.259"/>
				</g>
				<g>
					
						<line fill="none" stroke="#6AA7DC" stroke-width="0.9927" stroke-miterlimit="10" x1="899.181" y1="461.259" x2="917.294" y2="479.372"/>
					
						<line fill="none" stroke="#6AA7DC" stroke-width="0.9927" stroke-miterlimit="10" x1="917.294" y1="461.259" x2="899.181" y2="479.372"/>
				</g>
				<g>
					
						<line fill="none" stroke="#6AA7DC" stroke-width="0.9927" stroke-miterlimit="10" x1="899.181" y1="479.372" x2="917.294" y2="497.485"/>
					
						<line fill="none" stroke="#6AA7DC" stroke-width="0.9927" stroke-miterlimit="10" x1="917.294" y1="479.372" x2="899.181" y2="497.485"/>
				</g>
				<g>
					
						<line fill="none" stroke="#6AA7DC" stroke-width="0.9927" stroke-miterlimit="10" x1="899.181" y1="497.485" x2="917.294" y2="515.599"/>
					
						<line fill="none" stroke="#6AA7DC" stroke-width="0.9927" stroke-miterlimit="10" x1="917.294" y1="497.485" x2="899.181" y2="515.599"/>
				</g>
				<g>
					
						<line fill="none" stroke="#6AA7DC" stroke-width="0.9927" stroke-miterlimit="10" x1="899.181" y1="515.599" x2="917.294" y2="533.712"/>
					
						<line fill="none" stroke="#6AA7DC" stroke-width="0.9927" stroke-miterlimit="10" x1="917.294" y1="515.599" x2="899.181" y2="533.712"/>
				</g>
				<g>
					
						<line fill="none" stroke="#6AA7DC" stroke-width="0.9927" stroke-miterlimit="10" x1="899.181" y1="533.712" x2="917.294" y2="551.826"/>
					
						<line fill="none" stroke="#6AA7DC" stroke-width="0.9927" stroke-miterlimit="10" x1="917.294" y1="533.712" x2="899.181" y2="551.826"/>
				</g>
				<g>
					
						<line fill="none" stroke="#6AA7DC" stroke-width="0.9927" stroke-miterlimit="10" x1="899.181" y1="551.826" x2="917.294" y2="569.939"/>
					
						<line fill="none" stroke="#6AA7DC" stroke-width="0.9927" stroke-miterlimit="10" x1="917.294" y1="551.826" x2="899.181" y2="569.939"/>
				</g>
				<g>
					
						<line fill="none" stroke="#6AA7DC" stroke-width="0.9927" stroke-miterlimit="10" x1="899.181" y1="569.939" x2="917.294" y2="588.052"/>
					
						<line fill="none" stroke="#6AA7DC" stroke-width="0.9927" stroke-miterlimit="10" x1="917.294" y1="569.939" x2="899.181" y2="588.052"/>
				</g>
				<g>
					
						<line fill="none" stroke="#6AA7DC" stroke-width="0.9927" stroke-miterlimit="10" x1="899.181" y1="588.052" x2="917.294" y2="606.166"/>
					
						<line fill="none" stroke="#6AA7DC" stroke-width="0.9927" stroke-miterlimit="10" x1="917.294" y1="588.052" x2="899.181" y2="606.166"/>
				</g>
				<g>
					
						<line fill="none" stroke="#6AA7DC" stroke-width="0.9927" stroke-miterlimit="10" x1="899.181" y1="606.166" x2="917.294" y2="624.279"/>
					
						<line fill="none" stroke="#6AA7DC" stroke-width="0.9927" stroke-miterlimit="10" x1="917.294" y1="606.166" x2="899.181" y2="624.279"/>
				</g>
				<g>
					
						<line fill="none" stroke="#6AA7DC" stroke-width="0.9927" stroke-miterlimit="10" x1="899.181" y1="624.279" x2="917.294" y2="642.392"/>
					
						<line fill="none" stroke="#6AA7DC" stroke-width="0.9927" stroke-miterlimit="10" x1="917.294" y1="624.279" x2="899.181" y2="642.392"/>
				</g>
				<g>
					
						<line fill="none" stroke="#6AA7DC" stroke-width="0.9927" stroke-miterlimit="10" x1="899.181" y1="642.392" x2="917.294" y2="660.506"/>
					
						<line fill="none" stroke="#6AA7DC" stroke-width="0.9927" stroke-miterlimit="10" x1="917.294" y1="642.392" x2="899.181" y2="660.506"/>
				</g>
				<g>
					
						<line fill="none" stroke="#6AA7DC" stroke-width="0.9927" stroke-miterlimit="10" x1="899.181" y1="660.506" x2="917.294" y2="678.619"/>
					
						<line fill="none" stroke="#6AA7DC" stroke-width="0.9927" stroke-miterlimit="10" x1="917.294" y1="660.506" x2="899.181" y2="678.619"/>
				</g>
				<g>
					
						<line fill="none" stroke="#6AA7DC" stroke-width="0.9927" stroke-miterlimit="10" x1="899.181" y1="678.619" x2="917.294" y2="696.732"/>
					
						<line fill="none" stroke="#6AA7DC" stroke-width="0.9927" stroke-miterlimit="10" x1="917.294" y1="678.619" x2="899.181" y2="696.732"/>
				</g>
				<g>
					
						<line fill="none" stroke="#6AA7DC" stroke-width="0.9927" stroke-miterlimit="10" x1="899.181" y1="696.732" x2="917.294" y2="714.846"/>
					
						<line fill="none" stroke="#6AA7DC" stroke-width="0.9927" stroke-miterlimit="10" x1="917.294" y1="696.732" x2="899.181" y2="714.846"/>
				</g>
				<g>
					
						<line fill="none" stroke="#6AA7DC" stroke-width="0.9927" stroke-miterlimit="10" x1="899.181" y1="714.846" x2="917.294" y2="732.959"/>
					
						<line fill="none" stroke="#6AA7DC" stroke-width="0.9927" stroke-miterlimit="10" x1="917.294" y1="714.846" x2="899.181" y2="732.959"/>
				</g>
				
					<rect x="899.181" y="388.847" fill="none" stroke="#6AA7DC" stroke-width="1.9743" stroke-miterlimit="10" width="18.113" height="344.154"/>
			</g>
			
				<rect x="873.211" y="732.959" transform="matrix(-1 -1.224647e-16 1.224647e-16 -1 1816.4755 1501.7542)" fill="#6AA7DC" width="70.054" height="35.836"/>
			
				<rect x="881.88" y="740.533" transform="matrix(-1 -1.224647e-16 1.224647e-16 -1 1816.4757 1501.7542)" fill="#5F9AD1" width="52.715" height="20.687"/>
			<g>
				
					<polygon fill="none" stroke="#6AA7DC" stroke-width="0.4634" stroke-linecap="round" stroke-linejoin="round" stroke-miterlimit="10" points="
					934.279,373.388 916.165,373.388 934.279,303.403 				"/>
				
					<polyline fill="none" stroke="#6AA7DC" stroke-width="0.4634" stroke-linecap="round" stroke-linejoin="round" stroke-miterlimit="10" points="
					934.279,373.388 918.087,365.961 934.279,365.961 				"/>
				
					<polyline fill="none" stroke="#6AA7DC" stroke-width="0.4634" stroke-linecap="round" stroke-linejoin="round" stroke-miterlimit="10" points="
					934.279,365.961 919.805,359.323 934.279,359.323 				"/>
				
					<polyline fill="none" stroke="#6AA7DC" stroke-width="0.4634" stroke-linecap="round" stroke-linejoin="round" stroke-miterlimit="10" points="
					934.279,359.323 921.375,353.404 934.279,353.404 				"/>
				
					<polyline fill="none" stroke="#6AA7DC" stroke-width="0.4634" stroke-linecap="round" stroke-linejoin="round" stroke-miterlimit="10" points="
					934.279,353.404 922.749,348.116 934.279,348.116 				"/>
				
					<polyline fill="none" stroke="#6AA7DC" stroke-width="0.4634" stroke-linecap="round" stroke-linejoin="round" stroke-miterlimit="10" points="
					934.279,348.116 923.899,343.355 934.279,343.355 				"/>
				
					<polyline fill="none" stroke="#6AA7DC" stroke-width="0.4634" stroke-linecap="round" stroke-linejoin="round" stroke-miterlimit="10" points="
					934.279,343.355 925.072,339.132 934.279,339.132 				"/>
				
					<polyline fill="none" stroke="#6AA7DC" stroke-width="0.4634" stroke-linecap="round" stroke-linejoin="round" stroke-miterlimit="10" points="
					934.279,339.012 926.027,335.227 934.279,335.227 				"/>
				
					<polyline fill="none" stroke="#6AA7DC" stroke-width="0.4634" stroke-linecap="round" stroke-linejoin="round" stroke-miterlimit="10" points="
					934.279,335.227 926.926,331.854 934.279,331.854 				"/>
				
					<polyline fill="none" stroke="#6AA7DC" stroke-width="0.4634" stroke-linecap="round" stroke-linejoin="round" stroke-miterlimit="10" points="
					934.279,331.854 927.715,328.844 934.279,328.844 				"/>
			</g>
			<circle fill="#226BB1" cx="934.279" cy="303.403" r="2.721"/>
			<polygon fill="none" stroke="#5388B9" stroke-width="0.5311" stroke-miterlimit="10" points="687.059,444.915 630.721,444.915 
				658.89,385.963 			"/>
			<polygon fill="#6AA7DC" points="892.351,341.29 926.128,341.29 926.128,373.31 939.638,373.31 939.638,388.847 875.569,388.847 
				875.569,356.354 			"/>
			
				<rect x="979.899" y="373.388" transform="matrix(-1 -1.224647e-16 1.224647e-16 -1 1993.1694 762.2344)" fill="#6AA7DC" width="33.371" height="15.459"/>
			
				<rect x="879.164" y="427.487" transform="matrix(-1 -1.224647e-16 1.224647e-16 -1 1816.4755 874.4284)" fill="#6AA7DC" width="58.147" height="19.455"/>
			
				<rect x="629.201" y="443.739" transform="matrix(-1 -1.224647e-16 1.224647e-16 -1 1317.7798 903.825)" fill="#6AA7DC" width="59.379" height="16.348"/>
			<path fill="#226BB1" d="M656.169,385.963c0,1.503,1.218,2.721,2.721,2.721c1.503,0,2.721-1.218,2.721-2.721
				c0-1.503-1.218-2.721-2.721-2.721C657.387,383.242,656.169,384.46,656.169,385.963z"/>
		</g>
		<g>
			<polyline fill="none" stroke="#3D6690" stroke-width="0.5932" stroke-miterlimit="10" points="432.069,324.253 112.29,228.386 
				24.958,313 			"/>
			<polygon fill="none" stroke="#3D6690" stroke-width="0.7605" stroke-miterlimit="10" points="399.359,392.708 464.779,392.708 
				432.069,324.253 			"/>
			<g>
				<polygon fill="none" stroke="#5695D0" stroke-width="0.5932" stroke-miterlimit="10" points="432.069,324.253 32.018,324.253 
					32.018,313 414.655,313 				"/>
				<path fill="#315476" d="M435.228,324.253c0,1.745-1.415,3.16-3.16,3.16c-1.745,0-3.16-1.415-3.16-3.16
					c0-1.745,1.415-3.16,3.16-3.16C433.814,321.094,435.228,322.508,435.228,324.253z"/>
				
					<line fill="none" stroke="#5695D0" stroke-width="0.5932" stroke-miterlimit="10" x1="414.655" y1="313" x2="414.655" y2="324.253"/>
				<g>
					
						<line fill="none" stroke="#5695D0" stroke-width="0.5932" stroke-miterlimit="10" x1="414.655" y1="324.253" x2="403.402" y2="313"/>
					
						<line fill="none" stroke="#5695D0" stroke-width="0.5932" stroke-miterlimit="10" x1="414.655" y1="313" x2="403.402" y2="324.253"/>
				</g>
				<g>
					
						<line fill="none" stroke="#5695D0" stroke-width="0.5932" stroke-miterlimit="10" x1="403.402" y1="324.253" x2="392.148" y2="313"/>
					
						<line fill="none" stroke="#5695D0" stroke-width="0.5932" stroke-miterlimit="10" x1="403.402" y1="313" x2="392.148" y2="324.253"/>
				</g>
				<g>
					
						<line fill="none" stroke="#5695D0" stroke-width="0.5932" stroke-miterlimit="10" x1="392.148" y1="324.253" x2="380.895" y2="313"/>
					
						<line fill="none" stroke="#5695D0" stroke-width="0.5932" stroke-miterlimit="10" x1="392.148" y1="313" x2="380.895" y2="324.253"/>
				</g>
				<g>
					
						<line fill="none" stroke="#5695D0" stroke-width="0.5932" stroke-miterlimit="10" x1="380.895" y1="324.253" x2="369.642" y2="313"/>
					
						<line fill="none" stroke="#5695D0" stroke-width="0.5932" stroke-miterlimit="10" x1="380.895" y1="313" x2="369.642" y2="324.253"/>
				</g>
				<g>
					
						<line fill="none" stroke="#5695D0" stroke-width="0.5932" stroke-miterlimit="10" x1="369.642" y1="324.253" x2="358.388" y2="313"/>
					
						<line fill="none" stroke="#5695D0" stroke-width="0.5932" stroke-miterlimit="10" x1="369.642" y1="313" x2="358.388" y2="324.253"/>
				</g>
				<g>
					
						<line fill="none" stroke="#5695D0" stroke-width="0.5932" stroke-miterlimit="10" x1="358.388" y1="324.253" x2="347.135" y2="313"/>
					
						<line fill="none" stroke="#5695D0" stroke-width="0.5932" stroke-miterlimit="10" x1="358.388" y1="313" x2="347.135" y2="324.253"/>
				</g>
				<g>
					
						<line fill="none" stroke="#5695D0" stroke-width="0.5932" stroke-miterlimit="10" x1="347.135" y1="324.253" x2="335.882" y2="313"/>
					
						<line fill="none" stroke="#5695D0" stroke-width="0.5932" stroke-miterlimit="10" x1="347.135" y1="313" x2="335.882" y2="324.253"/>
				</g>
				<g>
					
						<line fill="none" stroke="#5695D0" stroke-width="0.5932" stroke-miterlimit="10" x1="335.882" y1="324.253" x2="324.629" y2="313"/>
					
						<line fill="none" stroke="#5695D0" stroke-width="0.5932" stroke-miterlimit="10" x1="335.882" y1="313" x2="324.629" y2="324.253"/>
				</g>
				<g>
					
						<line fill="none" stroke="#5695D0" stroke-width="0.5932" stroke-miterlimit="10" x1="324.629" y1="324.253" x2="313.375" y2="313"/>
					
						<line fill="none" stroke="#5695D0" stroke-width="0.5932" stroke-miterlimit="10" x1="324.629" y1="313" x2="313.375" y2="324.253"/>
				</g>
				<g>
					
						<line fill="none" stroke="#5695D0" stroke-width="0.5932" stroke-miterlimit="10" x1="313.375" y1="324.253" x2="302.122" y2="313"/>
					
						<line fill="none" stroke="#5695D0" stroke-width="0.5932" stroke-miterlimit="10" x1="313.375" y1="313" x2="302.122" y2="324.253"/>
				</g>
				<g>
					
						<line fill="none" stroke="#5695D0" stroke-width="0.5932" stroke-miterlimit="10" x1="302.122" y1="324.253" x2="290.869" y2="313"/>
					
						<line fill="none" stroke="#5695D0" stroke-width="0.5932" stroke-miterlimit="10" x1="302.122" y1="313" x2="290.869" y2="324.253"/>
				</g>
				<g>
					
						<line fill="none" stroke="#5695D0" stroke-width="0.5932" stroke-miterlimit="10" x1="290.869" y1="324.253" x2="279.616" y2="313"/>
					
						<line fill="none" stroke="#5695D0" stroke-width="0.5932" stroke-miterlimit="10" x1="290.869" y1="313" x2="279.616" y2="324.253"/>
				</g>
				<g>
					
						<line fill="none" stroke="#5695D0" stroke-width="0.5932" stroke-miterlimit="10" x1="279.616" y1="324.253" x2="268.362" y2="313"/>
					
						<line fill="none" stroke="#5695D0" stroke-width="0.5932" stroke-miterlimit="10" x1="279.616" y1="313" x2="268.362" y2="324.253"/>
				</g>
				<g>
					
						<line fill="none" stroke="#5695D0" stroke-width="0.5932" stroke-miterlimit="10" x1="268.362" y1="324.253" x2="257.109" y2="313"/>
					
						<line fill="none" stroke="#5695D0" stroke-width="0.5932" stroke-miterlimit="10" x1="268.362" y1="313" x2="257.109" y2="324.253"/>
				</g>
				<g>
					
						<line fill="none" stroke="#5695D0" stroke-width="0.5932" stroke-miterlimit="10" x1="257.109" y1="324.253" x2="245.856" y2="313"/>
					
						<line fill="none" stroke="#5695D0" stroke-width="0.5932" stroke-miterlimit="10" x1="257.109" y1="313" x2="245.856" y2="324.253"/>
				</g>
				<g>
					
						<line fill="none" stroke="#5695D0" stroke-width="0.5932" stroke-miterlimit="10" x1="245.856" y1="324.253" x2="234.602" y2="313"/>
					
						<line fill="none" stroke="#5695D0" stroke-width="0.5932" stroke-miterlimit="10" x1="245.856" y1="313" x2="234.602" y2="324.253"/>
				</g>
				<g>
					
						<line fill="none" stroke="#5695D0" stroke-width="0.5932" stroke-miterlimit="10" x1="234.602" y1="324.253" x2="223.349" y2="313"/>
					
						<line fill="none" stroke="#5695D0" stroke-width="0.5932" stroke-miterlimit="10" x1="234.602" y1="313" x2="223.349" y2="324.253"/>
				</g>
				<g>
					
						<line fill="none" stroke="#5695D0" stroke-width="0.5932" stroke-miterlimit="10" x1="223.349" y1="324.253" x2="212.096" y2="313"/>
					
						<line fill="none" stroke="#5695D0" stroke-width="0.5932" stroke-miterlimit="10" x1="223.349" y1="313" x2="212.096" y2="324.253"/>
				</g>
				<g>
					
						<line fill="none" stroke="#5695D0" stroke-width="0.5932" stroke-miterlimit="10" x1="212.096" y1="324.253" x2="200.842" y2="313"/>
					
						<line fill="none" stroke="#5695D0" stroke-width="0.5932" stroke-miterlimit="10" x1="212.096" y1="313" x2="200.842" y2="324.253"/>
				</g>
				<g>
					
						<line fill="none" stroke="#5695D0" stroke-width="0.5932" stroke-miterlimit="10" x1="200.842" y1="324.253" x2="189.589" y2="313"/>
					
						<line fill="none" stroke="#5695D0" stroke-width="0.5932" stroke-miterlimit="10" x1="200.842" y1="313" x2="189.589" y2="324.253"/>
				</g>
				<g>
					
						<line fill="none" stroke="#5695D0" stroke-width="0.5932" stroke-miterlimit="10" x1="189.589" y1="324.253" x2="178.336" y2="313"/>
					
						<line fill="none" stroke="#5695D0" stroke-width="0.5932" stroke-miterlimit="10" x1="189.589" y1="313" x2="178.336" y2="324.253"/>
				</g>
				<g>
					
						<line fill="none" stroke="#5695D0" stroke-width="0.5932" stroke-miterlimit="10" x1="178.336" y1="324.253" x2="167.083" y2="313"/>
					
						<line fill="none" stroke="#5695D0" stroke-width="0.5932" stroke-miterlimit="10" x1="178.336" y1="313" x2="167.083" y2="324.253"/>
				</g>
				<g>
					
						<line fill="none" stroke="#5695D0" stroke-width="0.5932" stroke-miterlimit="10" x1="167.083" y1="324.253" x2="155.829" y2="313"/>
					
						<line fill="none" stroke="#5695D0" stroke-width="0.5932" stroke-miterlimit="10" x1="167.083" y1="313" x2="155.829" y2="324.253"/>
				</g>
				<g>
					
						<line fill="none" stroke="#5695D0" stroke-width="0.5932" stroke-miterlimit="10" x1="155.829" y1="324.253" x2="144.576" y2="313"/>
					
						<line fill="none" stroke="#5695D0" stroke-width="0.5932" stroke-miterlimit="10" x1="155.829" y1="313" x2="144.576" y2="324.253"/>
				</g>
				<g>
					
						<line fill="none" stroke="#5695D0" stroke-width="0.5932" stroke-miterlimit="10" x1="144.576" y1="324.253" x2="133.323" y2="313"/>
					
						<line fill="none" stroke="#5695D0" stroke-width="0.5932" stroke-miterlimit="10" x1="144.576" y1="313" x2="133.323" y2="324.253"/>
				</g>
				<g>
					
						<line fill="none" stroke="#5695D0" stroke-width="0.5932" stroke-miterlimit="10" x1="133.323" y1="324.253" x2="122.07" y2="313"/>
					
						<line fill="none" stroke="#5695D0" stroke-width="0.5932" stroke-miterlimit="10" x1="133.323" y1="313" x2="122.07" y2="324.253"/>
				</g>
				<g>
					
						<line fill="none" stroke="#5695D0" stroke-width="0.5932" stroke-miterlimit="10" x1="122.07" y1="324.253" x2="110.816" y2="313"/>
					
						<line fill="none" stroke="#5695D0" stroke-width="0.5932" stroke-miterlimit="10" x1="122.07" y1="313" x2="110.816" y2="324.253"/>
				</g>
				<g>
					
						<line fill="none" stroke="#5695D0" stroke-width="0.5932" stroke-miterlimit="10" x1="110.816" y1="324.253" x2="99.563" y2="313"/>
					
						<line fill="none" stroke="#5695D0" stroke-width="0.5932" stroke-miterlimit="10" x1="110.816" y1="313" x2="99.563" y2="324.253"/>
				</g>
				<g>
					
						<line fill="none" stroke="#5695D0" stroke-width="0.5932" stroke-miterlimit="10" x1="99.563" y1="324.253" x2="88.31" y2="313"/>
					
						<line fill="none" stroke="#5695D0" stroke-width="0.5932" stroke-miterlimit="10" x1="99.563" y1="313" x2="88.31" y2="324.253"/>
				</g>
				<g>
					
						<line fill="none" stroke="#5695D0" stroke-width="0.5932" stroke-miterlimit="10" x1="88.31" y1="324.253" x2="77.057" y2="313"/>
					
						<line fill="none" stroke="#5695D0" stroke-width="0.5932" stroke-miterlimit="10" x1="88.31" y1="313" x2="77.057" y2="324.253"/>
				</g>
				<g>
					
						<line fill="none" stroke="#5695D0" stroke-width="0.5932" stroke-miterlimit="10" x1="77.057" y1="324.253" x2="65.803" y2="313"/>
					
						<line fill="none" stroke="#5695D0" stroke-width="0.5932" stroke-miterlimit="10" x1="77.057" y1="313" x2="65.803" y2="324.253"/>
				</g>
				<g>
					
						<line fill="none" stroke="#5695D0" stroke-width="0.5932" stroke-miterlimit="10" x1="65.803" y1="324.253" x2="54.55" y2="313"/>
					
						<line fill="none" stroke="#5695D0" stroke-width="0.5932" stroke-miterlimit="10" x1="65.803" y1="313" x2="54.55" y2="324.253"/>
				</g>
				<g>
					
						<line fill="none" stroke="#5695D0" stroke-width="0.5932" stroke-miterlimit="10" x1="54.55" y1="324.253" x2="43.297" y2="313"/>
					
						<line fill="none" stroke="#5695D0" stroke-width="0.5932" stroke-miterlimit="10" x1="54.55" y1="313" x2="43.297" y2="324.253"/>
				</g>
				<g>
					
						<line fill="none" stroke="#5695D0" stroke-width="0.5932" stroke-miterlimit="10" x1="43.297" y1="324.253" x2="32.043" y2="313"/>
					
						<line fill="none" stroke="#5695D0" stroke-width="0.5932" stroke-miterlimit="10" x1="43.297" y1="313" x2="32.043" y2="324.253"/>
				</g>
			</g>
			<g>
				<g>
					
						<line fill="none" stroke="#5695D0" stroke-width="1.1527" stroke-miterlimit="10" x1="153.045" y1="327.554" x2="132.011" y2="348.587"/>
					
						<line fill="none" stroke="#5695D0" stroke-width="1.1527" stroke-miterlimit="10" x1="132.011" y1="327.554" x2="153.045" y2="348.587"/>
				</g>
				<g>
					
						<line fill="none" stroke="#5695D0" stroke-width="1.1527" stroke-miterlimit="10" x1="153.045" y1="348.587" x2="132.011" y2="369.62"/>
					
						<line fill="none" stroke="#5695D0" stroke-width="1.1527" stroke-miterlimit="10" x1="132.011" y1="348.587" x2="153.045" y2="369.62"/>
				</g>
				<g>
					
						<line fill="none" stroke="#5695D0" stroke-width="1.1527" stroke-miterlimit="10" x1="153.045" y1="369.62" x2="132.011" y2="390.653"/>
					
						<line fill="none" stroke="#5695D0" stroke-width="1.1527" stroke-miterlimit="10" x1="132.011" y1="369.62" x2="153.045" y2="390.653"/>
				</g>
				<g>
					
						<line fill="none" stroke="#5695D0" stroke-width="1.1527" stroke-miterlimit="10" x1="153.045" y1="390.653" x2="132.011" y2="411.686"/>
					
						<line fill="none" stroke="#5695D0" stroke-width="1.1527" stroke-miterlimit="10" x1="132.011" y1="390.653" x2="153.045" y2="411.686"/>
				</g>
				<g>
					
						<line fill="none" stroke="#5695D0" stroke-width="1.1527" stroke-miterlimit="10" x1="153.045" y1="411.686" x2="132.011" y2="432.719"/>
					
						<line fill="none" stroke="#5695D0" stroke-width="1.1527" stroke-miterlimit="10" x1="132.011" y1="411.686" x2="153.045" y2="432.719"/>
				</g>
				<g>
					
						<line fill="none" stroke="#5695D0" stroke-width="1.1527" stroke-miterlimit="10" x1="153.045" y1="432.719" x2="132.011" y2="453.753"/>
					
						<line fill="none" stroke="#5695D0" stroke-width="1.1527" stroke-miterlimit="10" x1="132.011" y1="432.719" x2="153.045" y2="453.753"/>
				</g>
				<g>
					
						<line fill="none" stroke="#5695D0" stroke-width="1.1527" stroke-miterlimit="10" x1="153.045" y1="453.753" x2="132.011" y2="474.785"/>
					
						<line fill="none" stroke="#5695D0" stroke-width="1.1527" stroke-miterlimit="10" x1="132.011" y1="453.753" x2="153.045" y2="474.785"/>
				</g>
				<g>
					
						<line fill="none" stroke="#5695D0" stroke-width="1.1527" stroke-miterlimit="10" x1="153.045" y1="474.785" x2="132.011" y2="495.819"/>
					
						<line fill="none" stroke="#5695D0" stroke-width="1.1527" stroke-miterlimit="10" x1="132.011" y1="474.785" x2="153.045" y2="495.819"/>
				</g>
				<g>
					
						<line fill="none" stroke="#5695D0" stroke-width="1.1527" stroke-miterlimit="10" x1="153.045" y1="495.819" x2="132.011" y2="516.852"/>
					
						<line fill="none" stroke="#5695D0" stroke-width="1.1527" stroke-miterlimit="10" x1="132.011" y1="495.819" x2="153.045" y2="516.852"/>
				</g>
				<g>
					
						<line fill="none" stroke="#5695D0" stroke-width="1.1527" stroke-miterlimit="10" x1="153.045" y1="516.852" x2="132.011" y2="537.885"/>
					
						<line fill="none" stroke="#5695D0" stroke-width="1.1527" stroke-miterlimit="10" x1="132.011" y1="516.852" x2="153.045" y2="537.885"/>
				</g>
				<g>
					
						<line fill="none" stroke="#5695D0" stroke-width="1.1527" stroke-miterlimit="10" x1="153.045" y1="537.885" x2="132.011" y2="558.918"/>
					
						<line fill="none" stroke="#5695D0" stroke-width="1.1527" stroke-miterlimit="10" x1="132.011" y1="537.885" x2="153.045" y2="558.918"/>
				</g>
				<g>
					
						<line fill="none" stroke="#5695D0" stroke-width="1.1527" stroke-miterlimit="10" x1="153.045" y1="558.918" x2="132.011" y2="579.951"/>
					
						<line fill="none" stroke="#5695D0" stroke-width="1.1527" stroke-miterlimit="10" x1="132.011" y1="558.918" x2="153.045" y2="579.951"/>
				</g>
				<g>
					
						<line fill="none" stroke="#5695D0" stroke-width="1.1527" stroke-miterlimit="10" x1="153.045" y1="579.951" x2="132.011" y2="600.984"/>
					
						<line fill="none" stroke="#5695D0" stroke-width="1.1527" stroke-miterlimit="10" x1="132.011" y1="579.951" x2="153.045" y2="600.984"/>
				</g>
				<g>
					
						<line fill="none" stroke="#5695D0" stroke-width="1.1527" stroke-miterlimit="10" x1="153.045" y1="600.984" x2="132.011" y2="622.017"/>
					
						<line fill="none" stroke="#5695D0" stroke-width="1.1527" stroke-miterlimit="10" x1="132.011" y1="600.984" x2="153.045" y2="622.017"/>
				</g>
				<g>
					
						<line fill="none" stroke="#5695D0" stroke-width="1.1527" stroke-miterlimit="10" x1="153.045" y1="622.017" x2="132.011" y2="643.05"/>
					
						<line fill="none" stroke="#5695D0" stroke-width="1.1527" stroke-miterlimit="10" x1="132.011" y1="622.017" x2="153.045" y2="643.05"/>
				</g>
				<g>
					
						<line fill="none" stroke="#5695D0" stroke-width="1.1527" stroke-miterlimit="10" x1="153.045" y1="643.05" x2="132.011" y2="664.083"/>
					
						<line fill="none" stroke="#5695D0" stroke-width="1.1527" stroke-miterlimit="10" x1="132.011" y1="643.05" x2="153.045" y2="664.083"/>
				</g>
				<g>
					
						<line fill="none" stroke="#5695D0" stroke-width="1.1527" stroke-miterlimit="10" x1="153.045" y1="664.083" x2="132.011" y2="685.117"/>
					
						<line fill="none" stroke="#5695D0" stroke-width="1.1527" stroke-miterlimit="10" x1="132.011" y1="664.083" x2="153.045" y2="685.117"/>
				</g>
				<g>
					
						<line fill="none" stroke="#5695D0" stroke-width="1.1527" stroke-miterlimit="10" x1="153.045" y1="685.117" x2="132.011" y2="706.15"/>
					
						<line fill="none" stroke="#5695D0" stroke-width="1.1527" stroke-miterlimit="10" x1="132.011" y1="685.117" x2="153.045" y2="706.15"/>
				</g>
				<g>
					
						<line fill="none" stroke="#5695D0" stroke-width="1.1527" stroke-miterlimit="10" x1="153.045" y1="706.15" x2="132.011" y2="727.183"/>
					
						<line fill="none" stroke="#5695D0" stroke-width="1.1527" stroke-miterlimit="10" x1="132.011" y1="706.15" x2="153.045" y2="727.183"/>
				</g>
				
					<rect x="132.011" y="324.253" fill="none" stroke="#5695D0" stroke-width="1.1527" stroke-miterlimit="10" width="21.033" height="402.977"/>
			</g>
			<rect x="101.855" y="727.183" fill="#3D6690" width="81.347" height="41.612"/>
			<rect x="111.922" y="735.978" fill="#5695D0" width="61.212" height="24.022"/>
			<rect x="108.768" y="372.47" fill="#5695D0" width="67.52" height="22.591"/>
			<g>
				
					<polygon fill="none" stroke="#5695D0" stroke-width="0.5381" stroke-linecap="round" stroke-linejoin="round" stroke-miterlimit="10" points="
					112.29,309.651 133.323,309.651 112.29,228.386 				"/>
				
					<polyline fill="none" stroke="#5695D0" stroke-width="0.5381" stroke-linecap="round" stroke-linejoin="round" stroke-miterlimit="10" points="
					112.29,309.651 131.091,301.027 112.29,301.027 				"/>
				
					<polyline fill="none" stroke="#5695D0" stroke-width="0.5381" stroke-linecap="round" stroke-linejoin="round" stroke-miterlimit="10" points="
					112.29,301.027 129.096,293.319 112.29,293.319 				"/>
				
					<polyline fill="none" stroke="#5695D0" stroke-width="0.5381" stroke-linecap="round" stroke-linejoin="round" stroke-miterlimit="10" points="
					112.29,293.319 127.273,286.446 112.29,286.446 				"/>
				
					<polyline fill="none" stroke="#5695D0" stroke-width="0.5381" stroke-linecap="round" stroke-linejoin="round" stroke-miterlimit="10" points="
					112.29,286.446 125.678,280.306 112.29,280.306 				"/>
				
					<polyline fill="none" stroke="#5695D0" stroke-width="0.5381" stroke-linecap="round" stroke-linejoin="round" stroke-miterlimit="10" points="
					112.29,280.306 124.343,274.777 112.29,274.777 				"/>
				
					<polyline fill="none" stroke="#5695D0" stroke-width="0.5381" stroke-linecap="round" stroke-linejoin="round" stroke-miterlimit="10" points="
					112.29,274.777 122.98,269.874 112.29,269.874 				"/>
				
					<polyline fill="none" stroke="#5695D0" stroke-width="0.5381" stroke-linecap="round" stroke-linejoin="round" stroke-miterlimit="10" points="
					112.29,269.734 121.871,265.339 112.29,265.339 				"/>
				
					<polyline fill="none" stroke="#5695D0" stroke-width="0.5381" stroke-linecap="round" stroke-linejoin="round" stroke-miterlimit="10" points="
					112.29,265.339 120.828,261.423 112.29,261.423 				"/>
				
					<polyline fill="none" stroke="#5695D0" stroke-width="0.5381" stroke-linecap="round" stroke-linejoin="round" stroke-miterlimit="10" points="
					112.29,261.423 119.912,257.927 112.29,257.927 				"/>
			</g>
			<path fill="#315476" d="M115.449,228.386c0,1.745-1.415,3.16-3.16,3.16c-1.745,0-3.16-1.415-3.16-3.16
				c0-1.745,1.415-3.16,3.16-3.16C114.035,225.226,115.449,226.641,115.449,228.386z"/>
			<rect x="397.594" y="391.609" fill="#3D6690" width="68.95" height="20.083"/>
			<polygon fill="#3D6690" points="160.975,272.379 121.755,272.379 121.755,309.56 106.066,309.56 106.066,327.602 
				180.463,327.602 180.463,289.872 			"/>
			<rect x="20.565" y="309.651" fill="#3D6690" width="38.75" height="17.951"/>
		</g>
	</g>
	<g>
		<g>
			<g>
				<g>
					<polygon fill="#D1D1D1" points="751.533,681.526 748.277,681.526 734.98,785.455 738.236,785.455 					"/>
					<polygon fill="#FFFFFF" points="748.871,681.526 752.127,681.526 765.423,785.455 762.167,785.455 					"/>
				</g>
				<path fill="#ED6E21" d="M754.863,681.526c0,2.574-2.087,4.661-4.661,4.661s-4.661-2.087-4.661-4.661
					c0-2.574,2.087-4.661,4.661-4.661S754.863,678.952,754.863,681.526z"/>
			</g>
			<g>
				<g>
					<polygon fill="#D1D1D1" points="850.334,681.526 847.078,681.526 833.781,785.455 837.037,785.455 					"/>
					<polygon fill="#FFFFFF" points="847.672,681.526 850.928,681.526 864.224,785.455 860.968,785.455 					"/>
				</g>
				<circle fill="#ED6E21" cx="849.003" cy="681.526" r="4.661"/>
			</g>
		</g>
		<g>
			<rect x="738.232" y="687.264" fill="#F7CA16" width="122.741" height="18.811"/>
			<g>
				<polygon fill="#392F1D" points="752.69,706.075 743.984,706.075 755.562,687.264 764.268,687.264 				"/>
				<polygon fill="#392F1D" points="775.428,706.075 766.722,706.075 778.3,687.264 787.007,687.264 				"/>
				<polygon fill="#392F1D" points="798.166,706.075 789.46,706.075 801.038,687.264 809.745,687.264 				"/>
				<polygon fill="#392F1D" points="820.904,706.075 812.198,706.075 823.776,687.264 832.482,687.264 				"/>
				<polygon fill="#392F1D" points="843.642,706.075 834.936,706.075 846.514,687.264 855.22,687.264 				"/>
			</g>
		</g>
		<g>
			<rect x="738.232" y="712.264" fill="#F7CA16" width="122.741" height="18.811"/>
			<g>
				<polygon fill="#392F1D" points="752.69,731.075 743.984,731.075 755.562,712.264 764.268,712.264 				"/>
				<polygon fill="#392F1D" points="775.428,731.075 766.722,731.075 778.3,712.264 787.007,712.264 				"/>
				<polygon fill="#392F1D" points="798.166,731.075 789.46,731.075 801.038,712.264 809.745,712.264 				"/>
				<polygon fill="#392F1D" points="820.904,731.075 812.198,731.075 823.776,712.264 832.482,712.264 				"/>
				<polygon fill="#392F1D" points="843.642,731.075 834.936,731.075 846.514,712.264 855.22,712.264 				"/>
			</g>
		</g>
	</g>
	<g>
		<path fill="#CCA28C" d="M408.787,783.964h32.577l-14.799-62.684c-0.371-1.572-2.608-1.572-2.979,0L408.787,783.964z"/>
		<path fill="#CCA28C" d="M445.571,785.455H404.58c-0.529,0-0.957-0.428-0.957-0.957l0,0c0-0.528,0.428-0.957,0.957-0.957h40.991
			c0.528,0,0.957,0.428,0.957,0.957l0,0C446.528,785.027,446.099,785.455,445.571,785.455z"/>
		<g>
			<polygon fill="#FFFFFF" points="419.919,736.812 418.644,742.211 431.506,742.211 430.232,736.812 			"/>
			<polygon fill="#FFFFFF" points="416.963,749.333 415.688,754.733 434.462,754.733 433.188,749.333 			"/>
			<polygon fill="#FFFFFF" points="437.419,767.254 436.144,761.854 414.007,761.854 412.732,767.254 			"/>
		</g>
	</g>
	<g>
		<path fill="#CCA28C" d="M466.503,783.964h32.577l-14.799-62.684c-0.371-1.572-2.607-1.572-2.978,0L466.503,783.964z"/>
		<path fill="#CCA28C" d="M503.287,785.455h-40.991c-0.529,0-0.957-0.428-0.957-0.957l0,0c0-0.528,0.428-0.957,0.957-0.957h40.991
			c0.528,0,0.957,0.428,0.957,0.957l0,0C504.244,785.027,503.816,785.455,503.287,785.455z"/>
		<g>
			<polygon fill="#FFFFFF" points="477.635,736.812 476.361,742.211 489.223,742.211 487.948,736.812 			"/>
			<polygon fill="#FFFFFF" points="474.679,749.333 473.404,754.733 492.179,754.733 490.904,749.333 			"/>
			<polygon fill="#FFFFFF" points="495.135,767.254 493.86,761.854 471.723,761.854 470.448,767.254 			"/>
		</g>
	</g>
	<g>
		<path fill="#D05316" d="M758.758,349.381c0,0,0.941,1.569,0.706,6.668c5.256,1.961,7.295,5.491,4.785,10.668
			c1.177,7.06-6.903,13.413-14.198,11.217c-8.236,0.784-34.514-6.04-31.612-18.591c-1.098-4.236,0.733-10.825,0.733-10.825
			L758.758,349.381z"/>
		<g>
			<path fill="#F7C318" d="M790.006,811.871v17.601c0,0,1.54,14.301,1.54,25.301h-64.244c0,0,1.19-14.262,17.078-15.337
				c1.344-0.091,2.645-0.541,3.764-1.291l12.6-8.454v-17.821H790.006z"/>
			<path fill="#8D5C1F" d="M727.303,854.774h64.244c0-1.888-0.048-3.874-0.123-5.867h-62.317
				C727.531,852.057,727.303,854.774,727.303,854.774z"/>
		</g>
		<g>
			<path fill="#F7C318" d="M718.909,811.871l2.382,17.601c0,0,1.54,14.301,1.54,25.301h-64.244c0,0,1.19-14.262,17.078-15.337
				c1.344-0.091,2.645-0.541,3.764-1.291l12.6-8.454l-2.382-17.821H718.909z"/>
			<path fill="#8D5C1F" d="M658.588,854.774h64.244c0-1.888-0.048-3.874-0.123-5.867h-62.317
				C658.816,852.057,658.588,854.774,658.588,854.774z"/>
		</g>
		<polygon fill="#F39A9C" points="810.999,524.07 809.745,588.392 829.041,588.392 845.2,524.07 		"/>
		<path fill="#ED6B6D" d="M814.993,535.771l24.449,11.218l5.758-22.919h-34.2l-0.101,5.178
			C810.844,532.043,812.452,534.605,814.993,535.771z"/>
		<polygon fill="#ED6B6D" points="680.944,513.715 705.417,534.11 693.965,550.426 664.314,532.071 		"/>
		<path fill="#20815C" d="M825.584,444.657c-6.335-19.89-21.451-35.77-41.004-43.079l-33.666-12.584l-19.454,2.196l-22.519,9.07
			c-14.651,5.901-26.792,16.715-34.341,30.589l-31.935,58.687c0,0-19.375,26.44,15.688,46.489l19.139-23.007l16.511-24.952
			l99.269,3.53l11.609,24.003h43.3L825.584,444.657z"/>
		<path fill="#185F44" d="M694.709,486.914l1.035-45.96c0.051-2.25-3.231-2.558-3.599-0.338l-11.154,67.132L694.709,486.914z"/>
		
			<line fill="none" stroke="#185F44" stroke-width="0.4523" stroke-miterlimit="10" x1="664.314" y1="492.223" x2="678.442" y2="507.748"/>
		<path fill="#1F466C" d="M708.006,431.587h66.126c0,0,14.156,49.704,19.14,60.008v48.947v274.545h-42.633l-17.453-226.696h-5.648
			l-20.632,109.451l15.925,117.245H678.12l-18.1-93.265c-3.149-16.224-2.879-32.927,0.792-49.041l30.015-131.768v-52.948
			L708.006,431.587z"/>
		<g>
			
				<line fill="none" stroke="#183B59" stroke-width="0.4915" stroke-miterlimit="10" x1="712.693" y1="582.666" x2="757.419" y2="582.666"/>
			
				<line fill="none" stroke="#183B59" stroke-width="0.4915" stroke-miterlimit="10" x1="732.95" y1="549.25" x2="733.186" y2="588.392"/>
			<path fill="none" stroke="#183B59" stroke-width="0.4915" stroke-miterlimit="10" d="M725.558,547.641v15.032
				c0,6.703,2.759,13.111,7.628,17.717l0,0"/>
		</g>
		<path fill="#3175B5" d="M767.857,544.471c0,0-1.412,32.939,25.415,32.939v-33.197L767.857,544.471z"/>
		<polygon fill="#183B59" points="712.219,431.587 707.628,440.584 721.859,443.898 730.175,431.587 		"/>
		<path fill="#183B59" d="M774.132,431.587h-9.429l-4.591,8.997l14.231,3.313l2.345-3.471
			C775.133,435.1,774.132,431.587,774.132,431.587z"/>
		<polygon fill="#183B59" points="690.827,541.013 793.272,541.013 793.272,546.426 689.594,546.426 		"/>
		<rect x="719.691" y="537.876" fill="#F8CF9C" width="23.062" height="12.551"/>
		<rect x="752.682" y="536.825" fill="#1F466C" width="4.737" height="15.292"/>
		<rect x="780.425" y="536.825" fill="#1F466C" width="4.737" height="15.292"/>
		<rect x="710.324" y="536.825" fill="#1F466C" width="4.737" height="15.292"/>
		<path fill="#F8CF9C" d="M706.129,562.267h-27.457c-2.848,0-5.157-2.309-5.157-5.157v-17.172h32.614V562.267z"/>
		<path fill="none" stroke="#8D5C1F" stroke-width="0.4915" stroke-miterlimit="10" d="M706.129,543.094h-11.998
			c-2.086,0-3.778,1.691-3.778,3.778l0,0c0,1.963-1.591,3.554-3.554,3.554h-13.284"/>
		<g>
			<polygon fill="#2268B1" points="678.12,815.087 722.831,815.087 721.276,803.635 675.897,803.635 			"/>
			<polygon fill="#2268B1" points="749.757,803.635 750.639,815.087 793.272,815.087 793.272,803.635 			"/>
		</g>
		<path fill="none" stroke="#3175B5" stroke-width="0.4796" stroke-miterlimit="10" d="M708.947,457.708h58.897
			c0,0,6.118,37.417-29.448,37.417C702.829,495.125,708.947,457.708,708.947,457.708z"/>
		<polygon fill="#1F466C" points="719.965,440.584 707.628,440.584 713.973,396.85 727.072,391.601 		"/>
		<polygon fill="#1F466C" points="772.45,440.584 760.112,440.584 766.945,393.489 778.615,398.089 		"/>
		<path fill="none" stroke="#3175B5" stroke-width="0.4796" stroke-miterlimit="10" d="M716.125,436.294
			c0,1.04-0.843,1.883-1.883,1.883c-1.04,0-1.883-0.843-1.883-1.883c0-1.04,0.843-1.883,1.883-1.883
			C715.282,434.411,716.125,435.254,716.125,436.294z"/>
		<path fill="none" stroke="#3175B5" stroke-width="0.4796" stroke-miterlimit="10" d="M768.868,436.294
			c0,1.04-0.843,1.883-1.883,1.883c-1.04,0-1.883-0.843-1.883-1.883c0-1.04,0.843-1.883,1.883-1.883
			C768.025,434.411,768.868,435.254,768.868,436.294z"/>
		<path fill="#F39A9C" d="M721.493,347.328v14.862c-4.547,6.211-2.551,17.523,7.209,19.187v15.971c0,0,12.422,8.651,28.281-1.663
			l-4.436-23.291c0,0,5.545-0.776,5.324-6.654c-0.222-5.878-6.655-6.765-10.536-2.773c0,0-1.109-2.551-0.333-6.765
			c-4.104-0.555-4.215-8.873-4.215-8.873H721.493z"/>
		<path fill="#ED6B6D" d="M728.702,381.377c5.031,0.753,11.167,0.987,15.372-1.583c0.752-0.46,1.718,0.192,1.593,1.065
			c-1.423,9.927-8.774,15.438-16.965,14.567V381.377z"/>
		<polyline fill="none" stroke="#DB5D5D" stroke-width="0.4936" stroke-miterlimit="10" points="731.185,360.284 731.185,365.814 
			734.186,365.814 		"/>
		<path fill="none" stroke="#DB5D5D" stroke-width="0.4936" stroke-miterlimit="10" d="M729.715,368.403
			c0,0,3.353,1.412,9.413-0.706"/>
		<path fill="none" stroke="#DB5D5D" stroke-width="0.4936" stroke-miterlimit="10" d="M755.365,367.167
			c1.824-3.118-4.354-6.354-6.236-0.824"/>
		<path fill="#142E2E" d="M728.31,360.167c0,1.072-0.577,1.941-1.288,1.941s-1.288-0.869-1.288-1.941s0.577-1.941,1.288-1.941
			S728.31,359.094,728.31,360.167z"/>
		<path fill="#142E2E" d="M738.193,360.167c0,1.072-0.577,1.941-1.288,1.941c-0.711,0-1.288-0.869-1.288-1.941
			s0.577-1.941,1.288-1.941C737.617,358.225,738.193,359.094,738.193,360.167z"/>
		<path fill="none" stroke="#D05316" stroke-width="0.9872" stroke-miterlimit="10" d="M725.302,356.323c0,0,1.765-1.059,4.197,0"/>
		<path fill="none" stroke="#D05316" stroke-width="0.9872" stroke-miterlimit="10" d="M734.807,356.323c0,0,1.765-1.059,4.196,0"/>
		<g>
			<g>
				<path fill="#3978BD" d="M853.315,646.438h-74.353l10.81-20.638c1.387-2.648,4.129-4.307,7.118-4.307h38.496
					c2.989,0,5.73,1.659,7.117,4.306L853.315,646.438z M787.258,641.418h57.759l-6.878-13.131c-0.571-1.09-1.7-1.773-2.93-1.773
					h-38.143c-1.23,0-2.359,0.683-2.93,1.773L787.258,641.418z"/>
			</g>
			<polygon fill="#144F8D" points="845.017,641.418 787.258,641.418 790.462,635.3 784.797,635.3 778.962,646.438 853.315,646.438 
				847.48,635.3 841.812,635.3 			"/>
			<path fill="#2268B1" d="M864.627,695.974h-96.979c-2.17,0-3.929-1.759-3.929-3.929v-38.9h104.837v38.9
				C868.556,694.215,866.797,695.974,864.627,695.974z"/>
			<rect x="763.719" y="653.145" fill="#144F8D" width="104.837" height="4.275"/>
			<path fill="#3978BD" d="M869.909,654.91H762.366v-13.473c0-1.657,1.343-3,3-3h101.544c1.657,0,3,1.343,3,3V654.91z"/>
			<g>
				
					<rect x="779.074" y="650.086" fill="none" stroke="#FFFFFF" stroke-width="0.4915" stroke-miterlimit="10" width="9.178" height="16.473"/>
				
					<rect x="844.023" y="650.086" fill="none" stroke="#FFFFFF" stroke-width="0.4915" stroke-miterlimit="10" width="9.178" height="16.473"/>
			</g>
		</g>
		<path fill="#31A97C" d="M848.331,527.353h-41.346c-1.904,0-3.53-1.374-3.848-3.252l-1.252-7.401
			c-0.403-2.381,1.433-4.553,3.848-4.553h41.346c1.904,0,3.53,1.374,3.848,3.252l1.252,7.402
			C852.581,525.181,850.746,527.353,848.331,527.353z"/>
		<path fill="#31A97C" d="M660.312,540.16l-6.182-4.968c-0.674-0.541-0.781-1.526-0.239-2.2l21.983-27.35
			c0.541-0.674,1.526-0.781,2.2-0.239l6.182,4.968c0.674,0.541,0.781,1.526,0.239,2.2l-21.983,27.35
			C661.971,540.594,660.986,540.701,660.312,540.16z"/>
		<path fill="#F7C318" d="M811.704,584.666h16.834c2.321,0,4.036,2.163,3.507,4.423l-3.318,14.168l1.164,16.718
			c0.086,1.236-0.074,2.477-0.472,3.651l-0.524,1.548c-0.851,2.513-3.208,4.204-5.861,4.204h-12.732
			c-1.456,0-2.636-1.18-2.636-2.636v-2.683c0-1.676-1.359-3.034-3.034-3.034h-0.966c0,0,0.51-14.472,6.079-18.238l-1.618-14.108
			C807.881,586.54,809.552,584.666,811.704,584.666z"/>
		<g>
			<path fill="#F7C318" d="M740.035,325.904L740.035,325.904c-10.693-1.001-20.207,7.775-19.775,18.614
				c-9.272,2.579-12.508,6.167-12.508,6.167h52.36v-2.783C760.112,336.483,751.408,326.945,740.035,325.904z"/>
			<path fill="#F7DA7A" d="M741.433,326.099c-0.463-0.072-0.924-0.152-1.397-0.195h0c-10.693-1.001-20.206,7.775-19.774,18.614h7.73
				C727.991,344.519,727.901,331.361,741.433,326.099z"/>
		</g>
	</g>
	<g>
		<g>
			<path fill="#B69A3C" d="M524.528,832.183c0,0,4.67,10.982,1.847,22.591h-64.008c0,0-2.238-6.206,4.863-8.942
				c8.55-3.294,21.375-6.589,21.375-6.589l7.177-7.06H524.528z"/>
			<path fill="#FFFFFF" d="M462.282,850.695c-0.599,2.168,0.084,4.079,0.084,4.079h64.008c0.334-1.375,0.557-2.739,0.701-4.079
				H462.282z"/>
		</g>
		<g>
			<path fill="#B69A3C" d="M602.646,832.183c0,0,4.67,10.982,1.847,22.591h-64.008c0,0-2.238-6.206,4.863-8.942
				c8.55-3.294,21.375-6.589,21.375-6.589l7.177-7.06H602.646z"/>
			<path fill="#FFFFFF" d="M540.4,850.695c-0.599,2.168,0.084,4.079,0.084,4.079h64.008c0.334-1.375,0.557-2.739,0.701-4.079H540.4z
				"/>
		</g>
		<path fill="#8D5C1F" d="M487.729,541.322v293.685h40.79c0,0,7.602-108.72-2.317-143.548l15.966-123.31l27.298,266.858h36.711
			c0,0,6.118-110.132-14.119-143.548c0,0,9.413-51.301,9.413-150.137l-57.066-13.649L487.729,541.322z"/>
		<path fill="#765328" d="M544.403,527.673l-56.674,13.649v8.765l113.53,16.277c0.134-7.982,0.211-16.317,0.211-25.042
			L544.403,527.673z"/>
		<g>
			
				<line fill="none" stroke="#BA823E" stroke-width="0.4523" stroke-miterlimit="10" x1="542.168" y1="568.149" x2="542.168" y2="530.967"/>
			<path fill="none" stroke="#BA823E" stroke-width="0.4523" stroke-miterlimit="10" d="M535.108,534.419c0,0,0,11.609,0,17.571
				c0,5.962,2.353,8.629,7.06,10.354"/>
			
				<line fill="none" stroke="#BA823E" stroke-width="0.4523" stroke-miterlimit="10" x1="526.202" y1="565.639" x2="559.425" y2="566.266"/>
			<path fill="none" stroke="#BA823E" stroke-width="0.4523" stroke-miterlimit="10" d="M584.22,537.196
				c0,0-7.386,28.851,16.933,34.961"/>
			<path fill="none" stroke="#BA823E" stroke-width="0.4523" stroke-miterlimit="10" d="M501.16,538.087
				c0,0,2.728,26.139-13.431,32.572"/>
		</g>
		<polygon fill="#F39A9C" points="642.625,531.791 610.402,556.289 602.384,538.616 618.387,515.436 		"/>
		<path fill="#DEAF16" d="M602.384,536.145c0,0,13.531,3.765,14.119,21.062l-17.541,10.943v-32.004H602.384z"/>
		<path fill="#1F466C" d="M553.79,374.712l28.15,3.164c14.156,1.591,27.002,9.018,35.432,20.502
			c13.815,18.82,35.533,48.869,51.205,72.744c8.25,12.569,6.737,29.161-3.619,40.059l-23.274,24.492l-25.886-20.238l13.884-19.767
			c0,0-5.883,0.706-1.883-6.118l-24.709-40.005l-3.53,64.479H480.722v-14.825c0,0-16.473,17.414-39.299,16.002
			c-22.826-1.412-24.003-30.827-11.296-52.713c8.23-14.174,29.524-44.242,43.507-63.669c8.256-11.471,20.902-18.996,34.921-20.794
			l25.822-3.313H553.79z"/>
		<path fill="#183B59" d="M456.248,466.959l29.808-7.117l11.139-45.596C497.195,414.247,468.485,441.387,456.248,466.959z"/>
		<polygon fill="#183B59" points="603.091,449.545 591.704,429.123 578.028,478.608 600.578,495.438 		"/>
		<path fill="#ED6E21" d="M582.539,375.967c-4.269-0.795-8.578-1.392-12.867-1.84l-31.531,44.512l-20.053-43.911
			c-9.013,1.005-14.655,2.085-14.655,2.085l-25.064,106.618v56.677c0,3.009,2.439,5.449,5.449,5.449h41.381
			c7.148,0,12.943-5.795,12.943-12.943l0,0l0,0c0,7.148,5.795,12.943,12.943,12.943h50.559c3.009,0,5.449-2.44,5.449-5.449v-53.382
			C574.616,478.961,582.539,375.967,582.539,375.967z"/>
		<g>
			<rect x="478.369" y="490.021" fill="#F8CF9C" width="128.723" height="19.759"/>
			<rect x="478.369" y="512.856" fill="#F8CF9C" width="128.723" height="19.759"/>
		</g>
		
			<line fill="none" stroke="#765328" stroke-width="0.4936" stroke-miterlimit="10" x1="538.141" y1="532.615" x2="538.141" y2="418.639"/>
		
			<line fill="none" stroke="#183B59" stroke-width="0.4523" stroke-miterlimit="10" x1="603.091" y1="449.545" x2="588.657" y2="423.66"/>
		
			<line fill="none" stroke="#183B59" stroke-width="0.4523" stroke-miterlimit="10" x1="629.564" y1="487.903" x2="639.801" y2="476.725"/>
		<path fill="none" stroke="#183B59" stroke-width="0.4523" stroke-miterlimit="10" d="M632.271,493.433
			c0,0,6.001-6.707,15.061-8.119"/>
		<polygon fill="#F39A9C" points="479.638,461.37 524.528,450.487 527.002,466.959 483.546,495.438 		"/>
		<path fill="#F08286" d="M496.431,457.299l-16.793,4.071l3.908,34.068l3.101-2.032c4.494-2.945,7.391-7.782,7.875-13.133
			C495.255,472.171,495.938,463.669,496.431,457.299z"/>
		<g>
			
				<rect x="553.424" y="387.676" transform="matrix(0.9677 0.2519 -0.2519 0.9677 119.5731 -126.6208)" fill="#142E2E" width="1.704" height="31.96"/>
			<path fill="#142E2E" d="M558.264,457.907l-17.361-4.52c-1.162-0.303-1.859-1.49-1.557-2.653l8.697-33.405
				c0.303-1.162,1.49-1.859,2.652-1.557l17.361,4.52c1.162,0.303,1.859,1.49,1.557,2.653l-8.697,33.405
				C560.613,457.513,559.426,458.21,558.264,457.907z"/>
			<path fill="#5B5A5A" d="M566.373,435.464l-18.572-4.835c-0.738-0.192-1.181-0.946-0.988-1.684l3.11-11.946
				c0.192-0.738,0.946-1.181,1.684-0.988l18.572,4.835c0.738,0.192,1.181,0.946,0.988,1.684l-3.11,11.946
				C567.865,435.214,567.111,435.657,566.373,435.464z"/>
			<path fill="#5B5A5A" d="M560.386,458.46l-18.573-4.835c-0.738-0.192-1.181-0.946-0.988-1.684l4.73-18.17
				c0.192-0.738,0.946-1.181,1.684-0.988l18.572,4.835c0.738,0.192,1.18,0.946,0.988,1.684l-4.73,18.17
				C561.878,458.21,561.124,458.652,560.386,458.46z"/>
			<g>
				<path fill="#142E2E" d="M563.147,441.746l-15.593-4.06c-0.367-0.096-0.588-0.471-0.492-0.838l0,0
					c0.096-0.367,0.471-0.588,0.838-0.492l15.593,4.06c0.367,0.096,0.588,0.471,0.492,0.838l0,0
					C563.89,441.621,563.514,441.841,563.147,441.746z"/>
				<path fill="#142E2E" d="M562.292,445.031l-15.594-4.06c-0.367-0.096-0.588-0.471-0.492-0.838l0,0
					c0.096-0.367,0.471-0.588,0.838-0.492l15.594,4.06c0.367,0.096,0.588,0.471,0.492,0.838l0,0
					C563.035,444.906,562.659,445.127,562.292,445.031z"/>
				<path fill="#142E2E" d="M561.437,448.316l-15.593-4.06c-0.367-0.096-0.588-0.471-0.492-0.838l0,0
					c0.096-0.367,0.471-0.588,0.838-0.492l15.593,4.06c0.367,0.096,0.588,0.471,0.492,0.838l0,0
					C562.179,448.192,561.804,448.412,561.437,448.316z"/>
				<path fill="#142E2E" d="M560.581,451.601l-15.594-4.06c-0.367-0.096-0.588-0.471-0.492-0.838l0,0
					c0.096-0.367,0.471-0.588,0.838-0.492l15.594,4.06c0.367,0.096,0.588,0.471,0.492,0.838l0,0
					C561.324,451.477,560.949,451.697,560.581,451.601z"/>
				<path fill="#142E2E" d="M559.726,454.887l-15.593-4.06c-0.367-0.096-0.588-0.471-0.492-0.838l0,0
					c0.096-0.367,0.471-0.588,0.838-0.492l15.593,4.06c0.367,0.096,0.588,0.471,0.492,0.838l0,0
					C560.469,454.762,560.093,454.982,559.726,454.887z"/>
			</g>
			
				<rect x="550.795" y="423.784" transform="matrix(0.9677 0.2519 -0.2519 0.9677 125.1929 -127.1388)" fill="#F7C318" width="16.601" height="3.094"/>
			
				<rect x="556.265" y="388.092" transform="matrix(0.9677 0.252 -0.252 0.9677 116.5578 -127.8654)" fill="#FFFFFF" width="2.526" height="6.148"/>
		</g>
		<g>
			<path fill="#F7C318" d="M588.538,556.596l14.536-10.27c2.589-1.829,6.191-0.211,6.542,2.939l1.831,16.395
				c0.35,3.132-1.303,6.146-4.132,7.535l-8.036,3.946c-2.795,1.373-6.17,0.124-7.399-2.737l-5.05-11.756
				C585.9,560.481,586.612,557.958,588.538,556.596z"/>
			
				<line fill="none" stroke="#9A7914" stroke-width="0.506" stroke-miterlimit="10" x1="606.388" y1="553.436" x2="587.649" y2="564.552"/>
			
				<line fill="none" stroke="#9A7914" stroke-width="0.506" stroke-miterlimit="10" x1="607.591" y1="559.873" x2="590.334" y2="570.11"/>
			
				<line fill="none" stroke="#9A7914" stroke-width="0.506" stroke-miterlimit="10" x1="608.151" y1="566.009" x2="592.404" y2="575.35"/>
		</g>
		<polygon fill="#5A83C0" points="555.222,368.476 561.928,377.889 544.397,396.597 540.161,388.44 534.827,395.813 
			524.394,376.712 531.454,368.476 		"/>
		<g>
			<path fill="#142E2E" d="M560.634,326.53l-5.824,20.532c0,0-13.708-6.589-13.708-20.905L560.634,326.53z"/>
			<path fill="#F39A9C" d="M520.943,326.157v16.237c0,0-5.177,14.747,10.668,18.12l-2.039,13.57l10.59,14.355l16.08-12.551
				l-0.941-28.004c4.157-4.157,5.256-11.766,1.412-13.335c-3.844-1.569-6.354,2.667-6.511,5.491c0,0-6.118-3.922-6.118-13.884
				H520.943z"/>
			<path fill="#ED6B6D" d="M531.611,360.514c6.315,1.02,10.893-1.636,14.381-4.655c0.877-0.759,2.232,0.048,2.012,1.187
				c-1.679,8.66-8.562,16.559-18.217,15.611L531.611,360.514z"/>
			<ellipse fill="#142E2E" cx="524.394" cy="338.031" rx="1.471" ry="2.265"/>
			<ellipse fill="#142E2E" cx="534.454" cy="338.031" rx="1.471" ry="2.265"/>
			<path fill="none" stroke="#DB5D5D" stroke-width="0.4936" stroke-miterlimit="10" d="M528.63,336.296l-1.017,5.694
				c-0.086,0.479,0.262,0.926,0.747,0.962l3.094,0.227"/>
			<path fill="none" stroke="#142E2E" stroke-width="0.9872" stroke-miterlimit="10" d="M532.185,333.236c0,0,2.446-1.118,4.917,0"
				/>
			<path fill="none" stroke="#142E2E" stroke-width="0.9872" stroke-miterlimit="10" d="M521.936,333.236c0,0,2.446-1.118,4.917,0"
				/>
			<path fill="#FFFFFF" d="M529.257,347.062l6.668-1.032c0,0,0,7.386-2.589,7.817S529.257,347.062,529.257,347.062z"/>
			<path fill="#F7C318" d="M541.381,303.101L541.381,303.101c-10.693-1.001-20.207,7.775-19.775,18.615
				c-9.272,2.579-12.508,6.167-12.508,6.167h52.36V325.1C561.458,313.68,552.753,304.142,541.381,303.101z"/>
			<path fill="#F7DA7A" d="M542.778,303.296c-0.463-0.072-0.924-0.152-1.397-0.195h0c-10.693-1.001-20.206,7.775-19.774,18.615h7.73
				C529.336,321.716,529.246,308.558,542.778,303.296z"/>
			<path fill="#142E2E" d="M526.394,347.964c0,0,5.991,0.196,13.212-2.196c0,0-4.741-3.373-8.153-0.549
				C527.453,344.081,526.394,347.964,526.394,347.964z"/>
			<path fill="none" stroke="#DB5D5D" stroke-width="0.4936" stroke-miterlimit="10" d="M552.308,343.179
				c-0.078-3.765,1.726-6.785,3.53-6.883c1.804-0.098,1.726,2.02,0.471,4.53"/>
		</g>
		<path fill="#5A83C0" d="M631.565,521.947c0.549-12.708-7.766-22.046-7.766-22.046l-10.292,15.707l28.529,23.008l13.178-12.59
			C650.469,523.202,640.35,520.692,631.565,521.947z"/>
		<path fill="#5A83C0" d="M482.761,457.546l3.295,42.354l-15.845,13.653c0,0-4.032-21.885,7.382-31.416
			c-14.865-3.412-11.617-20.826-11.617-20.826L482.761,457.546z"/>
		<g>
			<path fill="#F7C318" d="M517.192,452.775l4.11,15.015c0.74,2.702,4.112,3.614,6.112,1.652l6.608-6.483
				c0,0,7.805-2.863,14.394-14.276l12.712-3.578c0.586-0.165,0.974-0.721,0.926-1.329l-0.707-8.986
				c-0.077-0.978-0.988-1.672-1.952-1.485l-13.959,2.709l13.174-5.228c0.936-0.372,1.437-1.394,1.156-2.362l0,0
				c-0.308-1.061-1.434-1.656-2.485-1.313l-15.062,4.926c-1.13,0.37-2.141,1.033-2.93,1.922l-11.738,13.232l-7.304,0.974
				C518.044,448.46,516.605,450.63,517.192,452.775z"/>
			
				<line fill="none" stroke="#9A7914" stroke-width="0.506" stroke-miterlimit="10" x1="545.985" y1="440.054" x2="561.49" y2="436.603"/>
			
				<line fill="none" stroke="#9A7914" stroke-width="0.506" stroke-miterlimit="10" x1="546.632" y1="444.466" x2="561.817" y2="440.752"/>
		</g>
	</g>
	<g>
		<rect x="983.828" y="442.609" fill="#FFFFFF" width="10.04" height="387.359"/>
		<polygon fill="#D1D1D1" points="993.869,829.968 983.828,829.968 983.828,807.691 993.869,781.962 		"/>
		<path fill="#FFFFFF" d="M1055.317,829.968H922.381c-2.274,0-4.118-1.844-4.118-4.118l0,0c0-2.274,1.844-4.118,4.118-4.118h132.936
			c2.274,0,4.118,1.844,4.118,4.118l0,0C1059.435,828.124,1057.591,829.968,1055.317,829.968z"/>
		<g>
			<path fill="#F7CA16" d="M1055.259,394.916l-62.781,62.781c-2.004,2.004-5.254,2.004-7.258,0l-62.781-62.781
				c-2.004-2.004-2.004-5.254,0-7.258l62.781-62.781c2.004-2.004,5.254-2.004,7.258,0l62.781,62.781
				C1057.263,389.662,1057.263,392.912,1055.259,394.916z"/>
			<path fill="none" stroke="#392F1D" stroke-width="0.6339" stroke-miterlimit="10" d="M1050.312,393.388l-59.362,59.362
				c-1.16,1.16-3.041,1.16-4.201,0l-59.362-59.362c-1.16-1.16-1.16-3.041,0-4.201l59.362-59.363c1.16-1.16,3.041-1.16,4.201,0
				l59.362,59.363C1051.472,390.347,1051.472,392.228,1050.312,393.388z"/>
			<path fill="#392F1D" d="M999.396,406.125l-12.96-12.959v-20.931l0.051-0.052c0.833,0.451,1.772,0.731,2.786,0.731
				c3.249,0,5.883-2.634,5.883-5.883c0-3.249-2.634-5.883-5.883-5.883c-3.249,0-5.883,2.634-5.883,5.883
				c0,1.014,0.28,1.953,0.731,2.786l-0.052,0.052h-11.995c-2.285,0-4.144,1.859-4.144,4.144v0.647l-4.203-4.203l-2.366,2.366
				l9.877,9.877l-1,1c-1.489,1.488-2.307,3.467-2.307,5.572v26.976h3.347v-25.452l9.46,9.46c1.195,1.195,1.853,2.786,1.853,4.475
				v11.516h1.27h2.077v-11.516c0-2.584-1.007-5.014-2.834-6.842l-11.09-11.09c0.171-0.261,0.365-0.508,0.591-0.733l1-1
				l23.426,23.425l-7.756,7.756h15.513h2.456h9.093v-27.062L999.396,406.125z M971.278,378.008v-3.994
				c0-0.44,0.358-0.797,0.798-0.797h8.648l-7.118,7.118L971.278,378.008z M983.09,389.819l-7.119-7.119l7.119-7.118V389.819z"/>
		</g>
	</g>
	<g>
		<g>
			<g>
				<g>
					<polygon fill="#D1D1D1" points="106.035,588.565 98.505,588.565 67.756,828.909 75.286,828.909 					"/>
					<polygon fill="#FFFFFF" points="99.878,588.565 107.409,588.565 138.158,828.909 130.627,828.909 					"/>
				</g>
				<path fill="#ED6E21" d="M113.736,588.565c0,5.953-4.826,10.779-10.78,10.779c-5.953,0-10.779-4.826-10.779-10.779
					s4.826-10.78,10.779-10.78C108.91,577.785,113.736,582.611,113.736,588.565z"/>
			</g>
			<g>
				<g>
					<polygon fill="#D1D1D1" points="334.521,588.565 326.991,588.565 296.241,828.909 303.772,828.909 					"/>
					<polygon fill="#FFFFFF" points="328.364,588.565 335.895,588.565 366.644,828.909 359.113,828.909 					"/>
				</g>
				<path fill="#ED6E21" d="M342.222,588.565c0,5.953-4.826,10.779-10.779,10.779s-10.78-4.826-10.78-10.779
					s4.826-10.78,10.78-10.78S342.222,582.611,342.222,588.565z"/>
			</g>
		</g>
		<g>
			<rect x="75.276" y="601.833" fill="#F7CA16" width="283.848" height="43.503"/>
			<g>
				<polygon fill="#392F1D" points="108.712,645.336 88.578,645.336 115.354,601.833 135.487,601.833 				"/>
				<polygon fill="#392F1D" points="161.295,645.336 141.162,645.336 167.937,601.833 188.071,601.833 				"/>
				<polygon fill="#392F1D" points="213.879,645.336 193.745,645.336 220.521,601.833 240.654,601.833 				"/>
				<polygon fill="#392F1D" points="266.462,645.336 246.328,645.336 273.104,601.833 293.238,601.833 				"/>
				<polygon fill="#392F1D" points="319.046,645.336 298.912,645.336 325.688,601.833 345.821,601.833 				"/>
			</g>
		</g>
		<g>
			<rect x="75.276" y="659.648" fill="#F7CA16" width="283.848" height="43.503"/>
			<g>
				<polygon fill="#392F1D" points="108.712,703.151 88.578,703.151 115.354,659.648 135.487,659.648 				"/>
				<polygon fill="#392F1D" points="161.295,703.151 141.162,703.151 167.937,659.648 188.071,659.648 				"/>
				<polygon fill="#392F1D" points="213.879,703.151 193.745,703.151 220.521,659.648 240.654,659.648 				"/>
				<polygon fill="#392F1D" points="266.462,703.151 246.328,703.151 273.104,659.648 293.238,659.648 				"/>
				<polygon fill="#392F1D" points="319.046,703.151 298.912,703.151 325.688,659.648 345.821,659.648 				"/>
			</g>
		</g>
	</g>
	<g>
		<path fill="#183B59" d="M277.49,373.094c0,0-12.944-1.239-15.912,9.511c-3.17,11.482,2.449,14.509-2.014,21.338
			c-4.463,6.83-3.828,12.948,1.588,16c5.416,3.053,16.004,1.393,18.426-6.533c2.422-7.926-1.707-13.255-4.321-20.154
			c-2.614-6.9,0.341-12.551,5.684-12.95L277.49,373.094z"/>
		<path fill="#0E1D2C" d="M280.941,380.306l-3.451-7.213c0,0-4.333-0.4-8.56,1.333c1.302,2.789,3.421,6.343,6.605,9.142
			C276.689,381.687,278.581,380.482,280.941,380.306z"/>
		<path fill="#D3E3F2" d="M341.724,433.661c10.08,6.314,15.513,16.409,24.356,34.475c8.843,18.066,17.414,31.765,17.414,31.765
			l-17.571,33.42l-35.645-47.771L341.724,433.661z"/>
		<polygon fill="#D3E3F2" points="243.554,437.936 279.324,415.659 308.63,415.659 340.43,434.014 346.077,555.441 247.712,555.441 
					"/>
		<g>
			<path fill="#FFFFFF" d="M379.886,820.887l20.081,15.531c0,0,16.63,2.039,17.257,18.355c0,0-45.81,0-62.596,0
				c-1.03-11.296,3.765-22.591,3.765-22.591l-1.255-11.296H379.886z"/>
			<path fill="#FFFFFF" d="M274.931,820.887l18.071,15.531c0,0,16.63,2.039,17.257,18.355c0,0-45.81,0-62.596,0
				c-1.03-11.296,3.765-22.591,3.765-22.591l0.755-11.296H274.931z"/>
			<path fill="#1F466C" d="M343.96,554.373l40.946,267.926h-31.063c0,0-28.71-96.61-27.298-133.963l-25.653-94.302h-6.076
				l-16.221,228.265h-28.973c0,0-4.106-94.257,2.954-133.963c0,0-18.67-76.417-6.276-133.963H343.96z"/>
			<path fill="#183B59" d="M343.96,554.373H246.3c-1.932,8.971-3.109,18.402-3.72,27.929c47.341,4.823,88.877-7.859,103.639-13.141
				L343.96,554.373z"/>
			
				<line fill="none" stroke="#3175B5" stroke-width="0.4936" stroke-miterlimit="10" x1="299.719" y1="554.373" x2="299.719" y2="594.034"/>
			<path fill="none" stroke="#3175B5" stroke-width="0.4936" stroke-miterlimit="10" d="M306.521,554.373v13.891
				c0,5.255-2.495,10.198-6.723,13.318l-0.079,0.058"/>
			<path fill="none" stroke="#3175B5" stroke-width="0.4936" stroke-miterlimit="10" d="M242.083,595.426
				c22.04-6.818,28.483-35.417,29.546-41.053"/>
			<path fill="#1F466C" d="M354.628,854.774c16.786,0,62.596,0,62.596,0c-0.057-1.474-0.248-2.829-0.542-4.079h-62.188
				C354.467,852.041,354.503,853.407,354.628,854.774z"/>
			<path fill="#1F466C" d="M247.663,854.774c16.786,0,62.596,0,62.596,0c-0.057-1.474-0.248-2.829-0.542-4.079h-62.188
				C247.502,852.041,247.538,853.407,247.663,854.774z"/>
			
				<line fill="none" stroke="#3175B5" stroke-width="0.4796" stroke-miterlimit="10" x1="280.935" y1="588.7" x2="317.265" y2="588.7"/>
		</g>
		<g>
			<path fill="#ED6E21" d="M268.136,420.97l-24.127,15.265c13.677,9.416,21.572,33.816,20.176,57.551
				c-1.412,24.003-24.709,24.474-24.709,24.474l-2.589,44.947h45.393c7.532,0,13.638-6.106,13.638-13.638l0-96.298
				c0-3.779-1.845-7.297-4.891-9.535c-9.49-6.976-14.921-15.527-17.775-21.346C272.318,420.488,269.927,419.837,268.136,420.97z"/>
			<path fill="#ED6E21" d="M346.078,499.199c3.647-10.001,5.295-30.357,1.647-40.711s-6.001-24.827-6.001-24.827l-26.22-15.471
				c0.223,6.199,2.804,15.882-4.091,25.546c-2.195,3.076-4.891,5.756-4.891,9.535l0,96.298c0,7.532,6.106,13.638,13.638,13.638
				h36.208L346.078,499.199z"/>
			<g>
				<polygon fill="#F7AD52" points="295.917,548.654 295.917,529.593 238.823,529.593 237.725,548.654 				"/>
				<path fill="#F7AD52" d="M295.917,526.496v-19.061h-35.995c-7.1,10.546-20.447,10.825-20.447,10.825l-0.474,8.236H295.917z"/>
				<polygon fill="#F7AD52" points="306.521,507.435 306.521,526.496 350.465,526.496 347.401,507.435 				"/>
				<polygon fill="#F7AD52" points="350.963,529.593 306.521,529.593 306.521,548.654 354.027,548.654 				"/>
			</g>
		</g>
		<polygon fill="#FFFFFF" points="280.187,411.5 307.057,411.5 313.054,417.416 307.17,433.282 300.892,425.752 295.558,433.282 
			276.5,418.718 		"/>
		
			<line fill="none" stroke="#748EA9" stroke-width="0.4936" stroke-miterlimit="10" x1="300.892" y1="429.935" x2="300.892" y2="552.304"/>
		<g>
			<polygon fill="#D9D9D9" points="335.996,532.959 306.044,538.087 324.559,452.212 354.511,447.084 			"/>
			<polygon fill="#D9D9D9" points="393.688,532.959 363.736,538.087 382.252,452.212 412.204,447.084 			"/>
			<polygon fill="#FFFFFF" points="335.996,532.959 363.736,538.087 382.252,452.212 354.511,447.084 			"/>
		</g>
		<polygon fill="#949494" points="323.398,498.336 319.295,503.547 323.097,511.987 308.967,524.529 314.654,498.153 		"/>
		<polygon fill="#949494" points="394.541,478.768 397.384,484.076 391.262,491.032 398.84,509.063 404.555,482.559 		"/>
		<g>
			<path fill="#F7C318" d="M409.63,483.798c-0.375-1.156-1.266-2.078-2.383-2.557l-10.92-4.398
				c-0.751-0.322-1.618,0.063-1.882,0.836c-0.211,0.617,0.031,1.298,0.584,1.644l8.144,5.019l-8.424-2.877
				c-1.447-0.494-3.02,0.278-3.514,1.725l-1.503,4.403c-0.468,1.37,0.199,2.87,1.531,3.439l6.655,2.846
				c0.472,1.387,1.018,2.6,1.605,3.659c0.818,1.475,1.076,3.187,0.72,4.836l-0.698,3.238l0.282-0.051
				c3.657-0.657,6.65-3.286,7.773-6.828l2.055-6.483C410.528,489.5,410.52,486.544,409.63,483.798z"/>
			
				<line fill="none" stroke="#9A7914" stroke-width="0.506" stroke-miterlimit="10" x1="403.836" y1="488.483" x2="390.932" y2="484.076"/>
			
				<line fill="none" stroke="#9A7914" stroke-width="0.506" stroke-miterlimit="10" x1="402.779" y1="491.579" x2="389.875" y2="487.172"/>
		</g>
		<path fill="#D3E3F2" d="M243.554,437.936c-10.668,7.138-15.845,14.904-21.728,37.966c-5.883,23.062-25.258,77.657,21.728,82.834
			l14.747-78.598C258.301,480.138,255.87,447.271,243.554,437.936z"/>
		<path fill="#5E656C" d="M252.706,540.237c-2.542,10.813-6.723,19.08-9.338,18.465c-2.615-0.615-2.673-9.879-0.131-20.692
			c2.543-10.813,6.723-19.08,9.338-18.465C255.191,520.16,255.249,529.424,252.706,540.237z"/>
		
			<line fill="none" stroke="#748EA9" stroke-width="0.4936" stroke-miterlimit="10" x1="251.007" y1="519.016" x2="258.301" y2="480.138"/>
		<path fill="none" stroke="#748EA9" stroke-width="0.4936" stroke-miterlimit="10" d="M226.384,518.495c0,0,10.59-6.707,23.179,0"
			/>
		
			<line fill="none" stroke="#748EA9" stroke-width="0.4936" stroke-miterlimit="10" x1="240.974" y1="509.063" x2="248.74" y2="516.26"/>
		<path fill="#F39A9C" d="M252.576,519.545l36.239-5.835l1.255,13.649l-48.455,20.12
			C241.616,547.479,244.829,521.966,252.576,519.545z"/>
		<path fill="#ED6B6D" d="M288.815,513.71l-17.016,2.74c1.093,3.425,3.565,9.005,8.698,13.081c0.91,0.723,2.138,0.916,3.212,0.47
			l6.361-2.641L288.815,513.71z"/>
		<g>
			<path fill="#F7C318" d="M283.532,512.24c0,0-0.444,10.313,4.658,18.355l15.083-10.48c0,0,4.524,1.126,10.869-7.098l7.614-0.573
				c1.523-0.115,2.701-1.384,2.701-2.912v-4.908c0-1.612-1.307-2.92-2.92-2.92h-9.391l11.167-2.616
				c0.67-0.157,1.143-0.754,1.143-1.442l0,0c0-0.862-0.734-1.542-1.594-1.477l-13.727,1.049c-1.327,0.101-2.544,0.777-3.332,1.851
				l-8.852,12.062L283.532,512.24z"/>
			
				<line fill="none" stroke="#9A7914" stroke-width="0.506" stroke-miterlimit="10" x1="310.073" y1="505.611" x2="324.457" y2="505.611"/>
			
				<line fill="none" stroke="#9A7914" stroke-width="0.506" stroke-miterlimit="10" x1="310.073" y1="509.063" x2="324.457" y2="509.063"/>
		</g>
		<path fill="#F39A9C" d="M316.034,361.181l0.941,14.826c0,0,5.099,5.883,2.118,14.512s-10.825,10.119-10.825,10.119l0.471,15.57
			l-8.083,8.76l-16.7-8.779c-1.331-0.7-2.106-2.135-1.962-3.632l2.153-22.234l5.894-11.475c1.459-2.84,2.17-6.006,2.067-9.197
			l-0.234-7.214L316.034,361.181z"/>
		<path fill="#183B59" d="M275.665,366.152c0,0-3.21,16.69,8.483,24.17c0,0,12.972-17.508,11.678-26.889L275.665,366.152z"/>
		<circle fill="#F39A9C" cx="284.683" cy="379.988" r="6.471"/>
		<path fill="none" stroke="#DB5D5D" stroke-width="0.4936" stroke-miterlimit="10" d="M280.962,379.988
			c0-2.055,1.666-3.721,3.721-3.721c2.055,0,3.721,1.666,3.721,3.721"/>
		<path fill="#ED6B6D" d="M308.269,400.637c-7.251,1.061-12.568-0.58-15.29-3.093c-0.805-0.743-2.129-0.234-2.086,0.86
			c0.293,7.501,5.657,16.18,17.738,17.056L308.269,400.637z"/>
		<g>
			<path fill="#363636" d="M302.059,374.274c0.069,1.395-0.565,2.561-1.417,2.603c-0.851,0.042-1.597-1.055-1.666-2.45
				c-0.069-1.396,0.565-2.561,1.416-2.603C301.244,371.781,301.99,372.878,302.059,374.274z"/>
			<path fill="#363636" d="M313.967,373.685c0.069,1.395-0.565,2.561-1.417,2.603c-0.851,0.042-1.597-1.055-1.666-2.45
				c-0.069-1.396,0.565-2.561,1.417-2.603C313.152,371.193,313.898,372.29,313.967,373.685z"/>
		</g>
		<g>
			<path fill="none" stroke="#363636" stroke-width="0.9872" stroke-miterlimit="10" d="M297.635,370.328
				c0,0,2.129-0.697,5.162-0.402"/>
			<path fill="none" stroke="#363636" stroke-width="0.9872" stroke-miterlimit="10" d="M309.308,369.419
				c0,0,2.129-0.697,5.162-0.402"/>
		</g>
		<path fill="none" stroke="#DB5D5D" stroke-width="0.4936" stroke-miterlimit="10" d="M307.72,372.634l0.471,5.494
			c0,0,1.883-0.239,2.275,1.095c0.392,1.333-3.451,1.804-3.451,1.804"/>
		<path fill="#FFFFFF" d="M301.687,382.831h10.739c0,0-0.784,10.511-4.471,10.903C304.268,394.127,301.687,382.831,301.687,382.831z
			"/>
		<path fill="#F7C318" d="M294.169,340.174L294.169,340.174c10.611-1.661,20.649,6.509,20.89,17.354
			c9.414,1.999,12.866,5.381,12.866,5.381l-52.259,3.243l-0.172-2.778C274.786,351.976,282.883,341.918,294.169,340.174z"/>
		<path fill="#F7DA7A" d="M292.786,340.455c0.458-0.101,0.913-0.209,1.382-0.281h0c10.61-1.661,20.649,6.509,20.889,17.354
			l-7.715,0.479C307.344,358.007,306.618,344.869,292.786,340.455z"/>
	</g>
	<g>
		<path fill="#ED6E21" d="M856.155,850.48h93.82l-42.621-180.527c-1.068-4.526-7.51-4.526-8.578,0L856.155,850.48z"/>
		<path fill="#ED6E21" d="M962.092,854.774H844.039c-1.522,0-2.756-1.234-2.756-2.755l0,0c0-1.522,1.234-2.756,2.756-2.756h118.053
			c1.522,0,2.756,1.234,2.756,2.756l0,0C964.847,853.54,963.613,854.774,962.092,854.774z"/>
		<g>
			<polygon fill="#FFFFFF" points="888.215,714.683 884.544,730.234 921.586,730.234 917.914,714.683 			"/>
			<polygon fill="#FFFFFF" points="879.702,750.744 876.031,766.295 930.099,766.295 926.428,750.744 			"/>
			<polygon fill="#FFFFFF" points="938.613,802.355 934.942,786.805 871.188,786.805 867.517,802.355 			"/>
		</g>
	</g>
</g>
</svg>
