<svg xmlns="http://www.w3.org/2000/svg" xmlns:xlink="http://www.w3.org/1999/xlink" viewBox="0 0 750 500" style="enable-background:new 0 0 750 500" xml:space="preserve"><style>.st0{fill:#e0e0e0}.st1{fill:#ebebeb}.st2{fill:#f5f5f5}.st3{fill:#fafafa}.st6{fill:#263238}.st7{fill:#e8505b}.st8{opacity:.6}.st9{fill:#fff}.st10{fill:#455a64}.st11{opacity:.4}.st12{fill:#ffbe9d}.st13{fill:#eb996e}.st14{opacity:.7}.st15{opacity:.3}.st16{fill:#aa6550}.st17{fill:#773f32}.st18{fill:#f8ad91}.st19{fill:#ce8679}</style><g id="Background_Complete"><path class="st0" d="M288.3 196.3h1v53.3h-1zM271.3 197.1h1v53.3h-1zM254.4 196.2h1v53.3h-1zM237.4 197.1h1v53.3h-1z"/><path class="st1" d="M236.8 238.5h121.5v160.2H236.8z"/><path class="st0" d="M301.3 238.5h57v160.2h-57z"/><path class="st2" d="M262.3 260.2h10.9v26.5h-10.9zM262.3 364.1h10.9v26.5h-10.9zM301.3 297.2c0 .3-14.4.5-32.3.5-17.8 0-32.3-.2-32.3-.5s14.4-.5 32.3-.5c17.9-.1 32.3.2 32.3.5zM262.3 312.6h10.9v26.5h-10.9zM301.3 349.5c0 .3-14.4.5-32.3.5-17.8 0-32.3-.2-32.3-.5s14.4-.5 32.3-.5 32.3.2 32.3.5zM313.4 260.2h10.9v26.5h-10.9zM337.1 260.2H348v26.5h-10.9zM313.4 310.6h10.9v26.5h-10.9zM337.1 310.6H348v26.5h-10.9zM313.4 361h10.9v26.5h-10.9zM337.1 361H348v26.5h-10.9z"/><path class="st0" d="M301.3 241.3v-14.5h12.1v-7.9h16.4v-7.1h28.5v28.3z"/><path class="st0" d="M300.8 188.3h1v53.3h-1zM312.9 188.3h1v53.3h-1zM329.3 180.8h1v53.3h-1zM357 180.8h1v53.3h-1zM343.2 180.8h1v53.3h-1z"/><path class="st0" d="M238.4 224.3h63v1h-63zM238.5 211.3h91.4v1h-91.4zM315.5 41.5s.1 0 0 0c.2 0 .4-.2.4-.3V31.5c0-3-2.4-5.4-5.4-5.4-1.1 0-2.1.3-3 .9l-4.2-.9c-.2-.6-.6-1.2-1.2-1.6-1.4-.9-3.3-.5-4.2.9-.9 1.4-.5 3.3.9 4.2.6.4 1.2.5 1.9.4l4.4 5.2v6.1c0 .1.1.3.2.3h.2l-2.3 35.8h1.3l.5-7.9 5 6.5-1 1.3h1l.5-.7.5.7h1l-1-1.3 5.1-6.6.5 7.9H317.9l-2.4-35.8zm-4.8 0 3.4 7h-7.3l3.5-7.1.4.1zm.9 0h2.6l.4 6.4-3-6.4zm-3.7 0h1.4l-2.9 5.9.4-5.9h1.1zm-1.8 10 3.9 6.4-4.8 7.6.9-14zm.5-.7h7.9l-4 6.3-3.9-6.3zm8.3.9.9 14-4.8-7.9 3.9-6.1zm-4.4 6.9 4.7 7.6h-9.6l4.9-7.6zm-5.3 9.9h10.5l-5.4 6.9-5.1-6.9z"/><path class="st0" d="M320.6 100.5h-1.3v7.5l-5.5-6.1 5.7-6.1h.7V94h-13.6v1.8h.9l5.5 6-5.9 6.3v-7.8H304.7v185.6h2.4v-1.6h12.3v1.6h2.4V100.5h-1.2zm-13.2 155.1 5.5 6-5.9 6.3v-12.4l.4.1zm.9 0h10.2l-5.2 5.6-5-5.6zm-.7-1.8 5.7-6.1 5.5 6.1h-11.2zm-.6-.3v-12.4h.4l5.5 6-5.9 6.4zm1.3-12.4h10.2l-5.2 5.6-5-5.6zm-.7-1.8 5.7-6.1 5.5 6.1h-11.2zm-.6-.3v-12.4h.4l5.5 6-5.9 6.4zm1.3-12.4h10.2l-5.2 5.6-5-5.6zm-.7-1.8 5.7-6.1 5.5 6.1h-11.2zm-.6-.3v-12.4h.4l5.5 6-5.9 6.4zm1.3-12.3h10.2l-5.2 5.6-5-5.6zm-.7-1.8 5.7-6.1 5.5 6.1h-11.2zm-.6-.3v-12.4h.4l5.5 6-5.9 6.4zm1.3-12.4h10.2l-5.2 5.6-5-5.6zm-.7-1.8 5.7-6.1 5.5 6.1h-11.2zm-.6-.3v-12.4h.4l5.5 6-5.9 6.4zm1.3-12.4h10.2l-5.2 5.6-5-5.6zm-.7-1.8 5.7-6.1 5.5 6.1h-11.2zm-.6-.3v-12.4h.4l5.5 6-5.9 6.4zm1.3-12.3h10.2l-5.2 5.6-5-5.6zm-.7-1.9 5.7-6.1 5.5 6.1h-11.2zm-.6-.3v-12.4h.4l5.5 6-5.9 6.4zm1.3-12.3h10.2l-5.2 5.6-5-5.6zm-.7-1.8 5.7-6.1 5.5 6.1h-11.2zm-.6-.3v-12.4h.4l5.5 6-5.9 6.4zm1.3-12.4h10.2l-5.2 5.6-5-5.6zm-.7-1.8 5.7-6.1 5.5 6.1h-11.2zm-.6-.3v-12.4h.4l5.5 6-5.9 6.4zm1.3-12.4h10.2l-5.2 5.6-5-5.6zm-.7 142.9 5.7-6.1 5.5 6.1h-11.2zm6.2-6.6 5.5-5.9v12l-5.5-6.1zm0-14.4 5.5-5.9v12l-5.5-6.1zm0-14.5 5.5-5.9v12l-5.5-6.1zm0-14.5 5.5-5.9v12l-5.5-6.1zm0-14.5 5.5-5.9v12l-5.5-6.1zm0-14.4 5.5-5.9v12l-5.5-6.1zm0-14.5 5.5-5.9v12l-5.5-6.1zm0-14.5 5.5-5.9v12l-5.5-6.1zm0-14.4 5.5-5.9v12l-5.5-6.1zm0-14.5 5.5-5.9v12l-5.5-6.1zm5.3-7.9h-11.7l6-6.4 5.7 6.4zm-5.3-6.8 5.5-5.9v12l-5.5-6.1zM307 123v-12.4h.4l5.5 6-5.9 6.4zm0 147.1h.4l5.5 6-5.9 6.3v-12.3zm1.3 0h10.2l-5.2 5.6-5-5.6zm11 .1v12l-5.5-6.1 5.5-5.9zm-5.9-154-5-5.6h10.2l-5.2 5.6zm0 160.4 5.5 6.1h-11.3l5.8-6.1zm-5.1-180.7h10.2l-5.2 5.6-5-5.6zm10.8 12.9h-11.7l6-6.4 5.7 6.4z"/><path class="st0" d="m500.6 92-17.9-13.2c-.9-.6-1.9-1-3-1H245.5v2.4h1.1v12.3h-1.1v2.4h254.2c.8 0 1.4-.6 1.4-1.4v-.2c0-.6-.2-1-.5-1.3zm-29.1-6.4-5.9-5.5h12l-6.1 5.5zm6.6-5.1v11.3l-6.1-5.7 6.1-5.6zm-12.6.4 5.6 5.2-5.6 5V80.9zm-8.4 4.7-5.9-5.5h12l-6.1 5.5zm6.6-5.1v11.3l-6.1-5.7 6.1-5.6zm-12.7.4 5.6 5.2-5.6 5V80.9zm-8.4 4.7-5.9-5.5h12l-6.1 5.5zm6.6-5.1v11.3l-6.1-5.7 6.1-5.6zm-12.7.4 5.6 5.2-5.6 5V80.9zm-8.4 4.7-5.9-5.5h12l-6.1 5.5zm6.6-5.1v11.3l-6.1-5.7 6.1-5.6zm-12.6.4 5.6 5.2-5.6 5V80.9zm-8.4 4.7-5.9-5.5h12l-6.1 5.5zm6.6-5.1v11.3l-6.1-5.7 6.1-5.6zm-12.7.4 5.6 5.2-5.6 5V80.9zm-8.4 4.7-5.9-5.5h12l-6.1 5.5zm6.6-5.1v11.3l-6.1-5.7 6.1-5.6zm-12.7.4 5.6 5.2-5.6 5V80.9zm-8.4 4.7-5.9-5.5h12l-6.1 5.5zm6.6-5.1v11.3l-6.1-5.7 6.1-5.6zm-12.6.4 5.6 5.2-5.6 5V80.9zm-8.5 4.7-5.9-5.5h12l-6.1 5.5zm6.6-5.1v11.3l-6.1-5.7 6.1-5.6zm-12.6.4 5.6 5.2-5.6 5V80.9zm-1.8 10.9-6.1-5.7 6.1-5.5v11.2zm1.8.2 6-5.5 6.3 5.9h-12.4l.1-.4zm14.5 0 6-5.5 6.3 5.9h-12.4l.1-.4zm14.4 0 6-5.5 6.3 5.9H393l.1-.4zm14.5 0 6-5.5 6.3 5.9h-12.4l.1-.4zm14.5 0 6-5.5 6.3 5.9H422l.1-.4zm14.4 0 6-5.5 6.3 5.9h-12.4l.1-.4zm14.5 0 6-5.5 6.3 5.9H451V92zm14.5 0 6-5.5 6.3 5.9h-12.4l.1-.4zM361.8 80.1l-6.1 5.5-5.9-5.5h12zm-113.4.8 5.6 5.2-5.6 5V80.9zm.2-.8h12l-6.1 5.5-5.9-5.5zm92.7 5.5-5.9-5.5h12l-6.1 5.5zm6.6-5.1v11.3l-6.1-5.7 6.1-5.6zm-12.7.4 5.6 5.2-5.6 5V80.9zm-8.4 4.7-5.9-5.5h12l-6.1 5.5zm6.6-5.1v11.3l-6.1-5.7 6.1-5.6zm-12.6.4 5.6 5.2-5.6 5V80.9zm-8.4 4.7-5.9-5.5h12l-6.1 5.5zm6.6-5.1v11.3l-6.1-5.7 6.1-5.6zm-12.7.4 5.6 5.2-5.6 5V80.9zm-8.4 4.7-5.9-5.5h12l-6.1 5.5zm6.6-5.1v11.3l-6.1-5.7 6.1-5.6zm-12.7.4 5.6 5.2-5.6 5V80.9zm-8.4 4.7-5.9-5.5h12l-6.1 5.5zm6.6-5.1v11.3l-6.1-5.7 6.1-5.6zm-12.6.4 5.6 5.2-5.6 5V80.9zm-8.5 4.7-5.9-5.5h12l-6.1 5.5zm6.6-5.1v11.3l-6.1-5.7 6.1-5.6zm-12.6.4 5.6 5.2-5.6 5V80.9zm-1.8-.4v11.3l-6.1-5.7 6.1-5.6zm1.8 11.5 6-5.5 6.3 5.9h-12.4l.1-.4zm14.5 0 6-5.5 6.3 5.9h-12.4l.1-.4zm14.4 0 6-5.5 6.3 5.9h-12.4l.1-.4zm14.5 0 6-5.5 6.3 5.9h-12.4l.1-.4zm14.5 0 6-5.5 6.3 5.9h-12.4l.1-.4zm14.4 0 6-5.5 6.3 5.9h-12.4l.1-.4zm14.5-11.1 5.6 5.2-5.6 5V80.9zM248.4 92l6-5.5 6.3 5.9h-12.4l.1-.4zm101.3.4V92l6-5.5 6.3 5.9h-12.3zm130.3 0V80.1c1 .1 2 .4 2.8.9L499 92.4h-19z"/><path class="st1" d="M297.7 77.5c.1 7.9-.1 31.8-.1 31.8h28.7l-.8-4.7c-.1-.5-.1-1 0-1.5l2.1-10.4-5.1-16c-.3-1-1.3-1.7-2.3-1.7h-20c-1.4 0-2.5 1.2-2.5 2.5z"/><path class="st2" d="M310.9 77.3v17.5h13.7l1.5-1.9-5.4-15.6z"/><path class="st0" d="M479.7 77.8s-.2 0-.6-.2c-.4-.1-1.1-.3-1.9-.5-1.7-.5-4.1-1.2-7.2-2-6.3-1.8-15.4-4.4-26.5-7.6C421 61 390 52.1 355.8 42.2c-19.7-5.7-38.2-11.1-54.5-15.8l.2-.1c-15.6 14.6-28.8 26.9-38.2 35.5-4.7 4.3-8.3 7.7-10.9 10-1.3 1.1-2.3 2-2.9 2.6-.7.6-1.1.8-1.1.8s.1-.1.3-.2l.7-.7c.7-.6 1.6-1.5 2.9-2.6 2.5-2.3 6.2-5.7 10.8-10.1 9.3-8.7 22.4-21 38-35.6l.1-.1h.1c16.3 4.7 34.8 10 54.5 15.7 34.2 9.9 65.1 18.9 87.5 25.4 11.2 3.3 20.2 5.9 26.5 7.7 3.1.9 5.5 1.6 7.2 2.1.8.2 1.4.4 1.9.6l.8.4z"/><path class="st1" d="M236.5 74.4c-.9 0-1.7.4-2.2 1.1-1.3 1.7-3.3 4.7-3.5 5-.2.3-.1 10.5 0 15.5 0 1.5 1.3 2.8 2.8 2.8H259c1.6 0 2.8-1.3 2.8-2.8V77.2c0-1.6-1.3-2.8-2.8-2.8h-22.5zM314.3 32c0 2.1-1.7 3.8-3.8 3.8s-3.8-1.7-3.8-3.8 1.7-3.8 3.8-3.8 3.8 1.7 3.8 3.8zM302.6 27c0 1.2-.9 2.1-2.1 2.1s-2.1-.9-2.1-2.1c0-1.2.9-2.1 2.1-2.1s2.1 1 2.1 2.1z"/><path class="st0" d="M142.4 116H143.2l.3-4.5 2.9 3.7-.6.8h.6l.3-.4.3.4h.6l-.6-.8 2.8-3.7.3 4.5h.8l-1.3-20.4h.2c.1 0 .1-.1.1-.2v-3.5l2.5-3c.4 0 .7 0 1.1-.2.8-.5 1-1.6.5-2.4-.5-.8-1.6-1-2.4-.5-.4.2-.6.5-.7.9l-2.4.5c-.5-.3-1.1-.5-1.7-.5-1.7 0-3.1 1.4-3.1 3.1V95.4c0 .1.1.2.2.2l-1.5 20.4zm4.3-20.4 2 4h-4.2l1.9-4h.3zm-2.5 3.7.2-3.7h1.5l-1.7 3.7zm4.5-3.7.2 3.4-1.7-3.4h1.5zm.9 13.6-2.7-4.3 2.2-3.6.5 7.9zm-3-4.7-2.3-3.6h4.5l-2.2 3.6zm-.3.4-2.8 4.5.5-8 2.3 3.5zm3 4.8h-5.4l2.7-4.3 2.7 4.3zm-2.7 5.2-3-3.9h6l-3 3.9zM140.2 129.2v105.6h1.4v-.9h7v.9h1.4V129.2h-1.3v4.4l-3.4-3.6 3.1-3.4h.5v-1h-7.7v1h.4l3.2 3.4-3.1 3.5v-4.3h-1.5zm8.3 88.3v7l-3.4-3.6 3.1-3.4h.3zm-3.6 3.1-3-3.2h5.8l-2.8 3.2zm-3.1-4.2 3.2-3.5 3.3 3.5h-6.5zm3.4-3.7 3.1-3.4h.2v7l-3.3-3.6zm-.3-.3-3-3.2h5.8l-2.8 3.2zm-3.1-4.2 3.2-3.5 3.3 3.5h-6.5zm3.4-3.8 3.1-3.4h.2v7l-3.3-3.6zm-.3-.2-3-3.2h5.8l-2.8 3.2zm-3.1-4.2 3.2-3.5 3.3 3.5h-6.5zm3.4-3.8 3.1-3.4h.2v7l-3.3-3.6zm-.3-.3-3-3.2h5.8l-2.8 3.2zm-3.1-4.2 3.2-3.5 3.3 3.5h-6.5zm3.4-3.7 3.1-3.4h.2v7l-3.3-3.6zm-.3-.3-3-3.2h5.8l-2.8 3.2zm-3.1-4.2 3.2-3.5 3.3 3.5h-6.5zm3.4-3.8 3.1-3.4h.2v7l-3.3-3.6zm-.3-.3-3-3.2h5.8l-2.8 3.2zm-3.1-4.2 3.2-3.5 3.3 3.5h-6.5zm3.4-3.7 3.1-3.4h.2v7l-3.3-3.6zm-.3-.3-3-3.2h5.8l-2.8 3.2zm-3.1-4.2 3.2-3.5 3.3 3.5h-6.5zm3.4-3.7 3.1-3.4h.2v7l-3.3-3.6zm-.3-.3-3-3.2h5.8l-2.8 3.2zm-3.1-4.2 3.2-3.5 3.3 3.5h-6.5zm3.4-3.8 3.1-3.4h.2v7l-3.3-3.6zm-.3-.3-3-3.2h5.8l-2.8 3.2zm-3.1-4.2 3.2-3.5 3.3 3.5h-6.5zm3.4-3.7 3.1-3.4h.2v7l-3.3-3.6zm-.3-.3-3-3.2h5.8l-2.8 3.2zm-3.1 78.2 3.2-3.5 3.3 3.5h-6.5zm-.3-.3v-6.8l3.1 3.4-3.1 3.4zm0-8.3v-6.8l3.1 3.4-3.1 3.4zm0-8.2v-6.8l3.1 3.4-3.1 3.4zm0-8.2v-6.8l3.1 3.4-3.1 3.4zm0-8.3v-6.8l3.1 3.4-3.1 3.4zm0-8.2v-6.8l3.1 3.4-3.1 3.4zm0-8.3v-6.8l3.1 3.4-3.1 3.4zm0-8.2v-6.8l3.1 3.4-3.1 3.4zm0-8.2v-6.8l3.1 3.4-3.1 3.4zm0-8.3v-6.8l3.1 3.4-3.1 3.4zm3.4-11.5 3.4 3.6h-6.7l3.3-3.6zm-3.4 3.2v-6.8l3.1 3.4-3.1 3.4zm3.7-3.5 3.1-3.4h.2v7l-3.3-3.6zm3.3 94.3-3.4-3.6 3.1-3.4h.2v7zm-3.6-3.8-3-3.2h5.8l-2.8 3.2zm-.2.2-3.1 3.5v-6.8l3.1 3.3zM142 135h5.8l-2.9 3.2-2.9-3.2zm6.2 97.9h-6.4l3.2-3.5 3.2 3.5zm-3.3-103.1-3-3.2h5.8l-2.8 3.2zm0 .5 3.4 3.6h-6.7l3.3-3.6z"/><path class="st0" d="M38.1 125v.1c0 .4.4.8.8.8H183.6v-1.4h-.6v-7h.6v-1.4H50.3c-.6 0-1.2.2-1.7.6l-10.2 7.5c-.2.3-.3.6-.3.8zm13.3-7.4h6.8l-3.4 3.1-3.4-3.1zm3.2 3.4-3.5 3.3v-6.4l3.5 3.1zm3.7 2.9-3.2-2.9 3.2-3v5.9zm1.4-6.3h6.8l-3.4 3.1-3.4-3.1zm3.2 3.4-3.5 3.3v-6.4l3.5 3.1zm3.7 2.9-3.2-2.9 3.2-3v5.9zm1.3-6.3h6.8l-3.4 3.1-3.4-3.1zm3.2 3.4-3.5 3.3v-6.4l3.5 3.1zm3.7 2.9-3.2-2.9 3.2-3v5.9zm1.3-6.3H83l-3.4 3.1-3.5-3.1zm3.2 3.4-3.5 3.3v-6.4l3.5 3.1zm3.7 2.9-3.2-2.9 3.2-3v5.9zm1.4-6.3h6.8l-3.4 3.1-3.4-3.1zm3.2 3.4-3.5 3.3v-6.4l3.5 3.1zm3.7 2.9-3.2-2.9 3.2-3v5.9zm1.3-6.3h6.8l-3.4 3.1-3.4-3.1zm3.2 3.4-3.5 3.3v-6.4l3.5 3.1zm3.7 2.9-3.2-2.9 3.2-3v5.9zm1.4-6.3h6.8l-3.4 3.1-3.4-3.1zm3.1 3.4-3.5 3.3v-6.4l3.5 3.1zm3.8 2.9-3.2-2.9 3.2-3v5.9zm1.3-6.3h6.8l-3.4 3.1-3.4-3.1zm3.2 3.4-3.5 3.3v-6.4l3.5 3.1zm3.7 2.9-3.2-2.9 3.2-3v5.9zm1-6.1 3.5 3.2-3.5 3.3v-6.5zm-1 6.8h-7l3.6-3.4 3.4 3.1v.3zm-8.2 0h-7l3.6-3.4 3.4 3.1v.3zm-8.3 0h-7l3.6-3.4 3.4 3.1v.3zm-8.2 0h-7l3.6-3.4 3.4 3.1v.3zm-8.3 0h-7l3.6-3.4 3.4 3.1v.3zm-8.2 0h-7l3.6-3.4 3.4 3.1v.3zm-8.2 0h-7l3.6-3.4 3.4 3.1v.3zm-8.3 0h-7l3.6-3.4 3.4 3.1v.3zm59.3-7h6.5l-3.4 3.1-3.5-3.1h.4zm64.3 6.3-3.2-2.9 3.2-3v5.9zm-3.5-3.2-3.5-3.1h6.8l-3.3 3.1zm-52.8-3.1h6.8l-3.4 3.1-3.4-3.1zm3.1 3.4-3.5 3.3v-6.4l3.5 3.1zm3.8 2.9-3.2-2.9 3.2-3v5.9zm1.3-6.3h6.8l-3.4 3.1-3.4-3.1zm3.2 3.4-3.5 3.3v-6.4l3.5 3.1zm3.7 2.9-3.2-2.9 3.2-3v5.9zm1.3-6.3h6.8l-3.4 3.1-3.4-3.1zm3.2 3.4-3.5 3.3v-6.4l3.5 3.1zm3.7 2.9-3.2-2.9 3.2-3v5.9zm1.4-6.3h6.8l-3.4 3.1-3.4-3.1zm3.1 3.4-3.5 3.3v-6.4l3.5 3.1zm3.8 2.9L154 121l3.2-3v5.9zm1.3-6.3h6.8l-3.4 3.1-3.4-3.1zm3.2 3.4-3.5 3.3v-6.4l3.5 3.1zm3.7 2.9-3.2-2.9 3.2-3v5.9zm1.3-6.3h6.8l-3.4 3.1-3.4-3.1zm3.2 3.4-3.5 3.3v-6.4l3.5 3.1zm3.7 2.9-3.2-2.9 3.2-3v5.9zm4.6-2.9-3.5 3.3v-6.4l3.5 3.1zm-4.6 3.6h-7l3.6-3.4 3.4 3.1v.3zm-8.2 0h-7l3.6-3.4 3.4 3.1v.3zm-8.2 0h-7l3.6-3.4 3.4 3.1v.3zm-8.3 0h-7l3.6-3.4 3.4 3.1v.3zm-8.2 0h-7l3.6-3.4 3.4 3.1v.3zm-8.2 0h-7l3.6-3.4 3.4 3.1v.3zm-8.3-.7L121 121l3.2-3v5.9zm57.7.7h-7l3.6-3.4 3.4 3.1v.3zm-64.3 0h-.4l3.6-3.4 3.4 3.1v.2h-6.6zm-78.3 0 9.3-6.4c.5-.3 1-.5 1.6-.5v7H39.3z"/><path class="st1" d="M153.8 116.1c-.1 4.5.1 18.1.1 18.1h-16.3l.4-2.7v-.8l-1.2-5.9 2.9-9.1c.2-.6.7-1 1.3-1h11.4c.8 0 1.4.7 1.4 1.4z"/><path class="st2" d="M146.3 116v10h-7.8l-.8-1.1 3-8.9z"/><path class="st0" d="M50.3 116.3s.1-.1.4-.1c.3-.1.6-.2 1.1-.3 1-.3 2.3-.7 4.1-1.2 3.6-1.1 8.7-2.6 15.1-4.4 12.8-3.7 30.4-8.8 49.8-14.5 11.2-3.2 21.8-6.3 31-8.9h.1l.1.1c17.5 16.5 28.4 26.7 29.9 28.1 0 0-.2-.1-.6-.5-.4-.3-.9-.8-1.7-1.5-1.5-1.3-3.6-3.2-6.2-5.6-5.3-4.9-12.8-11.9-21.7-20.2l.2.1c-9.2 2.7-19.8 5.7-31 9-19.4 5.6-37 10.6-49.8 14.3-6.4 1.8-11.5 3.3-15.1 4.3-1.8.5-3.1.9-4.1 1.1-.5.1-.8.2-1.1.3-.4-.2-.5-.1-.5-.1z"/><path class="st1" d="M188.6 114.3c.5 0 .9.2 1.3.6.8.9 1.9 2.7 2 2.8.1.2.1 6 0 8.8 0 .9-.7 1.6-1.6 1.6h-14.5c-.9 0-1.6-.7-1.6-1.6v-10.7c0-.9.7-1.6 1.6-1.6l12.8.1zM144.4 90.2c0 1.2 1 2.2 2.2 2.2 1.2 0 2.2-1 2.2-2.2s-1-2.2-2.2-2.2c-1.3.1-2.2 1-2.2 2.2z"/><circle class="st1" cx="152.2" cy="87.4" r="1.2"/><path class="st2" d="M617.3 146h83.2v252.6h-83.2z"/><path class="st1" d="M658.9 146h41.6v251.9h-41.6z"/><path class="st2" d="M626.8 120.1h29.4V146h-29.4z"/><path class="st1" d="M649.2 120.1h7V146h-7z"/><path class="st0" d="M610.4 146v-1.5H703v1.5"/><path class="st3" d="M633.7 157.3h7v14.9h-7z"/><path class="st0" d="M658.9 178c0 .2-9.3.3-20.8.3s-20.8-.1-20.8-.3c0-.2 9.3-.3 20.8-.3s20.8.1 20.8.3zM675.7 157.3h7v14.9h-7zM700.9 178c0 .2-9.3.3-20.8.3s-20.8-.1-20.8-.3c0-.2 9.3-.3 20.8-.3s20.8.1 20.8.3zM675.7 186.8h7v14.9h-7zM700.9 207.5c0 .2-9.3.3-20.8.3s-20.8-.1-20.8-.3c0-.2 9.3-.3 20.8-.3s20.8.1 20.8.3zM675.7 217.2h7v14.9h-7zM700.9 237.9c0 .2-9.3.3-20.8.3s-20.8-.1-20.8-.3c0-.2 9.3-.3 20.8-.3s20.8.1 20.8.3zM675.7 247.6h7v14.9h-7zM700.9 268.3c0 .2-9.3.3-20.8.3s-20.8-.1-20.8-.3c0-.2 9.3-.3 20.8-.3s20.8.1 20.8.3zM675.7 277.1h7V292h-7zM700.9 297.8c0 .2-9.3.3-20.8.3s-20.8-.1-20.8-.3c0-.2 9.3-.3 20.8-.3s20.8.1 20.8.3zM675.7 306.7h7v14.9h-7zM675.7 336.7h7v14.9h-7zM700.9 327.4c0 .2-9.3.3-20.8.3s-20.8-.1-20.8-.3c0-.2 9.3-.3 20.8-.3s20.8.1 20.8.3z"/><path class="st3" d="M633.7 187.3h7v14.9h-7z"/><path class="st0" d="M658.9 207.9c0 .2-9.3.3-20.8.3s-20.8-.1-20.8-.3c0-.2 9.3-.3 20.8-.3 11.5.1 20.8.2 20.8.3z"/><path class="st3" d="M633.7 217.2h7v14.9h-7z"/><path class="st0" d="M658.9 237.9c0 .2-9.3.3-20.8.3s-20.8-.1-20.8-.3c0-.2 9.3-.3 20.8-.3s20.8.1 20.8.3z"/><path class="st3" d="M633.7 247.1h7V262h-7z"/><path class="st0" d="M658.9 267.8c0 .2-9.3.3-20.8.3s-20.8-.1-20.8-.3c0-.2 9.3-.3 20.8-.3s20.8.2 20.8.3z"/><path class="st3" d="M633.7 277.1h7V292h-7z"/><path class="st0" d="M658.9 297.8c0 .2-9.3.3-20.8.3s-20.8-.1-20.8-.3c0-.2 9.3-.3 20.8-.3s20.8.1 20.8.3z"/><path class="st3" d="M633.7 307h7v14.9h-7z"/><path class="st0" d="M658.9 327.7c0 .2-9.3.3-20.8.3s-20.8-.1-20.8-.3c0-.2 9.3-.3 20.8-.3s20.8.1 20.8.3z"/><path class="st3" d="M633.7 337h7v14.9h-7z"/><path class="st0" d="M54.8 165.5h122.9v233.2H54.8z"/><path class="st1" d="M120 165.5h57.6v233.2H120z"/><path class="st2" d="M80.5 187.5h11v26.8h-11zM80.5 292.6h11v26.8h-11zM120 224.9c0 .2-14.6.4-32.6.4s-32.6-.2-32.6-.4 14.6-.4 32.6-.4 32.6.1 32.6.4zM80.5 240.4h11v26.8h-11zM120 277.8c0 .2-14.6.4-32.6.4s-32.6-.2-32.6-.4 14.6-.4 32.6-.4 32.6.2 32.6.4z"/><path class="st0" d="M132.3 187.5h11v26.8h-11zM156.2 187.5h11v26.8h-11zM132.3 238.4h11v26.8h-11zM156.2 238.4h11v26.8h-11zM132.3 289.4h11v26.8h-11zM156.2 289.4h11v26.8h-11zM45.5 159.9h141.4v5.8H45.5z"/><path class="st1" d="M178.5 166.3c0 .2-27.5.4-61.3.4-33.9 0-61.3-.2-61.3-.4s27.5-.4 61.3-.4 61.3.2 61.3.4z"/><path class="st0" d="M570.2 195.5h1v53.3h-1zM553.3 196.3h1v53.3h-1zM536.3 195.3h1v53.3h-1zM519.4 196.3h1v53.3h-1z"/><path class="st1" d="M518.8 237.7h121.5v160.2H518.8z"/><path class="st0" d="M583.3 237.7h57v160.2h-57z"/><path class="st2" d="M544.2 259.4h10.9v26.5h-10.9zM544.2 363.3h10.9v26.5h-10.9zM583.3 296.3c0 .3-14.4.5-32.3.5-17.8 0-32.3-.2-32.3-.5s14.4-.5 32.3-.5 32.3.2 32.3.5zM544.2 311.7h10.9v26.5h-10.9zM583.3 348.7c0 .3-14.4.5-32.3.5-17.8 0-32.3-.2-32.3-.5s14.4-.5 32.3-.5c17.9-.1 32.3.2 32.3.5zM595.4 259.4h10.9v26.5h-10.9zM619.1 259.4H630v26.5h-10.9zM595.4 309.7h10.9v26.5h-10.9zM619.1 309.7H630v26.5h-10.9zM595.4 360.1h10.9v26.5h-10.9zM619.1 360.1H630v26.5h-10.9z"/><path class="st0" d="M583.3 240.4V226h12.1v-7.9h16.4V211h28.5v28.3z"/><path class="st0" d="M582.8 187.5h1v53.3h-1zM594.9 187.5h1v53.3h-1zM611.3 180h1v53.3h-1zM638.9 180h1v53.3h-1zM625.1 180h1v53.3h-1z"/><path class="st0" d="M520.3 223.5h63v1h-63zM520.5 210.5h91.4v1h-91.4z"/></g><g id="Floor"><path class="st6" d="M603.6 483.3c0 .1-102.4.3-228.6.3-126.3 0-228.6-.1-228.6-.3s102.3-.3 228.6-.3 228.6.1 228.6.3zM722.3 398.8c0 .1-155.5.3-347.2.3-191.8 0-347.3-.1-347.3-.3s155.4-.3 347.3-.3c191.7 0 347.2.1 347.2.3z"/></g><g id="Fence"><path class="st6" d="M114.2 353.7h2.4v44.9h-2.4z"/><path class="st7" d="M117.9 352.2c0 1.4-1.1 2.5-2.5 2.5s-2.5-1.1-2.5-2.5 1.1-2.5 2.5-2.5 2.5 1.1 2.5 2.5z"/><path class="st6" d="M162.7 353.7h2.4v44.9h-2.4z"/><path class="st7" d="M166.4 352.2c0 1.4-1.1 2.5-2.5 2.5s-2.5-1.1-2.5-2.5 1.1-2.5 2.5-2.5 2.5 1.1 2.5 2.5zM107.2 358.1h62.6v11.2h-62.6z"/><path class="st2" d="m114.3 358.1-.1.2-6.4 11h-.6v-11.2zM130.1 358.1l-6.5 11.2H115l2.6-4.5 4-6.7zM145.9 358.1l-6.5 11.2h-8.6l6.6-11.2zM161.7 358.1l-6.5 11.2h-8.6l6.6-11.2zM169.8 358.1v11.2h-7.3l6.5-11.2z"/><path class="st7" d="M107.2 375.4h62.6v11.2h-62.6z"/><path class="st2" d="m114.3 375.4-.1.2-6.4 11h-.6v-11.2zM130.1 375.4l-6.5 11.2H115l2.6-4.5 4-6.7zM145.9 375.4l-6.5 11.2h-8.6l6.6-11.2zM161.7 375.4l-6.5 11.2h-8.6l6.6-11.2zM169.8 375.4v11.2h-7.3l6.5-11.2z"/><path class="st6" d="M169.8 369.3V358l.1.1c-12.8 0-36.1 0-62.6.1l.1-.1v11.2l-.1-.1c17.7 0 33.4 0 44.6.1h17.9-17.9c-11.2 0-26.9 0-44.6.1h-.1V358h.1c26.5 0 49.8 0 62.6.1h.1V369.2c-.2 0-.2.1-.2.1zM169.8 386.6v-11.3l.1.1c-12.8 0-36.1 0-62.6.1l.1-.1v11.2l-.1-.1c17.7 0 33.4 0 44.6.1h17.9-17.9c-11.2 0-26.9 0-44.6.1h-.1V375.3h.1c26.5 0 49.8 0 62.6.1h.1V386.5c-.2 0-.2.1-.2.1z"/></g><g id="Character_3"><path class="st7" d="m465.8 457.7 1 24.7-30.7 1.5c0-2.9 15.6-9.6 15.6-9.6l-1.3-15.8 15.4-.8z"/><g class="st8"><path class="st9" d="M461.3 472.5c.6.1 1 .8.9 1.4-.1.6-.8 1.1-1.4.9-.6-.1-1.2-.9-1-1.5.2-.6 1-1.1 1.5-.8"/></g><g class="st8"><path class="st9" d="m466.9 482.4-.1-2.5-29.5 2.3s-1.3.7-1.1 1.6l30.7-1.4z"/></g><path class="st6" d="M451.3 474.2c0 .1.8.2 1.5.6.8.4 1.2 1.1 1.3 1 .1 0-.1-.9-1.1-1.4-.8-.6-1.7-.4-1.7-.2zM448.2 475.6c0 .1.6.4 1.2 1s.7 1.3.9 1.3c.1 0 .2-.9-.5-1.6-.8-.8-1.6-.8-1.6-.7zM446.5 479.6c.1 0 .3-.7-.1-1.5s-1.1-1.1-1.2-1c-.1.1.4.5.7 1.2.4.7.5 1.3.6 1.3zM451.4 470.5c.1.1.7-.1 1.6-.1.9 0 1.5.3 1.6.1.1-.1-.6-.6-1.6-.6s-1.7.5-1.6.6zM452 466.9c0 .1.6.1 1.5-.1.5-.1 1-.3 1.6-.6.3-.1.6-.3.9-.5.1-.1.3-.2.4-.4.2-.2.2-.6 0-.8-.2-.2-.5-.3-.7-.3-.2 0-.4.1-.6.1-.3.1-.7.2-.9.4-.6.3-1 .7-1.4 1-.7.7-.9 1.3-.8 1.3.1 0 .4-.4 1.1-1 .3-.3.8-.6 1.3-.8l.9-.3c.3-.1.6-.1.7 0v.2l-.3.3c-.3.2-.5.4-.8.5-.5.3-1 .5-1.5.6-.8.2-1.4.3-1.4.4z"/><path class="st6" d="M452.2 467.1c.1 0 .3-.5.3-1.5 0-.5-.1-1.1-.3-1.7-.1-.3-.3-.6-.4-.9-.2-.3-.4-.7-1-.7-.3 0-.5.3-.6.5-.1.2-.1.4-.1.6v1c.1.6.4 1.2.7 1.6.6.8 1.3.9 1.3.9 0-.1-.5-.3-1-1.1-.2-.4-.5-.9-.6-1.4 0-.3-.1-.6 0-.9 0-.3.1-.6.3-.6.2 0 .4.2.6.5.2.3.3.5.4.8.2.5.3 1.1.4 1.5 0 .8-.1 1.3 0 1.4z"/><path class="st7" d="M488.2 456.8 488 483l-32.7-.1c.2-3.1 17.1-9.3 17.1-9.3l-.5-16.8h16.3z"/><g class="st8"><path class="st9" d="M482.5 472.2c.6.2 1.1.9.9 1.5-.1.6-.9 1.1-1.5.9-.6-.2-1.2-1-1-1.6.2-.6 1.1-1.1 1.7-.8"/></g><g class="st8"><path class="st9" d="M488 483v-2.7l-31.4.9s-1.5.6-1.3 1.7l32.7.1z"/></g><path class="st6" d="M471.9 473.4c0 .2.8.2 1.6.8.8.5 1.2 1.2 1.3 1.1.1 0-.1-1-1-1.6-1-.6-1.9-.5-1.9-.3zM468.5 474.8c0 .2.7.4 1.2 1.1.6.7.7 1.4.9 1.4.1 0 .3-.9-.4-1.7-.8-.9-1.7-1-1.7-.8zM466.5 478.9c.1 0 .4-.8 0-1.6-.4-.9-1.2-1.2-1.2-1.1-.1.1.4.6.7 1.3.3.7.3 1.4.5 1.4zM472.2 469.5c.1.1.8-.1 1.7 0 .9 0 1.6.4 1.7.2.1-.1-.6-.7-1.7-.8-1 0-1.8.5-1.7.6zM473 465.7c0 .1.6.2 1.6 0 .5-.1 1.1-.2 1.7-.5.3-.1.6-.3.9-.5.2-.1.3-.2.5-.4s.3-.6.1-.8c-.2-.3-.5-.4-.7-.4-.2 0-.4 0-.6.1-.4.1-.7.2-1 .3-.6.3-1.1.6-1.5 1-.8.7-1 1.3-1 1.3.1.1.4-.4 1.2-1 .4-.3.9-.6 1.5-.8l.9-.3c.3-.1.6-.1.7.1v.2c-.1.1-.2.2-.4.3-.3.2-.6.3-.9.5-.6.3-1.1.5-1.6.6-.8.1-1.4.2-1.4.3z"/><path class="st6" d="M473.2 465.9c.1 0 .4-.5.4-1.6 0-.5 0-1.1-.2-1.8-.1-.3-.2-.7-.4-1-.2-.3-.4-.8-1-.8-.3 0-.6.2-.7.5-.1.2-.1.4-.2.6-.1.4-.1.8 0 1.1.1.7.4 1.3.7 1.7.6.8 1.3 1 1.3 1 .1-.1-.5-.4-1-1.2-.2-.4-.5-.9-.5-1.5v-.9c.1-.3.2-.6.3-.6.2 0 .4.3.6.5.2.3.3.6.4.9.2.6.3 1.2.3 1.6.1.9-.1 1.5 0 1.5zM422.3 308.7c-1.4.8-2.2 20.1 1.4 29.7 3.6 9.6 16.7 60.8 16.7 60.8l9.7 69.4 16.5-.9-5.9-149.9-38.4-9.1z"/><path class="st6" d="M443.4 317.7s6 42.4 9.9 59.3 5.3 22.6 5.3 22.6 6.7 13.3 6.7 13.7l5.8 54h17.5s4.6-47.4 2.1-56.8c-2.5-9.5-6.4-23.9-5.6-34.5.8-10.6 1.1-33 1.1-34.8 0-1.9 4.5-14.6 4.5-14.6s2.1-5.5 1.8-12.8c-.3-7.3-49.1 3.9-49.1 3.9z"/><path class="st10" d="M465.3 412.2s-.1-.1-.1-.2c-.1-.2-.2-.4-.4-.6-.3-.6-.8-1.4-1.4-2.5-1.2-2.2-2.9-5.3-5-9.2-2.3-7.9-5.1-18.7-7.9-30.7-2.8-12.4-5.1-23.6-6.8-31.8-.8-4-1.4-7.3-1.9-9.7-.2-1.1-.4-2-.5-2.6 0-.3-.1-.5-.1-.7v-.2s0 .1.1.2c0 .2.1.4.2.7.1.6.3 1.5.6 2.6.5 2.3 1.2 5.6 2 9.6 1.7 8.1 4.1 19.4 6.9 31.7 2.7 12 5.5 22.8 7.7 30.7 2 3.9 3.7 7 4.8 9.2.5 1.1 1 1.9 1.3 2.5.1.3.2.5.3.7.2.2.2.3.2.3zM486.8 340.2c-.1.1-1-1.2-2.1-2.6-1.1-1.4-2.2-2.5-2.1-2.6.1-.1 1.3.8 2.5 2.3 1.2 1.4 1.9 2.8 1.7 2.9z"/><path class="st6" d="M450.7 160.6c-.5-4-1.1-8.1-3.4-11.4-1.9-2.6-4.8-4.4-7.9-5-3.1-.6-6.5.1-9.2 1.9l-2 1.3c-1.8 5-2.5 10.9-2.5 15.3 0 3 1.4 6.2 3.2 8.6.9 1.2 2.1 2.1 2.8 3.3.6 1.1.7 2.5 1.2 3.7 1.5 3.8 6.5 5.4 10.4 4 3.8-1.5 6.4-5.3 7.4-9.3.8-4.1.4-8.3 0-12.4z"/><path class="st7" d="M430.5 147c-4.4-1.2-7.1-2.8-7.1-4.6 0-1.7 7.7-5.8 9.4-6.9 4.2-2.5 9.2.7 16.5.8 14.3.2 25.8 3.2 25.8 6.8 0 1.7-2.7 3.3-7.1 4.4"/><path d="M433 146.9c-3.9-1.1-6.4-2.5-6.3-4.1.3-4.3 10.3-5.6 23-5.4 12.7.2 22.9 2.9 22.8 6 0 1.5-2.4 2.9-6.3 3.9" class="st11"/><path class="st12" d="M466 146.1c-.1-9.8-8.2-17.7-18.2-17.4-9.4.3-16.7 8.3-16.8 17.7-.1 8.2-.1 16.5.3 19.4 1.3 8.9 7 11.7 9.2 12.4.5.2 1.9.3 2.4.3 0 0 .1 0 .1.1l-.6 10.5c0 6.8 4.5 12.3 11.3 12.4 6.8.1 11.4-5.7 11.5-12.6l.8-42.8z"/><path class="st6" d="M433.9 152.5c0 .8.6 1.4 1.4 1.5.8.1 1.5-.5 1.5-1.3s-.6-1.4-1.4-1.5c-.8 0-1.5.5-1.5 1.3zM433.3 148.5c.2.2 1.3-.6 2.8-.6 1.5 0 2.7.8 2.8.6.1-.1-.1-.4-.6-.8s-1.3-.7-2.3-.7c-1 0-1.8.3-2.2.7-.4.4-.5.8-.5.8zM447.9 152.5c0 .8.6 1.4 1.4 1.5.8.1 1.5-.5 1.5-1.3s-.6-1.4-1.4-1.5c-.8 0-1.5.5-1.5 1.3zM448.4 149c.2.2 1.3-.6 2.8-.6 1.5 0 2.7.8 2.8.6.1-.1-.1-.4-.6-.8s-1.3-.7-2.3-.7c-1 0-1.8.3-2.2.7-.4.4-.5.7-.5.8zM442.7 160.3c0-.1-.9-.3-2.5-.5-.4 0-.8-.1-.8-.4-.1-.3.1-.7.3-1.2.4-.9.8-1.9 1.2-3 1.7-4.2 2.9-7.7 2.7-7.8-.2-.1-1.7 3.3-3.3 7.5l-1.2 3c-.2.4-.4.9-.2 1.5.1.3.4.5.6.6.3.1.5.1.7.1 1.5.3 2.5.3 2.5.2z"/><path class="st13" d="M443 178.5s5.9.6 13.4-3.8c0 0-2.4 7.8-13.6 6.6l.2-2.8zM443.3 164c.6-.7 1.5-1.1 2.5-1 .7.1 1.3.4 1.7 1 .4.5.5 1.3.1 1.8-.4.6-1.3.7-2 .5-.7-.2-1.4-.7-1.9-1.2-.2-.1-.3-.3-.4-.5-.2-.1-.2-.4 0-.6"/><path class="st6" d="M447.2 161.5c-.2 0-.3 1.6-1.7 2.8-1.4 1.2-3.2 1-3.2 1.2 0 .1.4.3 1.1.4.7 0 1.8-.2 2.7-.9.9-.7 1.3-1.7 1.3-2.4.1-.7-.1-1.1-.2-1.1zM447.9 144.2c.1.4 1.7.2 3.5.5 1.8.2 3.3.8 3.5.4.1-.2-.1-.6-.7-1s-1.5-.8-2.6-.9c-1.1-.1-2.1 0-2.7.3-.7.2-1 .5-1 .7zM434 144.6c.3.4 1.3 0 2.6 0s2.3.3 2.6-.1c.1-.2-.1-.5-.5-.9-.5-.3-1.2-.6-2.1-.6-.9 0-1.6.3-2.1.7-.5.4-.7.7-.5.9z"/><path class="st6" d="M442.5 135.8c1.6 2.4 4.3 4 7.2 4.3 1.9.2 4-.1 5.4 1.1 1 .9 1.3 2.4 1.7 3.7.7 2 .6 4.4 2.4 5.5 1.4.8 2.6.6 3.6 1.9 1.1 1.4 1.2 3.3 1.3 5.1 0 1.7.1 4.5 1.7 5.2.1-6.3 2.2-13.4 2.3-19.7 0-.9 0-1.9-.3-2.8-.7-2-3-3-5-3.5-5.8-1.7-11.8-1.9-17.8-2.2"/><path class="st7" d="M427 140.8s3.9-15.2 4.2-15.9c.3-.7 4.7-7.3 15.1-9.1l8.6.1s12.1 4.1 14.3 7.1 2.9 17.4 2.9 17.4l-23.9-5.5-16.4 3.8-4.8 2.1z"/><path class="st7" d="M449.2 114.1h-2.4c-1 0-1.9.5-2.2 1.4-.3.6-.5 1.4-.6 2.4-.2 2.7-1 20.9-1 20.9l10.7-.3v-22.6l3.6.9-.1-.7c0-.4-.2-.8-.4-1.1-.4-.4-.9-.7-1.4-.7l-6.2-.2z"/><path class="st10" d="m430 142.4 1.2-5.3 16.8-5 20.1 6.2-.1 5.9c.1 0-16.8-7-38-1.8z"/><path class="st7" d="m432.9 135.5-.7.7-5.7 4.2s11.1-3.6 22.6-3.3c11.6.3 24.7 4.3 24.7 4.3l-7.6-4.7c-2.4-2.6-5.8-4.2-9.3-4.3l-14.5-.5c-3.6-.1-7 1.2-9.5 3.6z"/><path class="st6" d="M428.1 140.6s.1-.1.4-.3c.2-.2.6-.4 1.2-.7 1.1-.5 2.7-1.1 4.8-1.6 4.2-.9 10.1-1.4 16.5-.8 3.2.3 6.3.5 9.1.9 2.8.5 5.2 1.1 7.3 1.6 1 .3 1.9.6 2.7.9.8.3 1.5.7 1.9 1.1.4.5.5 1 .5 1.3 0 .3-.1.5-.1.5-.1 0 .2-.8-.6-1.6-.4-.4-1-.7-1.8-1-.8-.3-1.7-.6-2.7-.8-2-.5-4.5-1.1-7.3-1.5-2.8-.4-5.8-.6-9-.9-6.4-.7-12.3-.2-16.4.6-2.1.4-3.7.9-4.8 1.4-1.2.5-1.7 1-1.7.9zM430 142.2c-1.2 4.8-6.9 12.4.9 17.3 0 0 .2-10.5 1.1-14.5.3-1.2.6-2.4 1.4-3.4M465.7 144.1c4.7-.2 9.1 4.1 9.1 8.8 0 1.2-.2 2.5.1 3.7.3 1.1 1.2 2.1 1.7 3.1 1 2.1 1.8 5.8 1.5 8.2-.8 5.6-6.3 13.3-12.5 13.2"/><path class="st6" d="M467.1 176.3c-1.2.5-2.6.3-3.7-.4s-1.9-1.8-2.5-2.9c-1.9-3.7-1.8-8.3.2-12-4-4.8-5.4-11.7-3.6-17.7l8.9.9.7 32.1zM426.4 139.4s.2-.1.5-.2c.3-.2.8-.4 1.3-.7 1.2-.7 2.8-1.6 4.8-2.8.4-.5.7-.9 1.1-1.4.4-.5.7-1 1.3-1.4.5-.4 1.1-.7 1.8-.9.7-.2 1.4-.2 2.2-.2 3-.1 6.4 0 9.9.2 3.3.1 6.4.3 9.2.5.7 0 1.4.1 2 .3.6.2 1.2.6 1.6 1 .9.9 1.6 1.9 2.4 2.7 2.4 1.1 4.3 2.1 5.7 2.7.6.3 1.2.5 1.6.7.4.2.5.2.6.2 0 0-.2-.1-.5-.3-.4-.2-.9-.5-1.5-.8-1.4-.7-3.3-1.7-5.6-2.9-.7-.8-1.5-1.8-2.4-2.7-.5-.5-1.1-.8-1.7-1.1-.7-.3-1.4-.3-2.1-.4-2.8-.2-6-.4-9.2-.5-3.5-.1-6.8-.2-9.9-.1-.7 0-1.5 0-2.2.2-.7.2-1.4.6-1.9 1s-.9 1-1.3 1.5-.7 1-1.1 1.4c-2 1.2-3.6 2.2-4.7 2.9-.5.3-.9.6-1.3.8-.5.2-.6.3-.6.3z"/><path class="st6" d="M453.7 131.8s.1-.3.1-.7c0-.5 0-1.2.1-2v-12c0-.4.4-.8.7-.7.8.2 1.4.3 2 .4.5.1.7.1.7.1s-.2-.1-.7-.2c-.5-.1-1.1-.3-2-.5-.5-.1-1.1.3-1.1 1V122.5c0 2.6 0 5 .1 6.7 0 .9 0 1.6.1 2-.1.3 0 .6 0 .6zM443.3 131.5s.2-.8.4-2.2c.2-1.4.3-3.3.4-5.4.1-2.1.2-4 .2-5.4v-2.2c-.1 0-.1.8-.2 2.2-.1 1.4-.2 3.3-.3 5.4-.1 2-.2 3.9-.3 5.4-.2 1.3-.2 2.2-.2 2.2zM470.7 146.4c1.2 0 2.1 1 2.5 2.1.4 1.1.5 2.3.7 3.4s.7 2.3 1.7 3c.9.5 2 .5 2.8 1.1 1.2.8 1.7 2.6.8 3.8 1.9.5 3.3 2.2 3.5 4.1.2 1.9-.9 3.9-2.6 4.7 1.5 2.1.6 5.2-1.2 7.1-2.4 2.5-6.4 3.5-9.7 2.4-3.3-1.1-5.9-4.2-6.4-7.7"/><path class="st10" d="M476.8 155.6s-.1-.4-.3-1c-.2-.6-.7-1.4-1.7-2-1-.6-2.3-1-3.9-1.2-1.5-.3-3.3-.4-5.1-.8-.9-.2-1.8-.5-2.5-1s-1.4-1-1.9-1.6c-1.1-1.1-2-2.3-2.7-3.2-.7-1-1.2-1.8-1.6-2.3-.4-.6-.6-.9-.5-.9.1-.1 1 1.1 2.4 3 .7.9 1.6 2 2.7 3.1.6.5 1.2 1.1 1.9 1.5.7.4 1.5.7 2.4.9 1.7.4 3.5.6 5 .9 1.6.3 3 .7 4 1.4s1.6 1.6 1.7 2.3c.2.5.2.9.1.9z"/><path class="st10" d="M482.2 166.1c-.1 0-.1-.5-.4-1.3-.3-.8-.9-2-2.1-3.1-1.2-1.1-2.8-2.2-4.8-2.9-2-.8-4.3-1.4-6.6-2.4-2.3-.9-4.3-2.4-5.8-4s-2.7-3.2-3.5-4.5c-.9-1.4-1.5-2.5-2-3.3-.4-.8-.7-1.3-.6-1.3 0 0 .3.4.8 1.2.5.8 1.2 1.9 2.1 3.2.9 1.3 2.1 2.9 3.6 4.4 1.5 1.5 3.4 2.9 5.7 3.8 2.3 1 4.6 1.6 6.6 2.4 2 .8 3.7 1.9 4.9 3.1 1.2 1.2 1.8 2.4 2.1 3.3.1.4.2.8.2 1-.2.3-.2.4-.2.4zM426.5 155.4c-.1 0 .1-.8.4-2.1.4-1.2.9-2.9 1.7-4.8.8-1.8 1.6-3.4 2.3-4.5.7-1.1 1.2-1.7 1.2-1.7.1.1-1.5 2.8-3.1 6.4-1.4 3.7-2.3 6.8-2.5 6.7z"/><path class="st6" d="M423.3 203.7c-2.3 3.6-15.3 41.6-15.5 44.1-.2 2.5-.5 10.9 1.3 12.5 1.8 1.7 13.4 1 13.4 1l12-66.6v-.9c0 .1-8.9 6.3-11.2 9.9z"/><path class="st6" d="M417.2 261.5c-3.3 0-7.2-.2-8.1-1.1-2-1.8-1.4-11.5-1.3-12.6.1-1.3 3.6-12.2 6.9-21.7 3.3-9.6 7.4-20.6 8.6-22.5 2.3-3.5 11.1-9.8 11.2-9.9v.9l-12 66.6c-.2.2-2.6.3-5.3.3zm6.1-57.8c-1.2 1.9-5.2 12.8-8.6 22.5-3.3 9.5-6.9 20.3-6.9 21.7-.1 1.1-.6 10.7 1.3 12.5 1.8 1.6 12.8 1 13.4 1l12-66.6v-.8c-.7.4-9 6.3-11.2 9.7z"/><path class="st7" d="m442.5 186.4-2.3 22.5s21.9-18.6 25.1-22.3l9.3 1.8c8.5 1.7 15.5 8 17.8 16.3.8 3.1 1.4 6.5 1.4 10.1 0 12.1-2.4 80.6-2.4 80.6s2.4 21.9.2 28.4-2 5-2 5-15.1-4.6-21.7-4.8c-6.6-.2-22.6-.6-29.8-3.2-7.2-2.6-17.3-11.5-17.3-11.5l3.9-89.3c.4-9.2 3.5-18.2 8.9-25.7l8.9-7.9z"/><g class="st14"><path class="st9" d="M422.2 278.9s69.5 8.8 69.5 9.1c0 .3-.3 7.1-.3 7.1l.4 5.1-70.2-7 .6-14.3z"/></g><g class="st14"><path class="st9" d="M422.6 270.1c.6-.1 46.5 2.2 51.3 4.2 4.9 2 18.1 3 18.1 3s.7-11.9.5-11.8c-.2.1-13.9 0-16.2-1-2.3-1-6.5-5.3-6.5-5.3l-46.7-2.8-.5 13.7z"/></g><path class="st6" d="M468.2 196.3s-.2.5-.7 1.4l-.8 1.6c-.3.6-.7 1.4-1 2.2-.8 1.6-1.6 3.6-2.3 5.9-.8 2.3-1.5 4.8-2.1 7.5-.6 2.7-.9 5.3-1.1 7.7-.2 2.4-.3 4.5-.2 6.3 0 1.8.1 3.3.2 4.3s.1 1.6.1 1.6-.1-.5-.3-1.6c-.1-1-.3-2.5-.3-4.3-.1-1.8-.1-4 .1-6.4.2-2.4.5-5 1.1-7.8.6-2.7 1.3-5.3 2.1-7.5.8-2.3 1.7-4.3 2.5-5.9.4-.8.8-1.5 1.1-2.2.3-.6.7-1.2.9-1.6.4-.8.7-1.2.7-1.2zM469.1 188.9c.1.1-.9.9-2.4 2.4-1.4 1.5-3.3 3.7-4.9 6.4-1.6 2.7-2.7 5.4-3.3 7.4-.6 2-.9 3.2-1 3.2 0 0 0-.3.1-.9.1-.6.3-1.4.5-2.4.5-2 1.6-4.8 3.2-7.5 1.7-2.7 3.6-5 5.1-6.4.8-.7 1.4-1.3 1.9-1.6.5-.5.8-.6.8-.6z"/><path class="st12" d="m443.1 245.9 7.8-2.8 6.7-4.9-1.7 4.2s16 .1 16.6.7c.7.6.7 1.5 0 2.1-.7.7-13.5 1.7-13.5 1.7s14.4 1.1 14 1.6c-.5.4 0 1.9-2 2.3-2 .3-10 1.2-10 1.2l11 .7s.5 1.5-2 2.1c-2.5.5-9.9 1.7-9.9 1.7s10.2-1.1 10.1 0c-.2 1.1.3 2.5-1.3 2.5-1.5 0-17 1.5-18.9 1.3-2-.2-10.1 0-10.1 0l.4-14.1 2.8-.3z"/><path class="st12" d="M440 260.2s17.8 5.7 22.3 5.2c4.4-.5 8.2-1.1 10.4-9.3 2.2-8.2 5.6-18.7 5.6-18.7l-19.1-2.6-5.4 12.7-13.7.9v11.8z"/><path class="st6" d="M459.2 234.8s-.7-1.8 0-2.8c.7-1 1.1-2.4 1.1-2.4s6.3-20.2 7.8-24.2 7.3-15.5 13.3-13.5c6.1 2 8.7 10.9 8.3 17.8-.3 7-2.1 47.3-2.1 47.3l-15-1 5.6-18.7-19-2.5z"/><path class="st6" d="m487.7 257.2-15.1-1.1 5.6-18.7-19.1-2.6s-.7-1.8 0-2.8c.7-1 1.1-2.3 1.1-2.4.1-.2 6.3-20.2 7.8-24.2.9-2.3 2.7-6 5-9 1.3-1.7 2.7-3 4-3.8 1.5-.9 3-1.2 4.5-.7 3.5 1.2 5.5 4.5 6.6 7.1 1.3 3.2 1.9 7.1 1.8 10.8-.4 7-2.2 47-2.2 47.4zm-15-1.1 15 1c.1-1.2 1.7-40.5 2.1-47.3.2-3.7-.5-7.6-1.8-10.8-1.1-2.6-3.1-5.9-6.6-7-1.4-.5-2.9-.2-4.4.7-1.3.8-2.6 2.1-3.9 3.8-2.3 3-4.1 6.7-5 9-1.5 4-7.8 24-7.8 24.2 0 0-.4 1.4-1.1 2.4-.7.9-.1 2.6 0 2.7l19.2 2.6-5.7 18.7zM442.3 188.4s-1.3 5 8.2 3.5c9.5-1.6 14.8-5.1 14.8-5.1l2.9.4-28 21.9 2.1-20.7z"/><path class="st6" d="m440.1 209 2.1-20.1c0-.3.1-.5.1-.5l-.1.5c0 .5.1 1.2.7 1.9 1.2 1.3 3.7 1.6 7.6 1 9.4-1.6 14.7-5.1 14.8-5.1l2.9.4-28.1 21.9zm2.1-19.7-2 19.7 27.9-21.8-2.8-.4c-.2.2-5.5 3.6-14.8 5.1-3.8.6-6.4.3-7.6-1-.5-.6-.7-1.2-.7-1.6z"/><path class="st6" d="M465.5 182.7c-.2.2 2.6 4.4 2.6 4.4l-21.9 16.8-2.3-7.7s-5.4 5.5-5.6 5.3 3.2-15 3.2-15l1-1.3 2.9 6.9 20.1-9.4z"/><path class="st6" d="m446.2 203.9-2.3-7.7-2.7 2.7c-2.4 2.3-2.8 2.6-2.9 2.6 0 0-.1-.1 1.5-7.6.8-3.7 1.6-7.4 1.7-7.4l1-1.3 2.9 6.9 20.1-9.4-.1.1c-.1.2 1.5 2.8 2.6 4.4l-21.8 16.7zm-2.2-7.8 2.3 7.7 21.8-16.7c-.1-.1-.7-1.1-1.4-2.1-1-1.7-1.2-2.1-1.2-2.2l-20 9.3-2.9-6.9-1 1.3c-1.1 5-3.3 14.6-3.2 15 .3-.1 3.5-3.3 5.6-5.4z"/><path class="st10" d="M468.1 187.1s-.1.1-.4.3c-.3.2-.7.5-1.1.8-1 .8-2.4 1.8-4.1 3-3.5 2.5-8.3 6-13.7 9.8-.6.4-1.3.9-1.9 1.3l-.4.3v-.5c0-1.8-.4-3.5-.7-5.1-.3-1.6-.6-3.2-.6-4.7l.4.1c-2.1 2.7-3.8 5-5.1 6.7-.6.8-1.1 1.4-1.5 1.8-.3.4-.5.6-.6.6 0 0 .1-.3.4-.7.4-.5.8-1.1 1.4-1.9 1.2-1.7 2.9-4 4.9-6.8l.4-.5v.7c0 1.5.3 3 .6 4.6.4 1.6.7 3.4.7 5.2l-.4-.2c.6-.4 1.2-.9 1.9-1.3 5.4-3.8 10.3-7.2 13.8-9.6 1.7-1.2 3.2-2.1 4.2-2.9.5-.3.8-.6 1.2-.8.5-.1.6-.2.6-.2zM480.1 230.8s.5.2.9.9.8 1.8.4 3.1c-.4 1.2-1.3 2-2 2.4-.7.4-1.3.3-1.3.3 0-.1.5-.2 1.1-.6.6-.4 1.4-1.1 1.7-2.2.3-1.1.1-2.1-.3-2.8-.2-.7-.5-1-.5-1.1zM481.6 226.2s.4.1.7.6c.4.5.7 1.3.6 2.3-.1.9-.6 1.7-1 2.1-.4.4-.8.5-.8.5 0-.1.2-.3.6-.7.3-.4.7-1.1.8-1.9.1-.8-.2-1.5-.4-2-.4-.6-.6-.9-.5-.9z"/><path class="st10" d="M488 209.7c.1 0-1.2 3.9-2.9 8.6-1.7 4.7-3.3 8.5-3.4 8.4-.1 0 1.2-3.9 2.9-8.6 1.7-4.7 3.2-8.5 3.4-8.4zM479.9 231.7c0 .1-1-.2-2.5-.6-1.5-.4-3.7-.8-6.1-1-2.4-.2-4.6-.1-6.1 0-1.6.1-2.5.2-2.6.2 0-.1.9-.3 2.5-.5s3.8-.3 6.2-.1c2.4.2 4.6.7 6.1 1.2 1.6.3 2.5.7 2.5.8zM479 228.5c0 .2-3.4 0-7.6.4-4.2.3-7.5 1-7.5.8 0-.1.8-.3 2.1-.6s3.2-.6 5.3-.8c2.1-.2 4-.2 5.4-.1 1.4.1 2.3.2 2.3.3z"/><path class="st12" d="m443.1 245.9 7.8-2.8 6.8-5-1.8 4.2s16 .1 16.6.7c.7.6.7 1.5 0 2.1-.7.7-13.5 1.7-13.5 1.7s14.4 1.1 14 1.6c-.5.4 0 1.9-2 2.3-2 .3-10 1.2-10 1.2l11 .7s.5 1.5-2 2.1c-2.5.5-9.9 1.7-9.9 1.7s10.2-1.1 10.1 0c-.2 1.1.3 2.5-1.3 2.5-1.5 0-17 1.5-18.9 1.3-2-.2-27.1 1-27.1 1l.9-19.7 19.3 4.4z"/><path class="st13" d="M443.1 245.9s-.1 0-.3-.1c-.2 0-.6-.1-1-.2-.9-.2-2.1-.5-3.8-.8-3.3-.7-8.1-1.8-14.2-3.1l.2-.1c-.2 5.5-.5 12.2-.8 19.7l-.2-.3c4.1-.2 8.4-.4 13-.6 2.3-.1 4.6-.2 7.1-.3 2.4-.1 4.9-.2 7.4-.2 5-.2 10.2-.7 15.5-1.1.7-.1 1.3-.1 2-.2.3 0 .7 0 1-.1.3 0 .6-.1.7-.2.3-.4.2-1.1.3-1.8v-.1h-.1c-.1 0-.3-.1-.4-.1-.3-.1-.7-.1-1-.1-2.7-.1-5.5.2-8.3.5l-.1-.5c1-.2 2.2-.4 3.3-.6 1.7-.3 3.3-.6 4.9-.8.8-.2 1.7-.2 2.4-.5.4-.1.7-.3.9-.6.2-.3.3-.6.2-.9l.2.2c-3.7-.2-7.4-.5-11-.7v-.5l7.2-.9c.6-.1 1.2-.1 1.8-.2.6-.1 1.2-.1 1.7-.3.5-.2.8-.6.9-1.1l.1-.4c0-.1.1-.2.1-.2s0-.1.1-.1l.1-.1s.1-.1 0 .1v.2h-.1l-.2-.1-.4-.1c-4.5-.7-8.9-1-13.1-1.3v-.5c3.2-.3 6.3-.6 9.3-.9.7-.1 1.5-.2 2.2-.3.4-.1.7-.1 1.1-.2.3-.1.7-.1.9-.3.5-.5.5-1.2 0-1.6-.1-.2-.5-.2-.8-.3-.3 0-.7-.1-1-.1-5.4-.4-10.4-.4-14.7-.4h-.2l.1-.2c.7-1.6 1.3-2.9 1.8-4.2l.2.2c-2.7 1.9-5 3.6-6.8 4.9-2.5.9-4.5 1.6-5.8 2l-1.5.5c-.7-.1-.9 0-.9 0s.2-.1.5-.2c.4-.1.9-.3 1.5-.6 1.3-.5 3.3-1.2 5.8-2.1 1.9-1.4 4.1-3 6.8-5l.4-.3-.2.5c-.5 1.3-1.1 2.7-1.8 4.2l-.1-.2c4.3 0 9.3 0 14.8.3.3 0 .7.1 1 .1.2 0 .4 0 .5.1.1 0 .2 0 .3.1.2.1.2.1.3.2.3.3.4.7.4 1.1 0 .4-.2.8-.5 1.1-.1.1-.4.3-.6.3-.2 0-.4.1-.5.1-.4.1-.7.1-1.1.2-.7.1-1.5.2-2.2.3-3 .4-6.1.7-9.3 1v-.5c4.2.4 8.6.7 13.2 1.3l.4.1.2.1h.1l.1.1.1.1c0 .1.1.2 0 .2-.1.2-.1.1-.1.1v.1s0 .1-.1.2l-.1.4c-.1.3-.2.6-.4.9-.2.3-.5.5-.8.6-.6.2-1.2.2-1.8.3-.6.1-1.2.1-1.8.2-2.4.3-4.7.6-7.2.9v-.5c3.6.2 7.3.5 11 .7h.2v.2c.1.5 0 1-.3 1.4-.3.4-.7.6-1.1.8-.8.3-1.6.4-2.5.5-1.6.3-3.3.6-4.9.8l-3.3.6-.1-.5c2.8-.3 5.6-.6 8.4-.5.4 0 .7 0 1.1.1.2 0 .4.1.6.2l.2.1.2.2c.1.3 0 .3 0 .4v1c0 .3-.1.8-.4 1.1-.3.4-.8.4-1.1.4-.3 0-.7 0-1 .1-.7.1-1.3.1-2 .2-5.4.4-10.5.9-15.6 1.1-2.5-.1-5 .1-7.4.1-2.4.1-4.8.2-7.1.3-4.6.2-8.9.4-13 .5h-.2v-.2c.4-7.5.7-14.2.9-19.7v-.2h.2c6.1 1.4 10.9 2.5 14.2 3.3 1.6.4 2.9.7 3.8.9.4.1.7.2 1 .2.3 0 .4.1.4.1z"/><path d="M459.8 230.9c-.9-5.7-.2-11.6 1.4-17.2 1.6-5.6 4-10.9 6.3-16.2-3.1 2.7-5.2 6.4-6.7 10.3-1.5 3.9-2.2 7.9-3 12-.8 4.4-1.4 9.3 1.1 13 .3-.7.7-1.4 1-2.1" class="st15"/></g><g id="Character_1_1_"><path class="st7" d="m270.8 447.3.1 35.9 44.6.1c-.3-4.3-23.3-12.9-23.3-12.9l.9-23-22.3-.1z"/><g class="st8"><path class="st9" d="M278.4 468.5c-.9.2-1.5 1.2-1.3 2.1.2.9 1.2 1.5 2 1.3.9-.2 1.6-1.4 1.3-2.2-.3-.8-1.5-1.5-2.3-1.1"/></g><g class="st8"><path class="st9" d="M270.9 483.2v-3.6l42.9 1.5s2 .9 1.8 2.3l-44.7-.2z"/></g><path class="st6" d="M292.9 470.2c0 .2-1.1.3-2.2 1s-1.6 1.6-1.8 1.5c-.2 0 .1-1.3 1.4-2.2 1.3-.8 2.7-.5 2.6-.3zM297.6 472.2c0 .2-.9.6-1.6 1.5-.8.9-1 1.9-1.2 1.9-.2 0-.4-1.2.6-2.4.9-1.2 2.2-1.3 2.2-1zM300.2 477.8c-.2 0-.5-1 .1-2.2.6-1.2 1.6-1.7 1.7-1.5.1.2-.5.8-1 1.8-.5.9-.5 1.8-.8 1.9zM292.5 464.9c-.1.2-1.1-.1-2.3 0-1.2.1-2.2.5-2.3.3-.1-.2.8-1 2.3-1 1.4-.1 2.4.6 2.3.7zM291.5 459.6c0 .1-.9.2-2.2 0-.7-.1-1.5-.3-2.3-.7-.4-.2-.9-.4-1.3-.7-.2-.1-.4-.3-.7-.5-.2-.2-.4-.8-.1-1.2.2-.3.6-.5 1-.5.3 0 .6.1.8.1.5.1 1 .3 1.4.5.9.4 1.5.9 2.1 1.4 1 1 1.4 1.8 1.3 1.8-.1.1-.6-.6-1.7-1.4-.5-.4-1.2-.8-2-1.1-.4-.2-.8-.3-1.3-.4-.5-.1-.9-.1-1 .1v.3c.1.1.3.3.5.4.4.3.8.5 1.2.7.8.4 1.5.7 2.2.8 1.2.3 2.1.3 2.1.4z"/><path class="st6" d="M291.2 460c-.1 0-.5-.7-.6-2.2 0-.7 0-1.5.3-2.4.1-.4.3-.9.6-1.4.3-.4.6-1 1.4-1.1.4 0 .8.3.9.6.1.3.2.6.2.8.1.5.1 1 0 1.5-.1.9-.5 1.7-1 2.3-.9 1.2-1.8 1.4-1.8 1.3-.1-.1.7-.5 1.4-1.6.3-.5.6-1.3.7-2.1v-1.3c-.1-.5-.2-.9-.4-.8-.2 0-.6.4-.8.7l-.6 1.2c-.3.8-.4 1.6-.4 2.2 0 1.4.2 2.2.1 2.3z"/><path class="st7" d="m206.6 443-5.2 35.5 44.1 6.7c.4-4.3-21.2-16.2-21.2-16.2l4.3-22.6-22-3.4z"/><g class="st8"><path class="st9" d="M211 465c-.9.1-1.6 1-1.6 1.9.1.9.9 1.6 1.8 1.6.9-.1 1.8-1.1 1.6-2-.2-.9-1.2-1.7-2.1-1.4"/></g><g class="st8"><path class="st9" d="m201.3 478.5.5-3.6 42.2 7.8s1.8 1.2 1.4 2.5l-44.1-6.7z"/></g><path class="st6" d="M225.1 468.9c0 .2-1.1.1-2.3.7-1.2.5-1.9 1.4-2.1 1.2-.2-.1.3-1.3 1.7-1.9 1.5-.6 2.7-.2 2.7 0zM229.4 471.5c0 .2-1 .4-1.8 1.2-.9.8-1.2 1.7-1.4 1.7-.2 0-.2-1.3.9-2.3 1.1-.9 2.3-.8 2.3-.6zM231.2 477.5c-.2 0-.3-1.1.4-2.2s1.8-1.4 1.9-1.2c.1.2-.7.7-1.2 1.6-.7.9-.9 1.8-1.1 1.8zM225.5 463.6c-.1.2-1.1-.3-2.3-.4-1.2-.1-2.2.1-2.3-.1-.1-.2.9-.8 2.4-.7 1.4.3 2.3 1.1 2.2 1.2zM225.2 458.3c0 .1-.9.1-2.2-.3-.7-.2-1.4-.6-2.2-1.1-.4-.2-.8-.5-1.2-.9-.2-.2-.4-.3-.6-.6-.2-.3-.3-.9.1-1.2.3-.3.7-.4 1-.3.3 0 .6.1.8.2.5.2.9.4 1.3.7.8.5 1.4 1.1 1.8 1.6.9 1.1 1.1 2 1 2-.1.1-.5-.7-1.4-1.6-.5-.5-1.1-1-1.8-1.4l-1.2-.6c-.4-.2-.8-.3-1-.1-.1.1-.1.1 0 .3.1.1.3.3.4.5.4.3.7.6 1.1.8.7.5 1.4.9 2 1.1 1.3.6 2.1.7 2.1.9z"/><path class="st6" d="M224.9 458.5c-.1 0-.4-.8-.3-2.2.1-.7.3-1.5.7-2.4.2-.4.5-.8.8-1.3.3-.4.7-.9 1.6-.9.4 0 .8.4.8.8.1.3.1.6.1.8 0 .5-.1 1-.2 1.5-.3.9-.8 1.6-1.3 2.1-1 1-2 1.1-2 1.1-.1-.1.8-.4 1.6-1.4.4-.5.8-1.2 1-2 .1-.4.2-.8.2-1.3s-.1-.9-.3-.9c-.2 0-.6.3-.9.6-.3.4-.5.7-.7 1.1-.4.8-.6 1.5-.8 2.1-.3 1.5-.2 2.3-.3 2.3z"/><path class="st6" d="M294.1 353.2c.3-11-2.2-79.2-2.2-79.2l-75.6 1.3c.3 1-13.6 188.5-13.6 188.5l24.7 1.3 11.3-87.9s4.7-9 5-12.1c.4-4 11.3-57.5 11.3-57.5s4.4 30.2 8.1 64.6c4.4 40.7 5.4 86.8 6 91.1l26.9-.3c0 .1-2.2-98.8-1.9-109.8z"/><path class="st10" d="M256.5 284c.1 0 .1 1.1.1 2.8v6.9c0 1.3 0 2.6-.1 3.8-.1 1.2-.4 2.2-.8 3-.9 1.6-2.1 2.1-2.1 2-.1-.1 1-.6 1.7-2.2.4-.8.6-1.8.7-2.9.1-1.1.1-2.4.1-3.8 0-2.7.1-5.1.2-6.9 0-1.6.1-2.7.2-2.7zM254.1 285.9s-.1-.2-.2-.6c-.1-.4-.4-.9-1-1.4-.6-.4-1.5-.6-2.3-.3-.9.3-1.6 1.2-1.6 2.3 0 1.1.7 2 1.6 2.3.9.3 1.8.1 2.3-.3.6-.4.9-1 1-1.4.1-.4.1-.6.2-.6 0 0 .1.2 0 .7-.1.4-.3 1.1-1 1.6-.6.5-1.7.8-2.7.5-1-.3-2-1.4-1.9-2.7 0-1.3.9-2.4 1.9-2.7 1.1-.4 2.1-.1 2.7.5.6.5.9 1.2 1 1.6.1.2 0 .5 0 .5zM292.5 289.3s-.2.1-.7.1c-.5 0-1.1 0-1.9-.1-1.6-.2-3.9-.7-6.1-2-2.2-1.3-3.8-2.9-4.7-4.3-.5-.7-.8-1.2-1-1.7-.2-.4-.3-.6-.3-.7.1 0 .6.8 1.6 2.1s2.6 2.8 4.7 4.1c2.1 1.2 4.3 1.9 5.8 2.1 1.6.4 2.6.3 2.6.4zM240.8 373.8s-.2.3-.5.8c-.4.5-.9 1.1-1.6 2-1.4 1.6-3.4 3.8-5.7 6.1-2.3 2.3-4.6 4.3-6.2 5.7-.8.7-1.5 1.2-2 1.6-.5.4-.8.6-.8.5 0-.1.9-1 2.5-2.4 1.6-1.5 3.7-3.5 6.1-5.8 2.3-2.3 4.4-4.4 5.8-6 1.4-1.6 2.3-2.6 2.4-2.5zM291.1 159.8s5.5 2.3 7.6 13.2c2.1 10.9 6 79.8 6 79.8l-12.3.8-1.3-93.8zM243.5 153.3l-6.8 1 27.6 41.5 7.4-41.8z"/><path class="st7" d="M291.1 159.8c-5.3-2.4-19.5-5.8-19.5-5.8l-7.4 32.8-27.6-32.4s-18.8 2.4-22.1 4.7l.1.4 14.4 53.7c.7 2.1.4 4.3-.7 6.2l-9.7 15.6-1.4 24.3-.9 16.2s30.8 6.8 38.5 7c7.7.3 38.1-6 38.1-6s-1.6-87.2-1.6-93.6c.1-6.8-.2-23.1-.2-23.1z"/><g class="st14"><path class="st9" d="M218.3 240.4c2-1.2 73.9-7.7 73.9-7.7l.3 16.1-75.1 4.7.6-8.2.3-4.9z"/></g><g class="st14"><path class="st9" d="m292.6 254.8.3 15.7-76.4 1.6.7-13z"/></g><path class="st10" d="m214.4 215.4 4.2 19.4 10.2-16.3c.9-1.4 1.1-3.1.7-4.6l-7.1-25.4-8 26.9"/><path class="st10" d="M214.6 159s-2.4 1.6-3.8 3.8c-1.3 2.2-20.7 65.2-20.7 67.9 0 2.7 12.2 37.9 12.2 37.9l19.7-7.5-8.7-32.3 10.8-34-9.5-35.8z"/><path class="st6" d="M213.6 229.7c-.1.1-1-1.1-2.6-2-1.5-.9-3-1.2-3-1.3 0-.1 1.6-.1 3.3.9 1.6.9 2.4 2.3 2.3 2.4z"/><path class="st6" d="M213.3 228.9s.2.4.4 1.3.6 2.1.9 3.5c.8 2.9 2 6.9 3.3 11.4 1.3 4.4 2.4 8.5 3.1 11.4.4 1.5.6 2.7.8 3.5.2.8.2 1.3.2 1.3s-.2-.4-.4-1.3-.6-2.1-.9-3.5c-.8-2.9-2-6.9-3.3-11.4-1.3-4.4-2.4-8.5-3.1-11.4-.4-1.5-.6-2.7-.8-3.5-.1-.8-.2-1.3-.2-1.3z"/><path class="st6" d="M222 200s0 .4-.1 1.2c-.1.8-.3 1.9-.5 3.3-.5 2.7-1.5 6.5-2.9 10.5s-2.7 7.6-3.7 10.2c-.4 1.2-.8 2.3-1.1 3.1-.3.7-.4 1.1-.5 1.1l.3-1.2c.2-.8.5-1.8.9-3.2.8-2.7 2.2-6.3 3.5-10.3 1.4-4 2.4-7.7 3-10.4.3-1.4.5-2.5.7-3.2.3-.7.4-1.1.4-1.1z"/><path class="st16" d="M222.7 299.5c4.9-2.3 7.3-4.9 9.5-7.4v-.3c.1-.1.2-.1.3-.1 1.2-1.5 2.2-2.8 3-3.9-2.4-2.1-5.4-5.1-1.6-5.1 4.6 0 8.2-1.8 8.8-2.9.6-1.1-.7-2.4-2-1.8-1.1.5-3.1.8-4.6.9-1.3.1-2.5 0-3.7-.3-.8-.2-3.2-2.4-5.9-4.2-.4-.2-.8-.4-1.3-.4l-1.1-.2c-1.2-.2-2.2-1.1-2.6-2.2l-2.5-9.1-13.6 5.2 7.4 16.3c.1-.1 5.7 10 9.9 15.5z"/><path class="st10" d="M219.8 300.6c0 .1 1.3-.2 3.1-1 1.9-.8 4.3-2.2 6.7-4.2 2.4-2 4.1-4.2 5.2-5.9 1.1-1.7 1.5-2.9 1.5-2.9-.2-.1-2.4 4.4-7.1 8.3-4.6 4-9.5 5.5-9.4 5.7z"/><path class="st6" d="M262.9 282.8c-.1 0-.1-21.5.2-48 .3-26.5.6-48 .7-48 .1 0 .1 21.5-.2 48-.3 26.5-.6 48-.7 48z"/><path class="st16" d="M301.9 252.9v25L290 289.2s-9.3-1.2-11.2-6.9l7.3-7.2s-4 1.7-6.2 0-1.9-2.8-.1-2.3c1.7.5 5.1 0 6.2-.9 1.1-.9 5.6-3.3 5.6-3.3h1.2l-.4-15.8h9.5z"/><path class="st7" d="M280.2 112.1c4.4-1.2 7.1-2.8 7.1-4.6 0-1.7-7.7-5.8-9.4-6.9-4.2-2.5-9.2.7-16.5.8-14.3.2-25.8 3.2-25.8 6.8 0 1.7 2.7 3.3 7.1 4.4"/><path d="M277.8 112c3.9-1.1 6.4-2.5 6.3-4.1-.3-4.3-10.3-5.6-23-5.4-12.7.2-22.9 2.9-22.8 6 0 1.5 2.4 2.9 6.3 3.9" class="st11"/><path class="st16" d="M279.6 108.6c-.5-10.9-9.3-19.5-20.2-19.9h-1.1c-11.7.3-18 10.4-17.3 22.1l1.2 43.2c.2 7.1 6 12.8 13.2 12.8 7.3 0 13.2-6 13.2-13.3V148s11.3-1.4 11.8-12.6c.2-5.4-.3-16.6-.8-26.8z"/><path class="st17" d="M268.6 148s-7.1.2-14.5-4.8c0 0 3.3 7.1 14.5 6.4V148z"/><path class="st6" d="M275.9 117.9c0 .8-.7 1.5-1.6 1.6-.9 0-1.6-.6-1.6-1.5 0-.8.7-1.5 1.6-1.6.8 0 1.6.7 1.6 1.5zM277.1 114c-.2.2-1.4-.7-3.1-.8-1.7-.1-3 .8-3.2.6-.1-.1.1-.5.7-.9s1.5-.7 2.6-.7 2 .5 2.5.9c.4.5.6.9.5.9zM259.1 117.9c0 .8-.7 1.5-1.6 1.6-.9 0-1.6-.6-1.6-1.5 0-.8.7-1.5 1.6-1.6.8-.1 1.6.6 1.6 1.5zM260.1 113.8c-.2.2-1.4-.7-3.1-.8-1.7-.1-3 .8-3.2.6-.1-.1.1-.5.7-.9s1.5-.7 2.6-.7 2 .5 2.5.9c.4.5.6.9.5.9zM266 126.8c0-.1 1.1-.3 2.8-.4.4 0 .9-.1.9-.4.1-.3-.1-.8-.3-1.3-.4-1.1-.8-2.2-1.2-3.4-1.7-4.8-2.8-8.8-2.7-8.9.2-.1 1.7 3.8 3.4 8.6.4 1.2.8 2.3 1.1 3.4.2.5.4 1.1.2 1.7-.1.3-.5.6-.7.6-.3.1-.5.1-.8.1-1.7.1-2.7.1-2.7 0zM260.8 127.9c.3 0 .2 1.9 1.8 3.2 1.6 1.4 3.6 1.2 3.6 1.5 0 .1-.5.3-1.3.3s-2-.3-3-1.1-1.3-1.9-1.4-2.7c0-.8.2-1.3.3-1.2zM260.5 108.9c-.2.5-1.9.2-3.9.4-2 .1-3.7.7-3.9.3-.1-.2.2-.6.9-1.1.7-.4 1.7-.8 2.9-.9 1.2-.1 2.3.1 3.1.5.6.2 1 .6.9.8zM276.7 109.7c-.3.4-1.5-.1-2.9-.1-1.4-.1-2.6.2-2.9-.2-.1-.2.1-.6.6-.9.5-.4 1.4-.6 2.4-.6 1 .1 1.8.4 2.3.9.5.4.7.8.5.9z"/><path class="st16" d="M243.4 117.8c-.2-.1-7.6-2.5-7.6 5.2s7.7 6.1 7.7 5.9c0-.3-.1-11.1-.1-11.1z"/><path class="st17" d="M241.1 125.9s-.1.1-.4.2c-.2.1-.6.2-1 0-.8-.3-1.5-1.6-1.5-3 0-.7.1-1.4.4-1.9.2-.6.6-1 1-1 .4-.1.7.2.8.4.1.2.1.4.1.4s.2-.1.1-.4c0-.2-.1-.3-.3-.5-.2-.1-.5-.2-.7-.2-.6 0-1.1.6-1.4 1.2-.3.6-.5 1.4-.5 2.1.1 1.5.8 3 2 3.3.5.1 1 0 1.2-.2.2-.2.3-.3.2-.4z"/><path class="st7" d="M283.7 105.9s-3.9-15.2-4.2-15.9c-.3-.7-4.7-7.3-15.1-9.1l-8.6.1s-12.1 4.1-14.3 7.1c-2.2 3-2.9 17.4-2.9 17.4l23.9-5.5 16.4 3.8 4.8 2.1z"/><path class="st7" d="M261.6 79.2h2.4c1 0 1.9.5 2.2 1.4.3.6.5 1.4.6 2.4.2 2.7 1 20.9 1 20.9l-10.7-.3V81l-3.6.9.1-.7c0-.4.2-.8.4-1.1.4-.4.9-.7 1.4-.7l6.2-.2z"/><path class="st10" d="m279.8 108.2-.3-6-16.8-5-21.8 7.6v5.4s17.7-7.2 38.9-2z"/><path class="st7" d="m277.9 100.6.7.7 5.7 4.2s-11.1-3.6-22.6-3.3c-7.6.2-15.8 2.2-20.6 3.5-2.5.6-4.1.9-4.1.9l7.6-4.7c2.4-2.6 5.8-4.2 9.3-4.3l14.5-.5c3.5-.2 6.9 1.1 9.5 3.5z"/><path class="st6" d="M282.7 105.7s-.1-.1-.4-.3c-.2-.2-.6-.4-1.2-.7-1.1-.5-2.7-1.1-4.8-1.6-4.2-.9-10.1-1.4-16.5-.8-3.2.3-6.3.5-9.1.9-2.8.5-5.2 1.1-7.3 1.6-1 .3-1.9.6-2.7.9-.8.3-1.5.7-1.9 1.1-.4.5-.5 1-.5 1.3 0 .3.1.5.1.5.1 0-.2-.8.6-1.6.4-.4 1-.7 1.8-1 .8-.3 1.7-.6 2.7-.8 2-.5 4.5-1.1 7.3-1.5 2.8-.4 5.8-.6 9-.9 6.4-.7 12.3-.2 16.4.6 2.1.4 3.7.9 4.8 1.4 1.1.5 1.6 1 1.7.9z"/><path class="st6" d="M284.4 104.5s-.2-.1-.5-.2c-.3-.2-.8-.4-1.3-.7-1.2-.7-2.8-1.6-4.8-2.8-.4-.5-.7-.9-1.1-1.4-.4-.5-.7-1-1.3-1.4-.5-.4-1.1-.7-1.8-.9-.7-.2-1.4-.2-2.2-.2-3-.1-6.4 0-9.9.2-3.3.1-6.4.3-9.2.5-.7 0-1.4.1-2 .3-.6.2-1.2.6-1.6 1-.9.9-1.6 1.9-2.4 2.7-2.4 1.1-4.3 2.1-5.7 2.7-.6.3-1.2.5-1.6.7-.4.2-.5.2-.6.2 0 0 .2-.1.5-.3.4-.2.9-.5 1.5-.8 1.4-.7 3.3-1.7 5.6-2.9.7-.8 1.5-1.8 2.4-2.7.5-.5 1.1-.8 1.7-1.1.7-.3 1.4-.3 2.1-.4 2.8-.2 6-.4 9.2-.5 3.5-.1 6.8-.2 9.9-.1.7 0 1.5 0 2.2.2.7.2 1.4.6 1.9 1s.9 1 1.3 1.5.7 1 1.1 1.4c2 1.2 3.6 2.2 4.7 2.9.5.3.9.6 1.3.8l.6.3z"/><path class="st6" d="M257.1 96.9s-.1-.3-.1-.7c0-.5 0-1.2-.1-2v-12c0-.4-.4-.8-.7-.7-.8.2-1.4.3-2 .4-.5.1-.7.1-.7.1s.2-.1.7-.2c.5-.1 1.1-.3 2-.5.5-.1 1.1.3 1.1 1V87.6c0 2.6 0 5-.1 6.7 0 .9 0 1.6-.1 2v.6zM267.5 96.6s-.2-.8-.4-2.2c-.2-1.4-.3-3.3-.4-5.4-.1-2.1-.2-4-.2-5.4v-2.2c.1 0 .1.8.2 2.2.1 1.4.2 3.3.3 5.4.1 2 .2 3.9.3 5.4.1 1.3.2 2.2.2 2.2z"/></g><g id="Character_2"><path class="st10" d="m348.5 454.5.6 27.9-34.7.9c.1-3.3 17.9-10.4 17.9-10.4l-1.1-17.9 17.3-.5z"/><g class="st8"><path class="st9" d="M343 471.1c.7.2 1.2.9 1 1.6-.1.7-.9 1.2-1.6 1-.7-.2-1.3-1-1.1-1.7.2-.7 1.1-1.2 1.8-.9"/></g><g class="st8"><path class="st9" d="m349.1 482.4-.1-2.8-33.3 1.9s-1.5.7-1.3 1.8l34.7-.9z"/></g><path class="st6" d="M331.7 472.7c0 .2.9.2 1.7.7.9.5 1.3 1.2 1.5 1.2.2 0-.1-1-1.2-1.7-1-.6-2-.4-2-.2zM328.1 474.3c0 .2.7.4 1.3 1.1.6.7.8 1.5.9 1.4.2 0 .3-1-.5-1.8-.7-.8-1.7-.9-1.7-.7zM326.2 478.7c.2 0 .4-.8-.1-1.7-.5-.9-1.3-1.3-1.3-1.1-.1.1.4.6.8 1.4.3.7.4 1.4.6 1.4zM331.9 468.6c.1.2.8-.1 1.8-.1s1.7.3 1.8.2c.1-.1-.6-.7-1.8-.8-1.1 0-1.9.6-1.8.7zM332.7 464.5c0 .1.7.2 1.7-.1.5-.1 1.2-.3 1.8-.6.3-.2.7-.3 1-.6.2-.1.3-.2.5-.4s.3-.6.1-.9c-.2-.3-.5-.4-.8-.4-.3 0-.5.1-.6.1-.4.1-.7.2-1.1.4a5 5 0 0 0-1.6 1.1c-.8.8-1 1.4-1 1.4.1.1.5-.5 1.3-1.1.4-.3.9-.6 1.5-.9.3-.1.6-.2 1-.3.4-.1.7-.1.8 0v.2c-.1.1-.2.2-.4.3-.3.2-.6.4-.9.5-.6.3-1.2.5-1.7.7-1 .4-1.7.5-1.6.6z"/><path class="st6" d="M332.9 464.7c.1 0 .4-.6.4-1.7 0-.5-.1-1.2-.3-1.9-.1-.3-.3-.7-.5-1-.2-.3-.5-.8-1.1-.8-.3 0-.6.3-.7.5-.1.2-.1.4-.2.6-.1.4 0 .8 0 1.2.1.7.4 1.3.8 1.8.7.9 1.4 1.1 1.4 1 .1-.1-.5-.4-1.1-1.3-.3-.4-.5-1-.6-1.6v-1c0-.4.2-.7.3-.6.2 0 .5.3.6.6.2.3.3.6.5.9.2.6.3 1.2.4 1.7.2.9 0 1.6.1 1.6z"/><path class="st10" d="m369.9 455.3-.6 27.9 34.7.9c-.1-3.3-17.9-10.4-17.9-10.4l1.1-17.9-17.3-.5z"/><g class="st8"><path class="st9" d="M375.4 471.9c-.7.2-1.2.9-1 1.6.1.7.9 1.2 1.6 1 .7-.2 1.3-1 1.1-1.7-.2-.7-1.1-1.2-1.8-.9"/></g><g class="st8"><path class="st9" d="m369.3 483.2.1-2.8 33.3 1.9s1.5.7 1.3 1.8l-34.7-.9z"/></g><path class="st6" d="M386.7 473.5c0 .2-.9.2-1.7.7-.9.5-1.3 1.2-1.5 1.2-.2 0 .1-1 1.2-1.7 1-.6 2-.3 2-.2zM390.3 475.1c0 .2-.7.4-1.3 1.1-.6.7-.8 1.5-.9 1.4-.2 0-.3-1 .5-1.8.7-.8 1.7-.9 1.7-.7zM392.3 479.5c-.2 0-.4-.8.1-1.7.5-.9 1.3-1.3 1.3-1.1.1.1-.4.6-.8 1.4-.4.7-.5 1.4-.6 1.4zM386.5 469.4c-.1.2-.8-.1-1.8-.1s-1.7.3-1.8.2c-.1-.1.6-.7 1.8-.8 1.1 0 1.9.6 1.8.7zM385.8 465.3c0 .1-.7.2-1.7-.1-.5-.1-1.2-.3-1.8-.6-.3-.2-.7-.3-1-.6-.2-.1-.3-.2-.5-.4s-.3-.6-.1-.9c.2-.3.5-.4.8-.4.3 0 .5.1.6.1.4.1.7.2 1.1.4a5 5 0 0 1 1.6 1.1c.8.8 1 1.4 1 1.4-.1.1-.5-.5-1.3-1.1-.4-.3-.9-.6-1.5-.9-.3-.1-.6-.2-1-.3-.4-.1-.7-.1-.8 0v.2c.1.1.2.2.4.3.3.2.6.4.9.5.6.3 1.2.5 1.7.7.9.4 1.6.5 1.6.6z"/><path class="st6" d="M385.6 465.5c-.1 0-.4-.6-.4-1.7 0-.5.1-1.2.3-1.9.1-.3.3-.7.5-1 .2-.3.5-.8 1.1-.9.3 0 .6.3.7.5.1.2.1.4.2.6.1.4 0 .8 0 1.2-.1.7-.4 1.3-.8 1.8-.7.9-1.4 1.1-1.4 1-.1-.1.5-.4 1.1-1.3.3-.4.5-1 .6-1.6v-1c0-.4-.2-.7-.3-.6-.2 0-.5.3-.6.6-.2.3-.3.6-.5.9-.2.6-.3 1.2-.4 1.7-.2 1.1-.1 1.7-.1 1.7z"/><path class="st6" d="M310.3 315.8s6.7 69.1 6.3 72.2 2.3 10.6 2.3 10.6.9 15 0 19 .4 13.7.4 13.7 7.3 19.8 8.3 26.4c1 6.6 1.1 14.2 1.1 14.2h21.6l5.3-80.7 4.8-37.9 7.1 118.6s23.8.6 22.5.2c-1.3-.4 1.5-12.1 1.5-12.1l6-11.9s10.1-124.8 9.7-130.5c-.3-4.2-45.8-2.7-69.8-1.6-8.7.3-27.1-.2-27.1-.2z"/><path class="st10" d="M407.4 324.9v-3.8l-74.9-2.3-1 6.1z"/><path class="st10" d="M322.9 368.4c4.7.4 8.8-3.2 8.9-8l.6-35.1.1-6.5-22.8-.7v10.1l-2.1-.2-2.6 9.8-5.1 1.2-.7 17.4s6.9 8.4 9.4 9.9c1.4.7 8.4 1.5 14.3 2.1z"/><path class="st1" d="M424.9 213.4s-2.4-7.8-3.4-9.8c-1.1-2-5.7-8.4-5.7-8.4l-32.3-14.3s-5.3 7.4-16.1 7c-5.5-.2-8.8-7.1-8.8-7.1l-29.2 2c-4.3.2-8.3 1.7-11.7 4.4-10.1 8-31 25.1-31 25.1l-14.1-6.6s-9.5 7-9.3 7.5c.2.6 4.6 20.3 12.5 25 7.9 4.8 13.1 5.4 21.3 0 7-4.6 21.3-15.1 15.7-16.2-6.5 38.4-13.7 77.4-4.3 96.2l103.6 2.9-.9-84.6 22.7 1.6-9-24.7z"/><path class="st6" d="M424.9 213.4s.2.5.6 1.6c.4 1.1 1 2.6 1.7 4.7 1.5 4.2 3.8 10.3 6.7 18.3l.1.2h-.2c-6.4-.4-14.1-1-22.8-1.5l.2-.1c.2 21.8.6 50.8.9 84.6v.2h-.2c-30.6-.8-65.8-1.8-103.6-2.8h-.2l-.1-.1c-2.4-4.8-3.4-10.1-4-15.5-.6-5.4-.6-10.9-.4-16.4.5-11 1.9-22.1 3.5-33.4 1.6-10.6 3.4-20.9 5.1-31.2v-.3l.3.1c.5.1 1.1.3 1.4.9.2.6 0 1.2-.2 1.6-.5.9-1.1 1.7-1.8 2.4-1.3 1.4-2.8 2.7-4.3 3.9-3 2.5-6.1 4.7-9.2 6.8-3.1 2.1-6.5 4.2-10.3 4.7-1.9.3-3.8.1-5.6-.4-1.8-.5-3.5-1.3-5.2-2.2-.4-.2-.8-.4-1.2-.7-.4-.2-.8-.5-1.2-.8-.4-.3-.8-.5-1.1-.8l-1-1c-.3-.3-.6-.7-.9-1.1-.3-.4-.6-.7-.8-1.1-.5-.8-1-1.5-1.5-2.3-1.8-3.2-3.2-6.5-4.3-9.9-.6-1.7-1.1-3.4-1.6-5.1-.2-.9-.5-1.7-.7-2.6l-.2-.6-.1-.3v-.2l.1-.1c0-.1.1-.1.1-.2.3-.4.6-.6 1-.9 2.7-2.3 5.5-4.3 8.3-6.4l.1-.1.1.1c4.8 2.2 9.5 4.4 14.1 6.6h-.2c6-4.9 11.9-9.6 17.5-14.2 2.8-2.3 5.6-4.6 8.4-6.8 1.4-1.1 2.7-2.2 4.1-3.3 1.3-1.1 2.8-2.2 4.3-2.9 1.5-.8 3.2-1.4 4.8-1.8 1.6-.4 3.4-.5 5-.6 3.3-.2 6.5-.4 9.7-.7 6.3-.4 12.4-.8 18.2-1.2h.1l.1.1c1.3 2.4 3 4.6 5.3 5.9 2.2 1.4 5 1.1 7.4.8 4.9-.7 9.2-3.2 12-6.7l.1-.1h.1c13.5 6 24.2 10.8 32.3 14.4 2 2.8 3.7 5.2 5.1 7.4.7 1.1 1.1 2.2 1.5 3.2.4 1 .7 1.9.9 2.7.5 1.6.9 2.9 1.2 3.7.4 1 .5 1.5.5 1.5-.1-.3-.6-1.7-1.6-4.9-.3-.8-.6-1.7-1-2.7-.4-1-.8-2.1-1.5-3.2-1.4-2.2-3.1-4.6-5.1-7.3-8.1-3.6-18.8-8.3-32.3-14.3l.2-.1c-2.8 3.5-7.2 6.1-12.2 6.8-.6.1-1.3.1-1.9.2h-1.9c-1.3 0-2.6-.4-3.8-1.1-2.3-1.4-4.1-3.6-5.4-6.1l.2.1c-5.8.4-11.9.8-18.2 1.3-3.2.2-6.4.4-9.7.7-1.7.1-3.3.2-4.9.6-1.6.4-3.2 1-4.7 1.7-1.5.8-2.9 1.8-4.2 2.9-1.4 1.1-2.7 2.2-4.1 3.3-2.7 2.2-5.5 4.5-8.4 6.8-5.7 4.6-11.5 9.3-17.5 14.2l-.1.1-.1-.1c-4.6-2.1-9.3-4.3-14.1-6.5h.2c-2.8 2-5.6 4.1-8.2 6.3-.3.3-.7.6-.9.9l-.1.1s-.1-.1-.2 0c-.1 0 .3-.1.2 0V213.4l.2.6c.2.8.5 1.7.7 2.5.5 1.7 1 3.4 1.6 5.1 1.2 3.4 2.5 6.7 4.3 9.8.4.8 1 1.5 1.4 2.3.2.4.5.7.8 1.1.3.3.5.7.9 1 1.2 1.4 2.8 2.3 4.4 3.2 1.6.9 3.3 1.6 5.1 2.1 1.8.5 3.6.7 5.4.4 3.7-.5 7-2.5 10.1-4.6 3.1-2.1 6.2-4.4 9.2-6.8 1.5-1.2 2.9-2.5 4.2-3.9.6-.7 1.3-1.4 1.7-2.3.2-.4.3-.9.2-1.2-.1-.3-.6-.5-1-.6l.3-.2c-1.7 10.2-3.6 20.6-5.1 31.2-1.7 11.2-3.1 22.3-3.5 33.3-.2 5.5-.2 10.9.4 16.3.6 5.3 1.6 10.6 3.9 15.3l-.2-.1c37.9 1.1 73 2.1 103.6 2.9l-.2.2c-.3-33.9-.6-62.8-.8-84.6v-.2h.2c8.7.6 16.4 1.2 22.7 1.6l-.1.1c-2.9-8-5.1-14.1-6.6-18.3-.7-2.1-1.3-3.7-1.7-4.7-.6-1-.8-1.5-.8-1.5z"/><path class="st7" d="M357.2 180.7c-.9 0-30.1.7-30.1.7s-5.1 21.8-5.1 25.7c0 2.6-8.2 33.5-16.9 63.6-5.2 18 1 50.4 1 50.4h32.4l4.8-30.4 12.7-89.9s-1.7-8.6-.7-13.9c.8-5.4 1.9-6.2 1.9-6.2z"/><g class="st14"><path class="st9" d="M303 289.1c0 3.2.1 6.3.3 9.5l38.5-1.6.8-7.8H303z"/></g><path class="st7" d="m415.6 195.2-29.3-14.4-7.2 15.2s-10.2 22.2-11.3 43.9c-1 21.8-2.6 81.2-2.6 81.2l48.4.8-8.9-107.5s9.8-16.6 10.9-19.2z"/><g class="st14"><path class="st9" d="M399.2 187.1s-2.6 4.1-3.2 6.9-2.6 21.1-3.6 51c-1 30-1 31.7-1 31.7l8 .3s-1.8-55.1-.2-60.4c1.6-5.4 8.3-25.5 8.3-25.5l-8.3-4z"/></g><path class="st6" d="M387.4 207.4c-.1 0 .4-1.3.9-3.4.5-2.1 1-5 1-8.3 0-3.3-.4-6.2-.7-8.4-.3-2.1-.6-3.4-.5-3.5l.3.9c.2.6.4 1.4.6 2.5.4 2.1.9 5.1.9 8.4 0 3.3-.5 6.3-1.1 8.4-.3 1-.6 1.9-.8 2.4-.4.7-.5 1.1-.6 1z"/><g class="st14"><path class="st9" d="M339.7 203.4c1.8-8.2 5.4-16 10.5-22.6l-10.5.3s-8.8 6.5-9.5 19.3l3.7 1.1 5.8 1.9z"/></g><path class="st6" d="M330.1 329.5s-.3.2-.9.4c-.6.2-1.4.6-2.4.9-2.1.7-5 1.7-8.4 1.8-3.4.1-6.5-.9-8.3-2.1-.9-.6-1.6-1.2-2-1.7-.4-.5-.6-.8-.6-.8.1-.1.9 1.1 2.8 2.2 1.8 1.1 4.8 2 8.1 1.9 3.3-.1 6.3-1 8.3-1.6 2.1-.7 3.4-1.1 3.4-1z"/><path class="st10" d="M363 346.9s-.2.3-.8.4c-.5.1-1.4-.1-2.2-.8-.7-.7-1-1.9-1.2-3.2-.2-1.3-.4-2.6-.6-4.1-.4-2.9-.8-5.5-1-7.4-.2-1.9-.4-3.1-.3-3.1.1 0 .3 1.1.6 3s.8 4.5 1.2 7.4c.2 1.4.4 2.8.6 4.1.2 1.2.4 2.3 1 3 .6.7 1.4.9 1.9.9s.8-.2.8-.2zM362.2 329.5c.1.1-.8.3-1.1 1.5-.1.5-.1 1.3.3 1.8.4.6 1.3.8 2.1.5.8-.3 1.4-1 1.3-1.7 0-.7-.5-1.3-.9-1.6-.8-.7-1.7-.4-1.7-.5 0 0 .2-.1.5-.2.4-.1.9 0 1.5.4.5.3 1.1 1 1.2 1.9.1.9-.7 1.9-1.6 2.2-1 .4-2.1.1-2.7-.7-.6-.8-.5-1.6-.3-2.2.2-.6.6-1 .9-1.2.3-.2.5-.2.5-.2zM405.9 332.3s-.2.3-.6.6c-.4.4-1.1.8-2 1.3-1.8.9-4.7 1.6-7.8 1-3.1-.7-5.4-2.6-6.7-4.2-.6-.8-1-1.5-1.3-2-.2-.5-.3-.8-.3-.8.1 0 .6 1.1 1.9 2.6 1.3 1.5 3.5 3.3 6.5 3.9 3 .7 5.8 0 7.5-.8 1.8-.8 2.8-1.7 2.8-1.6zM341 427.8c-.1.1-4.7-6.7-10.3-15.2-5.6-8.5-10-15.4-9.8-15.5.1-.1 4.7 6.7 10.3 15.2 5.5 8.5 9.9 15.4 9.8 15.5zM396.4 386.2s-.2.4-.6 1c-.4.6-1 1.5-1.7 2.6-1.5 2.2-3.7 5.1-6.3 8.2-2.6 3.1-5.2 5.7-7.1 7.5-1 .9-1.7 1.6-2.3 2.1-.6.5-.9.7-.9.7s.2-.3.8-.9c.6-.6 1.3-1.4 2.2-2.2 1.8-1.9 4.3-4.5 6.9-7.6 2.6-3.1 4.8-5.9 6.4-8 .7-1 1.4-1.8 1.9-2.5.4-.6.7-.9.7-.9z"/><path class="st6" d="M334.7 324.9s-.4.1-1.1.1c-.8 0-1.8 0-3.1.1l.1-.1c-.2 2.2-.2 5.3-.3 8.9 0 3.6-.1 7.7-.1 12.1-.1 3.5 0 6.8-.2 9.8-.2 3-.9 5.8-2.2 7.7-1.2 2-2.7 3.2-3.9 3.8-.6.3-1.1.5-1.4.5-.3.1-.5.1-.5.1 0-.1.7-.2 1.8-.8 1.1-.6 2.5-1.8 3.6-3.8 1.2-1.9 1.8-4.6 2-7.6.2-3 .1-6.3.2-9.8.1-4.4.1-8.5.2-12.1.1-3.6.1-6.7.4-8.9v-.1h.1c1.3 0 2.3 0 3.1.1h1.3z"/><path class="st7" d="M347.4 142.5c-4.7-1.3-7.6-3-7.6-4.9 0-1.9 8.2-6.3 10.1-7.4 4.5-2.7 9.8.7 17.7.8 15.3.2 27.7 3.5 27.6 7.3 0 1.8-2.9 3.5-7.6 4.7"/><path d="M350 142.4c-4.2-1.2-6.9-2.7-6.7-4.3.4-4.6 11.1-6 24.6-5.8 13.6.2 24.5 3.1 24.5 6.5 0 1.6-2.6 3.1-6.8 4.1" class="st11"/><path class="st0" d="M347.7 143.1c-1.5-.5-2.7-1.7-3.2-3.2-.5-1.5.4-3.2 1.4-4.4.5-.7.7-1.3 1-2.1.7-1.7-.6-3.7-.3-5.5.3-1.7 2-2.8 3.6-3.5 1.6-.6 3.4-.9 4.8-2 1.3-.9 2.1-2.4 3.3-3.4 1.7-1.4 4.1-2 6.3-1.4 2.2.6 4 2.3 6.3 2.6 1.7.2 3.3-.4 5-.5 3.8-.2 7.5 2.5 8.3 6.2.4 1.6.7 3 1.8 4.3 1.4 1.7 3.7 2.2 4.8 4.1.6 1.1.4 2.5.1 3.7-.4 1.2-.9 2.4-.9 3.7 0 2 1.6 3.9 3.5 4.3-.3 1.2-1.2 2.3-2.4 2.8.8.5 1.8.7 2.8.7-.8 2.4-2.6 4.4-4.9 5.4-2.3 1-5 1.1-7.3.1"/><path class="st18" d="M384.2 151.3c.2-.1 7.3-2.3 7.2 5-.1 7.3-7.5 5.7-7.5 5.5.1-.2.3-10.5.3-10.5z"/><path class="st19" d="M386.2 159.1s.1.1.3.2c.2.1.6.2 1 0 .8-.3 1.5-1.5 1.5-2.8 0-.7-.1-1.3-.3-1.8-.2-.5-.6-.9-.9-1-.4-.1-.7.1-.8.3-.1.2-.1.4-.1.4s-.2-.1-.1-.4c0-.1.1-.3.3-.5.2-.1.4-.2.7-.2.6 0 1.1.6 1.3 1.2.3.6.4 1.3.4 2.1-.1 1.5-.8 2.9-1.9 3.1-.5.1-.9 0-1.2-.2l-.2-.4z"/><path class="st18" d="M368.7 122h-1c-10.4.2-19 8.3-19.6 18.7-.6 9.7-1 20.4-1 25.6 0 11.7 11.1 12.2 11.1 12.2 0 6.7 5.5 12.2 12.2 12.2h1.6c6.6 0 12.1-5.3 12.2-11.9l.8-35.5c.7-11.1-5.2-20.9-16.3-21.3z"/><path class="st19" d="M358.4 178.5c1.3 0 6.8-.1 12.6-3.6.3-.2.6.2.4.4-1.3 2-4.8 6-12.4 5.8-.5 0-.9-.4-.9-.9v-1.4c0-.2.1-.3.3-.3z"/><path class="st6" d="M351.8 149.6c0 .8.7 1.5 1.5 1.5s1.5-.6 1.6-1.4c0-.8-.7-1.5-1.5-1.5-.9-.1-1.6.6-1.6 1.4zM368.4 148.9c0 .8.7 1.5 1.5 1.5s1.5-.6 1.6-1.4c0-.8-.7-1.5-1.5-1.5-.9 0-1.6.6-1.6 1.4zM350.3 146.4c.2.2 1.3-.7 3-.7 1.6 0 2.9.8 3 .6.1-.1-.1-.4-.6-.8s-1.4-.7-2.4-.7-1.9.4-2.4.8c-.5.3-.7.7-.6.8zM366.9 145.7c.2.2 1.3-.8 2.9-.9 1.6-.2 2.9.6 3.1.4.1-.1-.1-.4-.7-.8-.5-.3-1.5-.6-2.5-.6-1 .1-1.9.5-2.3 1-.5.5-.6.8-.5.9zM360.9 158.3c0-.1-1-.3-2.7-.4-.4 0-.8-.1-.9-.4-.1-.3.1-.8.3-1.3.4-1 .8-2.1 1.2-3.2 1.7-4.6 2.8-8.4 2.7-8.4-.2-.1-1.7 3.6-3.3 8.2-.4 1.1-.8 2.2-1.1 3.2-.2.5-.4 1-.2 1.7.1.3.4.5.7.6.3.1.5.1.7.1 1.5 0 2.6 0 2.6-.1zM365.7 159.3c-.3 0-.2 1.8-1.8 3.1-1.5 1.3-3.4 1.1-3.4 1.4 0 .1.4.3 1.2.3.8 0 1.9-.3 2.9-1.1.9-.8 1.3-1.8 1.4-2.6.1-.6-.1-1.1-.3-1.1z"/><path class="st0" d="M366.2 138.7c.2.4 1.8.1 3.8.1 2 0 3.6.4 3.8 0 .1-.2-.2-.6-.9-1s-1.7-.7-2.9-.7-2.2.3-2.9.6c-.7.4-1 .8-.9 1zM350.5 142c.3.4 1.4 0 2.8-.1s2.5.2 2.8-.2c.1-.2-.1-.6-.6-.9-.5-.3-1.3-.6-2.3-.6-.9 0-1.7.4-2.2.8-.4.4-.6.8-.5 1z"/><path class="st0" d="M359.7 121.1c3.7-1.6 7.6-1 11.7-.5 3.2.4 6 1.3 8.7 3.1 4.2 2.9 6.4 7.6 6.8 12.6.4 5.1 0 9.6-1.1 14.5l-.4-.1c.3 1.2.6 2.5.2 3.7-.4 1.2-1.7 2.2-2.9 1.7-1.4-.5-1.5-2.4-1.4-3.9.2-5 0-9.9-.5-14.9-.3-3.7-2.6-8.2-5.6-9.8-6.6-3.7-11.5 0-13.8.9-3.7-2.9-7.6-1-9.7 1.7.7-3.9 4.3-7.4 8-9z"/><path class="st2" d="M389.2 132.9c0 .2-.4.5-1.3.6-.9.1-2.2.1-3.7-.4s-3.1-1.3-4.8-2.4c-1.6-1.1-3.3-2.3-5-3.3-1.7-1-3.4-1.6-5-1.6-1.6-.1-3.1.3-4.2.7-2.4.9-3.6 2.2-4 1.9-.1-.1-.1-.2-.1-.5 0-.2.2-.6.4-1 .4-.8 1.2-1.8 2.6-2.7 1.3-.9 3.2-1.6 5.4-1.8 1.1-.1 2.3.1 3.4.4 1.1.3 2.2.8 3.3 1.4 2.1 1.2 3.7 2.6 5.1 3.7 1.4 1.1 2.7 2.1 3.9 2.7 1.1.7 2.1 1.1 2.8 1.3.7.6 1.1.8 1.2 1zM389.4 138.9s-.5.2-1.4.3c-.9.1-2.1 0-3.4-.4-1.3-.4-2.3-1.1-3-1.7-.7-.6-1-1-1-1.1 0 0 .4.4 1.1.9.7.5 1.7 1.1 3 1.5 1.2.4 2.4.5 3.3.5.9 0 1.4-.1 1.4 0zM392.7 146.3s-.2 0-.6-.1c-.4-.1-.9-.3-1.5-.5-1.2-.5-2.9-1.3-4.5-2.5s-3-2.4-3.8-3.4c-.4-.5-.8-.9-1-1.2-.2-.3-.3-.5-.3-.5l1.5 1.5c.9.9 2.2 2.2 3.9 3.3 1.6 1.1 3.2 2 4.4 2.6 1.1.4 1.9.7 1.9.8z"/><path class="st2" d="M367.1 119.6c0 .1-.6.3-1.6.7-1 .5-2.3 1.2-3.3 2.4s-1.4 2.7-1.4 3.8c0 1.1.3 1.7.3 1.7s-.1-.1-.2-.4c-.1-.3-.2-.7-.3-1.3-.1-1.1.3-2.7 1.4-4 1.1-1.3 2.5-2 3.5-2.4.9-.4 1.6-.5 1.6-.5z"/><path class="st2" d="M363.1 117.3c0 .1-.6.4-1.3 1.2-.7.8-1.6 2.1-2 3.7-.4 1.6-.1 3.1.2 4.2.3 1 .7 1.6.7 1.6s-.1-.1-.3-.4c-.2-.3-.4-.7-.6-1.2-.4-1-.7-2.6-.3-4.3.4-1.7 1.3-3 2.1-3.8.4-.4.8-.6 1-.8.3-.2.5-.2.5-.2zM385.4 152.3c0 .1-1.2 0-2.4-.8s-1.8-1.9-1.7-1.9c.1-.1.7.9 1.9 1.6 1.1.8 2.3 1 2.2 1.1zM385.9 153.7c0 .1-1.3.2-2.7-.6-1.4-.7-2.1-1.9-2-1.9.1-.1.9.9 2.2 1.6 1.2.8 2.5.8 2.5.9zM350.9 131.9s-.4 0-1-.3-1.3-.9-1.8-1.8-.7-1.8-.7-2.4c0-.6.2-1 .2-1 .1 0 0 .4.1 1s.3 1.4.7 2.2c.5.8 1.1 1.4 1.6 1.7.6.4 1 .5.9.6zM352 129.7c-.1.1-.9-.8-1.7-2.1-.8-1.3-1.1-2.5-1-2.5.1 0 .5 1.1 1.3 2.4.8 1.2 1.5 2.2 1.4 2.2z"/><path class="st19" d="M376.8 146.1c0 .1-.4.5-1.2.7-.7.3-1.3.3-1.3.2 0-.1.6-.3 1.2-.5.7-.3 1.3-.5 1.3-.4zM378 147.7c0 .1-.7.1-1.6 0-.9-.1-1.6-.2-1.6-.2 0-.1.7-.1 1.6 0 .9 0 1.6.1 1.6.2zM350 148.8c0 .1-.4.1-.9.2-.5 0-.9-.1-.9-.1 0-.1.4-.1.9-.2.5 0 .9 0 .9.1zM349.6 148c0 .1-.4-.1-.8-.3-.4-.2-.6-.5-.6-.5 0-.1.4.1.8.3.4.2.7.4.6.5zM366.6 133.3s-.5.2-1.3.5-1.9.9-3.1 1.4c-1.2.5-2.4.8-3.3.8-.4 0-.8-.1-1-.1-.2-.1-.4-.1-.4-.1 0-.1.5.1 1.4.1.9 0 2-.3 3.2-.8 1.2-.5 2.3-1.1 3.1-1.3.8-.4 1.4-.5 1.4-.5zM364.4 133.1c0 .1-1.4.8-3.3 1.1-1.9.3-3.5-.1-3.4-.1 0-.1 1.5.1 3.4-.2 1.9-.3 3.3-.9 3.3-.8zM367.8 159.8c-.1 0-.3-.6-1-.9-.7-.3-1.3 0-1.3-.1 0 0 .1-.2.4-.2.3-.1.7-.1 1.1 0 .4.2.7.5.8.7v.5zM369.2 159.4c-.1 0-.2-.7-.9-1.1-.7-.5-1.4-.3-1.4-.4 0 0 .2-.1.5-.1s.7.1 1.1.3c.4.3.6.6.7.9v.4z"/><path class="st7" d="M343.6 135.8s4.2-16.2 4.5-17c.3-.8 5.1-7.9 16.2-9.8l9.2.1s13 4.4 15.3 7.6c2.3 3.2 3.2 18.6 3.2 18.6l-25.6-5.9-17.5 4-5.3 2.4z"/><path class="st7" d="M367.4 107.2h-2.5c-1 0-2 .6-2.4 1.5-.3.6-.5 1.5-.6 2.6-.2 2.8-1.1 22.4-1.1 22.4l11.5-.4-.1-24.2 3.9.9-.1-.7c0-.4-.2-.8-.5-1.2-.4-.5-.9-.7-1.5-.8l-6.6-.1z"/><path class="st10" d="m344.8 137.4 1.1-4.1 20.3-6.8 25.4 10.3-.5 3.2s-23.7-8.1-46.3-2.6z"/><path class="st7" d="m349.9 130.2-.8.7-6.1 4.5s1.1.2 2.4-.3c3.9-1.8 12.6-3.4 21.9-3.2 7.8.2 16 2.1 21.2 3.4.8.2 1.5.7 2.2.9 1.8.5 3.1.4 3.1.4l-8.1-5c-2.6-2.8-6.2-4.5-10-4.6l-15.5-.5c-3.9-.3-7.6 1.1-10.3 3.7z"/><path class="st6" d="M344.8 135.6s.1-.1.4-.3c.3-.2.7-.5 1.3-.8 1.1-.6 2.9-1.2 5.1-1.7 4.5-1 10.8-1.5 17.7-.8 3.4.3 6.7.5 9.7 1 3 .5 5.6 1.1 7.8 1.8 1.1.3 2.1.7 2.9 1 .8.3 1.6.7 2 1.2.4.5.6 1 .6 1.4 0 .4-.1.5-.1.5-.1 0 .2-.8-.6-1.7-.4-.4-1.1-.8-2-1-.8-.3-1.8-.6-2.9-.9-2.2-.5-4.8-1.1-7.8-1.6-3-.4-6.2-.6-9.7-.9-6.9-.7-13.1-.2-17.6.6-2.2.4-4 1-5.1 1.5-1.1.3-1.7.8-1.7.7z"/><path class="st6" d="M342.9 134.4s.2-.1.5-.3c.4-.2.8-.5 1.4-.8 1.2-.7 3-1.7 5.1-3l1.2-1.5c.4-.5.8-1.1 1.4-1.5.5-.4 1.2-.8 1.9-1 .7-.2 1.5-.2 2.3-.2 3.2-.1 6.8 0 10.6.2 3.5.1 6.8.3 9.9.5.8 0 1.5.1 2.1.4.7.2 1.2.6 1.7 1.1.9 1 1.8 2 2.6 2.9 2.5 1.2 4.6 2.2 6.1 2.9.7.3 1.2.6 1.7.8.4.2.6.3.6.2l-.6-.3c-.4-.2-1-.5-1.6-.9-1.5-.7-3.5-1.8-6-3.1-.8-.9-1.6-1.9-2.5-2.9-.5-.5-1.1-.9-1.8-1.2-.7-.3-1.5-.4-2.2-.4-3.1-.2-6.4-.4-9.9-.6-3.7-.2-7.3-.2-10.6-.2-.8 0-1.6 0-2.4.2-.8.2-1.5.6-2 1.1-.6.5-1 1.1-1.4 1.6-.4.5-.8 1.1-1.2 1.5-2.1 1.3-3.8 2.3-5 3.1-.6.4-1 .6-1.4.9-.3.3-.5.4-.5.5zM372.2 124.4s.1-.3.1-.8 0-1.3.1-2.2V108.5c0-.5.4-.8.8-.8.8.2 1.5.3 2.1.4.5.1.8.1.8.1s-.3-.1-.8-.3c-.5-.1-1.2-.3-2.1-.6-.5-.1-1.2.4-1.2 1v5.7c0 2.8 0 5.4.1 7.2 0 .9 0 1.7.1 2.2-.1.7 0 1 0 1zM361.1 124c.1 0 .2-.9.4-2.4s.3-3.5.4-5.8c.1-2.3.2-4.3.2-5.8v-2.4c-.1 0-.2.9-.3 2.4-.1 1.5-.2 3.5-.3 5.8-.1 2.2-.2 4.2-.3 5.8-.1 1.5-.2 2.4-.1 2.4z"/><path class="st1" d="M255.3 165s1.4 11.2 3.7 20.7c2.4 9.5 10.2 24.8 10.5 32s-6.5 52.7-6.5 52.7l45 11.6 33 26.8s97.2 13.3 97.2 12.3 3.4-110.6 3.4-108.5-39.2 3.5-39.2 3.5L334 200.9 255.3 165z"/><path class="st6" d="M255.3 165c1.3.6 29.9 13.5 78.7 35.6 19.8 4.4 43 9.5 68.4 15.2h-.1c5.2-.2 10.6-.4 16-.7 5.5-.3 11-.7 16.6-1.3 1.4-.2 2.8-.3 4.2-.6.7-.1 1.4-.3 2-.6.1 0 .1-.1.1-.1h.5V214.2l-.3 8.7c-.2 5.8-.4 11.8-.6 17.8-.7 24-1.5 49.3-2.3 75.4l-.1 3.4V320.9s0 .2-.1.2c-.1.1-.1 0-.1.1h-.2c-.6 0-1.2 0-1.7-.1-2.3-.2-4.5-.4-6.7-.7-4.4-.5-8.9-1.1-13.3-1.6-8.8-1.1-17.4-2.3-26-3.4-17.1-2.3-33.6-4.5-49.4-6.7h-.2c-11.5-9.3-22.5-18.3-33-26.8h.1c-16.1-4.2-31.1-8-44.9-11.6h-.2v-.2c2.4-16.4 4.6-31.3 6-44.4.2-1.6.3-3.3.4-4.8 0-.8.1-1.6.1-2.4v-1.2c0-.4-.1-.8-.1-1.1-.5-3-1.4-5.8-2.4-8.5-1.9-5.3-3.9-10.1-5.5-14.5-.8-2.2-1.5-4.3-2.1-6.3-.6-2-1-3.9-1.3-5.7-.7-3.5-1.3-6.5-1.6-9-.4-2.4-.6-4.3-.8-5.6-.1-1-.1-1.6-.1-1.6s.1.6.3 1.9c.2 1.3.5 3.1.9 5.5s.9 5.4 1.7 9c.4 1.8.8 3.7 1.4 5.6.6 2 1.3 4.1 2.1 6.3 1.6 4.4 3.6 9.2 5.6 14.5.9 2.7 1.9 5.5 2.4 8.6 0 .4.1.8.1 1.2v1.2c0 .8-.1 1.6-.1 2.4-.1 1.6-.3 3.2-.4 4.9-1.4 13.2-3.5 28-5.9 44.5l-.1-.2c13.8 3.5 28.8 7.4 45 11.5 10.5 8.5 21.5 17.4 33 26.8l-.1-.1c15.8 2.1 32.4 4.3 49.4 6.6 8.5 1.1 17.2 2.2 26 3.4 4.4.5 8.8 1.1 13.3 1.6 2.2.2 4.5.5 6.7.7.5 0 1.1.1 1.6.1 0 0 0-.1.1 0l.1.1h-.2v-1.5l.1-3.4c.8-26.1 1.6-51.4 2.3-75.4.2-6 .4-11.9.6-17.8l.3-8.7V212.6c.2 0-.5 0 .5-.1v.1c0 .1 0 .2-.1.3-.1.1-.2.2-.3.2-.7.4-1.4.5-2.1.6-1.4.3-2.8.4-4.2.6-5.6.6-11.2.9-16.7 1.2-5.5.3-10.8.5-16.1.7-25.5-5.7-48.6-10.8-68.4-15.2-49-22.4-77.5-35.4-78.8-36z"/><path class="st18" d="M262.8 211.3c-1-1.3-2-2.5-3-3.8-.5-.7-1.1-1.4-1.1-2.3s.7-1.8 1.6-1.6c-.9-.4-1.5-1.5-1.3-2.5.2-1 1.1-1.8 2.1-1.9-.5-.8-1-1.5-1.1-2.4-.2-.9 0-1.9.7-2.5.7-.7 1.9-.8 2.9-.4s1.7 1.1 2.5 1.8c1.1 1.1 2.2 2.3 3.2 3.5.4.4.8.9.9 1.5.2.6 0 1.2-.5 1.5 2 .4 3.3 2.8 2.7 4.7.7 1.3-.7 2.9-2.1 3.1-1.5.2-2.9-.6-4.1-1.3 1.1.2 2 1.2 2 2.3s-.9 2.2-2 2.3-2.3-.6-2.6-1.7M441.4 234.3c1.2.1 2.4.9 2.8 2.1.4 1.1.2 2.5-.7 3.4 1 .5 1.2 1.9.9 2.9-.3 1.1-1 2-1.3 3.1-.5 1.7-.1 3.8-1.3 5.1-1 1.1-2.6 1.1-4.1.9-1.6-.2-3.2-.6-4.7-1-.7-.2-1.4-.4-1.9-.7-.6-.4-1-1-1-1.7s.7-1.4 1.3-1.3c-.9-.1-1.7-.8-1.8-1.7-.1-.9.5-1.8 1.3-2.1-.5-.7-.2-1.8.5-2.4.7-.6 1.6-.8 2.5-1 3-.9 5.6-3 7.3-5.6"/><path class="st6" d="M401.2 218.2v3.8c0 2.5 0 6 .1 10.4 0 8.8 0 20.9.1 34.3 0 13.4-.1 25.5-.1 34.3 0 4.4-.1 7.9-.1 10.4v3.8-3.8c0-2.5 0-6-.1-10.4 0-8.8 0-20.9-.1-34.3 0-13.4.1-25.5.1-34.3 0-4.4.1-7.9.1-10.4v-3.8zM333.7 205.9v.3c0 .2 0 .5.1.8.1.7.1 1.7.3 3 .2 2.6.5 6.3.9 10.9.8 9.3 1.8 22 3 36s2.4 26.7 3.2 36c.4 4.6.8 8.3 1 10.9.1 1.3.2 2.2.2 3 0 .3 0 .6.1.8v.3s0-.1-.1-.3c0-.2-.1-.5-.1-.8-.1-.7-.2-1.7-.3-3-.3-2.6-.7-6.3-1.2-10.9-.9-9.2-2.1-21.9-3.4-36-1.2-14.1-2.2-26.8-2.8-36-.3-4.6-.5-8.3-.7-10.9-.1-1.3-.1-2.3-.2-3v-1.1zM302.5 190c.1 0 1.4 20.1 2.8 44.8 1.4 24.8 2.4 44.9 2.3 44.9-.1 0-1.4-20.1-2.8-44.8-1.4-24.8-2.4-44.9-2.3-44.9z"/><path d="M320.1 345.1c.5-.6.6-1.4.6-2.2 0-.8-.1-1.5 0-2.3.2-1.6 1.1-2.9 1.8-4.3 1-2.2 1.2-4.8.6-7.2-.1-.6-.5-1.3-1.1-1.3 0 1.4-.1 2.9-.8 4.2-.6 1.3-1.7 2.4-2.4 3.6-.8 1.4-1.1 3.1-1.1 4.7s.2 3.3.5 4.9" style="opacity:.2"/><path class="st0" d="m315.8 345.1 3.1-.1c0-2.6.1-6.7.1-7 .1-.4 1.8-3.1 2.2-3.7.5-.6 1.5-2.6 1.5-2.6l-6-1 1.7-4.7-.8-.2s-3.9 2.2-4.6 4.5c-.7 2.2 1 4.5 1.3 5.3.3.7 1.7 3.1 1.5 8.7v.8"/><path class="st0" d="m320 331.3 1.3-4.7.6.1s1.2 2.9.5 5l-2.4-.4z"/><path class="st6" d="M315.3 335.6s.1 0 0 0h.3c.2 0 .4 0 .7.1.6.1 1.6.2 2.7.3v-.1c-.2.2-.3.4-.5.7-.1.3-.3.5-.3.8-.1.6-.1 1.2-.1 1.9v4.2c0 .2 0 .4-.1.6-.1.2-.2.3-.4.4-.3.2-.7.2-1-.1-.1-.1-.2-.3-.2-.5V338.6c0-.3-.1-.5-.1-.7-.1-.2-.1-.4-.2-.6-.1-.4-.3-.7-.4-.9-.1-.3-.2-.5-.3-.6 0-.1 0-.1-.1-.2 0 .1.1.1.1.2.1.1.1.3.3.6.1.3.2.6.4 1 .1.2.1.4.2.6.1.2.1.5.1.7v5.4c0 .2.1.4.2.5.3.3.7.3 1.1.1.2-.1.3-.3.4-.5.1-.2.1-.4.1-.6v-4.2c0-.7 0-1.3.1-1.9 0-.3.2-.6.3-.8.1-.2.3-.5.4-.7v-.1h-.1c-1.1-.1-2.1-.2-2.7-.2-.3 0-.6 0-.7-.1h-.2c.1 0 0 0 0 0z"/><path d="m316.1 333.4 2.7.5.9-1.4-2.8-.4z" class="st15"/><path class="st6" d="M319.3 332.2c-.1 0-.4.4-.7.9-.3.5-.6 1-.5 1.1.1 0 .4-.4.7-.9.3-.6.5-1.1.5-1.1zM318.5 332c-.1 0-.4.4-.7.9-.3.5-.6 1-.5 1.1.1 0 .4-.4.7-.9.3-.6.5-1.1.5-1.1zM317.7 331.8c-.1 0-.4.4-.7.9-.3.5-.6 1-.5 1.1.1 0 .4-.4.7-.9.4-.6.6-1.1.5-1.1zM322.8 331.7c-.2 0-.3 0-.4-.1-.3-.1-.6-.1-1-.2-.9-.2-2.1-.4-3.3-.6-1.3-.2-2.4-.4-3.4-.6-.4-.1-.7-.1-1-.2-.1 0-.2 0-.3-.1h-.1.4c.3 0 .6.1 1 .2.9.1 2 .3 3.4.5 1.3.2 2.5.4 3.3.6.4.1.8.2 1 .2.1.3.2.3.4.3zM330.1 339.9s-.3.4-.9 1c-.3.3-.6.7-1.1 1.1-.5.4-1 .8-1.6 1.2-2.5 1.7-6.7 2.8-11.3 2.3-4.6-.5-8.4-2.2-11.1-3.5-1.3-.7-2.4-1.3-3.1-1.7-.7-.4-1.1-.7-1.1-.7s.4.2 1.2.5c.7.4 1.8.9 3.2 1.5 2.7 1.2 6.5 2.8 11 3.3s8.6-.5 11.1-2.1c.6-.4 1.1-.8 1.7-1.1.5-.3.8-.7 1.1-1 .5-.6.8-.9.9-.8zM320.4 364.7s-.1.3-.7.6c-.5.3-1.5.4-2.5 0-1-.5-1.9-1.6-2.2-3-.4-1.4-.3-2.9-.3-4.5.1-3.2.2-6 .3-8.1.1-2.1.2-3.3.3-3.3.1 0 .1 1.3.1 3.3 0 2.1 0 4.9-.1 8.1 0 1.6-.1 3.1.2 4.4.3 1.3 1 2.3 1.9 2.7.9.5 1.7.4 2.2.2.5-.2.7-.4.8-.4z"/><path d="M388.1 183.9c-.3 8.9-4.5 18.4-2.6 27.4 4.7-8.2 5.8-18.6 2.6-27.4" class="st15"/></g><g id="Crane"><path class="st6" d="M552.3 198.4c-.9-2-3.2-2.8-5.2-1.9-.9.4-1.5 1.1-1.9 1.9l-6.1.5 6.1 12.1 3.9-7.1c.4 0 .8-.1 1.2-.3 2.1-.9 2.9-3.2 2-5.2zM517.2 180.9l4-1.7-9.6-2.4c-.6-.9-1.6-1.6-2.8-1.8-2.1-.3-4.1 1.2-4.4 3.3s1.2 4.1 3.3 4.4c1.1.1 2.1-.2 2.9-.8l9.1 5.6-2.5-6.6z"/><path class="st6" d="m593.8 299.9-65.7-122.5-.4-.7-10.4 4.7L567 311.9v.1l29.5 46.9.6-.1.7-.1.5-.1-6.1-9.7 3.6-9.2 9.4 3.5 4.2 13.8.5-.1.6-.1.6-.1-17.3-56.8zm4.3 19.8-11.8-3 6.8-13.4 5 16.4zm-12.8-3.3-14.5-3.7 21.4-9.8-6.9 13.5zm5.4-18.8-15.1-4.2 6.2-12.4 8.9 16.6zm-16.1-4.5-13.3-3.7 19.5-8.9-6.2 12.6zm5.4-15.5-13.9-4.8L571 261l9 16.6zm-14.9-5.2-12.2-4.3 17.3-7.9-5.1 12.2zm4-15.2-12.6-5.5 3.7-11.1 8.9 16.6zm-13.6-5.8-10.8-4.7 14.6-6.7-3.8 11.4zm2.9-14.1-11.4-6.1 2.5-10.5 8.9 16.6zm-11.2-20.9-9.9-6.7 1.3-9.4 8.6 16.1zm-10.9-7.3-8-5.4 9.3-4.2-1.3 9.6zm-8.4-28.7 8.4 15.7-8.7-7.3.3-8.4zm-1.6 19.5-6.1-16.1 6.4 5.4-.3 10.7zm.3-12-6.9-5.8 7.1-3.2-.2 9zm1 2.2 8.3 7-8.6 3.9.3-10.9zm.5 14.8 8 5.4-1.6 11.5-6.4-16.9zm9 6 9.6 6.5-11.3 5.1 1.7-11.6zm11.5 8.8-2.6 11-9.8-5.3 12.4-5.7zm-12.2 6.9 9.3 5.1-2.9 12-6.4-17.1zm10.3 5.6 10.4 5.6-13.2 6 2.8-11.6zm-2.3 15.5 10.8 4.7L551 265l-6.6-17.3zm11.7 5.1 12.1 5.2-16.3 7.4 4.2-12.6zm-3.6 16.3 12.2 4.3-5.6 13.3-6.6-17.6zm13.2 4.6 13.2 4.6-18.7 8.5 5.5-13.1zm-5.1 16.6 13.6 3.8-6.9 13.9-6.7-17.7zm14.6 4.1 14.8 4.1-21.8 9.9 7-14zm-5.3 19.2 14.8 3.8-5.6 10.9-9.2-14.7zm15.9 4 12.1 3.1-17.9 8.1 5.8-11.2zm5.7 30.2-7.9-12.6 11.2 4.1-3.3 8.5zm3.7-9.4-12.5-4.6-.3-.5 17.4-7.9.2.6-4.8 12.4zm.9.4 4.3-11.2 4.4 14.4-8.7-3.2z"/><path class="st6" d="M507.3 235.3v-15.6c0-10 0-24.5-.1-42.1v-.1h.1c5.7-.6 11.9-1.3 18.4-1.9h.1v.1c14 15.7 30.5 34.1 48 53.6 27.3 30.5 52 58.2 69.8 78.2 8.9 10 16.1 18.1 21.1 23.7 2.5 2.8 4.4 5 5.7 6.5.7.7 1.1 1.3 1.5 1.7.3.4.5.6.5.6s-.2-.2-.5-.6c-.3-.4-.8-.9-1.5-1.7-1.3-1.5-3.3-3.6-5.8-6.4-5-5.6-12.3-13.7-21.2-23.6-17.9-20-42.6-47.6-69.9-78.1-17.5-19.6-33.9-38-48-53.7h.1c-6.5.7-12.7 1.3-18.4 1.9l.1-.1c0 17.6 0 32-.1 42.1v14.6c.1.5.1.9.1.9z"/><path class="st6" d="M508.2 225.1H506c-.2 0-.4-.2-.4-.4v-5.5c0-.2.2-.4.4-.4h2.2c.2 0 .4.2.4.4v5.5c0 .3-.2.4-.4.4z"/><path class="st6" d="M512.1 226.1h-9.7c-.6 0-1.1-.5-1.1-1.1 0-.6.5-1.1 1.1-1.1h9.7c.6 0 1.1.5 1.1 1.1 0 .6-.5 1.1-1.1 1.1zM508 243.4V242l-1.4.6c-.1.5-.1 1 0 1.5 0 .1 0 .2.1.2.1.1.2.2.3.2.6.3 1.2.7 1.5 1.3.3.6.3 1.9-1 2.3-1.1.4-2.2-.7-2.2-1.2 0-.2 0-.6-.3-.6-.5 0-.7.6-.7 1 .1 2.1 2 2.8 2.9 2.8.6 0 1.1-.1 1.6-.4.8-.5 1.4-1.3 1.5-2.2.5-2.4-2.5-3.9-2.3-4.1z"/><path class="st0" d="m509.2 242.7 6.2-14.9c.6-1.3-.4-2.8-1.9-2.8h-12.4c-1.5 0-2.4 1.5-1.9 2.8l6.2 14.9c.7 1.7 3.1 1.7 3.8 0z"/><path class="st7" d="m501.8 226.1-1.6 1.6v.2l.5 1.3 3-3h-1.9zM507.7 226.1h-1.9l-4.5 4.4.6 1.4zM512 233.8l1.4-3.4-8.6 8.5.6 1.5zM510.6 237.2l-4.6 4.6.2.4c.1.4.4.6.7.7l2.3-2.3 1.4-3.4zM511.7 226.1h-2l-7.2 7.2.6 1.4zM514.5 227.2c0-.2-.1-.4-.2-.6-.2-.3-.4-.4-.7-.5l-10 10 .6 1.4 10.3-10.3z"/><path class="st6" d="M678.4 342.8H665v-3.6c0-1.5 1.2-2.6 2.6-2.6h8.2c1.5 0 2.6 1.2 2.6 2.6v3.6zM641.4 341.3h-2.2v-13.1c0-.6.1-1.2.3-1.7l1.1-3.4c0-.1.1-.1.1 0l1.3 2.3-.3 1.1c-.2.6-.3 1.2-.3 1.8v13z"/><path class="st7" d="M695.8 343.6c-.6-1.5-2-2.6-3.6-2.9H637v-9.2c0-1.2-1-2.2-2.2-2.2h-26.7c-1 0-1.8.6-2.1 1.5l-.8 2.5h3c.7 0 1.3.3 1.8.8.4.5.6 1.2.5 1.9l-2.9 13.5c-.2 1-1.2 1.8-2.2 1.8h-5.7c-.1.9 0 1.7.2 2.6l.3 1.4-14.6 2.9c-.2 0-.4.2-.5.5l-1.4 3.7c-.1.1-.1.3-.2.5-.3 1.2-.1 3.3.7 3.3h15.6l-.7.8-.9 2.7h99.4c-.1-8.9-.3-22.3-1.8-26.1zm-68.9-8.3-1.5 13.3c0 .2 0 .3-.1.5-.5 2.7-3 4.6-5.8 4.6h-6.6c-1.3 0-2.2-1.2-2-2.4l3.1-16c.2-1 1.1-1.8 2.2-1.8h8.9c.5 0 .9.2 1.3.6.4.2.6.7.5 1.2z"/><path class="st10" d="m651.3 376.3-42.3.6c-.3 0-.8-.8-.8-1.1v-4.7c0-.3.2-.5.5-.5h42.5c.3 0 .5.2.5.5v4.7c.1.3-.1.5-.4.5z"/><defs><path id="SVGID_1_" d="m626.9 335.3-1.5 13.3c0 .2 0 .3-.1.5-.5 2.7-3 4.6-5.8 4.6h-6.6c-1.3 0-2.2-1.2-2-2.4l3.1-16c.2-1 1.1-1.8 2.2-1.8h8.9c.5 0 .9.2 1.3.6.4.2.6.7.5 1.2z"/></defs><use xlink:href="#SVGID_1_" style="overflow:visible;fill:#e8505b"/><clipPath id="SVGID_2_"><use xlink:href="#SVGID_1_" style="overflow:visible"/></clipPath><g style="clip-path:url(#SVGID_2_)"><path class="st7" d="M697.6 370.8c0-.4 0-.9-.1-1.1h-99.1c-.1.2-.2.7-.1 1.1h99.3z"/><defs><path id="SVGID_3_" d="m606 330.9-6 18.5c-.5 1.5-.6 3.1-.2 4.6l2.6 11.8H637v-34.3c0-1.2-1-2.2-2.2-2.2h-26.7c-1 0-1.8.6-2.1 1.6z"/></defs><use xlink:href="#SVGID_3_" style="overflow:visible;fill:#e8505b"/><clipPath id="SVGID_4_"><use xlink:href="#SVGID_3_" style="overflow:visible"/></clipPath></g><path class="st10" d="M613 353.6c-1.3 0-2.2-1.2-2-2.4l3.1-16c.2-1 1.1-1.8 2.2-1.8h8.9c.5 0 .9.2 1.3.6.3.4.5.8.4 1.3l-1.5 13.3c0 .2 0 .3-.1.5-.5 2.7-3 4.6-5.8 4.6l-6.5-.1zM599.6 351.4c.1-.7.2-1.3.4-1.9l5.2-16.1h3c.7 0 1.3.3 1.8.8.4.5.6 1.2.5 1.9l-2.9 13.5c-.2 1-1.2 1.8-2.2 1.8h-5.8z"/><path class="st6" d="M697.6 372.3h-99.3c-.8 0-.8-2.8 0-2.8h99.3c.8 0 .8 2.8 0 2.8zM637.1 341.4v2.2c0 1.5-.1 3.5-.2 6.1-.1 2.6-.2 5.6-.3 9 0 .8-.1 1.7-.1 2.6 0 .9-.1 1.8-.6 2.7-.5.9-1.4 1.4-2.3 1.7-.9.3-1.9.3-2.9.3-7.8-.1-14.9-.3-20.1-.4-2.5-.1-4.6-.1-6.1-.2-.7 0-1.3 0-1.7-.1h-.5 2.2c1.5 0 3.5 0 6.1.1 5.2.1 12.2.2 20.1.3 1 0 1.9-.1 2.8-.3.9-.3 1.7-.8 2.1-1.6.4-.8.5-1.7.6-2.6 0-.9.1-1.8.1-2.6.1-3.4.3-6.4.4-9 .1-2.5.2-4.6.3-6.1 0-.7.1-1.3.1-1.7v-.4c0 .1 0 0 0 0z"/><path class="st6" d="M608.8 366c-.1 0-.2-2.9-.2-6.5s.1-6.5.2-6.5.2 2.9.2 6.5c-.1 3.5-.2 6.5-.2 6.5zM614 329.4s0 .3-.1.9c-.1.6-.2 1.5-.4 2.5-.4 2.1-1 5.1-1.7 8.3-.7 3.2-1.5 6.2-2 8.3-.3 1-.5 1.9-.7 2.5l-.3.9s0-.3.2-.9c.2-.6.4-1.5.6-2.5.5-2.1 1.2-5 1.9-8.3.7-3.2 1.3-6.2 1.8-8.3.2-1 .4-1.9.5-2.5.1-.6.1-.9.2-.9z"/><path class="st7" d="M625.5 358.9s.2 0 .5-.2c.1-.1.3-.3.4-.5.1-.2.1-.6-.1-.8-.2-.3-.5-.5-.9-.5h-4.3c-.5 0-.9.4-.9.8-.1.5.2.9.6 1 .1 0 .2.1.3.1h3.7c.4.1.7.1.7.1s-.2 0-.6.1H621.2c-.1 0-.3 0-.4-.1-.5-.2-.9-.7-.8-1.3 0-.6.6-1.1 1.2-1.1h4.3c.5 0 .9.3 1 .6.1.2.1.4.1.5 0 .2 0 .3-.1.5-.1.3-.3.5-.5.6-.2.1-.3.1-.4.1l-.1.1z"/><path class="st6" d="M691.1 344.6c0 .1-4.1.2-9.1.2s-9.1-.1-9.1-.2 4.1-.2 9.1-.2c5 .1 9.1.1 9.1.2zM691.1 346.4c0 .1-4.1.2-9.1.2s-9.1-.1-9.1-.2 4.1-.2 9.1-.2c5 .1 9.1.1 9.1.2zM691.1 348.2c0 .1-4.1.2-9.1.2s-9.1-.1-9.1-.2 4.1-.2 9.1-.2c5 .1 9.1.1 9.1.2zM691.1 350c0 .1-4.1.2-9.1.2s-9.1-.1-9.1-.2 4.1-.2 9.1-.2c5 .1 9.1.1 9.1.2zM691.1 351.8c0 .1-4.1.2-9.1.2s-9.1-.1-9.1-.2 4.1-.2 9.1-.2c5 .1 9.1.1 9.1.2zM691.1 353.6c0 .1-4.1.2-9.1.2s-9.1-.1-9.1-.2 4.1-.2 9.1-.2c5 .1 9.1.2 9.1.2zM691.1 355.4c0 .1-4.1.2-9.1.2s-9.1-.1-9.1-.2 4.1-.2 9.1-.2c5 .1 9.1.2 9.1.2zM588.1 398.3c-5.4 0-10-5.2-10-10.7 0-5.4 4.8-10 10.2-10l87.7-4c4.5-.2 8.9 2.1 11 6.1 1.1 2.1 1.7 4.8 1 8.1-2.3 10.6-11.1 10.5-14.5 10.2s-85.4.3-85.4.3z"/><circle transform="rotate(-20.842 588.184 387.564)" class="st10" cx="588.1" cy="387.5" r="8.2"/><circle transform="rotate(-45.001 675.438 385.89)" class="st10" cx="675.4" cy="385.9" r="10.6"/><path class="st10" d="M676.6 375.6h-.2c-.2 0-.4 0-.7.1-.6.1-1.5.1-2.6.3-2.2.2-5.5.5-9.5.8-8 .7-19.1 1.4-31.3 2-12.3.5-23.4.8-31.4.8H587.9h3.5c2.3 0 5.5-.1 9.5-.1 8-.1 19.1-.4 31.4-.9 12.2-.5 23.3-1.3 31.3-1.9 4-.3 7.2-.6 9.5-.7 1.1-.1 2-.2 2.6-.2h.7c.1-.2.2-.2.2-.2zM673.3 395.5c0 .1-19.1.2-42.6.2s-42.6-.1-42.6-.2 19.1-.2 42.6-.2 42.6.1 42.6.2z"/><path class="st7" d="M602.7 365.7s-.2-.8-.6-2.1c-.4-1.3-.9-3-1.4-5-.5-2-.9-3.8-1.1-5.1-.1-.7-.1-1.2-.1-1.6 0-.4.1-.6.1-.6.1 0 0 .8.2 2.1s.6 3.1 1.2 5c.5 2 1 3.7 1.3 5 .2.6.3 1.2.3 1.5.1.6.1.8.1.8z"/><path class="st3" d="M669.6 392.4s-.2-.1-.6-.4c-.4-.3-.9-.8-1.4-1.4-.5-.7-1-1.6-1.3-2.7-.3-1.1-.4-2.3-.2-3.6.3-1.3.8-2.4 1.5-3.3.7-.9 1.5-1.5 2.2-2 .7-.4 1.4-.7 1.8-.8.5-.1.7-.2.7-.1s-1 .2-2.4 1.1c-.7.5-1.4 1.1-2.1 2-.6.9-1.2 2-1.4 3.2-.2 1.2-.1 2.4.1 3.5.3 1 .7 1.9 1.2 2.6 1 1.3 2 1.9 1.9 1.9z"/><path class="st9" d="M623.6 342.7c0 .1-2 1.6-4.5 3.5-2.6 1.9-4.7 3.3-4.7 3.2 0-.1 2-1.6 4.5-3.5s4.7-3.3 4.7-3.2zM624.3 340.2c0 .1-1.7 1.4-4 3-2.2 1.6-4.1 2.8-4.1 2.7 0-.1 1.7-1.4 4-3 2.2-1.6 4.1-2.8 4.1-2.7zM607.2 344c0 .1-.9.8-2 1.6-1.2.8-2.1 1.4-2.2 1.3s.9-.8 2-1.6c1.2-.8 2.2-1.4 2.2-1.3zM608.4 341.7c.1.1-1 .9-2.3 2-1.3 1-2.4 1.8-2.5 1.7-.1-.1 1-.9 2.3-2 1.3-1 2.5-1.8 2.5-1.7z"/><path class="st7" d="M626.7 355.8c0 .1-1.5.2-3.3.2-1.8 0-3.3-.1-3.3-.2s1.5-.2 3.3-.2c1.8.1 3.3.2 3.3.2z"/><path class="st3" d="M586.5 394.5s-.3 0-.7-.2c-.5-.1-1.1-.4-1.8-.9s-1.5-1.2-2.1-2.1c-.6-.9-1.1-2.1-1.2-3.4-.1-1.3.2-2.5.7-3.6.5-1 1.1-1.8 1.8-2.4.6-.6 1.2-.9 1.6-1.1.4-.2.7-.3.7-.3 0 .1-1 .4-2.2 1.5-.6.6-1.2 1.4-1.6 2.3-.5 1-.7 2.2-.6 3.4.1 1.2.5 2.4 1.1 3.3.6.9 1.3 1.6 2 2.1 1.3 1.2 2.3 1.3 2.3 1.4z"/><path class="st9" d="M598.9 362.2c0 .1-3.2.2-7.1.2-3.9 0-7.1-.1-7.1-.2s3.2-.2 7.1-.2c4 0 7.1.1 7.1.2z"/><path class="st7" d="m535.4 189.8-5.3-11.4c-1.6-3.5-5.8-5.1-9.4-3.4-3.5 1.6-5.1 5.8-3.4 9.4l5.3 11.4c.1.2.4.3.6.2l12-5.6c.2-.2.3-.4.2-.6z"/></g><g id="Briefcase"><path class="st10" d="M588.9 482.8h-76.6v-53.3h70.8z"/><path class="st6" d="M503.7 429.5h76.6v53.2h-76.6z"/><path class="st10" d="M580.9 429.5s-.3.2-.8.4c-.5.3-1.3.7-2.2 1.2-1.9 1.1-4.6 2.7-7.9 4.7-3.3 2-7.2 4.6-11.9 6.9-4.6 2.3-10 4.5-16 5.3-3 .4-5.9.3-8.7-.2-2.8-.5-5.4-1.3-7.8-2.3-4.8-2-8.7-4.7-11.8-7-3.1-2.4-5.5-4.5-7.1-5.9-.8-.7-1.4-1.3-1.9-1.7l-.6-.6s.3.2.7.5c.5.4 1.1.9 1.9 1.6 1.7 1.4 4.1 3.5 7.2 5.8 3.1 2.3 7 4.9 11.8 6.9 4.7 2 10.4 3.2 16.3 2.4 5.9-.7 11.2-2.9 15.8-5.2 4.6-2.3 8.5-4.8 11.9-6.8 3.3-2 6.1-3.6 8-4.6 1-.5 1.7-.9 2.3-1.1.5-.2.8-.3.8-.3zM555.6 429.6c-.1.1-.5-1.8-2.3-4-.9-1.1-2.2-2.3-3.8-3.2-1.6-.9-3.7-1.5-5.9-1.5s-4.2.5-5.9 1.4c-1.7.9-2.9 2.1-3.9 3.2-1.8 2.2-2.2 4.1-2.3 4 0 0 0-.1.1-.3 0-.2.1-.5.3-.9.3-.8.8-1.8 1.7-3 .9-1.2 2.2-2.4 3.9-3.3 1.7-1 3.9-1.5 6.1-1.5 2.3 0 4.4.6 6.1 1.6 1.7 1 3 2.2 3.9 3.4.9 1.2 1.4 2.3 1.7 3 .1.4.2.7.3.9v.2z"/><path class="st10" d="M542.6 456.3s0-.4-.1-1c0-.7 0-1.6-.1-2.7 0-2.3-.1-5.4-.1-9l.3.3h-4.7l.3-.3v7c0 2.1 0 4-.1 5.7l-.2-.2c1.4 0 2.6.1 3.4.1.8 0 1.3 0 1.3.1 0 0-.4 0-1.2.1-.8 0-2 .1-3.5.1h-.2v-.2c0-1.6 0-3.5-.1-5.7v-7l.3-.3h5v.3c0 3.7-.1 6.9-.1 9.2 0 1-.1 1.9-.1 2.6 0 .6 0 .9-.1.9z"/></g></svg>