<?xml version="1.0" encoding="utf-8"?>
<!-- Generator: Adobe Illustrator 25.2.1, SVG Export Plug-In . SVG Version: 6.00 Build 0)  -->
<svg version="1.1" id="Capa_1" xmlns="http://www.w3.org/2000/svg" xmlns:xlink="http://www.w3.org/1999/xlink" x="0px" y="0px"
	 viewBox="0 0 1080 1080" enable-background="new 0 0 1080 1080" xml:space="preserve">
<g>
	<g>
		<g>
			<g>
				<g>
					<path fill="#C2CDCE" d="M325.463,296.415c-54.974,12.427-91.891,50.826-110.749,104.83
						c-57.663,165.121,145.682,229.765,202.009,191.925c105.614-70.951,60.626-72.467,264.86-25.462
						c123.992,28.537,269.158-74.661,105.45-247.408c-50.109-52.876-163.385-19.633-200.189-9.965
						c-40.038,10.517-73.978,29.325-127.655,14.531C405.512,310.072,381.521,283.743,325.463,296.415z"/>
				</g>
			</g>
		</g>
	</g>
</g>
<g>
	<g>
		<path fill="#77878D" d="M823.898,542.163c7.779,4.909-1.838,21.179-4.166,27.1c-1.982,5.044-4.284,9.964-6.893,14.715
			c-0.576,1.057-6.843,10.997-8.167,12.966c-0.144,0.226-0.237,0.344-0.247,0.347c-0.19-0.174-0.38-0.348-0.58-0.52
			c-10.595-9.709-21.744-18.745-32.535-28.119c-2.277-1.98-5.255-4.443-6.01-7.506c-0.79-3.218-0.075-7.008,3.955-6.476
			c2.439,0.323,4.68,1.512,6.861,2.67c-0.318-1.432-4.099-4.008-5.189-5.073c-1.976-1.939-4.128-3.796-5.978-5.849
			c-2.976-3.328-6.464-6.238-9.427-9.655c-2.729-3.144-8.356-11.6-4.169-15.523c2.541-2.38,7.236-0.071,9.956,0.935
			c4.524,1.687,8.532,4.504,12.452,7.265c-4.249-4.244-8.517-8.528-12.02-13.403c-3.515-4.883-6.26-10.434-7.095-16.387
			c-0.401-2.829-0.009-6.32,2.554-7.581c2.192-1.081,4.795,0.081,6.849,1.398c5.874,3.776,10.788,9.018,14.174,15.119
			c-5.68-11.47-11.494-23.495-11.32-36.296c0.021-1.561,0.153-3.157,0.798-4.586c0.647-1.419,1.921-2.642,3.465-2.844
			c2.499-0.328,4.536,1.933,5.874,4.068c6.414,10.151,7.997,21.666,11.144,32.974c0.235-5.661,1.145-11.299,2.713-16.748
			c1.32-4.616,3.389-9.419,7.528-11.851c0.507-0.296,1.085-0.565,1.667-0.478c0.895,0.136,1.458,1.017,1.843,1.828
			c2.607,5.463,2.677,11.769,2.289,17.81c-0.438,6.938-1.415,13.834-2.936,20.613c0.884-3.806,1.808-7.34,4.195-10.949
			c1.896-2.852,5.469-7.838,9.391-5.456c1.048,0.632,1.763,1.662,2.237,2.919c1.465,3.922,0.629,10.041,0.421,13.243
			c-0.4,6.476-1.642,12.858-2.98,19.196c-0.697,3.289-1.429,6.564-2.102,9.858c-0.541,2.627-0.497,6.476-1.618,8.875
			c1.262-2.69,2.58-5.468,4.843-7.397C817.92,541.426,821.393,540.568,823.898,542.163z"/>
	</g>
	<path fill="#9CAAAE" d="M796.266,556.196c-0.025,0.081-0.075,0.147-0.138,0.204c2.115,8.652,4.251,17.548,5.978,26.448
		c4.651-11.278,10.063-22.346,16.124-32.92c0.11-0.187,0.345-0.249,0.542-0.142c0.186,0.11,0.249,0.344,0.142,0.541
		c-6.241,10.885-11.802,22.299-16.537,33.93c0.804,4.209,1.572,8.448,2.297,12.686c-0.144,0.226-0.237,0.344-0.247,0.347
		c-0.19-0.174-0.38-0.348-0.58-0.52c-0.68-3.988-1.414-7.975-2.163-11.937c-0.058-0.02-0.109-0.052-0.141-0.098
		c-7.684-9.545-17.557-17.458-28.54-22.878c-0.205-0.095-0.28-0.338-0.183-0.532c0.097-0.195,0.328-0.278,0.532-0.183
		c10.73,5.302,20.405,12.957,28.039,22.178c-1.805-9.348-4.065-18.702-6.286-27.785c-3.33-5.605-8.911-9.618-14.824-13.569
		c-6.381-4.258-12.681-8.295-19.63-11.022c-0.201-0.074-0.296-0.313-0.222-0.513c0.085-0.203,0.312-0.296,0.513-0.222
		c7.02,2.754,13.36,6.826,19.776,11.098c5.327,3.551,10.378,7.174,13.827,11.953c-1.008-4.153-2.032-8.379-3.02-12.633
		c-8.262-14.582-18.536-27.908-30.547-39.616c-0.152-0.15-0.153-0.398-0.003-0.55c0.158-0.165,0.406-0.166,0.559-0.016
		c11.447,11.163,21.32,23.799,29.393,37.581c-0.518-2.284-1.023-4.561-1.508-6.841c-3.411-16.2-7.934-35.211-15.636-53.408
		c-0.087-0.197,0.012-0.435,0.208-0.522c0.199-0.077,0.435,0.012,0.522,0.209c7.729,18.267,12.26,37.32,15.681,53.56
		c0.361,1.725,0.743,3.445,1.127,5.175c-0.275-10.444-0.226-37.44,6.869-52.513c0.087-0.192,0.327-0.278,0.519-0.191
		c0.205,0.095,0.291,0.335,0.193,0.53c-8.614,18.306-6.729,54.557-6.629,56.318c1.081,4.677,2.212,9.333,3.334,13.904
		c0.053,0.237,0.116,0.471,0.17,0.719c3.914-14.745,8.047-29.917,16.515-42.993c0.12-0.189,0.367-0.244,0.546-0.121
		c0.189,0.12,0.233,0.37,0.121,0.546C804.362,525.673,800.241,541.189,796.266,556.196z"/>
</g>
<g>
	<g>
		<path fill="#4B657E" d="M899.691,499.216c3.294,6.422,7.1,14.185,12.063,19.517c4.642,4.988,10.649,2.306,15.92,0.063
			c2.609-1.11,9.206-3.244,12.1-2.107c3.152,1.238,0.821,5.07-1.335,6.698c-1.232,0.931-9.689,6.638-11.085,5.456
			c13.615,11.514,29.661,19.962,46.733,24.927c6.857,1.994,9.758-1.004,12.579-6.615c3.286-6.533,6.158-13.159,7.61-20.364
			c1.879-9.322,3.026-18.798,3.365-28.304c0.204-5.719-2.271-55.423-9.863-53.05c-1.432,0.448-2.304,1.853-3.095,3.128
			c-1.735,2.797-3.68,5.464-5.815,7.969c-0.712,0.836-1.479,1.678-2.486,2.115c-1.007,0.437-2.322,0.356-3.04-0.475
			c-0.582-0.673-0.642-1.647-0.57-2.533c0.565-6.927,7.256-12.532,6.765-19.465c-0.168-2.369-1.185-4.591-2.307-6.685
			c-4.194-7.829-10.02-14.641-15.799-21.385c-3.08-3.594-6.159-7.188-9.239-10.782c-0.369-0.431-0.749-0.871-1.242-1.153
			c-1.37-0.784-3.206-0.058-4.176,1.188c-0.97,1.246-1.288,2.864-1.579,4.416c-0.815,4.359-1.631,8.718-2.446,13.077
			c-0.253,1.353-0.533,2.765-1.395,3.838c-0.862,1.072-2.505,1.652-3.652,0.893c-0.721-0.476-1.074-1.339-1.315-2.167
			c-3.266-11.232,2.608-24.223-6.828-33.403c-3.951-3.844-9.305-5.86-14.595-7.41c-4.321-1.266-8.71-2.289-13.131-3.137
			c-2.928-0.561-8.613-2.652-11.483-1.206c-2.83,1.426-2.874,6.35-3.365,9.023c-2.634,14.343-5.021,28.675-4.512,43.344
			c0.029,0.824,0.086,1.706,0.593,2.355c0.554,0.708,1.499,0.954,2.374,1.158c5.506,1.284,11.126,3.142,16.758,3.228
			c1.969,0.03,3.62-0.206,5.239,1.366c2.127,2.066,1.245,3.808-1.688,3.796c-6.024-0.027-12.956-1.637-18.859-0.509
			c-0.781,0.149-1.601,0.406-2.09,1.033c-0.632,0.808-0.518,1.951-0.365,2.965c1.089,7.204,2.6,14.344,4.523,21.372
			c0.318,1.161,0.701,2.403,1.659,3.132c1.224,0.932,2.933,0.716,4.461,0.544c6.859-0.771,14.561-0.509,21.175,1.539
			c1.642,0.508,3.366,1.264,4.196,2.769c0.293,0.532,0.457,1.157,0.336,1.753c-0.234,1.15-1.407,1.837-2.505,2.251
			c-5.415,2.041-11.425,0.96-17.211,0.873c-1.318-0.02-2.739,0.048-3.781,0.855c-2.27,1.759-1.942,7.213-1.676,9.803
			C896.119,489.818,897.436,494.822,899.691,499.216z"/>
	</g>
	<path fill="#77878D" d="M900.026,410.868c6.436,2.504,12.949,4.799,19.508,6.957c-6.16-9.202-12.581-18.23-19.194-27.112
		c-0.953-1.281,1.198-2.519,2.142-1.252c6.859,9.212,13.504,18.593,19.874,28.155c1.145-3.099,1.111-6.717,1.402-9.918
		c0.401-4.408,0.802-8.816,1.203-13.223c0.143-1.577,2.624-1.592,2.48,0c-0.432,4.753-0.864,9.507-1.297,14.26
		c-0.344,3.783-0.382,7.89-2.166,11.331c6.937,10.534,13.505,21.306,19.583,32.36c1.989-9.11,3.314-18.342,3.893-27.653
		c0.099-1.585,2.579-1.596,2.48,0c-0.645,10.366-2.148,20.661-4.502,30.777c-0.015,0.064-0.061,0.103-0.085,0.16
		c0.513,0.953,1.046,1.895,1.552,2.852c3.66,6.934,7.11,13.986,10.332,21.14c0.271,0.089,0.542,0.18,0.814,0.268
		c2.896-8.073,5.793-16.147,8.689-24.221c0.535-1.491,2.932-0.848,2.391,0.659c-3.042,8.481-6.085,16.963-9.128,25.444
		c-0.207,0.579-0.781,1.008-1.417,0.875c3.873,8.823,7.378,17.806,10.454,26.932c0.311-0.72,0.618-1.627,0.732-1.874
		c0.755-1.645,1.495-3.298,2.219-4.957c1.716-3.931,3.339-7.902,4.873-11.907c2.869-7.487,5.415-15.093,7.663-22.79
		c0.446-1.529,2.84-0.878,2.391,0.659c-3.8,13.015-8.485,25.759-14.042,38.127c-0.688,1.532-1.364,3.075-2.107,4.582
		c-0.214,0.434-0.44,0.837-0.739,1.151c2.032,6.243,3.863,12.55,5.465,18.921c0.044-0.044,0.087-0.08,0.131-0.129
		c0.681-0.758,1.186-1.807,1.746-2.66c1.164-1.774,2.327-3.548,3.49-5.321c2.473-3.769,4.945-7.538,7.418-11.307
		c0.872-1.329,3.02-0.088,2.141,1.252c-2.836,4.323-5.672,8.647-8.509,12.97c-1.381,2.105-2.719,4.245-4.145,6.319
		c-0.472,0.687-0.974,1.284-1.583,1.697c0.12,0.499,0.248,0.996,0.366,1.496c3.542,15.118,5.769,30.541,6.468,46.056
		c0.072,1.595-2.408,1.592-2.48,0c-0.715-15.867-3.081-31.589-6.783-47.004c-1.897-0.15-3.902-0.938-5.692-1.483
		c-2.172-0.66-4.322-1.392-6.446-2.195c-4.35-1.645-8.58-3.583-12.679-5.776c-1.407-0.753-0.156-2.895,1.252-2.141
		c7.073,3.784,14.557,6.781,22.326,8.796c0.205,0.053,0.396,0.095,0.582,0.129c-1.619-6.458-3.473-12.858-5.537-19.191
		c-0.588-0.213-1.149-0.549-1.68-0.835c-1.629-0.879-3.254-1.766-4.874-2.661c-6.135-3.389-12.207-6.89-18.213-10.503
		c-6.8-4.09-13.509-8.325-20.135-12.691c-1.327-0.874-0.086-3.023,1.252-2.141c13.694,9.022,27.761,17.47,42.176,25.289
		c0.104,0.057,0.236,0.14,0.376,0.231c-0.95-2.803-1.932-5.596-2.962-8.37c-2.468-6.651-5.172-13.206-8.063-19.678
		c-9.665-3.249-19.018-7.357-27.942-12.3c-1.396-0.773-0.147-2.916,1.252-2.141c8.095,4.484,16.535,8.261,25.252,11.327
		c-3.556-7.752-7.367-15.386-11.436-22.886c-9.071-4.858-17.583-10.679-25.41-17.362c-1.215-1.038,0.546-2.785,1.753-1.753
		c6.645,5.674,13.81,10.688,21.385,15.023c-4.359-7.823-8.939-15.523-13.737-23.075c-1.571-2.473-3.182-4.92-4.794-7.367
		c-7.54-2.416-15.006-5.053-22.385-7.924C897.896,412.687,898.536,410.288,900.026,410.868z"/>
</g>
<g>
	<g>
		<path fill="#4B657E" d="M278.849,600.465c-4.372,3.341-9.535,7.437-14.699,9.481c-4.83,1.912-8.086-1.903-10.979-5.174
			c-1.432-1.619-5.274-5.25-7.638-5.416c-2.575-0.181-2.227,3.221-1.276,5.048c0.543,1.044,4.494,7.744,5.842,7.388
			c-13.144,3.464-26.957,4.02-40.335,1.843c-5.373-0.874-6.387-3.889-6.491-8.675c-0.121-5.573,0.074-11.076,1.435-16.511
			c1.761-7.033,4.077-13.931,6.959-20.585c1.733-4.003,19.725-37.404,24.173-33.283c0.839,0.778,0.979,2.03,1.105,3.168
			c0.277,2.494,0.743,4.967,1.391,7.391c0.216,0.809,0.468,1.64,1.018,2.271c0.55,0.631,1.481,1.006,2.248,0.669
			c0.621-0.273,0.982-0.923,1.222-1.557c1.881-4.953-0.888-11.004,1.722-15.615c0.892-1.576,2.32-2.771,3.778-3.845
			c5.452-4.014,11.695-6.794,17.882-9.542c3.297-1.465,6.595-2.929,9.892-4.394c0.396-0.176,0.801-0.354,1.233-0.387
			c1.2-0.091,2.226,1.011,2.485,2.186c0.259,1.175-0.052,2.393-0.361,3.557c-0.867,3.268-1.734,6.535-2.602,9.803
			c-0.269,1.014-0.539,2.078-0.297,3.099c0.242,1.021,1.182,1.958,2.221,1.812c0.652-0.092,1.178-0.569,1.615-1.061
			c5.928-6.661,6.143-17.527,15.646-20.754c3.979-1.351,8.325-0.984,12.474-0.318c3.389,0.545,6.745,1.279,10.066,2.144
			c2.199,0.573,6.797,0.997,8.299,2.933c1.481,1.909-0.103,5.313-0.641,7.313c-2.887,10.736-5.94,21.383-11.098,31.313
			c-0.29,0.557-0.618,1.146-1.18,1.426c-0.613,0.305-1.344,0.166-2.013,0.02c-4.21-0.921-8.688-1.483-12.593-3.27
			c-1.365-0.625-2.424-1.328-4.054-0.777c-2.141,0.725-2.105,2.214-0.082,3.166c4.155,1.956,9.455,3.119,13.148,5.83
			c0.488,0.358,0.968,0.804,1.1,1.396c0.17,0.763-0.283,1.513-0.72,2.161c-3.11,4.602-6.49,9.021-10.117,13.228
			c-0.599,0.695-1.27,1.424-2.168,1.612c-1.148,0.241-2.253-0.468-3.249-1.087c-4.469-2.778-9.855-5.122-15.079-5.88
			c-1.297-0.188-2.731-0.233-3.796,0.531c-0.376,0.27-0.694,0.647-0.805,1.096c-0.216,0.868,0.367,1.725,0.987,2.37
			c3.058,3.179,7.549,4.405,11.56,6.241c0.914,0.418,1.87,0.93,2.322,1.828c0.986,1.955-1.027,5.601-2.059,7.297
			C284.388,595.166,281.841,598.179,278.849,600.465z"/>
	</g>
	<path fill="#77878D" d="M307.57,539.545c-5.25-0.386-10.485-0.94-15.707-1.604c7.256-4.315,14.633-8.425,22.096-12.372
		c1.076-0.569,0.001-2.126-1.064-1.563c-7.74,4.093-15.388,8.372-22.906,12.867c0.227-2.508,1.436-4.988,2.285-7.286
		c1.168-3.165,2.337-6.331,3.505-9.496c0.418-1.132-1.285-1.955-1.707-0.812c-1.26,3.413-2.521,6.827-3.781,10.24
		c-1.003,2.717-2.323,5.556-2.222,8.509c-8.227,4.977-16.277,10.24-24.084,15.857c1.616-6.922,3.73-13.711,6.382-20.309
		c0.452-1.124-1.252-1.944-1.707-0.813c-2.953,7.346-5.292,14.925-6.987,22.659c-0.011,0.049,0.008,0.091,0.006,0.138
		c-0.665,0.488-1.341,0.962-2.003,1.455c-4.791,3.573-9.477,7.297-14.039,11.165c-0.216-0.028-0.432-0.054-0.648-0.082
		c0.652-6.506,1.304-13.012,1.956-19.519c0.121-1.202-1.74-1.545-1.862-0.33c-0.685,6.835-1.37,13.67-2.055,20.505
		c-0.047,0.467,0.207,0.95,0.689,1.067c-5.557,4.804-10.913,9.838-16.021,15.112c0.022-0.598,0.108-1.323,0.11-1.53
		c0.019-1.38,0.052-2.76,0.097-4.139c0.107-3.268,0.292-6.533,0.548-9.793c0.479-6.094,1.219-12.163,2.194-18.197
		c0.194-1.198-1.667-1.535-1.862-0.33c-1.65,10.203-2.601,20.51-2.829,30.844c-0.028,1.28-0.069,2.564-0.051,3.844
		c0.005,0.369,0.028,0.72,0.132,1.035c-3.444,3.631-6.772,7.372-9.962,11.233c-0.015-0.045-0.034-0.084-0.048-0.132
		c-0.22-0.745-0.224-1.633-0.33-2.403c-0.22-1.602-0.439-3.204-0.659-4.807c-0.467-3.405-0.934-6.809-1.401-10.214
		c-0.165-1.2-2.05-1.05-1.884,0.16c0.535,3.905,1.071,7.81,1.606,11.716c0.261,1.901,0.481,3.813,0.782,5.708
		c0.1,0.628,0.25,1.203,0.534,1.687c-0.246,0.304-0.497,0.604-0.742,0.91c-7.392,9.245-13.979,19.131-19.544,29.581
		c-0.572,1.075,1.136,1.885,1.707,0.812c5.692-10.687,12.473-20.733,20.072-30.13c1.355,0.518,2.993,0.633,4.404,0.845
		c1.712,0.257,3.431,0.458,5.156,0.601c3.533,0.293,7.08,0.345,10.62,0.179c1.216-0.057,1.056-1.942-0.16-1.884
		c-6.108,0.287-12.242-0.103-18.25-1.262c-0.159-0.031-0.304-0.065-0.443-0.102c3.231-3.914,6.604-7.712,10.1-11.395
		c0.474,0.046,0.971-0.001,1.43-0.024c1.41-0.071,2.819-0.149,4.227-0.234c5.333-0.322,10.66-0.742,15.978-1.261
		c6.02-0.587,12.027-1.303,18.018-2.137c1.2-0.167,1.05-2.052-0.16-1.884c-12.382,1.722-24.833,2.928-37.317,3.586
		c-0.09,0.005-0.208,0.019-0.335,0.036c1.572-1.618,3.164-3.219,4.782-4.791c3.878-3.769,7.887-7.395,11.998-10.902
		c7.717,0.931,15.501,1.168,23.263,0.69c1.214-0.075,1.057-1.959-0.16-1.884c-7.041,0.433-14.088,0.268-21.093-0.479
		c4.988-4.171,10.113-8.176,15.371-12.005c7.836-0.371,15.602-1.588,23.179-3.624c1.177-0.316,0.537-2.096-0.632-1.781
		c-6.433,1.728-13.008,2.831-19.642,3.333c5.564-3.956,11.24-7.755,17.017-11.381c1.892-1.188,3.803-2.344,5.714-3.5
		c5.982,0.808,11.985,1.439,18.005,1.881C308.44,541.495,308.786,539.634,307.57,539.545z"/>
</g>
<g>
	<g>
		<path fill="#263B4C" d="M859.537,498.79c0.003-9.412,7.663-17.067,17.075-17.063l91.925,0.032
			c9.412,0.003,17.067,7.663,17.063,17.075l-0.015,44.081l-126.063-0.044L859.537,498.79z M971.545,498.83
			c0-1.662-1.351-3.014-3.012-3.014l-91.925-0.032c-1.662-0.001-3.014,1.351-3.014,3.012l-0.01,30.025l97.951,0.034L971.545,498.83z
			"/>
	</g>
	<g>
		<path fill="#AEB5C2" d="M1039.344,534.139l-0.041,116.739c-0.006,9.268-7.529,16.78-16.797,16.774l-183.964-0.064l-16.03-0.006
			c-9.274,0-16.786-7.518-16.78-16.786l0.041-116.739c0.006-9.268,7.518-16.78,16.792-16.774l91.101,0.029l108.893,0.041
			c4.444,0,8.472,1.727,11.47,4.537C1037.301,524.947,1039.344,529.309,1039.344,534.139z"/>
	</g>
	<g>
		<polygon fill="#FDFAEE" points="957.316,582.927 933.973,582.918 933.982,558.503 912.25,558.495 912.241,582.911 
			888.899,582.903 888.892,602.757 912.234,602.765 912.226,627.181 933.958,627.189 933.966,602.773 957.31,602.781 		"/>
	</g>
	<g opacity="0.28">
		<path fill="#444548" d="M805.74,627.146l-0.008,23.649c-0.003,9.27,7.507,16.786,16.777,16.789l199.996,0.07
			c9.27,0.003,16.792-7.507,16.796-16.777l0.041-116.736c0.002-4.835-2.042-9.193-5.316-12.252
			C1034.026,521.89,906.591,651.379,805.74,627.146z"/>
	</g>
</g>
<g>
	<g>
		<path fill="#77878D" d="M242.546,503.307c14.384,8.708-2.641,38.77-6.695,49.669c-3.451,9.285-7.491,18.356-12.099,27.127
			c-1.017,1.952-12.133,20.33-14.487,23.974c-0.256,0.419-0.422,0.637-0.44,0.642c-0.353-0.311-0.706-0.623-1.078-0.93
			c-19.693-17.386-40.375-33.521-60.415-50.288c-4.228-3.542-9.754-7.941-11.239-13.515c-1.553-5.855-0.374-12.806,7.009-11.97
			c4.468,0.508,8.605,2.604,12.63,4.648c-0.629-2.606-7.627-7.185-9.656-9.096c-3.677-3.477-7.673-6.797-11.124-10.488
			c-5.551-5.981-12.025-11.182-17.556-17.326c-5.095-5.654-15.666-20.918-8.146-28.229c4.563-4.435,13.222-0.376,18.227,1.372
			c8.326,2.93,15.747,7.943,23.004,12.856c-7.909-7.613-15.856-15.297-22.423-24.087c-6.59-8.805-11.795-18.857-13.523-29.708
			c-0.828-5.157-0.23-11.551,4.411-13.941c3.969-2.05,8.766-0.014,12.564,2.323c10.864,6.701,20.022,16.116,26.416,27.151
			c-10.769-20.771-21.803-42.55-21.918-65.953c-0.015-2.853,0.173-5.776,1.302-8.409c1.134-2.615,3.421-4.894,6.236-5.315
			c4.557-0.684,8.355,3.379,10.873,7.235c12.066,18.335,15.35,39.326,21.486,59.887c0.237-10.354,1.709-20.689,4.391-30.701
			c2.257-8.481,5.874-17.33,13.357-21.915c0.917-0.558,1.964-1.069,3.029-0.93c1.64,0.219,2.698,1.809,3.43,3.279
			c4.949,9.896,5.292,21.419,4.786,32.473c-0.565,12.695-2.116,25.331-4.668,37.772c1.487-6.986,3.055-13.475,7.295-20.154
			c3.368-5.277,9.729-14.511,16.978-10.29c1.937,1.12,3.279,2.978,4.187,5.258c2.81,7.118,1.49,18.329,1.218,24.188
			c-0.511,11.849-2.565,23.554-4.796,35.184c-1.162,6.034-2.389,12.045-3.508,18.088c-0.9,4.82-0.689,11.852-2.657,16.276
			c2.215-4.959,4.529-10.081,8.6-13.683C231.595,502.162,237.915,500.477,242.546,503.307z"/>
	</g>
	<path fill="#9CAAAE" d="M192.52,529.89c-0.043,0.149-0.133,0.271-0.246,0.377c4.158,15.741,8.365,31.926,11.822,48.134
		c8.119-20.769,17.633-41.181,28.352-60.712c0.194-0.345,0.621-0.468,0.985-0.277c0.344,0.194,0.467,0.621,0.277,0.984
		c-11.037,20.104-20.813,41.155-29.073,62.573c1.613,7.665,3.16,15.387,4.628,23.107c-0.256,0.419-0.422,0.637-0.44,0.642
		c-0.353-0.311-0.706-0.623-1.078-0.93c-1.378-7.266-2.854-14.528-4.358-21.744c-0.107-0.034-0.201-0.09-0.261-0.175
		c-14.367-17.184-32.679-31.312-52.936-40.844c-0.378-0.167-0.524-0.608-0.353-0.966c0.172-0.359,0.589-0.519,0.967-0.353
		c19.791,9.327,37.732,22.989,51.997,39.583c-3.615-17.023-8.063-34.043-12.43-50.567c-6.276-10.13-16.612-17.277-27.552-24.297
		c-11.806-7.565-23.457-14.731-36.249-19.479c-0.369-0.129-0.552-0.561-0.423-0.93c0.148-0.373,0.561-0.552,0.929-0.423
		c12.923,4.795,24.648,12.023,36.52,19.612c9.857,6.31,19.211,12.76,25.677,21.377c-1.983-7.556-3.999-15.244-5.947-22.987
		c-15.594-26.371-34.823-50.377-57.172-71.367c-0.283-0.269-0.294-0.723-0.025-1.006c0.283-0.307,0.737-0.317,1.02-0.048
		c21.3,20.014,39.772,42.774,54.994,67.687c-1.024-4.157-2.024-8.301-2.988-12.452c-6.784-29.491-15.693-64.083-30.388-97.08
		c-0.166-0.357,0.007-0.796,0.363-0.961c0.361-0.147,0.795,0.007,0.96,0.363c14.745,33.123,23.672,67.791,30.474,97.356
		c0.719,3.14,1.475,6.271,2.235,9.42c-0.857-19.078-1.682-68.419,10.773-96.207c0.152-0.354,0.588-0.519,0.943-0.367
		c0.378,0.167,0.542,0.603,0.371,0.962c-15.122,33.749-10.448,99.938-10.207,103.153c2.135,8.511,4.359,16.982,6.565,25.298
		c0.104,0.431,0.227,0.858,0.335,1.308c6.654-27.082,13.693-54.95,28.725-79.134c0.213-0.349,0.663-0.458,0.993-0.24
		c0.349,0.213,0.439,0.668,0.24,0.993C206.283,473.832,199.276,502.328,192.52,529.89z"/>
</g>
<g>
	<g>
		<g>
			<g>
				<polygon fill="#263B4C" points="361.544,861.796 333.201,861.796 286.328,886.87 366.924,885.909 				"/>
				<g>
					<polygon fill="#FFFFFF" points="367.204,896.516 366.924,885.909 286.328,886.87 286.609,897.476 					"/>
				</g>
			</g>
			<polygon fill="#F4A181" points="334.471,821.837 363.36,821.837 361.544,861.796 332.655,861.796 			"/>
		</g>
		<g>
			<g>
				<polygon fill="#263B4C" points="449.616,861.796 421.273,861.796 374.401,886.87 454.996,885.909 				"/>
				<g>
					<polygon fill="#FFFFFF" points="455.276,896.516 454.996,885.909 374.401,886.87 374.681,897.476 					"/>
				</g>
			</g>
			<polygon fill="#F4A181" points="416.869,821.837 445.758,821.837 449.616,861.796 420.727,861.796 			"/>
		</g>
		<g>
			<path fill="#4D6264" d="M440.339,584.328c2.217-48.444-6.269-73.66-9.868-89.27l-0.535-7.137l-1.312-0.302
				c-0.245-0.904-0.39-1.4-0.39-1.4l-0.414,1.215l-48.434-11.151l-50.839-3.352l-2.114,35.34
				c-0.349,10.387-1.131,68.514-0.483,78.884l0.206,260.625h51.235l2.11-268.739l28.912,268.739l48.437-1.136L440.339,584.328z"/>
			<g>
				<polygon fill="#394C4D" points="326.008,531.1 326.008,539.309 439.863,545.351 438.185,532.854 				"/>
				<g>
					<path fill="#2B2C2C" d="M379.386,579.418c-0.019,0-0.04-0.002-0.062-0.005l-23.633-3.92c-0.206-0.034-0.344-0.228-0.311-0.433
						c0.035-0.204,0.216-0.339,0.434-0.311l23.633,3.92c0.205,0.034,0.343,0.228,0.31,0.433
						C379.726,579.288,379.567,579.418,379.386,579.418z"/>
				</g>
			</g>
		</g>
	</g>
	<g>
		<g>
			<path fill="#9CAAAE" d="M391.319,357.244l28.038,1.333c3.799,0,11.102,5.255,10.708,12.619
				c-0.885,16.519,10.854,163.482,10.854,163.482l-115.908-1.714l2.251-156.598c0.14-5.132,1.379-13.805,6.394-14.903l28.185-4.5
				L391.319,357.244z"/>
			<polygon fill="#F4A181" points="400.374,357.52 385.1,356.572 361.84,356.964 353.748,358.256 360.844,384.151 			"/>
			<g>
				
					<rect x="390.739" y="389.557" transform="matrix(0.9987 0.0512 -0.0512 0.9987 20.9797 -19.5854)" fill="#FFFFFF" width="4.107" height="20.339"/>
				
					<rect x="390.739" y="389.557" transform="matrix(-0.0512 0.9987 -0.9987 -0.0512 812.1124 27.9237)" fill="#FFFFFF" width="4.107" height="20.339"/>
			</g>
		</g>
		<g>
			<path fill="#F4A181" d="M299.871,433.058l-7.336,31.072c-2.805,12.384,7.717,20.4,17.395,21.75l0,0
				c8.871,1.238,17.169-4.655,18.924-13.438l-0.345-37.204L299.871,433.058z"/>
			<g>
				<path fill="#9CAAAE" d="M333.655,361.464c-0.663,0.165-26.503-0.369-38.238,77.315l32.957,7.549L333.655,361.464z"/>
				<g>
					<path fill="#2B2C2C" d="M328.509,443.565c-0.001,0-0.003,0-0.005,0c-0.19-0.003-0.343-0.16-0.34-0.351l0.539-37.668
						c0.003-0.189,0.157-0.34,0.346-0.34c0.001,0,0.003,0,0.006,0c0.19,0.003,0.343,0.16,0.34,0.351l-0.539,37.668
						C328.852,443.413,328.698,443.565,328.509,443.565z"/>
				</g>
			</g>
			<g>
				<path fill="#F4A181" d="M314.031,485.934c0,0,45.736-11.779,84.104-29.528l-9.859-7.66l-70.117,9.062L314.031,485.934z"/>
				<path fill="#F4A181" d="M384.077,450.923c0,0,24.86-30.444,37.564,0l2.867,6.307l-15.769,7.784l-19.043-4.081L384.077,450.923z"
					/>
				<path fill="#F4A181" d="M350.929,454.117c-0.909,0.118-11.834-16.856-27.723-8.476c-15.888,8.38-6.104,19.373-6.104,19.373
					L350.929,454.117z"/>
				<g>
					<path fill="#2B2C2C" d="M307.905,460.27c-0.138,0-0.267-0.083-0.321-0.218c-0.07-0.178,0.015-0.379,0.193-0.449
						c16.764-6.665,42.011-6.108,42.265-6.101c0.192,0.006,0.342,0.164,0.338,0.354c-0.004,0.191-0.15,0.34-0.354,0.338
						c-0.252-0.01-25.364-0.56-41.992,6.052C307.991,460.262,307.948,460.27,307.905,460.27z"/>
				</g>
				<g>
					<path fill="#2B2C2C" d="M314.063,458.132c-0.019,0-0.039-0.001-0.059-0.006c-0.187-0.032-0.314-0.211-0.281-0.4
						c1.712-9.883,9.97-12.728,10.052-12.755c0.178-0.063,0.376,0.039,0.437,0.219c0.061,0.181-0.037,0.376-0.219,0.437
						c-0.078,0.026-7.949,2.755-9.589,12.218C314.374,458.014,314.228,458.132,314.063,458.132z"/>
				</g>
			</g>
		</g>
		<g>
			<g>
				<path fill="#9CAAAE" d="M423.807,360.195c0,0,30.108,2.049,42.524,81.751l-44.69,8.977L423.807,360.195z"/>
				<g>
					<path fill="#2B2C2C" d="M421.641,451.269c-0.16,0-0.303-0.11-0.338-0.273l-8.593-39.896c-0.041-0.187,0.079-0.371,0.265-0.411
						c0.192-0.041,0.371,0.079,0.411,0.265l8.593,39.896c0.041,0.187-0.079,0.371-0.265,0.411
						C421.689,451.266,421.664,451.269,421.641,451.269z"/>
				</g>
			</g>
			<g>
				<path fill="#F4A181" d="M421.641,450.923v3.726l-28.604,0.879l-30.38,15.224c0,0,46.395,16.993,78.401,14.25
					c10.389-0.89,18.261-9.413,18.508-19.532c0.037-1.529-0.179-3.054-0.488-4.552l-3.451-16.822L421.641,450.923z"/>
				<g>
					<path fill="#2B2C2C" d="M362.658,471.098c-0.127,0-0.248-0.07-0.309-0.192c-0.087-0.169-0.017-0.378,0.154-0.463l30.379-15.225
						c0.039-0.021,0.083-0.033,0.127-0.036c0.172-0.014,17.466-1.446,28.537-4.592c0.182-0.057,0.375,0.054,0.427,0.237
						c0.052,0.185-0.054,0.376-0.237,0.427c-10.786,3.066-27.405,4.511-28.604,4.611l-30.32,15.194
						C362.762,471.087,362.71,471.098,362.658,471.098z"/>
				</g>
			</g>
		</g>
	</g>
	<g>
		<path fill="#2B2C2C" d="M386.688,281.894c0,0,11.647-3.009,16.155,9.272c5.863,15.973-10.627,34.114-10.627,34.114
			L386.688,281.894z"/>
		<path fill="#2B2C2C" d="M385.771,289.036c0,0,5.718-9.48-3.896-14.838c-9.614-5.358-14.52,0.246-23.561,3.048
			c-9.041,2.802-19.088-4.368-25.323,6.338c-7.275,12.492,10.932,34.724,10.932,34.724L385.771,289.036z"/>
		<path fill="#F4A181" d="M349.49,321.262c-0.951,4.21-5.135,6.853-9.345,5.902c-4.21-0.951-6.853-5.135-5.902-9.345
			c0.951-4.21,5.135-6.853,9.345-5.902C347.798,312.867,350.441,317.051,349.49,321.262z"/>
		<polygon fill="#F4A181" points="361.486,338.66 360.464,368.729 386.311,368.033 379.62,318.308 		"/>
		<polygon fill="#EB7D70" points="360.884,356.355 377.862,336.732 361.412,340.066 		"/>
		<path fill="#F4A181" d="M350.66,286.164c-7.896,1.056-11.742,9.421-12.524,16.928c-0.9,8.644-0.646,22.393,2.041,28.956
			c4.154,10.146,13.868,15.602,27.208,11.985c0,0,14.49-1.849,15.928-25.31C385.027,290.785,367.461,283.917,350.66,286.164z"/>
		<g>
			<path fill="#2B2C2C" d="M342.734,314.751c-0.182,0.971-1.116,1.61-2.087,1.429c-0.971-0.182-1.611-1.116-1.429-2.087
				c0.182-0.971,1.116-1.61,2.086-1.429C342.275,312.846,342.915,313.78,342.734,314.751z"/>
			<g>
				<path fill="#2B2C2C" d="M357.829,314.751c-0.182,0.971-1.116,1.61-2.087,1.429c-0.971-0.182-1.61-1.116-1.429-2.087
					c0.181-0.971,1.116-1.61,2.086-1.429C357.371,312.846,358.011,313.78,357.829,314.751z"/>
			</g>
			<g>
				<path fill="#2B2C2C" d="M347.097,325.951c-0.027,0-0.056-0.004-0.083-0.012l-3.174-0.944c-0.154-0.045-0.241-0.206-0.196-0.359
					l1.587-5.474c0.045-0.154,0.211-0.239,0.359-0.198c0.155,0.044,0.243,0.206,0.198,0.36l-1.507,5.197l2.897,0.862
					c0.154,0.046,0.241,0.207,0.196,0.361C347.338,325.869,347.222,325.951,347.097,325.951z"/>
			</g>
			<path fill="#2B2C2C" d="M344.302,301.949c0,0,0.705,2.121-1.937,2.556c-2.006,0.33-3.28,0.507-4.403,0.994
				c-0.638,0.276-1.381,0.052-1.76-0.527l0,0c-0.307-0.468-0.317-1.072-0.011-1.54c0.621-0.948,1.95-2.42,4.387-2.855
				C343.707,300.018,344.302,301.949,344.302,301.949z"/>
			<path fill="#2B2C2C" d="M353.555,302.04c0,0-0.809,2.137,2.598,2.51c2.587,0.283,5.679,1.258,7.141,1.718
				c0.83,0.261,1.773,0.02,2.234-0.568l0,0c0.372-0.475,0.358-1.079-0.056-1.54c-0.839-0.934-4.06-3.202-7.203-3.58
				C354.233,300.095,353.555,302.04,353.555,302.04z"/>
			
				<path fill="none" stroke="#1B080B" stroke-width="0.4801" stroke-linecap="round" stroke-linejoin="round" stroke-miterlimit="10" d="
				M346.836,330.424c0,0,5.486,1.144,8.774-2.184"/>
			<g>
				<g>
					<g>
						<path fill="#FFFFFF" d="M358.591,325.648c-5.467,0-9.915-4.447-9.915-9.915s4.447-9.915,9.915-9.915s9.915,4.447,9.915,9.915
							S364.058,325.648,358.591,325.648z M358.591,307.029c-4.8,0-8.705,3.905-8.705,8.705s3.905,8.705,8.705,8.705
							c4.8,0,8.705-3.905,8.705-8.705S363.391,307.029,358.591,307.029z"/>
					</g>
					<g>
						<path fill="#FFFFFF" d="M337.452,325.152c-4.028,0-7.306-4.225-7.306-9.418s3.278-9.418,7.306-9.418
							c4.028,0,7.305,4.225,7.305,9.418S341.48,325.152,337.452,325.152z M337.452,307.525c-3.362,0-6.096,3.682-6.096,8.208
							s2.734,8.208,6.096,8.208c3.36,0,6.095-3.682,6.095-8.208S340.812,307.525,337.452,307.525z"/>
					</g>
					<g>
						<path fill="#FFFFFF" d="M348.898,316.201c-2.032-1.671-4.332-0.279-4.43-0.219l-0.643-1.026c1.07-0.674,3.67-1.478,5.84,0.31
							L348.898,316.201z"/>
					</g>
				</g>
				<g>
					<rect x="367.901" y="314.598" fill="#FFFFFF" width="12.95" height="1.21"/>
				</g>
			</g>
		</g>
		<path fill="#2B2C2C" d="M380.324,323.641l5.966-21.786c-2.547-5.754-6.396-4.884-6.396-4.884c0.076-0.384-5.222-2.998-5.15-3.403
			c-21.272-16.269-32.877-1.565-32.877-1.565s6.274-15.622,32.23-13.564c18.29,1.45,24.238,7.609,23.5,19.547
			c-1.473,23.807-4.347,26.019-15.064,41.962L380.324,323.641z"/>
		<path fill="#2B2C2C" d="M382.737,290.574c0,0-10.597,8.338-4.817,19.504l1.866,10.022l12.746-13.716l-3.2-15.16L382.737,290.574z"
			/>
		<path fill="#2B2C2C" d="M344.387,289.675c0,0,6.936-4.834,11.684,1.261c9.518,12.216,27.402,13.487,29.29-0.821
			c1.887-14.309-21.027-9.952-21.027-9.952S348.681,284.03,344.387,289.675z"/>
		<g>
			<path fill="#F4A181" d="M394.143,322.199c-1.044,4.624-5.639,7.526-10.264,6.482c-4.624-1.044-7.526-5.64-6.482-10.264
				c1.044-4.624,5.639-7.526,10.264-6.482C392.286,312.98,395.188,317.575,394.143,322.199z"/>
			<g>
				<path fill="#2B2C2C" d="M381.874,323.497c-0.015,0-0.032-0.001-0.047-0.004c-0.158-0.027-0.266-0.176-0.239-0.334
					c0.376-2.256,1.317-3.913,2.8-4.926c2.288-1.561,5.009-1.013,5.123-0.989c0.156,0.033,0.256,0.187,0.223,0.344
					c-0.032,0.157-0.188,0.255-0.343,0.225c-0.027-0.005-2.599-0.521-4.68,0.903c-1.345,0.92-2.204,2.447-2.552,4.539
					C382.136,323.396,382.014,323.497,381.874,323.497z"/>
			</g>
		</g>
	</g>
</g>
<g>
	<g>
		<g>
			<g>
				<g>
					<path fill="#2B2C2C" d="M716.514,338.021c0-2.18-2.229-5.982-2.229-5.982s-4.803-6.121-6.9-16.62
						c-1.743-8.726,5.227-26.93-0.589-36.134c-6.762-10.706-15.625-8.373-15.625-8.373c-20.886-9.474-32.972,3.496-36.213,8.838
						c-5.336,8.803-5.842,16.188-6.441,27.615c-0.578,11.042-1.913,21.538-3.445,30.655H716.514z"/>
				</g>
			</g>
		</g>
	</g>
	<g>
		<path fill="#F4A181" d="M742.679,403.156c0,0-0.794,23.41,2.102,47.678l18.886,77.082h-11.625c0,0-26.713-55.16-30.682-76.317
			c-1.923-10.248-3.723-50.557-3.723-50.557L742.679,403.156z"/>
	</g>
	<g>
		<g>
			<path fill="#EB7D70" d="M736.354,452.986c2.511-0.526,5.023-1.052,7.534-1.579c0.749-0.157,0.432-1.304-0.316-1.147
				c-2.511,0.526-5.022,1.052-7.534,1.579C735.289,451.996,735.606,453.143,736.354,452.986L736.354,452.986z"/>
		</g>
	</g>
	<g>
		<g>
			<g>
				<g>
					<g>
						<path fill="#9CAAAE" d="M774.393,558.826c0,0,2.25,8.252,1.651,11.266c-0.599,3.015-0.743,9.629-2.327,10.495
							c-1.585,0.865-2.269-14.883-2.269-14.883L774.393,558.826z"/>
					</g>
				</g>
			</g>
		</g>
		<g>
			<g>
				<path fill="#FFFFFF" d="M755.401,539.17c0,0-1.726,6.977-0.73,12.171c0.996,5.194-0.313,14.434,3.094,17.512
					c3.408,3.078,2.452-3.328,2.551-5.725c0.099-2.396,1.241-5.815,2.475-5.556c1.234,0.259,3.028,3.773,4.337,8.751
					c1.309,4.978,1.999,15.899,4.015,18.02c2.015,2.121,1.831-5.234,2.382-9.233c0.552-4,0.524-6.727,1.306-13.978
					c0.578-5.359-6.063-17.723-9.522-23.592C765.309,537.54,762.431,533.751,755.401,539.17z"/>
			</g>
		</g>
		<g>
			<polygon fill="#FFFFFF" points="754.476,545.076 743.295,519.88 764.614,515.079 768.046,542.407 			"/>
		</g>
	</g>
	<g>
		<g>
			<g>
				<g>
					<g>
						<polygon fill="#F4A181" points="779.537,838.247 778.469,881.054 763.583,881.312 753.927,838.247 						"/>
					</g>
				</g>
			</g>
			<g>
				<g>
					<g>
						<g>
							<g>
								<g>
									<g>
										<g>
											<g>
												<g>
													<g>
														<path fill="#FFFFFF" d="M764.417,904.336h53.252c-0.612-3.167-1.424-5.287-2.413-6.881
															c-1.966-3.165-4.628-4.281-7.52-4.445c-4.399-0.25-18.302-9.416-18.302-9.416s-4.042-3.449-4.345-8.794
															c-0.114-2.004-1.75-2.302-3.162-2.497c-2.874-0.397-5.151,1.011-5.55,3.884l-3.766,2.379l-5.879-2.973
															c0,0-7.078-1.605-6.732,1.692c0.197,1.885,2.583,11.466,3.334,18.119
															C763.897,900.395,764.417,904.336,764.417,904.336L764.417,904.336L764.417,904.336z"/>
													</g>
												</g>
											</g>
										</g>
									</g>
									<g>
										<g>
											<g>
												<path fill="#263B4C" d="M763.644,904.336h55.32c-0.961-2.808-1.557-5.214-3.708-6.881l0,0
													c-3.317-0.976-6.918,0.133-6.918,0.133s-8.15,3.784-13.281,2.776c-4.214-0.827-6.557-5.73-10.766-6.586
													c-4.206-0.852-8.704-0.18-12.476,1.868l-8.482-0.242c0,0-1.014,1.003-0.445,5.462
													C763.021,901.903,763.245,902.66,763.644,904.336z"/>
											</g>
										</g>
									</g>
								</g>
							</g>
						</g>
					</g>
				</g>
			</g>
		</g>
		<g>
			<g>
				<g>
					<g>
						<polygon fill="#F4A181" points="682.82,838.247 683.164,883.234 668.294,883.977 657.075,840.61 						"/>
					</g>
				</g>
			</g>
			<g>
				<g>
					<path fill="#FFFFFF" d="M655.555,904.533h33.468c0,0,0.972-1.875-0.615-7.07c-0.322-1.055-0.692-2.366-1.086-3.787
						c-1.532-5.603-3.337-12.925-3.337-12.925s-5.568-10.91-12.082-7.933c-5.712,2.611-4.358,9.075-4.358,9.075
						s-0.561,4.385-4.891,8.252c-3.179,2.836-6.337,4.915-7.191,9.003C655.154,900.632,655.147,902.386,655.555,904.533z"/>
				</g>
			</g>
			<g>
				<g>
					<path fill="#FFFFFF" d="M683.164,873.773c0,0,2.724,0.028,3.427,3.921c0.703,3.892-0.643,10.805-0.643,10.805h-17.08
						c0,0-6.892-9.524-5.907-12.227c0.985-2.703,2.694-2.499,2.694-2.499S678.611,880.589,683.164,873.773z"/>
				</g>
			</g>
			<g>
				<g>
					<path fill="#263B4C" d="M655.555,904.533h33.468c0,0,0.972-1.875-0.615-7.07c-0.322-1.055-0.692-2.366-1.086-3.787
						c-1.119-0.183-2.646,0.01-3.43,2.051c-1.326,3.458-4.065,3.918-6.429,3.804c-2.36-0.114-6.323-4.396-12.693-3.919
						c-5.481,0.408-5.426,4.541-9.306,3.535C655.154,900.632,655.147,902.386,655.555,904.533z"/>
				</g>
			</g>
		</g>
		<g>
			<g>
				<g>
					<g>
						<path fill="#4D6264" d="M650.439,861.112c17.338,0.075,25.356,1.594,42.63,0.019c-3.486-68.877-4.293-305.92-3.643-323.815
							c0.78-21.442-5.141-61.667-5.141-61.667l-24.201-10.213c0,0-32.981,12.163-34.408,48.809
							c-1.427,36.646,11.113,175.261,12.824,202C640.011,739.853,648.085,831.203,650.439,861.112z"/>
					</g>
				</g>
			</g>
			<g>
				<g>
					<path fill="#263B4C" d="M653.484,481.392c6.018,11.733,6.196,26.21,0.053,37.943c-5.426,10.364-15.281,18.063-26.595,20.955
						c-0.741,0.19-0.427,1.337,0.316,1.147c11.782-3.012,22.081-11.144,27.575-22.025c6.077-12.037,5.806-26.67-0.322-38.62
						C654.161,480.11,653.135,480.711,653.484,481.392L653.484,481.392z"/>
				</g>
			</g>
			<g>
				<g>
					<g>
						<path fill="#263B4C" d="M655.154,666.341c8.187,3.372,17.495,3.065,25.468-0.765c0.558-0.268,0.07-1.098-0.486-0.831
							c-7.752,3.723-16.784,3.939-24.727,0.668C654.838,665.177,654.588,666.108,655.154,666.341L655.154,666.341z"/>
					</g>
				</g>
			</g>
			<g>
				<g>
					<path fill="#4D6264" d="M786.394,852.715c-7.443-51.891-29.214-259.3-37.178-289.829c-5.298-20.309-5.973-30.376-10.106-45.339
						c-3.495-1.409-11.325-22.055-14.627-23.887c-4.638-2.574-9.152-5.375-13.796-7.94c-3.486-1.926-6.935-3.917-10.301-6.045
						c-6.829-4.317-13.937-9.367-18.588-16.179c-3.581,5.426-5.805,15.16-5.7,31.257l68.986,360.649
						C761.564,855.542,768.787,854.912,786.394,852.715z"/>
				</g>
			</g>
			<g>
				<g>
					<path fill="#263B4C" d="M748.492,844.01c-0.287,0-0.54-0.209-0.587-0.501c-13.344-84.062-53.853-288.606-54.26-290.662
						c-0.064-0.322,0.145-0.635,0.468-0.699c0.322-0.064,0.635,0.145,0.699,0.468c0.408,2.056,40.921,206.622,54.268,290.707
						c0.051,0.324-0.17,0.629-0.494,0.681C748.554,844.008,748.523,844.01,748.492,844.01z"/>
				</g>
			</g>
			<g>
				<g>
					<path fill="#263B4C" d="M744.241,844.258c12.978,0.242,25.948-0.492,38.816-2.197c1.122-0.149,1.136-1.935,0-1.784
						c-12.868,1.706-25.837,2.44-38.816,2.197C743.093,842.453,743.093,844.237,744.241,844.258L744.241,844.258z"/>
				</g>
			</g>
			<g>
				<g>
					<g>
						<path fill="#263B4C" d="M740.743,663.242c7.536,2.814,15.916,1.896,22.699-2.412c0.521-0.331,0.039-1.164-0.486-0.831
							c-6.587,4.183-14.644,5.046-21.958,2.315C740.418,662.097,740.168,663.027,740.743,663.242L740.743,663.242z"/>
					</g>
				</g>
			</g>
			<g>
				<g>
					<path fill="#4D6264" d="M639.742,479.733c0,0,6.341-10.004,10.371-23.42c0,0,24.095,11.237,63.325,4.831
						c0,0,13.788,22.581,25.673,56.403C739.11,517.546,648.457,495.99,639.742,479.733z"/>
				</g>
			</g>
			<g>
				<g>
					<path fill="#263B4C" d="M708.475,486.285c-0.08,11.846,4.377,23.367,10.119,33.565c5.207,9.248,13.239,17.912,24.489,18.584
						c0.764,0.046,0.762-1.144,0-1.189c-11.325-0.676-19.086-9.882-24.111-19.174c-5.276-9.756-9.383-20.557-9.307-31.786
						C709.669,485.52,708.48,485.519,708.475,486.285L708.475,486.285z"/>
				</g>
			</g>
			<g>
				<g>
					<g>
						<g>
							<path fill="#263B4C" d="M681.334,497.116c1.377,16.78,3.189,33.521,4.566,50.302c0.058,0.705,1.166,0.712,1.108,0
								c-1.377-16.78-3.189-33.522-4.566-50.302C682.384,496.411,681.276,496.405,681.334,497.116L681.334,497.116z"/>
						</g>
					</g>
				</g>
				<g>
					<g>
						<g>
							<path fill="#263B4C" d="M688.028,498.381c0.822,4.952,1.388,9.941,1.665,14.954c0.117,2.115,0.291,4.28,0.15,6.398
								c-0.162,2.427-1.905,6.413-5.068,4.803c-0.634-0.323-1.195,0.632-0.559,0.956c1.734,0.883,3.676,0.401,5.022-0.987
								c1.587-1.638,1.754-4.089,1.744-6.244c-0.031-6.747-0.781-13.525-1.885-20.174
								C688.98,497.385,687.912,497.682,688.028,498.381L688.028,498.381z"/>
						</g>
					</g>
				</g>
			</g>
			<g>
				<g>
					<g>
						<path fill="#2D2E41" d="M648.083,467.562c3.715,3.769,10.138,4.258,15.06,5.146c6.299,1.136,12.655,2.008,19.05,2.362
							c11.889,0.657,24.159-0.465,35.193-5.196c0.567-0.243,0.078-1.073-0.486-0.831c-10.675,4.577-22.577,5.672-34.08,5.098
							c-6.209-0.31-12.382-1.12-18.501-2.197c-2.799-0.492-5.616-0.983-8.378-1.656c-2.586-0.631-5.263-1.464-7.177-3.406
							C648.328,466.44,647.648,467.121,648.083,467.562L648.083,467.562z"/>
					</g>
				</g>
			</g>
		</g>
	</g>
	<g>
		<g>
			<path fill="#263B4C" d="M650.439,848.502c13.288,0.958,26.621,0.915,39.903-0.13c1.137-0.09,1.146-1.874,0-1.784
				c-13.282,1.045-26.615,1.088-39.903,0.13C649.293,846.636,649.298,848.42,650.439,848.502L650.439,848.502z"/>
		</g>
	</g>
	<g>
		<path fill="#9CAAAE" d="M712.04,353.347c0,0,16.565,7.667,21.917,20.155c5.352,12.488,16.849,38.785,16.849,38.785l-29.283,3.303
			L712.04,353.347z"/>
	</g>
	<g>
		<g>
			<path fill="#9CAAAE" d="M735.965,492.542c2.549,9.824-119.869,15.805-108.721-7.838c3.275-6.938,13.392-43.763,11.037-63.109
				c-2.359-19.35-16.409-48.711-3.476-60.363c9.309-8.387,24.254-12.396,30.311-16.408c2.676-1.772,4.246-3.001,4.246-3.001
				s13.324-5.483,26.676,2.141c1.261,0.721,2.478,1.407,3.643,2.069c16.353,9.249,23.632,13.178,24.762,27.271
				c1.209,15.1,11.2,22.094,12.686,32.798c1.487,10.704-11.893,23.497-11.893,23.497
				C725.311,445.016,732.527,479.297,735.965,492.542z"/>
		</g>
	</g>
	<g>
		<g>
			<path fill="#263B4C" d="M715.582,453.823c-13.655,12.18-31.341,19.362-49.622,20.156c-0.763,0.033-0.767,1.223,0,1.189
				c18.606-0.809,36.565-8.108,50.462-20.505C716.995,454.154,716.152,453.315,715.582,453.823L715.582,453.823z"/>
		</g>
	</g>
	<g>
		<g>
			<g>
				<path fill="#263B4C" d="M723.526,369.174c-0.888,7.566,2.67,14.507,6.265,20.906c4.003,7.125,7.565,14.873,5.831,23.235
					c-0.155,0.747,0.991,1.066,1.147,0.316c1.544-7.448-0.854-14.651-4.32-21.201c-3.859-7.293-8.749-14.605-7.734-23.255
					C724.804,368.415,723.614,368.422,723.526,369.174L723.526,369.174z"/>
			</g>
		</g>
	</g>
	<g>
		<g>
			<path fill="#263B4C" d="M643.402,411.743c6.153,26.519,3.346,54.787-7.929,79.569c-0.315,0.691,0.71,1.297,1.027,0.6
				c11.414-25.087,14.279-53.633,8.049-80.485C644.376,410.682,643.229,410.997,643.402,411.743L643.402,411.743z"/>
		</g>
	</g>
	<g>
		<polygon fill="#FFFFFF" points="720.127,388.388 705.54,388.388 703.954,381.5 718.541,381.5 		"/>
	</g>
	<g>
		<g>
			<path fill="#FFFFFF" d="M661.505,347.05c8.699,9.181,18.817,16.827,28.008,25.485c0.557,0.525,1.4-0.315,0.841-0.841
				c-9.19-8.658-19.309-16.304-28.007-25.485C661.818,345.653,660.978,346.495,661.505,347.05L661.505,347.05z"/>
		</g>
	</g>
	<g>
		<g>
			<path fill="#FFFFFF" d="M701.421,347.717c-3.228,8.378-8.279,15.941-12.001,24.098c-0.315,0.691,0.709,1.296,1.027,0.6
				c3.766-8.254,8.855-15.904,12.121-24.382C702.843,347.318,701.693,347.009,701.421,347.717L701.421,347.717z"/>
		</g>
	</g>
	<g>
		<path fill="#F4A181" d="M699.682,346.033l-10.263,18.946l-24.302-20.155c2.676-1.772,4.246-3.001,4.246-3.001
			s13.324-5.483,26.676,2.141C697.299,344.685,698.516,345.371,699.682,346.033z"/>
	</g>
	<g>
		<g>
			<g>
				<g>
					<g>
						<g>
							<path fill="#F4A181" d="M668.913,346.494c0,0,14.687,12.318,27.89,0.95l-1.805-8.194l-1.969-8.942l-1.378-6.26L672.042,313.8
								L668.913,346.494z"/>
						</g>
					</g>
				</g>
			</g>
			<g>
				<g>
					<g>
						<g>
							<path fill="#EB7D70" d="M676.643,323.966c8.745,15.254,16.835,20.453,19.393,19.996l-3.047-13.834L676.643,323.966z"/>
						</g>
					</g>
				</g>
			</g>
		</g>
		<g>
			<g>
				<g>
					<g>
						<g>
							<path fill="#F4A181" d="M665.438,309.754c2.433,6.054,4.408,7.932,9.618,13.532c4.651,4.997,11.972,7.029,15.604,6.956
								c13.195-0.265,18.751-6.176,15.36-23.769c-2.108-10.924,0.323-17.38-2.904-21.358l-0.005,0.001
								c-0.208-0.177-0.416-0.349-0.625-0.516c-5.018-4.025-11.464-5.835-17.871-5.258
								C652.776,282.212,661.946,301.065,665.438,309.754z"/>
						</g>
					</g>
				</g>
			</g>
			<g>
				<path fill="#2B2C2C" d="M702.903,280.141c0,0,5.069,9.433,2.643,12.686c-2.426,3.253-14.566-5.195-17.065-9.382
					c0,0,1.678,10.836-11.838,11.761c0,0,0.888,4.828-1.226,7.435c-2.114,2.608-0.661,8.126-0.661,8.126l-12.831-1.048
					l-2.763-17.817C659.163,291.902,659.427,269.569,702.903,280.141z"/>
			</g>
			<g>
				<g>
					<path fill="#2B2C2C" d="M701.459,300.971c-1.494,0.295-2.761,1.199-3.566,2.486c-0.407,0.651,0.621,1.248,1.027,0.6
						c0.65-1.039,1.658-1.703,2.856-1.939C702.525,301.969,702.208,300.823,701.459,300.971L701.459,300.971z"/>
				</g>
			</g>
			<g>
				<g>
					<path fill="#2B2C2C" d="M687.578,303.255c1.222-0.082,2.35,0.283,3.261,1.113c0.564,0.515,1.408-0.324,0.841-0.841
						c-1.129-1.031-2.57-1.564-4.102-1.461C686.818,302.116,686.812,303.306,687.578,303.255L687.578,303.255z"/>
				</g>
			</g>
			<g>
				<g>
					<g>
						<g>
							<g>
								<path fill="#B56972" d="M698.255,321.391c-1.246,0.599-2.628,0.778-3.8-0.072c-0.594-0.431,0.103-1.331,0.696-0.901
									c0.837,0.607,1.804,0.336,2.664-0.077C698.477,320.023,698.913,321.075,698.255,321.391L698.255,321.391z"/>
							</g>
						</g>
					</g>
				</g>
			</g>
			<g>
				<g>
					<g>
						<g>
							<path fill="#EB7D70" d="M681.915,309.814c0.121,0.944,1.687,1.521,3.498,1.289c1.811-0.232,3.181-1.185,3.061-2.129
								c-0.121-0.944-1.687-1.521-3.499-1.289C683.164,307.917,681.794,308.871,681.915,309.814z"/>
						</g>
					</g>
				</g>
			</g>
			<g>
				<g>
					<g>
						<g>
							<path fill="#EB7D70" d="M700.8,308.377c0.121,0.947,1.688,1.522,3.497,1.29c0.853-0.109,1.608-0.379,2.153-0.73
								c-0.125-0.796-0.266-1.618-0.429-2.464c-0.005-0.036-0.014-0.071-0.018-0.102c-0.598-0.169-1.349-0.222-2.144-0.12
								C702.051,306.484,700.68,307.435,700.8,308.377z"/>
						</g>
					</g>
				</g>
			</g>
			<g>
				<g>
					<g>
						<g>
							<g>
								<path fill="#2B2C2C" d="M689.306,298.187c-1.344-0.326-3.023,0.113-3.396,1.621c-0.348,1.407-2.607,1.104-2.254-0.321
									c0.657-2.657,3.3-4.201,5.971-3.553C691.037,296.275,690.734,298.533,689.306,298.187L689.306,298.187z"/>
							</g>
						</g>
					</g>
				</g>
			</g>
			<g>
				<g>
					<g>
						<g>
							<g>
								<path fill="#2B2C2C" d="M702.382,298.478c-1.005-0.96-2.291-2.368-3.815-1.78c-1.367,0.527-2.247-1.573-0.879-2.1
									c2.427-0.936,4.391,0.458,6.087,2.079C704.823,297.68,703.441,299.491,702.382,298.478L702.382,298.478z"/>
							</g>
						</g>
					</g>
				</g>
			</g>
			<g>
				<g>
					<g>
						<g>
							<path fill="#2B2C2C" d="M696.62,310.406c-0.485,0.171-1.067,0.308-1.745,0.359c-0.308,0.023-0.576-0.208-0.599-0.516
								c-0.023-0.308,0.209-0.576,0.516-0.6c1.073-0.08,1.838-0.412,2.303-0.686c-1.737-1.466-2.561-3.691-2.599-3.795
								c-0.106-0.29,0.044-0.611,0.334-0.716c0.274-0.102,0.611,0.044,0.717,0.333c0.009,0.025,0.938,2.518,2.788,3.708
								c0.142,0.091,0.235,0.241,0.253,0.409c0.019,0.167-0.039,0.334-0.157,0.454C698.395,309.392,697.789,309.994,696.62,310.406z
								"/>
						</g>
					</g>
				</g>
			</g>
			<g>
				<g>
					<g>
						<g>
							<path fill="#FFFFFF" d="M701.525,312.504c0,0-4.206,1.304-12.106,0.276c0,0,1.533,7.027,7.299,6.254
								C701.607,318.38,701.525,312.504,701.525,312.504z"/>
						</g>
					</g>
				</g>
			</g>
		</g>
		<g>
			<g>
				<g>
					<g>
						<g>
							<g>
								<path fill="#F4A181" d="M678.479,313.178c0.482-2.385-0.26-4.847-1.839-6.699c-2.045-2.399-5.722-6.024-8.706-5.221
									c-4.386,1.18-4.417,5.216-3.47,9.203c0.947,3.987,4.27,8.948,9.733,7.393C676.929,317.077,678.084,315.131,678.479,313.178z
									"/>
							</g>
						</g>
					</g>
				</g>
			</g>
			<g>
				<g>
					<g>
						<g>
							<g>
								<g>
									<path fill="#2B2C2C" d="M672.324,313.394c0.047-1.679-0.022-3.424-0.802-4.953c-0.697-1.366-2.497-3.265-4.258-2.481
										c-0.591,0.263-1.102-0.612-0.507-0.877c1.697-0.755,3.475,0.109,4.657,1.418c1.705,1.889,1.992,4.468,1.924,6.908
										C673.319,314.058,672.306,314.048,672.324,313.394L672.324,313.394z"/>
								</g>
							</g>
						</g>
					</g>
				</g>
			</g>
		</g>
	</g>
	<g>
		<g>
			<path fill="#263B4C" d="M724.584,429.335c-16.492,3.22-33.364,4.018-50.088,2.397c-0.761-0.074-0.756,1.116,0,1.189
				c16.832,1.631,33.808,0.801,50.404-2.44C725.651,430.335,725.333,429.189,724.584,429.335L724.584,429.335z"/>
		</g>
	</g>
	<g>
		<g>
			<g>
				<path fill="#263B4C" d="M627.246,429.599c0,0-4.423,2.379-9.048-4.625c-4.625-7.004,9.779-12.686,10.175-12.686
					C628.769,412.287,633.254,421.273,627.246,429.599z"/>
			</g>
		</g>
		<g>
			<path fill="#F4A181" d="M611.854,385.276c0,0-25.866,29.604-32.473,49.979c-6.607,20.376,45.073,66.621,45.073,66.621
				l6.456-7.336c0,0-15.211-38.227-21.699-50.964l22.201-27.83C637.689,396.215,628.074,388.326,611.854,385.276z"/>
		</g>
		<g>
			<g>
				<path fill="#EB7D70" d="M608.842,442.831c-2.445-0.259-4.891-0.518-7.336-0.777c-0.76-0.08-0.755,1.109,0,1.189
					c2.445,0.259,4.891,0.518,7.336,0.777C609.603,444.101,609.597,442.911,608.842,442.831L608.842,442.831z"/>
			</g>
		</g>
		<g>
			<g>
				<g>
					<g>
						<path fill="#FFFFFF" d="M618.131,496.337c1.437-3.331,3.256-3.879,6.706-4.999c3.422-1.111,6.468-2.039,11.517-0.771
							c2.811,0.706,18.202,9.063,19.508,12.132c1.306,3.069-13.202-1.982-13.202-1.982s12.246,8.068,10.371,9.887
							c-1.874,1.82-15.46-5.171-15.46-5.171s7.687,6.566,8.016,8.638c0.539,3.396-13.096-4.899-13.096-4.899
							s4.315,8.018,3.169,9.436c-1.146,1.418-11.099-0.549-10.639-2.467c0.533-2.221,3.723-0.75,4.17-1.061
							c0.481-0.335-5.485-4.598-8.087-6.458C615.9,504.902,616.709,499.637,618.131,496.337z"/>
					</g>
				</g>
			</g>
		</g>
		<g>
			<path fill="#FFFFFF" d="M618.329,500.699l-14.668-14.806l20.879-11.426l6.607,16.58
				C631.148,491.047,626.258,500.837,618.329,500.699z"/>
		</g>
		<g>
			<g>
				<path fill="#9CAAAE" d="M634.804,361.231c0,0-12.004,9.287-33.148,36.641c0,0,6.796-1.608,15.492,5.743
					c16.201,13.693,10.096,25.983,10.096,25.983l18.528-19.822C645.773,409.777,658.944,373.341,634.804,361.231z"/>
			</g>
		</g>
		<g>
			<g>
				<path fill="#263B4C" d="M645.002,357.995c6.467,1.499,11.459,6.763,12.643,13.29c0.136,0.752,1.283,0.433,1.147-0.316
					c-1.253-6.907-6.64-12.537-13.474-14.121C644.574,356.675,644.256,357.821,645.002,357.995L645.002,357.995z"/>
			</g>
		</g>
		<g>
			<g>
				<path fill="#FFFFFF" d="M609.361,388.194c13.676,4.057,24.243,16.339,26.128,30.497c0.1,0.748,1.29,0.758,1.189,0
					c-1.957-14.7-12.767-27.421-27.001-31.643C608.942,386.829,608.628,387.977,609.361,388.194L609.361,388.194z"/>
			</g>
		</g>
		<g>
			<path fill="#263B4C" d="M659.275,393.94c-7.297,8.04-14.595,16.081-21.892,24.122c-0.513,0.566,0.325,1.409,0.841,0.841
				c7.297-8.04,14.595-16.081,21.892-24.122C660.629,394.215,659.79,393.372,659.275,393.94L659.275,393.94z"/>
		</g>
	</g>
	<g>
		<g>
			<g>
				<path fill="#FFFFFF" d="M671.034,301.328c-0.053,0.013-0.492,0.131-0.543,0.15c0.636,0.269,1.374,0.648,2,1.086
					c0.017,0.012,0.151,0.104,0.167,0.118c5.791-0.484,10.805,10.781,10.858,10.902l1.454-0.634
					C684.716,312.367,678.857,299.368,671.034,301.328z"/>
			</g>
		</g>
		<g>
			<path fill="#FFFFFF" d="M685.055,328.716l-0.801,1.368c-0.416-0.246-10.26-6.046-15.374-10.387
				c-2.771-2.343-4.337-5.665-4.357-8.999c0.563,2.18,1.828,4.607,3.75,6.077c0.468,0.614,1.015,1.193,1.629,1.713
				C674.918,322.742,684.956,328.657,685.055,328.716z"/>
		</g>
		<g>
			<path fill="#4D6264" d="M696.903,306.13c0,0-12.837,3.566-15.119,8.278c-2.282,4.712-2.387,14.524,3.312,16.506
				c5.699,1.982,17.88,2.874,21.009-3.271c3.129-6.145,2.572-14.882-1.907-18.046C699.72,306.434,696.903,306.13,696.903,306.13z"/>
		</g>
		<g>
			<g>
				<path fill="#FFFFFF" d="M694.553,313.354c1.924,0.279,3.777,0.233,5.6-0.155c0.606-0.129,0.226-1.073-0.379-0.944
					c-1.646,0.35-3.337,0.407-5.075,0.155C694.066,312.318,693.914,313.262,694.553,313.354L694.553,313.354z"/>
			</g>
		</g>
		<g>
			<g>
				<path fill="#FFFFFF" d="M690.312,317.162c4.67,0.928,9.108,0.632,13.306-0.899c0.57-0.208,0.197-1.154-0.379-0.944
					c-4.042,1.474-8.282,1.792-12.781,0.899C689.822,316.091,689.673,317.035,690.312,317.162L690.312,317.162z"/>
			</g>
		</g>
		<g>
			<g>
				<path fill="#FFFFFF" d="M689.918,321.688c4.808,0.96,9.377,0.653,13.696-0.931c0.569-0.209,0.197-1.155-0.379-0.944
					c-4.164,1.527-8.533,1.857-13.171,0.931C689.428,320.616,689.279,321.56,689.918,321.688L689.918,321.688z"/>
			</g>
		</g>
		<g>
			<g>
				<path fill="#FFFFFF" d="M690.112,326.469c4.926,1.231,9.515,0.77,13.772-1.212c0.548-0.255-0.058-1.099-0.603-0.845
					c-4.012,1.868-8.377,2.273-13.023,1.113C689.623,325.366,689.477,326.31,690.112,326.469L690.112,326.469z"/>
			</g>
		</g>
	</g>
</g>
<g>
	<g>
		<g>
			<g>
				<path fill="#F4A181" d="M581.794,365.002c0,0,19.994,9.367,21.578,38.943c1.584,29.576-2.502,68.103-2.502,68.103l-23.238-2.493
					l-6.872-75.404L581.794,365.002z"/>
				<path fill="#4D6264" d="M583.942,365.509c0,0,21.312,0.14,24.303,53.017h-31.253L583.942,365.509z"/>
			</g>
			<g>
				<g>
					<path fill="#F4A181" d="M600.87,472.049l-1.823,108.949c-0.059,3.558-2.831,6.48-6.381,6.727l0,0
						c-3.78,0.263-7.056-2.589-7.317-6.369l-7.717-111.799L600.87,472.049z"/>
				</g>
				<g>
					<path fill="#B35947" d="M599.055,612.707l8.724,22.917c0.484,1.272,1.876,1.946,3.174,1.538l0,0
						c1.315-0.414,2.07-1.791,1.711-3.121l-3.065-11.368L599.055,612.707z"/>
					<path fill="#F4A181" d="M593.606,574.273c-3.741-0.57-7.213,2.064-7.673,5.82l-0.745,6.087c0,0-4.41,12.064,1.084,23.16
						c3.433,6.935,4.527,11.866,4.865,14.589c0.175,1.417,1.327,2.509,2.754,2.553l0.015,0c1.506,0.046,2.799-1.076,2.932-2.576
						c0.257-2.906,0.376-7.866-0.917-13.192l18.289,23.836c0.779,1.072,2.317,1.227,3.295,0.332l0,0
						c0.689-0.631,0.909-1.626,0.551-2.489l-12.17-32.658c0,0-4.427-11.735-6.715-20.13
						C598.424,576.866,596.412,574.701,593.606,574.273L593.606,574.273z"/>
				</g>
			</g>
		</g>
		<g>
			<g>
				<g>
					<path fill="#263B4C" d="M598.851,875.661l17.963,8.865c1.904,0.94,3.057,3.091,2.466,5.13c-0.467,1.611-1.99,3.096-5.987,3.167
						c-8.88,0.159-48.185-5.966-48.185-5.966v4.123l-18.237-2.061c0,0-1.275-20.855,4.278-23.907L598.851,875.661z"/>
					<path fill="#F4A181" d="M569.896,854.79l28.955,20.871c0,0-3.097,7.963-16.81,2.654c-13.713-5.308-30.892-13.304-30.892-13.304
						l2.505-12.476L569.896,854.79z"/>
				</g>
				<polygon fill="#F4A181" points="551.149,865.011 546.744,787.678 575.665,790.424 573.092,862.257 				"/>
			</g>
			<g>
				<g>
					<path fill="#263B4C" d="M480.103,875.661l-17.963,8.865c-1.904,0.94-3.058,3.091-2.466,5.13
						c0.467,1.611,1.991,3.096,5.987,3.167c8.88,0.159,48.185-5.966,48.185-5.966v4.123l18.237-2.061c0,0,1.275-20.855-4.279-23.907
						L480.103,875.661z"/>
					<path fill="#F4A181" d="M509.057,854.79l-28.955,20.871c0,0,3.097,7.963,16.81,2.654c13.713-5.308,30.892-13.304,30.892-13.304
						l-2.505-12.476L509.057,854.79z"/>
				</g>
				<polygon fill="#F4A181" points="527.805,865.011 527.805,786.305 498.884,789.051 505.862,862.257 				"/>
			</g>
			<g>
				<g>
					<path fill="#4D6264" d="M567.756,469.488c0,0,26.993,18.155,21.326,101.03c-5.667,82.876-11.051,272.494-11.051,272.494
						h-30.939l-9.9-303.542l-4.798,0.653l0.131,302.89h-30.939l-19.643-278.681c0,0-8.426-55.302,18.676-94.843
						C500.619,469.488,532,448.821,567.756,469.488z"/>
					<g>
						<g>
							<path fill="#2B2C2C" d="M520.744,541.165c-0.196,0-0.359-0.153-0.369-0.35c-0.01-0.203,0.146-0.376,0.35-0.388l25.848-1.346
								c0.234,0.018,0.378,0.147,0.388,0.35s-0.146,0.376-0.35,0.388l-25.848,1.346C520.758,541.165,520.75,541.165,520.744,541.165
								z"/>
						</g>
					</g>
					<path opacity="0.52" fill="#184D8D" d="M585.985,507.103l0.864,4.543L482.8,516.874c0,0,1.775-11.403,4.364-18.914
						L585.985,507.103z"/>
				</g>
			</g>
		</g>
		<g>
			<path fill="#2B2C2C" d="M494.754,329.319c0,16.963,17.286,28.019,38.609,28.019c21.323,0,38.609-11.056,38.609-28.019
				c0-16.963-17.286-30.715-38.609-30.715C512.04,298.604,494.754,312.355,494.754,329.319z"/>
			<g>
				<g>
					<path fill="#F4A181" d="M556.53,312.221c0,0,4.397-3.416,7.611,0.641c4.883,6.164-3.662,17.328-11.093,11.58L556.53,312.221z"
						/>
					<g>
						<path fill="#2B2C2C" d="M555.86,321.06c-0.045,0-0.091-0.01-0.133-0.032c-0.144-0.074-0.201-0.25-0.127-0.394
							c2.74-5.339,5.353-4.588,5.467-4.553c0.154,0.049,0.239,0.213,0.191,0.367c-0.048,0.154-0.211,0.241-0.363,0.192
							c-0.044-0.011-2.297-0.565-4.773,4.26C556.068,321.003,555.966,321.06,555.86,321.06z"/>
					</g>
				</g>
			</g>
			<g>
				<g>
					<path fill="#F4A181" d="M509.376,312.221c0,0-4.397-3.416-7.611,0.641c-4.883,6.164,3.662,17.328,11.094,11.58L509.376,312.221
						z"/>
					<g>
						<path fill="#2B2C2C" d="M510.044,321.06c-0.106,0-0.208-0.058-0.261-0.159c-2.484-4.846-4.747-4.267-4.772-4.26
							c-0.16,0.048-0.317-0.044-0.363-0.196c-0.045-0.154,0.038-0.315,0.191-0.363c0.112-0.035,2.725-0.787,5.466,4.553
							c0.074,0.143,0.017,0.32-0.128,0.394C510.135,321.05,510.09,321.06,510.044,321.06z"/>
					</g>
				</g>
			</g>
			<ellipse fill="#2B2C2C" cx="532.799" cy="298.604" rx="28.133" ry="27.434"/>
			<polygon fill="#F4A181" points="541.653,337.094 544.327,366.153 521.735,366.153 525.921,336.778 			"/>
			<path fill="#F4A181" d="M540.265,339.054c-0.622,0.357-16.337,11.716-16.337,11.716l1.994-13.992L540.265,339.054z"/>
			<path fill="#F4A181" d="M557.628,298.49c0,0-0.141,42.379-23.857,42.379c-27.87,0-24.948-42.354-24.948-42.354
				s0.157-19.073,24.09-19.073C554.852,279.442,557.628,298.49,557.628,298.49z"/>
			<g>
				<path fill="#2B2C2C" d="M541.271,312.104c0,1.123,0.911,2.034,2.034,2.034c1.123,0,2.034-0.911,2.034-2.034
					s-0.91-2.034-2.034-2.034C542.182,310.07,541.271,310.981,541.271,312.104z"/>
				<path fill="#2B2C2C" d="M520.944,312.104c0,1.123,0.911,2.034,2.034,2.034c1.123,0,2.034-0.911,2.034-2.034
					s-0.911-2.034-2.034-2.034C521.855,310.07,520.944,310.981,520.944,312.104z"/>
				<g>
					<path fill="#2B2C2C" d="M532.169,320.85c-0.16,0-0.289-0.128-0.293-0.287c-0.002-0.161,0.126-0.295,0.287-0.298l2.12-0.039
						v-3.586c0-0.161,0.131-0.292,0.293-0.292c0.162,0,0.293,0.131,0.293,0.292v3.873c0,0.16-0.129,0.289-0.287,0.292l-2.407,0.045
						C532.173,320.85,532.17,320.85,532.169,320.85z"/>
				</g>
				<path fill="#2B2C2C" d="M528.336,300.579c0,0,0.589,1.704-2.768,1.741c-2.549,0.028-5.656,0.551-7.125,0.798
					c-0.834,0.14-1.731-0.115-2.126-0.601l0,0c-0.319-0.392-0.249-0.857,0.198-1.181c0.905-0.657,4.258-2.165,7.359-2.225
					C527.857,299.033,528.336,300.579,528.336,300.579z"/>
				<path fill="#2B2C2C" d="M538.589,300.62c0,0-0.59,1.704,2.768,1.741c2.549,0.028,5.656,0.551,7.125,0.798
					c0.834,0.14,1.731-0.115,2.125-0.601l0,0c0.319-0.392,0.249-0.857-0.198-1.181c-0.905-0.657-4.258-2.165-7.359-2.225
					C539.068,299.074,538.589,300.62,538.589,300.62z"/>
				<path fill="#FFFFFF" d="M539.526,325.184h-12.689c0,0,1.93,4.135,6.804,4.135C538.514,329.319,539.526,325.184,539.526,325.184z
					"/>
				<g>
					<g>
						<path fill="#FFFFFF" d="M545.747,323.055c-5.739,0-10.408-4.669-10.408-10.407c0-5.739,4.669-10.407,10.408-10.407
							c5.739,0,10.408,4.669,10.408,10.407C556.155,318.386,551.486,323.055,545.747,323.055z M545.747,303.252
							c-5.181,0-9.396,4.214-9.396,9.395c0,5.181,4.214,9.395,9.396,9.395c5.181,0,9.396-4.214,9.396-9.395
							C555.143,307.466,550.929,303.252,545.747,303.252z"/>
					</g>
					<g>
						<path fill="#FFFFFF" d="M520.999,323.055c-5.739,0-10.408-4.669-10.408-10.407c0-5.739,4.669-10.407,10.408-10.407
							c5.739,0,10.407,4.669,10.407,10.407C531.406,318.386,526.738,323.055,520.999,323.055z M520.999,303.252
							c-5.181,0-9.396,4.214-9.396,9.395c0,5.181,4.214,9.395,9.396,9.395c5.18,0,9.395-4.214,9.395-9.395
							C530.394,307.466,526.179,303.252,520.999,303.252z"/>
					</g>
					<g>
						<path fill="#FFFFFF" d="M535.539,313.05c-0.095-0.072-2.365-1.747-4.304-0.025l-0.672-0.756
							c2.051-1.827,4.553-0.814,5.589-0.024L535.539,313.05z"/>
					</g>
				</g>
			</g>
			<path fill="#2B2C2C" d="M559.783,297.942c0,0-25.899,4.859-26.871-18.501C532.913,279.442,545.988,264.584,559.783,297.942z"/>
			<path fill="#2B2C2C" d="M507.509,297.942c0,0,25.899,4.859,26.87-18.501C534.379,279.442,521.304,264.584,507.509,297.942z"/>
		</g>
		<g>
			<g>
				<g>
					<g>
						<path fill="#9CAAAE" d="M546.904,355.496l37.038,10.013c0,0-6.639,55.489-12.925,90.948
							c-0.544,3.069,18.741,47.926,18.234,50.646l-109.734-0.152c0,0,18.561-45.262,17.143-51
							c-4.895-19.806-15.956-91.524-15.956-91.524l38.299-8.93H546.904z"/>
					</g>
				</g>
				<g>
					<g>
						<polygon fill="#F4A181" points="546.904,355.496 533.363,386.182 519.003,355.496 532.954,352.378 						"/>
						<g>
							<g>
								<path fill="#2B2C2C" d="M533.362,386.957c-0.209,0-0.418-0.084-0.571-0.251c-0.29-0.315-0.269-0.804,0.047-1.094
									l22.998-21.113l-8.836-7.875c-0.319-0.285-0.347-0.775-0.062-1.094c0.285-0.321,0.773-0.347,1.094-0.063l9.474,8.445
									c0.163,0.146,0.257,0.354,0.259,0.573c0.002,0.219-0.09,0.429-0.251,0.576l-23.629,21.693
									C533.737,386.889,533.549,386.957,533.362,386.957z"/>
							</g>
							<g>
								<path fill="#2B2C2C" d="M533.362,386.957c-0.185,0-0.371-0.066-0.519-0.2l-24.038-21.693
									c-0.163-0.147-0.256-0.357-0.256-0.577c0.001-0.221,0.096-0.429,0.259-0.577l9.002-8.025
									c0.322-0.285,0.81-0.257,1.094,0.063c0.285,0.319,0.257,0.809-0.062,1.094l-8.358,7.45l23.397,21.114
									c0.318,0.287,0.343,0.776,0.056,1.094C533.784,386.87,533.574,386.957,533.362,386.957z"/>
							</g>
						</g>
					</g>
					<g>
						<g>
							<g>
								<path fill="#2B2C2C" d="M500.302,400.306c-0.379,0-0.71-0.278-0.766-0.665c-4.883-34.058,5.455-41.428,5.897-41.725
									c0.353-0.239,0.838-0.145,1.075,0.212c0.238,0.354,0.146,0.832-0.206,1.072c-0.124,0.087-9.943,7.369-5.231,40.221
									c0.06,0.423-0.234,0.816-0.657,0.878C500.376,400.303,500.339,400.306,500.302,400.306z"/>
							</g>
							<g>
								<path fill="#2B2C2C" d="M492.451,402.386c0,4.337,3.516,7.854,7.853,7.854c4.337,0,7.853-3.516,7.853-7.854
									c0-4.337-3.516-7.853-7.853-7.853C495.967,394.533,492.451,398.049,492.451,402.386z"/>
								<path fill="#4D6264" d="M495.943,402.386c0,2.409,1.953,4.361,4.361,4.361c2.409,0,4.361-1.953,4.361-4.361
									s-1.953-4.361-4.361-4.361C497.895,398.025,495.943,399.977,495.943,402.386z"/>
							</g>
						</g>
						<g>
							<g>
								<path fill="#2B2C2C" d="M564.061,395.463c-0.069,0-0.14-0.009-0.21-0.029c-0.412-0.115-0.652-0.543-0.535-0.956
									c6.494-23.118-2.671-34.523-2.765-34.635c-0.272-0.329-0.228-0.818,0.1-1.091c0.331-0.272,0.818-0.229,1.09,0.098
									c0.403,0.482,9.8,12.082,3.066,36.049C564.711,395.239,564.399,395.463,564.061,395.463z"/>
							</g>
							<g>
								<path fill="#4D6264" d="M560.643,439.35c-0.84,1.983-2.779,3.177-4.817,3.177c-0.67,0-1.352-0.13-2.007-0.404l-1.412-0.591
									c-0.428-0.179-0.63-0.671-0.451-1.1c0.18-0.428,0.674-0.627,1.1-0.45l1.411,0.591c1.795,0.747,3.872-0.095,4.628-1.879
									c1.54-3.641,4.125-9.809,6.456-15.385c0.51,0.233,1.021,0.461,1.531,0.696C564.756,429.571,562.179,435.718,560.643,439.35z
									"/>
								<path fill="#4D6264" d="M533.954,428.16l6.482-15.516c0.522,0.202,1.041,0.416,1.562,0.621l-6.494,15.542
									c-0.365,0.875-0.368,1.838-0.008,2.715c0.359,0.876,1.039,1.559,1.913,1.925l2.355,0.985c0.429,0.179,0.63,0.671,0.451,1.1
									c-0.18,0.428-0.674,0.63-1.099,0.45l-2.355-0.985C534.102,433.886,532.843,430.818,533.954,428.16z"/>
								<path fill="#2B2C2C" d="M544.954,401.831c1.491-3.57,4.282-6.343,7.86-7.812c3.578-1.469,7.514-1.459,11.082,0.034
									c7.343,3.069,10.839,11.548,7.793,18.901c-0.812,1.962-2.619,6.296-4.607,11.051c-0.509-0.234-1.021-0.463-1.531-0.696
									c1.979-4.735,3.775-9.043,4.585-10.999c2.692-6.499-0.398-13.995-6.889-16.708c-3.153-1.316-6.631-1.328-9.795-0.03
									c-3.163,1.298-5.63,3.75-6.947,6.905l-4.507,10.787c-0.521-0.205-1.04-0.418-1.562-0.621L544.954,401.831z"/>
								<path fill="#2B2C2C" d="M549.34,439.341c-0.605,1.449,0.078,3.114,1.527,3.72c1.449,0.605,3.114-0.078,3.72-1.527
									c0.605-1.449-0.078-3.114-1.527-3.72C551.61,437.208,549.945,437.892,549.34,439.341z"/>
								<path fill="#2B2C2C" d="M538.445,434.789c-0.605,1.449,0.078,3.114,1.527,3.72c1.449,0.605,3.114-0.078,3.72-1.527
									c0.605-1.449-0.078-3.114-1.527-3.72C540.715,432.656,539.05,433.34,538.445,434.789z"/>
							</g>
						</g>
					</g>
				</g>
			</g>
			<g>
				<g>
					<g>
						<path fill="#F4A181" d="M472.004,379.995l-13.761,5.33c-12.162,27.006-24.488,57.863-24.488,57.863l22.569,6.07l27.492-40.827
							L472.004,379.995z"/>
					</g>
					<path fill="#4D6264" d="M488.871,410.631l-6.888,7.895l-33.513-13.659c0,0,10.457-35.297,32.245-40.378L488.871,410.631z"/>
				</g>
				<g>
					<g>
						<polygon fill="#F4A181" points="433.755,457.563 490.598,522.778 496.044,507.103 456.324,449.258 						"/>
						<path fill="#F4A181" d="M433.755,443.188c0,0-6.841,8.972,0,14.376c6.841,5.404,21.701,2.026,21.701,2.026l0.868-10.332
							L433.755,443.188z"/>
					</g>
				</g>
			</g>
			<g>
				<g>
					<g>
						<g>
							<path fill="#F4A181" d="M520.878,514.104c-0.793,1.849-12.869-5.039-12.869-5.039l-2.974,2.464l4.777,3.351l3.79,7.611
								c0,0-1.037,1.288-2.401,2.789c-0.168,0.189-0.345,0.377-0.523,0.569c-0.825,0.888-1.732,1.8-2.582,2.528
								c-0.078,0.074-0.165,0.143-0.242,0.213c-0.432,0.354-0.843,0.656-1.213,0.878c-0.414,0.244-0.778,0.386-1.074,0.387
								l-4.17-5.151c0,0-9.137-0.017-10.348-0.696c-0.48-0.271-1.64-2.388-2.864-4.84c-0.584-1.178-2.825-5.775-3.373-6.942
								l3.586-4.813l7.519-1.261c0.883-0.181,2.057-0.399,3.372-0.597l0-0.004c0.647-0.098,1.328-0.189,2.024-0.271
								c2.526-0.294,5.262-0.427,7.384-0.065c0.901,0.15,1.688,0.394,2.3,0.753C515.229,508.442,521.671,512.259,520.878,514.104z"
								/>
							<g>
								<g>
									<path fill="#B64C58" d="M508.095,528.379c-0.078,0.074-0.165,0.143-0.242,0.213c-0.145-0.235-0.33-0.546-0.556-0.918
										c-0.516-0.842-1.232-1.969-2.029-3.173c-0.807-1.197-1.607-2.228-2.295-2.935c-0.175-0.176-0.335-0.336-0.475-0.478
										c-0.154-0.128-0.284-0.243-0.394-0.333c-0.216-0.191-0.342-0.302-0.342-0.302s0.162,0.041,0.454,0.131
										c0.144,0.043,0.326,0.101,0.531,0.172c0.195,0.09,0.415,0.193,0.662,0.318c0.964,0.497,2.168,1.459,3.054,2.774
										c0.873,1.317,1.3,2.65,1.496,3.618C508.028,527.825,508.07,528.131,508.095,528.379z"/>
								</g>
								<g>
									<path fill="#B64C58" d="M511.199,525.282c-0.168,0.189-0.345,0.377-0.523,0.569c-0.034-0.045-0.064-0.097-0.093-0.146
										c-0.516-0.842-1.231-1.969-2.03-3.169c-0.807-1.201-1.607-2.232-2.295-2.939c-0.175-0.176-0.331-0.335-0.471-0.474
										c-0.154-0.132-0.288-0.244-0.394-0.337c-0.22-0.192-0.342-0.298-0.342-0.298s0.157,0.04,0.45,0.127
										c0.144,0.047,0.326,0.101,0.531,0.176c0.196,0.086,0.419,0.193,0.663,0.314c0.968,0.501,2.172,1.463,3.054,2.778
										C510.562,523.102,510.988,524.339,511.199,525.282z"/>
								</g>
							</g>
						</g>
					</g>
				</g>
			</g>
		</g>
	</g>
	<g>
		<g>
			<g>
				<g>
					<path fill="#9CAAAE" d="M553.98,261.534l-2.85,15.397l-0.531,2.876c-22.512-4.398-44.405,10.941-44.405,10.941l-10.15-14.94
						c0.172-0.2,0.346-0.399,0.519-0.594C521.197,247.395,553.98,261.534,553.98,261.534z"/>
				</g>
			</g>
		</g>
		<g opacity="0.35">
			<path fill="#152633" d="M551.13,276.93l-0.531,2.876c-22.512-4.398-44.405,10.941-44.405,10.941l-10.15-14.94
				c0.172-0.2,0.346-0.399,0.519-0.594l12.612,7.755C509.175,282.969,528.971,272.886,551.13,276.93z"/>
		</g>
		<g>
			<g>
				<polygon fill="#FAF8EB" points="532.125,265.893 527.457,267.196 526.122,262.413 521.776,263.626 523.111,268.409 
					518.443,269.711 519.529,273.6 524.197,272.298 525.532,277.08 529.877,275.867 528.542,271.085 533.21,269.782 				"/>
			</g>
		</g>
	</g>
</g>
<g>
	<g>
		<polygon fill="#3E576F" points="228.921,504.504 230.973,508.585 171.062,693.866 45.036,653.115 40.656,648.877 		"/>
		
			<rect x="67.431" y="479.044" transform="matrix(0.9515 0.3077 -0.3077 0.9515 183.9683 -13.497)" fill="#4B657E" width="134.715" height="195.294"/>
		
			<rect x="82.12" y="480.063" transform="matrix(0.9515 0.3077 -0.3077 0.9515 183.1579 -14.8299)" opacity="0.2" fill="#9CAAAE" width="112.982" height="186.785"/>
		
			<rect x="80.034" y="479.318" transform="matrix(0.9515 0.3077 -0.3077 0.9515 182.4008 -14.2916)" fill="#FFFFFF" width="112.982" height="184.007"/>
		<g>
			
				<rect x="150.916" y="473.467" transform="matrix(0.3077 -0.9515 0.9515 0.3077 -390.3378 504.822)" fill="#9CAAAE" width="1.617" height="94.338"/>
		</g>
		<g>
			
				<rect x="146.621" y="486.752" transform="matrix(0.3077 -0.9515 0.9515 0.3077 -405.9523 509.9237)" fill="#9CAAAE" width="1.617" height="94.338"/>
		</g>
		<g>
			
				<rect x="142.325" y="500.036" transform="matrix(0.3077 -0.9515 0.9515 0.3077 -421.5664 515.0339)" fill="#9CAAAE" width="1.617" height="94.338"/>
		</g>
		<g>
			
				<rect x="138.029" y="513.321" transform="matrix(0.3077 -0.9515 0.9515 0.3077 -437.1804 520.1437)" fill="#9CAAAE" width="1.617" height="94.338"/>
		</g>
		<g>
			
				<rect x="133.734" y="526.605" transform="matrix(0.3077 -0.9515 0.9515 0.3077 -452.7945 525.2538)" fill="#9CAAAE" width="1.617" height="94.338"/>
		</g>
		<g>
			
				<rect x="129.438" y="539.89" transform="matrix(0.3077 -0.9515 0.9515 0.3077 -468.4085 530.3638)" fill="#9CAAAE" width="1.617" height="94.338"/>
		</g>
		<g>
			
				<rect x="125.143" y="553.175" transform="matrix(0.3077 -0.9515 0.9515 0.3077 -484.0244 535.4839)" fill="#9CAAAE" width="1.616" height="94.338"/>
		</g>
		<g>
			
				<rect x="120.847" y="566.46" transform="matrix(0.3077 -0.9515 0.9515 0.3077 -499.6385 540.5941)" fill="#9CAAAE" width="1.616" height="94.338"/>
		</g>
		<g>
			<polygon fill="#9CAAAE" points="161.991,642.196 72.228,613.17 72.727,611.632 162.49,640.658 			"/>
		</g>
		<g>
			
				<rect x="112.254" y="593.03" transform="matrix(0.3077 -0.9515 0.9515 0.3077 -530.8674 550.8035)" fill="#9CAAAE" width="1.617" height="94.338"/>
		</g>
		
			<rect x="128.379" y="477.736" transform="matrix(0.9515 0.3077 -0.3077 0.9515 158.4084 -26.4523)" fill="#9CAAAE" width="69.433" height="22.83"/>
		
			<rect x="125.714" y="494.64" transform="matrix(0.9515 0.3077 -0.3077 0.9515 160.8149 -25.2325)" opacity="0.2" fill="#9CAAAE" width="69.433" height="5.505"/>
	</g>
</g>
<g>
	<g>
		<path fill="#F3F3F3" d="M843.444,589.043l14.988,59.024c1.922,7.569-2.66,15.258-10.22,17.177l-58.953,14.97
			c-7.569,1.922-15.255-2.651-17.177-10.22l-14.988-59.024c-1.658-6.53,1.552-13.141,7.343-16.031l-2.019-9.701l-0.713-3.441
			l64.496-16.378l1.041,3.358l3.008,9.686C836.361,578.652,841.865,582.825,843.444,589.043z"/>
		<path fill="#3B4E60" d="M787.904,674.884c-4.612,1.171-9.318-1.628-10.489-6.241l-14.989-59.028
			c-0.983-3.871,0.895-7.973,4.466-9.752c2.236-1.115,3.44-3.595,2.931-6.041l-1.662-7.993l54.338-13.798l2.501,8.062
			c0.695,2.242,2.738,3.796,5.084,3.868c3.793,0.116,7.093,2.763,8.026,6.437l14.989,59.027c1.171,4.613-1.628,9.318-6.241,10.489
			L787.904,674.884z"/>
		<path fill="#263B4C" d="M836.012,552.735l0.697,2.745c1.437,5.659-1.985,11.398-7.636,12.833l-68.405,17.37
			c-5.659,1.437-11.405-1.974-12.842-7.633l-0.697-2.745c-1.437-5.659,1.985-11.398,7.644-12.835l68.405-17.37
			C828.829,543.665,834.575,547.076,836.012,552.735z"/>
		<path fill="#263B4C" d="M836.499,554.654l0.21,0.826c1.437,5.659-1.985,11.398-7.636,12.833l-68.405,17.37
			c-5.659,1.437-11.405-1.974-12.842-7.633l-0.21-0.826c-1.435-5.65,1.985-11.398,7.644-12.835l68.405-17.37
			C829.316,545.584,835.064,549.004,836.499,554.654z"/>
	</g>
	<path fill="#F3F3F3" d="M840.904,645.89l-55.721,14.149c-2.406,0.611-4.852-0.844-5.463-3.25l-11.11-43.754
		c-0.611-2.406,0.844-4.852,3.25-5.463l55.721-14.149c2.406-0.611,4.852,0.844,5.462,3.25l11.111,43.754
		C844.765,642.833,843.31,645.279,840.904,645.89z"/>
	<path fill="#AEB5C2" d="M833.657,625.613l-49.267,12.51c-1.462,0.371-2.948-0.513-3.319-1.975l-1.756-6.915
		c-0.371-1.462,0.513-2.948,1.975-3.319l49.267-12.51c1.462-0.371,2.948,0.513,3.319,1.975l1.756,6.914
		C836.003,623.755,835.119,625.241,833.657,625.613z"/>
	<g>
		
			<rect x="789.424" y="637.387" transform="matrix(0.9692 -0.2461 0.2461 0.9692 -132.1621 219.1577)" fill="#CECDCC" width="42.506" height="1.833"/>
		
			<rect x="791.304" y="644.79" transform="matrix(0.9692 -0.2461 0.2461 0.9692 -133.9259 219.8473)" fill="#CECDCC" width="42.506" height="1.833"/>
	</g>
	<polygon opacity="0.57" fill="#DDDEDD" points="762.422,585.243 830.252,578.464 827.76,568.651 	"/>
	<path opacity="0.57" fill="#DDDEDD" d="M847.408,604.652l11.024,43.415c1.922,7.569-2.66,15.258-10.22,17.177l-58.953,14.97
		c-7.569,1.922-15.255-2.651-17.177-10.22l-4.541-17.883c1.759-0.522,3.502-1.107,5.233-1.735
		c11.531-4.157,22.55-10.294,33.289-16.34c5.395-3.034,10.777-6.084,16.029-9.347c7.341-4.569,14.474-9.586,20.795-15.494
		C844.456,607.737,845.962,606.22,847.408,604.652z"/>
	<path opacity="0.28" fill="#F3F3F3" d="M788.212,591.84c0.682,2.685-0.942,5.414-3.627,6.096c-2.685,0.682-5.414-0.942-6.096-3.627
		c-0.682-2.685,0.942-5.414,3.627-6.096C784.801,587.531,787.53,589.155,788.212,591.84z"/>
	<path opacity="0.28" fill="#F3F3F3" d="M801.456,594.384c0.388,1.528-0.536,3.082-2.065,3.47c-1.528,0.388-3.082-0.536-3.47-2.065
		c-0.388-1.529,0.536-3.082,2.065-3.47C799.514,591.931,801.068,592.855,801.456,594.384z"/>
</g>
<g>
	<path fill="#4B657E" d="M179.68,612.313c0,0,6.83-19.278,37.918-17.685c31.088,1.593,34.049,21.373,34.049,21.373L179.68,612.313z"
		/>
	<path fill="#3B4E60" d="M147.607,626.982l12.366,39.421c0,0,58.076-19.142,104.474,5.354l19.47-37.79
		C283.917,633.967,220.565,580.617,147.607,626.982z"/>
	<polygon fill="#FFFFFF" points="231.716,630.593 220.854,630.036 221.436,618.675 211.323,618.157 210.741,629.518 
		199.879,628.962 199.406,638.201 210.268,638.757 209.685,650.119 219.798,650.637 220.38,639.275 231.243,639.832 	"/>
</g>
<rect id="SVGID_3_" x="71.994" y="175.467" fill="none" width="920.657" height="483.345"/>
</svg>
