<svg xmlns="http://www.w3.org/2000/svg" viewBox="0 0 750 500" style="enable-background:new 0 0 750 500" xml:space="preserve"><style>.st0{fill:#f5f5f5}.st1{fill:#e0e0e0}.st2{fill:#fff}.st3{fill:#ebebeb}.st5{display:inline}.st6{fill:#263238}.st7{fill:#455a64}.st8{opacity:.3}.st9{fill:#ff725e}.st11{fill:#ffbf9d}.st12{fill:#ff9a6c}.st13{opacity:.6}.st14{fill:#c17560}.st15{fill:#7c4236}.st16{fill:#fafafa}.st17{fill:none;stroke:#4e585d;stroke-width:5.000000e-02;stroke-miterlimit:10}</style><g id="Background_Complete"><path class="st0" d="M348.3 450.4v25.5h78.4v-25.5z"/><path class="st1" d="M345 443.3v7.1h84.4v-7.1h-43.8z"/><path class="st1" d="M387.2 475.9h39.5v-25.5h2.7v-7.1h-43.8v6.5zM359.3 454.5h15.9v3.8h-15.9z"/><path class="st2" d="M357.2 463.2h20.4v8.1h-20.4z"/><path class="st0" d="M360.4 417.9v25.4H438.7v-25.4z"/><path class="st1" d="M357.1 410.7v7.2h84.3v-7.2h-43.8z"/><path class="st1" d="M399.3 443.3h39.4v-25.4h2.7v-7.2h-43.8v6.5zM371.3 422h15.9v3.8h-15.9z"/><path class="st2" d="M369.3 430.6h20.4v8.1h-20.4z"/><path class="st0" d="M39 469.2c-1-.9-3.3-3.6-1.5-6.8.6-1.2 2-1.7 3.2-2.3 1.2-.5 2.5-1 3.5-1.8 1.9-1.6 2.4-4.3 3.7-6.5 1.5-2.5 4.2-4.3 7-4.2 3.3.1 6 2.8 7.2 5.9 1.2 3.1 1.3 6.4 1.3 9.7 0 1.8-.1 3.9-1.4 5.1-1.2 1.1-3.1 1.1-4.8 1.1-6-.2-11.9-.4-17.9-.5"/><path class="st1" d="M73.2 420H26.1l8.5 50.6c.4 2.2 2 3.9 4 4.5h.2c.1 0 .3.1.4.1.3.1.6.1 1 .1h21.2c.4 0 .8 0 1.2-.1 2.5-.4 4.5-2.4 4.8-4.9l4.1-34.8.2-1.4 1.6-13.8-.1-.3zm-8.9 32.3h-4.8l.5-14.7h5.6l-1.3 14.7zm1.7-14.7h4.6l-1.7 14.7h-4.2l1.3-14.7zm-13.8 30.9-.3-12.7h7l-.4 12.7h-6.3zm-7.5-12.7h6.8l.3 12.7h-6.1l-1-12.7zm.5 12.7h-5.7c-.5-3.4-1.2-7.9-2-12.7h6.7l1 12.7zm-.8-16.2-1.1-14.7h7.8l.3 14.7h-7zm7.5 0-.3-14.7h8l-.6 14.7h-7.1zm-.5-18.2-.3-13.6H60l-.5 13.6h-8.1zm-.4 0h-8l-1-13.6h8.7l.3 13.6zm-8.4 0h-8.4c-.3-1.9-.6-3.7-.8-5.3-.9-5.5-1.2-7.6-1.4-8.3h9.6l1 13.6zm.2 3.5 1.1 14.7h-7c-.2-1.5-.5-3-.7-4.5-.5-3.5-1.1-6.9-1.6-10.2h8.2zm-6.3 14.7H32l-2.5-14.7h4.7c.8 4.5 1.5 9.6 2.3 14.7zm.6 3.5c.7 4.4 1.4 8.8 2 12.7h-4.4l-2.1-12.7h4.5zm21.8 12.7.4-12.7H64l-1.1 12.7h-4zm1.2-34.4.5-13.6H67l-1.2 13.6h-5.7zm-28.6-13.6c.2 1 1 6.3 2.2 13.6H29l-2.3-13.6h4.8zm35.5 48h-3.6l1.1-12.7h4L67 468.5zm4.1-34.4h-4.7l1.2-13.6h5.2l-1.7 13.6zM629.5 43.1h85.4v123.8h-85.4z"/><path class="st0" d="M625.3 43.1h85.4v123.8h-85.4z"/><path class="st2" d="M635.9 56.5h64.2v97h-64.2z"/><path class="st1" d="M700.1 153.5V146.3c0-4.6 0-11.4-.1-20 0-17.1-.1-41.3-.1-69.9l.2.2h-64.2l.2-.2v97l-.2-.2c19.6 0 35.6.1 46.7.1h16.3c.8.2 1.2.2 1.2.2h-17.4c-11.2 0-27.2.1-46.8.1h-.2V56.2H700.3v.2c0 28.6-.1 52.9-.1 70 0 8.5 0 15.3-.1 19.9V153.5z"/><path class="st1" d="M710.9 43.1s-.5.9-1.5 2.2c-1 1.3-2.4 3.1-4 5.1-1.6 2-3.1 3.7-4.2 4.9-1.1 1.2-1.8 2-1.9 1.9 0 0 .6-.9 1.6-2.1 1.1-1.4 2.6-3.1 4.1-5 1.6-1.9 3-3.6 4.1-5 1.1-1.3 1.8-2 1.8-2z"/><path class="st2" d="M700.4 153.2c3.2 5.1 7 9.8 11.2 14"/><path class="st1" d="M711.6 167.2s-.8-.6-2-1.8c-1.1-1.2-2.7-2.8-4.2-4.8-1.6-1.9-2.8-3.8-3.7-5.2-.9-1.4-1.4-2.3-1.3-2.3.1 0 .6.8 1.6 2.1.9 1.3 2.3 3.1 3.8 5.1 1.5 1.9 3 3.6 4.1 4.8 1.1 1.3 1.8 2.1 1.7 2.1z"/><path class="st2" d="M625.2 166.8c3.7-4.6 7.5-9.2 11.2-13.8"/><path class="st1" d="M636.4 153c.1.1-2.3 3.2-5.4 7-3.1 3.8-5.7 6.8-5.8 6.8-.1-.1 2.3-3.2 5.4-7.1 3.2-3.7 5.7-6.8 5.8-6.7zM625.3 43.1c.1-.1 2.5 2.8 5.4 6.5 2.9 3.7 5.2 6.7 5.1 6.8-.1.1-2.5-2.8-5.4-6.5-3-3.7-5.2-6.7-5.1-6.8zM660.2 76.1v.2c0 .1 0 .3.1.5.1.5.2 1.2.4 2.1.2.9.6 1.9 1.2 3.1.6 1.1 1.5 2.3 2.7 3.4 1.2 1.1 2.7 2.1 4.2 3.3 1.6 1.1 3.1 2.5 4.5 4.2 1.4 1.7 2.5 3.7 3.3 5.9.8 2.2 1.2 4.7 1.1 7.2-.1 2.5-.8 4.9-1.8 7-1 2.1-2.4 4-4 5.5s-3.2 2.7-4.6 4c-1.4 1.3-2.5 2.7-3.2 4.2-.7 1.5-1.1 2.9-1.3 4.2-.2 1.3-.2 2.4-.1 3.3 0 .5.1.9.1 1.2.1.3.1.6.2.9.1.2.1.4.1.5v.2s0-.1-.1-.2c0-.1-.1-.3-.2-.5s-.1-.5-.2-.9c-.1-.3-.1-.7-.2-1.2-.1-.9-.1-2 .1-3.3.2-1.3.6-2.7 1.3-4.2.7-1.5 1.8-2.9 3.2-4.3 1.4-1.3 3-2.6 4.6-4.1 1.6-1.5 2.9-3.3 3.9-5.4 1-2.1 1.6-4.5 1.7-7 .1-2.5-.3-4.9-1-7.1-.8-2.2-1.9-4.2-3.3-5.9-1.3-1.7-2.9-3-4.5-4.1-1.5-1.1-3-2.2-4.2-3.3-1.2-1.1-2.1-2.3-2.7-3.5-.6-1.2-1-2.2-1.2-3.1-.2-.9-.3-1.6-.4-2.1v-.5c.3-.1.3-.2.3-.2z"/><path class="st1" d="M677.8 73.7s.1 1 0 2.9c0 .9-.1 2.1-.4 3.4-.3 1.3-.7 2.8-1.6 4.2-.2.4-.5.7-.8 1-.3.3-.6.7-.9 1l-2 2c-1.4 1.4-2.9 2.8-4.4 4.4-1.5 1.6-2.8 3.5-3.8 5.7s-1.5 4.6-1.5 7.1.6 5 1.7 7.1c1 2.1 2.6 3.9 4.3 5.2 1.7 1.3 3.6 2.3 5.2 3.4.8.6 1.6 1.1 2.2 1.8.6.7 1.2 1.3 1.7 2 .9 1.4 1.5 2.8 1.8 4.1.3 1.3.4 2.4.4 3.4 0 .9-.1 1.7-.2 2.1 0 .2-.1.4-.1.5v.2-.2c0-.1.1-.3.1-.5.1-.5.1-1.2.1-2.1 0-.9-.1-2.1-.5-3.3-.3-1.3-.9-2.7-1.8-4-.5-.7-1-1.4-1.6-2-.6-.6-1.4-1.2-2.2-1.8-1.6-1.1-3.5-2-5.3-3.4-1.8-1.3-3.3-3.1-4.4-5.3-1.1-2.2-1.7-4.6-1.7-7.2 0-2.6.6-5 1.6-7.2s2.3-4.1 3.8-5.7c1.5-1.6 3-3 4.4-4.4.7-.7 1.4-1.3 2-2 .3-.3.6-.6.9-1 .3-.3.5-.7.7-1 .9-1.4 1.3-2.9 1.6-4.1.3-1.3.4-2.4.4-3.3.1-.9.1-1.6.1-2.1V74c.2-.2.2-.3.2-.3z"/><path class="st1" d="M674.5 85.6c0 .1-2 .3-4.5.5s-4.5.4-4.5.3c0-.1 2-.3 4.5-.5s4.5-.3 4.5-.3zM676.6 82c0 .1-3.2.2-7.2.2-4 .1-7.2.1-7.2 0s3.2-.2 7.2-.2c4-.1 7.2-.1 7.2 0zM677.6 77.7c0 .1-3.9.1-8.6.2h-8.6c0-.1 3.9-.1 8.6-.2 4.8-.1 8.6 0 8.6 0zM674.4 115.3c0 .1-2.1 0-4.7-.2s-4.7-.4-4.7-.4c0-.1 2.1 0 4.7.2s4.7.4 4.7.4zM676.8 109.9h-2c-1.3 0-3-.1-4.9-.2-1.9-.1-3.7-.3-4.9-.4-.6-.1-1.1-.1-1.5-.2-.3 0-.5-.1-.5-.1h.5c.4 0 .9.1 1.5.1 1.3.1 3 .2 4.9.3 1.9.1 3.7.2 4.9.2.6 0 1.1 0 1.5.1.3.2.5.2.5.2zM677.5 104.6h-.6c-.4 0-1-.1-1.7-.2-1.4-.1-3.3-.3-5.5-.4-2.1-.1-4.1-.2-5.5-.2h-2.3 2.3c1.4 0 3.4 0 5.5.1s4.1.3 5.5.5c.7.1 1.3.2 1.7.2h.6zM675.8 98.8H674c-1.1 0-2.6-.1-4.2-.1h-6s.2 0 .5-.1c.3 0 .7 0 1.3-.1 1.1 0 2.6-.1 4.2-.1 1.7 0 3.2.1 4.2.2.5 0 1 .1 1.3.1.3.1.5.1.5.1zM674.4 94.3c0 .1-1.8.1-4.1 0-2.2-.1-4.1-.2-4-.2 0-.1 1.8-.1 4.1 0 2.2 0 4 .1 4 .2zM676.9 124.1h-1.6c-1 0-2.4-.1-3.8-.1-1.5 0-2.8-.1-3.8-.1h-1.6 5.4c1.5 0 2.8.1 3.8.2.5 0 .9.1 1.2.1.2-.1.4-.1.4-.1zM679.2 129.2c0 .1-3.6 0-8-.1s-8-.3-8-.3c0-.1 3.6 0 8 .1s8 .2 8 .3zM680.3 133.1c0 .1-4 .1-8.9.1s-8.9 0-8.9-.1 4-.1 8.9-.1c5 0 8.9 0 8.9.1zM221.6 178.1c0-.6-.4-1.2-.6-1.8-.8-2-.3-4.2-.2-6.4 0-.4 0-.7-.2-1-.2-.3-.6-.4-.9-.2-.2.2-.2.4-.2.6-.1.7-.2 2.4-.6 2.3-.8-.4-1.4-1-1.9-1.7-.1-.2-.3-.4-.5-.6-.2-.2-.5-.2-.7-.1-.4.2-.3.7-.2 1.1.7 2 2.9 3.1 3.6 5.1.3.8.3 1.6.3 2.4 0 .4.1.8.3 1.1.2.3.5.6.9.6.5-.1 1-.8.9-1.4zM212.1 183.4c-.4-.5-.9-.8-1.4-1.2-1.7-1.3-2.4-3.5-3.4-5.4-.2-.3-.4-.6-.7-.8s-.8-.1-.9.3c-.1.2 0 .4.1.7.3.7 1 2.2.7 2.3-.9.1-1.7-.2-2.5-.6-.2-.1-.5-.2-.7-.3-.3 0-.6 0-.7.3-.2.4.1.8.4 1.1 1.6 1.3 4.1 1.2 5.6 2.6.6.5 1 1.2 1.5 1.9.2.3.5.6.8.8.3.2.7.3 1.1.1.5-.4.5-1.2.1-1.8zM206.9 195.4c-.6 0-1.2.2-1.8.4-2.1.5-4.2-.2-6.3-.6-.3-.1-.7-.1-1 0-.3.2-.5.6-.3.9.1.2.4.3.6.3.7.2 2.4.5 2.2.9-.5.8-1.2 1.2-2 1.6-.2.1-.5.2-.7.4-.2.2-.3.5-.2.7.1.4.7.4 1.1.3 2-.5 3.5-2.5 5.5-2.9.8-.2 1.6-.1 2.4 0 .4 0 .8 0 1.1-.1.3-.1.7-.4.7-.8 0-.5-.6-1-1.3-1.1zM237.9 191.6c.6-.1 1.2-.4 1.8-.7 2-.9 4.2-.5 6.4-.4.4 0 .7 0 1-.2.3-.2.4-.7.2-.9-.2-.2-.4-.2-.6-.2-.7-.1-2.4-.2-2.4-.5.4-.8 1-1.4 1.7-1.9.2-.2.4-.3.6-.5.2-.2.2-.5.1-.7-.2-.4-.7-.3-1.1-.2-1.9.8-3 3-5 3.7-.7.3-1.6.3-2.4.4-.4 0-.8.1-1.1.3-.3.2-.6.5-.6.9 0 .6.7 1 1.4.9zM230.5 181.7c.5-.4.7-1.1 1-1.6 1-1.9 3.1-2.9 4.8-4.2.3-.2.6-.4.7-.8.1-.3-.1-.8-.4-.8-.2 0-.4.1-.6.2-.6.4-2 1.4-2.2 1-.2-.9-.1-1.7.2-2.6.1-.2.2-.5.2-.8 0-.3-.1-.5-.4-.6-.4-.2-.8.2-1 .6-1.1 1.8-.6 4.2-1.7 6-.4.7-1.1 1.2-1.6 1.8-.3.3-.5.5-.7.9-.1.3-.1.8.1 1.1.3.4 1.1.3 1.6-.2zM236.1 202.3c.4.5 1 .8 1.5 1.1 1.8 1.2 2.6 3.4 3.7 5.2.2.3.4.6.7.8.3.1.8 0 .9-.3.1-.2-.1-.4-.2-.6-.3-.6-1.1-2.2-.8-2.3.9-.1 1.7.1 2.5.4.2.1.5.2.7.2.3 0 .5-.1.7-.3.2-.4-.1-.8-.4-1-1.7-1.2-4.1-1-5.8-2.3-.6-.5-1.1-1.2-1.6-1.8-.2-.3-.5-.6-.8-.8-.3-.2-.8-.2-1.1 0-.4.4-.4 1.2 0 1.7zM211.4 204.7c-.5.3-.9.9-1.3 1.4-1.4 1.6-3.6 2.3-5.5 3.2-.3.2-.6.3-.8.6-.2.3-.1.8.2.9.2.1.4 0 .7-.1.7-.3 2.3-.9 2.4-.6 0 .9-.3 1.7-.7 2.5-.1.2-.3.5-.3.7 0 .3 0 .6.2.7.3.2.8 0 1.1-.3 1.4-1.5 1.4-4 2.8-5.5.5-.6 1.3-1 1.9-1.4.3-.2.6-.4.8-.7.2-.3.3-.7.1-1.1-.3-.6-1.1-.6-1.6-.3zM223.6 209.9c0 .6.2 1.2.4 1.8.6 2.1-.2 4.2-.5 6.4-.1.3-.1.7.1 1 .2.3.6.5.9.3.2-.1.2-.4.3-.6.2-.7.5-2.4.9-2.3.8.5 1.2 1.2 1.6 2 .1.2.2.5.4.7.2.2.5.3.7.2.4-.1.4-.7.3-1.1-.5-2-2.5-3.4-2.9-5.5-.2-.8-.1-1.6 0-2.4 0-.4 0-.8-.1-1.1-.1-.3-.4-.7-.8-.7-.7 0-1.2.7-1.3 1.3z"/><circle class="st0" cx="223.3" cy="195.2" r="17.5"/><path class="st1" d="M218.6 188.7c-.2-.2-.6 0-.8.2-.2.2-.4.5-.5.7 0-.3-.1-.6-.2-.8-.2-.3-.5-.4-.8-.3-.2.1-.4.3-.4.5-.3.8 0 1.7.7 2.2.3.2.6.3.9.2.4-.1.7-.3.9-.7.2-.4.4-.8.4-1.3.1-.2 0-.5-.2-.7zM211.1 196.3c-.3.1-.4.4-.4.7 0 .2.1.6.3.8-.2-.2-.5-.3-.8-.4-.3 0-.6.1-.7.4-.1.2 0 .5.1.7.4.7 1.4 1.1 2.1.8.3-.1.6-.3.8-.5.2-.3.2-.8.1-1.1-.1-.4-.4-.8-.7-1.1-.2-.2-.5-.4-.8-.3zM220.3 204c-.3-.1-.6 0-.7.3-.1.2-.3.5-.4.8 0-.3-.1-.6-.3-.8-.2-.2-.5-.4-.8-.2-.2.1-.3.3-.4.6-.2.8.2 1.7.9 2.1.3.1.6.2.9.1.4-.1.6-.4.8-.8.2-.4.3-.9.3-1.3.1-.3 0-.7-.3-.8zM225.9 197.4c-.3-.1-.6 0-.7.3-.1.2-.3.5-.4.8 0-.3-.1-.6-.3-.8-.2-.2-.5-.4-.8-.2-.2.1-.3.3-.4.6-.2.8.2 1.7.9 2.1.3.1.6.2.9.1.4-.1.6-.4.8-.8.2-.4.3-.9.3-1.3s-.1-.7-.3-.8zM232.6 203.6c-.3-.1-.6 0-.7.3-.1.2-.3.5-.4.8 0-.3-.1-.6-.3-.8-.2-.2-.5-.4-.8-.2-.2.1-.3.3-.4.6-.2.8.2 1.7.9 2.1.3.1.6.2.9.1.4-.1.7-.4.8-.8.2-.4.3-.9.3-1.3.1-.4 0-.7-.3-.8zM237.4 193.5c-.3 0-.5.3-.5.6v.8c-.1-.2-.4-.5-.6-.6-.3-.1-.6-.1-.8.2-.1.2-.1.4-.1.7.2.8 1 1.4 1.8 1.4.3 0 .6-.1.9-.3.3-.3.4-.7.4-1.1 0-.5-.1-.9-.4-1.3-.2-.2-.5-.4-.7-.4zM228.5 188.2c-.3 0-.5.3-.5.6v.8c-.1-.2-.4-.5-.6-.6-.3-.1-.6-.1-.8.2-.1.2-.1.4-.1.7.2.8 1 1.4 1.8 1.4.3 0 .6-.1.9-.3.3-.3.4-.7.4-1.1 0-.5-.1-.9-.4-1.3-.2-.1-.4-.4-.7-.4zM222.8 181.1c-.3-.1-.6 0-.8.2-.2.2-.3.5-.4.7 0-.3-.1-.6-.2-.8-.2-.3-.5-.4-.8-.3-.2.1-.3.3-.4.5-.2.8.1 1.7.8 2.2.3.2.6.3.9.2.4-.1.7-.4.9-.7.2-.4.3-.9.3-1.3 0-.3-.1-.6-.3-.7zM235.7 185.5c-.2-.2-.5-.3-.8-.2-.2.1-.5.3-.7.5.1-.3.2-.6.2-.8 0-.3-.3-.6-.6-.6-.2 0-.4.1-.6.3-.6.6-.7 1.6-.3 2.3.2.3.4.5.7.6.4.1.8 0 1.1-.2.4-.2.7-.6.9-1 .2-.4.3-.7.1-.9zM210.4 187.8c-.2.2-.3.5-.2.8.1.2.2.5.3.6-.2-.1-.4-.1-.7-.1-.3.1-.5.3-.6.6 0 .2.1.4.2.6.4.5 1.3.6 1.9.1.2-.2.5-.4.5-.7.1-.4 0-.7-.1-1-.2-.4-.4-.6-.8-.8 0-.2-.3-.2-.5-.1zM447.7 269.7c2-1.5 4.9-1.1 6.4.9s1.1 4.9-.9 6.4-4.9 1.1-6.4-.9c-1.6-2-1.2-4.9.9-6.4zM431.9 262c2-1.5 4.9-1.1 6.4.9s1.1 4.9-.9 6.4-4.9 1.1-6.4-.9-1.1-4.9.9-6.4z"/><path class="st1" d="M445.5 278.9c2-1.5 4.9-1.1 6.4.9s1.1 4.9-.9 6.4-4.9 1.1-6.4-.9c-1.6-2.1-1.1-4.9.9-6.4zM433.5 253.7c2-1.5 4.9-1.1 6.4.9s1.1 4.9-.9 6.4-4.9 1.1-6.4-.9c-1.5-2.1-1.1-4.9.9-6.4zM450.7 261.9c2-1.5 4.9-1.1 6.4.9s1.1 4.9-.9 6.4-4.9 1.1-6.4-.9-1.1-4.9.9-6.4z"/><path class="st1" d="M444.1 262.4c2-1.5 4.9-1.1 6.4.9s1.1 4.9-.9 6.4-4.9 1.1-6.4-.9c-1.5-2.1-1.1-4.9.9-6.4zM461.4 259.8c2-1.5 4.9-1.1 6.4.9s1.1 4.9-.9 6.4-4.9 1.1-6.4-.9c-1.6-2-1.2-4.9.9-6.4z"/><path class="st3" d="M440.7 264.9c2-1.5 4.9-1.1 6.4.9s1.1 4.9-.9 6.4-4.9 1.1-6.4-.9-1.1-4.9.9-6.4zM457.1 265.9c2-1.5 4.9-1.1 6.4.9s1.1 4.9-.9 6.4-4.9 1.1-6.4-.9c-1.6-2-1.2-4.9.9-6.4z"/><path class="st3" d="M454.7 257.5c2-1.5 4.9-1.1 6.4.9s1.1 4.9-.9 6.4-4.9 1.1-6.4-.9c-1.6-2.1-1.1-4.9.9-6.4z"/><path class="st3" d="M448 254.9c2-1.5 4.9-1.1 6.4.9s1.1 4.9-.9 6.4-4.9 1.1-6.4-.9-1.1-4.9.9-6.4zM464.3 270.2c2-1.5 4.9-1.1 6.4.9s1.1 4.9-.9 6.4-4.9 1.1-6.4-.9c-1.5-2.1-1.1-4.9.9-6.4zM441.9 272.8c2-1.5 4.9-1.1 6.4.9s1.1 4.9-.9 6.4-4.9 1.1-6.4-.9c-1.6-2.1-1.2-4.9.9-6.4z"/><path class="st3" d="M437.1 278.8c2-1.5 4.9-1.1 6.4.9s1.1 4.9-.9 6.4-4.9 1.1-6.4-.9c-1.6-2-1.1-4.9.9-6.4zM437.4 257c2-1.5 4.9-1.1 6.4.9s1.1 4.9-.9 6.4-4.9 1.1-6.4-.9-1.2-4.9.9-6.4zM49.6 218.5c.4.5.8.9 1.2 1.4.1.2.4.3.6.3.2 0 .5-.1.6-.3.2-.2.3-.4.3-.6v-.2c0-.1-.1-.3-.2-.4-.4-.5-.8-.9-1.2-1.4-.1-.2-.4-.3-.6-.3-.2 0-.5.1-.6.3-.2.2-.3.4-.3.6v.2c0 .2.1.3.2.4zM55.4 214.5c.1.6.3 1.2.5 1.8.1.2.2.4.4.5.2.1.5.2.7.1.2-.1.4-.2.5-.4.1-.2.2-.4.1-.7-.2-.6-.4-1.2-.5-1.8 0-.2-.2-.4-.4-.5-.2-.1-.5-.2-.7-.1-.4.2-.7.6-.6 1.1zM64 214.6c-.3.4-.6.9-.8 1.4-.1.1-.1.2-.1.3v.3c.1.2.2.4.4.5.2.1.4.2.7.1.2-.1.4-.2.5-.4.2-.5.5-1 .8-1.4.1-.1.1-.2.1-.3v-.3c-.1-.2-.2-.4-.4-.5-.2-.1-.4-.2-.7-.1-.1 0-.1.1-.2.1l-.3.3zM68.5 221.5c.6-.4 1.3-.8 1.9-1.2.2-.1.3-.3.4-.5.1-.2 0-.5-.1-.7-.1-.2-.3-.3-.5-.4-.2-.1-.5 0-.7.1-.6.4-1.3.8-1.9 1.2-.2.1-.3.3-.4.5-.1.2 0 .5.1.7.1.2.3.3.5.4.3 0 .5 0 .7-.1zM69.8 227.1c.9 0 1.8.1 2.7.1.5 0 .9-.4.9-.9s-.4-.8-.9-.9c-.9 0-1.8-.1-2.7-.1-.5 0-.9.4-.9.9.1.5.4.9.9.9zM68.1 232.8c.6.5 1.3.9 1.9 1.4.2.1.5.1.7.1.2-.1.4-.2.5-.4.1-.2.2-.4.1-.7-.1-.2-.2-.4-.4-.5-.6-.5-1.3-.9-1.9-1.4-.2-.1-.5-.1-.7-.1-.2.1-.4.2-.5.4-.1.2-.2.4-.1.7.1.3.2.4.4.5zM63.8 236.5c.3.5.6 1.1.9 1.6.1.2.3.3.5.4.2.1.5 0 .7-.1.2-.1.3-.3.4-.5.1-.2 0-.5-.1-.7-.3-.5-.6-1.1-.9-1.6-.1-.2-.3-.3-.5-.4-.2-.1-.5 0-.7.1-.2.1-.3.3-.4.5-.1.2-.1.5.1.7zM57.5 236.7c-.1.5-.2 1.1-.3 1.6 0 .2 0 .5.1.7.1.2.3.3.5.4.2.1.5 0 .7-.1.2-.1.4-.3.4-.5.1-.5.2-1.1.3-1.6 0-.2 0-.5-.1-.7-.1-.2-.3-.3-.5-.4-.2-.1-.5 0-.7.1-.2.1-.3.3-.4.5zM52.2 236.6c.2-.2.4-.5.7-.7-.1 0-.1.1-.2.1.1-.1.2-.2.4-.3.2-.1.3-.3.4-.5v-.3c0-.1 0-.2-.1-.3-.1-.2-.3-.3-.5-.4-.2-.1-.5 0-.7.1-.5.3-.9.6-1.3 1.1-.2.2-.3.4-.3.6 0 .1 0 .2.1.3 0 .1.1.2.2.3.2.2.4.3.6.3.3-.1.6-.1.7-.3zM47.5 231.9c.5-.2 1-.5 1.5-.7l-.9-1.5c-.1 0-.2.1-.3.1l.9 1.5c.3-.2.7-.3 1-.5.2-.1.3-.3.4-.5.1-.2 0-.5-.1-.7-.1-.2-.3-.3-.5-.4-.2-.1-.4 0-.7.1-.3.2-.7.3-1 .5-.2.1-.3.3-.4.5-.1.2 0 .5.1.7.1.2.3.3.5.4h.2c.2 0 .3 0 .4-.1.1 0 .2-.1.3-.1.2-.1.3-.3.4-.5.1-.2 0-.5-.1-.7-.1-.2-.3-.3-.5-.4h-.2c-.2 0-.3 0-.4.1-.5.2-1 .5-1.5.7-.2.1-.3.3-.4.5-.1.2 0 .5.1.7.1.2.3.3.5.4h.2c.2 0 .4 0 .5-.1zM46.4 224.9c.7.1 1.4.3 2.1.4.2 0 .5 0 .7-.1.2-.1.3-.3.4-.5.1-.2 0-.5-.1-.7-.1-.2-.3-.4-.5-.4-.7-.1-1.4-.3-2.1-.4-.2 0-.5 0-.7.1-.2.1-.3.3-.4.5-.1.2 0 .5.1.7.1.2.2.4.5.4z"/><circle transform="rotate(-79.479 59.635 226.594)" class="st1" cx="59.6" cy="226.6" r="11.7"/><path class="st1" d="M58.8 213.7c0 .4 0 .8-.1 1.2 0 .2 0 .3.1.5s.1.3.3.4c.1.1.3.2.4.3.2.1.3.1.5.1h.3l.6-.3c.1-.1.1-.2.2-.3.1-.2.2-.4.2-.7 0-.4 0-.8.1-1.2 0-.2 0-.3-.1-.5s-.1-.3-.3-.4c-.1-.1-.3-.2-.4-.3-.2-.1-.3-.1-.5-.1h-.3l-.6.3c-.1.1-.1.2-.2.3-.2.2-.2.5-.2.7zM67.4 219.6c.5-.5 1-1 1.6-1.5.1-.1.2-.3.3-.4.1-.2.1-.3.1-.5s0-.3-.1-.5-.1-.3-.3-.4c-.2-.2-.6-.4-.9-.4-.3 0-.7.1-.9.4-.5.5-1 1-1.6 1.5-.1.1-.2.3-.3.4-.1.2-.1.3-.1.5s0 .3.1.5.1.3.3.4c.2.2.6.4.9.4.3 0 .6-.1.9-.4zM70.1 224.6l2.1-.3c.2 0 .3-.1.4-.2.1-.1.3-.2.3-.4.2-.3.2-.7.1-1-.1-.3-.3-.6-.6-.8-.1 0-.2-.1-.3-.1-.2-.1-.5-.1-.7 0l-2.1.3c-.2 0-.3.1-.4.2-.1.1-.3.2-.3.4-.2.3-.2.7-.1 1 .1.3.3.6.6.8.1 0 .2.1.3.1h.7zM69.8 230.7c.6.3 1.2.5 1.8.8.2.1.3.1.5 0 .2 0 .3-.1.5-.2s.3-.2.4-.3c.1-.1.2-.3.2-.4.1-.3.1-.7-.1-1-.1-.1-.1-.2-.2-.3-.2-.2-.4-.3-.6-.3-.6-.3-1.2-.5-1.8-.8-.2-.1-.3-.1-.5 0-.2 0-.3.1-.5.2s-.3.2-.4.3c-.1.1-.2.3-.2.4-.1.3-.1.7.1 1 .1.1.1.2.2.3.2.1.3.2.6.3zM65.9 235.6l1.1 1.1c.1.1.3.2.4.3.2.1.3.1.5.1s.3 0 .5-.1.3-.1.4-.3c.1-.1.1-.2.2-.3.1-.2.2-.4.2-.7v-.3l-.3-.6-1.1-1.1c-.1-.1-.3-.2-.4-.3-.2-.1-.3-.1-.5-.1s-.3 0-.5.1-.3.1-.4.3c-.1.1-.1.2-.2.3-.1.2-.2.4-.2.7v.3c0 .3.1.5.3.6zM60.1 236.6v1.7c0 .3.1.7.4.9.1.1.3.2.4.3.2.1.3.1.5.1.3 0 .7-.1.9-.4.2-.3.4-.6.4-.9v-1.7c0-.3-.1-.7-.4-.9-.1-.1-.3-.2-.4-.3-.2-.1-.3-.1-.5-.1-.3 0-.7.1-.9.4-.2.2-.4.5-.4.9zM55.1 238.9c.4-.6.8-1.1 1.1-1.8.2-.3.2-.7.1-1 0-.2-.1-.3-.2-.4-.1-.1-.2-.3-.4-.3-.3-.2-.7-.2-1-.1-.3.1-.6.3-.8.6-.3.6-.7 1.2-1.1 1.8-.1.1-.1.3-.2.5v.5c0 .2.1.3.2.4.1.1.2.3.4.3.3.2.7.2 1 .1.1 0 .2-.1.3-.1.4-.1.5-.3.6-.5zM49.1 235.2c.6-.3 1.1-.7 1.6-1.1.2-.1.3-.2.4-.3.1-.1.2-.3.2-.4.1-.2.1-.3 0-.5 0-.2-.1-.3-.2-.5-.2-.3-.4-.5-.8-.6H50c-.2 0-.5.1-.7.2-.5.4-1 .7-1.6 1.1-.2.1-.3.2-.4.3-.1.1-.2.3-.2.4-.1.2-.1.3 0 .5 0 .2.1.3.2.5.2.3.4.5.8.6.3 0 .6 0 1-.2zM45.9 228.6h2.3c.3 0 .7-.1.9-.4.2-.2.4-.6.4-.9 0-.3-.1-.7-.4-.9-.3-.2-.6-.4-.9-.4h-2.3c-.3 0-.7.1-.9.4-.2.2-.4.6-.4.9 0 .3.1.7.4.9.3.3.6.4.9.4zM47.1 221.4c.7.4 1.3.8 2 1.1.3.2.7.2 1 .1.3-.1.6-.3.8-.6.2-.3.2-.7.1-1-.1-.3-.3-.6-.6-.8-.7-.4-1.3-.8-2-1.1-.3-.2-.7-.2-1-.1-.3.1-.6.3-.8.6-.2.3-.2.7-.1 1 .1.3.3.6.6.8zM51.8 216.1c.4.6.8 1.2 1.3 1.8.1.2.2.3.3.4.1.1.3.2.4.2.2.1.3.1.5 0 .2 0 .3-.1.5-.2.3-.2.5-.4.6-.8.1-.3.1-.7-.1-1-.4-.6-.8-1.2-1.3-1.8-.1-.2-.2-.3-.3-.4-.1-.1-.3-.2-.4-.2-.2-.1-.3-.1-.5 0-.2 0-.3.1-.5.2-.3.2-.5.4-.6.8-.1.3-.1.7.1 1z"/><path class="st0" d="M58.7 231c.7 0 1.3-.6 1.3-1.3 0-.7-.6-1.3-1.3-1.3-.7 0-1.3.6-1.3 1.3.1.7.6 1.3 1.3 1.3z"/><path class="st3" d="M63.2 230.2c.7 0 1.3-.6 1.3-1.3 0-.7-.6-1.3-1.3-1.3-.7 0-1.3.6-1.3 1.3.1.7.6 1.3 1.3 1.3zM66.7 222.7c.6 0 1.1-.5 1.1-1.1 0-.6-.5-1.1-1.1-1.1-.6 0-1.1.5-1.1 1.1.1.6.5 1.1 1.1 1.1z"/><path class="st0" d="M56.4 223.2c.7 0 1.3-.6 1.3-1.3 0-.7-.6-1.3-1.3-1.3-.7 0-1.3.6-1.3 1.3 0 .8.5 1.3 1.3 1.3zM62.8 221.6c.7 0 1.3-.6 1.3-1.3 0-.7-.6-1.3-1.3-1.3-.7 0-1.3.6-1.3 1.3.1.7.6 1.3 1.3 1.3zM51.9 227.9c.7 0 1.3-.6 1.3-1.3 0-.7-.6-1.3-1.3-1.3-.7 0-1.3.6-1.3 1.3.1.7.6 1.3 1.3 1.3zM62.5 235c.7 0 1.3-.6 1.3-1.3 0-.7-.6-1.3-1.3-1.3-.7 0-1.3.6-1.3 1.3 0 .7.6 1.3 1.3 1.3z"/><path class="st3" d="M54.6 230.3c.5 0 .9-.4.9-.9s-.4-.9-.9-.9-.9.4-.9.9c.1.5.4.9.9.9zM56.1 226.2c.5 0 .9-.4.9-.9s-.4-.9-.9-.9-.9.4-.9.9c0 .6.4.9.9.9zM61 226.9c.5 0 .9-.4.9-.9s-.4-.9-.9-.9-.9.4-.9.9.4.9.9.9zM55 219.7c.5 0 .9-.4.9-.9s-.4-.9-.9-.9-.9.4-.9.9.4.9.9.9zM60.2 223.1c.5 0 .9-.4.9-.9s-.4-.9-.9-.9-.9.4-.9.9c.1.5.4.9.9.9zM68.7 226.2c.5 0 .9-.4.9-.9s-.4-.9-.9-.9-.9.4-.9.9c.1.5.4.9.9.9zM50.3 230.9c.5 0 .9-.4.9-.9s-.4-.9-.9-.9-.9.4-.9.9c.1.5.5.9.9.9zM59.8 218.3c.5 0 .9-.4.9-.9s-.4-.9-.9-.9-.9.4-.9.9c.1.5.4.9.9.9z"/><path class="st0" d="M65 226c.5 0 .9-.4.9-.9s-.4-.9-.9-.9-.9.4-.9.9.4.9.9.9z"/><path class="st3" d="M66.9 231.1c.5 0 .9-.4.9-.9s-.4-.9-.9-.9-.9.4-.9.9c.1.5.4.9.9.9zM57.8 235.3c.5 0 .9-.4.9-.9s-.4-.9-.9-.9-.9.4-.9.9c.1.5.4.9.9.9z"/><path class="st0" d="M54.1 233.8c.5 0 .9-.4.9-.9s-.4-.9-.9-.9-.9.4-.9.9c.1.5.4.9.9.9z"/><path class="st3" d="M51.6 223.5c.5 0 .9-.4.9-.9s-.4-.9-.9-.9-.9.4-.9.9c.1.5.5.9.9.9z"/><path class="st1" d="M634.9 192.8h70v101.5h-70z"/><path class="st0" d="M631.4 192.8h70v101.5h-70z"/><path class="st2" d="M640.1 203.8h52.6v79.5h-52.6z"/><path class="st1" d="M692.7 283.3V261c0-14-.1-33.9-.1-57.2l.2.2h-52.6l.2-.2v79.5l-.2-.2c16 0 29.2.1 38.3.1H691.9c.5.1.8.1.8.1h-14.1c-9.2 0-22.3 0-38.4.1h-.2v-79.9H693v.2c0 23.4-.1 43.3-.1 57.4V282.8c-.2.4-.2.5-.2.5z"/><path class="st1" d="M701.6 192.8s-.4.7-1.2 1.8c-.8 1.1-2 2.6-3.3 4.2-1.3 1.6-2.5 3-3.5 4-.9 1-1.5 1.6-1.5 1.6s.5-.7 1.3-1.7c.9-1.1 2.1-2.5 3.4-4.1 1.3-1.5 2.4-3 3.4-4.1.8-1.1 1.3-1.7 1.4-1.7z"/><path class="st2" d="M693 283c2.6 4.2 5.7 8 9.2 11.5"/><path class="st1" d="M702.1 294.5s-.7-.5-1.6-1.5c-.9-.9-2.2-2.3-3.5-3.9-1.3-1.6-2.3-3.1-3-4.2-.7-1.1-1.1-1.9-1.1-1.9s.5.6 1.3 1.7 1.9 2.6 3.1 4.1c1.3 1.6 2.5 3 3.4 4 .9 1.1 1.5 1.7 1.4 1.7z"/><path class="st2" d="M631.4 294.2c3.1-3.8 6.1-7.5 9.2-11.3"/><path class="st1" d="M640.5 282.9c.1.1-1.9 2.7-4.4 5.8-2.5 3.1-4.7 5.6-4.7 5.5-.1-.1 1.9-2.7 4.4-5.8 2.5-3.1 4.7-5.6 4.7-5.5zM631.4 192.8c.1-.1 2.1 2.3 4.5 5.3s4.2 5.5 4.2 5.6c-.1.1-2.1-2.3-4.5-5.3s-4.3-5.5-4.2-5.6zM674.7 243.6c0 2.4-1.9 4.3-4.3 4.3s-4.3-1.9-4.3-4.3 1.9-4.3 4.3-4.3c2.3 0 4.3 2 4.3 4.3zM677 228.4c0 1.8-1.4 3.2-3.2 3.2-1.8 0-3.2-1.4-3.2-3.2 0-1.8 1.4-3.2 3.2-3.2 1.7 0 3.2 1.4 3.2 3.2zM664.4 233.4c0 1.3-1 2.3-2.3 2.3-1.3 0-2.3-1-2.3-2.3 0-1.3 1-2.3 2.3-2.3 1.2-.1 2.3 1 2.3 2.3zM677.3 257.9c-.6.6-1.5.6-2.1 0-.6-.6-.6-1.5 0-2.1.6-.6 1.5-.6 2.1 0 .6.6.6 1.5 0 2.1zM657.6 246.4c0 1.3-1 2.3-2.3 2.3-1.3 0-2.3-1-2.3-2.3 0-1.3 1-2.3 2.3-2.3 1.2 0 2.3 1 2.3 2.3z"/><path class="st1" d="M670.3 243.6c.1-.1 1.6 2.7 3.2 6.2s2.8 6.4 2.7 6.5c-.1.1-1.6-2.7-3.2-6.2s-2.8-6.4-2.7-6.5zM670 244.1c0 .2-3.1.8-7 1.3-3.9.6-7.1.9-7.1.8 0-.2 3.1-.8 7-1.3 3.9-.6 7.1-1 7.1-.8zM669.7 242c-.1.1-2.1-1.5-4.1-4-2-2.5-3.2-4.7-3.1-4.8.1-.1 1.6 2 3.6 4.4 1.9 2.5 3.7 4.3 3.6 4.4zM673.7 228.4v.1l-.1.4-.3 1.5c-.3 1.3-.7 3-1.2 5-1 3.9-1.8 7-2 7-.2 0 .4-3.3 1.4-7.1.5-1.9 1-3.7 1.4-5 .2-.6.4-1.1.5-1.5.1-.2.1-.3.2-.4.1.1.1 0 .1 0s.1 0 0 0c.1 0 0 0 0 0z"/></g><path class="st6" d="M712.6 474.6c0 .1-149.4.3-333.6.3-184.3 0-333.6-.1-333.6-.3 0-.1 149.3-.3 333.6-.3 184.2 0 333.6.1 333.6.3z" id="Floor"/><g id="Plant"><path class="st6" d="M476.1 451.8s-3.5-24.2-3.2-38.2c.3-14.1 0-29.9 0-29.9h1.6s-1.1 27.9.1 44.8c1.2 16.8 4.3 23.4 4.3 23.4h-2.8"/><path class="st7" d="M486.6 356.5c-.3-.8-.7-1.7-1.5-2.2-1-.7-2.4-.4-3.5 0-4.9 1.7-9.2 10.9-11.2 15.7l6.5 21.9c11.7-10.9 13.7-25.1 9.7-35.4z"/><path class="st6" d="M484.7 355.2s0 .1-.1.3c-.1.2-.2.5-.3.8-.3.7-.7 1.7-1.2 2.9-1 2.5-2.2 6-3.3 9.9-1.1 3.9-1.8 7.5-2.3 10.2-.2 1.3-.4 2.4-.5 3.1-.1.3-.1.6-.1.8 0 .2-.1.3-.1.3v-.3c0-.2.1-.5.1-.9.1-.7.2-1.8.4-3.1.4-2.6 1.1-6.3 2.2-10.2 1.1-3.9 2.3-7.4 3.3-9.9.5-1.2.9-2.2 1.2-2.9.1-.3.3-.6.4-.8.3-.1.3-.2.3-.2z"/><path class="st7" d="M474 397.2c-6.1-3.4-9.7-9.7-10-16.7-.2-4.9 1.3-9.6 3-14.2.1-.4.3-.8.7-1 .5-.3 1.2 0 1.7.3 4.4 2.5 7.1 7.3 8.5 12.2.9 3.3 1.4 6.7 1 10s-2.5 7-4.9 9.4"/><path class="st6" d="M474 397.2v-1.1c0-.7 0-1.8-.1-3.1-.1-2.6-.5-6.2-1.1-10.1-.7-3.9-1.5-7.4-2.1-10-.3-1.2-.5-2.3-.7-3-.1-.3-.1-.6-.2-.8 0-.2-.1-.3 0-.3 0 0 0 .1.1.3.1.2.1.5.2.8.2.7.5 1.7.8 3 .7 2.5 1.5 6 2.2 10 .7 3.9 1 7.5 1.1 10.2V397c-.2.1-.2.2-.2.2z"/><path d="M474 397.2c-6.1-3.4-9.7-9.7-10-16.7-.2-4.9 1.3-9.6 3-14.2.1-.4.3-.8.7-1 .5-.3 1.2 0 1.7.3 4.4 2.5 7.1 7.3 8.5 12.2.9 3.3 1.4 6.7 1 10s-2.5 7-4.9 9.4" class="st8"/><path class="st7" d="M480.9 434.2c6 1.3 10.9 5.5 16.7 7.6 3.8 1.4 8.2 1.8 11.2 4.5-.7-1.9-2.5-3.1-4.2-4.1-4.8-3-9.9-5.4-15.2-7.2-2.7-.9-5.7-1.7-8.4-1M472.2 439.5c-7.5-.1-15.4-6.5-22.9-6.9 7.8-2.5 19-.5 22.9 6.9M475.1 421.5c3.8-1.4 8-1.4 12-.8 4 .6 7.9 1.9 11.7 3.2-.4-2.6-2.5-4.6-4.5-6.3-1.5-1.3-3-2.6-4.7-3.6-1.7-1-3.7-1.7-5.6-1.6-2.4.1-4.7 1.3-6.2 3.1-1.6 1.8-2.4 3.6-2.7 6M459.7 413.2c-4.7-4-11.9-3.6-18.1-3.5 9.6 4.6 19.8 10.8 28.1 17.5.2-4.4-4-8.9-10-14z"/><path d="M459.7 413.2c-4.7-4-11.9-3.6-18.1-3.5 9.6 4.6 19.8 10.8 28.1 17.5.2-4.4-4-8.9-10-14z" class="st8"/><path class="st7" d="M477.2 407.6c2.4-1.6 4.8-3.1 7.3-4.2s4.8-2.9 7.2-4.2c3.1-1.7 5.8-4 8.7-6.1s6-4 9.5-4.5c-2.9-.6-5.8-.3-8.6.5s-5.5 2-8.1 3.2c-3.7 1.7-7.4 3.4-10.5 6.1-3 2.5-5.8 5.2-5.5 9.2"/><path class="st6" d="M497.4 439.5s-.1 0-.2-.1c-.2-.1-.4-.2-.7-.3-.6-.3-1.4-.7-2.4-1.3-.5-.3-1.1-.5-1.7-.8-.6-.3-1.3-.6-2-.9-1.4-.6-2.9-1.2-4.6-1.6-1.7-.4-3.4-.5-4.8-.1-.7.2-1.4.4-2 .6-.6.3-1.2.5-1.6.8-1 .6-1.6 1.2-2.1 1.7-.4.5-.6.8-.7.7 0 0 0-.1.1-.2s.2-.3.5-.6c.4-.5 1.1-1.2 2-1.8.5-.3 1-.6 1.7-.9.6-.3 1.3-.5 2.1-.6 1.5-.4 3.2-.3 4.9.1 1.7.4 3.3 1 4.7 1.6.7.3 1.3.6 1.9.9.6.3 1.2.6 1.7.9 1 .5 1.8 1 2.4 1.3.3.2.5.3.6.4.2.1.2.2.2.2zM466.6 435.8s.2 0 .5.1.7.3 1.2.5c1 .5 2.3 1.3 3.6 2.5 1.2 1.2 2.1 2.5 2.7 3.5.3.5.5.9.6 1.2.1.3.2.5.2.5s-.3-.6-.9-1.6c-.6-1-1.5-2.2-2.7-3.4-1.2-1.2-2.5-2-3.5-2.6-1.1-.4-1.7-.7-1.7-.7zM450 412.8s.1 0 .3.1c.2.1.5.2.9.3.4.1.9.3 1.4.5.6.2 1.2.5 1.8.8 2.7 1.2 6.3 3.3 9.8 6.2 1.7 1.5 3.3 3 4.6 4.5 1.3 1.5 2.4 2.9 3.2 4.1.9 1.2 1.5 2.2 2 2.9.2.3.4.6.5.8.1.2.2.3.2.3s-.1-.1-.2-.3c-.1-.2-.3-.4-.6-.8-.5-.7-1.1-1.7-2-2.9-.9-1.2-2-2.6-3.3-4-1.3-1.5-2.8-3-4.5-4.4-3.5-2.9-7-5-9.7-6.3-.7-.3-1.3-.6-1.8-.8-.5-.2-1-.4-1.4-.6-.4-.2-.7-.3-.9-.4-.2.1-.3 0-.3 0zM486.4 417.3s-.2 0-.6-.1c-.2 0-.4-.1-.7-.1-.3-.1-.6-.1-.9-.1-1.4-.1-3.3 0-5.2 1-.9.5-1.7 1.1-2.3 1.7-.6.6-1.1 1.3-1.5 1.9-.8 1.2-1 2-1 2s0-.2.2-.6c.1-.4.4-.9.7-1.5.4-.6.8-1.3 1.5-1.9.6-.7 1.4-1.3 2.4-1.8 1.9-1 3.9-1.1 5.3-1 .3 0 .7.1.9.1.3.1.5.1.7.2.3.1.5.1.5.2zM493.9 393.8s-.1.1-.3.2c-.2.1-.5.3-.8.5-.7.4-1.8 1-3.1 1.7-1.3.8-2.8 1.7-4.4 2.8-1.6 1.1-3.3 2.5-4.9 4.1-.8.8-1.5 1.7-2 2.6-.5.9-1 1.9-1.4 2.7-.9 1.8-1.6 3.4-2.1 4.7-.5 1.4-.8 2.5-1 3.3-.2.8-.3 1.3-.3 1.3v-.3c0-.2.1-.5.2-.9.2-.8.4-2 .9-3.4s1.2-3 2-4.8c.4-.9.9-1.8 1.4-2.7.5-1 1.2-1.8 2-2.6 1.6-1.6 3.3-3 4.9-4.1 1.6-1.1 3.1-2.1 4.4-2.8 1.3-.7 2.4-1.3 3.1-1.7.4-.2.6-.3.9-.4.4-.1.5-.2.5-.2zM472.9 416.6s-.1-.2-.1-.6c-.1-.5-.2-1-.3-1.7-.3-1.5-.7-3.5-1.4-5.6-.7-2.2-1.5-4-2.1-5.4-.3-.6-.5-1.2-.7-1.6-.2-.4-.3-.6-.2-.6l.3.6c.2.4.5.9.8 1.6.7 1.3 1.5 3.2 2.2 5.4.7 2.2 1.1 4.2 1.4 5.7.1.7.2 1.3.2 1.8-.1.2-.1.4-.1.4z"/><path class="st7" d="M472.3 399.5c-.2-2.8-1.1-5.6-2.4-8.1-3.6-6.9-10.5-12-18.1-13.5 5.6 8.3 11.2 16.7 16.8 25l2.2 4.5c1.4-2.5 1.7-5.1 1.5-7.9z"/><path class="st9" d="M457.4 448.8h39v6.9h-39z"/><path class="st9" d="m460.3 454.4 3.3 21.5h25.9l4-21.5z"/><path class="st6" d="M496.4 455.8c0 .1-8.8.1-19.7.1-10.9 0-19.7-.1-19.7-.1 0-.1 8.8-.1 19.7-.1 10.9-.1 19.7 0 19.7.1z"/></g><g id="Filing_Cabinet"><path class="st7" d="M638.5 347.4h70.6v116.3h-70.6z"/><path class="st6" d="M702.5 383.2v-2c0-1.4 0-3.3-.1-5.8 0-5-.1-12.2-.1-21.1l.2.2c-15.3 0-35.4 0-57.4.1-.2.2.3-.3.3-.2v29l-.3-.2c16.8 0 31.1.1 41.2.1 5.1 0 9.1 0 11.9.1h4c.2-.2.3-.2.3-.2h-4.2c-2.8 0-6.8 0-11.8.1-10.2 0-24.6.1-41.4.1h-.3V354.2l.3-.3c22 0 42.1 0 57.4.1h.2v.2c0 8.9-.1 16.1-.1 21.2 0 2.5 0 4.4-.1 5.8v2z"/><path class="st6" d="m662.8 354.3 2.9 2.7h16.1l3-2.7zM702.5 416.9v-2c0-1.4 0-3.3-.1-5.8 0-5-.1-12.2-.1-21.1l.2.2c-15.3 0-35.4 0-57.4.1-.2.2.3-.3.3-.2v29l-.3-.2c16.8 0 31.1.1 41.2.1 5.1 0 9.1 0 11.9.1h4c.2-.2.3-.2.3-.2h-4.2c-2.8 0-6.8 0-11.8.1-10.2 0-24.6.1-41.4.1h-.3V388l.3-.3c22 0 42.1 0 57.4.1h.2v.2c0 8.9-.1 16.1-.1 21.2 0 2.5 0 4.4-.1 5.8v1.9z"/><path class="st6" d="m662.8 388.1 2.9 2.6h16.1l3-2.6zM702.5 450.6v-2c0-1.4 0-3.3-.1-5.8 0-5-.1-12.2-.1-21.1l.2.2c-15.3 0-35.4 0-57.4.1-.2.2.3-.3.3-.2v29l-.3-.2c16.8 0 31.1.1 41.2.1 5.1 0 9.1 0 11.9.1h4c.2-.2.3-.2.3-.2h-4.2c-2.8 0-6.8 0-11.8.1-10.2 0-24.6.1-41.4.1h-.3V421.6l.3-.3c22 0 42.1 0 57.4.1h.2v.2c0 8.9-.1 16.1-.1 21.2 0 2.5 0 4.4-.1 5.8v2z"/><path class="st6" d="m662.8 421.8 2.9 2.7h16.1l3-2.7zM652.8 469.8c0 3.4-2.7 6.1-6.1 6.1-3.4 0-6.1-2.7-6.1-6.1 0-3.4 2.7-6.1 6.1-6.1 3.3.1 6.1 2.8 6.1 6.1zM706.4 469.8c0 3.4-2.7 6.1-6.1 6.1-3.4 0-6.1-2.7-6.1-6.1 0-3.4 2.7-6.1 6.1-6.1 3.4.1 6.1 2.8 6.1 6.1z"/><path class="st3" d="M697.7 347.9h-14.4c-1.7 0-3-1.3-3-3v-24.8H703l-2.3 2.3v22.5c0 1.6-1.4 3-3 3z"/><path class="st6" d="M697.7 347.9c0-.1.8.1 1.8-.7.5-.4 1-1.1 1.1-2V342c0-4.8-.1-11.6-.1-19.7v-.1l.1-.1 2.3-2.3.2.4H680.4l.3-.3v24.8c0 1.1.6 2.1 1.5 2.6.5.2.9.3 1.5.3h1.5c3.9 0 7.1.1 9.3.1h3.2c-.1.1 0 .2 0 .2h-3.4c-2.2 0-5.4 0-9.3.1h-1.5c-.5 0-1.1-.1-1.6-.3-1-.5-1.8-1.6-1.8-2.9v-25.1h23.6l-.4.4-2.3 2.3.1-.2c0 8-.1 14.8-.1 19.7 0 1.2 0 2.3-.1 3.2-.1 1-.7 1.7-1.2 2.1-.5.4-1 .5-1.4.6-.4.1-.6.1-.6.1z"/><path class="st6" d="M685.7 327.1c0 .1-1.2.1-2.7.1-1.5 0-2.7-.1-2.7-.1 0-.1 1.2-.1 2.7-.1 1.6 0 2.7 0 2.7.1zM682.8 324.1c0 .1-.5.1-1.2.1s-1.2-.1-1.2-.1c0-.1.5-.1 1.2-.1s1.2.1 1.2.1zM685.7 332.9c0 .1-1.2.1-2.7.1-1.5 0-2.7-.1-2.7-.1s1.2-.1 2.7-.1c1.6 0 2.7.1 2.7.1zM682.8 330c0 .1-.5.1-1.2.1s-1.2-.1-1.2-.1.5-.1 1.2-.1 1.2 0 1.2.1zM685.7 338.8c0 .1-1.2.1-2.7.1-1.5 0-2.7-.1-2.7-.1s1.2-.1 2.7-.1c1.6 0 2.7 0 2.7.1zM682.8 335.9c0 .1-.5.1-1.2.1s-1.2-.1-1.2-.1.5-.1 1.2-.1 1.2 0 1.2.1zM685.7 344.7c0 .1-1.2.1-2.7.1-1.5 0-2.7-.1-2.7-.1 0-.1 1.2-.1 2.7-.1 1.6-.1 2.7 0 2.7.1zM682.8 341.7c0 .1-.5.1-1.2.1s-1.2-.1-1.2-.1.5-.1 1.2-.1 1.2 0 1.2.1z"/><path class="st3" d="M664.4 347.7H650c-1.7 0-3-1.3-3-3v-24.8h22.7l-2.3 2.3v22.5c0 1.6-1.4 3-3 3z"/><path class="st6" d="M664.4 347.7c0-.1.8.1 1.8-.7.5-.4 1-1.1 1.1-2v-3.2c0-4.8-.1-11.6-.1-19.7v-.1l.1-.1 2.3-2.3.2.4H647.1l.3-.3v24.8c0 1.1.6 2.1 1.5 2.6.5.2.9.3 1.5.3h1.5c3.9 0 7.1.1 9.3.1h3.2c-.1.2 0 .2 0 .2H661c-2.2 0-5.4 0-9.3.1h-1.5c-.5 0-1.1-.1-1.6-.3-1-.5-1.8-1.6-1.8-2.9v-25.1h23.6l-.4.4-2.3 2.3.1-.2c0 8-.1 14.8-.1 19.7 0 1.2 0 2.3-.1 3.2-.1 1-.7 1.7-1.2 2.1-.5.4-1 .5-1.4.6-.4.1-.6.1-.6.1z"/><path class="st6" d="M652.5 326.9c0 .1-1.2.1-2.7.1-1.5 0-2.7-.1-2.7-.1 0-.1 1.2-.1 2.7-.1 1.5 0 2.7 0 2.7.1zM649.5 324c0 .1-.5.1-1.2.1-.6 0-1.2-.1-1.2-.1 0-.1.5-.1 1.2-.1.7-.1 1.2 0 1.2.1zM652.5 332.8c0 .1-1.2.1-2.7.1-1.5 0-2.7-.1-2.7-.1 0-.1 1.2-.1 2.7-.1 1.5-.1 2.7 0 2.7.1zM649.5 329.8c0 .1-.5.1-1.2.1-.6 0-1.2-.1-1.2-.1 0-.1.5-.1 1.2-.1s1.2.1 1.2.1zM652.5 338.6c0 .1-1.2.1-2.7.1-1.5 0-2.7-.1-2.7-.1 0-.1 1.2-.1 2.7-.1 1.5 0 2.7.1 2.7.1zM649.5 335.7c0 .1-.5.1-1.2.1-.6 0-1.2-.1-1.2-.1s.5-.1 1.2-.1c.7-.1 1.2 0 1.2.1zM652.5 344.5c0 .1-1.2.1-2.7.1-1.5 0-2.7-.1-2.7-.1 0-.1 1.2-.1 2.7-.1 1.5-.1 2.7 0 2.7.1zM649.5 341.5c0 .1-.5.1-1.2.1-.6 0-1.2-.1-1.2-.1 0-.1.5-.1 1.2-.1s1.2.1 1.2.1z"/><path class="st3" d="M670.4 309.1c0 .4.4.8.8.8h1.4v14.2l-8.6 19c-1 2.2.6 4.6 3 4.6h17c2.4 0 3.9-2.4 3-4.6l-8.9-19.6V310h1.3c.5 0 .8-.4.8-.8 0-.5-.4-.8-.8-.8h-8.2c-.5-.1-.8.3-.8.7z"/><path class="st6" d="M670.4 309.1v-.2c0-.1.1-.4.4-.5.3-.1.7-.1 1.1-.1h7.7c.3.1.5.2.6.5.3.5 0 1.2-.6 1.4-.3.1-.5 0-.8.1h-.8l.2-.2c0 3.8 0 8.4.1 13.5v-.1c1.9 4.1 3.9 8.6 6.1 13.4.5 1.2 1.1 2.4 1.7 3.6.3.6.6 1.2.8 1.9.3.6.6 1.3.7 2 .1 1.5-.9 3-2.4 3.5-.4.1-.7.2-1.1.2h-16.5c-.5 0-1 0-1.5-.1-1-.2-1.8-.9-2.3-1.8-.4-.9-.5-1.9-.2-2.8.4-.9.7-1.6 1.1-2.4 2.9-6.3 5.5-12 7.6-16.8v.1c.1-6.6.1-11.5.1-14.2l.1.1h-1.2c-.3 0-.6-.1-.8-.2-.2-.6-.1-.9-.1-.9s0 .2.3.5c.2.1.4.2.7.2h1.3v.1c0 2.7.1 7.6.1 14.2-2.1 4.8-4.7 10.5-7.5 16.8-.3.8-.7 1.6-1.1 2.4-.3.8-.2 1.7.1 2.4.4.8 1.1 1.3 1.9 1.5.4.1.9.1 1.3.1H684c.3 0 .7 0 1-.2 1.3-.4 2.1-1.7 2-3 0-.6-.3-1.2-.6-1.9-.3-.6-.6-1.2-.8-1.9-.6-1.2-1.1-2.4-1.6-3.6-2.2-4.8-4.2-9.3-6-13.4 0-5.1 0-9.7.1-13.5v-.2h1.7c.4-.1.6-.6.4-1-.1-.2-.2-.3-.4-.4h-7.6c-.4 0-.8-.1-1.1 0-.8.5-.7.9-.7.9z"/></g><g id="Screens"><path class="st2" d="M167.7 177.2H57.2c-4.2 0-7.7-3.4-7.7-7.7v-93c0-4.2 3.4-7.7 7.7-7.7h110.5c4.2 0 7.7 3.4 7.7 7.7v93.1c-.1 4.2-3.5 7.6-7.7 7.6z"/><path class="st6" d="M167.7 177.2s.4 0 1.2-.1c.8-.1 1.9-.4 3.2-1.3 1.2-.9 2.5-2.3 3.1-4.5.3-1.1.2-2.3.2-3.5v-4.1c0-11.5 0-28.2-.1-48.8V81.2c-.2-3 .6-6.3-1.3-8.9-.8-1.3-2.1-2.3-3.5-2.8-1.4-.6-3-.5-4.7-.5H57.3c-1.9 0-3.8.8-5.1 2.1-1.4 1.3-2.2 3.1-2.3 5V168c0 .8 0 1.6.1 2.4.1.8.3 1.5.7 2.2.7 1.4 1.8 2.6 3.1 3.3.7.4 1.4.6 2.2.8.8.2 1.5.1 2.3.1H101.2c20.6 0 37.3.1 48.8.1h16.7c.6.3 1 .3 1 .3h-17.9c-11.5 0-28.2 0-48.8.1H58.1c-.8 0-1.6 0-2.4-.1-.8-.2-1.6-.4-2.3-.8-1.4-.8-2.6-2-3.3-3.5-.4-.7-.6-1.6-.7-2.4-.1-.8-.1-1.7-.1-2.5V76.1c.1-2 1-4 2.4-5.4 1.5-1.4 3.5-2.2 5.5-2.2h110.9c.8 0 1.6.2 2.4.5 1.5.6 2.8 1.7 3.7 3 .9 1.3 1.3 3 1.3 4.5V114.8c0 20.6-.1 37.3-.1 48.8v4.1c0 1.3.1 2.5-.2 3.6-.5 2.2-1.9 3.7-3.2 4.5-1.3.8-2.4 1.1-3.2 1.2-.4.1-.7.1-.9.1-.1.1-.2.1-.2.1z"/><path class="st2" d="M239.3 106.6h-43.7c-4.2 0-7.7-3.4-7.7-7.7V63.4c0-4.2 3.4-7.7 7.7-7.7h43.7c4.2 0 7.7 3.4 7.7 7.7V99c0 4.2-3.4 7.6-7.7 7.6z"/><path class="st6" d="M239.3 106.6s.7 0 2.1-.3c1.3-.4 3.3-1.3 4.5-3.6.6-1.1 1-2.6 1-4.1V65.5c0-1.4.1-2.8-.3-4.1-.4-1.3-1.2-2.6-2.2-3.5-1.1-.9-2.4-1.6-3.9-1.8-.7-.1-1.5-.1-2.2-.1H195.7c-1.7 0-3.4.6-4.7 1.7-1.3 1.1-2.2 2.6-2.5 4.3-.2.8-.1 1.7-.1 2.5v33.9c0 .8 0 1.4.2 2.2.6 2.8 2.9 5 5.5 5.6 1.3.4 2.7.2 4 .2h11.2c9.3 0 16.9.1 22.2.1h7.6c.1.1.2.1.2.1h-8.1c-5.3 0-12.8 0-22.2.1h-13.2c-.7 0-1.4-.1-2.1-.2-2.8-.6-5.2-3-5.8-5.9-.2-.7-.2-1.5-.2-2.2V64.5c0-.8 0-1.8.2-2.6.4-1.8 1.3-3.4 2.7-4.6 1.4-1.2 3.2-1.8 5.1-1.8H238.3c.8 0 1.5 0 2.3.1 1.5.2 3 .9 4.1 1.9 1.1 1 1.9 2.3 2.4 3.7.2.7.3 1.4.3 2.1v35.2c.1 1.6-.4 3.1-1 4.2-1.4 2.3-3.4 3.3-4.7 3.6-.7.2-1.2.2-1.6.2-.6.1-.8.1-.8.1zM149.6 87.2h-26c-.5 0-.8-.4-.8-.8 0-.5.4-.8.8-.8h26c.5 0 .8.4.8.8s-.3.8-.8.8zM149.6 91.5h-26c-.5 0-.8-.4-.8-.8 0-.5.4-.8.8-.8h26c.5 0 .8.4.8.8s-.3.8-.8.8zM135.6 96.1h-11.9c-.5 0-.8-.4-.8-.8 0-.5.4-.8.8-.8h11.9c.5 0 .8.4.8.8s-.4.8-.8.8zM103.1 150.1h-26c-.5 0-.8-.4-.8-.8 0-.5.4-.8.8-.8h26c.5 0 .8.4.8.8 0 .5-.3.8-.8.8zM103.1 154.4h-26c-.5 0-.8-.4-.8-.8 0-.5.4-.8.8-.8h26c.5 0 .8.4.8.8 0 .5-.3.8-.8.8zM89.1 159h-12c-.5 0-.8-.4-.8-.8 0-.5.4-.8.8-.8H89c.5 0 .8.4.8.8.1.5-.3.8-.7.8z"/><path class="st9" d="M72 105s.1 0 .2.1.3.3.6.5c.5.4 1.3.9 2.4 1.5 1.1.6 2.5 1.2 4.2 1.7 1.7.5 3.7.8 6 .6 2.2-.1 4.6-.6 7.2-1 2.6-.5 5.4-.8 8.4-.5 3 .3 6 1 9 2.4 2.9 1.3 5.8 3.3 8.1 5.8s4.1 5.4 5.3 8.5c1.2 3 1.6 6.2 1.6 9.2 0 3-.4 5.8-.4 8.4 0 2.6.3 5.1 1.1 7.2.7 2.1 1.8 3.9 2.9 5.3 1.1 1.4 2.2 2.5 3.1 3.3.5.4.9.7 1.3 1 .4.3.7.5 1 .7.3.2.5.3.7.4.1.1.2.1.2.1s-.1 0-.2-.1c-.2-.1-.4-.2-.7-.3-.3-.2-.6-.4-1-.6-.4-.3-.9-.6-1.3-1-1-.8-2.1-1.8-3.2-3.3-1.1-1.4-2.2-3.2-2.9-5.3-.8-2.1-1.2-4.6-1.2-7.2 0-2.6.3-5.4.4-8.4.1-2.9-.4-6-1.6-9-1.1-3-2.9-5.9-5.2-8.4-2.3-2.5-5.1-4.4-8-5.7-2.9-1.3-6-2.1-8.9-2.4-2.9-.3-5.7 0-8.3.4-2.6.4-5 .9-7.3 1-2.3.1-4.3-.2-6-.7-1.7-.5-3.1-1.1-4.2-1.8-1.1-.6-1.9-1.2-2.4-1.6-.3-.2-.5-.4-.6-.5-.3-.2-.3-.3-.3-.3z"/><path class="st9" d="M86.4 85.4s1.1.9 2.8 2.8c.9.9 1.9 2.1 2.9 3.6s2.1 3.3 2.6 5.6c.1.6.2 1.1.3 1.7 0 .6.1 1.2.1 1.8v3.9c0 2.7 0 5.5.1 8.6.1 3 .8 6.1 2 9.2 1.2 3 3.1 5.9 5.6 8.3 2.5 2.4 5.5 4.1 8.6 5.1 3.1 1 6.3 1.2 9.3.8 3-.5 5.7-1.4 8.3-1.9 1.3-.3 2.6-.4 3.9-.5 1.3 0 2.5.1 3.6.3 2.3.4 4.2 1.2 5.8 2.1 1.6.9 2.8 1.9 3.7 2.8.9.9 1.5 1.7 1.9 2.2.2.3.3.5.4.6.1.1.1.2.1.2l-.2-.2c-.1-.1-.3-.4-.5-.6-.4-.5-1-1.3-2-2.2-.9-.9-2.1-1.8-3.7-2.7-1.6-.9-3.5-1.6-5.7-2.1-1.1-.2-2.3-.3-3.5-.3-1.2 0-2.5.2-3.8.5-2.6.5-5.3 1.5-8.3 2-3 .5-6.3.3-9.4-.7-3.1-1-6.2-2.8-8.7-5.2-2.5-2.4-4.4-5.4-5.6-8.4-1.2-3.1-1.9-6.2-2-9.2-.1-3-.1-5.9-.1-8.6V101c0-.6 0-1.2-.1-1.8-.1-.6-.2-1.2-.3-1.7-.5-2.2-1.6-4-2.6-5.5s-2-2.7-2.9-3.6c-.9-.9-1.6-1.6-2-2.1l-.5-.5c0-.3-.1-.4-.1-.4z"/><path class="st9" d="M95.1 100c.1.1-1.6 2.3-3.8 5-2.2 2.7-3.9 4.9-4 4.8-.1-.1 1.6-2.3 3.8-5 2.1-2.7 3.9-4.9 4-4.8zM93.5 94.4c.1.1-2.9 3.3-6.6 7.3-3.7 4-6.8 7.1-6.8 7.1-.1-.1 2.9-3.3 6.6-7.3 3.6-4 6.7-7.1 6.8-7.1zM90.2 89.4c.1.1-3.5 3.9-8 8.7-4.5 4.7-8.2 8.5-8.3 8.5-.1-.1 3.5-3.9 8-8.7 4.6-4.8 8.3-8.6 8.3-8.5zM124.3 128.5c.1.1-2.1 2.1-4.7 4.5-2.7 2.4-4.9 4.3-4.9 4.2-.1-.1 2.1-2.1 4.7-4.5s4.8-4.3 4.9-4.2zM121.2 120.9s-.2.2-.5.6c-.3.4-.8.9-1.4 1.5-1.2 1.2-2.9 2.9-4.9 4.7-1.9 1.8-3.7 3.4-5.1 4.5-.7.6-1.2 1-1.6 1.3-.4.3-.6.5-.6.4s.2-.2.5-.5c.4-.4.9-.8 1.5-1.4 1.3-1.1 3.1-2.7 5-4.5 1.9-1.8 3.7-3.4 4.9-4.6.6-.6 1.1-1 1.5-1.4.5-.4.7-.6.7-.6zM116.7 115.1l-.6.6c-.5.4-1 .9-1.7 1.5-1.5 1.3-3.5 3-5.6 5-2.2 2-4.1 3.9-5.4 5.2l-1.6 1.6-.6.6s.2-.2.5-.6c.4-.4.9-1 1.6-1.7 1.3-1.4 3.2-3.3 5.4-5.3s4.2-3.7 5.7-4.9c.8-.6 1.4-1.1 1.8-1.4.2-.4.5-.6.5-.6zM109.3 111.4s-.1.2-.4.5c-.3.3-.8.7-1.3 1.2-1.1 1-2.6 2.5-4.2 4.1-1.6 1.6-3 3.1-4.1 4.2-.5.5-.9.9-1.2 1.3-.3.3-.5.5-.5.4 0 0 .1-.2.4-.5.3-.3.7-.8 1.2-1.3 1-1.1 2.4-2.6 4-4.2s3.1-3 4.2-4c.6-.5 1-.9 1.3-1.2.4-.4.6-.6.6-.5zM103.6 108.4c.1.1-1.7 1.8-3.9 4-2.2 2.1-4 3.8-4.1 3.8-.1-.1 1.7-1.8 3.9-4s4-3.9 4.1-3.8zM135.3 134.4s-.1.2-.4.4l-1.1 1.1c-1 1-2.3 2.3-3.8 3.6l-3.7 3.7-1.1 1.1-.4.4s.1-.2.4-.5c.2-.3.6-.7 1.1-1.2.9-1 2.2-2.3 3.7-3.7 1.5-1.4 2.8-2.7 3.8-3.6.5-.4.9-.8 1.2-1 .1-.2.3-.3.3-.3zM142.5 136.9c.1.1-3.4 3.6-7.8 7.8-4.4 4.3-7.9 7.7-8 7.6-.1-.1 3.4-3.6 7.8-7.8 4.4-4.2 7.9-7.6 8-7.6zM146.8 140.3c.1.1-3.5 3.9-8 8.5s-8.2 8.4-8.2 8.3c-.1-.1 3.5-3.9 8-8.5s8.1-8.3 8.2-8.3z"/><circle class="st6" cx="106.8" cy="108.9" r="2.4"/><path class="st6" d="M116.7 94.5c.1.1-1.9 3.2-4.5 7.1-2.6 3.8-4.8 6.8-5 6.8-.1-.1 1.9-3.2 4.5-7.1 2.6-3.8 4.9-6.9 5-6.8z"/><circle class="st6" cx="124.3" cy="136.7" r="2.4"/><circle class="st6" cx="175.3" cy="131.3" r="2.4"/><circle class="st6" cx="218.1" cy="106.5" r="2.4"/><path class="st6" d="M114.5 148.7c-.1-.1 1.9-2.7 4.5-5.9s4.8-5.7 4.9-5.6c.1.1-1.9 2.7-4.5 5.9s-4.8 5.7-4.9 5.6z"/><path class="st9" d="M225.3 92.4c-6.9 4.5-15.7 3-19.8-3.2-4.1-6.2-1.8-14.9 5.1-19.4 6.9-4.5 15.7-3 19.8 3.2 4.1 6.3 1.8 15-5.1 19.4z"/><path d="M212.9 88.4c3.4 1.1 5.4.7 7.7-.3s4.3-2.8 5.5-5c.5-.8.8-1.9.2-2.6-.6-.6-1.6-.6-2.3-.1-.7.5-1.1 1.2-1.6 1.9-.8 1.1-1.7 2.2-2.9 2.9-1.2.7-2.7 1-4 .6-.9-.3-1.8-.9-2.7-.6-.6.2-1.1.8-1.1 1.5s.5 1.5 1.2 1.7" class="st8"/><path class="st2" d="M218.5 75.8c.9-.1 1.9-.4 2.6-1.1.6-.7.6-1.9-.1-2.5-.4-.3-.9-.5-1.4-.6-3.2-.7-6.4.7-8.8 3.2-.4.4-.8.9-1 1.5-.2.6-.2 1.3.2 1.8.7.9 2.1.8 3.1.3 1-.6 1.8-1.4 2.8-1.9.7-.6 1.6-.6 2.6-.7z" style="opacity:.1"/><path class="st6" d="M226.6 76.5s0 .1.1.3c.1.2.1.5.2.8.1.7.2 1.8 0 3.1s-.8 2.8-1.8 4.2c-1 1.4-2.5 2.7-4.3 3.5-.9.4-1.8.7-2.8.8-.9.1-1.9.1-2.7-.1-1.7-.3-3.2-.9-4.2-1.7-1-.8-1.6-1.7-2-2.3-.2-.3-.3-.6-.4-.7-.1-.2-.1-.3-.1-.3s.2.4.6 1c.4.6 1 1.5 2 2.2 1 .8 2.4 1.4 4.1 1.6.8.1 1.7.2 2.6 0 .9-.1 1.8-.4 2.7-.8 1.8-.8 3.2-2.1 4.2-3.4 1-1.3 1.6-2.8 1.8-4 .2-1.3.2-2.3.1-3 0-.8-.2-1.1-.1-1.2z"/><path class="st2" d="M226.4 84.5s.4-.7.8-1.8.8-2.8.7-4.7c-.2-1.9-.9-3.4-1.5-4.5-.6-1-1.2-1.6-1.1-1.6 0 0 .2.1.4.4.2.3.6.6.9 1.2.7 1 1.4 2.7 1.6 4.6.2 1.9-.3 3.6-.8 4.8-.2.6-.5 1-.7 1.3l-.3.3zM222.6 88.3c0-.1.6-.4 1.3-.9.7-.5 1.2-1 1.3-.9.1.1-.4.6-1.1 1.2-.7.4-1.4.7-1.5.6zM208.6 76l.2-.4c.2-.2.4-.6.7-1 .7-.8 1.7-1.8 3.1-2.6 1.4-.8 2.7-1.2 3.8-1.4.5-.1.9-.2 1.2-.2h.4c0 .1-.6.1-1.6.4-1 .2-2.3.7-3.6 1.5-1.3.8-2.4 1.7-3.1 2.5-.7.7-1.1 1.2-1.1 1.2z"/><path class="st6" d="M217.8 106.6s0 .2.1.7v1.9c0 1.7 0 4.1.1 6.9 0 2.9.1 6.4 0 10.3-.2 2-1.6 4-3.7 4.8-1 .4-2.2.4-3.3.4h-3.3c-8.9 0-17-.1-22.9-.1-2.9 0-5.2-.1-6.9-.1H176c-.4 0-.7 0-.7-.1 0 0 .2 0 .7-.1h1.9c1.7 0 4.1 0 6.9-.1 5.9 0 14 0 22.9-.1h3.3c1.1 0 2.1.1 3.1-.3 1.9-.7 3.2-2.5 3.4-4.3.1-3.8 0-7.4.1-10.3 0-2.9.1-5.2.1-6.9v-1.9c.1-.5.1-.7.1-.7z"/><path class="st1" d="M548.9 221.7H299.7c-10.6 0-19.2-8.6-19.2-19.2V37.2c0-10.6 8.6-19.2 19.2-19.2h249.2c10.6 0 19.2 8.6 19.2 19.2v165.4c0 10.5-8.6 19.1-19.2 19.1zM299.7 19c-10 0-18.2 8.2-18.2 18.2v165.4c0 10 8.2 18.2 18.2 18.2h249.2c10 0 18.2-8.2 18.2-18.2V37.2c0-10-8.2-18.2-18.2-18.2H299.7z"/><path class="st6" d="M524.4 132.7c.1.1-5 4.6-11.3 10.1-6.3 5.4-11.6 9.8-11.7 9.7-.1-.1 5-4.6 11.3-10.1 6.4-5.5 11.6-9.8 11.7-9.7z"/><path class="st6" d="M525.2 133.4c0 .9-.7 1.6-1.6 1.6s-1.6-.7-1.6-1.6c0-.9.7-1.6 1.6-1.6s1.6.7 1.6 1.6zM552.3 115.5h-26c-.5 0-.8-.4-.8-.8 0-.5.4-.8.8-.8h26c.5 0 .8.4.8.8 0 .5-.3.8-.8.8zM552.3 119.8h-26c-.5 0-.8-.4-.8-.8 0-.5.4-.8.8-.8h26c.5 0 .8.4.8.8 0 .5-.3.8-.8.8zM538.2 124.4h-11.9c-.5 0-.8-.4-.8-.8 0-.5.4-.8.8-.8h11.9c.5 0 .8.4.8.8.1.5-.3.8-.8.8z"/><path class="st1" d="M359.2 92.8c-4.8 9-15.9 12.5-25 7.8-9-4.8-12.5-15.9-7.8-25 4.8-9 15.9-12.5 25-7.8 9.1 4.8 12.6 16 7.8 25z"/><path class="st6" d="M400.2 55c.9 1.8.2 4-1.6 5l-45.1 23c-1.8.9-4 .2-5-1.6-.9-1.8-.2-4 1.6-5l45.1-23c1.8-.9 4-.2 5 1.6z"/><circle transform="rotate(-9.97 399.52 61.44)" class="st7" cx="399.6" cy="61.5" r="24.7"/><circle class="st9" cx="488.5" cy="166.4" r="16.7"/><path class="st6" d="M444.1 137.3c1.3-2 3.9-2.5 5.9-1.3l31.1 20c2 1.3 2.5 3.9 1.3 5.9-1.3 2-3.9 2.5-5.9 1.3l-31.1-20c-2-1.3-2.6-3.9-1.3-5.9z"/><path class="st1" d="M514.8 79.8c1.4 11.1-6.4 21.3-17.5 22.7-11.1 1.4-21.3-6.4-22.7-17.5-1.4-11.1 6.4-21.3 17.5-22.7 11.1-1.4 21.3 6.4 22.7 17.5z"/><path class="st6" d="M429.8 119.7c-2.5 1.3-5.6.3-6.9-2.2l-22-42.4c-1.3-2.5-.3-5.6 2.2-6.9 2.5-1.3 5.6-.3 6.9 2.2l22 42.4c1.3 2.5.3 5.6-2.2 6.9zM444.2 121.1c-1.7-2.3-1.3-5.5 1-7.2l37.9-29c2.3-1.7 5.5-1.3 7.2 1 1.7 2.3 1.3 5.5-1 7.2l-37.9 29c-2.2 1.7-5.4 1.3-7.2-1z"/><circle transform="rotate(-76.343 435.782 125.62)" class="st9" cx="435.8" cy="125.6" r="35.4"/><g class="st8"><path class="st2" d="M431.6 98c-2.2-.9-5.9-.5-8.9.8-6.9 3.2-12.4 9.3-15 16.4-2.6 7.2-2.2 15.4 1.1 22.2.7 1.5 1.6 3 3 3.9 1.4.9 3.4 1.1 4.7-.1 1.9-1.7 1-4.7.4-7.1-2.1-8.5 2.2-18.2 9.8-22.4 1.9-1.1 4-1.8 5.8-3.1 1.8-1.3 3.3-3.2 3.2-5.4 0-2.3-1.9-4.3-4.1-5.2z"/></g><g class="st8"><path class="st2" d="M395.9 41.6c-1.5-.6-4-.3-6.1.5-4.7 2.2-8.5 6.3-10.2 11.2-1.8 4.9-1.5 10.4.7 15.1.5 1 1.1 2.1 2.1 2.7 1 .6 2.3.7 3.2 0 1.3-1.1.7-3.2.3-4.9-1.4-5.8 1.5-12.4 6.7-15.3 1.3-.7 2.7-1.2 4-2.1 1.2-.9 2.2-2.2 2.2-3.7-.2-1.5-1.5-2.9-2.9-3.5z"/></g><path class="st6" d="M459.5 140s.3-.5.8-1.4c.5-.9 1.2-2.2 1.9-4 1.4-3.4 2.5-8.6 1.8-14.3-.8-5.6-3.2-10.3-5.5-13.3-1.1-1.5-2.1-2.6-2.9-3.3-.7-.7-1.2-1.1-1.1-1.2 0 0 .1.1.3.2.2.2.5.4.9.8.8.7 1.9 1.8 3 3.3 2.3 2.9 4.9 7.7 5.7 13.4.8 5.8-.5 11-1.9 14.5-.7 1.7-1.5 3.1-2.1 3.9-.3.4-.5.8-.7 1-.1.3-.1.4-.2.4zM416.7 70c-.1-.1.6-1.1 1.4-2.9.4-.9.8-2.1 1-3.3.3-1.3.4-2.7.5-4.3 0-1.5-.2-3-.5-4.3-.3-1.3-.7-2.4-1.1-3.3-.8-1.8-1.5-2.9-1.4-2.9 0 0 .2.2.6.7.2.2.4.5.6.9.2.4.4.7.6 1.2.5.9.9 2.1 1.2 3.4.3 1.3.5 2.8.5 4.4 0 1.6-.2 3-.5 4.4-.3 1.3-.7 2.5-1.2 3.4-.2.5-.4.9-.6 1.2-.2.4-.4.6-.6.9l-.5.5z"/></g><g id="Speech_Bubble"><path class="st2" d="M612.3 160.2c3.6 4 8.5 6.9 14.2 7.9 13.7 2.5 26.7-6.5 29.2-20.2s-6.5-26.7-20.2-29.2a25.03 25.03 0 0 0-29.2 20.2c-.9 4.7-.3 9.4 1.3 13.6l-2.6 7.3 7.3.4z"/><path class="st6" d="M612.3 160.2h-1.9c-1.3-.1-3.1-.1-5.5-.2h-.1v-.1c.7-2 1.6-4.5 2.6-7.3v.1c-1.4-3.4-2.2-7.8-1.5-12.6.1-1.2.5-2.4.8-3.6.4-1.2.8-2.5 1.4-3.6 1.1-2.4 2.7-4.8 4.7-6.8 4-4.1 9.8-7.2 16.3-7.7 6.4-.5 13.5 1.5 18.7 6.2 2.1 1.9 4 4.1 5.3 6.5 1.4 2.4 2.3 5 2.8 7.7.6 2.6.6 5.3.3 7.9-.3 2.6-1 5-2 7.3-2 4.6-5.3 8.1-8.9 10.6-3.7 2.4-7.6 3.8-11.3 4.2-3.7.4-7.1 0-10-.9-2.8-.8-5.1-2-6.9-3.2-1.7-1.2-2.9-2.3-3.7-3l-.9-.9c-.2-.5-.3-.6-.2-.6l.3.3.9.9c.8.7 2 1.8 3.7 3 1.7 1.1 4 2.3 6.8 3.1 2.8.8 6.2 1.2 9.8.8 3.7-.4 7.6-1.8 11.1-4.2 3.5-2.5 6.7-6 8.7-10.5 1-2.2 1.7-4.6 1.9-7.2.3-2.5.3-5.1-.3-7.7-.5-2.6-1.5-5.1-2.8-7.5-1.3-2.4-3.1-4.5-5.2-6.4-5.1-4.6-12-6.6-18.3-6.1-6.4.5-12.1 3.5-16 7.5-2 2-3.5 4.3-4.6 6.7-.6 1.2-1 2.4-1.4 3.6-.3 1.2-.6 2.4-.8 3.6-.7 4.7.1 9.1 1.4 12.5v.2c-1 2.8-1.9 5.3-2.6 7.3l-.1-.1c2.3.2 4.1.3 5.4.4.6 0 1.1.1 1.4.1.5-.3.7-.3.7-.3z"/><path class="st6" d="M625 146.5c-1.5-.8-2.7-2-3.5-3.6-1-1.9-1.1-4.2-.5-6.2.7-2.1 2.1-3.8 4.1-4.7 4-2 8.9-.4 11 3.6 1 1.9 1.1 4.2.5 6.2-.7 2.1-2.1 3.8-4.1 4.7-2.5 1.3-5.3 1.2-7.5 0zm7.3-13.9c-2.1-1.1-4.7-1.2-7-.1-1.8.9-3.2 2.5-3.8 4.4-.6 1.9-.5 4 .4 5.8.9 1.8 2.5 3.2 4.4 3.8 1.9.6 4 .5 5.8-.4 1.8-.9 3.2-2.5 3.8-4.4.6-1.9.5-4-.4-5.8-.7-1.5-1.8-2.6-3.2-3.3z"/><path class="st6" d="M638.4 155.9c-.5.3-1.1.1-1.4-.4l-5-8.8c0-.1 0-.2.1-.2l1.2-.7c.1 0 .2 0 .2.1l5.3 8.6c.3.5.1 1.2-.4 1.4z"/><path class="st7" d="M625.2 146.1c-1.5-.8-2.7-2-3.5-3.6-1-1.9-1.1-4.2-.5-6.2.7-2.1 2.1-3.8 4.1-4.7 4-2 8.9-.4 11 3.6 1 1.9 1.1 4.2.5 6.2-.7 2.1-2.1 3.8-4.1 4.7-2.5 1.3-5.3 1.2-7.5 0zm7.3-14c-2.1-1.1-4.7-1.2-7-.1-1.8.9-3.2 2.5-3.8 4.4-.6 1.9-.5 4 .4 5.8.9 1.8 2.5 3.2 4.4 3.8 1.9.6 4 .5 5.8-.4 1.8-.9 3.2-2.5 3.8-4.4.6-1.9.5-4-.4-5.8-.7-1.4-1.8-2.5-3.2-3.3z"/><path class="st7" d="M638.6 155.8c-.4.2-.9.1-1.1-.3l-5.3-9.4 1.5-.8 5.3 9.4c.1.4 0 .9-.4 1.1z"/></g><g id="Character_3"><path class="st11" d="M485.4 187.6c3.4-.4 8.7-2.1 12.5.5s14.7 25.6 14.7 25.6l-13.1 9.8-8.9-25.5s-7.5-.6-12.6-2.3-8-5.2-9.3-7.5c0 0-3.3-6-.5-6.7 1.4-.3 2.3 1.5 3.2 2.9.6 1 1.3 1.9 2.1 2.7l2.9 2.3s-2.3-2.6-1.1-3.7c1.2-1.1 1.9-.8 3.6-.2 1.7.5 6.5 2.1 6.5 2.1z"/><path class="st12" d="M493.1 188.6c0 .1-1-.2-2.6 0s-3.6 1.1-6.1 1.5c-2.4.4-4.7.3-6.3-.2-.8-.2-1.4-.5-1.8-.7-.4-.2-.6-.4-.6-.4 0-.1.9.5 2.5.8 1.5.3 3.8.4 6.2 0 2.4-.3 4.5-1.2 6.1-1.3.8-.1 1.5 0 1.9.1.4.1.7.2.7.2z"/><path class="st12" d="M483.9 192.3s-.3.1-.7.2c-.5.1-1.2.2-2.1.1-1.8-.1-4.2-.7-6.4-2.4-1.1-.8-1.9-1.9-2.6-2.8-.7-.9-1.6-1.4-2.4-1.3-.8.1-1.2.8-1.3 1.2-.1.5.1.7.1.7s-.3-.2-.3-.7c0-.3.1-.6.3-.9.2-.3.6-.6 1.1-.6 1-.2 2.1.4 2.8 1.3.8.9 1.5 1.9 2.5 2.7 2.1 1.6 4.4 2.3 6.1 2.4 1.9.2 2.9 0 2.9.1z"/><path class="st6" d="M557.3 148.7c-2.1.1-4.1-1.5-4.4-3.5-.3-2 1.1-4.2 3.1-4.8-1.2-1.4-1.4-3.5-.5-5.1.9-1.6 2.9-2.5 4.7-2.1.2-1.8 1.3-3.5 3-4.2 1.6-.8 3.7-.6 5.2.4 2.1-1.6 5.3-1.5 7.3.2 1.8-.2 3.6.8 4.4 2.4.7 1.6.3 3.7-1 4.9"/><path class="st11" d="M576.2 133.8h-.9c-9.3-.5-17.4 6.3-18.6 15.5-1.1 8.6-2.3 18.1-2.4 22.7-.4 9.6 9.2 11.6 9.2 11.6L562 195l23.7-4.4 3.7-36.8c1.4-9.9-3.3-19-13.2-20z"/><path class="st12" d="M563.4 183.5s6 .7 12.7-3.1c0 0-3.4 6.9-13 5.6l.3-2.5z"/><path class="st6" d="M558.8 159.2c-.1.7.5 1.4 1.3 1.4.8.1 1.4-.4 1.5-1.2.1-.7-.5-1.4-1.2-1.4-.9 0-1.5.5-1.6 1.2zM558.5 154c.2.2 1.2-.5 2.7-.5 1.5.1 2.5.9 2.7.7.1-.1-.1-.4-.5-.8s-1.2-.7-2.1-.8c-.9 0-1.7.3-2.2.6-.5.4-.7.8-.6.8zM571.6 159.8c-.1.7.5 1.4 1.3 1.4.8.1 1.4-.4 1.5-1.2.1-.7-.5-1.4-1.2-1.4-.9-.1-1.6.5-1.6 1.2zM572.9 155c.2.2 1.2-.5 2.7-.5 1.5.1 2.5.9 2.7.7.1-.1-.1-.4-.5-.8s-1.2-.7-2.1-.8c-.9 0-1.7.3-2.2.6-.5.4-.6.8-.6.8zM567 165.7c0-.1-.9-.3-2.4-.6-.4-.1-.7-.1-.8-.4-.1-.3.1-.7.3-1.1.4-.9.8-1.8 1.3-2.8 1.7-4 3-7.3 2.9-7.4-.2-.1-1.7 3.1-3.5 7.1-.4 1-.8 1.9-1.2 2.8-.2.4-.4.9-.3 1.5.1.3.4.5.6.6.2.1.4.1.6.1 1.6.2 2.5.3 2.5.2zM571.9 149.3c.2.4 1.5 0 3 .1 1.6 0 2.9.3 3 0 .1-.2-.2-.5-.7-.9-.5-.3-1.4-.6-2.3-.6-.9 0-1.8.3-2.3.6-.5.3-.7.6-.7.8zM558.7 148c.3.3 1.5.1 3 .1s2.7.4 3 0c.1-.2 0-.5-.6-.9-.5-.3-1.4-.6-2.4-.7-1 0-1.9.2-2.4.6-.5.4-.7.7-.6.9z"/><path class="st6" d="M557.8 144.9s2.8-5.9 5.8-7.1c3.6-1.5 4.9 2.4 8.3 1.6 3.4-.8 6.8-2.2 10.1.5 3.6 3 1.7 4.9 1.8 9.2.1 17.3 3 22.3 4.3 14.2.1-.9 2.6-1.5 3.2-5.2.7-4.9 1.2-10.8.3-14.3-.8-3-2.3-5.1-5.2-7.4-4.5-3.7-11-4.1-15.4-3.9-4.5.2-13.2 4.9-13.2 12.4z"/><path class="st11" d="M587.4 163c.1-1.5 1.5-2.6 2.9-2.4 1.8.3 3.7 1.4 3.4 5.1-.5 6.5-7 4.7-7 4.5.1-.1.5-4.4.7-7.2z"/><path class="st12" d="M588.4 167.9s.1.1.3.2c.2.1.5.2.9.1.7-.2 1.4-1.2 1.5-2.4.1-.6 0-1.2-.2-1.7s-.4-.9-.8-.9c-.3-.1-.6.1-.7.3-.1.2-.1.3-.1.3s-.1-.1-.1-.4c0-.1.1-.3.3-.4.2-.1.4-.2.6-.1.5.1.9.6 1.1 1.1.2.5.3 1.2.2 1.9-.1 1.3-.9 2.5-1.9 2.7-.5.1-.8-.1-1-.3-.1-.3-.1-.4-.1-.4z"/><path class="st6" d="M587.9 150.3c-.9.5-1.8 1.1-2.8 1.1-1 .1-2.2-.6-2.3-1.6-.1-.5.1-1-.2-1.4-.3-.4-1-.3-1.6-.3-1.9.1-4-2.1-4.4-4-.5.7-1.6.9-2.3.4-.7-.5-1-.8-1.5-1.5s-1.3-1.3-2.2-1.2c-.5 0-1 .3-1.4.2-.9-.1-1.2-1.1-1.3-2-.1-.9-.1-1.9-.8-2.4-.7-.5-1.5-.3-2.3-.2-.8.1-1.8-.2-2-.9-.1-.4.1-.8.4-1.2 1.1-1.6 3.4-2.2 5.1-1.4.7-2.1 2.9-3.7 5.1-3.8 2.3-.1 4.5 1.2 5.5 3.3 1.4-1.2 3.5-1.6 5.3-1.1 1.8.5 3.3 1.9 3.9 3.7 1.6-.3 3.4.4 4.3 1.7.9 1.4 1 3.3.1 4.7 1.1.7 2.1 2 2.1 3.3 0 1.4-1.4 2.6-2.7 2.2.5 1.1 0 2.5-1.1 3s-2.5.1-3.1-.9"/><path class="st7" d="M567.5 136v.5c0 .3.1.8.4 1.3.3.5.7 1.1 1.4 1.6s1.6.9 2.6.9l-.1-.2c-.2.6-.2 1.2 0 1.8.2.6.6 1.1 1 1.7.2.3.4.5.7.8.3.2.6.4 1 .4.7.1 1.6-.1 2.1-.7l-.2-.1c.1 1.3.8 2.7 1.9 3.5.6.5 1.4.8 2.1.8.8 0 1.5-.2 2.1-.4l-.2-.1c.3.8.8 1.6 1.5 2.1.6.5 1.5.9 2.3.7 1.6-.3 2.7-1.5 2.9-2.7l-.2.1c.7.5 1.6.5 2.2.4.7-.1 1.2-.4 1.6-.6.4-.3.6-.6.8-.8.1-.2.2-.3.2-.3s-.2.5-1 1c-.4.2-.9.5-1.6.6-.6.1-1.4 0-2.1-.5l-.1-.1v.1c-.3 1.1-1.3 2.3-2.8 2.5-.7.1-1.5-.2-2-.7-.6-.5-1.1-1.2-1.4-2v-.1h-.1c-.7.2-1.3.4-2.1.3-.7 0-1.4-.3-2-.8-1.1-.8-1.7-2.1-1.8-3.3v-.3l-.2.2c-.5.5-1.2.7-1.9.6-.3-.1-.6-.2-.9-.4-.2-.2-.4-.5-.7-.7-.4-.5-.8-1-1-1.6-.2-.6-.3-1.1-.1-1.6l.1-.2h-.2c-1 0-1.9-.3-2.5-.8-.7-.5-1.1-1-1.4-1.5-.3-.7-.2-1.4-.3-1.4z"/><path class="st6" d="M567.1 170.8c0-.2 1.6.2 3.1-.9s1.8-2.8 2-2.8c.1 0 .2.5 0 1.2s-.7 1.7-1.6 2.3c-.9.6-1.9.8-2.6.6-.6-.1-.9-.3-.9-.4z"/><path class="st7" d="m566.7 438 5.9 20.3s-18.6 12.8-17.9 16.6l39.7-9.9-7.8-32-19.9 5z"/><path class="st1" d="M584.4 453.5c.8 0 1.6.7 1.6 1.6 0 .8-.7 1.6-1.5 1.6s-1.7-.9-1.7-1.7c.1-.8 1-1.7 1.8-1.5"/><g class="st13"><path class="st2" d="m594.3 464.9-.9-3.2-37.7 10.7s-1.6 1.2-1.1 2.4l39.7-9.9z"/></g><path class="st6" d="M571.8 458.2c.1.2 1 0 2.2.4 1.1.4 1.8 1.1 2 1 .2-.1-.4-1.2-1.8-1.6-1.3-.5-2.5 0-2.4.2zM568.1 461c0 .2.9.3 1.8 1 .9.6 1.3 1.5 1.5 1.4.2 0 0-1.2-1-2-1.2-.8-2.3-.6-2.3-.4zM567 466.6c.2 0 .2-1-.5-2-.8-.9-1.8-1.1-1.8-1-.1.2.7.6 1.3 1.4.5.8.8 1.6 1 1.6zM571 453.4c.1.2.9-.3 2.1-.5 1.1-.2 2.1-.1 2.1-.3.1-.2-.9-.7-2.2-.4-1.4.3-2.1 1.1-2 1.2z"/><path class="st7" d="m580.6 442.8.9 21.1s-21.1 8-21.3 11.9l40.9-.3-.1-32.9-20.4.2z"/><path class="st1" d="M594.2 462c.8.2 1.3 1.1 1.2 1.9-.2.8-1.1 1.4-1.9 1.2-.8-.2-1.5-1.2-1.2-2 .3-.8 1.4-1.4 2.1-1"/><g class="st13"><path class="st2" d="m601.1 475.5-.1-3.3-39.2 1.5s-1.8.8-1.6 2.1l40.9-.3z"/></g><path class="st6" d="M580.9 463.6c0 .2 1 .3 2 .9 1 .6 1.5 1.5 1.7 1.4.2 0-.1-1.2-1.3-2-1.3-.7-2.5-.4-2.4-.3zM576.6 465.4c0 .2.8.5 1.5 1.4.7.8.9 1.7 1.1 1.7.2 0 .3-1.1-.6-2.2-.8-1-2-1-2-.9zM574.2 470.6c.2 0 .5-1-.1-2.1-.5-1.1-1.5-1.5-1.5-1.4-.1.2.5.7.9 1.7.4.9.5 1.8.7 1.8zM581.2 458.8c.1.2 1-.1 2.1 0 1.1 0 2 .4 2.1.2.1-.1-.7-.9-2.1-.9-1.3-.1-2.2.5-2.1.7z"/><path class="st6" d="M605.9 288.5v16.7l-4.5 65s2.8 31.5 4.5 49.3c1.5 15.4-.9 42.3-.9 42.3h-26.1l-9.3-89.7-5.8-55.9-10.1-25.5 52.2-2.2z"/><path class="st6" d="m543.1 291.1-.8 85.4c0 3.7.6 7.3 2 10.7l24.4 62.7 1.2 4.1 15.6-3.8-11.6-160.6-30.8 1.5z"/><path class="st7" d="M563.9 316.7v1.5c0 1 .1 2.4.1 4.2.1 3.7.4 9 .7 15.6.8 13.2 2.3 31.4 4.5 51.4 2.3 20 4.7 38.1 6.6 51.2.9 6.5 1.7 11.8 2.2 15.5.3 1.8.5 3.2.6 4.2.1.5.1.8.2 1.1 0 .2.1.4.1.4v-.4c0-.3-.1-.6-.1-1.1-.1-1-.3-2.4-.5-4.2-.5-3.7-1.2-9-2-15.5-1.7-13.1-4.2-31.1-6.4-51.2-2.3-20-3.8-38.2-4.7-51.3-.4-6.6-.7-11.9-.9-15.6-.1-1.8-.2-3.2-.2-4.2 0-.5-.1-.8-.1-1.1-.1-.3-.1-.5-.1-.5zM562.2 294.1c0 .7.6 1.3 1.3 1.3.7 0 1.3-.6 1.3-1.3 0-.7-.6-1.3-1.3-1.3-.7-.1-1.3.5-1.3 1.3zM539.3 306.7s.8-.6 1.8-1.7c1-1.2 2.3-2.9 3.3-5.1 1-2.2 1.5-4.3 1.6-5.9.2-1.6.1-2.5.1-2.5-.1 0-.1 1-.4 2.5-.3 1.5-.8 3.6-1.7 5.7-1 2.1-2.1 3.9-3.1 5.1-.9 1.2-1.6 1.9-1.6 1.9z"/><path class="st1" d="m559.9 191.3-23 9.2-7.3 7.3-13.1 19.4 32.9-2.7.8 8.4z"/><path class="st1" d="m586.4 184.2 6.6 5.9s19.5 9.4 19.4 10.5c0 0-5.5 33.2-5.7 65.1 0 0 5.7 25.9 5.9 31.2.6 14 2.4 80.3 2.4 80.3l-78.1 2.1 4.1-97.9-1.3-63.3 17.7-26 4.1-4 8.3 7.2 16.6-11.1z"/><path class="st1" d="m514.8 213.6-8-17.6-18.3 7.3s5.4 15.3 6.4 18.3c2.7 7.7 5.7 15.8 10.9 17 8.1 1.9 43.5-14.2 43.5-14.2l6.6-27.1-41.1 16.3z"/><path d="M608.2 271.4c-1.3-1.1-2.9-1.7-4.5-2.5-9.2-4.1-17.2-10.4-26-15.4-8.7-5-18.7-8.9-28.7-7.7l-8.4 10.5s2.1 3.7 4.9 4c2.8.3 4.5.3 7.3.1 2.8-.2 5.9-.1 8.2 1.5 2.5 1.7 3.8 4.6 5.9 6.7 2.6 2.5 6.2 3.6 9.7 4.5 7.4 2.1 14.8 4.1 22.1 6.2 2.2.6 4.5 1.2 6.8.9 2.3-.4 4.5-2.1 4.7-4.4.3-1.7-.7-3.3-2-4.4z" class="st8"/><path class="st1" d="m594.2 217.8 4.6 31.9-20.2-8-7.8 21.6s25.5 11.2 38.6 13.2c6.4.9 15.2-6.8 14.6-14.7-1.6-20.4-7.5-56.1-7.5-56.1s-4.1-8.5-11.2-7.5c-2.7.4-4.7 1.9-6.3 3.5-5.5 5.8-4.8 16.1-4.8 16.1z"/><path class="st6" d="M604 258.4c-.2 0-.5-2.3-2.1-4.8-1.5-2.5-3.5-3.8-3.4-4 0-.1 2.2 1.1 3.8 3.7 1.7 2.6 1.9 5.1 1.7 5.1z"/><path class="st6" d="M616.5 205.7s0 .2.1.5c.1.4.1.8.3 1.5.2 1.3.5 3.2.9 5.7.8 4.9 1.9 12.1 3.1 20.9.6 4.4 1.3 9.3 1.9 14.5.3 2.6.6 5.3.9 8.1.1 1.4.3 2.8.4 4.2.1.7.1 1.5.1 2.2-.1.7-.2 1.5-.4 2.2-.2.7-.5 1.4-.8 2.1-.4.7-.7 1.4-1.1 2-.4.7-.9 1.2-1.4 1.8-.5.6-1.1 1.1-1.7 1.6-1.2 1-2.5 1.9-4 2.6-1.5.7-3.1 1.1-4.7 1-3.3-.3-6.4-1.2-9.6-2.1-3.2-.9-6.4-2-9.6-3.1-7.1-2.5-13.8-5.2-20.3-8l-.2-.1.1-.2c2.8-7.6 5.4-14.9 7.9-21.6l.1-.2.2.1c7.4 3 14.2 5.7 20.2 8.1l-.3.2c-1.4-9.8-2.5-17.8-3.3-23.3-.4-2.7-.7-4.9-.9-6.4-.1-.7-.2-1.3-.2-1.7 0-.4-.1-.6-.1-.6s0 .2.1.6c.1.4.2.9.3 1.6.2 1.5.6 3.6 1 6.3.8 5.5 2 13.5 3.5 23.3v.3l-.3-.1c-6-2.4-12.8-5.1-20.2-8l.3-.1c-2.4 6.8-5.1 14-7.8 21.7l-.1-.3c6.4 2.8 13.2 5.5 20.2 8 3.2 1.1 6.4 2.2 9.6 3.1 3.2.9 6.4 1.8 9.5 2.1 1.6.1 3.1-.4 4.5-1s2.7-1.5 3.9-2.5c.6-.5 1.1-1.1 1.6-1.6.5-.6 1-1.2 1.4-1.8.4-.6.8-1.3 1.1-1.9.3-.7.6-1.3.7-2.1.2-.7.3-1.4.4-2.1 0-.7 0-1.4-.1-2.1-.1-1.4-.2-2.8-.4-4.2-.3-2.8-.6-5.5-.9-8.1-.6-5.2-1.2-10.1-1.8-14.5-1.2-8.9-2.3-16-3-21-.4-2.5-.6-4.4-.8-5.7-.1-.6-.2-1.1-.2-1.5 0-.3-.1-.4-.1-.4zM606.5 198.6c0 .1-1.2.1-3 .7-1.8.5-4.2 1.7-6.1 3.9-1.9 2.1-2.9 4.7-3.2 6.5-.4 1.9-.2 3-.3 3 0 0-.1-.3-.1-.8s0-1.3.1-2.3c.3-1.9 1.2-4.5 3.2-6.8 2-2.2 4.5-3.4 6.4-3.9.9-.2 1.7-.3 2.3-.4.4.1.7.1.7.1zM511.7 222.5c-.1-.1 1.3-1.9 2.1-4.6.8-2.7.6-5.1.7-5.1.1 0 .6 2.4-.2 5.2-.8 2.8-2.5 4.6-2.6 4.5zM559.5 249.6l-.3-.6c-.2-.4-.4-.9-.7-1.7-.6-1.5-1.4-3.6-2.4-6.3-.9-2.7-2-6-3.1-9.7-.5-1.8-1-3.8-1.6-5.8-.2-1-.5-2.1-.7-3.1-.2-1.1-.6-2.1-.9-3.2l-.1-.2.2-.1c.9-.4 1.9-.8 2.9-1.3 1.1-.5 2.3-1 3.4-1.5l.1-.1.1.1s.1.1.1.3c0 .1-.1.1-.1.1l-.1.1h-.4l-.4-.1-.8-.1c-.6-.1-1.1-.2-1.7-.2-1.1-.2-2.2-.3-3.2-.5h-.3l.1-.3c2.2-6.8 4-12.7 5.4-16.9.7-2 1.2-3.7 1.6-4.9.2-.5.3-1 .4-1.3.1-.3.2-.4.2-.4s0 .2-.1.5-.2.8-.4 1.3c-.4 1.2-.8 2.9-1.5 4.9-1.3 4.3-3.1 10.1-5.2 17l-.2-.3c1 .2 2.1.3 3.2.5.5.1 1.1.2 1.7.2l.8.1.4.1H556.2v.2l.1.2c-1.1.5-2.2 1-3.4 1.5-1 .4-2 .9-2.9 1.3l.1-.3c.3 1.1.7 2.1.9 3.2.2 1.1.5 2.1.7 3.1.5 2 1 4 1.5 5.8 1 3.7 2 7 2.9 9.7.9 2.7 1.7 4.9 2.2 6.4.3.7.5 1.3.6 1.7.6.4.7.6.6.6zM593.1 191.3s0 .2-.1.6c-.1.4-.2.9-.4 1.6-.3 1.4-.9 3.4-1.6 5.9-1.4 5-3.5 11.9-6.4 19.6l-.1.2h-.2c-1.6-.3-3.2-.6-4.9-.9l.3-.4c.1.1.1.3.2.4 1.2 2.6 2.3 5.1 3.4 7.4l.1.1-.1.1c-5 5.6-9.7 10.2-13.2 13.4-1.7 1.6-3.1 2.8-4.1 3.6-.5.4-.8.7-1.1.9-.3.2-.4.3-.4.3l.4-.4c.3-.3.6-.6 1.1-1 1-.9 2.3-2.2 4-3.7 3.4-3.2 8-7.8 13-13.5v.3c-1.1-2.4-2.2-4.9-3.4-7.4-.1-.1-.1-.3-.2-.4l-.2-.5.5.1c1.7.3 3.3.6 4.9.9l-.3.2c2.9-7.7 5.1-14.6 6.5-19.5.7-2.4 1.3-4.4 1.7-5.8.2-.6.3-1.2.5-1.6 0-.3.1-.5.1-.5zM557.6 383.1v-20.6c.1-12.7.5-30.2 1.1-49.6 1.2-38.4 2.2-67.3 2.3-70.1v5.6c0 3.6-.1 8.7-.3 15-.3 12.7-.9 30.2-1.5 49.6-.6 19.4-1 36.9-1.2 49.6-.1 6.3-.2 11.5-.2 15 0 1.8 0 3.1-.1 4.1v1.1c0 .1 0 .3-.1.3z"/><path class="st2" d="m562.3 186.1 7.7 6 16.4-7.9.8 3.7-26 56.8-2.4-51.8z"/><path class="st9" d="m570.8 194.8-2-.3-2.4 3.8 1.8 3.8 2.8.1 1.2-4.4z"/><path class="st9" d="m568.2 202-8 21.2c0 .1 1 21.7 1 21.7l11.6-25.6-1.7-17.2-2.9-.1z"/><path class="st6" d="M535.7 208.6s.1.2.1.5c.1.4.2.8.3 1.4.3 1.2.6 3 1 5.2.8 4.4 1.6 10.5 2.3 17.3.7 6.8 1.1 12.9 1.2 17.4.1 2.2.1 4 .1 5.3v1.9s0-.2-.1-.5c0-.4-.1-.9-.1-1.4-.1-1.3-.2-3.1-.3-5.3-.3-4.4-.7-10.6-1.4-17.4-.7-6.8-1.5-12.9-2.2-17.3-.3-2.1-.6-3.9-.8-5.2-.1-.6-.1-1-.2-1.4.1-.3.1-.5.1-.5zM583.1 195.5s-.2.2-.6.5c-.5.3-1.1.8-1.8 1.3-1.7 1.1-3.9 2.6-6.6 4.4l-.2.2-.1-.3c-1-2.7-2.6-5.6-3.9-8.9 0-.1-.1-.2-.1-.3h.5c-1.7 3.5-3.8 6.6-6 8.8l-.2.2-.2-.2c-1.9-2.3-3.2-4.3-4.1-5.8-.4-.7-.8-1.3-1-1.7l-.3-.6s.2.2.4.6c.3.4.6 1 1.1 1.7.9 1.4 2.3 3.4 4.2 5.7h-.3c2.1-2.2 4.1-5.2 5.8-8.7l.3-.5.2.6c0 .1.1.2.1.3 1.3 3.3 2.8 6.2 3.8 8.9l-.3-.1c2.7-1.7 5-3.2 6.7-4.3.8-.5 1.4-.9 1.9-1.2.4-.5.7-.6.7-.6z"/><path class="st6" d="m513.2 227.8 6.2 25.8c.3 1.4 1.6 2.4 3.7 3l35.1.1c1.4-.6 2.9-2.4 2.6-4.3l-4.6-24.6c-.3-1.5-1.6-2.6-3.1-2.6l-37-.9c-1.9-.1-3.4 1.7-2.9 3.5z"/><path class="st11" d="M550.2 233s7.8-.3 9.1 0c1.3.3 18 11.1 18 11.1l-5 14.3-3.4-4.5s-4.4-.5-6.8-1.6c-2.4-1.1-5.3-2.3-5.3-2.3l-5.1.7-5.6.1s-1.9-1-.3-2.2c1.6-1.3 5.3-1.3 5.3-1.3l5.7-1.3s-6.6-.5-7.2-.6c-.6-.1-5.1 1-5.7.6-.6-.4-.9-1.4-.4-2.3.5-.8 4.7-2.1 4.7-2.1l7.3-.7-7.3-.2-3.9-.2s-1.1-.8.3-1.9c1.4-1.2 7.1-2 7.1-2l5.8-.5-5.9-.6-3.9.7c-1.1.2-1.7-1.2-.9-1.8.7-.6 1.8-1.1 3.4-1.4z"/></g><g id="Character_2"><path class="st6" d="m355.3 446.5-.3 19s19.2 6.7 19.5 10.2l-36.9.7-.7-29.6 18.4-.3z"/><path class="st1" d="M343.5 464.2c-.7.2-1.2 1-1 1.7.2.7 1 1.2 1.7 1 .7-.2 1.3-1.2 1.1-1.8-.3-.7-1.3-1.2-1.9-.9"/><path class="st7" d="M337.5 476.5v-3l35.3.5s1.7.7 1.5 1.8l-36.8.7z"/><path class="st2" d="M355.5 465.3c0 .2-.9.3-1.8.9-.9.6-1.3 1.4-1.5 1.3-.2 0 .1-1.1 1.2-1.8 1.1-.7 2.2-.5 2.1-.4zM359.4 466.9c0 .2-.7.5-1.3 1.3-.6.8-.8 1.6-.9 1.6-.2 0-.3-1 .4-2 .8-1 1.8-1.1 1.8-.9zM361.7 471.5c-.2 0-.4-.9 0-1.8.4-1 1.3-1.4 1.4-1.3.1.1-.4.7-.8 1.5s-.4 1.5-.6 1.6zM355.1 461c-.1.2-.9-.1-1.9 0-1 .1-1.8.4-1.9.3-.1-.1.7-.8 1.9-.9 1.2-.1 2 .5 1.9.6z"/><path class="st6" d="m310.3 445.4-2 22.9 3.6 18.6c.3 1.3-.7 2.6-2 2.8-.8.1-1.5-.2-2-.7-3.3-3.6-15.3-16.8-15.1-18.5.3-1.9.5-24.3.5-24.3l17-.8z"/><path class="st7" d="m309.9 489.7-17-20.8-.1 1c-.1.8.2 1.7.7 2.3 1.3 1.8 5.2 6.7 14.3 16.7.5.6 1.3.9 2.1.8z"/><g class="st13"><path class="st2" d="M298.1 461.8c.5.4.7 1.3.3 1.9-.4.6-1.3.7-1.9.3-.6-.4-.7-1.5-.3-2 .5-.5 1.5-.6 2-.1"/></g><path class="st2" d="M305.3 479.3c.1.1.7-1.1 2.1-1.7 1.4-.6 2.6-.2 2.7-.3 0-.1-.3-.3-.8-.4-.5-.1-1.3-.1-2.1.2-.8.3-1.3.9-1.6 1.3-.3.5-.4.9-.3.9zM306.7 482.5c.1.1.9-.6 2.1-.9 1.2-.3 2.2 0 2.3-.1.1-.1-1-.7-2.4-.3-1.4.2-2.1 1.2-2 1.3zM302.5 475.2c.1.1 1.3-1 3.1-1.5 1.8-.6 3.4-.4 3.5-.6 0-.1-1.6-.5-3.6.1s-3.1 1.9-3 2zM302.5 468.1c.1.1 1.4-.3 3-.3 1.7 0 2.9.5 3 .4.1-.1-1.2-.9-3-.9-1.7 0-3 .7-3 .8zM303 461.4c.1.1 1.4-.5 3.1-.4 1.7.2 2.9 1.1 3 1 0 0-.2-.3-.7-.7-.5-.3-1.3-.7-2.2-.8-.9-.1-1.8.1-2.4.3-.6.3-.9.5-.8.6zM306.1 459.8s.1-.3.1-.9c0-.6-.1-1.4-.5-2.3-.2-.4-.4-1-1.1-1.4-.3-.2-.8-.1-1.1.1-.3.3-.4.6-.4 1-.1 1.5 1.1 2.9 2.7 3.3 1.6.3 3.2-.6 3.9-1.8.2-.3.3-.7.1-1.1-.2-.4-.6-.6-.9-.6-.7.1-1.1.4-1.6.7-.8.6-1.4 1.2-1.7 1.7-.3.5-.4.8-.4.8.1.1.7-1.1 2.3-2.2.4-.2.9-.6 1.4-.6.2 0 .4.1.5.3.1.2 0 .5-.1.7-.6 1-2 1.8-3.4 1.5-1.4-.3-2.4-1.6-2.3-2.7 0-.3.1-.6.3-.7.2-.2.4-.2.6-.1.4.2.7.7.9 1.1.8 1.9.6 3.2.7 3.2z"/><path class="st6" d="M373.2 287.8s.9 11.6-.1 24.8c-.4 5.1-15.7 145.6-15.7 145.6h-23.3l6.5-132.7-1.9.4S326 382.5 325 391.7c-.9 8.2-11.6 68.1-11.6 68.1l-21.3.2 6.8-79.2 7.9-76 3-22.1 63.4 5.1z"/><path class="st7" d="M337 311.9s.3.2 1 .5c.6.3 1.6.8 2.9 1 .6.1 1.4.2 2.1 0 .8-.1 1.6-.5 2.2-1.1.7-.6 1.1-1.5 1.4-2.4.3-.9.4-1.8.6-2.8.7-3.8 1.2-7.3 1.5-9.9.1-1.3.2-2.3.3-3 .1-.7.1-1.1 0-1.1 0 0-.1.4-.2 1.1-.1.8-.3 1.8-.5 3-.4 2.5-.9 6-1.7 9.8-.4 1.9-.6 3.8-1.8 4.9-1.2 1.1-2.8 1.2-4 1-1.2-.2-2.2-.6-2.9-.8-.5-.1-.9-.3-.9-.2zM344 293.9s-.2-.1-.5-.1-.8.1-1.3.4c-.5.3-1 1-1 1.8s.6 1.7 1.5 2c.9.3 1.9.1 2.4-.5s.6-1.4.4-2c-.1-.6-.4-1-.7-1.2-.3-.2-.4-.2-.5-.2-.1.1.7.4.8 1.4.1.5 0 1.2-.4 1.6-.4.5-1.2.6-1.9.4-.7-.3-1.2-.9-1.2-1.5s.4-1.2.7-1.5c.9-.8 1.7-.5 1.7-.6z"/><path class="st7" d="m361.9 293.6-45 .1 6.5-107.3 9.4-4.3 27.4 5.2 3.6 41z"/><path class="st6" d="M330.9 163.2c-1.3-3.9-2.6-7.8-3.3-11.9-.6-4.1-.6-8.3.8-12.2.2-.6 2-4.5 2.6-4.5.4 0-.7 3.7-.4 4.1 2.2 3.7 2.8 8.1 2.5 12.3-.1 4.3-1 8.1-2.2 12.2"/><path class="st14" d="m331.1 185.2-.7-36.8c-.5-10.3 5.2-19.2 15.5-19.4h1c9.6.4 17.3 8.1 17.7 17.7.4 8.9.6 18.8.4 23.6-.5 9.9-10.5 11-10.5 11s-.2 5.1-.2 8c-4.8 5.9-13.7 6.1-18.8.5l-4.4-4.6z"/><path class="st15" d="M354.3 180.5s-6.3.1-12.7-4.3c0 0 2.8 7.6 12.7 7.1v-2.8z"/><path class="st6" d="M360.5 155c0 .7-.6 1.4-1.4 1.4-.8 0-1.4-.6-1.4-1.3 0-.7.6-1.4 1.4-1.4.8 0 1.4.6 1.4 1.3zM362.2 150.2c-.2.2-1.2-.7-2.7-.7-1.5-.1-2.7.7-2.8.5-.1-.1.1-.4.6-.7.5-.3 1.3-.6 2.3-.6.9 0 1.7.4 2.2.8.3.3.5.6.4.7zM346.8 155c0 .7-.6 1.4-1.4 1.4-.8 0-1.4-.6-1.4-1.3 0-.7.6-1.4 1.4-1.4.7 0 1.4.6 1.4 1.3zM347.3 149.9c-.2.2-1.2-.7-2.7-.7-1.5-.1-2.7.7-2.8.5-.1-.1.1-.4.6-.7.5-.3 1.3-.6 2.3-.6.9 0 1.7.4 2.2.8.3.3.4.6.4.7zM352.2 161.8c0-.1.9-.2 2.5-.3.4 0 .8-.1.8-.3.1-.3 0-.7-.2-1.2-.3-1-.7-2-1-3-1.4-4.3-2.4-7.8-2.3-7.8.2-.1 1.5 3.4 2.9 7.6.3 1.1.7 2.1 1 3 .1.4.4 1 .1 1.5-.1.3-.4.5-.7.5-.3.1-.5.1-.7.1-1.4.1-2.4 0-2.4-.1zM348 144.9c-.2.4-1.7.1-3.5.1s-3.3.4-3.5 0c-.1-.2.2-.6.8-.9.6-.3 1.6-.6 2.6-.7 1.1 0 2 .2 2.7.6.7.3 1 .7.9.9zM362.5 145.2c-.3.4-1.5.2-3 .4s-2.7.6-3 .3c-.2-.2 0-.5.5-.9s1.3-.8 2.4-.9c1-.1 1.9 0 2.5.3.5.3.7.6.6.8z"/><path class="st14" d="M330.8 154.9c-.2-.1-6.7-2.3-6.8 4.5-.1 6.8 6.8 5.4 6.8 5.3v-9.8z"/><path class="st15" d="M328.8 162s-.1.1-.3.2c-.2.1-.5.1-.9 0-.7-.3-1.3-1.4-1.3-2.6 0-.6.1-1.2.3-1.7.2-.5.5-.8.9-.9.4-.1.6.1.7.3.1.2 0 .3.1.3 0 0 .1-.1.1-.4 0-.1-.1-.3-.3-.4-.2-.1-.4-.2-.7-.2-.5 0-1 .5-1.2 1-.3.5-.4 1.2-.4 1.9 0 1.4.7 2.7 1.7 2.9.5.1.9 0 1.1-.2.2 0 .2-.2.2-.2z"/><path class="st6" d="M360.1 134.7c1.1-.6-2.2-4.2-4.9-5.4-4.1-1.9-10.3-3-14.1-1.9-4.5 1.3-8.3 3.5-10.6 7.6-2.3 4.1-3.1 8.9-3 13.6 0 1.4.2 2.9 1 4.1.9 1.5 2.8 2.4 2.7 4.5 0 .8.2 1.5.7 2.1 1.2 1.3 2.8.1 3.5-1.2 1.5-2.7 1.7-5.8 1.8-8.9.1-2.2.2-4.4-.4-6.4-.3-1.1-.9-2.2-1.1-3.3-.3-1.1-.2-2.4.5-3.4.1-.2.3-.3.6-.6 1.9-1.7 4.6-2.2 7-1.3 3.8 1.4 10.3 3.4 12 2.1 2.5-1.9 3-3.1 3-3.1l1.3 1.5zM347.4 162.8c.2 0 .2 1.5 1.6 2.6 1.3 1.1 3 .9 3 1.1 0 .1-.4.3-1.1.3-.7 0-1.7-.2-2.5-.9s-1.2-1.6-1.2-2.2c0-.5.1-.9.2-.9zM365.3 217.3s.7 1.1 1.9 2.8c1.2 1.7 2.9 4.1 4.9 6.8l.1.2-.2.1c-.5.2-1.1.3-1.6.5l.1-.1c0 .2-.1.4-.1.6l-.3 1.5h-.3l.3-.1-.3.1c-1.8-3-3.4-5.6-4.5-7.6-.1-.2-.3-.5-.4-.7l-.3-.6c-.2-.4-.3-.8-.3-1.1V218.8s0 .3.1.9c0 .3.1.7.4 1 .1.2.2.4.4.6.1.2.2.5.4.7 1.1 1.9 2.7 4.6 4.6 7.5l-.3.1.3-.1h-.3l.3-1.5c0-.2.1-.4.1-.6v-.1h.1c.6-.2 1.1-.3 1.6-.5l-.1.3c-4.1-5.5-6.8-9.7-6.6-9.8zM365.7 214.3s.3-.6 1.2-.8c.4-.1 1-.1 1.6.2.6.3.9 1 1 1.7.1.7-.2 1.4-.5 1.9s-.7.9-1 1.3c-.6.6-1.1 1-1.1.9 0 0 .4-.4.9-1.1.3-.3.6-.8.9-1.2.3-.5.5-1.1.4-1.7 0-.6-.4-1.2-.8-1.5-.5-.3-1-.3-1.4-.2-.7.1-1.1.6-1.2.5z"/><path class="st1" d="m354.9 287.4.8-105.3 4.1 3.5 12.8 2.6c3.3.7 7.7 3.3 9.9 5.8 6.5 7.7 5.5 7.8 9.4 13.8 3.3 4.9 14.3 19.9 17 30.3 0 0 1.2 12.7-7.8 15.8 0 0 .7-.3 0 0-7.1 2.8-16.1-3.9-20.2-9.7l-7-11.2 1.6 40 7.5 90.5-26 .8-2.1-76.9z"/><path d="M376.8 197.2v1.8c0 1.1 0 2.8-.1 4.8-.2 4-.6 9.6-1.1 15.7-.5 6.1-.9 11.7-1.1 15.7-.1 2-.1 3.6-.1 4.8v1.8-6.6c.1-4 .5-9.6 1-15.7s1-11.6 1.2-15.7c.1-2 .2-3.6.2-4.8 0-.5 0-1 .1-1.3-.2-.4-.2-.5-.1-.5zM354.9 239.8s.1-.2.2-.6c.1-.4.3-.9.6-1.6.5-1.4 1.2-3.5 1.9-6.1.8-2.6 1.7-5.7 2.8-9 .6-1.7 1.2-3.4 1.9-5.2.4-.9.7-1.8 1.1-2.7.4-.9.8-1.8 1.1-2.8.3-1 .5-2 .2-2.9-.2-.9-.9-1.7-1.5-2.4s-1.3-1.6-1.4-2.6c0-.5 0-1 .2-1.4.2-.4.4-.9.6-1.2.5-.8 1-1.5 1.4-2.2.4-.7.7-1.5.6-2.2-.1-.8-.5-1.4-.9-2-.4-.6-.7-1.2-1.1-1.8-1.3-2.3-2.4-4.2-3.2-5.5-.4-.6-.6-1.1-.9-1.5-.2-.3-.3-.5-.3-.5s.1.2.3.5c.2.4.5.9.9 1.5.8 1.3 1.9 3.2 3.3 5.4.3.6.7 1.2 1.1 1.8.4.6.8 1.3.9 2.1.1.8-.2 1.7-.6 2.4-.4.8-.9 1.4-1.4 2.2l-.6 1.2c-.1.4-.2.9-.1 1.3.1.9.7 1.6 1.3 2.4.6.7 1.3 1.5 1.6 2.5.3 1 .1 2.1-.2 3.1-.3 1-.8 1.9-1.2 2.8-.4.9-.8 1.8-1.1 2.7-.7 1.8-1.4 3.5-1.9 5.2-1.2 3.4-2.1 6.4-2.9 9-.8 2.6-1.5 4.6-2.1 6-.3.7-.5 1.2-.6 1.6.1.3 0 .5 0 .5z"/><path class="st14" d="m313.5 174-7 13.2s-11-6.9-11-7.5c-.1-.5 7.6-10.8 7.6-10.8l10.4 5.1z"/><path class="st16" d="m312.8 144.8-1.2 1.1c-.2.2-.2.5 0 .6l35.1 25.9 3.7 2.3c.6.4 1.2-.4.7-.9l-2.8-3.1-.1-.1-35-25.9c-.1-.1-.3 0-.4.1z"/><path class="st6" d="M312.8 144.8s0-.1.2-.1c.1 0 .2 0 .3.1.1.1.2.2.4.3.6.4 1.4 1 2.4 1.7 2.1 1.5 5 3.7 8.7 6.4 3.7 2.7 8 5.9 12.9 9.5 2.4 1.8 5 3.7 7.6 5.6.7.5 1.3 1 2 1.5.3.2.7.5 1 .7l.3.2.2.2.4.5c.6.6 1.1 1.3 1.7 1.9l.4.5c.1.1.4.4.3.7 0 .3-.2.5-.5.6-.1.1-.3.1-.4 0-.1 0-.3-.1-.4-.2-.7-.5-1.5-.9-2.2-1.4-.4-.2-.7-.4-1.1-.7l-.3-.2-.1-.1-.1-.1-.5-.4c-1.4-1-2.7-2-4-3-2.6-1.9-5.2-3.8-7.6-5.6-4.8-3.6-9.2-6.8-12.8-9.5-3.6-2.7-6.6-4.9-8.6-6.4-.5-.4-1-.7-1.4-1-.2-.2-.1-.5 0-.7l.4-.4c.2-.2.4-.4.6-.5.1-.1.1-.1.2-.1l-.2.2-.5.5-.4.4c-.1.1-.2.4 0 .5.4.3.8.6 1.4 1 2.1 1.5 5 3.7 8.7 6.3 3.7 2.7 8 5.9 12.9 9.4 2.4 1.8 5 3.6 7.6 5.6 1.3 1 2.7 2 4 3l.5.4.1.1s.1 0 .1.1l.3.2c.4.2.7.4 1.1.7.7.4 1.5.9 2.2 1.4.2.1.3.1.4.1.1-.1.3-.2.3-.3 0-.2 0-.3-.2-.4l-.4-.5c-.6-.6-1.1-1.3-1.7-1.9l-.4-.5c-.1-.1-.1-.2-.2-.2l-.3-.2c-.3-.2-.7-.5-1-.7-.7-.5-1.3-1-2-1.5-2.6-1.9-5.2-3.8-7.6-5.6-4.8-3.6-9.2-6.8-12.8-9.5-3.6-2.7-6.6-4.9-8.6-6.4-1-.8-1.8-1.3-2.3-1.8-.3-.2-.5-.4-.6-.4-.4-.1-.4 0-.4 0z"/><path class="st14" d="M324 151.7c.9-.5.8-1.8-.2-2.1-2.8-.9-8.8-2.8-10.4-2.2-2.1.8-10.3 2.8-10.9 4.3-.6 1.5-.1 8.3-.1 8.3l.7 9.9 9.3 5.5s2.3-1.9 2.3-5.4c-.1-4.6-.4-4.6-.4-4.6l2.4-3.4s-2.5 3.7.1 4.4c0 0 3-3 3.3-4.2.3-1.1-.2-2.8-.2-2.8s1.5-1.5.1-2.8c0 0 1.6-.7.5-2.4-1.2-1.7-3.2-2.3-3.2-2.3l-1.9-1c0 .1 6.5 1.9 8.6.8z"/><path class="st15" d="M310.9 161.1s.3-.5 1-1.1c.7-.6 1.7-1.4 3.2-1.7 1.4-.3 2.7.1 3.5.5.8.4 1.2.9 1.2.9s-.5-.3-1.3-.7c-.8-.4-2-.7-3.4-.4-1.3.2-2.4 1-3.1 1.5-.6.6-1.1 1-1.1 1zM309.6 157.5s0-.2.2-.5c.1-.3.4-.7.8-1.1.7-.9 2.2-1.8 4-2 1.8-.1 3.4.6 4.3 1.3.5.4.8.7 1 1 .2.3.3.4.3.4-.1 0-.4-.6-1.4-1.2-.9-.6-2.4-1.3-4.1-1.1-1.7.1-3.1 1-3.8 1.8-1 .8-1.3 1.4-1.3 1.4zM306.6 154s.6-.4 1.5-1.1c.4-.3 1-.8 1.6-1.2.6-.4 1.3-.9 2.2-1.2.9-.2 1.8-.2 2.5 0 .8.2 1.4.5 1.9.8 1 .6 1.5 1.1 1.5 1.1s-.6-.4-1.6-.9c-.5-.3-1.1-.5-1.8-.7-.7-.2-1.5-.2-2.3 0-.8.2-1.5.7-2.1 1.1-.6.4-1.1.8-1.6 1.2-1.1.7-1.8.9-1.8.9z"/><path class="st1" d="m356.5 176.4.8 13 8.5 18.9c.5 1.1-.3 2.4-1.5 2.4h-21.2c-1.2 0-2-1.2-1.5-2.3l8-19.2v-12.7h6.9z"/><path class="st6" d="M356.5 176.4H349.6l.1-.1c0 3.2 0 7.6.1 12.7-1.6 3.9-3.5 8.4-5.5 13.3-.5 1.2-1 2.5-1.6 3.7-.3.6-.5 1.3-.8 1.9-.2.3-.2.6-.2.9 0 .3.2.6.4.9.2.2.5.4.8.5.3.1.7 0 1 0H364.1c.4 0 .8-.1 1.1-.3.3-.2.5-.6.6-1 .1-.4 0-.7-.2-1.1-.2-.4-.3-.8-.5-1.1-.3-.8-.7-1.5-1-2.2-2.6-5.9-5-11.1-6.8-15.3-.2-4-.4-7.3-.5-9.5-.1-1.1-.1-2-.1-2.6v-.7c-.2.1-.2 0-.2 0v.2c0 .2 0 .4.1.7 0 .6.1 1.5.2 2.5.2 2.3.4 5.5.7 9.6 1.9 4.2 4.3 9.4 6.9 15.2.3.7.7 1.5 1 2.2.2.4.3.8.5 1.1.2.4.4.9.3 1.3-.1.5-.3.9-.7 1.2l-.6.3c-.2.1-.5.1-.7.1h-21.3c-.4-.1-.7-.3-1-.6-.2-.3-.4-.7-.4-1.1 0-.4.1-.8.2-1.1.3-.6.5-1.3.8-1.9.5-1.3 1.1-2.5 1.6-3.7 2-4.9 3.9-9.4 5.6-13.3v.1c0-5.2 0-9.5.1-12.7v-.1H356.5z"/><path class="st1" d="M349.4 178.1h7.2c.6 0 1.1-.5 1.1-1.1v-.1c0-.6-.5-1.1-1.1-1.1h-7.2c-.6 0-1.1.5-1.1 1.1v.1c0 .6.5 1.1 1.1 1.1z"/><path class="st6" d="M349.4 178.1s-.4.1-.8-.3c-.2-.2-.4-.5-.4-1 0-.4.2-.9.7-1.2.3-.1.6-.1.8-.1h6.9c.4 0 .9.2 1.1.6.1.2.2.4.2.6v.6c-.1.4-.4.7-.8.9-.2.1-.4.1-.6.1h-4c-.9 0-1.7 0-2.3-.1-.4-.1-.8-.1-.8-.1s.3 0 .9-.1c.6 0 1.4 0 2.3-.1h3.5c.3 0 .7 0 .9-.1.3-.1.5-.3.6-.6.1-.3 0-.6-.1-.9-.2-.3-.5-.4-.8-.4H349.8c-.3 0-.5 0-.7.1-.4.2-.6.6-.6.9 0 .4.1.7.3.9.3.3.7.2.6.3z"/><path class="st9" d="M359.8 197.9c.1.1 2.6 6.3 3.9 9.6.4 1-.3 2-1.4 2h-17.6c-1 0-1.7-1-1.4-2l3.8-9.6h12.7z"/><path d="m401.8 235.5-.3-.3c-.2-.2-.5-.6-.8-.9-.7-.8-1.7-2-2.9-3.4-2.5-2.9-6-6.7-10.2-10.7-1.8-1.7-3.6-3.4-5.3-4.8h.2c-2.9 2.8-4.9 5.6-6.2 7.6-.7 1-1.1 1.9-1.5 2.4-.3.6-.5.9-.5.9s0-.1.1-.2c.1-.2.2-.4.3-.7.3-.6.8-1.4 1.4-2.5 1.3-2.1 3.3-4.9 6.2-7.8l.1-.1.1.1c1.7 1.4 3.5 3.1 5.3 4.8 4.2 4 7.7 7.9 10.2 10.8 1.2 1.5 2.2 2.7 2.8 3.5.3.4.5.7.7 1l.3.3z"/><path class="st14" d="M369.8 204c-.3-.6-3.2-3.5-3.2-3.5l-5.6-8.9-6.5-2.5-6.4 2.9s0 3 2.4 2.5 3.3-.9 3.3-.9l3.2 1.4 2.5 4.6-6.2.4-8 4.2s1 2.1 3 2.1c1.8.1 4.4-1.2 4.4-1.2l4.2-.5-9.5 5.7 2.3 2.1-1.7 1.2 1.2.8c.9.6 2 .8 3 .5l8.6-2.1s5.2 8.9 9 10.7c3.9 1.8 4.6 2.7 4.6 2.7l6.4-9.3-11-12.9z"/><path class="st15" d="M364.9 209.7s-.1-.2-.4-.6c-.3-.4-.8-.8-1.6-1.2-.8-.3-1.8-.5-2.9-.3-1.1.2-2.3.6-3.4 1.2-2.4 1.1-4.4 2.4-5.9 3.2-.7.4-1.3.8-1.8 1-.4.2-.7.4-.7.3 0 0 .2-.2.6-.5.4-.3 1-.7 1.7-1.1 1.5-.9 3.5-2.2 5.9-3.3 1.2-.6 2.4-1 3.6-1.2 1.2-.2 2.2 0 3 .4.8.4 1.3.9 1.6 1.3.3.5.3.8.3.8zM365.2 203.8c0 .1-1.9-.8-4.4-.5-2.4.2-4.1 1.4-4.2 1.3 0 0 .4-.4 1.1-.8.7-.4 1.8-.8 3.1-.9 1.3-.1 2.4.1 3.2.3.8.3 1.3.5 1.2.6zM364.7 201.2c-.1.1-.9-1-2.5-1.4-1.5-.5-2.8-.1-2.8-.2 0 0 .3-.2.8-.3.5-.1 1.3-.1 2.1.2.8.2 1.5.7 1.8 1.1.5.2.7.6.6.6z"/><path class="st1" d="M308.3 187.2 273.5 212l.3 11.7c1.3 2.7 9.7 3.8 16.5 1l25.7-14.6-7.7-22.9z"/><path class="st1" d="M308.8 186.4s8-1.4 11.7-1.8c3-.4 6.7-.8 6.7-.8l4.1-3.6c0 .8 4.5 75.9 4.5 75.9l-32.3 6 2.7-52.7 2.6-23z"/><path class="st1" d="m335.7 254.9-6.5 108.7-33-.7 7.2-104.1z"/><path d="M335.1 238.1s-.1-.2-.3-.5c-.2-.4-.4-.9-.7-1.6-.6-1.4-1.3-3.4-2.3-5.9-1.9-5-4.4-11.9-7.7-19.3-.4-.9-.8-1.9-1-2.9-.2-1-.1-2.1.4-2.9.5-.9 1.2-1.5 1.7-2.3.5-.7.9-1.5.8-2.4-.1-.8-.5-1.6-1-2.3-.5-.7-.9-1.4-1.3-2.1-.4-.7-.5-1.5-.4-2.3.1-.7.3-1.4.5-2 .3-1.3.7-2.4 1.1-3.4.4-1 .7-1.8 1-2.5.3-.7.5-1.2.7-1.6.2-.4.2-.5.2-.5s-.1.2-.2.6c-.1.4-.3.9-.6 1.6-.3.7-.6 1.6-1 2.5-.4 1-.8 2.1-1.1 3.4-.2.6-.3 1.3-.5 2-.1.7 0 1.4.4 2.1.3.7.8 1.3 1.3 2 .4.7.9 1.5 1 2.4.2.9-.3 1.9-.8 2.6-.6.8-1.2 1.4-1.7 2.2-.5.8-.6 1.8-.4 2.7.2.9.6 1.9 1 2.8 3.3 7.4 5.8 14.4 7.6 19.4.9 2.5 1.6 4.5 2.1 5.9.2.7.4 1.2.6 1.6.6.5.6.7.6.7z"/><path class="st1" d="M272.4 204.3c2.1-4.1 5.2-8.6 5.2-8.6l19.5-25.9 14.8 12.1-15.6 26.6-17.8 15.3-4.5.3c-4.9-4.2-6.2-10.8-1.6-19.8z"/><path d="M290.7 214.3s.1-.1.2-.4c.2-.3.3-.6.6-1 .5-.9 1.3-2.1 2.2-3.6 1.9-3 4.5-7.2 7.5-11.7 3-4.5 5.7-8.6 7.8-11.5 1-1.4 1.9-2.6 2.5-3.4.3-.4.5-.7.7-.9l.3-.3s-.1.1-.2.3c-.2.2-.4.6-.6.9-.6.9-1.4 2-2.4 3.5-2 2.9-4.7 7-7.7 11.5-2.9 4.5-5.6 8.6-7.5 11.6-.9 1.5-1.7 2.6-2.3 3.5-.3.4-.5.7-.6.9-.5.5-.5.6-.5.6z"/><path d="M324.2 210.2c-.6-1.6-1.1-3.4-.4-4.9.7-1.4 2.6-2.4 2.8-4 .2-1.1-.4-2.3-1-3.2-.6-1-1.4-1.9-1.8-3-.3-1.1 1-5.9 1.4-6.7l1.7-4.4c-1.2 2.1-2.5 4.1-3.3 6.4-.8 2.2-1.2 4.7-.7 7.1.3 1.4.9 2.7.8 4.1-.1 1.8-1.2 3.3-1.8 5-1.3 3.8.4 7.8 2.1 11.4 2.7 5.5 6.3 11.4 9.6 16.6-3.2-10-6.5-16.9-9.4-24.4z" class="st8"/><path class="st6" d="M305.2 197.9s0 .2.1.6c0 .4.1 1 .1 1.7.1 1.5.2 3.6.3 6.1.2 5.2.4 12.3.6 20.2.2 7.9.2 15 .1 20.2-.1 2.6-.1 4.7-.2 6.1 0 .7-.1 1.2-.1 1.7 0 .4 0 .6-.1.6V246.7c0-5.2-.1-12.3-.2-20.2-.2-7.8-.3-14.9-.4-20.2-.1-2.5-.1-4.6-.1-6.1v-1.7c-.1-.4-.1-.6-.1-.6z"/></g><g id="Character_1"><path class="st7" d="m183.3 441.8-1.5 20.3s20.1 7.9 20.2 11.7l-39.4-1 1-31.8 19.7.8z"/><path class="st1" d="M170 460.1c-.8.2-1.3 1-1.2 1.8.2.8 1 1.4 1.8 1.2.8-.2 1.5-1.2 1.2-1.9-.2-.8-1.3-1.4-2-1"/><path class="st6" d="m162.6 472.8.1-2.5L201 472s1.2.8 1.3 2l-39.7-1.2zM182.2 462.3c0 .2-1 .2-2 .8-1 .6-1.5 1.4-1.7 1.3-.2 0 .2-1.2 1.4-1.9 1.2-.6 2.4-.4 2.3-.2zM186.3 464.2c0 .2-.8.5-1.5 1.3s-.9 1.7-1.1 1.6c-.2 0-.3-1.1.6-2.1.9-1 2-1 2-.8zM188.5 469.3c-.2 0-.4-.9.1-2s1.5-1.4 1.5-1.3c.1.2-.5.7-.9 1.6-.4.8-.5 1.6-.7 1.7zM182 457.6c-.1.2-1-.1-2.1-.1s-2 .4-2.1.2c-.1-.1.8-.8 2.1-.9 1.3 0 2.2.6 2.1.8zM182.9 453.2c0 .1-.8.2-2-.1-.6-.1-1.3-.4-2.1-.7-.4-.2-.7-.4-1.1-.6-.2-.1-.4-.3-.6-.5-.2-.2-.3-.7-.1-1 .2-.3.6-.4.9-.4.3 0 .5.1.7.1.4.1.8.3 1.2.5.7.4 1.4.8 1.8 1.3.9.9 1.2 1.6 1.1 1.7-.1.1-.5-.6-1.4-1.3-.5-.4-1-.8-1.7-1.1-.4-.2-.7-.3-1.1-.4-.4-.1-.8-.1-.9 0v.2c.1.1.3.2.4.4.3.2.7.5 1 .6.7.4 1.3.6 1.9.8 1.3.4 2 .4 2 .5z"/><path class="st7" d="m224.1 394.8 11.2 17s20.7-6 23.1-3L226.5 432 208 406.2l16.1-11.4z"/><path class="st1" d="M224.6 417.5c-.5.6-.4 1.6.2 2.2.6.5 1.6.5 2.1-.1s.5-1.8-.2-2.3c-.7-.5-1.9-.3-2.2.4"/><path class="st6" d="M226.5 432.1 225 430l31.4-21.9s1.5-.1 2.2.8l-32.1 23.2zM235.6 411.8c.1.2-.6.8-1.1 1.9-.4 1.1-.4 2-.6 2.1-.2.1-.6-1-.1-2.3.7-1.4 1.8-1.9 1.8-1.7zM240 410.8c.1.1-.3.9-.4 1.9-.1 1.1.3 1.9.1 2-.1.1-.9-.7-.8-2 .2-1.4 1-2.1 1.1-1.9zM244.9 413.5c-.1.1-.9-.5-1.1-1.7-.2-1.2.3-2 .4-1.9.2.1 0 .9.2 1.8s.6 1.6.5 1.8zM232.6 408.2c0 .2-.8.5-1.7 1.2-.9.7-1.4 1.5-1.5 1.4-.2 0 .1-1.1 1.1-1.9 1-.9 2.1-.9 2.1-.7zM230.7 404.2c0 .1-.5.6-1.6 1.1-.6.3-1.3.5-2.1.7-.4.1-.8.1-1.3.2h-.8c-.3 0-.7-.4-.7-.8s.2-.7.4-.9c.2-.2.5-.3.7-.3.4-.2.8-.3 1.3-.4.8-.2 1.6-.2 2.2-.1 1.2.2 1.9.6 1.9.6 0 .1-.8-.1-1.9-.2-.6 0-1.3 0-2 .2-.4.1-.8.2-1.1.4-.4.2-.7.4-.7.6 0 .1 0 .1.2.2h.6c.4 0 .8-.1 1.2-.1.8-.1 1.4-.3 2-.5 1-.4 1.6-.8 1.7-.7zM123.2 331.8c.8 0-2 19.3 25.1 22.4 27.1 3.1 37.4 6.9 42.7 13.3 5.3 6.4-7.4 87.2-7.4 87.2l-22-1.3s1.6-42.9 2-48.1 3.7-18.8 3.7-18.8l-57.3 1.6h-1c-12.8-.2-23-16.4-22.2-29.2l1-18.7 35.4-8.4z"/><path class="st6" d="M124.4 345.7s26.4-7.9 40.6-9.5c14.2-1.5 22.4.7 24.9 3.2 5.7 6 43.7 65.3 43.7 65.3l-19.5 13.9s-33.3-45.3-42.5-57.3l-3.2-3.6-44.3-5.3.3-6.7z"/><path class="st7" d="M127.8 350.5s.1 0 .2.1c.2 0 .3.1.6.1.5.1 1.3.3 2.2.4 2 .4 4.8.9 8.2 1.5 7 1.3 16.6 3 27.2 4.9.7.1 1.5.3 2.2.4l-.1-.1c4.2 9.5 10 16.8 14.7 21.5 2.4 2.3 4.4 4.1 5.9 5.2.7.5 1.3 1 1.7 1.3.2.1.3.2.4.3.1.1.2.1.2.1l-.1-.1c-.1-.1-.3-.2-.4-.3-.4-.3-1-.8-1.7-1.3-1.4-1.2-3.5-2.9-5.8-5.3s-4.9-5.4-7.4-9c-2.5-3.6-5.1-7.8-7.1-12.5v-.1h-.1c-.7-.1-1.4-.3-2.2-.4-10.6-1.9-20.2-3.6-27.2-4.8-3.5-.6-6.3-1.1-8.2-1.4-1-.2-1.7-.3-2.2-.4-.2 0-.4-.1-.6-.1h-.4z"/><path class="st1" d="M157 337.9h-12.9l5.8-20.2-57.8-10.2s-1.7 22.3-4.8 36c-3 13.5-.2 39.2 13.3 41.2h39l17.4-46.8z"/><path class="st1" d="m127.7 252-4.2 3s-15.7 3-20.4 5.7c-13 7.4-12 54.6-12 54.6l-1.9 17.5L100 331l34.4-.5 5.1-13.5 9.4-18.3-2.7-1.7 6.9-21-4.7-4.9-1.8-7.3-15.9-12.8-3 1z"/><path class="st2" d="m146.8 265.3-16.5-12.8.2-1.4-2 1.2 10.1 48.6z"/><path class="st6" d="M128.8 329.1s0-.1.1-.2.1-.3.2-.6c.2-.5.5-1.3.8-2.3.4-1 .8-2.2 1.4-3.6.3-.7.5-1.5.8-2.3.2-.4.3-.8.5-1.2.2-.4.3-.9.5-1.3.6-1.8 1.3-3.7 2.1-5.8.4-1 .8-2.1 1.2-3.2.4-1.1.8-2.3 1.2-3.5.2-.6.4-1.2.4-1.8 0-.6-.1-1.3-.3-1.9-.2-.6-.6-1.2-.8-1.8l-.9-1.8c-1.1-2.5-2.2-5.1-3.2-7.8-1.6-4.5-3.1-8.9-4.7-12.8v-.1c1.3-1.3 2.5-2.5 3.6-3.8v.1c-1.6-.5-3.2-.7-4.8-.5h-.1v-.1c-1.2-5.4-2.1-9.8-2.6-12.9-.3-1.6-.4-2.8-.5-3.6-.1-.8-.1-1.3-.1-1.3v.3c0 .2.1.5.1 1 .1.8.3 2.1.6 3.6.6 3.1 1.5 7.6 2.7 12.9l-.1-.1c1.5-.2 3.2 0 4.8.5h.1l-.1.1c-1.1 1.2-2.3 2.5-3.6 3.8v-.1c1.6 4 3 8.3 4.7 12.8 1 2.7 2 5.3 3.2 7.8l.9 1.8c.3.6.6 1.2.8 1.8.3.6.4 1.3.3 1.9 0 .7-.2 1.3-.4 1.9-.4 1.2-.8 2.3-1.2 3.5-.4 1.1-.8 2.2-1.2 3.2-.8 2.1-1.5 4-2.1 5.8-.2.4-.3.9-.5 1.3s-.3.8-.5 1.2c-.3.8-.6 1.5-.9 2.2-.5 1.4-1 2.6-1.4 3.6-.4 1-.7 1.7-.9 2.3-.1.3-.2.4-.2.6.2.4.1.4.1.4zM151.2 280.3s0 .1 0 0c0 .2-.1.2-.1.3-.1.2-.2.5-.3 1-.2.8-.6 2-1 3.5-.9 3-2.1 7.2-3.5 11.9v-.1c.7.4 1.5.9 2.2 1.4.1.1.3.2.4.3h.1v.1c-2.5 4.8-4.7 9.1-6.3 12.3-.8 1.6-1.5 2.8-1.9 3.7l-.5 1c-.1.1-.1.2-.1.3 0 .1-.1.1-.1.1v-.1c0-.1.1-.2.1-.3l.5-1c.4-.9 1.1-2.2 1.9-3.7 1.6-3.2 3.8-7.5 6.2-12.3v.1c-.1-.1-.3-.2-.4-.3-.8-.5-1.5-1-2.2-1.4h-.1v-.1c1.4-4.7 2.7-8.8 3.6-11.8.5-1.5.8-2.7 1.1-3.5.1-.4.2-.7.3-.9 0-.2.1-.3.1-.5 0 .1 0 0 0 0zM148.3 271.1s0 .1 0 0c0 .1 0 .2.1.3 0 .2.1.5.1.9.1.8.3 2 .5 3.5v.1h-.1c-.7.1-1.5.1-2.4.2l.1-.1c.6.8 1.2 1.6 1.9 2.5-.8 2.1-1.8 4.4-2.8 6.8-1.8 4.5-3.5 8.7-4.7 11.6-.6 1.5-1.1 2.7-1.5 3.5-.2.4-.3.7-.4 1 0 .1-.1.2-.1.2v.1-.1c0-.1.1-.2.1-.3.1-.2.2-.6.4-1 .3-.9.8-2.1 1.4-3.5 1.2-3 2.9-7.1 4.7-11.7 1-2.4 1.9-4.8 2.8-6.8v.1c-.7-.9-1.3-1.8-1.9-2.6l-.1-.1h.1c.9-.1 1.7-.1 2.4-.2l-.1.1c-.2-1.5-.4-2.7-.5-3.5 0-.4-.1-.7-.1-.9.2.2.1.1.1-.1 0 .1 0 0 0 0zM141.6 275.6l-.2-.2c-.1-.1-.3-.4-.6-.6-.5-.6-1.2-1.4-1.9-2.5h.1c-.4 1.2-1 2.5-1.8 3.8-.3.5-.6.9-.9 1.4l-.1.1-.1-.1c-1-1.7-1.8-3.2-2.4-4.3-.3-.5-.5-.9-.7-1.3-.2-.3-.2-.5-.2-.5s.1.1.3.4c.2.3.4.7.7 1.2.6 1.1 1.5 2.6 2.5 4.3h-.2c.3-.4.6-.9.9-1.3.8-1.3 1.4-2.6 1.8-3.8l.1-.2.1.1c.7 1.1 1.3 1.9 1.8 2.5.2.3.4.5.6.7.2.2.2.3.2.3zM138 300v-.3c0-.2 0-.4.1-.7.1-.6.2-1.5.3-2.6.3-2.2.7-5.3 1.2-8.7.5-3.4 1-6.5 1.5-8.7.2-1.1.4-2 .5-2.6.1-.3.1-.5.1-.7 0-.2.1-.2.1-.2v.3c0 .2-.1.4-.1.7-.1.6-.3 1.5-.4 2.6-.4 2.2-.9 5.3-1.4 8.7-.5 3.4-1 6.5-1.3 8.7-.2 1.1-.3 2-.4 2.6 0 .3-.1.5-.1.7-.1.1-.1.2-.1.2z"/><path d="m123.6 257.6.1.8 2.3 16.2 3.8-.4-2.8 2.2 9.9 27.2-.6 5.3s2.1-5.6 1.7-6.4c-.9-2-9.9-25.3-9.9-25.3l3.6-3.8-4.8-.5-3.3-15.3zM147.8 294.6l2.8-11.6-4.5 13.9 2.8 1.8-5.7 10.9 1.1 1.1 5.5-12.1z" class="st8"/><path class="st9" d="m146.8 297.2 2.6-5.2c.2-.4.8-.6 1.2-.3.3.2.5.7.3 1.1l-2.7 5.3-1.4-.9z"/><path class="st6" d="M152 351.2s-.6-.1-1.7-.3c-1.1-.3-2.6-.7-4.5-1.1-3.8-1-9-2.4-14.7-3.6-5.8-1.3-11.1-2-15-2.4-1.9-.2-3.5-.3-4.6-.4-1.1-.1-1.7-.1-1.7-.2 0 0 .6-.1 1.7 0 1.1 0 2.7.1 4.6.2 3.9.3 9.2 1 15.1 2.3 5.8 1.3 11 2.7 14.7 3.8 1.8.5 3.3 1 4.4 1.3 1.2.2 1.8.4 1.7.4z"/><path class="st11" d="M181 260.1s-6.1 9.8-6.7 11.1c-.6 1.2-.2 7.2-.2 7.2l-3.3 4.5 6.3 9.4 6-10s3.1-2.1 4.1-3.6c1-1.6 6.3-11.8 6.3-11.8l.1-5.1s.5-2-1.1-2.2c-1.6-.3-2 1.3-2 1.3s2.1-2.7.7-3.9c-1.4-1.2-2.3-.1-2.8.5s-2.5 2.5-2.5 2.5 2.2-3.2 1.8-3.9c-.3-.7-.9-1-1.9-.6-1 .4-1.7.7-2.5 2-.7 1.3-1.6 2.6-1.6 2.6h-.7z"/><path class="st12" d="M182 277.3s0-.1.1-.2.1-.3.2-.5c.1-.4.4-1.1.4-1.9v-.6c0-.2-.1-.5-.1-.7-.1-.5-.2-1-.4-1.5s-.5-1-.8-1.5c-.4-.5-.8-.9-1.3-1.3l-.1-.1.1-.1c.1-.1.1-.2.2-.2.8-1 1.3-2.1 1.8-3.2.2-.5.4-1 .5-1.5.1-.5.1-.9.1-1.4 0-.8-.3-1.5-.6-1.9-.3-.4-.5-.6-.4-.6 0 0 .1 0 .1.1l.4.4c.3.4.6 1.1.6 1.9 0 .4 0 .9-.1 1.4-.1.5-.3 1-.5 1.5-.4 1.1-.9 2.2-1.8 3.2-.1.1-.1.2-.2.2v-.1c.6.4 1 .8 1.3 1.3.4.5.6 1 .8 1.5.2.5.3 1 .4 1.5 0 .2.1.5.1.7v.7c0 .8-.3 1.5-.5 1.9-.1.2-.2.3-.2.5l-.1.5z"/><path class="st1" d="m171.6 279.5-11.2 16.3-7.3-19.7-11.1 32.4s10.8 10.9 18.1 12.8c7.3 1.9 9.2-1.9 10.8-6.1.9-2.6 14.1-25.7 14.1-25.7l-13.4-10z"/><path class="st6" d="M160.8 295.1s0 .1-.1.2-.1.3-.2.5-.2.5-.3.7c-.1.3-.3.6-.4 1-.3.7-.6 1.6-.8 2.7-.3 1-.5 2.1-.6 3.3-.2 1.2-.2 2.4-.2 3.4s0 2 .1 2.8c0 .4.1.8.1 1.1 0 .3.1.6.1.8 0 .2.1.4.1.5v.2-.2c0-.1-.1-.3-.1-.5s-.1-.5-.1-.8c0-.3-.1-.7-.1-1.1-.1-.8-.1-1.7-.2-2.8 0-1.1.1-2.2.2-3.4.2-1.2.4-2.3.7-3.4.3-1 .6-1.9.9-2.7.1-.4.3-.7.4-1 .1-.3.2-.5.3-.7.1-.2.2-.3.2-.5-.1 0 0-.1 0-.1zM182.7 268.1l-4.6.5-.7.9.4 2.8.9.8 4.4-.8z"/><path class="st7" d="M178.2 268.6s0 1 .2 2.2c.2 1.2.3 2.2.4 2.2 0 0-.1-1-.2-2.2-.2-1.3-.4-2.2-.4-2.2zM179.5 272.9s-.1-1-.3-2.2c-.2-1.2-.4-2.2-.4-2.2s.1 1 .3 2.2c.1 1.3.3 2.2.4 2.2z"/><path class="st6" d="M187 275.2c0 .3-2.9 4.4-2.9 4.4h-2.6l-1-.7-.4-2.6 3.2-4.1 3.7 3z"/><path class="st7" d="M180 276.3s.2.2.6.5c.4.3.9.7 1.5 1.1 1.1.9 2 1.8 2 1.7 0 0-.2-.2-.5-.6-.3-.3-.8-.8-1.4-1.3-.6-.5-1.1-.9-1.5-1.1-.4-.2-.7-.4-.7-.3zM180.3 275.9s1.1.6 2.2 1.5 1.8 1.9 1.9 1.8c0 0-.1-.3-.4-.6-.3-.4-.8-.9-1.3-1.3-.6-.5-1.1-.8-1.6-1-.5-.4-.8-.5-.8-.4z"/><path class="st6" d="M187.3 274.8h4.9v6.6h-4.9z"/><path class="st7" d="M187.2 280.7s1.1.1 2.4.1c1.3 0 2.4 0 2.4-.1 0 0-1.1-.1-2.4-.1-1.3 0-2.4 0-2.4.1zM187.2 280.1s1.1.1 2.4.1c1.3 0 2.4 0 2.4-.1 0 0-1.1-.1-2.4-.1-1.3 0-2.4 0-2.4.1z"/><path class="st3" d="M194.6 272.9c-1.7 2.5-5.2 3.6-8 2.5s-4.6-4.3-4.1-7.3l2.6 1.7 9.5 3.1z"/><path class="st6" d="M206.9 299.8h-6.5v-6.4h-13.8c-.9 0-1.6-.7-1.6-1.6 0-.9.7-1.6 1.6-1.6h8V288h-14.5c-.9 0-1.6-.7-1.6-1.6 0-.9.7-1.6 1.6-1.6H204v2.5h2.7l.2 12.5zM204.1 284.8v15"/><path class="st7" d="M204.1 299.8s.1-3.4.1-7.5 0-7.5-.1-7.5c0 0-.1 3.4-.1 7.5 0 4.2 0 7.5.1 7.5zM200.4 285s-.1 1.9-.1 4.2c0 2.3 0 4.2.1 4.2 0 0 .1-1.9.1-4.2 0-2.3-.1-4.2-.1-4.2z"/><path class="st3" d="M178.6 312.5s1.2-4.8 6.6-5.7H207l.5 6.1-28.9-.4z"/><path class="st7" d="M218.4 298.1v-24.7c0-.8-.5-1.5-1.3-1.7l-20.5-5.8-.2-8.1-12.2-.2-3.8-3.5-6 6.8 7.9 8.6 24.3 7.5.4 35.4h-28.4c-.7 0-1.3.6-1.3 1.3v4.6h41v-20.2z"/><path class="st1" d="M182.1 284.8h11.1c.6 0 1-.5 1-1v-.1c0-.6-.5-1-1-1h-11.1c-.6 0-1 .5-1 1v.1c-.1.6.4 1 1 1z"/><path class="st6" d="M182.1 284.8s-.1 0-.3-.1c-.2-.1-.4-.2-.6-.5-.1-.2-.1-.4-.1-.6 0-.2.1-.4.3-.6.2-.2.4-.3.7-.3h11.1c.5 0 .9.4.9.8 0 .2 0 .5-.1.7-.1.2-.3.4-.5.4-.2.1-.4.1-.7.1h-10.5c-.1.1-.2.1-.2.1h10.8c.2 0 .5 0 .7-.1.2-.1.4-.3.6-.5.1-.2.1-.5.1-.8-.1-.5-.6-1-1.1-1h-11.1c-.3 0-.6.2-.8.4-.2.2-.3.5-.3.7 0 .2 0 .4.1.6.2.3.5.5.7.5.2.2.3.2.3.2zM206.4 297.9c0 3.5 2.8 6.3 6.3 6.3s6.3-2.8 6.3-6.3-2.8-6.3-6.3-6.3-6.3 2.8-6.3 6.3z"/><path class="st7" d="M209.2 298.1s0-.3.1-.9c.1-.5.5-1.3 1.3-1.9.4-.3.9-.5 1.5-.6.6-.1 1.2-.1 1.8.2.3.1.6.3.9.5.3.2.5.4.7.7.4.6.7 1.3.7 2s-.2 1.5-.7 2c-.2.3-.5.5-.7.7-.3.2-.6.4-.9.5-.6.2-1.2.3-1.8.2-.6-.1-1.1-.3-1.5-.6-.8-.6-1.1-1.4-1.3-1.9-.1-.6-.1-.9-.1-.9s0 .3.1.9c.1.5.5 1.3 1.3 2 .4.3.9.6 1.5.7.6.1 1.3.1 1.9-.1.3-.1.6-.3.9-.5.3-.2.5-.5.8-.8.4-.6.7-1.4.7-2.1 0-.8-.3-1.5-.7-2.1-.2-.3-.5-.6-.8-.8-.3-.2-.6-.4-.9-.5-.6-.2-1.3-.3-1.9-.1-.6.1-1.1.4-1.5.7-.8.6-1.2 1.4-1.3 2-.2.4-.1.7-.1.7z"/><path class="st6" d="m182.3 255.1-7.2 7.9-2.6-2.6 7.2-7.7zM171.3 248l3.3 3.2c.2.2.2.6 0 .8l-2.8 3c-.2.2-.6.2-.8 0l-3.4-3.3c-.2-.2-.2-.6 0-.8l2.9-2.8c.2-.3.5-.3.8-.1z"/><path class="st6" d="M174.3 251.9c.1.1 3.7 3.6 3.7 3.6l-2.9 2.9-3.7-3.6 2.9-2.9zM173.7 320.3h44l1.4-1.9h-45.4z"/><path transform="rotate(-180 190.805 304.223)" class="st7" d="M185.2 301.6h11.2v5.2h-11.2z"/><path class="st6" d="M195.2 301.7v5.1M195.2 306.8s.1-1.1.1-2.6c0-1.4 0-2.6-.1-2.6 0 0-.1 1.1-.1 2.6s0 2.6.1 2.6zM193.3 301.7v5.1M193.3 306.8s.1-1.1.1-2.6c0-1.4 0-2.6-.1-2.6 0 0-.1 1.1-.1 2.6s.1 2.6.1 2.6zM191.4 301.7v5.1M191.4 306.8s.1-1.1.1-2.6c0-1.4 0-2.6-.1-2.6 0 0-.1 1.1-.1 2.6.1 1.5.1 2.6.1 2.6zM189.6 301.7v5.1M189.6 306.8s.1-1.1.1-2.6c0-1.4 0-2.6-.1-2.6 0 0-.1 1.1-.1 2.6s0 2.6.1 2.6zM187.7 301.7v5.1M187.7 306.8s.1-1.1.1-2.6c0-1.4 0-2.6-.1-2.6 0 0-.1 1.1-.1 2.6s0 2.6.1 2.6zM185.8 301.7v5.1M185.8 306.8s.1-1.1.1-2.6c0-1.4 0-2.6-.1-2.6s-.1 1.1-.1 2.6.1 2.6.1 2.6zM222.2 320.3h-53.7v8.8h53.9z"/><path class="st7" d="M168.9 324.7c0-.1 12-.1 26.7-.1 14.8 0 26.7 0 26.7.1s-12 .1-26.7.1-26.7 0-26.7-.1z"/><path d="M95.4 286.3s1.9 33.9 5.6 37.6c2.6 2.5 7.1 2.6 13.4 4.1 6.8 1.6 21.8 1.9 21.8 1.9s-32.2-13.5-32.1-14.3c.1-.9-8.7-29.3-8.7-29.3z" class="st8"/><path class="st1" d="M119.2 273.8c-.2 1 1.9 33.6 1.9 33.6s5.8 1.4 9.9 2.3c5.3 1.1 22 3.6 22 3.6l-1.4 16.1s-12.5 1-24.9-.7c-11.9-1.6-22.4-2.6-24.8-4.7-5.1-4.5-5.8-34.2-6.7-39.3"/><path class="st6" d="M95.2 284.7s0 .1.1.4c.1.3.1.7.2 1.3.1 1.1.3 2.8.5 5 .4 4.4.8 10.7 1.9 18.4.3 1.9.6 4 1.1 6 .5 2.1 1 4.3 2 6.3.3.5.6 1 .9 1.4.4.4.9.7 1.4 1 1.1.5 2.2.8 3.4 1 2.4.5 4.9.9 7.4 1.3 2.6.3 5.2.7 7.9 1 2.7.3 5.4.7 8.2 1 5.6.6 11.4.7 17.4.5 1.4 0 2.8-.1 4.1-.2l-.2.2c.5-5.5.9-10.9 1.4-16.1l.2.2c-6-.9-11.7-1.8-17-2.7-1.3-.2-2.7-.5-4-.7-1.3-.2-2.5-.6-3.8-.8-2.5-.6-4.9-1.1-7.1-1.6h-.1v-.1c-.7-10.3-1.2-18.7-1.5-24.5-.2-2.9-.3-5.2-.3-6.7v-2.4V274.5c0 .4 0 1 .1 1.8.1 1.6.2 3.8.4 6.7.4 5.8.9 14.3 1.6 24.5l-.1-.1c2.3.5 4.7 1.1 7.1 1.6 1.2.3 2.5.6 3.8.8 1.3.2 2.6.5 3.9.7 5.4.9 11.1 1.8 17 2.7h.2v.2c-.4 5.2-.9 10.6-1.4 16.1v.2h-.2c-1.4.1-2.8.2-4.1.2-6 .2-11.8.1-17.4-.5-2.8-.3-5.5-.7-8.2-1-2.7-.3-5.3-.7-7.9-1-2.6-.4-5.1-.7-7.5-1.3-1.2-.3-2.4-.6-3.5-1.1-.5-.3-1.1-.6-1.5-1-.4-.4-.7-1-1-1.5-1-2.1-1.5-4.3-2-6.4-.4-2.1-.8-4.1-1-6.1-1-7.8-1.4-14.1-1.7-18.5-.2-2.2-.3-3.9-.4-5-.1-.6-.1-1-.1-1.3-.2-.3-.2-.5-.2-.5zM102.9 261.1s.1 0 .2-.1c.1 0 .3-.1.6-.2.5-.1 1.3-.2 2.2-.3 1 0 2.1 0 3.3.3 1.2.3 2.6.8 3.8 1.5 1.2.8 2.3 1.7 3.1 2.7.8 1 1.4 2 1.8 2.8.4.9.6 1.6.8 2.1.1.3.1.5.1.6v.2s-.1-.3-.2-.8-.4-1.2-.8-2.1c-.4-.9-1-1.8-1.8-2.8-.8-1-1.8-1.9-3.1-2.6-1.2-.7-2.5-1.2-3.7-1.5-1.2-.3-2.3-.4-3.3-.4-.9 0-1.7.1-2.2.2-.5.3-.8.4-.8.4z"/><path class="st6" d="M120.9 307.5s-.4.3-1.1.8c-.7.5-1.7 1.1-2.7 1.9-1.1.8-2 1.5-2.7 2-.7.5-1.1.9-1.1.8l.3-.3c.2-.2.4-.4.8-.7.6-.6 1.6-1.3 2.6-2 1.1-.8 2.1-1.4 2.8-1.8.4-.2.7-.4.9-.5l.2-.2z"/><path class="st11" d="M153 314.8s5.5.5 7.4-.1c1.9-.6 2.3-1.4 4.5-1.4 2.2-.1 11.8 0 11.8 0s8.2-.3 8.8.9c0 0 .4.7 0 1.3-.4.6-2.2 1-2.7 1s-11.2.5-11.2.5-.4.1 0 .3c.4.2 12.7-.5 13.2.1.6.6.3 1.9-.7 2.1-1 .3-11.3 1.7-11.7 1.6-.4-.1 7.5.1 8.2 0 .7-.1 3.8-1 4.2 0 .3 1-.4 1.8-2.2 2.7-1.9.9-4.4.8-4.4.8s.4 1.2-.9 2-8.3 1.9-10.1 1.4c-1.8-.5-15.4-1.2-15.4-1.2l1.2-12z"/><path class="st12" d="M170.8 325.3c0-.1 1.7-.2 3.8-.4 2.1-.1 3.8-.2 3.8-.2 0 .1-1.7.2-3.8.4-2.1.2-3.8.3-3.8.2z"/><path class="st6" d="M142.8 212.9c.3-1.7-.3-3.5-1.4-4.9-1.1-1.4-2.6-2.4-4.2-3.2-2.9-1.5-6.5-2.2-9.5-.8-3.1 1.5-4.8 5.2-4.8 8.6.1 3.4 2 7.1 5.3 8.1-1.3.7-2.5 1.7-3.4 2.9-.2.3-.5.7-.4 1 .1.8 1.1 1 1.8.9.7-.2 1.4-.7 2.2-.7-.9.2-1.6 1-1.7 1.9-.1.9.5 1.8 1.3 2.2.9.4 1.9.2 2.7-.3.8-.5 1.4-1.2 2.1-1.9"/><path class="st7" d="M134 219.1c.5-1.1 1.3-2 2.1-2.8 1.4-1.4 3.1-2.7 4.9-3.5 1.8-.8 4-.5 5.7.6l-12.5 9.2c-.7-1-.6-2.4-.2-3.5z"/><path class="st6" d="M172 240.3c-3.5 8.8-10.6 16.3-18.6 18.9-8 2.6-16.6-.3-20.5-7.5-1.4-2.5-3.2-3.7-3.8-6.7-.8-3.8-1.6-7.5-1-11.6.6-4.1 2.3-8.9 6.9-13.6"/><path class="st6" d="M171 242.5c1.8-3.5 2.6-7.5 2.1-11.4-.5-3.9-2.2-7.6-4.8-10.5-3.2-3.5-7.6-5.7-12.2-7.1-2.9-.9-6.1-1.4-9.1-1-3 .5-5.7 1.9-8.1 3.7-2.4 1.8-4.3 4.1-6.3 6.3"/><path class="st11" d="M147 219.2h13.6l.7 1.5c6.9 2.8 10.7 10.4 7.6 19.1-2.2 6.3-4.6 12.6-7.4 16.8-5.7 8.4-13.3 6.4-13.3 6.4l-2.1 3.1-7.3 9.5-10.9-21.2 14.7-33.3c.8-1.7 2.7-2.5 4.4-1.9z"/><path class="st6" d="M164.1 245.2c-.3.6-1 .9-1.7.6-.7-.3-1-1-.7-1.6.3-.6 1-.9 1.7-.7.6.4.9 1.1.7 1.7zM166.6 241.7c-.2.1-.8-1-2-1.6-1.2-.6-2.5-.4-2.5-.6 0-.1.2-.3.8-.4.5-.1 1.3-.1 2.1.3s1.3 1 1.5 1.4c.2.6.2.9.1.9zM153.2 240.3c-.2.1-.7-1.1-1.9-1.8s-2.4-.6-2.4-.9c0-.1.3-.3.8-.3.5-.1 1.3.1 2.1.5.7.4 1.2 1.1 1.4 1.6.2.6.1.9 0 .9zM154.3 247.7c0-.1.9.2 2.2.6.3.1.7.2.8 0 .2-.2.2-.6.2-1 .1-.9.1-1.9.2-2.9.3-4.1.7-7.4.8-7.3.2 0 .1 3.3-.3 7.4-.1 1-.2 2-.2 2.9 0 .4 0 .9-.4 1.3-.2.2-.5.3-.7.2-.2 0-.4-.1-.6-.2-1.2-.6-2-.9-2-1z"/><path class="st12" d="M148.1 262.9s-6.2-2.5-10.5-9c0 0-.1 7.9 9.4 11.3l1.1-2.3zM152.4 250.5c-.2-.8-.8-1.5-1.6-1.8-.6-.2-1.2-.2-1.8.1-.5.3-.9.9-.8 1.4.1.6.8 1.1 1.4 1.2.7.1 1.4 0 2-.2.2 0 .4-.1.5-.2.2-.1.3-.3.3-.5"/><path class="st6" d="M150.2 246.8c.2.1-.4 1.4.3 2.9s2.2 2 2.1 2.2c0 .1-.4.1-1.1-.2-.6-.3-1.4-.9-1.8-1.8-.4-.9-.4-1.9-.2-2.4.3-.4.6-.7.7-.7zM156.2 236.6c-.3.3-1.4-.6-2.9-1.3-1.5-.7-2.8-1-2.9-1.4 0-.2.4-.4 1-.4s1.5.1 2.4.5c.9.4 1.6 1 2 1.5.4.5.5.9.4 1.1zM168.6 236.7c-.4.2-1.1-.5-2.1-1s-2-.7-2.1-1.1c0-.2.2-.4.8-.5.5-.1 1.2 0 1.9.3.7.4 1.2.9 1.4 1.4.3.5.3.8.1.9zM146.1 216.5c1.3-.6 2.8-.4 4.2-.2 6.1 1 12.1 2.7 17.8 5 0 1.4-1.4 2.5-2.9 2.7-1.5.2-2.9-.2-4.4-.5-1.5-.2-3.1-.3-4.2.6-1.2.9-1.7 2.6-2.9 3.5-2.1 1.6-5.5.6-7.6 2.3-1.6 1.3-1.6 3.5-2.4 5.3-.9 2-2.8 3.6-5.1 4.1-1.8.4-3.7.1-5.3-.8 3.3-6.2 5.3-13.4 8.6-19.6.8-1.4 2.9-1.7 4.2-2.4z"/><path class="st7" d="M154.6 213.8s.2.1.6.2c.2 0 .4.1.7.2l.9.3c.3.1.7.2 1.1.4l1.2.6c.9.4 1.8 1 2.7 1.7.9.7 1.7 1.4 2.3 2.1.3.4.6.7.9 1 .3.3.5.7.7 1 .2.3.4.6.5.8.2.2.3.5.4.6.2.4.3.6.3.5s-.1-.2-.3-.6c-.1-.2-.2-.4-.3-.7-.1-.3-.3-.6-.5-.9-.2-.3-.4-.6-.7-1-.3-.4-.6-.7-.9-1.1-.7-.7-1.4-1.5-2.3-2.1-.9-.7-1.8-1.2-2.7-1.7-.4-.2-.9-.4-1.3-.6-.4-.2-.8-.3-1.1-.4-.3-.1-.7-.2-1-.3-.3-.1-.5-.1-.7-.2-.2.2-.5.2-.5.2z"/><path class="st1" d="m146.8 242.2-.3-.3c-2.1-1.8-2.6-5-1.3-7.5l1.6-3c.4-.8 1.4-1.1 2.2-.7l10.4 5 12.5 5.9c.6.3.9 1.1.6 1.7l-1.5 3.4c-1.1 2.6-4 4.2-6.7 3.7-.1 0-.3-.1-.4-.1-3.5-.9-5.8-3.2-5.9-4.9-.1-1.7.7-5.3.7-5.4v-.3c-.1-.1-.3-.2-.4-.2-.1 0-.3.1-.4.3 0 0-2.4 2.9-3.8 3.9-1.1.8-3.3.7-5.6-.4-.4-.2-1.1-.6-1.7-1.1zm12.4-2.6.1.1v.5c-.2.7-.7 3.8-.7 5.3.1 1.5 2.3 3.7 5.6 4.5.1 0 .3.1.4.1 2.5.5 5.2-1 6.2-3.4l1.5-3.4c.2-.4 0-1-.4-1.2l-12.5-5.9-10.4-5c-.6-.3-1.4-.1-1.7.6l-1.6 3c-1.3 2.4-.8 5.3 1.2 7l.3.3c2.6 2 5.7 2.5 7 1.6 1.4-1 3.7-3.8 3.7-3.8.2-.3.4-.4.7-.4.1 0 .3 0 .4.1 0-.2.1-.1.2 0z"/><path class="st1" d="M147.8 230.8s-14.2 1.3-15.5 2.1c-.5.4-.9 1.1-1.3 1.8-.4.9.5 1.9 1.4 1.6l4.4-1.3 7.9.9 3.1-5.1z"/><path class="st2" d="m147.9 232.2-.4.4c-.2.2-.5.6-.7 1.2-.5 1-.9 2.7-.4 4.5.5 1.7 1.7 3 2.7 3.6.5.3.9.5 1.3.6.3.1.5.1.5.1s-.7-.2-1.7-.8c-1-.6-2.1-1.8-2.6-3.5s-.1-3.3.3-4.4c.5-1.1 1-1.7 1-1.7zM167.4 241.8c-.1 0 .3 1.2.9 2.5.5 1.4 1 2.5 1.1 2.5.1 0-.3-1.2-.9-2.5-.6-1.4-1-2.5-1.1-2.5zM164.5 240.5s.2.4.5 1.1.8 1.6 1.3 2.6 1 1.9 1.4 2.6c.4.6.6 1 .6 1s-.2-.4-.5-1.1c-.3-.7-.8-1.6-1.3-2.6s-1-1.9-1.4-2.6c-.3-.6-.6-1-.6-1z"/><path class="st11" d="M138.3 237.1c.3-.7.3-2.6-.3-3-1.7-1.1-4.9-2.5-7.1 2-2.9 6.2 3.9 7.8 4 7.7 0-.2 2.3-4.4 3.4-6.7z"/><path class="st12" d="M134.1 240.5h-.4c-.2 0-.5-.1-.8-.4-.5-.5-.6-1.8-.1-3 .3-.6.6-1 1-1.4.4-.4.8-.5 1.2-.4.4.1.5.4.5.6 0 .2-.1.3-.1.3s.2 0 .3-.3c0-.1 0-.3-.1-.5s-.3-.4-.5-.4c-.5-.2-1.1 0-1.6.4s-.9.9-1.2 1.5c-.5 1.3-.5 2.7.3 3.4.4.3.8.4 1.1.3.3.1.4-.1.4-.1z"/><path class="st1" d="M90.2 390h-4.1c-2.2 0-4-1.6-4.2-3.8-.8-6.7-2.4-25.3-2.4-25.5l2.9-.3c0 .2 1.6 18.8 2.4 25.4.1.7.7 1.2 1.3 1.2h4.1v3z"/><path class="st6" d="M90.2 390v-3.1h-4.5c-.2 0-.4-.2-.6-.3-.2-.2-.3-.4-.3-.6 0-.3-.1-.5-.1-.8-.1-.6-.1-1.1-.2-1.8-.1-1.2-.2-2.5-.4-3.9-.5-5.4-1.1-12-1.8-19.1v-.2h-.2c-.7.1-1.4.1-2.2.2-.3 0-.5 0-.8.1h-.2v.2c1 9.9 1.8 18.8 2.5 25.3.1 1.7 1.2 3 2.4 3.6.6.3 1.2.4 1.8.5h4.1c.5-.1.6-.1.5-.1H87.3c-.9 0-2 .1-3.2-.5-1.1-.6-2.1-1.8-2.2-3.4-.6-6.5-1.4-15.4-2.4-25.3l-.2.2c.2 0 .5 0 .8-.1.7-.1 1.5-.1 2.2-.2l-.2-.2c.7 7.1 1.3 13.6 1.9 19.1.1 1.4.3 2.6.4 3.9.1.6.1 1.2.2 1.8 0 .3 0 .6.1.8.1.3.2.6.4.8.2.2.5.3.7.4.3.1.5 0 .8 0H90.3l-.1-.1V390c0-.1 0 0 0 0z"/><path class="st7" d="M155.7 393.6H90.1c-2.4 0-4.4-2-4.4-4.4 0-2.4 2-4.4 4.4-4.4h65.6c2.4 0 4.4 2 4.4 4.4 0 2.4-2 4.4-4.4 4.4zM76.1 362.9l-8.9-70.2c-.3-2.4 1.4-4.6 3.8-4.9 2.4-.3 4.6 1.4 4.9 3.8l8.9 70.2c.3 2.4-1.4 4.6-3.8 4.9-2.4.3-4.6-1.4-4.9-3.8z"/><path class="st7" d="m155.2 390.8 12.4 83.8-4.2.2-16.9-81.2zM90.9 390.8l-11.5 83.8h4.3l15.9-81z"/><path class="st6" d="M156.2 393.6c0-.1-15-.2-33.5-.2s-33.5.1-33.5.2 15 .2 33.5.2c18.5-.1 33.5-.2 33.5-.2z"/></g><g id="Table"><path class="st7" d="M99.6 328.7H429v12.6H99.6z"/><path class="st1" d="m264.8 307 .2 19.2c0 1.1.9 1.9 2 1.9s2-.9 2-2.1v-19h-4.2z"/><path class="st6" d="M264.8 307h4.2V326.4c0 .3-.1.5-.3.8-.2.4-.6.7-1 .9-.4.2-.8.2-1.3.1-.8-.2-1.5-.9-1.6-1.7v-4.6c0-2.9 0-5.5-.1-7.8v-7l.1-.1v1.9c0 1.2 0 3 .1 5.2 0 2.2.1 4.8.1 7.7v4.6c.1.8.7 1.4 1.5 1.6.4.1.8 0 1.2-.1.4-.2.7-.4.9-.8.1-.2.2-.5.2-.7V307c-1.3 0-2.4 0-3.1-.1h-.8c.1.1 0 .1-.1.1z"/><path class="st9" d="M265.3 316.8v9.1c0 .9.8 1.6 1.7 1.6 1 0 1.7-.8 1.7-1.7l-.1-9h-3.3zM269.8 309.7H264c-.2 0-.4-.2-.4-.4v-3.2c0-.2.2-.4.4-.4h5.8c.2 0 .4.2.4.4v3.2c0 .3-.2.4-.4.4z"/><path class="st6" d="M264 309.7s-.1-.9-.1-2 0-2 .1-2 .1.9.1 2 0 2-.1 2zM265 309.7s-.1-.9-.1-2 0-2 .1-2c0 0 .1.9.1 2-.1 1.1-.1 2-.1 2zM265.9 309.7s-.1-.9-.1-2 0-2 .1-2c0 0 .1.9.1 2s-.1 2-.1 2zM266.8 309.7s-.1-.9-.1-2 0-2 .1-2c0 0 .1.9.1 2s0 2-.1 2zM267.8 309.7s-.1-.9-.1-2 0-2 .1-2c0 0 .1.9.1 2s-.1 2-.1 2zM268.7 309.7s-.1-.9-.1-2 0-2 .1-2 .1.9.1 2 0 2-.1 2zM269.7 309.7s-.1-.9-.1-2 0-2 .1-2 .1.9.1 2c-.1 1.1-.1 2-.1 2z"/><path class="st16" d="M265.9 312.3h2.2v9.9h-2.2z"/><path class="st6" d="M268.1 322.2v-9.9l.1.1H266l.1-.1v9.9l-.1-.1h2l.1.1h-2.4v-10l.1-.1H268.1v10.1z"/><path class="st1" d="m255.9 307 .2 19.2c0 1.1.9 1.9 2 1.9s2-.9 2-2.1v-19h-4.2z"/><path class="st6" d="M255.9 307h4.2V326.4c0 .3-.1.5-.3.8-.2.4-.6.7-1 .9-.4.2-.8.2-1.3.1-.8-.2-1.5-.9-1.6-1.7v-4.6c0-2.9 0-5.5-.1-7.8v-7l.1-.1v1.9c0 1.2 0 3 .1 5.2 0 2.2.1 4.8.1 7.7v4.6c.1.8.7 1.4 1.5 1.6.4.1.8 0 1.2-.1.4-.2.7-.4.9-.8.1-.2.2-.5.2-.7V307c-1.3 0-2.4 0-3.1-.1h-.8c.1.1 0 .1-.1.1z"/><path class="st9" d="M256.4 316.8v9.1c0 .9.8 1.6 1.7 1.6 1 0 1.7-.8 1.7-1.7l-.1-9h-3.3zM260.9 309.7h-5.7c-.3 0-.5-.2-.5-.5v-3.1c0-.3.2-.5.5-.5h5.7c.3 0 .5.2.5.5v3.1c0 .3-.3.5-.5.5z"/><path class="st6" d="M255.1 309.7s-.1-.9-.1-2 0-2 .1-2c0 0 .1.9.1 2s0 2-.1 2zM256.1 309.7s-.1-.9-.1-2 0-2 .1-2 .1.9.1 2-.1 2-.1 2zM257 309.7s-.1-.9-.1-2 0-2 .1-2c0 0 .1.9.1 2s0 2-.1 2zM258 309.7s-.1-.9-.1-2 0-2 .1-2c0 0 .1.9.1 2s-.1 2-.1 2zM258.9 309.7s-.1-.9-.1-2 0-2 .1-2c0 0 .1.9.1 2s0 2-.1 2zM259.9 309.7s-.1-.9-.1-2 0-2 .1-2c0 0 .1.9.1 2-.1 1.1-.1 2-.1 2zM260.8 309.7s-.1-.9-.1-2 0-2 .1-2c0 0 .1.9.1 2s-.1 2-.1 2z"/><path class="st16" d="M257 312.3h2.2v9.9H257z"/><path class="st6" d="M259.3 322.2v-9.9l.1.1h-2.2l.1-.1v9.9l-.1-.1h2c0 .1.1.1.1.1h-2.4v-10l.1-.1H259.3v10.1z"/><path class="st1" d="m247.2 307 .2 19.2c0 1.1.9 1.9 2 1.9s2-.9 2-2.1v-19h-4.2z"/><path class="st6" d="M247.2 307h4.2V326.4c0 .3-.1.5-.3.8-.2.4-.6.7-1 .9-.4.2-.8.2-1.3.1-.8-.2-1.5-.9-1.6-1.7v-4.6c0-2.9 0-5.5-.1-7.8v-7l.1-.1v1.9c0 1.2 0 3 .1 5.2 0 2.2.1 4.8.1 7.7v4.6c.1.8.7 1.4 1.5 1.6.4.1.8 0 1.2-.1.4-.2.7-.4.9-.8.1-.2.2-.5.2-.7V307c-1.3 0-2.4 0-3.1-.1h-.8c.1.1 0 .1-.1.1z"/><path class="st9" d="M247.7 316.8v9.1c0 .9.8 1.6 1.7 1.6 1 0 1.7-.8 1.7-1.7l-.1-9h-3.3zM252.1 309.7h-5.7c-.3 0-.5-.2-.5-.5v-3.1c0-.3.2-.5.5-.5h5.7c.3 0 .5.2.5.5v3.1c0 .3-.2.5-.5.5z"/><path class="st6" d="M246.4 309.7s-.1-.9-.1-2 0-2 .1-2c0 0 .1.9.1 2s0 2-.1 2zM247.4 309.7s-.1-.9-.1-2 0-2 .1-2c0 0 .1.9.1 2-.1 1.1-.1 2-.1 2zM248.3 309.7s-.1-.9-.1-2 0-2 .1-2c0 0 .1.9.1 2s-.1 2-.1 2zM249.2 309.7s-.1-.9-.1-2 0-2 .1-2c0 0 .1.9.1 2s0 2-.1 2zM250.2 309.7s-.1-.9-.1-2 0-2 .1-2c0 0 .1.9.1 2s-.1 2-.1 2zM251.1 309.7s-.1-.9-.1-2 0-2 .1-2c0 0 .1.9.1 2s0 2-.1 2zM252.1 309.7s-.1-.9-.1-2 0-2 .1-2c0 0 .1.9.1 2s-.1 2-.1 2z"/><path class="st16" d="M248.3 312.3h2.2v9.9h-2.2z"/><path class="st6" d="M250.5 322.2v-9.9l.1.1h-2.2l.1-.1v9.9l-.1-.1h2l.1.1h-2.4v-10l.1-.1H250.5v10.1z"/><path class="st1" d="m238.5 307 .2 19.2c0 1.1.9 1.9 2 1.9s2-.9 2-2.1v-19h-4.2z"/><path class="st6" d="M238.5 307h4.2V326.4c0 .3-.1.5-.3.8-.2.4-.6.7-1 .9-.4.2-.8.2-1.3.1-.8-.2-1.5-.9-1.6-1.7v-4.6c0-2.9 0-5.5-.1-7.8v-7c0-.1.1-.1.1-.1v1.9c0 1.2 0 3 .1 5.2 0 2.2.1 4.8.1 7.7v4.6c.1.8.7 1.4 1.5 1.6.4.1.8 0 1.2-.1.4-.2.7-.4.9-.8.1-.2.2-.5.2-.7V307c-1.3 0-2.4 0-3.1-.1h-.8c.1.1 0 .1-.1.1z"/><path class="st9" d="M239 316.8v9.1c0 .9.8 1.6 1.7 1.6 1 0 1.7-.8 1.7-1.7l-.1-9H239zM243.2 309.7h-5.3c-.4 0-.7-.3-.7-.7v-2.7c0-.4.3-.7.7-.7h5.3c.4 0 .7.3.7.7v2.7c0 .4-.3.7-.7.7z"/><path class="st6" d="M237.7 309.7s-.1-.9-.1-2 0-2 .1-2c0 0 .1.9.1 2s-.1 2-.1 2zM238.6 309.7s-.1-.9-.1-2 0-2 .1-2c0 0 .1.9.1 2s0 2-.1 2zM239.6 309.7s-.1-.9-.1-2 0-2 .1-2c0 0 .1.9.1 2s-.1 2-.1 2zM240.5 309.7s-.1-.9-.1-2 0-2 .1-2c0 0 .1.9.1 2s0 2-.1 2zM241.5 309.7s-.1-.9-.1-2 0-2 .1-2c0 0 .1.9.1 2-.1 1.1-.1 2-.1 2zM242.4 309.7s-.1-.9-.1-2 0-2 .1-2c0 0 .1.9.1 2s-.1 2-.1 2zM243.3 309.7s-.1-.9-.1-2 0-2 .1-2c0 0 .1.9.1 2s0 2-.1 2z"/><path class="st16" d="M239.6 312.3h2.2v9.9h-2.2z"/><path class="st6" d="M241.8 322.2v-9.9l.1.1h-2.2l.1-.1v9.9l-.1-.1h2l.1.1h-2.4v-10l.1-.1H241.8v10.1z"/><path class="st1" d="m229.7 307 .2 19.2c0 1.1.9 1.9 2 1.9s2-.9 2-2.1v-19h-4.2z"/><path class="st6" d="M229.7 307h4.2V326.4c0 .3-.1.5-.3.8-.2.4-.6.7-1 .9-.4.2-.8.2-1.3.1-.8-.2-1.5-.9-1.6-1.7v-4.6c0-2.9 0-5.5-.1-7.8v-7l.1-.1v1.9c0 1.2 0 3 .1 5.2 0 2.2.1 4.8.1 7.7v4.6c.1.8.7 1.4 1.5 1.6.4.1.8 0 1.2-.1.4-.2.7-.4.9-.8.1-.2.2-.5.2-.7V307c-1.3 0-2.4 0-3.1-.1h-.8c.1.1.1.1-.1.1.1 0 0 0 0 0z"/><path class="st9" d="M230.3 316.8v9.1c0 .9.8 1.6 1.7 1.6 1 0 1.7-.8 1.7-1.7l-.1-9h-3.3zM234.7 309.7H229c-.3 0-.5-.2-.5-.5v-3.1c0-.3.2-.5.5-.5h5.7c.3 0 .5.2.5.5v3.1c0 .3-.2.5-.5.5z"/><path class="st6" d="M229 309.7s-.1-.9-.1-2 0-2 .1-2c0 0 .1.9.1 2-.1 1.1-.1 2-.1 2zM229.9 309.7s-.1-.9-.1-2 0-2 .1-2c0 0 .1.9.1 2s0 2-.1 2zM230.8 309.7s-.1-.9-.1-2 0-2 .1-2c0 0 .1.9.1 2s0 2-.1 2zM231.8 309.7s-.1-.9-.1-2 0-2 .1-2 .1.9.1 2-.1 2-.1 2zM232.7 309.7s-.1-.9-.1-2 0-2 .1-2c0 0 .1.9.1 2s0 2-.1 2zM233.7 309.7s-.1-.9-.1-2 0-2 .1-2c0 0 .1.9.1 2s-.1 2-.1 2zM234.6 309.7s-.1-.9-.1-2 0-2 .1-2c0 0 .1.9.1 2s0 2-.1 2z"/><path class="st16" d="M230.9 312.3h2.2v9.9h-2.2z"/><path class="st6" d="M233.1 322.2v-9.9l.1.1H231l.1-.1v9.9l-.1-.1h2c0 .1.1.1.1.1h-2.4v-10l.1-.1H233.1v10.1z"/><path class="st7" d="M273.6 312.3c0-.4-.3-.7-.7-.7H225c-.4 0-.7.3-.7.7 0 .4.3.7.7.7h.5c.4 0 .7.3.7.7v13.7c0 .4-.3.7-.7.7h-.5c-.4 0-.7.3-.7.7 0 .4.3.7.7.7h48c.4 0 .7-.3.7-.7 0-.4-.3-.7-.7-.7h-.2c-.4 0-.7-.3-.7-.7v-13.7c0-.4.3-.7.7-.7h.2c.3 0 .6-.3.6-.7zM270 328h-41.7c-.4 0-.7-.3-.7-.7v-13.7c0-.4.3-.7.7-.7H270c.4 0 .7.3.7.7v13.7c0 .4-.3.7-.7.7z"/><path d="M273.6 312.3c0-.4-.3-.7-.7-.7H225c-.4 0-.7.3-.7.7 0 .4.3.7.7.7h.5c.4 0 .7.3.7.7v13.7c0 .4-.3.7-.7.7h-.5c-.4 0-.7.3-.7.7 0 .4.3.7.7.7h48c.4 0 .7-.3.7-.7 0-.4-.3-.7-.7-.7h-.2c-.4 0-.7-.3-.7-.7v-13.7c0-.4.3-.7.7-.7h.2c.3 0 .6-.3.6-.7zM270 328h-41.7c-.4 0-.7-.3-.7-.7v-13.7c0-.4.3-.7.7-.7H270c.4 0 .7.3.7.7v13.7c0 .4-.3.7-.7.7z" style="fill:none"/><path class="st6" d="M270 328s.1 0 .3-.1c.2-.1.4-.3.4-.7v-13.8c-.1-.3-.4-.5-.7-.4h-41.7c-.2 0-.4.1-.5.3 0 .1-.1.2-.1.3V327.2c0 .1 0 .2.1.3.1.2.3.3.5.3H269.9c0 .2.1.2.1.2h-41.9c-.3 0-.5-.2-.6-.4-.1-.1-.1-.3-.1-.4V313.6c0-.1 0-.3.1-.4.1-.3.4-.4.7-.4h41.7c.2 0 .4 0 .5.1.1.1.3.2.3.4v13.9c0 .4-.2.7-.4.7-.2.1-.3.1-.3.1z"/><path class="st6" d="M273.6 312.3c0 .1 0 .2-.1.3l-.3.3c-.2.1-.4 0-.6.1-.2.1-.4.3-.4.5v13.9c.1.1.2.3.3.3.1.1.3 0 .5.1.2 0 .4.1.5.3.2.3.1.9-.3 1.1-.1 0-.2.1-.3.1H225c-.2 0-.3-.1-.5-.2-.3-.2-.4-.6-.2-.9.1-.2.2-.3.4-.4.2-.1.3-.1.5-.1h.4c.1 0 .2-.1.3-.2.1-.1.1-.2.1-.3v-13.6c0-.1 0-.2-.1-.3-.1-.1-.1-.2-.3-.2-.1-.1-.2-.1-.4 0h-.4c-.2 0-.3-.1-.4-.2-.2-.2-.3-.6-.2-.9.1-.3.5-.5.7-.5H272.5c.2 0 .4 0 .6.1.2.1.3.2.3.3.2.2.2.3.2.4 0 0 0-.1-.1-.3l-.3-.3c-.2-.1-.4 0-.6 0H225c-.2 0-.5.1-.6.3-.1.2 0 .5.1.6.1.1.2.1.3.1h.4c.1 0 .3 0 .4.1.1.1.3.2.3.3.1.1.1.3.1.5V327.3c0 .2-.1.3-.2.5-.1.1-.3.2-.4.3h-.5c-.2 0-.3 0-.4.1-.1.1-.2.1-.3.3-.1.2 0 .5.2.7.1.1.2.1.3.1H272.5c.2 0 .4 0 .5-.1.3-.1.4-.6.2-.8-.1-.1-.2-.2-.4-.2s-.4 0-.6-.1c-.2-.1-.3-.2-.4-.4-.1-.2 0-.4 0-.5v-13.4c0-.3.3-.5.5-.6.2-.1.4 0 .6-.1.2-.1.3-.2.3-.3.5-.4.4-.5.4-.5z"/><path class="st7" d="M112.7 332.2h9.3v142.4h-9.3zM400.2 328.7h9.3v146h-9.3z"/><path class="st2" d="M284 293.3c0 .4.3.7.7.7h1.3v13.1l-7.9 17.5c-.9 2 .6 4.2 2.7 4.2h15.7c2.2 0 3.6-2.2 2.7-4.2l-8.2-18.1v-12.4h1.2c.4 0 .8-.3.8-.8 0-.4-.3-.8-.8-.8h-7.5c-.4.1-.7.4-.7.8z"/><path class="st6" d="M284 293.3v-.2c0-.1.1-.4.4-.5.3-.1.6-.1 1-.1H292.4c.2.1.4.2.6.4.3.4 0 1.1-.5 1.2-.3.1-.5 0-.7 0h-.7l.1-.1v12.4-.1c1.7 3.8 3.6 7.9 5.6 12.3.5 1.1 1 2.2 1.5 3.4.3.6.5 1.1.8 1.7.2.6.6 1.2.6 1.9.1 1.4-.8 2.8-2.2 3.2-.3.1-.7.2-1 .2H281.3c-.4 0-.9 0-1.3-.1-.9-.2-1.7-.8-2.1-1.6-.4-.8-.5-1.8-.1-2.6.3-.8.7-1.5 1-2.2 2.6-5.8 5-11.1 7-15.5v.1c0-6.1.1-10.6.1-13.1l.1.1h-1.1c-.3 0-.6-.1-.7-.2-.3-.4-.2-.6-.2-.6s0 .2.2.5c.1.1.4.2.7.2H286.1v.1c0 2.5 0 7 .1 13.1-2 4.4-4.3 9.6-6.9 15.5-.3.7-.7 1.5-1 2.2-.3.7-.2 1.6.1 2.3.4.7 1 1.2 1.8 1.4.4.1.8.1 1.2.1H296.6c.3 0 .6 0 .9-.2 1.2-.4 2-1.6 1.9-2.8 0-.6-.3-1.1-.6-1.7-.3-.6-.5-1.1-.8-1.7-.5-1.1-1-2.3-1.5-3.4-2-4.4-3.9-8.5-5.6-12.3v-12.5h1.4c.4-.1.6-.6.4-.9-.1-.2-.2-.3-.4-.3h-7c-.4 0-.8-.1-1 0-.2.1-.3.3-.4.4.1-.1.1 0 .1 0z"/><path class="st6" d="M291.9 294c0 .1-1.5.2-3.4.2s-3.4-.1-3.4-.2 1.5-.2 3.4-.2 3.4.1 3.4.2z"/><path class="st2" d="M384.6 269.9c0 .4.3.7.7.7h1.3v13.1l-7.9 17.5c-.9 2 .6 4.2 2.7 4.2h15.7c2.2 0 3.6-2.2 2.7-4.2l-8.2-18.1v-12.4h1.2c.4 0 .8-.3.8-.8 0-.4-.3-.8-.8-.8h-7.5c-.4 0-.7.4-.7.8z"/><path class="st6" d="M384.6 269.9v-.2c0-.1.1-.4.4-.5.3-.1.6-.1 1-.1H393c.2.1.4.2.6.4.3.4 0 1.1-.5 1.2-.3.1-.5 0-.7 0h-.7l.1-.1V283v-.1c1.7 3.8 3.6 7.9 5.6 12.3.5 1.1 1 2.2 1.5 3.4.3.6.5 1.1.8 1.7.2.6.6 1.2.6 1.9.1 1.4-.8 2.8-2.2 3.2-.3.1-.7.2-1 .2H381.9c-.4 0-.9 0-1.3-.1-.9-.2-1.7-.8-2.1-1.6-.4-.8-.5-1.8-.1-2.6.3-.8.7-1.5 1-2.2 2.6-5.8 5-11.1 7-15.5v.1c0-6.1.1-10.6.1-13.1l.1.1h-1.1c-.3 0-.6-.1-.7-.2-.3-.4-.2-.7-.2-.6 0 0 0 .2.2.5.1.1.4.2.7.2H386.7v.1c0 2.5 0 7 .1 13.1-2 4.4-4.3 9.6-6.9 15.5-.3.7-.7 1.5-1 2.2-.3.7-.2 1.6.1 2.3.4.7 1 1.2 1.8 1.4.4.1.8.1 1.2.1H397.2c.3 0 .6 0 .9-.2 1.2-.4 2-1.6 1.9-2.8 0-.6-.3-1.1-.6-1.7-.3-.6-.5-1.1-.8-1.7-.5-1.1-1-2.3-1.5-3.4-2-4.4-3.9-8.5-5.6-12.3v-12.5h1.4c.4-.1.6-.6.4-.9-.1-.2-.2-.3-.4-.3h-7c-.4 0-.8-.1-1 0-.2.1-.3.3-.4.4.1-.1.1 0 .1 0z"/><path class="st6" d="M392.5 270.6c0 .1-1.5.2-3.4.2s-3.4-.1-3.4-.2 1.5-.2 3.4-.2 3.4.1 3.4.2z"/><path class="st2" d="M317.7 328.6h-12.9c-1.5 0-2.7-1.2-2.7-2.7v-22.1h20.3l-2.1 2v20.1c.1 1.5-1.1 2.7-2.6 2.7z"/><path class="st6" d="M317.7 328.6s.2 0 .4-.1c.3-.1.7-.2 1.2-.5.4-.3.9-.9 1-1.8v-2.8c0-4.3 0-10.4-.1-17.6v-.1c.6-.6 1.3-1.3 2.1-2l.1.3H302.1l.2-.2v22.1c0 1 .6 1.9 1.4 2.3.4.2.9.3 1.3.3h1.4c3.5 0 6.3 0 8.3.1H317.7h-3c-2 0-4.8 0-8.3.1H305c-.5 0-1-.1-1.4-.3-.9-.4-1.6-1.4-1.6-2.6v-22.3h20.9l-.3.3c-.7.7-1.4 1.4-2.1 2v-.1c0 7.2 0 13.3-.1 17.6v2.9c-.1.9-.6 1.5-1.1 1.8-.5.4-.9.5-1.2.5-.2.1-.4.1-.4.1z"/><path class="st9" d="M313.9 327.4h-5.3c-2.9 0-5.3-2.4-5.3-5.3v-6.7h15.9v6.7c.1 2.9-2.3 5.3-5.3 5.3z"/><path class="st6" d="M307.1 310c0 .1-1.1.1-2.4.1-1.3 0-2.4-.1-2.4-.1 0-.1 1.1-.1 2.4-.1 1.3 0 2.4 0 2.4.1zM304.4 307.4c0 .1-.5.1-1.1.1-.6 0-1.1-.1-1.1-.1 0-.1.5-.1 1.1-.1.6 0 1.1 0 1.1.1zM307.1 315.2c0 .1-1.1.1-2.4.1-1.3 0-2.4-.1-2.4-.1s1.1-.1 2.4-.1c1.3 0 2.4.1 2.4.1zM304.4 312.6c0 .1-.5.1-1.1.1-.6 0-1.1-.1-1.1-.1 0-.1.5-.1 1.1-.1.6 0 1.1 0 1.1.1zM307.1 320.5c0 .1-1.1.1-2.4.1-1.3 0-2.4-.1-2.4-.1 0-.1 1.1-.1 2.4-.1 1.3 0 2.4 0 2.4.1zM304.4 317.8c0 .1-.5.1-1.1.1-.6 0-1.1-.1-1.1-.1 0-.1.5-.1 1.1-.1.6 0 1.1.1 1.1.1zM307.1 325.7c0 .1-1.1.1-2.4.1-1.3 0-2.4-.1-2.4-.1 0-.1 1.1-.1 2.4-.1 1.3 0 2.4 0 2.4.1zM304.4 323.1c0 .1-.5.1-1.1.1-.6 0-1.1-.1-1.1-.1 0-.1.5-.1 1.1-.1.6 0 1.1 0 1.1.1zM379.4 329h29c1.3 0 2.4-1.1 2.4-2.4 0-1.3-1.1-2.4-2.4-2.4h-29c-1.3 0-2.4 1.1-2.4 2.4 0 1.3 1.1 2.4 2.4 2.4z"/><path class="st6" d="M405.1 328.9c-.5 0-.9-.4-.9-.9v-59.4c0-.5.4-.9.9-.9s.9.4.9.9V328c0 .5-.4.9-.9.9z"/><path class="st6" d="M408.7 280.3h-24c-.5 0-.9-.4-.9-.9s.4-.9.9-.9h24c.5 0 .9.4.9.9s-.4.9-.9.9z"/><path class="st7" d="M408.1 279.4c0 1.7-1.3 3-3 3s-3-1.3-3-3 1.3-3 3-3 3 1.3 3 3z"/><path class="st2" d="M341.7 268c-4.3 0-8.2 1.8-11 4.7l-6-3.5-2.7 4.8 5.7 3.3c-.8 1.8-1.2 3.8-1.2 6 0 8.4 6.8 15.2 15.2 15.2s15.2-6.8 15.2-15.2c.1-8.4-6.8-15.3-15.2-15.3z"/><path class="st6" d="M341.7 268h1.1c.4 0 .8.1 1.3.1s1.1.2 1.8.4c1.3.4 2.9 1 4.6 2.1 1.6 1.1 3.3 2.8 4.5 4.9 1.3 2.1 2.1 4.9 2.1 7.8 0 1.5-.2 3-.7 4.5-.5 1.5-1.2 3-2.1 4.3-1.9 2.7-4.9 4.9-8.3 5.9-3.5 1-7.4.8-10.9-.9-3.9-1.8-6.8-5.2-8-9-.7-1.9-.9-3.8-.8-5.7.1-1.9.5-3.7 1.2-5.4l.1.3c-2-1.2-3.9-2.3-5.7-3.3l-.2-.1.1-.2c1-1.7 1.9-3.3 2.8-4.7l.1-.2.2.1c2.2 1.3 4.2 2.4 6 3.5h-.2c2.8-2.8 5.8-3.9 7.9-4.3 2-.2 3.1-.1 3.1-.1h-.8c-.5.1-1.3.1-2.4.4-2 .5-5 1.6-7.7 4.4l-.1.1-.1-.1c-1.8-1-3.8-2.2-6-3.4l.3-.1c-.9 1.5-1.8 3.1-2.7 4.8l-.1-.3c1.8 1 3.7 2.1 5.7 3.3l.2.1-.1.2c-.7 1.6-1.1 3.4-1.2 5.2 0 1.8.2 3.7.8 5.5 1.2 3.6 4 6.9 7.8 8.7 3.3 1.6 7.2 1.9 10.5.9 3.4-1 6.2-3.1 8.1-5.7.9-1.3 1.6-2.7 2.1-4.2.4-1.5.7-2.9.7-4.4 0-2.9-.7-5.5-2-7.6-1.2-2.1-2.8-3.7-4.4-4.9-1.6-1.1-3.2-1.8-4.5-2.2-2.5-.7-4.1-.6-4.1-.7z"/><path class="st9" d="M328.7 284.4s2.5 13.6 14.2 12.1 12.3-13.2 12.3-13.2-7.7 2.7-14.4-1c-9.6-5.3-12.1 2.1-12.1 2.1zM383.9 293s-2.2 4.7-3.9 8.1c-.7 1.3-.3 3.2 1.9 3.2h14.8c1.7 0 2.7-1.9 1.8-3.6l-3.9-7.8-10.7.1z"/><path class="st7" d="m334.8 291.6-8 36.6c-.1.5-.6.8-1.1.7-.5-.1-.8-.6-.7-1.1l8-36.6c.1-.5.6-.8 1.1-.7.4.1.8.6.7 1.1zM351.3 291.1l8.7 36.4c.1.5-.2 1-.7 1.1-.5.1-1-.2-1.1-.7l-8.7-36.4c-.1-.5.2-1 .7-1.1.4-.1.9.2 1.1.7zM343.6 291.3l1.9 37.4c0 .5-.4 1-.9 1s-1-.4-1-.9l-1.9-37.4c0-.5.4-1 .9-1s1 .4 1 .9z"/><path class="st7" d="M357.6 291.2h-30.9c-.5 0-.9-.4-.9-.9s.4-.9.9-.9h30.9c.5 0 .9.4.9.9 0 .4-.4.9-.9.9z"/><path class="st6" d="M357.6 291.2s.3 0 .6-.3c.1-.1.3-.4.3-.7 0-.3-.2-.6-.6-.8h-7.2c-6.2 0-14.6 0-23.9.1-.4 0-.8.5-.7.9.1.2.2.4.4.4.2.1.5 0 .8 0h9.7c4 0 7.7 0 10.7.1 3 0 5.5.1 7.2.1h2c.5.1.7.1.7.2 0 0-.2 0-.7.1h-2c-1.8 0-4.2 0-7.2.1-3.1 0-6.7 0-10.7.1h-10.1c-.1 0-.4 0-.5-.1-.3-.1-.6-.4-.7-.8-.2-.7.4-1.6 1.2-1.5 9.3 0 17.7.1 23.9.1 3.1 0 5.5 0 7.3.1.5.2.7.6.7.9 0 .4-.2.6-.4.8-.5.3-.8.2-.8.2z"/></g></svg>