<?xml version="1.0" encoding="utf-8"?>
<!-- Generator: Adobe Illustrator 25.2.1, SVG Export Plug-In . SVG Version: 6.00 Build 0)  -->
<svg version="1.1" id="Capa_1" xmlns="http://www.w3.org/2000/svg" xmlns:xlink="http://www.w3.org/1999/xlink" x="0px" y="0px"
	 viewBox="0 0 1080 1080" style="enable-background:new 0 0 1080 1080;" xml:space="preserve">
<style type="text/css">
	.st0{fill:#FAE0B2;}
	.st1{fill:#F18B7F;}
	.st2{fill:#F4A392;}
	.st3{fill:#184655;}
	.st4{fill:#13375A;}
	.st5{fill:#3C8F7C;}
	.st6{fill:#56BAA3;}
	.st7{fill:#FFFFFF;}
	.st8{fill:#F4A492;}
	.st9{fill:#EE745A;}
	.st10{fill:#35548A;}
	.st11{fill:#476EB4;}
	.st12{fill:#56BAA4;}
	.st13{fill:#133759;}
	.st14{fill:#20110D;}
	.st15{fill:#EE744C;}
	.st16{fill:#2C2E87;}
	.st17{opacity:0.38;fill:#19233E;enable-background:new    ;}
	.st18{fill:#E0937A;}
	.st19{fill:#1F274B;}
	.st20{opacity:0.18;fill:#1F274B;enable-background:new    ;}
	.st21{fill:#DD7B64;}
	.st22{fill:#E7A18A;}
	.st23{fill:#EE6F5B;}
	.st24{opacity:0.65;fill:#EE6F5B;enable-background:new    ;}
	.st25{fill:#EF7C74;}
	.st26{fill:#422F7F;}
	.st27{fill:#9CB9BE;}
	.st28{fill:#20274C;}
	.st29{fill:#EBCE9A;}
	.st30{fill:#EBC98D;}
	.st31{fill:#F7CC7F;}
	.st32{fill:#DB9044;}
	.st33{fill:#F39665;}
	.st34{opacity:0.4;fill:#EE6F5B;enable-background:new    ;}
</style>
<g>
	<g>
		<g>
			<path class="st0" d="M416.9,370.7h75c16.5,0,29.9-13.4,29.9-29.9v-9.4c0-16.5-13.4-29.9-29.9-29.9h-75
				c-16.5,0-29.9,13.4-29.9,29.9v9.4C387.1,357.3,400.4,370.7,416.9,370.7z"/>
			<polygon class="st0" points="484,362.7 443,399 452,361.5 			"/>
		</g>
		<g>
			<path class="st1" d="M830.9,469.8l-2.2-10.1c0,0-7.3,4.6-11.5,11.2c-4.2,6.6-6.3,24.2-7.5,24.8c-1.2,0.7-14.6-20-17-23.3
				c-2.9-4-4-8.7-5.8-12.2c-1.8-3.5-8.2-4.7-10.6-4.3c-2.4,0.4,3.3,10.7,3.3,10.7s14.5,25.3,19.4,39.1c4.8,13.8,20,20.4,22.4,18.5
				C823.8,522.3,830.9,469.8,830.9,469.8z"/>
			<path class="st2" d="M786.7,462.2c0,0-0.6-2.7-2.2-3.2c-1.6-0.5-4.5-0.1-4.7,0c-0.2,0.1-3.3-1.6-3.3-1.6l2.6,4.8
				c0,0,5.1,6,6.8,3.8C787.6,463.7,786.7,462.2,786.7,462.2z"/>
			<path class="st1" d="M775.6,457.6c0,0-1.8,9.3-1.4,11.3c0.5,2,1.6,0.9,1.9,0.5c0.9-1.8,1.5-7.7,1.5-7.7L775.6,457.6z"/>
			<path class="st1" d="M779.5,465.3c0,0-0.9,5.8-1.8,6.5c-0.6,0.4-1.3,0.2-1.6-1c-0.2-1.2,1.2-8.3,1.2-8.3L779.5,465.3z"/>
			<path class="st3" d="M784.9,481.8l3-1.5L775,453.7l0,0c-1.7,0.8-2.4,2.8-1.6,4.5L784.9,481.8z"/>
			<path class="st4" d="M817.4,428.2c-1.8-8.3-3.6-16.6,1.2-25.8c3.9-7.4,10.6-11.6,18.4-12.5c22.1-2.6,17.4,18,48.2,22.4
				c9.6,1.4,18.5,2.7,26.5,7.5c14.5,8.6,19.9,22.4,10.3,44.9c-23.5,55.1-81.1,8.3-88.2-2.5C828.5,454.2,818.6,433.5,817.4,428.2z"/>
			<path class="st2" d="M905.7,776.2c0,0,1.6,16,5.6,18.9s9.4,13.8,6.7,19.6c-0.8,1.8-2.5,2.9-4.4,3.5c-5.7,1.7-11.7-1.2-14.1-6.6
				c-1.3-3-2.5-7.1-2.8-12.2c-0.6-13-4.6-19.6-4.6-19.6L905.7,776.2z"/>
			<path class="st2" d="M843.6,782.7c0,0-1.3,16.1-0.2,21.3c0.6,2.8,3.6,8.6,2.2,11.2c-1.4,2.6-3,3.3-3,3.3l-36.7,0.6
				c-2,0-0.7-1.2,0.9-2.4c2.6-1.9,4.8-3.2,13.2-7.3c0.5-0.3,2.5-1.5,3.3-2c1.8-1.1,3.7-2.9,5.2-4.6c2.6-2.9,2.9-17.1,2.9-17.1
				L843.6,782.7z"/>
			<path class="st5" d="M814.9,568.7c0,0-4.6,26.1-1.6,43.3c3,17.1,17.6,176,17.6,176l16.2,0.9c0,0,3.4-66.4,2.8-75.6
				s-5.4-24.7-5.4-24.7l1.6-53.6l-20.4-70.4L814.9,568.7z"/>
			<path class="st6" d="M862.4,563.2c0,0,12.7,19.1,15.8,34.9c3,15.8-2.2,64.4,3.6,85.2c3.2,11.2,15.1,28.6,16.9,43.1s9,52.5,9,52.5
				l-16.2,3.2L854,687.2l-29.5-85.8l-7.5-44.2L862.4,563.2z"/>
			<path class="st7" d="M852.1,454.4c0,0,11.1,1.3,17.8,8.5c6.7,7.3-10.8,65.5-12,74.8s9.9,30.8,9.9,30.8s-41.6,7.7-53,0.2
				c0,0-1.2-66.4,0-73s11.3-33.4,13.7-36C831.1,457,852.1,454.4,852.1,454.4z"/>
			<path class="st2" d="M867.9,468.4c-1.1-3.2-4.8-4.8-7.9-3.5c-4.3,1.9-10.2,5.4-13.1,11.4c-4.8,10.1-21.8,44.8-27.1,46.2
				s-26.7-36-26.7-36s0.6-6.6-1.2-10.3c-1.8-3.7-7.3-7.7-8.1-6.4s3,4.6,3,5.3s-1.6,1.1-3.8-0.2c-2.2-1.3-3.4-4-3.4-4
				s-3.6,6.6,0.2,12.6c3.8,5.9,5.5,8.4,5.5,8.4s24.8,55.2,33.9,55.8C827.6,548.2,876.4,494.1,867.9,468.4z"/>
			<path class="st8" d="M846.5,431.9c0,0,0.1,0.5,0.2,1.3c0.8,4,3.6,17.5,5.6,21.1c2.4,4.5-8.1,18.7-18.1,16.9
				c-3-0.5,2.5-13.1,2.3-14.4c-0.5-2.5-1.2-6-1.9-9.6c-0.4-2-0.8-4-1.2-6c-1.1-5.4-2-9.9-2-9.9L846.5,431.9z"/>
			<path class="st9" d="M846.8,433.3c-0.2-0.8-0.2-1.3-0.2-1.3l-15.1-0.4c0,0,0.9,4.4,2,9.9c0.4,1.9,0.8,3.9,1.2,5.9
				c2.3-0.3,4.8-1.5,7.2-3.6c2.7-2.3,4.4-5.1,5.5-8.1C847,434.7,846.9,433.9,846.8,433.3z"/>
			<path class="st8" d="M837.4,396.1c0,0,6.1,0.9,10.6,6.6s9.3,23.5-1.8,33.2c-11.1,9.7-22-1.3-23.6-12.9
				C821,411.4,821.3,395.7,837.4,396.1z"/>
			<path class="st8" d="M819.1,419.1c1.3,2.6,3.5,4,5,3.2c1.4-0.8,1.5-3.5,0.2-6.1c-1.3-2.6-3.5-4-5-3.2S817.8,416.5,819.1,419.1z"
				/>
			<path class="st4" d="M835.6,395.8c0,0,9.5,16.9,16.3,17.7s7.7,9.8,7.7,9.8s-2.4-20.7-9.1-24.7
				C843.7,394.6,835.6,395.8,835.6,395.8z"/>
			<path class="st8" d="M849.6,417.5c-0.6,3,0.6,5.8,2.5,6.1s3.9-1.7,4.5-4.7s-0.6-5.8-2.5-6.1C852.2,412.4,850.2,414.5,849.6,417.5
				z"/>
			<path class="st5" d="M898.3,808.7c8.8,1.6,14.7-3.5,17.7-7.4c2.2,4.4,3.6,9.8,2,13.4c-1.5,3.2-5.4,4-8.7,4.1
				c-3.5,0.1-6.8-1.7-8.6-4.8C899.9,812.6,899,810.9,898.3,808.7z"/>
			<path class="st5" d="M823.2,807.5c9.7,2.5,16.9,0.8,20.9-0.8c1,2.9,2.4,6.6,1.7,8.7c-0.9,2.6-2.2,3.2-3.3,3.2
				c-8.9,0.2-32.4,0.5-39.2,0.6c-0.9,0-1.5-1.1-0.9-1.8C804.1,815.4,822.5,807.9,823.2,807.5z"/>
		</g>
		<g>
			<path class="st0" d="M756.7,349.5h60.5c13.3,0,24.1-10.8,24.1-24.1v-7.6c0-13.3-10.8-24.1-24.1-24.1h-60.5
				c-13.3,0-24.1,10.8-24.1,24.1v7.6C732.6,338.7,743.4,349.5,756.7,349.5z"/>
			<polygon class="st0" points="806.6,341.8 817.2,373.5 786.4,341.8 			"/>
			<path class="st7" d="M809.4,323.7c0,2.8,2.4,5.1,5.4,5.1c3,0,5.4-2.3,5.4-5.1c0-2.8-2.4-5.1-5.4-5.1
				C811.8,318.7,809.4,320.9,809.4,323.7z"/>
			<path class="st7" d="M781.5,323.7c0,2.8,2.4,5.1,5.4,5.1s5.4-2.3,5.4-5.1c0-2.8-2.4-5.1-5.4-5.1
				C784,318.7,781.5,320.9,781.5,323.7z"/>
			<path class="st7" d="M753.7,323.7c0,2.8,2.4,5.1,5.4,5.1s5.4-2.3,5.4-5.1c0-2.8-2.4-5.1-5.4-5.1
				C756.2,318.7,753.7,320.9,753.7,323.7z"/>
		</g>
		<g>
			<path class="st2" d="M301.5,340.6h-71.6c-15.7,0-28.5-12.8-28.5-28.5v-9c0-15.7,12.8-28.5,28.5-28.5h71.6
				c15.7,0,28.5,12.8,28.5,28.5v9C330,327.8,317.2,340.6,301.5,340.6z"/>
			<polygon class="st2" points="242.4,331.5 229.8,369 266.3,331.5 			"/>
			<path class="st7" d="M239.1,310.1c0,3.3-2.9,6-6.4,6c-3.6,0-6.4-2.7-6.4-6s2.9-6,6.4-6C236.3,304.1,239.1,306.8,239.1,310.1z"/>
			<path class="st7" d="M272.1,310.1c0,3.3-2.9,6-6.4,6s-6.4-2.7-6.4-6s2.9-6,6.4-6C269.2,304.1,272.1,306.8,272.1,310.1z"/>
			<path class="st7" d="M305,310.1c0,3.3-2.9,6-6.4,6s-6.4-2.7-6.4-6s2.9-6,6.4-6S305,306.8,305,310.1z"/>
		</g>
		<g>
			<path class="st1" d="M590.9,580.1c6.8-2,7-0.7,7.9-1c1-0.3,9.3-11.5,9.3-11.5s24.5-32.7,25.8-34.6l7.7-42.4l23.3-0.2
				c0,0-9.7,45.8-10.7,48s-39.8,42.3-43.1,45.9c0,0-2.1,5.9-3.6,9.6c-1.5,3.7-4.6,6.3-5.2,7.3c-0.1,0.1-2.2,3.2-6,6.1
				c-3.2,2.6-1.5-1.4-1.5-1.4s5-5.9,4.4-6.2c-0.5-0.3-3,3.1-6.5,6c-0.9,0.7-1.8,1.5-2.6,2.1c-2.2,1.7-4,0.8-2.1-1.4
				c0.7-0.8,1.9-2,2.9-2.8c1.1-0.8,1.7-1.9,2.5-2.8c1.5-1.7,2.7-2.9,2.6-2.9c-0.1,0-0.1-0.6-1.1,0.1c-1.2,0.9-3.2,3.4-5.1,4.6
				c-1.1,0.7-3.2,2.2-3.2,2.2s-3.7,1.7-3.9,1.5c-1.1-1,1.1-2.9,2.6-3.6c0.7-1,3-2.5,3-2.5s3.8-4.2,3.1-4.8c-0.3-0.3-3,2-6,3.9
				c-2.8,1.7-6,2.9-6.5,2.4c-0.8-0.9,2.1-3.1,2.1-3.1s2.1-1.4,2.8-2c0.8-0.6,2.9-2.7,2.9-2.7s7.1-7.5,6.4-8
				c-0.7-0.5-2.9-1.2-3.5-0.9s-1.4,1.5-2,1.8c-0.6,0.3-1.8,0.2-2.3-0.6s1.8-3.4,1.8-3.4S588.9,580.7,590.9,580.1z"/>
			<path class="st2" d="M629.5,792.6c0,0,0.8,14.6,0.8,14.6c0.3,1.9,1.5,6.4,1.5,8.1c0,6.3-28.2-5.4-21.9-8.2
				c0.6-0.3,3.6-2.2,3.8-4.3c0.3-3.3,1-10,1-10L629.5,792.6z"/>
			<path class="st3" d="M610.1,807.2c0,0,6.6,1.9,10,2.4c3.4,0.5,7.9-3.6,10.3-2.5c2.6,1.2,2.4,13.2,2.4,13.2s-35.3,2.1-45.3-1.1
				C583.4,817.9,596.5,811.7,610.1,807.2z"/>
			<path class="st2" d="M691.7,794c0,0,0.8,14.6,0.8,14.6c0.3,1.9,1.5,6.4,1.5,8.1c0,6.3-28.2-5.4-21.9-8.2c0.6-0.3,4.5-3.6,4.6-5.8
				c0.3-3.3,0.1-8.6,0.1-8.6L691.7,794z"/>
			<path class="st3" d="M672.2,808.6c0,0,6.6,1.9,10,2.4s7.9-3.6,10.3-2.5c2.6,1.2,2.7,12.1,2.7,12.1s-37.8,2.7-46.7,0.2
				C644.5,819.6,658.6,813.1,672.2,808.6z"/>
			<path class="st10" d="M647,583l-11.9,5.1L610,707.9l1,89.8l20.1,0.5c0,0,9.4-78.5,9.4-84.6c0-6.1,43.3-106.5,43.3-106.5L647,583z
				"/>
			<path class="st11" d="M656.2,589.6c0,0,8.8,92.3,8.8,107.8c0,15.6,7.1,102.6,7.1,102.6l20.2-0.1c0,0,1.5-26.5,3.6-65.6
				c0.3-6.1-0.4-18.5,0-24.8c3.1-45.5,9.3-88.4,6.4-105.4c-0.5-2.7-1.4-9.9-3.1-11.7C685.9,578.9,656.2,589.6,656.2,589.6z"/>
			<path class="st5" d="M631.6,516.8l24.4-1.6c0,0,1.2-21.8,1.2-32.2c0-12.6,3.8-31.2,2.3-30.9c-4.2,1-11.5,4.9-14.9,9.6
				C632.9,478,631.6,516.8,631.6,516.8z"/>
			<path class="st12" d="M689.4,451.6c0,0,13.9,1.9,17.6,4.6c4.1,3,8.7,9.8,8.7,9.8s-17.1,80.7-17.1,94.3c0,10.5,3.7,36.3,3.7,36.3
				s-51.6,3.3-71.1-4.5c0,0,6.2-30.7,6.2-38.7s7.4-81.3,9.1-86.4c1.5-4.6,4.3-13,13.7-15C669.5,449.9,689.4,451.6,689.4,451.6z"/>
			<path class="st8" d="M685.6,429.9l3.4,22.5c0,0-12.6,26.8-20.1,24.5c-6.3-2-2.4-25.7-2.4-25.7s3.4-12.8,2.4-19.1
				C667.9,425.7,685.6,429.9,685.6,429.9z"/>
			<path class="st9" d="M668.9,432.1c-1-6.4,16.7-2.2,16.7-2.2l0.3,1.9c-0.5,1.2-1.2,2.3-1.9,3.1c-3.9,4.2-10.1,6.8-15.5,7
				C669,438.4,669.3,434.7,668.9,432.1z"/>
			<g>
				<path class="st8" d="M688.5,398c0.5-0.2,4,25.7-2.6,32.8c-6.7,7.1-19.6,9.4-24.3,3.8c-5.1-6.2-4.9-34,5.5-41.3
					C677.4,386,688.5,398,688.5,398z"/>
				<path class="st4" d="M670.9,379.5c8,1.6,13.2,6.5,15.1,8.5c3.6,0.4,8.6,2.4,13.7,10.8c6.3,10.3,1.6,21.7-5.7,27.3
					c-7.3,5.6-7.2,12.1-7.2,12.1l-1.1-3.4c-0.9-2.5-1.2-5.2-0.9-7.9c0.2-1.6,0.5-3.3,1.2-4.7c1.8-3.7-3.8-6.2-5.3-9.3
					c-1.2-2.4-1.2-7.9-3.1-11.8l-2.2-3c0,0-5.2-4-10.2-2.9C660,396.3,660.7,377.4,670.9,379.5z"/>
				<path class="st8" d="M681,417.5c-0.1,3.2,1.4,5.7,3.2,5.8s3.4-2.5,3.4-5.7c0.1-3.2-1.4-5.7-3.2-5.8
					C682.6,411.9,681,414.4,681,417.5z"/>
			</g>
			<path class="st13" d="M653.9,533.7l-0.3,1.9c-0.2,1-1.1,1.7-2.1,1.5l-39.9-6.9c-1-0.2-1.7-1.1-1.5-2.1l0.3-1.9
				c0.2-1,1.1-1.7,2.1-1.5l39.9,6.9C653.4,531.8,654.1,532.7,653.9,533.7z"/>
			<path class="st2" d="M710.4,462c-4.7-0.1-8.8,30.7-5.9,33.8c3,3,3.5,41.1,3.5,41.1l-44.1-1.1l0,0c-0.9-0.6-10.1-6.8-11.4-8.1
				c-1.4-1.4-8.1-0.7-9.9,1.2c-1.8,2,4,0.4,5.5,1.4S647,534,647,534s-11.2,1.6-13.4-0.7c-2.2-2.3-8-6.2-8.8-3.9
				c-0.4,1.2,2.6,4.8,4.3,6.3c-2.1-1.6-4.6-3.3-5.5-3c-1.6,0.5-0.9,2.6-0.1,3.1c0.9,0.6,9.7,7.4,11.1,7.8c1.4,0.5,22,1,25.6,1.8
				c0,0,58.2,13.3,61.5,12.4c2.9-0.7,5.8-19.4,5.8-33.6C727.6,510.1,725.1,462.4,710.4,462z"/>
			<path class="st12" d="M704.4,455c0,0,8.1,1.9,16.6,11.3c7.6,8.6,12.5,56.7,12.5,56.7l-26.4,4.3l-2.1-23.3l-7.1-10.6L704.4,455z"
				/>
		</g>
		<g>
			<g>
				<path class="st14" d="M365.2,408.7c0,0-21.6-5.5-24.2,17.4c-2.6,23,9.1,26.6,2.8,37.7c-6.3,11.1-13.5,2.8-14.9,34.3
					c-1.4,31.5,70.9,69.8,89.9,51.1c61.9-60.8-11.6-85.6-8.6-104.2s-5.5-34.4-16.8-41.2C382.1,397,367.7,397,365.2,408.7z"/>
				<path class="st15" d="M438.6,799.6c0,0-0.4,6,2.7,9.4c3.1,3.4,14.4,5.2,15.9,9.1c1.5,3.9-11.5,4.1-15.8,2.9
					c-4.4-1.2-15.7-2.1-18.5-2.3s3.6-19,4.2-19.5C427.6,798.7,438.6,799.6,438.6,799.6z"/>
				<path class="st15" d="M372.2,795.9c0,0,2.8,12.7,2.5,17.5s-6.2,12.5-10.8,12.2s-8.4-3.3-7.2-9.2c1.1-5.9,4.6-20.1,4.6-20.1
					L372.2,795.9z"/>
				<path class="st11" d="M338.3,582.1c0,0-2.9-96.4,1.7-101c1.8-1.8,16.8-6.8,27.1-8.5c15.3-2.5,27.3-1.4,27.3-1.4
					S410,490,410,496.9s1,86,1,86c12.1,4.5,30.8,84.5,32.2,105.2c1.4,20.6-1.6,116.6-1.6,116.6l-17.6-1.9
					c-9.6-15.1-13.9-94.4-16.7-104.3c-3.9-13.6-22.1-55.4-22.1-55.4l-9.4-4.1c0,0,2.2,62.9,1.4,77.4c-0.8,14.5,0.1,84.7,0.1,84.7
					l-17.7-1C345.7,775.4,335.9,661,336.2,655c0.3-6-5.8-15.8-7.1-33C328.1,608.5,338.3,582.1,338.3,582.1z"/>
				<rect x="369.2" y="579.7" class="st7" width="31.3" height="3.3"/>
				<path class="st16" d="M382.4,584.3h5.3c1.3,0,2.4-1.1,2.4-2.4v-0.7c0-1.3-1.1-2.4-2.4-2.4h-5.3c-1.3,0-2.4,1.1-2.4,2.4v0.7
					C380,583.3,381.1,584.3,382.4,584.3z"/>
				<path class="st17" d="M338.3,582.1c0,0-2.6-85.6,0.9-99.3c4.6-3.1,19.2-8.5,22.7-8.8c-0.7,7,5.7,46.6,12.3,67
					c4.1,12.8,3.5,28.6,2,40.8h0c-1,7.6-2.5,15-4.2,21.4c-0.4,0.1-10.1,5.3-27,5.3c-0.7,0-7-0.5-14.3-1.6
					C333.5,594.7,338.3,582.1,338.3,582.1z"/>
				<path class="st17" d="M390.2,604.1c-0.4-1.2,2.5-15.1,3.4-22.3h0c5.9-48.2,0.6-109.6,0.5-110.6c0,0,0,0,0,0
					c0.4,0.4,1.4,1.5,2.7,3.1c4.2,5.3,12.2,16.2,13,21.7c0,0.2,0,0.3,0,0.5c0,0,0,0.1,0,0.1c0,0.9,0,2.6,0,5c0,0.5,0,1,0.1,1.5
					c0.2,20.3,0.9,79.7,0.9,79.7c3.9,1.4,8.5,10.8,13,23.4C409.4,607.2,391.2,607.5,390.2,604.1z"/>
				<path class="st18" d="M321.2,594.7c0,12.1,32.5,12.9,48,6l-1.7-52.4l-5.3-74.6c0,0-19.6,3.9-26.2,8.4c0,0-2.2,77.6-4.1,93.4
					C330,591.3,321.2,589.2,321.2,594.7z"/>
				<path class="st18" d="M411.5,475.5c0,0,7.6,61.8,7.6,77.9c0,16.1,3,43.9,3,43.9s-16.5,6.3-28,3.5c0,0,10.9-62,10.9-66
					c0-4-11.1-63.5-11.1-63.5S404.6,471.8,411.5,475.5z"/>
				<polygon class="st16" points="421.8,803.9 443.1,805.3 443.1,799.8 420.9,798.5 				"/>
				<polygon class="st16" points="357.2,800.3 378.3,801.7 378.5,796.2 356.2,795 				"/>
				<path class="st19" d="M424,807.8c1.7,2.1,7.2,6.5,23.3,4.6c4.2,1.7,8.9,3.3,9.9,5.7c1.5,3.9-11.5,4.1-15.8,2.9
					c-4.4-1.2-15.7-2.1-18.5-2.3C421.3,818.7,422.5,813,424,807.8z"/>
				<path class="st19" d="M374.7,813.4c-0.3,4.9-6.2,12.5-10.8,12.2s-8.4-3.3-7.2-9.2c0.4-2,1-4.9,1.7-7.9c0.6,3.7,2.3,10,7.2,7.8
					c5.3-2.4,7.6-7.9,8.5-10C374.5,809,374.8,811.7,374.7,813.4z"/>
				<path class="st20" d="M420.3,577c-6.2-0.3-14-0.7-21.8-1.1c0.5-2.7,0.9-5.4,1.4-8.2l19.8,1C419.9,571.5,420.1,574.3,420.3,577z"
					/>
				<path class="st20" d="M368.3,574.6c0,0-0.1,0-0.1,0c-4.8,0-23.5,5.1-30.3,5.1c-2.6,0-4.8-0.7-6.4-1.7c0-0.1,0-0.1,0-0.2
					c0.1-0.7,0.3-1.5,0.4-2.4c0-0.4,0.1-0.9,0.1-1.3c0.2-2.3,0.4-5,0.6-7.5h35.4L368.3,574.6z"/>
				<path class="st18" d="M411.4,475.6c0,0,5.8,1.2,13.9,28.5s2.7,62.4-2.9,66.1c-5.6,3.6-60.3,2.3-60.3,2.3l-0.2-19.7
					c0,0,41.4-6.5,45.5-11.5c1-1.2-0.7-6.5-0.4-12.5C408.2,510.3,411.4,475.6,411.4,475.6z"/>
				<path class="st21" d="M409.4,538.4c0,0,5.7-3.9,7.8-6.5c2.1-2.6,6.4-6.1,6.6-4.3c0.2,1.9-1.8,4.5-1.8,4.5s7.7-5.4,8.8-4.6
					s2,6.6,1.3,13c-0.7,6.4-18.8,11-18.8,11L409.4,538.4z"/>
				<path class="st22" d="M337.1,575.6c19.7,3.3,61.3-11.4,78.2-16.7L409,537c0,0-49.7,13.7-56.2,10.8c-3.2-1.4-11.5-16.7-14.5-32.3
					c-3.1-15.9-2.3-33.5-2.3-33.5s-14.3,18.7-10.2,58.2C328.8,570.4,328.5,574.1,337.1,575.6z"/>
				<path class="st21" d="M342.1,530.7c0,0,4.7,3.9,8.3,6.9c3.6,3,9.3,10.9,9.3,10.9s-6.7,1.6-9.1,1.8c-2.4,0.2-10.1-4.1-12.8-3.8
					c-2.7,0.3-1.9-3.7,1.4-3c3.3,0.7,6.6,1,6.6,1s-7.8-5.1-11.4-8.1s-0.7-5.2,2.3-2.8c3,2.4,6.2,3.8,6.2,3.8s-10.5-8.8-8.9-10.7
					C335.4,524.9,342.1,530.7,342.1,530.7z"/>
				<path class="st23" d="M384.9,449.6c0,0,1.1,15.6,2.6,19c0.4,1,1.1,1.7,1.9,2.2c4.1,2.8-3.2,37.5-7,36.8
					c-4-0.8-14-22.4-17.2-29.4c-1-2.1-0.1-4.6,2-5.5c0,0,0,0,0,0c3.5-1.5,0.9-30.2,0.9-30.2L384.9,449.6z"/>
				<path class="st24" d="M370.4,441.4c0,0-0.8,0.5-0.7,1.7c0.2,2.4,1.4,5.4,2.5,7.6c5,10,12.2,14.8,17.1,15.5
					c-1.2-5-2.1-17.6-2.1-17.6L370.4,441.4z"/>
				<path class="st25" d="M367.6,430.3c0,0,2.6-11.3,11-14.6c8.5-3.3,16.2-0.8,19.1,10.2c2.9,11-1.3,28.5-6.5,33.9
					C386.1,465.2,368.2,456.2,367.6,430.3z"/>
				<path class="st25" d="M370.1,433.9c0,0-4.2-6.6-6.8-2.8c-2.6,3.8-0.3,12.9,4.6,13.3C372.8,444.9,370.1,433.9,370.1,433.9z"/>
			</g>
			<g>
				<path class="st15" d="M155.3,794.4c0,0,0,0.5,0,1.3c0,2.5,0.4,7.9,3.8,11.9c4.5,5.4,4.6,12-0.2,13.2c-4.8,1.1-16.2-0.4-16.2-0.4
					s-2.6-5.1-0.8-18.7c1.8-13.6,2.8-28.5,2.8-28.5l13-2.3L155.3,794.4z"/>
				<path class="st26" d="M157.9,800.2c0,0,4.8,7.4,6,10.5c1.1,3.1,0.9,10.8,0,11.6c-7.8,7-22.6,0.7-22.6,0.7s-1-5.1-1.5-11.4
					c-0.5-6.3-0.2-12.2,1.5-12.2c1.8,0,2.1,3.3,6.1,2.4S153.8,799.3,157.9,800.2z"/>
				<path class="st7" d="M140,814.7c3,1.3,7.1,2.9,10.9,3.5c4.1,0.7,9.5-1.4,13.6-3.5c0.2,3.3-0.1,7-0.7,7.5
					c-7.8,7-22.6,0.7-22.6,0.7S140.5,819.5,140,814.7z"/>
				<path class="st15" d="M192.9,785.4c-1.7,6,0,12.7,4.3,16.6c1.5,1.4,3.2,2.7,5.2,3.6c7.6,3.8,17.4,2.9,18.8,10.6
					c1.4,7.7-48.1-2.2-48.1-2.2s3.4-18.8,3.7-21.9c0.2-3.1-0.3-14.7-0.3-14.7l19.1-1.6L192.9,785.4z"/>
				<path class="st26" d="M175.1,800.9c0,0-0.6,3-2,8c-1.4,5.1-0.5,9.8-0.5,9.8s46.3,2.5,48.2,0.8c1.9-1.7,0.9-7.7,0.4-8.3
					c-0.5-0.5-6.4-2.3-9.4-4.4c-3-2.1-13.3-10.1-16.8-9.8c-3.5,0.3-5.1,3.2-11.7,3.6C176.8,801,176.8,799.4,175.1,800.9z"/>
				<path class="st7" d="M220.8,819.6c-1.9,1.7-48.2-0.8-48.2-0.8s-0.6-3.1,0-7c24.2,5.1,48.7-0.4,48.7-0.4
					C221.7,811.9,222.7,817.9,220.8,819.6z"/>
				<path class="st27" d="M172.6,811.8c16.5,3.7,34.8,3,48.7-0.4c-25.2,4.3-45.6,1-44.1,1.1C177,812.5,172.3,811.7,172.6,811.8z"/>
				<path class="st26" d="M136.2,600.7l4.4,190.3l20.8-3c0,0,6.6-152.7,10.5-157.2c3.9-4.5,5.4,0.3,5.4,0.3s16.6,63.5,13.5,76.2
					c-3.1,12.7-16.9,80.6-16.9,80.6l20,0.9c0,0,22.8-52,22.8-88.3s-14.1-96.4-14.1-96.4L136.2,600.7z"/>
				<rect x="173.1" y="783" class="st28" width="24" height="5.6"/>
				<rect x="138.7" y="783.9" class="st28" width="24.3" height="7.1"/>
				<g>
					<path class="st28" d="M145,786.7c0,0,0.1,0,0.1,0c0.3-0.1,0.5-0.5,0.5-0.9c-3.8-20.2-4.1-151.1-4.1-152.4
						c0-0.4-0.3-0.7-0.6-0.7h0c-0.3,0-0.6,0.3-0.6,0.7c0,5.4,0.3,132.4,4.1,152.7C144.5,786.5,144.8,786.7,145,786.7z"/>
				</g>
				<g>
					<path class="st28" d="M177.3,786.7c0.3,0,0.5-0.2,0.6-0.5c0.9-3,22.9-73.3,21.6-83c-1.2-9.6-15.2-69.8-15.8-72.4
						c-0.1-0.4-0.4-0.6-0.8-0.5c-0.3,0.1-0.5,0.5-0.4,0.9c0.1,0.6,14.6,62.7,15.8,72.2c1.2,9.3-21.4,81.5-21.6,82.3
						c-0.1,0.4,0,0.8,0.4,0.9C177.1,786.7,177.2,786.7,177.3,786.7z"/>
				</g>
				<polygon class="st29" points="198.9,467.4 227.9,505.8 193.7,518.3 				"/>
				<path class="st0" d="M123.2,455c4.4-4.4,14.7-7.7,21.4-9.4c3.9-1,7.9-1.2,11.8-0.7l15.1,2c0,0,19.6,12.6,26.9,19.9
					c7.3,7.3,14,53.4,14,53.4l-3.3,17.5l3.8,77.2c-1.7,0-52.3,6.2-80.4-2.2c0,0,0-41.2-0.8-66.2C128.5,527.6,117.4,460.9,123.2,455z
					"/>
				<path class="st30" d="M123.5,454.7c2.3-2.2,5.9-3.9,8.8-5.1c0,0,0,0,0,0s5.6-3.1,10.6,17.8c5.1,20.8-1.4,46.2,0.9,48.4
					c2.2,2.2,51.5-0.3,51.5-0.3s-28.8,16.5-42.8,28.6c-5.6,4.8-20.6,7.4-20.6,7.2c0-1.6-0.1-3.2-0.1-4.8
					C130.2,537.4,116.7,461.1,123.5,454.7z"/>
				<path class="st31" d="M247.7,498.7L223,545.3c-0.6,1.1-1.7,1.8-3,1.7l-29.4-1.7c-2.1-0.1-3.5-2.3-2.8-4.3l15.1-42.6
					c0.4-1.2,1.5-2,2.8-2.1l38.9-2.3C247.2,493.8,248.9,496.4,247.7,498.7z"/>
				<path class="st32" d="M185.5,540.8l15.3-42.2c0.4-1.2,1.5-2,2.8-2.1l1.5-0.1c-0.9,0.3-1.6,1-1.9,1.9l-15.3,42.6
					c-0.7,1.8,0.5,3.8,2.3,4.2l-1.9-0.1C186.2,544.9,184.8,542.8,185.5,540.8z"/>
				<path class="st33" d="M130.2,511.8l2.3,8.4c0,0,49.7-12.8,55.5-15.6c4.7-2.3,23.5-7.3,30.5-6.8c1.1,0.1,1.3,1.7,0.2,2
					c-4.4,1.1-13.1,3.3-13.1,4.1c0,1.2,8.8,2.9,8.2,4.3c-1.3,2.9-5.6,4.5-6.4,7.2s-9.7,0.6-12.8,0.6c-3.1,0-59.7,34.4-76.9,26.2
					s-6.8-44.4-6.8-44.4L130.2,511.8z"/>
				<path class="st33" d="M223.4,529.8c1.1-1.1,1.1-3.9,2.4-5.2c1.3-1.3,2.7,1.3,3.1-1.6s-1.7-7.6,0.3-7.3c2,0.2,4.8,8.6,4.8,8.6
					c1.5,3.4-5.1,16.2-8.6,15.3s-4.8-5-4.8-6.9C220.5,530.7,222.2,530.9,223.4,529.8z"/>
				<path class="st7" d="M171.5,447C171.5,447,171.5,447,171.5,447C171.5,447,171.6,447,171.5,447c0.1,0.1,0.1,0.1,0.1,0.1
					c0,0,0,0,0.1,0c0,0,0,0,0,0c0,0,0.1,0,0.1,0.1c0,0,0,0,0,0c0,0,0.1,0.1,0.1,0.1c0,0,0,0,0,0c0,0,0,0,0,0c0,0,0,0,0,0
					c0,0,0.1,0,0.1,0c0,0,0,0,0,0c0.1,0.1,0.2,0.1,0.3,0.2c0,0,0,0,0.1,0c1.9,1.2,5.8,3.9,10.3,7l0,0c0,0,1.8,7.4,1,12.1
					c-0.9,4.7-2.7,6.2-5.3,5.2s-7.6-8-8.7-7.7c-1.1,0.4-8.7,9.9-12.4,8.4c-2.5-1-9.9-17.2-13.6-26.9c0.3-0.1,0.5-0.1,0.8-0.2
					c3.9-1,7.9-1.2,11.8-0.7L171.5,447L171.5,447L171.5,447z"/>
				<path class="st33" d="M179.4,435.1c-1.2,6.2-1.7,12.9-0.7,16.8c0,0-2.4,10.6-8.5,11.1s-17.7-18.2-17.7-18.2l12.7-20L179.4,435.1
					z"/>
				<path class="st34" d="M178.2,444.8c-7.3-1.3-14.2-6.9-16.1-15.2l3.1-4.9l14.2,10.3C178.8,438.3,178.3,441.7,178.2,444.8z"/>
				<path class="st33" d="M192.4,397.6c0,0,6,37.5-4.7,41.8c-10.7,4.3-25.2-2.6-26.2-15.3C160.4,411.3,163.1,385.4,192.4,397.6z"/>
				<path class="st16" d="M181.6,389.9c0,0,20.4-6,21.6-0.1s-5.5,10.4-10.2,10.8c-4.7,0.4-16.6-0.2-20.3,4.1
					c-3.6,4.3-10.1,24.2-10.1,24.2l-3.7,5.8c0,0-1.5-10.5-6.8-16.9c-5.3-6.4-2.3-17.4,2.8-25C160,385.2,177,390.3,181.6,389.9z"/>
				<path class="st33" d="M168.6,415.1c0,0-1.9-5.3-4.8-4.5c-6.5,1.7-1.7,13.3,0.4,13.6C168.5,424.8,170.3,421.4,168.6,415.1z"/>
				<path class="st0" d="M141.6,471.1c0.2,12.4-6.5,49.2-6.5,49.2s-26.1-0.5-28.2-2.6s4.6-57.5,16.2-65.3
					C136.8,443.1,141.4,459.1,141.6,471.1z"/>
			</g>
		</g>
		<g>
			<path class="st2" d="M588.1,337.2h75c16.5,0,29.9-13.4,29.9-29.9v-9.4c0-16.5-13.4-29.9-29.9-29.9h-75
				c-16.5,0-29.9,13.4-29.9,29.9v9.4C558.3,323.8,571.6,337.2,588.1,337.2z"/>
			<polygon class="st2" points="650.5,315.2 653.1,364.2 618.5,314 			"/>
		</g>
	</g>
</g>
</svg>
