<svg xmlns="http://www.w3.org/2000/svg" viewBox="0 0 750 500" style="enable-background:new 0 0 750 500" xml:space="preserve"><style>.st0{fill:#e0e0e0}.st1{fill:#fff}.st2{fill:#f5f5f5}.st3{fill:#ebebeb}.st4{fill:#fafafa}.st6{display:inline;fill:#f5f5f5}.st7{fill:#263238}.st8{fill:#455a64}.st9{opacity:.3}.st10{fill:#ff725e}.st11{fill:#ffbf9d}.st12{fill:#ff9a6c}.st13{opacity:.6}.st14{fill:#c17560}.st15{fill:#6f4439}.st16{fill:#7c4236}</style><g id="Background_Complete"><path transform="rotate(-90 371.819 144.343)" class="st0" d="M262.8 16.5h218.1v255.7H262.8z"/><path transform="rotate(-90 371.819 144.343)" class="st1" d="M266.9 20.5h209.9v247.7H266.9z"/><path transform="rotate(-90 372.233 143.99)" class="st2" d="M275.3 29.5h194v228.9h-194z"/><path class="st1" d="M300.9 107.4c-6.5.5-13 .9-19.5 1.4-1.1.1-2.3.2-3.2 1-1.2 1.1-1 2.9-.7 4.5 3.1 19.8 6.3 39.6 9.4 59.4l28.1 4.6c-2.3-22-4.9-42.6-8.5-66.7-.2-1.1-.4-2.3-1.2-3.2-1.1-1.1-2.9-1.1-4.4-1z"/><path class="st0" d="M260 204.4c.9 11.5 8.6 21.9 18.7 27.5 10.1 5.6 22.3 6.7 33.6 4.7 7.9-1.4 15.9-4.5 20.9-10.7 4.7-5.8 6.2-13.8 5.8-21.3-.7-13.4-7.8-27.2-20.2-32.2-6.9-2.8-14.6-2.7-22-2.1-7.8.6-15.8 1.8-22.5 5.9-9.1 5.6-15.1 17.5-14.3 28.2"/><path class="st2" d="M486.8 63.3c-13 4.2-21.8 24.9-23.3 38.5-1.5 13.5 1.5 27.2 2.2 40.8.8 13.6-1.1 28.4-10.4 38.4-11.2 12-30.2 13.9-41.8 25.5-8.8 8.9-12 23-7.6 34.7h81.3l-.4-177.9z"/><path class="st3" d="M264.1 223.5s47.8-19.6 53.2-23.5 15.6-11.9 32.2-41.6l130.7 9.1-10.9 52.5-203.2 13.8-2-10.3z"/><path class="st1" d="M351 62.6c-5.1 1.2-10.3 2.7-15 4.9-3.3 1.5-6.3 3.6-8.9 6-6 5.5-10.1 12.7-11.5 20.7-.2 1.1-.3 2.1-.4 3.2-.5 6.2 1.2 12.9 5.8 17 3.6 3.2 8.5 4.5 13.2 5.7 20.7 5 41.7 8.8 63 9.5 9.4.3 18.9 0 28-2.7 9-2.6 17.6-7.7 23-15.4 5.4-7.7 7.3-18.2 3.4-26.8-3.7-8.4-12-13.8-20.4-17.5-25-10.9-53.7-10.8-80.2-4.6z"/><path class="st3" d="M257.8 47v57l104.8-57H257.8z"/><path class="st0" d="M422.4 134.6c-4 2.2-8.3 4.5-12.9 4.6-6.1.2-11.7-3.5-16.7-7.1-6.9-4.9-13.9-9.7-20.8-14.6-2.9-2-6-4.2-9.5-4.6-5.5-.6-10.1 2.7-14 7-2.6 2.8-2.8 7-.7 10.1 14.3 20.6 29.9 41.6 44 62.1 2 2.9 4.1 5.9 7.3 7.4 3.5 1.6 7.6 1.1 11.5.5 26.2-4.2 76.1-17.2 76.1-17.2V94s-47.7 31.5-64.3 40.6z"/><path class="st3" d="M244 35.3c.1-.1 1.1.8 2.2 1.9 1.1 1.1 1.9 2.1 1.8 2.2-.1.1-1.1-.8-2.2-1.9-1.1-1.1-1.9-2.1-1.8-2.2zM495.6 39.2c-.1-.1.7-1 1.8-2.1 1.1-1 2.1-1.8 2.2-1.7.1.1-.7 1-1.8 2.1-1.1 1-2.1 1.8-2.2 1.7zM495.6 249.4c.1-.1 1.1.7 2.2 1.9 1.1 1.1 1.9 2.1 1.9 2.2-.1.1-1.1-.7-2.2-1.9-1.2-1.1-2-2.1-1.9-2.2zM244 253.4c-.1-.1.9-1 2-2.1s2-2.1 2.1-2c.1.1-.6 1.2-1.7 2.3-1.2 1.2-2.3 1.9-2.4 1.8z"/><path class="st0" d="M159.1 72.6v85.2h-110l-3.9-84.6z"/><path transform="rotate(-90 100.18 115.433)" class="st2" d="M57.8 60.4h84.7v110H57.8z"/><path class="st0" d="M155.6 158.2H44.8V72.7h110.8v85.5zm-110-.9h109.2V73.5H45.6v83.8z"/><path class="st1" d="M57.1 81.8h86.2v64.8H57.1z"/><path class="st0" d="M143.3 81.8H137c-4.1 0-10.1 0-17.7.1-15.2 0-36.7.1-62.2.1l.2-.2v64.8l-.2-.2h86.2l-.2.2c0-19.6.1-35.8.1-47.1V82.9c0-.7.1-1.1.1-1.1v17.7c0 11.3.1 27.5.1 47.2v.2H56.8V81.7h.2c25.6 0 47.1.1 62.3.1 7.6 0 13.5 0 17.6.1h5.9c.3-.1.5-.1.5-.1zM45.2 72.9s.7.4 1.9 1.1c1.1.8 2.6 1.8 4.3 3 1.7 1.2 3.1 2.4 4.1 3.2 1 .9 1.6 1.4 1.6 1.5 0 0-.7-.4-1.8-1.2-1.2-.9-2.6-2-4.2-3.1-1.6-1.2-3-2.2-4.2-3.1-1.1-.8-1.8-1.3-1.7-1.4z"/><path class="st0" d="M155.2 73.1c.1.1-2.5 2.1-5.8 4.5s-6 4.3-6.1 4.2c-.1-.1 2.5-2.1 5.8-4.5s6-4.3 6.1-4.2z"/><path class="st1" d="m155.2 157.8-12.4-11.2"/><path class="st0" d="M142.8 146.6c.1-.1 2.9 2.3 6.3 5.4 3.4 3.1 6.1 5.6 6 5.7-.1.1-2.9-2.3-6.3-5.4-3.4-3-6.1-5.6-6-5.7zM45.2 157.8c-.1-.1 2.5-2.5 5.7-5.5 3.3-2.9 6-5.2 6-5.2.1.1-2.5 2.5-5.7 5.5-3.2 2.9-5.9 5.3-6 5.2zM120.1 93.8c0 .1-8.5.2-19 .2s-19-.1-19-.2 8.5-.2 19-.2c10.5-.1 19 0 19 .2zM128.7 115.2c0 .1-12.8.2-28.5.2-15.8 0-28.5-.1-28.5-.2s12.8-.2 28.5-.2 28.5.1 28.5.2zM128.7 120.5c0 .1-12.8.2-28.5.2-15.8 0-28.5-.1-28.5-.2s12.8-.2 28.5-.2 28.5.1 28.5.2zM68.8 104.4c0-2 1.5-3.4 3.6-3.4 1.2 0 2.2.4 2.8 1.2l-1.2 1.1c-.4-.5-.9-.8-1.6-.8-1.1 0-1.8.8-1.8 1.9 0 1.1.8 1.9 1.8 1.9.6 0 1.1-.3 1.6-.8l1.2 1.1c-.6.8-1.6 1.2-2.8 1.2-2 0-3.6-1.4-3.6-3.4zM81.4 106.3v1.4h-5.3v-6.6h5.2v1.4H78v1.1h2.9v1.4H78v1.2h3.4zM85.3 106h-1v1.8h-1.9v-6.6h3c1.8 0 2.9.9 2.9 2.4 0 1-.5 1.7-1.3 2.1l1.4 2.1h-2l-1.1-1.8zm0-3.4h-1v1.9h1c.8 0 1.2-.4 1.2-1s-.4-.9-1.2-.9zM90.7 102.6h-2v-1.5h5.9v1.5h-2v5.1h-1.9v-5.1zM95.3 101.1h1.9v6.6h-1.9v-6.6zM100.4 102.6v1.5h2.9v1.4h-2.9v2.3h-1.9v-6.6h5.2v1.4h-3.3zM104.5 101.1h1.9v6.6h-1.9v-6.6zM107.4 104.4c0-2 1.5-3.4 3.6-3.4 1.2 0 2.2.4 2.8 1.2l-1.2 1.1c-.4-.5-.9-.8-1.6-.8-1.1 0-1.8.8-1.8 1.9 0 1.1.8 1.9 1.8 1.9.6 0 1.1-.3 1.6-.8l1.2 1.1c-.6.8-1.6 1.2-2.8 1.2-2.1 0-3.6-1.4-3.6-3.4zM119 106.4h-2.8l-.5 1.3h-1.9l2.9-6.6h1.8l2.9 6.6h-1.9l-.5-1.3zm-.6-1.3-.8-2.1-.8 2.1h1.6zM123 102.6h-2v-1.5h5.9v1.5h-2v5.1H123v-5.1zM132.9 106.3v1.4h-5.3v-6.6h5.2v1.4h-3.3v1.1h2.9v1.4h-2.9v1.2h3.4zM107.7 133.6c0 3.7-3 6.6-6.6 6.6s-6.6-3-6.6-6.6c0-3.7 3-6.6 6.6-6.6s6.6 3 6.6 6.6z"/><path class="st0" d="M101 140.3a6.7 6.7 0 1 1 0-13.4 6.7 6.7 0 0 1 0 13.4zm0-13.3c-3.6 0-6.6 3-6.6 6.6 0 3.6 3 6.6 6.6 6.6 3.6 0 6.6-3 6.6-6.6 0-3.6-2.9-6.6-6.6-6.6zM87.5 133.6c0 .1-3.6.2-8 .2s-8-.1-8-.2 3.6-.2 8-.2 8 .1 8 .2zM131.4 133.6c0 .1-4 .2-8.9.2s-8.9-.1-8.9-.2 4-.2 8.9-.2 8.9.1 8.9.2z"/><path class="st3" d="M83.4 132.4s-.1-.2-.1-.5c0-.4 0-.9.1-1.6.1-.7.4-1.5 1-2.3.2-.2.4-.4.7-.5.3-.1.6 0 .9.2.5.4.7 1.1.6 1.7-.2.6-.6 1.2-1 1.7s-.9 1.1-1.5 1.5c-.6.5-1.3.9-2.1 1-.8.1-1.7 0-2.4-.5-.8-.5-1.1-1.5-1.1-2.4.1-.9.3-1.7.7-2.6.2-.4.5-.8.9-1.1.4-.3.9-.5 1.5-.4.5.1 1 .6 1.1 1.1.1.5 0 1-.1 1.5-.3.9-.8 1.8-1.3 2.5-.6.8-1.3 1.4-2.1 1.8-.8.4-1.8.5-2.7.3-.9-.2-1.7-.8-2.1-1.5-.4-.7-.6-1.6-.6-2.4 0-.8.3-1.6.6-2.2.3-.6.7-1.4 1.5-1.6.4-.1.8.1 1 .5.2.3.2.7.3 1 0 1.3-.3 2.4-.8 3.3-.5.9-1.1 1.5-1.6 2s-1 .7-1.3.9c-.3.1-.5.2-.5.2s.7-.3 1.7-1.2c.5-.5 1.1-1.1 1.5-2 .4-.8.7-1.9.7-3.1 0-.3-.1-.6-.2-.8-.1-.2-.4-.4-.7-.3-.3.1-.5.3-.7.5-.2.3-.3.6-.5.9-.6 1.3-.8 2.9 0 4.3.4.7 1.1 1.1 1.9 1.3.8.2 1.6 0 2.4-.3 1.5-.7 2.6-2.4 3.2-4.1.1-.4.2-.9.1-1.3s-.4-.7-.7-.8c-.4-.1-.8 0-1.1.3-.3.2-.6.6-.7 1-.3.8-.6 1.6-.7 2.4-.1.8.2 1.6.9 2 .6.4 1.4.6 2.1.5.7-.1 1.4-.4 1.9-.9.6-.4 1-.9 1.4-1.5.4-.5.8-1 .9-1.6.2-.6 0-1.1-.4-1.4-.4-.3-.9-.1-1.2.2-.6.7-.9 1.6-1 2.2-.5 1.3-.4 2.1-.4 2.1zM129.3 131.3s-.1 0-.2.1-.3.1-.5.2c-.5.2-1.2.5-2.1.7-.9.3-2.1.5-3.5.6-.7.1-1.4.1-2.2.1-.8 0-1.6-.2-2.5-.1-.4.1-.8.2-1.1.5-.3.3-.3.7-.1 1.1.2.4.5.8.8 1.2.3.4.6.8 1 1.2.3.4.7.8 1.1 1.1.4.4.8.8 1.2.9.5.2 1 0 1.3-.4.3-.4.4-1 .4-1.5-.5-4.6-.1-10 1.7-15.2l.2-.6.2.6c.5 1.2.8 2.6.9 4 .1 1.9-.2 3.8-.9 5.5-.3.9-.8 1.7-1.3 2.4s-1.1 1.5-2.1 1.8c-.5.1-1.1-.1-1.4-.5-.3-.4-.3-.9-.4-1.3-.1-.9 0-1.7.1-2.5.2-1.6.7-3.2 1.4-4.6l.1-.3.2.3c1.1 1.5.6 3.7-.9 4.5-1.4.8-3.3.3-4.1-.9-.8-1.2-.6-2.8.3-3.7.2-.2.5-.4.8-.5.3-.1.7 0 .9.2.2.3.2.6.2.8 0 .3-.1.5-.2.8-.7 1.9-1.7 3.1-2.5 3.8-.4.4-.7.6-.9.8-.2.2-.3.2-.4.2l.3-.3c.2-.2.5-.4.9-.8.7-.7 1.7-2 2.3-3.8.1-.4.2-1 0-1.4-.3-.4-.9-.1-1.2.3-.7.8-.9 2.3-.2 3.4s2.4 1.5 3.6.8c1.3-.7 1.7-2.7.7-3.9h.3c-.7 1.3-1.1 2.8-1.3 4.4-.1.8-.1 1.6-.1 2.4 0 .4.1.8.3 1.1.2.3.6.4.9.3.4-.1.7-.3 1-.6.3-.3.5-.6.8-1 .5-.7.9-1.5 1.2-2.3.7-1.7 1-3.5.9-5.3-.1-1.3-.4-2.7-.9-3.8h.4c-1.8 5.2-2.1 10.4-1.7 15 0 .6-.1 1.3-.5 1.8-.2.2-.4.5-.8.6-.3.1-.7.1-.9 0-.6-.2-1-.7-1.4-1-.4-.4-.7-.8-1.1-1.2-.3-.4-.7-.8-1-1.2l-.9-1.2c-.2-.5-.2-1.1.2-1.5.3-.4.8-.6 1.3-.6.5-.1.9 0 1.3 0s.8.1 1.2.1h2.2c1.4-.1 2.5-.3 3.5-.6.9-.2 1.7-.5 2.1-.6.8-.3 1.1-.4 1.1-.4z"/><path class="st2" d="M70.6 239.4s-4.4 3.3-4.4 7.7v22.5H99v-23.5s-.5-5.8-4.3-6.7H70.6z"/><path class="st0" d="M68.7 268.4c-.2-2.1-.5-4.7-.5-6.9.1-2.3 1.7-4.5 3.8-5.1 1.7-.5 3.5.2 5.3.5 2.9.5 5.9 0 8.5-1.3 2.2-1.1 4.2-2.8 6.7-3 1.6-.1 3.5.6 3.9 2.2.2.7.1 1.5 0 2.3-.5 3.5.1 7.8.1 11.1-9.1.3-18.6 0-27.8.2M64.1 272.8l5-3.2H99l4.8 3.2H64.1"/><path class="st2" d="M63.2 199.6v33.5h40.6v39.7H64.1v9.5h68.5v-82.8c0-3.9-3.2-7.1-7.1-7.1H70.3c-3.9 0-7.1 3.2-7.1 7.2z"/><path class="st0" d="M132.6 200.3c0 .2-15.5.3-34.7.3-19.2 0-34.7-.1-34.7-.3 0-.2 15.5-.3 34.7-.3 19.2 0 34.7.2 34.7.3z"/><path class="st0" d="M113.4 282.3c-.2 0-.3-20.1-.3-44.8 0-24.8.1-44.8.3-44.8.2 0 .3 20.1.3 44.8 0 24.7-.2 44.8-.3 44.8zM59.5 258.7l-.4-10.2c-.1-2.9.6-5.9 2.2-8.3 1.3-1.9 3.2-3.6 6-3.6h27.4v2.7H67.8s-4.8.5-5.5 7.1c-.6 6.6 0 12.2 0 12.2h-2.8zM84.4 440.5h12v21.7h-12zM137.6 440.5h12v21.7h-12zM58 282.3h99.6v158.2H58z"/><path class="st2" d="M39.8 282.3h97v158.2h-97zM48.3 440.5h12v21.7h-12zM117.5 440.5h12v21.7h-12z"/><path class="st0" d="M129 397.4v-8.7c0-5.5 0-13.5-.1-23.5l.1.1c-20.8 0-50.4 0-83.2.1l.2-.2v32.1l-.2-.2c24.1 0 44.9.1 59.6.1 7.4 0 13.3 0 17.3.1h5.8c.4.1.5.1.5.1H122.8c-4 0-9.9 0-17.3.1-14.8 0-35.6.1-59.8.1h-.2V365.1h.2c32.8 0 62.4 0 83.2.1h.1v.1c0 10-.1 18-.1 23.6v7.9c.2.4.1.6.1.6z"/><path class="st0" d="M89.9 381.4s0-.2-.2-.6c-.1-.4-.4-.9-.9-1.3s-1.4-.6-2.2-.3c-.8.3-1.5 1.2-1.5 2.2 0 1 .7 1.9 1.5 2.2.8.3 1.7.1 2.2-.3.6-.4.8-.9.9-1.3.2-.4.2-.6.2-.6s.1.2 0 .6c-.1.4-.3 1-.9 1.5-.6.5-1.6.8-2.5.4-1-.3-1.8-1.3-1.8-2.5s.8-2.2 1.8-2.5c1-.3 2-.1 2.5.4.6.5.8 1.1.9 1.5.1.3.1.6 0 .6zM129 434.9v-8.7c0-5.5 0-13.5-.1-23.5l.1.1c-20.8 0-50.4 0-83.2.1l.2-.2v32.1l-.2-.2c24.1 0 44.9.1 59.6.1 7.4 0 13.3 0 17.3.1h5.8c.4.1.5.1.5.1H122.8c-4 0-9.9 0-17.3.1-14.8 0-35.6.1-59.8.1h-.2V402.6h.2c32.8 0 62.4 0 83.2.1h.1v.1c0 10-.1 18-.1 23.6v7.9c.2.4.1.6.1.6z"/><path class="st0" d="M89.9 418.9s0-.2-.2-.6c-.1-.4-.4-.9-.9-1.3s-1.4-.6-2.2-.3c-.8.3-1.5 1.2-1.5 2.2 0 1 .7 1.9 1.5 2.2.8.3 1.7.1 2.2-.3.6-.4.8-.9.9-1.3.2-.4.2-.6.2-.6s.1.2 0 .6c-.1.4-.3 1-.9 1.5-.6.5-1.6.8-2.5.4-1-.3-1.8-1.3-1.8-2.5s.8-2.2 1.8-2.5c1-.3 2-.1 2.5.4.6.5.8 1.1.9 1.5.1.4.1.6 0 .6zM129 359v-8.7c0-5.5 0-13.5-.1-23.5l.1.1c-20.8 0-50.4 0-83.2.1l.2-.2v32.1l-.2-.2c24.1 0 44.9.1 59.6.1 7.4 0 13.3 0 17.3.1h5.8c.4.1.5.1.5.1H122.8c-4 0-9.9 0-17.3.1-14.8 0-35.6.1-59.8.1h-.2V326.7h.2c32.8 0 62.4 0 83.2.1h.1v.1c0 10-.1 18-.1 23.6v7.9c.2.4.1.6.1.6z"/><path class="st0" d="M89.9 343s0-.2-.2-.6c-.1-.4-.4-.9-.9-1.3s-1.4-.6-2.2-.3c-.8.3-1.5 1.2-1.5 2.2 0 1 .7 1.9 1.5 2.2.8.3 1.7.1 2.2-.3.6-.4.8-.9.9-1.3.2-.4.2-.6.2-.6s.1.2 0 .6c-.1.4-.3 1-.9 1.5-.6.5-1.6.8-2.5.4-1-.3-1.8-1.3-1.8-2.5s.8-2.2 1.8-2.5c1-.3 2-.1 2.5.4.6.5.8 1.1.9 1.5.1.3.1.6 0 .6zM129 321.1v-8.7c0-5.5 0-13.5-.1-23.5l.1.1c-20.8 0-50.4 0-83.2.1l.2-.1v32.1l-.2-.2c24.1 0 44.9.1 59.6.1 7.4 0 13.3 0 17.3.1h6.3H122.8c-4 0-9.9 0-17.3.1-14.8 0-35.6.1-59.8.1h-.2V288.8h.2c32.8 0 62.4 0 83.2.1h.1v.1c0 10-.1 18-.1 23.6v7.9c.2.4.1.6.1.6z"/><path class="st0" d="M89.9 305.1s0-.2-.2-.6c-.1-.4-.4-.9-.9-1.3s-1.4-.6-2.2-.3c-.8.3-1.5 1.2-1.5 2.2 0 1 .7 1.9 1.5 2.2.8.3 1.7.1 2.2-.3.6-.4.8-.9.9-1.3.2-.4.2-.6.2-.6s.1.2 0 .6c-.1.4-.3 1-.9 1.5-.6.5-1.6.8-2.5.4-1-.3-1.8-1.3-1.8-2.5s.8-2.2 1.8-2.5c1-.3 2-.1 2.5.4.6.5.8 1.1.9 1.5.1.3.1.6 0 .6zM131.6 282.3c0 .2-15.1.3-33.7.3s-33.7-.1-33.7-.3c0-.2 15.1-.3 33.7-.3s33.7.1 33.7.3zM633.7 368.7c-4.3-2.7-9.2-4.4-14.3-4.9-2.3-.2-4.9-.2-6.8 1.2-.4.3-.8.7-.7 1.2.1.4.4.6.7.8 5.9 4.6 14.7 5.1 21.1 1.7M633.4 368.3c-3.2-2.5-6.5-5.1-9.2-8.1-2.7-3.1-5-6.7-5.8-10.7-.2-1.2-.3-2.6.5-3.6 7.3 5.8 13 13.2 14.5 22.4"/><path class="st0" d="M633.7 368.7c-.6-4-.8-8.2.2-12.1.9-4 3.1-7.7 6.5-10 1.3 3 .7 6.4-.2 9.5-1.4 4.8-3.6 9.4-6.4 13.5M640.9 381.6c-4.4.5-8.2 2.8-11.5 5.8-3.3 3-5.6 7-6.6 11.3 4.3-.3 7.9-3.3 10.6-6.7 2.7-3.4 4.5-7.1 7.5-10.4M642.4 383.7c-3.5-8.7-2.2-19.2 3.3-26.7 2.5 8.8 1.6 18.8-3.3 26.7M652 395c-4-.2-8 .7-11.5 2.7s-6.3 5-8.1 8.6c-.2.5-.5 1.1-.1 1.5.3.4.8.4 1.3.4 3.9-.2 7.3-2.6 10.1-5.2s5.2-5.7 8.3-8M651.7 394.4c-2.1-6.6-2.2-13.7-.4-20.3.7-2.6 1.9-5.4 4.3-6.6.2-.1.4-.2.7-.1.2.1.3.3.4.5.9 1.8 1.1 3.8 1 5.8-.1 2-.5 4-.9 5.9-.8 3.6-1.2 7.5-3.1 10.6-.5.7-.9 1.5-1.3 2.3-.4.8-.4 1.1-.7 1.7M676.9 398.2c-1.9-7.1.1-15.7 4.6-21.6.3-.4.8-.9 1.3-.8.8.1 1 1.2 1 2-.3 7.2-2.7 14.4-6.9 20.4M679.2 399.7c8.6 2.2 18.6.1 25.7-5.2-4.3-2.2-9.3-2.8-13.9-1.7-4.7 1.1-8.9 3.1-11.8 6.9M681.1 395c4.8-7.9 14.1-13 23.4-13.5-1.1 3.8-4.2 6.7-7.6 8.4-3.5 1.8-7.4 2.5-11.2 3.3-1.6.3-3.6.6-4.6 1.8M677.4 372c1.3-4.5 2.6-9 3-13.7.4-4.7-.3-9.5-2.7-13.5-4.5 8.7-5 19-.4 27.7M692.6 364.3c5.3-9.6 16.1-17.3 27-18.4-4.2 10.6-15.7 18.7-27 18.4M689.3 366.2c7.9 1.2 14.6 6.2 22 9.3 1.6.7 3.3 1.2 5 1 1.7-.2 3.4-1.4 3.7-3 .3-1.4-.3-2.8-1.3-3.9-1-1-2.3-1.6-3.6-2.2-8-3.3-16.6-3.4-25.1-1.4"/><path class="st0" d="M684.7 371.7c1.8.5 2.4 1.4 3.8 2.6 4.8 4.1 10.5 7 16.7 8.6.6.2 1.5.2 1.8-.4.3-.5-.1-1.1-.4-1.6-2.6-3.2-6.2-5.4-10.1-6.8-3.8-1.4-7.2-3.2-11.8-2.8M679.6 338.3c6.4 6 15.4 9.1 24.2 8.2.4 0 .8-.1 1.1-.4.6-.7-.1-1.7-.8-2.2-7.2-5.5-15.8-7.8-24.5-5.6"/><path class="st0" d="M685.7 336.1c8.5-6.4 20.1-8.3 30.2-5-3.8 3.7-9.1 5.8-14.4 6.3-5.3.6-10.7 0-15.8-1.3M683.2 320.8c-.7-7.1-.2-12.7-.7-19.8 0-.6-.2-1.3-.7-1.5-.7-.3-1.4.6-1.6 1.4-2.1 6.6-1 14.1 3 19.7"/><path class="st0" d="M682.7 321.6c4.8-3 8.4-6.9 11.7-11.4 2.3-3.2 4.3-7 3.7-10.9-3.3-.1-6.4 1.7-8.5 4.2-2.1 2.5-3.4 5.6-4.3 8.7-.8 3.1-1.5 6.3-2.6 9.4M694.3 318.3c10.5-3.9 20.4-9.7 28.9-17-3.5-1.4-7.4-.6-10.9.8-7.9 3.2-14.3 8.6-18.2 16.1M686 325.4c5.3.6 10.8 1 16.1.1 5.2-.9 10.1-2.9 15-5 .4-.2.8-.4 1-.8.2-.4 0-1-.4-1.3-.4-.3-.8-.5-1.3-.6-5.3-1.5-11-.8-16.2 1-5.2 1.8-9.5 3.9-14.2 6.6M655.5 338.6c-3.6-7.4-3.4-15.9-.3-23.5 2.2 3.4 2.5 7.7 2.1 11.7-.4 4-1.6 8.1-1.7 12.2M641 331.3c-9.1-.2-18.2 3.7-24.4 10.4 4.5.7 9.2-.5 13.3-2.5 4.1-2 7.8-4.8 11.4-7.7M631.2 328c-4.4-.4-8.7-.9-13 .4-4.3 1.3-8.2 4.3-9.9 8.4 4.2.5 8.4-.6 12.2-2.3 3.8-1.7 7.2-4.1 10.7-6.5M645.7 328.1c-4-2.6-8.1-5.3-12.8-6.4-4.7-1.1-10.1-.3-13.3 3.2 3.8 2.2 8.3 2.5 12.7 2.5 4.4 0 9.7-.1 13.9 1.4"/><path class="st0" d="M645.7 328.3c-6.8-6.7-9.4-18.8-6.7-28 5.4 8.2 7.8 18.3 6.7 28M664.5 309.3c1.3-3 2.2-6.1 3.4-9.2 1.2-3.1 2.6-6.1 4.8-8.5 2.2-2.4 5.2-4.2 8.5-4.4-2 9.2-8.2 17.5-16.4 22.1M661.1 313.3c-2.1-2.9-4.6-6.9-7.5-9.1-2.9-2.2-6.7-3.5-10.2-2.7 3.6 6.4 10.4 10.9 17.7 11.8M661.8 309.6c-1.4-3.6-2.8-7.1-3.4-10.9-.6-3.8-.2-7.8 1.7-11.1 3.8 7.1 5 14.7 1.9 22.1M664.5 287.5c2.1-7 8.6-12.2 15.5-14.6.9-.3 1.8-.5 2.7-.4.9.1 1.8.8 2 1.7.3 1.2-.7 2.3-1.7 3.1-5.3 4.6-11.7 8.1-18.5 10.2M664.6 281.8c.3-4.5.6-9.1 2-13.4 1.5-4.3 4.3-8.3 8.5-10.2.7 4.6-1.3 9.1-3.8 13.1-2.4 3.9-5.4 7.7-6.8 12.1M664.5 284.9c-1.8-5.1-1.9-11.6-5-16.1-2.1-3.1-5.6-5.3-7.4-8.6-1.2 3.1-.9 6.6.4 9.7 1.3 3.1 3.4 5.7 5.7 8.1 2.2 2.5 4.2 4.3 6.3 6.9"/><path class="st0" d="M664.5 435.9c-.1 0-.3-34.2-.3-76.4s.1-76.4.2-76.4.3 34.2.3 76.4c.1 42.2 0 76.4-.2 76.4z"/><path class="st0" d="M694.4 333.4s-.4.2-1.3.5-2.1.7-3.5 1.2c-3 1-7.1 2.5-11.5 4.3-4.4 1.9-8.6 3.4-10.9 5.5-1.2 1-1.9 2.1-2.2 2.9-.3.8-.4 1.3-.4 1.3v-.4c0-.2.1-.6.3-1 .3-.8.9-2 2.1-3.1 1.2-1.1 2.8-2.1 4.7-2.9 1.9-.9 4-1.8 6.2-2.7 4.5-1.8 8.6-3.3 11.6-4.2 1.5-.5 2.7-.8 3.6-1 .8-.3 1.3-.4 1.3-.4z"/><path class="st0" d="m704.2 309.4-.4.4c-.3.3-.7.6-1.1 1-1 .9-2.4 2.2-4.1 3.7-3.5 3.2-8.3 7.4-13.6 12.1-5.3 4.7-9.9 9.3-13.1 12.7-1.6 1.7-2.9 3.1-3.7 4.1-.4.5-.7.8-1 1.1-.2.3-.4.4-.4.4s.1-.2.3-.4c.2-.3.5-.7.9-1.2.8-1 2-2.5 3.6-4.2 3.1-3.5 7.7-8.1 13-12.8 5.3-4.7 10.2-9 13.7-12 1.7-1.5 3.2-2.7 4.2-3.6.5-.4.9-.7 1.2-1 .4-.2.5-.4.5-.3z"/><path class="st0" d="M679.3 331.5c-.1-.1 1-2.6 2.1-5.9 1.1-3.2 1.6-6 1.8-6 .1 0-.2 2.8-1.3 6.1-.6 1.6-1.2 3.1-1.7 4.1-.5 1.1-.9 1.7-.9 1.7zM664.6 352.2s-.3-.3-.8-1c-.6-.7-1.3-1.6-2.1-2.7-1.8-2.3-4.2-5.4-6.9-8.9-2.7-3.4-5.3-6.5-7.1-8.8-.9-1.1-1.6-2-2.1-2.7-.5-.6-.8-1-.7-1l.9.9c.5.6 1.3 1.5 2.3 2.6 1.9 2.2 4.5 5.2 7.2 8.7 2.7 3.5 5.1 6.6 6.8 9 .8 1.2 1.5 2.1 2 2.8.2.7.5 1 .5 1.1z"/><path class="st0" d="M658 343.8c-.1.1-1.8-2-2.7-5.1-.7-2.2-.7-4.3-.6-5.2h.2c-.1.4-.2.6-.2.6v-.6h.2c.1.9.2 2.9.9 5 .8 3 2.3 5.2 2.2 5.3zM649.5 333.1c-.1.1-.6-.6-1.9-1.1-1.3-.5-3.2-.6-5.3-.4-2.1.2-4 .5-5.4.9-1.4.3-2.2.6-2.2.5 0-.1.8-.4 2.1-.9 1.3-.4 3.3-.9 5.4-1 2.1-.2 4.2 0 5.5.6 1.4.6 1.9 1.4 1.8 1.4zM647.5 330.5c0 .1-1.1-.4-2.9-1.1-1.8-.6-4.4-1.3-7.3-1.5-2.9-.2-5.6 0-7.5.4-1.9.3-3 .7-3.1.6 0 0 .3-.1.8-.3.5-.2 1.3-.4 2.2-.6 1.9-.4 4.6-.8 7.6-.5 3 .2 5.6 1 7.4 1.7.9.4 1.6.7 2.1 1 .5.1.7.3.7.3zM664.5 319.6c-.1 0-1.1-3.3-2.1-7.4-1.1-4.1-1.8-7.5-1.7-7.6.1 0 1.1 3.3 2.1 7.4 1.1 4.2 1.8 7.6 1.7 7.6z"/><path class="st0" d="M664.6 319.6c-.1 0-.8-2.2-2.4-4.5-1.6-2.3-3.6-3.5-3.5-3.6 0-.1.6.2 1.3.7.8.5 1.7 1.4 2.6 2.6 1.7 2.4 2.1 4.8 2 4.8zM664.5 417.7c-.1 0-.2-.8-.5-2.3-.4-1.5-1.1-3.5-2.3-5.9-2.4-4.8-6.7-11-12.1-17.1-2.7-3.1-5.3-6-7.6-8.8-2.2-2.8-4.1-5.4-5.4-7.8-1.3-2.4-2.2-4.4-2.7-5.8-.3-.7-.4-1.3-.5-1.7-.1-.4-.2-.6-.1-.6 0 0 .3.8.9 2.2.6 1.4 1.5 3.4 2.9 5.7 1.4 2.3 3.2 4.9 5.5 7.7 2.2 2.8 4.9 5.7 7.6 8.8 5.5 6.2 9.8 12.4 12.1 17.3 1.2 2.5 1.8 4.5 2.2 6 .2.7.3 1.3.3 1.7-.3.4-.3.6-.3.6z"/><path class="st0" d="M691.5 387.2s-.5.3-1.4.8c-.9.5-2.2 1.3-3.7 2.4-1.5 1.1-3.1 2.6-4.8 4.4-1.7 1.8-3.4 3.9-5.2 6.1-3.6 4.5-6.9 8.4-8.9 11.6-1 1.6-1.7 2.9-2.2 3.8-.5.9-.7 1.4-.8 1.4 0 0 0-.1.1-.4.1-.3.2-.6.5-1.1.4-1 1.1-2.3 2.1-3.9 1.9-3.2 5.2-7.2 8.8-11.7 1.8-2.2 3.5-4.3 5.3-6.1 1.7-1.8 3.4-3.3 4.9-4.4 1.5-1.1 2.9-1.9 3.8-2.3.5-.2.9-.4 1.1-.5.3-.1.4-.2.4-.1z"/><path class="st0" d="M692.1 397.1c0 .1-1.1.2-3 .4-1.8.2-4.4.5-7.1 1.4-2.7.9-4.9 2.2-6.4 3.3-1.5 1.1-2.2 2.1-2.2 2 0 0 .1-.3.4-.7.3-.4.8-1 1.6-1.6 1.4-1.2 3.7-2.6 6.4-3.5 2.8-.9 5.4-1.1 7.2-1.3 1.9-.1 3.1-.1 3.1 0z"/><path class="st0" d="M674.3 403.1c-.2-.1 1.2-2.1 2.2-4.9 1-2.8 1.2-5.2 1.4-5.2.1 0 .1.6 0 1.6s-.4 2.3-.9 3.8c-.5 1.4-1.2 2.6-1.7 3.5-.6.8-1 1.3-1 1.2zM700.3 360.6s-.2.1-.5.3c-.4.2-.8.4-1.4.6-.6.3-1.4.6-2.2 1-.8.4-1.8.9-2.9 1.5-.5.3-1.1.6-1.6.9-.6.3-1.1.7-1.7 1.1-1.2.7-2.4 1.6-3.7 2.5-2.5 1.9-5.2 4.2-7.7 6.8-2.5 2.6-4.7 5.4-6.5 7.9-.9 1.3-1.7 2.6-2.4 3.8-.4.6-.7 1.2-1 1.8-.3.6-.6 1.1-.9 1.7-.6 1-1 2-1.4 2.9-.4.9-.7 1.6-1 2.2-.2.6-.4 1.1-.6 1.4-.1.3-.2.5-.2.5s0-.2.1-.5c.1-.4.3-.9.5-1.5s.5-1.4.9-2.3c.4-.9.8-1.9 1.3-3 .3-.5.6-1.1.8-1.7.3-.6.7-1.2 1-1.8.7-1.2 1.5-2.5 2.4-3.8 1.8-2.6 4-5.4 6.5-8 2.6-2.6 5.2-4.9 7.8-6.8 1.3-.9 2.5-1.8 3.7-2.5.6-.4 1.2-.7 1.7-1.1.6-.3 1.1-.6 1.7-.9 1-.6 2-1 2.9-1.4.9-.4 1.6-.7 2.2-1 .6-.2 1.1-.4 1.4-.6h.8z"/><path class="st0" d="M678.9 374.9s.2-.8 1.2-1.8c1-.9 2.7-1.8 4.7-1.8 2-.1 3.8.5 5 1 1.2.5 1.9.9 1.9.9 0 .1-.8-.2-2-.6-1.2-.4-2.9-.9-4.9-.8-1.9.1-3.6.8-4.5 1.6-1 .8-1.3 1.6-1.4 1.5zM675.7 378.2c-.1-.1 1.1-1.8 1.3-4.4.3-2.5-.5-4.5-.3-4.6.1 0 .3.4.6 1.3.2.8.4 2 .2 3.4-.2 1.3-.6 2.5-1 3.2-.4.7-.7 1.1-.8 1.1zM640.9 422.6c.7 13.1 4.7 26.4 10.7 39.8H678c5.8-13.3 9.4-26.6 10.1-39.8h-47.2z"/><path class="st4" d="M683.8 443.7c0 .1-8.7.2-19.4.2s-19.4-.1-19.4-.2 8.7-.2 19.4-.2 19.4.1 19.4.2zM683.2 448.5c0 .1-8.1.2-18.2.2-10 0-18.2-.1-18.2-.2s8.1-.2 18.2-.2c10.1-.1 18.2 0 18.2.2zM652.1 431.2c.1 0 .2 2.7.2 6.1 0 3.4-.1 6.1-.2 6.1s-.2-2.7-.2-6.1c-.1-3.4 0-6.1.2-6.1z"/><path class="st4" d="M666.2 431.2c.1 0 .2 2.8.2 6.3s-.1 6.3-.2 6.3-.2-2.8-.2-6.3c-.1-3.5 0-6.3.2-6.3zM679.4 431c.1 0 .2 2.9.2 6.4 0 3.5-.1 6.4-.2 6.4s-.2-2.9-.2-6.4c0-3.5.1-6.4.2-6.4z"/><path class="st4" d="M687.2 431.2c0 .1-10.2.2-22.7.2-12.6 0-22.7-.1-22.7-.2s10.2-.2 22.7-.2c12.6-.1 22.7 0 22.7.2z"/><path class="st2" d="M520.5 454.4c-1.4-1.2-4.5-5-2.1-9.3.9-1.6 2.7-2.4 4.4-3.1 1.7-.7 3.5-1.3 4.8-2.5 2.6-2.2 3.4-5.9 5.1-8.9 2-3.4 5.7-6 9.7-5.8 4.5.2 8.3 3.9 10 8.1 1.7 4.2 1.8 8.9 1.8 13.4 0 2.5-.1 5.3-1.9 7-1.7 1.6-4.3 1.6-6.6 1.5-8.2-.3-16.5-.5-24.7-.8"/><path class="st0" d="M567.8 386.5h-64.9l11.7 69.8c.5 3 2.7 5.4 5.5 6.2.1 0 .2 0 .2.1.2 0 .4.1.6.1.4.1.9.1 1.3.2v.1l.3-.1h28.9c.5 0 1.1-.1 1.6-.2 3.4-.5 6.2-3.3 6.6-6.8l5.6-48.1.3-1.9 2.2-19 .1-.4zM555.5 431h-6.7l.7-20.2h7.7l-1.7 20.2zm2.4-20.2h6.4l-2.4 20.2h-5.7l1.7-20.2zm-19 42.7-.4-17.6h9.6l-.6 17.6h-8.6zm-10.4-17.6h9.3l.4 17.6h-8.4l-1.3-17.6zm.7 17.6h-7.8c-.7-4.7-1.7-10.9-2.8-17.6h9.2l1.4 17.6zm-1.1-22.5-1.6-20.2h10.7l.5 20.2h-9.6zm10.2 0-.5-20.2h11l-.7 20.2h-9.8zm-.5-25.1-.4-18.7h12.3l-.6 18.7h-11.3zm-.7 0h-11l-1.5-18.7h12l.5 18.7zm-11.6 0h-11.6c-.4-2.6-.8-5-1.2-7.2-1.2-7.6-1.7-10.4-1.9-11.5H524l1.5 18.7zm.4 4.9 1.6 20.2h-9.6c-.3-2.1-.6-4.1-1-6.2-.8-4.8-1.5-9.6-2.2-14h11.2zm-8.7 20.2h-6.3l-3.4-20.2h6.5c1 6.2 2.1 13.2 3.2 20.2zm.8 4.9c1 6.1 1.9 12.1 2.8 17.6h-6l-2.9-17.6h6.1zm30.1 17.6.6-17.6h6.4l-1.5 17.6h-5.5zm1.6-47.6.6-18.7h9l-1.6 18.7h-8zm-39.5-18.7c.3 1.4 1.4 8.7 3 18.7h-6.5l-3.1-18.7h6.6zm49.1 66.3h-5l1.5-17.6h5.6l-2.1 17.6zm5.6-47.6h-6.5l1.6-18.7h7.1l-2.2 18.7zM680.7 41.6h6.5V182h-6.5z"/><path class="st2" d="M585.9 42.8v139.3c0 .1 0 .1.1.1h93.6c.1 0 .1 0 .1-.1V42.8c0-.1 0-.1-.1-.1l-93.7.1c.1-.1 0 0 0 0z"/><path class="st3" d="M680.7 183.3H585c-.1 0-.1 0-.1-.1V41.7c0-.1 0-.1.1-.1h95.7c.1 0 .1 0 .1.1l-.1 141.6c.1 0 0 0 0 0zm-93.6-2.1h91.4c.1 0 .1 0 .1-.1V43.9c0-.1 0-.1-.1-.1h-91.4c-.1 0-.1 0-.1.1l.1 137.3c-.1-.1 0 0 0 0z"/><path class="st1" d="M595.4 51.4v122c0 .1 0 .1.1.1h74.8c.1 0 .1 0 .1-.1v-122c0-.1 0-.1-.1-.1l-74.9.1c0-.1 0 0 0 0z"/><path class="st3" d="M653.8 135.4h-42s-.1 0-.1-.1V86.1s0-.1.1-.1h42s.1 0 .1.1l-.1 49.3c.1-.1 0 0 0 0z"/><path class="st0" d="M650.5 129.3c.1.2-2 1.1-6 .6-1.9-.3-4.4-1-6.7-2.7-2.3-1.7-4.5-4.5-5.2-8.2-.8-3.7.5-8.3 4-11.2.9-.7 1.9-1.4 3-1.8 1.2-.4 2.5-.6 3.8-.4 1.3.2 2.6.6 3.8 1.7 1.2 1.1 1.8 2.8 1.5 4.4-.3 1.6-1.1 2.8-2.1 3.8s-2.1 1.7-3.2 2.3c-2.3 1.3-4.9 2-7.6 2.2-2.7.1-5.6-.4-8.1-1.8s-4.6-3.5-5.9-6.2c-1.3-2.6-1.8-5.8-1.1-8.6s2.3-5.4 4.5-7.1c1.1-.9 2.4-1.5 3.8-1.9 1.4-.4 2.9-.4 4.3-.1 1.4.3 2.9 1 3.9 2.2 1 1.2 1.5 2.7 1.5 4.2 0 1.4-.4 2.8-1 4-.6 1.2-1.5 2.1-2.4 2.9-1.8 1.5-3.9 2.6-6 3.2-2.1.6-4.3.8-6.3.5-2-.3-3.9-1-5.5-2.1-3.1-2.1-4.9-5.3-5.2-8.3-.4-3 .8-5.5 1.9-7.1 1.2-1.6 2.6-2.5 3.6-2.9 1-.4 1.5-.4 1.6-.3 0 .1-.4.4-1.2.9-.8.5-1.9 1.5-2.8 3-.9 1.5-1.6 3.7-1.1 6.1.4 2.4 2 4.9 4.6 6.5 2.6 1.6 6.1 2 9.6.9 1.7-.5 3.4-1.5 4.8-2.7 1.4-1.2 2.3-2.8 2.2-4.5 0-1.7-1.1-2.8-2.9-3.2-.9-.2-1.8-.1-2.8.1-.9.3-1.8.7-2.6 1.4-1.6 1.3-2.8 3.1-3.3 5.2s-.2 4.3.8 6.3 2.6 3.6 4.5 4.7 4.1 1.5 6.2 1.5c2.2-.1 4.3-.7 6.1-1.7.9-.5 1.8-1.1 2.4-1.7.7-.7 1.1-1.4 1.2-2 .1-.6-.1-1.2-.5-1.6-.5-.4-1.2-.8-2-.9-.8-.1-1.7 0-2.4.2-.8.3-1.6.7-2.2 1.2-1.3 1-2.3 2.5-2.9 4-.6 1.5-.7 3.1-.5 4.6.4 3 2.1 5.5 4 7.1 1.9 1.6 4 2.4 5.8 2.9 4 .5 6.1.1 6.1.4z"/></g><path class="st7" d="M693.6 463.2c0 .1-142.7.3-318.6.3-176 0-318.7-.1-318.7-.3 0-.1 142.6-.3 318.7-.3 176 .1 318.6.2 318.6.3z" id="Floor"/><g id="Plant"><path class="st7" d="M87.9 425.4s-5.5-37.5-5-59.3c.5-21.8 0-46.4 0-46.4h2.5s-1.7 43.3.2 69.4c1.9 26.1 6.7 36.3 6.7 36.3h-4.4"/><path class="st8" d="M104.2 277.6c-.5-1.3-1.1-2.6-2.3-3.4-1.6-1-3.7-.6-5.5 0-7.6 2.7-14.3 16.8-17.4 24.3l10.1 34c18.2-16.9 21.4-39 15.1-54.9z"/><path class="st7" d="M101.3 275.6s0 .2-.1.4c-.1.3-.3.7-.5 1.2-.4 1.1-1.1 2.6-1.8 4.6-1.5 3.9-3.4 9.3-5.1 15.3-1.7 6.1-2.8 11.7-3.6 15.7-.4 2-.6 3.7-.8 4.8-.1.5-.2 1-.2 1.3-.1.3-.1.5-.1.5v-.5c0-.3.1-.8.1-1.3.1-1.2.3-2.8.7-4.9.6-4.1 1.8-9.7 3.4-15.8 1.7-6.1 3.6-11.5 5.2-15.3.8-1.9 1.4-3.5 1.9-4.5.2-.5.4-.9.6-1.2l.3-.3z"/><path class="st8" d="M84.6 340.6c-9.4-5.2-15-15-15.5-25.8-.4-7.5 2-14.9 4.6-22 .2-.6.5-1.3 1.1-1.6.8-.4 1.8 0 2.6.4 6.9 3.9 11 11.4 13.2 18.9 1.5 5 2.2 10.4 1.6 15.6-.8 5.3-3.7 10.9-7.6 14.5"/><path class="st7" d="M84.6 340.6v-1.8c0-1.1 0-2.8-.1-4.8-.2-4-.7-9.6-1.8-15.7-1-6.1-2.3-11.5-3.3-15.5-.5-1.9-.8-3.5-1.1-4.7-.1-.5-.2-.9-.3-1.3-.1-.3-.1-.4-.1-.5 0 0 .1.1.2.4.1.3.2.7.4 1.3.3 1.1.7 2.7 1.2 4.6 1 3.9 2.3 9.4 3.4 15.5 1 6.1 1.5 11.7 1.6 15.8.1 2 .1 3.7 0 4.8 0 .5 0 1-.1 1.3.1.5.1.6 0 .6z"/><path d="M84.6 340.6c-9.4-5.2-15-15-15.5-25.8-.4-7.5 2-14.9 4.6-22 .2-.6.5-1.3 1.1-1.6.8-.4 1.8 0 2.6.4 6.9 3.9 11 11.4 13.2 18.9 1.5 5 2.2 10.4 1.6 15.6-.8 5.3-3.7 10.9-7.6 14.5" class="st9"/><path class="st8" d="M95.3 398c9.3 2 17 8.6 25.9 11.8 5.9 2.1 12.6 2.9 17.4 7-1.1-2.9-3.8-4.8-6.5-6.4-7.4-4.6-15.3-8.4-23.5-11.2-4.2-1.5-8.8-2.7-13.1-1.5M81.9 406.3c-11.6-.2-23.9-10.1-35.5-10.7 12.1-3.9 29.5-.7 35.5 10.7M86.4 378.4c5.9-2.1 12.4-2.2 18.6-1.3 6.2 1 12.2 3 18.2 4.9-.6-4-3.9-7.1-6.9-9.8-2.3-2-4.6-4.1-7.3-5.6s-5.7-2.6-8.8-2.5c-3.7.2-7.2 2.1-9.7 4.9-2.4 2.9-3.7 5.7-4.1 9.4M62.5 365.5c-7.3-6.3-18.4-5.6-28.1-5.4 14.8 7.1 30.8 16.8 43.5 27.1.5-6.8-6.1-13.8-15.4-21.7z"/><path d="M62.5 365.5c-7.3-6.3-18.4-5.6-28.1-5.4 14.8 7.1 30.8 16.8 43.5 27.1.5-6.8-6.1-13.8-15.4-21.7z" class="st9"/><path class="st8" d="M89.7 356.9c3.7-2.5 7.4-4.8 11.3-6.6 3.9-1.8 7.5-4.5 11.2-6.6 4.8-2.6 9-6.3 13.5-9.5 4.4-3.2 9.3-6.2 14.7-7-4.4-.9-9.1-.4-13.4.8-4.4 1.2-8.5 3.1-12.6 4.9-5.7 2.6-11.5 5.2-16.2 9.4-4.8 4.2-9 8.3-8.5 14.6"/><path class="st7" d="M121 406.3s-.1 0-.4-.2c-.3-.1-.6-.3-1-.5-.9-.5-2.1-1.2-3.7-2-.8-.4-1.7-.8-2.6-1.3-.9-.5-1.9-.9-3-1.4-2.2-.9-4.6-1.9-7.2-2.5-2.6-.6-5.2-.8-7.5-.2-1.1.3-2.2.5-3.2.9s-1.8.8-2.6 1.3c-1.5.9-2.5 1.9-3.2 2.7-.7.7-1 1.2-1 1.1 0 0 .1-.1.2-.3.1-.2.4-.5.7-.9.6-.8 1.7-1.8 3.2-2.8.7-.5 1.6-1 2.6-1.4 1-.4 2.1-.7 3.2-1 2.3-.6 5-.5 7.7.2 2.7.6 5.1 1.6 7.2 2.6 1.1.5 2.1.9 3 1.4.9.5 1.8.9 2.6 1.3 1.6.8 2.8 1.6 3.7 2.1.4.2.7.4 1 .6l.3.3zM73.2 400.5s.3.1.7.2c.5.2 1.1.4 1.9.8 1.6.8 3.6 2.1 5.6 3.9 1.9 1.9 3.3 3.9 4.2 5.4.4.8.7 1.4.9 1.9.2.5.3.7.2.7-.1 0-.5-1-1.4-2.4-.9-1.5-2.3-3.4-4.2-5.3-1.9-1.8-3.9-3.2-5.4-4-1.6-.7-2.6-1.1-2.5-1.2zM47.4 364.9s.2 0 .5.1c.4.1.8.3 1.4.5.6.2 1.4.5 2.2.8.9.3 1.8.8 2.8 1.3 4.2 1.9 9.8 5.1 15.2 9.7 2.7 2.3 5.1 4.7 7.1 7s3.7 4.5 5 6.4c1.3 1.9 2.3 3.5 3 4.5.3.5.6.9.8 1.2.2.3.3.4.3.5 0 0-.1-.1-.3-.4-.2-.3-.5-.7-.9-1.2-.7-1.1-1.8-2.6-3.1-4.5s-3.1-4-5.1-6.3c-2-2.3-4.4-4.6-7.1-6.9-5.4-4.5-10.9-7.7-15-9.7-1-.5-2-1-2.8-1.3-.8-.3-1.6-.6-2.2-.9-.6-.2-1-.4-1.4-.6l-.4-.2zM103.9 371.8s-.3 0-.9-.1c-.3-.1-.7-.1-1.1-.2-.4-.1-.9-.1-1.4-.1-2.1-.2-5.1 0-8 1.6-1.4.7-2.7 1.7-3.6 2.7-1 1-1.8 2-2.3 2.9-1.2 1.8-1.5 3.1-1.6 3.1 0 0 0-.3.2-.9.2-.6.5-1.4 1.1-2.3.6-.9 1.3-2 2.3-3 1-1 2.2-2 3.7-2.8 2.9-1.6 6.1-1.7 8.2-1.5.5.1 1 .1 1.4.2.4.1.7.2 1.1.3.6 0 .9.1.9.1zM115.6 335.5s-.1.1-.4.3c-.3.2-.8.4-1.3.7-1.1.6-2.8 1.5-4.7 2.7-2 1.2-4.3 2.6-6.7 4.4-2.5 1.8-5.1 3.8-7.5 6.3-1.2 1.3-2.3 2.6-3.1 4-.8 1.5-1.5 2.9-2.2 4.2-1.3 2.7-2.4 5.2-3.2 7.4-.8 2.1-1.3 3.9-1.6 5.2-.3 1.2-.4 1.9-.4 1.9v-.5c0-.3.1-.8.2-1.5.2-1.3.7-3.1 1.5-5.3.8-2.2 1.8-4.7 3.2-7.4.7-1.4 1.4-2.8 2.1-4.3.8-1.5 1.9-2.8 3.1-4.1 2.5-2.5 5.1-4.6 7.6-6.3 2.5-1.8 4.8-3.2 6.8-4.3 2-1.1 3.7-2 4.8-2.6.5-.3 1-.5 1.3-.6.3-.1.5-.2.5-.2zM82.9 370.8s-.1-.3-.2-1-.3-1.6-.5-2.7c-.4-2.3-1.1-5.4-2.2-8.7-1.1-3.4-2.4-6.3-3.3-8.4-.5-1-.8-1.8-1.1-2.5-.3-.6-.4-.9-.4-.9s.2.3.5.9c.3.6.7 1.4 1.3 2.4 1 2.1 2.4 5 3.5 8.4 1.1 3.4 1.7 6.5 2.1 8.8.2 1.1.3 2.1.4 2.7-.1.6 0 1-.1 1z"/><path class="st8" d="M82.1 344.3c-.3-4.4-1.7-8.7-3.8-12.6-5.7-10.7-16.3-18.6-28.1-21 8.7 12.9 17.4 25.9 26 38.8l3.4 6.9c2.3-3.7 2.8-7.7 2.5-12.1z"/><path class="st10" d="M58.9 420.8h60.6v10.7H58.9z"/><path class="st10" d="m63.4 429.4 5.2 33.3h40.2l6.1-33.3z"/><path class="st7" d="M119.4 431.5c0 .1-13.7.2-30.5.2-16.9 0-30.5-.1-30.5-.2s13.7-.2 30.5-.2c16.9 0 30.5.1 30.5.2z"/></g><g id="Speech_Bubble_3"><path class="st1" d="m580.2 126.7-2.3-6.6c1.9-4.1 2.8-8.7 2.2-13.5-1.6-13.8-14.1-23.7-27.9-22.1-13.8 1.6-23.7 14.1-22.1 27.9 1.6 13.8 14.1 23.7 27.9 22.1 5.8-.7 10.8-3.2 14.7-7l7.5-.8z"/><path class="st7" d="M580.2 126.7s-.1 0-.5.1c-.3 0-.8.1-1.4.2-1.3.1-3.2.4-5.6.6h-.2l.1-.2.2.1c-2.3 2.2-5.7 4.8-10.6 6.2-1.2.4-2.5.6-3.8.8-.7.1-1.4.1-2.1.2-.3 0-.7.1-1.1.1h-1.1c-2.9-.1-6-.7-8.9-1.9-3-1.3-5.9-3.2-8.3-5.7-2.5-2.5-4.5-5.7-5.8-9.3-2.6-7.1-1.7-16 3.1-22.9 2.4-3.5 5.6-6.3 9.2-8.1 3.6-1.9 7.6-2.8 11.4-2.8 3.8 0 7.5.8 10.8 2.3 3.2 1.5 6 3.6 8.2 6 4.4 4.9 6.3 10.8 6.5 15.8.2 5-1.1 9.2-2.4 12v-.1c.7 2.1 1.2 3.8 1.6 5 .2.5.3 1 .4 1.3.3.2.3.3.3.3l-.2-.4c-.1-.3-.3-.7-.5-1.3-.4-1.1-1-2.8-1.7-4.9 1.3-2.8 2.5-6.9 2.3-11.9-.3-4.9-2.2-10.7-6.5-15.5-2.2-2.4-4.9-4.4-8.1-5.9-3.2-1.5-6.8-2.3-10.6-2.3s-7.6 1-11.2 2.8c-3.6 1.8-6.7 4.6-9.1 8-4.7 6.7-5.6 15.4-3.1 22.4 1.2 3.5 3.2 6.6 5.6 9.1 2.4 2.5 5.2 4.4 8.2 5.6 2.9 1.2 5.9 1.9 8.8 2h2.1c.7-.1 1.4-.1 2-.1 1.3-.2 2.6-.4 3.8-.8 4.8-1.4 8.2-3.9 10.5-6.1l.6-.6-.4.7-.1-.2c2.4-.2 4.3-.4 5.5-.5.6-.1 1.1-.1 1.5-.1h.6z"/><path class="st7" d="m555 107.7-10.2 8.9c-.9.8-1 2.1-.2 3 .8 1 2.3 1 3.2 0l9-10.1-1.8-1.8zM553.8 105.2l5.2 5.6 5.3-5.2-5.5-5.4zM558.1 99.9l-4.7 4.7c-.4.4-1 .4-1.4 0-.4-.4-.4-1 0-1.4l4.7-4.7c.4-.4 1-.4 1.4 0 .4.4.4 1 0 1.4zM566 107.7l-4.7 4.7c-.4.4-1 .4-1.4 0-.4-.4-.4-1 0-1.4l4.7-4.7c.4-.4 1-.4 1.4 0 .4.4.4 1 0 1.4zM551.5 120.7v-1.1c0-.8.7-1.5 1.5-1.5v-.1c0-.9.7-1.6 1.6-1.6h8.1c.9 0 1.6.7 1.6 1.6.8 0 1.5.7 1.5 1.5v1.2h-14.3z"/></g><g id="Speech_Bubble_2"><path class="st1" d="m416.7 168.3 7.3 1.5c2.8 3.5 6.6 6.3 11.2 7.9 13.1 4.7 27.5-2.2 32.2-15.3 4.7-13.1-2.2-27.5-15.3-32.2-13.1-4.7-27.5 2.2-32.2 15.3-1.9 5.5-1.9 11.2-.2 16.3l-3 6.5z"/><path class="st7" d="M416.7 168.3s.1-.1.2-.4c.1-.3.3-.7.6-1.2.5-1.1 1.3-2.7 2.2-4.8 0-.1.1-.1.1-.1l-.2.1c-1-3-1.8-7.2-1-12.2.2-1.2.5-2.5 1-3.8.2-.6.5-1.3.8-1.9.1-.3.3-.7.4-1 .2-.3.3-.6.5-1 1.4-2.6 3.3-5.1 5.7-7.2 2.5-2.1 5.5-3.9 8.9-5 3.4-1.1 7.2-1.5 11-1s7.6 1.9 11 4.1c1.7 1.1 3.2 2.5 4.6 4 1.3 1.6 2.6 3.2 3.6 5.1 1 1.8 1.7 3.8 2.2 5.8.4 2 .8 4 .7 6 0 4-.9 7.9-2.6 11.3-1.7 3.4-4.1 6.3-6.8 8.5-2.8 2.2-5.9 3.8-9 4.7-6.3 1.8-12.4.9-17-1.1s-7.8-5-9.7-7.5h.1c-2.4-.5-4.2-.9-5.5-1.2-.6-.1-1.1-.2-1.4-.3-.3.1-.5.1-.4.1 0 0 .2 0 .5.1s.8.2 1.4.3c1.3.2 3.1.6 5.4 1.1h.1c2 2.4 5.1 5.3 9.7 7.3 4.5 1.9 10.5 2.8 16.7 1 3.1-.9 6.1-2.4 8.8-4.6 2.7-2.2 5-5 6.7-8.4 1.7-3.3 2.5-7.2 2.5-11.1 0-2-.3-3.9-.7-5.9-.5-1.9-1.2-3.9-2.2-5.7-.9-1.9-2.2-3.5-3.5-5-1.4-1.5-2.9-2.8-4.5-3.9-3.3-2.2-7-3.6-10.7-4.1-3.7-.5-7.4-.1-10.8 1-3.3 1.1-6.3 2.8-8.7 4.9-2.4 2.1-4.3 4.5-5.7 7.1-.2.3-.3.6-.5.9-.2.3-.3.6-.4 1-.3.6-.6 1.3-.8 1.9-.4 1.3-.8 2.5-1 3.7-.9 4.9-.1 9.1.8 12.1 0 .1 0 .1-.1.1h-.1.2c-1 2-1.8 3.6-2.3 4.7-.3.5-.5.9-.6 1.2-.2.1-.2.3-.2.3z"/><path class="st10" d="m433.7 154.4 2.8-2.8 5.3 4.8 10.6-10.1 2.5 2.8-13.5 12.7z"/></g><g id="Speech_Bubble_1"><path class="st1" d="m170 99.1-6.1-4.8c-.7-5-2.7-9.9-6.1-14-9.8-12-27.5-13.8-39.5-4s-13.8 27.5-4 39.5 27.5 13.8 39.5 4c5-4.1 8.3-9.6 9.6-15.4l6.6-5.3z"/><path class="st7" d="M170 99.1s-.1.1-.4.3c-.3.2-.7.6-1.2 1-1.1.9-2.8 2.3-4.9 4l-.2.2v-.2h.2c-.8 3.5-2.5 8-6.2 12.2-.9 1.1-2 2.1-3.1 3.1-.6.5-1.2.9-1.8 1.4-.3.2-.6.5-1 .7-.3.2-.7.4-1 .6-2.8 1.7-6 2.9-9.6 3.6-3.6.6-7.4.6-11.3-.3-3.8-.9-7.7-2.6-11-5.2-6.7-5.1-11.3-14-10.9-23.4.2-4.7 1.5-9.3 3.8-13.2 2.3-3.9 5.4-7.2 9-9.5 3.6-2.3 7.6-3.8 11.5-4.3 4-.6 7.8-.2 11.4.7 7.1 1.9 12.4 6.3 15.6 10.9 3.3 4.6 4.5 9.2 5 12.7v-.1c1.9 1.6 3.5 2.8 4.5 3.7.5.4.9.7 1.1.9.4.1.5.2.5.2s-.2-.1-.4-.3c-.3-.2-.7-.5-1.2-.9-1.1-.8-2.6-2-4.5-3.5-.5-3.4-1.8-8-5-12.5s-8.5-8.8-15.5-10.6c-3.5-.9-7.3-1.2-11.2-.7-3.9.5-7.8 2-11.3 4.3-3.5 2.3-6.6 5.5-8.8 9.4-2.3 3.8-3.5 8.3-3.7 12.9-.4 9.2 4.1 17.9 10.6 22.9 3.3 2.6 7 4.3 10.8 5.2 3.8.9 7.6 1 11.1.4s6.7-1.8 9.4-3.5c.3-.2.7-.4 1-.6.3-.2.6-.5.9-.7.6-.5 1.3-.9 1.8-1.4 1.1-1 2.2-2 3.1-3 3.7-4.2 5.4-8.6 6.2-12l.2-.9v.9l-.2-.1c2.1-1.7 3.8-2.9 4.9-3.8.6-.4 1-.8 1.3-1l.5-.5z"/><path class="st7" d="m137.3 92.1 6.6 4.9c-1.1 6.5.5 9.9.5 9.9l-.9.5-3.3-5.5c.4-.4.5-.8.5-1.4 0-1.1-.9-2.1-2.1-2.1s-2.1.9-2.1 2.1c0 1.1.9 2.1 2.1 2.1.3 0 .4 0 .7-.1l3.3 5.4-.9.6c-3.2-3.9-8.6-4.6-8.6-4.6l-1.6-8 5.8-3.8zM139.1 89.6l-3.1-4.7-10.3 6.6 3 4.7z"/><path transform="rotate(-180 137.267 110.133)" class="st7" d="M128.2 109.3h18.1v1.7h-18.1z"/></g><g id="Character_3"><path class="st11" d="m557.1 211.3 4.3 8.4 10-.3 1.1-1-5.2-6.4z"/><path class="st7" d="M636.9 451.7v1.1s-19.1 7.9-19.3 11.5l38.1-.6-.7-12.7c-5.6 2.8-11.5 3.2-18.1.7z"/><path class="st8" d="m655.7 463.8-.2-3-36.5 1.7s-1.7.8-1.5 2l38.2-.7z"/><path class="st1" d="M636.8 452.9c0 .2.9.3 1.9.8.9.6 1.4 1.4 1.6 1.3.2 0-.1-1.1-1.3-1.8-1.1-.7-2.3-.4-2.2-.3zM632.8 454.6c0 .2.8.5 1.4 1.3.7.8.8 1.6 1 1.6.2 0 .3-1.1-.5-2-.8-1-1.9-1-1.9-.9zM630.6 459.5c.2 0 .4-.9-.1-1.9-.5-1-1.4-1.4-1.4-1.2-.1.2.5.7.9 1.5s.4 1.5.6 1.6z"/><path class="st7" d="m664.2 440.2-16.2 4.5 4.1 9.2-4.2 23.3c-.2 1.3.5 2.7 1.8 3 1 .3 2.1 0 2.7-.8 3.6-4 16.7-18.9 16.4-20.7l-.5-4.8c-.1-1-1.1-3.4-1.1-3.6l-3-10.1z"/><path class="st8" d="m650.1 480.3 18.5-23.2.1 1.1c.2 1.1-.3 1.6-.7 2.4-1.4 2.3-5.6 7.6-15.5 18.9-.7.6-1.5.9-2.4.8z"/><path class="st1" d="M655 468.9c-.1.1-.8-1.2-2.4-1.7-1.6-.6-3-.1-3-.3 0-.1.3-.3.9-.4.6-.1 1.5-.1 2.3.2.9.3 1.5.9 1.9 1.4.3.4.3.8.3.8zM653.4 472.4c-.1.1-1-.6-2.4-.9-1.4-.3-2.5.1-2.5-.1-.1-.1 1.1-.8 2.6-.5 1.6.4 2.5 1.4 2.3 1.5zM658 464.3c-.1.1-1.5-1-3.6-1.6-2.1-.6-3.9-.3-3.9-.5-.1-.1 1.8-.7 4 0 2.3.6 3.6 2 3.5 2.1z"/><path class="st8" d="M651.8 450.8c.1 0 .1 1.2.2 3.1-.2 1.3-.5 3.1-.8 4.9-.4 2.2-.8 4.2-1.1 5.7-.3 1.4-.5 2.3-.6 2.3-.1 0 0-.9.2-2.4s.5-3.5.9-5.7c.3-1.9.6-3.6.9-4.9.2-1.8.2-3 .3-3z"/><path class="st7" d="M674.9 300.8c1.3-6.2 4.5-17.3 3.2-22.5-3-11.9-8.1-18.8-15.2-33.9h-5.3l-50.6-.9-4.1 9.2c-4.6 12.4-7.7 19.8-9 28.8-1.5 10.4 1.1 25.5 6.9 40.8 12.5 32.9 19.5 59.2 20 66.3.5 7.1 1.2 14.4 7.8 36.9 4.8 16.4 8.3 26.2 8.3 26.2 5 2.8 10.3 3.6 15.1.8l14.7-5.7s-4.5-38.7-9.8-48.9c-3.8-7.4-10-10.9-7.1-20.5 2.9-9.6 21.2-57.6 25.1-76.6z"/><path class="st8" d="M615.7 269.6s.1.1.2.3c.1.2.3.4.6.8.5.7 1.2 1.7 2.1 3 1.9 2.7 4.6 6.6 8 11.5v.1c-.4 4.3-.5 9.3-.8 14.9-.3 5.6-.6 11.7-.9 18.3-.3 6.6-.7 13.7-1.1 21.1-.4 7.4-.8 15.1-1.6 23.1-.8 6.6-1.5 13.1-.9 19.4.1 1.6.3 3.1.6 4.6.3 1.5.6 3 1.1 4.4 1 2.8 2.3 5.5 3.4 8.2 4.7 10.6 9 20 12.7 27.9 3.7 7.9 6.6 14.3 8.7 18.8 1 2.2 1.8 3.9 2.3 5.1.3.6.5 1 .6 1.3.1.3.2.5.2.5s-.1-.1-.2-.4c-.2-.3-.4-.8-.6-1.3-.6-1.2-1.4-2.9-2.4-5.1-2.1-4.4-5.1-10.8-8.8-18.7-3.7-7.9-8.1-17.3-12.8-27.9-1.2-2.6-2.4-5.3-3.4-8.2-.5-1.4-.8-3-1.1-4.5-.3-1.5-.5-3.1-.6-4.6-.6-6.3.1-12.8.9-19.5.7-7.9 1.1-15.7 1.6-23 .4-7.4.8-14.4 1.1-21 .3-6.6.7-12.7.9-18.3.3-5.6.5-10.6.9-14.9v.1c-3.4-5-6.1-8.9-7.9-11.6-.9-1.3-1.6-2.4-2.1-3.1-.2-.3-.4-.6-.5-.8-.2-.4-.2-.5-.2-.5z"/><path class="st2" d="m622.4 161.6 3.1-7.9 18.5-1 7.6 1 .8 2.2 5.1 90.8s-17.9 3.6-26.9 2.4c-9-1.3-19.5-5.3-19.5-5.3v-51.6l11.3-30.6z"/><path class="st7" d="M650.3 165.3s0 .1-.1.2-.2.3-.4.4l-1.6 1.6c-1.4 1.4-3.4 3.3-6.1 5.3l-.1.1-.1-.1c-1.8-2-3.7-4.3-5.6-7-.2-.3-.4-.5-.5-.8h.2c-1.6 2.1-3.1 4.2-4.4 6-.2.2-.4.5-.6.6-.2.2-.6.3-.9.2-.3 0-.6-.2-.7-.4-.2-.2-.4-.4-.5-.6-.6-.8-1.2-1.5-1.8-2.2-1.1-1.3-1.9-2.4-2.5-3.2-.3-.4-.5-.7-.7-.9-.2-.2-.2-.3-.2-.3l.3.3c.2.2.4.5.7.8.6.8 1.5 1.8 2.6 3.1.5.7 1.1 1.4 1.8 2.2.3.4.6.8 1.1.9.5.1.9-.3 1.2-.8 1.4-1.8 2.9-3.9 4.4-6l.1-.2.1.2c.2.3.4.5.5.8 1.8 2.6 3.7 5 5.5 6.9h-.2c2.6-2 4.7-3.9 6.1-5.2.7-.7 1.3-1.2 1.6-1.6l.4-.4c.3.1.4.1.4.1z"/><path d="M629.1 171s2.3 2.9 3 2.2c.7-.7 4.1-6.1 4.6-6.3.4-.2 4.6 7.3 6.3 6.8 1.6-.5 7.5-6.4 7.5-6.4l.1-2.3-8.6 7.8-6-7.8-5.1 6.7c-.1-.1-1.1.8-1.8-.7z" class="st9"/><path class="st7" d="M633.1 249.6v-.9c0-.6 0-1.4.1-2.4.1-2.2.2-5.2.4-9 .3-7.6.7-18 1.1-29.6.4-11.6.7-22 .9-29.6.1-3.7.2-6.8.3-9 0-1 .1-1.8.1-2.4 0-.6 0-.8.1-.8v3.3c0 2.2-.1 5.2-.1 9-.1 7.6-.3 18-.7 29.6-.4 11.6-.9 22-1.3 29.6-.2 3.7-.4 6.8-.5 9-.1 1-.1 1.8-.2 2.4-.2.5-.2.8-.2.8z"/><path d="M616.8 213c-3.2 21.3-6.5 42.5-9.7 63.8l.8 6.9c.9 1 2.6.6 3.4-.3.9-1 1.1-2.3 1.3-3.6 3.7-22.1 5.7-44.5 4.2-66.8z" class="st9"/><path class="st10" d="M603.1 161.8c-3.6 1.1-6.4 4-7.5 7.7L584 210.4l9.5 28 8.8-12.8 8.5-65.5-7.7 1.7z"/><path class="st10" d="M603.1 230.6c0 .7.1 1.1.1 1.1l-19 42.4c4.2 7.6 15.7 11.1 23.8 13 0 0 8.2-58 8.7-70.8.5-12.8 8.7-62.5 8.7-62.5l-8.9 5.3-11 2.1"/><path class="st7" d="M586.5 269.4s0-.1.1-.2.1-.3.2-.6c.2-.5.5-1.2.9-2.1.8-1.9 2-4.6 3.5-7.9 3-6.8 7.1-16.2 11.8-26.9v.1c-.1-2.9-.2-5.9-.3-9-.3-6.9-.7-13.5-1-19.5-.3-6-.4-11.4-.5-15.9-.1-4.5 0-8.2 0-10.7 0-1.3.1-2.2.1-2.9v-1.1 4c0 2.5 0 6.2.1 10.7.1 4.5.2 9.9.5 15.9s.6 12.6 1 19.5c.1 3.1.3 6.1.3 9-4.8 10.7-8.9 20.1-11.9 26.8-1.5 3.4-2.7 6-3.5 7.9-.4.9-.7 1.6-1 2.1-.1.2-.2.4-.3.5v.3zM616.1 210v-.1c0-.1-.1-.2-.1-.4-.1-.4-.2-.9-.4-1.6-.3-1.4-.7-3.4-1.1-5.8-.4-2.5-.7-5.4-1-8.7-.3-3.3-.5-6.9-.7-10.8-.1-1.4-.1-2.8-.2-4.2 0-.7-.1-1.4-.1-2v-2.1s.1-.1.1 0c.1 0 .1.1.1.1h-.2c1-.7 2-1.4 2.9-2.1v.2c-1.1-.5-2.2-1-3.2-1.5h-.1v-.1c.5-1.8 1.1-3.4 1.6-4.9.5-1.4 1-2.7 1.4-3.7.4-1 .7-1.8.9-2.3.1-.3.2-.5.3-.6.1-.1.1-.2.1-.2s0 .1-.1.2c-.1.2-.1.4-.2.6-.2.6-.5 1.4-.9 2.4s-.8 2.3-1.3 3.7c-.5 1.4-1.1 3-1.5 4.8l-.1-.1c1 .5 2.1 1 3.2 1.5l.2.1-.2.1c-.9.7-1.9 1.4-2.9 2.1h-.2l.1-.1h.1v.8c0 .3 0 .7.1 1 0 .7.1 1.3.1 2 .1 1.4.1 2.8.2 4.2.2 3.8.4 7.5.7 10.8.3 3.3.6 6.3 1 8.7.3 2.5.7 4.5 1 5.9.1.7.2 1.2.3 1.6 0 .2.1.3.1.4v.1z"/><path class="st10" d="m671.3 237 7-70.7-19.7-7.2s-4.6-4.2-7.1-6.4l-.9 11.1s-2.7 45.3 1.5 68.2 3.6 22.1 6.7 36.9c2.2 10.8 2.6 20.3 6 21.2 3.4 1 20.4-5.3 20.4-5.3L671.3 237z"/><path class="st10" d="M678.3 166.4s6 2.9 6.9 11.3c.8 7.3 2.1 52.3 1.9 55.9-.2 3.6-3.3 13.9-8.9 14.2-8.9.6-11.3-6.3-11.3-6.3l2.4-23 9-52.1z"/><path class="st7" d="M655.7 207.6v-.1c0-.1 0-.2.1-.4.1-.4.2-.9.3-1.5.2-1.3.6-3.2.9-5.5.7-4.7 1.3-11.2 1.6-18.5.1-1.7.2-3.4.2-5 0-.8.1-1.6.1-2.4 0-.4 0-.8.1-1.2V172h.2-.2c-1-.7-2-1.4-2.9-2.1l-.2-.1.2-.1c1.1-.5 2.2-1 3.2-1.5l-.1.1c-.3-1.4-.5-2.7-.7-3.9-.1-1.2-.3-2.1-.5-3-.2-.8-.3-1.4-.5-1.8-.1-.2-.1-.3-.2-.5v-.2l.1.2c0 .1.1.3.2.5.1.4.3 1 .5 1.8s.3 1.8.5 3 .3 2.5.7 3.9v.1h-.1c-1 .5-2.1 1-3.2 1.5v-.2c.9.7 1.9 1.3 2.9 2h-.2s.1-.1.1 0h.1V172.9c0 .4 0 .8-.1 1.2 0 .8-.1 1.6-.1 2.4-.1 1.6-.2 3.3-.2 5-.3 7.2-1 13.8-1.7 18.5-.4 2.4-.7 4.2-1 5.5-.1.6-.3 1.1-.3 1.5 0 .2-.1.3-.1.4l.3.2z"/><path d="M626.8 244.6s-1.3 1.7 1.6 2.3c3 .5 36.4-1.9 36.4-1.9l6.4 3.7-.8-2.7-5.3-5.7-38.3 4.3z" class="st9"/><path class="st7" d="m667 188.9-42.1 2.2c-1 .1-1.8.8-1.8 1.8l-2.8 50c-.1 1.2.9 2.1 2 2l40.9-2.1c1-.1 1.8-.8 1.8-1.8l4-50c.1-1.2-.8-2.1-2-2.1zM675.8 178s0 .2-.1.4c-.1.3-.1.7-.2 1.3-.2 1.1-.5 2.7-.9 4.7-.8 4-1.8 9.4-2.7 15.5-1 6.1-1.7 11.6-2.2 15.6-.2 2-.4 3.6-.6 4.7-.1.5-.1 1-.2 1.3 0 .3-.1.4-.1.4v-.5c0-.3.1-.8.1-1.3.1-1.1.3-2.7.5-4.8.4-4 1.1-9.5 2.1-15.6s2-11.6 2.8-15.5c.4-2 .8-3.6 1-4.7.1-.5.2-1 .3-1.3.2-.1.2-.2.2-.2z"/><path class="st11" d="M667.9 221.6s2.4.1 4.6 3.7l4.1 2.6s3.6 5.6 0 10.9c-3.6 5.3-7.9.8-7.9.8s-4.3 2.2-5.6 1.8c-1.2-.4-9.4-4.8-10.6-5.8-.4-.3-3-3.3-3-3.3s-3.7-.8-4.1-1.6c-.4-.8-.5-2.8 2-2.6 0 0-2.4-.7-2.7-1.9-.3-1.2 0-2.8 4.3-2.2 4.2.6 12.4 2.9 13.4 2.6.2-.1.6-.8-.1-1.1-.3-.1-9.9-3.9-11.5-4.3-1.7-.5-1.9-4.2 1.5-3.3 3.5.9 14.7 3.6 14.7 3.6l.9.1z"/><path class="st12" d="M661.5 235.9s-.7-.2-1.8-.5c-1.1-.4-2.6-.8-4.3-1.3-1.7-.5-3.2-.9-4.3-1.2-1.1-.3-1.8-.5-1.8-.5s.2 0 .5.1.8.1 1.3.3c1.1.2 2.7.6 4.4 1.1 1.7.5 3.2 1 4.3 1.4.5.2 1 .4 1.3.5.3 0 .4.1.4.1zM662.9 231.5h-.6c-.4 0-1-.1-1.7-.2-1.4-.2-3.4-.6-5.6-1-2.2-.5-4.1-1-5.5-1.4-.7-.2-1.3-.4-1.6-.5-.4-.1-.6-.2-.6-.2s.2 0 .6.1c.4.1 1 .2 1.7.4 1.4.3 3.4.8 5.5 1.3 2.2.5 4.1.8 5.6 1.1.7.1 1.2.2 1.7.3.3 0 .5.1.5.1zM674.6 230.5v.4c0 .3-.1.7-.2 1.2-.2 1-.7 2.4-1.5 3.7-.9 1.3-1.9 2.3-2.8 2.8-.4.3-.8.5-1 .6-.3.1-.4.2-.4.2s.5-.3 1.3-.9c.8-.6 1.8-1.6 2.6-2.8.8-1.3 1.3-2.6 1.6-3.6.3-1 .3-1.6.4-1.6z"/><path class="st7" d="M675.9 240.3s.5-.6 1.2-1.7c.6-1.1 1.3-2.7 1.4-4.6.1-1.9-.5-3.6-1.1-4.7-.6-1.1-1.1-1.7-1.1-1.7s.2.1.4.4c.2.3.5.7.8 1.2.6 1.1 1.2 2.8 1.2 4.8-.1 2-.8 3.6-1.5 4.7-.3.5-.7.9-.9 1.2-.2.3-.4.4-.4.4zM685.4 222.4s-.7-.5-1.9-1c-.6-.3-1.3-.6-2.2-.8-.8-.2-1.8-.4-2.8-.5-1-.1-2 0-2.8.1-.9.1-1.6.3-2.3.5-1.3.4-2 .8-2 .8s.2-.1.5-.3l.6-.3c.2-.1.5-.2.8-.3.6-.2 1.4-.4 2.3-.6.9-.1 1.9-.2 2.9-.1s2 .3 2.8.5c.8.3 1.6.6 2.2.9.3.1.6.3.8.5.2.1.4.3.6.4.4 0 .5.1.5.2z"/><path d="M657.9 160.1s3.6 8.3 3.1 9c-.5.7-2.4 1.2-2.4 1.2s3.1 1.3 3.1 2.5c0 2.3-3.3 16.2-3.3 16.2l.8-16.9-2.9-2.1 3.2-1.5-1.6-8.4z" class="st9"/><path class="st10" d="m585.1 202.4-6.7 17.3-7.2-8.1-9.6 6.8 11.3 18.1c3.5 4.6 6.9 7.7 10.8 7.2.7-.1 1.5-.3 2.3-.6 5.3-1.8 8.9-5.4 10.3-10.8l6.1-23.8-17.3-6.1z"/><path class="st7" d="M586.8 233.4s-.1-.3-.2-.7c-.1-.5-.2-1.1-.4-1.9-.2-.8-.5-1.8-.8-2.8-.3-1.1-.8-2.2-1.3-3.4-.5-1.2-1.1-2.3-1.6-3.2-.6-1-1.1-1.8-1.6-2.5s-.9-1.2-1.2-1.6c-.3-.4-.4-.6-.4-.6l.5.5c.3.4.7.9 1.2 1.6.5.7 1 1.5 1.6 2.5.6 1 1.1 2.1 1.6 3.2.5 1.2.9 2.3 1.3 3.4.3 1.1.6 2 .7 2.9.2.8.3 1.5.3 2 .3.3.4.6.3.6z"/><path class="st0" d="M583.6 185.8s23.2 26.3 27.9 31.1c2.2 2.3 7 5.5 7 5.5l-7.3.6-27.6-37.2z"/><path class="st0" d="m581.2 182.3-39.1-3.4-1 4.1 36 41.9 35.1 2.1 3.3-2.9z"/><path class="st7" d="M540.8 182.9s.3.1.7.1c.5.1 1.2.2 2.1.3 1.9.2 4.6.5 8 .9 6.8.8 16.3 1.8 26.9 3l-.2-.1c1.4 1.7 2.9 3.5 4.5 5.4 8 9.5 15.2 18.1 20.5 24.4 2.6 3.1 4.7 5.6 6.3 7.4.7.8 1.3 1.5 1.7 2 .2.2.3.4.5.5l.2.2s0-.1-.1-.2-.3-.3-.4-.5c-.4-.5-1-1.2-1.6-2-1.5-1.8-3.6-4.3-6.1-7.5-5.2-6.3-12.4-14.9-20.4-24.5l-4.5-5.4-.1-.1h-.1c-10.7-1.1-20.1-2.1-27-2.8-3.4-.3-6.1-.6-8-.8-.9-.1-1.6-.1-2.2-.2-.5-.1-.7-.1-.7-.1z"/><path class="st7" d="M542 179.9s.3.1.8.1c.5.1 1.3.1 2.2.2 1.9.2 4.7.5 8.1.8 6.9.6 16.5 1.5 27.4 2.5l-.2-.1c1.5 1.9 3.1 3.8 4.7 5.8 8 9.8 15.5 18.6 21 24.8 2.8 3.1 5 5.6 6.6 7.3.8.8 1.4 1.5 1.8 2l.5.5.2.2s0-.1-.1-.2-.3-.3-.4-.5c-.4-.5-1-1.2-1.7-2-1.6-1.8-3.7-4.3-6.4-7.5-5.4-6.3-12.9-15.1-20.9-24.9-1.6-2-3.2-3.9-4.7-5.8l-.1-.1h-.1c-10.9-.9-20.5-1.8-27.4-2.3-3.4-.3-6.2-.5-8.1-.6-.9-.1-1.6-.1-2.2-.1-.8-.1-1-.1-1-.1z"/><path class="st7" d="M613.8 225.3s0-.1-.1-.2-.3-.3-.4-.5c-.4-.5-1-1.2-1.7-2-1.5-1.8-3.6-4.3-6.2-7.5-5.3-6.3-12.7-14.9-20.8-24.5-1.7-2-3.3-3.9-4.9-5.7l-.1-.1h-.1c-10.7-1-20.1-1.9-26.9-2.5-3.3-.3-6-.5-7.9-.7-.9-.1-1.6-.1-2.1-.2h-.7s.3.1.7.1c.5.1 1.2.1 2.1.2 1.9.2 4.6.5 7.9.8 6.8.7 16.2 1.6 26.9 2.7l-.2-.1c1.6 1.8 3.2 3.8 4.9 5.7 8.1 9.5 15.5 18.1 20.9 24.4 2.7 3.1 4.8 5.6 6.4 7.3.7.8 1.3 1.5 1.8 2 .2.2.3.4.5.5-.1.2 0 .3 0 .3z"/><path class="st11" d="M565.6 197.1c.1-1.1-.8-1.9-1.9-1.9-.6 0-1.3.1-2.2.2-2.4.2-9.5 3.7-9.6 5.1-.3 2.1.8 2.9.8 2.9s-1.4 1.8-.9 3.3c.4 1.3 2.5 1.7 2.5 1.7s-1.5 1.8.1 3.1c.6.4 1.7 1.3 1.9 1.6 0 0 .2.8.4 1.1.7 1 1.8 1.6 3 1.7h.4c.8.1 1.5-.1 2.1-.6 2.8-2.1 10.6-8.2 10.7-9.9 0 0 1.5-1.2.9-2.4s-2.8-.7-2.8-.7 1.1-.8.6-2.1c-.5-1.3-4.5-1.2-6.3-.9-1.4.2-5.4.8-5.4.8s5.3-1.8 5.6-2.7c0 0 .1-.2.1-.3z"/><path class="st12" d="M572.9 205.4s-.2.1-.5.3c-.3.2-.9.5-1.5.8-1.3.6-3.1 1.4-5.1 2.2-2 .8-3.9 1.4-5.3 1.9-.7.2-1.2.4-1.6.5-.4.1-.6.2-.6.2s.2-.1.6-.2c.4-.1 1-.3 1.6-.6 1.4-.5 3.2-1.1 5.3-1.9 2-.8 3.9-1.6 5.2-2.2.7-.3 1.2-.6 1.5-.7.2-.2.4-.3.4-.3zM571.2 202.3s-.2.1-.6.1c-.4.1-.9.2-1.6.3-1.3.3-3.1.8-5.1 1.4-1 .3-1.9.6-2.8.9-.8.3-1.6.6-2.2.9-.6.3-1.1.5-1.5.7-.3.2-.5.3-.5.2l.1-.1c.1-.1.2-.1.4-.2.3-.2.8-.4 1.4-.7.6-.3 1.4-.6 2.2-.9.9-.3 1.8-.6 2.8-.9 2-.6 3.8-1.1 5.2-1.4.7-.1 1.2-.2 1.6-.3h.6zM559.9 200.2s-.3.2-.9.5c-.5.3-1.3.6-2.1.9-.8.3-1.6.7-2.1.9-.5.3-.9.4-.9.4s.3-.2.8-.5 1.3-.6 2.1-1c.8-.3 1.6-.6 2.2-.9.5-.2.9-.3.9-.3zM570.4 208.5s-.1.2-.4.4c-.2.3-.6.6-1.1 1-.9.9-2.3 2-3.8 3.2-.4.3-.7.6-1.1.9-.4.3-.7.5-1.1.8-.7.4-1.4.7-2.1.9-.6.2-1.2.2-1.5.1-.2 0-.3 0-.4-.1h-.1.6c.4 0 .9 0 1.5-.2s1.3-.5 2-.9c.4-.2.7-.5 1.1-.8.4-.3.7-.6 1.1-.9 1.5-1.3 2.9-2.3 3.8-3.2.5-.4.9-.8 1.1-1 .3 0 .4-.2.4-.2z"/><path class="st7" d="M614.4 109.4s-4.8 18.1-5.3 30.9l-.1 4.3s10.7 8.9 19.6 9.4l7.5-18.5-21.7-26.1z"/><path class="st7" d="M661.9 120.5c-2-8.8-2.8-19.1-10.2-24.9-5.4-4.3-11.7-5.5-18.6-5.2-3.4.1-7.3 1.7-10.2 3.4-4.1 2.3-5.8 7-7.8 11.2-3.9 8.5-3.4 20-.8 23.2l35.5 18.8c7.1-3.7 11.5-5.2 12.7-14.6.6-4 .3-8-.6-11.9z"/><path class="st11" d="M651.3 102.7 629 96.1c-7.2-1-12.4 7.7-13.1 14.9-.8 8-1.5 17.9-.8 23.9 1.4 12.2 10.7 14.1 10.7 14.1l-.1 4.9 10.2 10.8 15.6-10.4 3.6-47.2c0-2.2-1.6-4.1-3.8-4.4z"/><path class="st7" d="M618 123.5c-.1.8.6 1.5 1.4 1.6.9.1 1.6-.5 1.7-1.3.1-.8-.6-1.5-1.4-1.6-.9-.2-1.6.4-1.7 1.3zM617.4 118.3c.2.2 1.4-.6 3.1-.5 1.7 0 2.9 1 3 .8.1-.1-.1-.5-.6-.9s-1.4-.8-2.4-.9c-1 0-1.9.3-2.4.7-.6.3-.8.7-.7.8zM632.3 123.5c-.1.8.6 1.5 1.4 1.6.9.1 1.6-.5 1.7-1.3.1-.8-.6-1.5-1.4-1.6-.9-.2-1.6.4-1.7 1.3zM633.8 118.5c.2.2 1.4-.6 3.1-.5 1.7 0 2.9 1 3 .8.1-.1-.1-.5-.6-.9s-1.4-.8-2.4-.9c-1 0-1.9.3-2.4.7-.6.3-.8.7-.7.8zM627.3 129.3c0-.1-1-.3-2.7-.6-.4-.1-.8-.2-.9-.5-.1-.3.1-.8.3-1.3.4-1 .9-2.1 1.4-3.2 1.9-4.6 3.3-8.3 3.2-8.4-.2-.1-1.9 3.6-3.8 8.1-.5 1.1-.9 2.2-1.3 3.2-.2.5-.5 1-.3 1.7.1.3.4.6.7.7.3.1.5.1.7.1 1.6.2 2.7.3 2.7.2z"/><path class="st12" d="M625.7 149s8.1.8 16.4-3.7c0 0-4.3 8.3-16.4 6.7v-3zM632.7 133c-.4-.7-1.2-1.1-2-1.2-1.2-.1-2.1.3-2.9 1.3-.3.3-.3 1.2-.2 1.4.1.2 0 .1.2.3.7.6 1.3 1.2 2.2 1.5.9.2 1.9 0 2.5-.8.6-.7.6-1.8.2-2.5z"/><path class="st7" d="M632.4 130.7c-.3 0-.4 1.8-2 3s-3.5.9-3.6 1.2c0 .1.4.4 1.2.4.8.1 2-.1 3-.9 1-.7 1.4-1.8 1.5-2.5.3-.8.1-1.2-.1-1.2zM633.2 112.3c.1.5 1.8.4 3.7.8 1.9.4 3.5 1.1 3.8.7.1-.2-.1-.6-.7-1.1-.6-.5-1.6-1-2.7-1.3-1.2-.2-2.2-.2-3 .1-.8.3-1.2.6-1.1.8zM617.5 113.8c.4.3 1.6-.2 3.1-.5s2.9-.2 3.1-.6c.1-.2-.2-.6-.8-.8-.6-.3-1.6-.4-2.6-.2s-1.9.7-2.4 1.1c-.4.4-.6.8-.4 1zM628.9 94.8c0 .1 0 .2-.1.3.1-.2.1-.3.1-.3z"/><path class="st7" d="M646.6 153.3c-1.2.3-2.3-.4-2.5-1.6-.4-2.5-.3-4.9-.1-7.4.4-3.4 2.7-6.9 3-10.2.5-6.4 0-10-.7-15.4-3-.4-5.9-2.2-7.9-4.5-2.4-2.8-3.9-6.3-5.3-9.8.1 3.4 1.3 6.7 3.3 9.4-1.3.3-2.8-.3-3.8-1.2-1-.9-1.7-2.2-2.2-3.4-1.3-3.1-2-6.4-2.1-9.7-.4 4.8.1 9.6 1.6 14.1-.8-.3-1.8 0-2.6.1s-1.9.1-2.5-.5c-.4-.4-.6-1-.7-1.6-.8-4-1-8.2-.4-12.3-1.1 2.2-2.1 4.4-2.8 6.8-.6 2.4-.8 4.9-.1 7.3-.3.4-1.1.4-1.5 0-.4-.4-.6-1-.7-1.5-.3-2 0-4.1.4-6.1-1.2 2.1-1.6 4.6-2.3 7-.7 2.4-1.7 4.8-3.8 6.1-.4-3.5-.2-6 .3-9.3.4-2.5 1.6-5.1 2.7-7.4 1.2-2.6 3-5.1 4.9-6.8 3.6-3.1 5.1-1.8 7.3-.6l.3.1v-.2l.1-.5c5.9-1.3 12.2-1 18 .8 4.3 1.4 4.7 10.6 5.7 6.2.6-2.7 4.1-.2 4.1-.2 5.1 9.1 10.4 23.6 10.7 46.5l-20.4 5.8z"/></g><g id="Character_2"><path transform="rotate(-180 384.393 401.91)" class="st0" d="M378.7 371.3h11.5v61.3h-11.5z"/><path class="st0" d="M425.4 361.4c-.2 0-35.3 11-35.3 11h-11.5l-40.2-11h87zM433 454.3s-5.3-16.2-12.6-20.1c-11.7-6.3-38.8-9.3-38.8-9.3l-3 7.7s36.1 1.4 41.8 8.7c5.2 6.7 9.1 13 9.1 13h3.5z"/><path class="st7" d="M420.9 456.1c0 4.2 3.4 7.7 7.7 7.7s7.7-3.4 7.7-7.7-3.4-7.7-7.7-7.7-7.7 3.5-7.7 7.7z"/><path class="st0" d="M335.2 454s5.3-16.2 12.6-20.1c11.7-6.3 38.8-9.3 38.8-9.3l3 7.7s-36.1 1.4-41.8 8.7c-5.2 6.7-9.1 13-9.1 13h-3.5z"/><path class="st7" d="M345.6 456c0 4.2-3.4 7.7-7.7 7.7-4.2 0-7.7-3.4-7.7-7.7 0-4.2 3.4-7.7 7.7-7.7 4.2.1 7.7 3.5 7.7 7.7z"/><path class="st0" d="m388.3 429-1.6 20.8-4.8 1V429"/><path class="st7" d="M392.1 456.1c0 4.2-3.4 7.7-7.7 7.7-4.2 0-7.7-3.4-7.7-7.7s3.4-7.7 7.7-7.7c4.2.1 7.7 3.5 7.7 7.7zM378.9 372.7c0 .1 2.4.2 5.5.2 3 0 5.5-.1 5.5-.2s-2.4-.2-5.5-.2c-3-.1-5.5 0-5.5.2zM378.7 426.2c-.1.1 2.2 1.5 5.5 1.5 3.2.1 5.6-1.1 5.6-1.2 0-.1-2.4.8-5.5.7-3.2 0-5.5-1.2-5.6-1z"/><path class="st8" d="M395.2 194.6h-55.8c-12.7 0-23 10.3-23 23v120.3c0 6.4 5.2 11.5 11.5 11.5h78.9c6.4 0 11.5-5.2 11.5-11.5V217.6c-.1-12.7-10.4-23-23.1-23z"/><path class="st8" d="M430.4 361.4H323.6c-4.1 0-7.3-3.3-7.3-7.3 0-4.1 3.3-7.3 7.3-7.3h106.8c4.1 0 7.3 3.3 7.3 7.3.1 4-3.2 7.3-7.3 7.3z"/><path class="st7" d="M420.7 347.1c0-.1-22.4-.3-50.1-.3-27.7 0-50.1.1-50.1.3 0 .1 22.4.3 50.1.3 27.6 0 50.1-.1 50.1-.3z"/><path class="st8" d="m415.4 429-8.9 20.1s16.8 15.9 15.5 19.7l-38.4-16 12.6-31.8 19.2 8z"/><path class="st0" d="M395.4 442.4c-.8-.1-1.7.5-1.8 1.4-.1.8.5 1.7 1.3 1.9.8.1 1.9-.6 1.9-1.5s-.7-1.9-1.6-1.8"/><path class="st7" d="m383.7 452.8 1.4-3.2 36.3 16.5s1.4 1.5.7 2.6l-38.4-15.9z"/><path class="st1" d="M407.2 449.2c-.1.2-1.1-.1-2.2.1-1.2.2-2 .8-2.1.7-.2-.1.6-1.1 2-1.4 1.4-.3 2.4.4 2.3.6zM410.6 452.6c0 .2-1 .2-1.9.7-1 .5-1.5 1.3-1.7 1.3-.2 0 .1-1.2 1.3-1.9s2.3-.3 2.3-.1zM410.9 458.5c-.2 0-.1-1.1.8-2 .9-.9 2-.9 2-.7 0 .2-.8.5-1.5 1.2-.8.7-1.2 1.5-1.3 1.5zM408.8 444.4c-.1.1-.9-.5-2-.8-1.1-.4-2.1-.4-2.1-.6-.1-.2 1-.6 2.3-.1 1.3.4 1.9 1.4 1.8 1.5z"/><path class="st8" d="m378.3 436.9.2 26.6 6.1 20.9c.4 1.5-.5 3.1-2 3.5-.8.2-1.7 0-2.4-.6-4.1-3.7-18.6-17.8-18.7-19.2-.2-2.2-2.2-28.3-2.2-28.3l19-2.9z"/><path class="st7" d="M382.6 487.9 361.3 466v1.1c.1 1.1.4 1.9 1 2.6 1.7 1.9 6.5 7.1 17.8 17.5.7.7 1.6.9 2.5.7z"/><g class="st13"><path class="st1" d="M366.4 457.2c.7.4.9 1.4.5 2.1-.4.7-1.4 1-2.1.5-.7-.4-1-1.6-.5-2.3.5-.7 1.7-.9 2.2-.3"/></g><path class="st1" d="M376.3 476.5c.1.1.7-1.3 2.2-2.2 1.5-.9 2.9-.5 3-.7 0-.1-.3-.3-.9-.3-.6-.1-1.5.1-2.3.5-.8.5-1.4 1.1-1.7 1.7-.3.6-.4 1-.3 1zM378.3 480c.1.1.9-.8 2.3-1.2 1.3-.5 2.5-.3 2.5-.4.1-.1-1.2-.7-2.7-.1-1.6.4-2.3 1.6-2.1 1.7zM372.7 472.1c.1.1 1.4-1.3 3.4-2.1 2-.9 3.8-.9 3.8-1.1 0-.1-1.9-.4-4 .5-2.2.9-3.3 2.6-3.2 2.7zM372 464c.1.2 1.5-.5 3.3-.7 1.9-.2 3.3.3 3.4.1.1-.1-1.4-.8-3.4-.7-2 .2-3.4 1.2-3.3 1.3zM371.8 456.2c.1.2 1.5-.8 3.5-.8s3.4.9 3.5.7c0-.1-.3-.4-.9-.7-.6-.3-1.5-.6-2.6-.6s-2 .3-2.6.6c-.7.4-1 .7-.9.8zM375.1 453.9s.1-.4 0-1-.3-1.6-.9-2.6c-.3-.5-.6-1.1-1.3-1.4-.4-.2-.9-.1-1.2.3-.3.4-.4.8-.4 1.2.1 1.7 1.5 3.3 3.4 3.4 1.9.1 3.5-1 4.2-2.5.1-.4.2-.9 0-1.3s-.7-.6-1.1-.5c-.8.1-1.2.6-1.7 1-.9.8-1.4 1.6-1.7 2.1-.3.6-.4.9-.4.9.1.1.6-1.3 2.3-2.8.4-.3.9-.7 1.5-.8.3 0 .5.1.6.3.1.2.1.5-.1.8-.6 1.2-2.1 2.3-3.7 2.1-1.6-.1-2.8-1.5-2.9-2.9 0-.3.1-.7.2-.9.2-.2.4-.3.7-.2.5.2.9.7 1.2 1.2 1.3 2.1 1.2 3.7 1.3 3.6z"/><path class="st7" d="M406.5 314.9c7 5.3 31.7 28.9 38.8 35.3 5.2 4.7 7.9 13.7 5.1 19.8-11.8 25.4-40.5 75.9-40.5 75.9l-24.7-7.1 29.3-72.6-33-22.3-29.4-39.9 54.4 10.9z"/><path class="st7" d="M364.7 310s25.9 41.9 25.4 49.6c-.7 10.4-6.4 102.6-6.4 102.6l-27-.1-5.7-96.9-20.3-32.7-.7-16.5 6.1-16.3 28.6 10.3z"/><path class="st8" d="M371.5 322.4s0 .1.2.3l.5 1c.5.9 1.2 2.1 2 3.7 1.8 3.2 4.3 7.8 7.4 13.6 1.5 2.9 3.2 6 5 9.5.9 1.7 1.8 3.5 2.5 5.4.4.9.4 1.9.5 3v3.2c-.3 8.6-1.1 18.1-1.8 28.1-.3 5-.7 9.8-1 14.5-.3 4.7-.5 9.2-.8 13.5-.5 8.6-.9 16.4-1.3 22.9-.3 6.5-.6 11.8-.8 15.5-.1 1.8-.2 3.2-.2 4.2v1.5-.4c0-.3.1-.6.1-1.1.1-1 .2-2.4.3-4.2.2-3.7.6-9 1-15.5s.9-14.3 1.4-22.9c.3-4.3.5-8.8.8-13.5.3-4.7.7-9.6 1-14.5.7-10 1.5-19.4 1.8-28.1v-3.2c0-.5-.1-1.1-.1-1.6-.1-.5-.2-1.1-.4-1.5-.8-1.9-1.7-3.7-2.6-5.4-1.8-3.4-3.5-6.6-5-9.4-3.1-5.7-5.8-10.3-7.6-13.5-.9-1.6-1.6-2.8-2.1-3.6-.2-.4-.4-.7-.6-.9-.1-.5-.2-.6-.2-.6zM424.9 359.3c-.1-.1-2.7 1.5-5.8 3.7-3.1 2.1-5.6 4-5.5 4.1.1.1 2.7-1.5 5.8-3.7 3.1-2.2 5.6-4 5.5-4.1z"/><path class="st7" d="M397 143.5c-4.1-1.4-8.5 2.2-12.6 1.2-2.5-.6-4.4-2.7-6.7-4-3.3-2-8.2-2.4-11.7-.8-3.5 1.7-5.8 3.5-6.4 7.3-3.1-1.9-8.5 1.9-10.4 5.7-1.9 3.8-1.6 7.8-.7 11.9 1.6 7.1 4.5 14 8.7 20 .4.5 1 1.1 1.6.9.4-.2.6-.7.6-1.1.7-3.7.3-7.6.1-11.4-.2-3.8-.3-7.7 1-11.3 1.3-3.6 4.2-6.8 8-7.4 2.8-.5 5.6.5 8 2 2.4 1.4 4.5 3.4 6.8 5s4.9 3 7.7 3.2c2.8.2 5.9-1 7.1-3.6 1.3-2.5 0-6.2-2.7-6.8 2.5-.2 4.8-2.3 5.1-4.8.5-2.5-1.1-5.2-3.5-6z"/><path class="st11" d="M393.1 188.5c0-5.2-.8-16-1.6-25.7-.9-10.5-9.7-18.5-20.2-18.4h-1c-11.2.7-15.6 11.1-14.5 22.3l1.2 35.8 20.6 19.7 4.3-11.8.9-9.5c-.2.1 10.3-1.6 10.3-12.4z"/><path class="st12" d="M382.6 201s-7.1.7-14.4-3.9c0 0 3.4 7.6 14.2 6.5l.2-2.6z"/><path class="st7" d="M386.6 174.1c0 .8-.6 1.5-1.5 1.6-.8.1-1.6-.6-1.6-1.4 0-.8.6-1.5 1.5-1.6.8-.1 1.5.5 1.6 1.4zM389.2 168.1c-.2.2-1.4-.7-3-.6-1.7 0-2.9.9-3.1.7-.1-.1.1-.5.6-.8.5-.4 1.4-.8 2.4-.8s1.9.4 2.4.8c.6.2.8.6.7.7zM371.4 174.1c0 .8-.6 1.5-1.5 1.6-.8.1-1.6-.6-1.6-1.4 0-.8.6-1.5 1.5-1.6.8-.1 1.5.5 1.6 1.4zM372.9 168.5c-.2.2-1.4-.7-3-.6-1.7 0-2.9.9-3.1.7-.1-.1.1-.5.6-.8.5-.4 1.4-.8 2.4-.8s1.9.4 2.4.8c.6.2.8.6.7.7zM373.3 183.2c.3-.1.7 1.3 2.1 2.3 1.3 1 2.8 1 2.8 1.3 0 .1-.4.3-1 .3s-1.6-.2-2.4-.8c-.8-.6-1.3-1.4-1.5-2-.2-.7-.1-1.1 0-1.1zM379 180.8c0-.1 1-.3 2.7-.5.4 0 .8-.1.9-.4.1-.3-.1-.8-.3-1.3-.4-1-.8-2.1-1.3-3.2-1.8-4.6-3.1-8.4-2.9-8.4.2-.1 1.8 3.6 3.5 8.2.4 1.1.8 2.2 1.2 3.2.2.5.4 1 .2 1.7-.1.3-.4.6-.7.6-.3.1-.5.1-.7.1-1.6.1-2.6.1-2.6 0zM373 160c-.2.5-1.8.2-3.8.5-2 .2-3.5.8-3.8.4-.1-.2.2-.6.8-1.1.6-.4 1.6-.9 2.8-1 1.2-.1 2.2 0 3 .3.7.3 1 .7 1 .9zM388.5 163.3c-.3.4-1.4 0-2.8 0-1.4-.1-2.5.3-2.8-.1-.1-.2.1-.6.6-.9.5-.4 1.3-.7 2.3-.6.9 0 1.8.4 2.2.7.5.3.7.7.5.9z"/><path class="st11" d="M356.2 174.2c-.2-.1-8.3-2.1-8 5.3.3 7.4 7.4 5.4 7.6 5.4 1.4 0 .4-10.7.4-10.7z"/><path class="st12" d="M353.4 182.2s-.1.1-.3.2c-.2.1-.6.2-1 .1-.8-.3-1.5-1.5-1.6-2.8 0-.7.1-1.3.3-1.9.2-.5.5-.9.9-1 .4-.1.7.1.8.3.1.2.1.4.1.4s.2-.1.1-.4c0-.1-.1-.3-.3-.5-.2-.1-.4-.2-.7-.2-.6.1-1.1.6-1.3 1.2-.3.6-.4 1.3-.4 2.1.1 1.5.9 2.9 2 3.1.5.1 1-.1 1.2-.2.2-.2.3-.4.2-.4z"/><path class="st7" d="M391.5 152.7c-1-2.1-2.7-3.8-4.6-5.2-4-3-9-4.9-14-4.9s-10.1 1.8-13.7 5.3c-2.9 2.8-4.8 6.6-5.6 10.5-.9 3.9-1.2 9.2-.5 13.2.3 1.7 1.3 2.4 2.5 3.6.8.8 2.1 1.3 2.9.6.5-.4.7-1.1.8-1.7 1.4-5.7 2.7-11.9.6-17.3 1.4-1.9 3-3.6 5.1-4.7 2-1.1 4.5-1.6 6.7-1 3.3 1 5.4 4.2 8 6.4 3.8 3.2 9.1 4.3 13.9 3l-2.1-7.8z"/><path class="st0" d="M348 162.4c0-.1.8 0 2-.1s3-.4 4.7-1.2c1.7-.8 3.1-1.9 3.9-2.8.9-.9 1.3-1.6 1.4-1.5 0 0-.3.8-1.1 1.7-.8 1-2.2 2.2-4 3-1.8.8-3.6 1.1-4.9 1.2-1.3-.1-2-.3-2-.3z"/><path class="st0" d="M348.1 166c0-.1.8-.2 2.2-.5 1.3-.3 3.1-1 4.8-2.1 1.7-1.1 3.1-2.5 3.9-3.5.8-1.1 1.3-1.8 1.3-1.8s-.3.8-1.1 2c-.8 1.1-2.1 2.6-3.9 3.7-1.8 1.2-3.7 1.8-5 2-1.4.3-2.2.3-2.2.2zM397.3 156.7c.1 0 0 .5-.4 1.2s-1.1 1.6-2.2 2.3c-1.1.6-2.2.8-3 .8-.8 0-1.3-.2-1.3-.2 0-.1.5 0 1.3-.1s1.8-.3 2.8-.9c1-.6 1.7-1.4 2.2-2 .4-.6.6-1.1.6-1.1zM398.2 158.3c.1 0 0 .5-.4 1.2s-1.1 1.6-2 2.3c-1 .7-2 1.1-2.8 1.2-.8.1-1.3 0-1.3 0 0-.1 1.9-.2 3.8-1.5 1.9-1.5 2.6-3.3 2.7-3.2z"/><path class="st10" d="M307 288.9s-10.2-8.4-6.6-17.7c3-7.5 14.5-25.7 14.5-26.5 0-.8 11.5-24.8 16-26.5 4.6-1.7 6.1 24.2 6.1 24.2l-1.7 13.3L325 272l10.1 4.9-4.4 17.8c.3.2-17-3.8-23.7-5.8z"/><path class="st11" d="M475.8 199.3s-1.6 4.2-3 6c-1.4 1.8-2.8 2.1-3.6 5.3-.8 3.1-1.8 6.4-1.8 6.4s-6.3 5.2-6 5.3c.3.1 6.1 9.9 6.1 9.9l10.7-10.1 13.8-8.6 5.5-10.2-.5-.8.6-2s-1.1-2.3-2.9-.5c0 0 .2-2.7-2.6-.8-2.8 2-7.8 7-8.2 7.1-.4.1-5.5 2.3-5.5 2.3l-2.5-.2s1.9-1.4 2.3-3.4c.5-2 1.7-3.3.5-4.8-1.1-1.7-2.9-.9-2.9-.9z"/><path class="st12" d="M475.4 215.1s.3-.1.8-.4c.5-.2 1.3-.5 2.3-.8 2-.5 4.9-.7 8.1-.7h.2c.5-.3 1-.7 1.5-1.1.2-.2.5-.4.7-.5h.1v-.1c.3-1.2.7-2.4 1-3.4.1-.5.4-1 .8-1.3.4-.3.9-.3 1.3-.1l-.1-.2c.1 3.5.4 5.7.6 5.7 0 0 0-.6-.1-1.6 0-1-.1-2.4-.1-4.2v-.1h-.1c-.5-.2-1.1-.2-1.6.1-.5.3-.8.9-.9 1.5-.3 1.1-.7 2.2-1 3.4l.1-.1c-.2.2-.5.4-.7.5-.5.4-1 .7-1.5 1.1h.1c-3.3-.1-6.2.3-8.2.8-1 .3-1.8.6-2.3.9-.7.4-1 .6-1 .6zM486.4 208.1c.1.1 2-1.7 4.2-4s4-4.3 3.9-4.4c-.1-.1-2 1.7-4.2 4-2.2 2.4-4 4.3-3.9 4.4zM492.9 206.4c.1 0 .3-.3.5-.8.3-.5.7-1.2 1.2-1.9.6-.6 1.2-1.1 1.7-1.3.5-.2.9-.2.9-.3 0-.1-.4-.2-1 0-.6.1-1.4.6-2 1.3-.6.7-.9 1.5-1.2 2-.1.7-.2 1-.1 1z"/><path class="st12" d="M483 207.3c0 .1 1.4.4 2.7 1.5 1.3 1.1 1.8 2.5 1.9 2.5.1 0 0-.4-.2-.9s-.7-1.3-1.4-1.9c-.7-.6-1.5-1-2-1.1-.6-.1-1-.1-1-.1z"/><path class="st2" d="m356.6 200.5 12.9 10.2 6.5 11.1 2.6-10.8 3.6-7.7 3.2 3.6L393 226l4.5 89s-17.4 5.5-26.4 5.6c-8.9.1-22.9-3.2-22.9-3.2l2.8-47.3-2.2-47.2 7.1-17.6.7-4.8z"/><path class="st10" d="m353.6 206.7-3.2 3.9-19 7.2c-4.5 4.8-7.4 9.9-8.5 15.3l12.1 15.7 4.2 34.2-16.3 55s20.5 5.9 22.1 4.1c.6-.7 3.6-6.8 5.2-11.2 3.6-9.9 4.8-17.8 6.4-26.9 1.6-9.2 2.4-20.2 2.2-28.2-.4-15-1.7-34.1-2.7-44.1-.6-6.5.3-28.5.3-28.5l-2.8 3.5zM398.8 314.8s8.7.9 12 3.5c3.2 2.6 8.1 7.3 8.1 7.3l-9.7-36.8.8-50.2-.1-24.9-17.6-3.1-6.8-3.8 3.8 9.4 4.3 61.1c0 .1 4.9 31.9 5.2 37.5"/><path class="st10" d="m409.5 213.6 33.4 22.5 23.5-20.4 12.7 11.1-28.6 29c-3.6 3.1-10.8 2.5-14.5 1l-28-12.1-2.2-8.7 3.7-22.4z"/><path class="st7" d="m375.8 221.4-.6-.6c-.4-.5-1-1.1-1.7-1.9-1.4-1.7-3.4-3.9-5.7-6.5h.3c-.8.8-1.4 2-1.7 3.2-.2.6-.3 1.3-.3 1.9v.4l-.3-.3c-2.9-2.6-5.2-5.2-7-7l-2.1-2.1c-.5-.5-.8-.7-.7-.8 0 0 .3.2.8.7.5.5 1.2 1.1 2.1 2 1.8 1.7 4.2 4.3 7 6.9l-.3.1c0-.7.1-1.3.3-2 .3-1.3 1-2.5 1.9-3.4l.1-.1.1.1c2.2 2.6 4.1 4.9 5.6 6.6.7.8 1.2 1.4 1.6 1.9l.6.9zM384.6 208.4v.6c0 .4-.1.9-.2 1.6-.2 1.3-.5 3.2-1.2 5.4l-.1.4-.2-.4c-.5-1.1-1.2-2.3-2.1-3.4-.3-.3-.5-.6-.8-.8l.3-.1c-.8 2.9-1.8 5.3-2.6 7.1-.4.9-.7 1.5-1 2-.3.5-.4.7-.4.7s.1-.3.3-.8c.2-.5.5-1.2.9-2.1.7-1.7 1.7-4.2 2.5-7.1l.1-.3.2.2.8.8c1 1.1 1.7 2.3 2.2 3.5h-.3c.7-2.1 1.1-4 1.3-5.3.2-1.2.3-2 .3-2zM443.6 246.4c-.2 0 .4-2.4.2-5.3s-1.1-5.2-1-5.3c.1-.1 1.3 2.2 1.5 5.2.3 3-.6 5.4-.7 5.4zM409.7 227.1V235.5c0 5.3-.1 12.4-.1 20.3-.1 7.9-.2 15-.2 20.3-.1 2.5-.1 4.6-.1 6.1 0 .7 0 1.2-.1 1.7 0 .4 0 .6-.1.6V276.1c0-5.3.1-12.4.1-20.3.1-7.9.2-15 .2-20.3.1-2.5.1-4.6.1-6.1 0-.7 0-1.2.1-1.7 0-.4.1-.6.1-.6zM379 298.8v-.8c0-.6.1-1.3.1-2.2.1-1.9.3-4.8.4-8.2.3-6.9.4-16.6 0-27.2-.5-10.6-1.5-20.2-2.4-27.1-.4-3.4-.8-6.2-1.1-8.2-.1-.9-.2-1.7-.3-2.2-.1-.5-.1-.8-.1-.8s.1.3.2.8c.1.6.2 1.3.4 2.2.4 1.9.8 4.7 1.3 8.1 1 6.9 2 16.5 2.5 27.1.5 10.6.3 20.3-.1 27.2-.2 3.5-.4 6.3-.6 8.2-.1.9-.2 1.7-.2 2.2-.1.7-.1.9-.1.9zM332.2 230c.1 0 1.3 8.1 2.6 18 1.3 10 2.2 18.1 2 18.1-.1 0-1.3-8.1-2.6-18-1.2-10-2.1-18.1-2-18.1zM356.7 249.9s-.3-.5-.7-1.4c-.4-.9-.9-2.3-1.6-4-1.3-3.4-3-8-4.2-13.4-1.2-5.4-1.5-10.4-1.1-14 .2-1.8.4-3.2.6-4.2.1-.5.2-.9.3-1.1.1-.3.1-.4.1-.4s-.1.6-.2 1.5c-.2 1-.4 2.4-.5 4.2-.2 3.6.1 8.5 1.3 13.9 1.2 5.3 2.9 10 4.1 13.4.6 1.6 1.1 3 1.4 4 .4 1 .5 1.5.5 1.5zM392.5 253.9s0-.6.2-1.7c.2-1.2.4-2.7.8-4.6.6-3.9 1.5-9.3 1.6-15.4.2-6-.7-11.5-1.8-15.3-.5-1.9-1.1-3.4-1.5-4.4-.4-1-.7-1.6-.6-1.6 0 0 .1.1.2.4.1.3.4.6.6 1.1.5 1 1.1 2.5 1.7 4.4 1.2 3.8 2.1 9.3 2 15.4-.2 6.1-1.1 11.5-1.8 15.4-.4 2-.7 3.5-.9 4.6-.3 1.1-.5 1.7-.5 1.7zM309.8 279.1s0-.3.2-.7c.2-.4.5-1.1.9-1.8.9-1.4 2.6-3.2 4.9-4.4 2.4-1.1 4.8-1.3 6.5-1.1.8.1 1.5.3 2 .4.5.1.7.3.7.3 0 .1-1-.2-2.7-.3-1.6-.1-4 .1-6.2 1.2-2.3 1.1-3.9 2.8-4.8 4.1-1 1.4-1.4 2.3-1.5 2.3z"/><path class="st11" d="M340.3 276.2s5.9.1 8.5 1.1c2.6 1 3.4 1.5 3.5 2.5.1 1-.2 2.9-.3 3-.2.1.3 3.4.1 4-.2.6-.5.9-.5.9l-2.9-1.6-2.4-4.8-6-3.2v-1.9z"/><path class="st7" d="m330.1 264.1 24.4 26.4 1.4 4-3.4-1.9-24.9-26.1z"/><path class="st11" d="M351.3 284.3c-.2-.8-.7-1.5-1.5-1.9-2.2-1.1-9.5-4.9-9.7-5.3-.3-.5-3.9-3.8-6-4.1-1.2-.1-2.7.6-3.8 1.2-1.3.8-2.2 2-2.5 3.4-.1.4-.1.8-.1 1.2 0 0-2.5 1.4-1.4 5.1l.4 1s-.7 1.6.7 4.5c0 0 1.4 4.6 3.3 5.2 1.9.7 10.1.4 11.6 0s2-1.4 2-1.4 2.3 0 3.4-1.2c0 0 3.5 1.9 4.3-.3.9-2.2-2.8-4.5-2.8-4.5s1.7-.1 2.1-1.8v-1.1z"/><path class="st12" d="M349.1 287.2c0 .1-1.1-.3-2.7-.9-1.6-.6-3.9-1.6-6.3-2.7s-4.6-2.2-6.2-3c-1.6-.8-2.5-1.3-2.5-1.4 0-.1 1 .4 2.6 1.1 1.8.8 3.9 1.8 6.2 2.9 2.4 1.1 4.5 2 6.3 2.8 1.7.7 2.7 1.1 2.6 1.2zM331.3 285.8c0-.1 1 .2 2.4.7 1.5.5 3.5 1.3 5.8 2.1 2.2.9 4.2 1.6 5.7 2.2 1.4.6 2.3 1 2.3 1.1 0 .1-1-.2-2.4-.7-1.5-.5-3.5-1.3-5.7-2.1s-4.2-1.6-5.7-2.2c-1.5-.7-2.4-1.1-2.4-1.1zM344.4 293.6c0 .1-2.9.1-6.3-.6s-6.1-1.9-6-2c.1-.1 2.7.8 6.1 1.5 3.4.7 6.3.9 6.2 1.1zM350.5 286.7s.1-.2.3-.5c.2-.3.3-.9.2-1.6-.1-.7-.5-1.4-1.3-1.9-.7-.6-1.6-1-2.6-1.5-2-1-3.7-1.9-5-2.6-1.3-.7-2-1.1-2-1.2 0-.1.9.3 2.2.9 1.3.6 3.1 1.5 5.1 2.4 1 .5 2 1 2.7 1.6.8.6 1.3 1.5 1.3 2.3.1.8-.1 1.4-.4 1.7-.2.3-.4.4-.5.4z"/><path class="st9" d="m327.6 322.4 2.2-7.5H416l1.7 6.6c.1.1-71.1 2.6-90.1.9z"/></g><g id="Character_1"><path class="st10" d="m264.9 194.1.6 9.5s.9 55.8-.5 61.9c-1.4 6.5-14.6 5.8-14.5 5.8l-18.3-33 8.1-110.4 5.7 1.6 20.4 7.3-1.5 57.3z"/><path class="st7" d="m239.1 429.1-1.2 22.4s22.4 8.8 22.5 12.9l-43.5-.8.5-35 21.7.5z"/><path class="st0" d="M224.5 449.4c-.8.2-1.4 1.2-1.3 2 .2.9 1.1 1.5 2 1.3.9-.2 1.6-1.3 1.3-2.1-.3-.8-1.4-1.5-2.2-1.1"/><path class="st8" d="m216.9 463.6.2-3.5 41.7 2.1s1.9.9 1.7 2.2l-43.6-.8z"/><path class="st1" d="M238.6 451.3c0 .2-1.1.3-2.1 1-1.1.6-1.6 1.5-1.8 1.5-.2 0 .1-1.3 1.4-2.1 1.3-.9 2.6-.6 2.5-.4zM243.1 453.3c0 .2-.9.6-1.6 1.4-.8.9-1 1.8-1.2 1.8-.2 0-.3-1.2.6-2.3 1-1.1 2.2-1.1 2.2-.9zM245.6 458.8c-.2 0-.5-1 .1-2.2.6-1.2 1.6-1.6 1.7-1.4.1.2-.5.8-1 1.7-.5 1-.6 1.9-.8 1.9zM238.3 446.2c-.1.2-1.1-.1-2.3-.1-1.2 0-2.1.4-2.3.2-.1-.2.8-.9 2.2-1 1.6 0 2.5.7 2.4.9z"/><path class="st7" d="m186.4 426.9-2.4 27 4.3 21.9c.3 1.6-.8 3.1-2.4 3.3-.9.1-1.8-.2-2.4-.9-3.9-4.2-18.1-19.9-17.8-21.8.3-2.3.6-28.7.6-28.7l20.1-.8z"/><path class="st8" d="m186 479.2-20-24.6-.1 1.1c-.1 1 .2 2 .8 2.8 1.6 2.1 6.1 7.9 16.8 19.7.7.8 1.6 1.1 2.5 1z"/><g class="st13"><path class="st1" d="M172.1 446.3c.6.5.8 1.6.3 2.2-.5.7-1.5.8-2.2.3-.7-.5-.9-1.7-.3-2.4.6-.6 1.8-.7 2.3-.1"/></g><path class="st1" d="M180.6 466.9c.1.1.9-1.3 2.5-2s3.1-.2 3.2-.4c0-.1-.3-.3-.9-.4-.6-.1-1.5-.1-2.5.3-.9.4-1.6 1-1.9 1.5-.4.6-.5 1-.4 1zM182.3 470.7c.1.1 1-.7 2.5-1 1.4-.3 2.6 0 2.7-.2.1-.1-1.2-.8-2.8-.4-1.7.4-2.6 1.5-2.4 1.6zM177.3 462c.1.1 1.5-1.1 3.7-1.8s4.1-.5 4.1-.7c.1-.1-1.9-.6-4.3.1-2.3.8-3.6 2.4-3.5 2.4zM177.3 453.8c.1.2 1.6-.4 3.5-.3 2 0 3.5.6 3.5.5.1-.1-1.4-1-3.5-1.1-2-.1-3.6.7-3.5.9zM177.8 445.8c.1.2 1.6-.6 3.7-.4 2.1.2 3.4 1.3 3.5 1.1 0-.1-.2-.4-.8-.8-.6-.4-1.5-.8-2.6-.9-1.1-.1-2.1.1-2.8.4-.7.3-1 .6-1 .6zM181.5 443.9s.1-.4.1-1c0-.7-.1-1.6-.6-2.7-.3-.5-.5-1.2-1.3-1.6-.4-.2-.9-.2-1.3.2-.3.3-.5.8-.5 1.2-.1 1.7 1.3 3.5 3.2 3.8 1.9.3 3.8-.7 4.6-2.1.2-.4.3-.8.2-1.3-.2-.5-.7-.7-1.1-.7-.8.1-1.3.5-1.8.8-1 .7-1.6 1.4-2 2-.4.5-.5.9-.5.9.1.1.8-1.3 2.7-2.5.5-.3 1-.7 1.6-.7.3 0 .5.1.6.4.1.2 0 .6-.2.9-.7 1.2-2.4 2.1-4 1.8-1.6-.3-2.8-1.8-2.8-3.2 0-.3.1-.7.3-.8.2-.2.5-.2.7-.1.5.2.8.8 1.1 1.3 1.1 1.9.9 3.4 1 3.4z"/><path class="st7" d="M255.5 235.8s4.6 16.1 3.4 31.6C258.4 273.5 242 442 242 442h-27.4l7.7-156.6-2.2.5s-15 66.8-16.2 77.6c-1.1 9.7-13.7 80.3-13.7 80.3l-25.1.3 8-93.4 9.3-89.6 3.5-26.1 69.6.8z"/><path class="st7" d="M217.9 269.4s.4.3 1.1.6c.8.4 1.9.9 3.4 1.2.8.1 1.6.2 2.5 0 .9-.2 1.9-.5 2.6-1.3.8-.7 1.3-1.7 1.6-2.8.3-1.1.5-2.2.7-3.3.9-4.5 1.5-8.6 1.8-11.6.2-1.5.3-2.7.4-3.6.1-.8.1-1.3 0-1.3 0 0-.1.5-.3 1.3-.1 1-.3 2.1-.5 3.5-.4 3-1.1 7.1-2 11.6-.4 2.2-.7 4.5-2.1 5.8-1.4 1.3-3.3 1.4-4.7 1.2-1.5-.2-2.6-.7-3.4-1-.6-.2-1-.3-1.1-.3zM226.2 248.2s-.2-.1-.6-.2c-.4 0-1 .1-1.5.5s-1.1 1.1-1.2 2.1c0 1 .7 2 1.8 2.4 1 .4 2.2.2 2.9-.6.6-.8.7-1.7.5-2.4-.2-.7-.5-1.2-.8-1.4-.3-.2-.5-.3-.5-.2-.1.1.8.5 1 1.7.1.6 0 1.4-.5 1.9-.5.6-1.4.7-2.3.4-.8-.3-1.4-1.1-1.4-1.8 0-.8.4-1.4.9-1.8.8-.8 1.7-.5 1.7-.6zM182.7 259.5s.3.1.9.1c.6.1 1.5.1 2.6 0 2.2-.1 5.2-.6 8.3-1.9 3.1-1.3 5.6-3.1 7.1-4.6.8-.7 1.4-1.4 1.8-1.9.4-.5.6-.7.5-.8-.1-.1-1 .9-2.6 2.3s-4.1 3.1-7.1 4.3c-3 1.3-5.9 1.8-8.1 2-2 .4-3.4.4-3.4.5z"/><path class="st10" d="M258.9 210.3c.4-1.3 16.8-26.8 16.8-26.8l-14.1-14.8-2.8-34.1s8.8 2.7 9.5 3.4c3.2 3.1 25.8 37.5 27.4 40.1 2.6 4.1-.5 12.1-2 14.6-1.5 2.6-18.1 27.3-18.1 27.3l-16.7-9.7z"/><path class="st3" d="M204.6 241.5s15 5.9 27.6 5.9c26.7 0 23.9-8.8 23.9-8.8l-3.9-57-10.1-49.6-2.2-5.3-1.6-.8-26.2-1.4-2.2 7.9-5.3 109.1z"/><path class="st10" d="m210.7 126.9-6.3 4-20.4 8.7 2.5 69.3-17.6 65.9s28.5 11.4 35.2 7 15.3-29.4 17.5-41.5c3.9-21.7 3.7-42.1-.6-63.8-4.3-21.7-7.5-35.4-7.5-35.4l-2.8-14.2z"/><path class="st3" d="m229.4 144.3-8.9 8.4s-5.5-6.8-6.6-10.3"/><path class="st7" d="M213.9 142.4c.1 0 .5 1.3 1.7 3.1 1.2 1.9 3 4.3 5.1 7h-.4c2.5-2.3 4.7-4.4 6.3-5.9 1.6-1.5 2.7-2.4 2.7-2.3 0 .1-.9 1-2.5 2.6-1.6 1.5-3.8 3.7-6.2 6l-.2.2-.2-.2c-2.1-2.6-3.9-5.2-5-7.1-.6-1-1-1.8-1.2-2.4-.1-.7-.1-1-.1-1z"/><path class="st10" d="m232.7 142.4-3.3 1.9-5.4 5.3 3.2 3.9 4.9.4 3.7-9z"/><path class="st10" d="M227.4 153.4s.4 39.4.8 49c.5 11.4.7 42.5.7 42.5l8.5 6.4 5.7-10.4s-3.3-21.2-3.6-30.2c-.4-9-6.9-56.9-6.9-56.9l-5.2-.4z"/><path class="st3" d="M229.4 144.3s2.6-1.4 3.4-1.9c2.9 1.9 6 4.8 7.9 7.7 1.6-5.9 3.6-12.9.5-20.9"/><path class="st7" d="M241.1 129.2s.2.5.6 1.3c.2.4.3 1 .5 1.6.1.6.3 1.4.5 2.2.3 1.6.4 3.6.3 5.8-.1 2.2-.6 4.6-1.2 7-.3 1.1-.6 2.1-.8 3.1l-.1.5-.3-.5c-2.5-3.7-5.6-6.2-7.8-7.7h.2c-1 .5-1.9 1-2.5 1.3-.6.3-.9.5-.9.4 0 0 .3-.2.8-.6.6-.4 1.4-.9 2.4-1.5l.1-.1.1.1c2.2 1.4 5.4 3.9 8 7.7l-.5.1c.3-1 .6-2 .8-3.1.6-2.4 1.1-4.8 1.2-6.9.2-2.1.1-4.1-.1-5.7-.6-3.1-1.4-5-1.3-5z"/><path class="st14" d="M262.2 212.2s-4.3 1.7-7.7 2.4c0 0 .2 3.9-.8 5-1 1.2-10.7 10-10.5 11.6.2 1.3.8 1.5 3.3.1 2.5-1.5 5.5-5.1 7.1-5 1.6.1-5.2 9.2-5.1 11.9.1 2 2 2.1 2 2.1s.6 2.3 2.5 1.6c1.9-.7 9.9-12.9 9.3-11.3s-2 4.8-2.8 6.1c-.7 1.3-4.5 5.2-2.8 5.9 1.7.7 2.7-.7 4.2-2.3 1.5-1.6 7-9.8 7.3-9.9.3-.1 4.5-5.5 6.3-11.1l-12.3-7.1z"/><path class="st15" d="M258.8 228.9c.1.1-1.8 2.6-4.1 5.7s-4.1 5.7-4.2 5.7c-.1-.1 1.5-2.8 3.8-6s4.4-5.5 4.5-5.4z"/><path class="st14" d="M202.7 260.2s-1 3.7-1.2 9.4c-.2 5.3 3.6 4.5 3.6 4.5 0 1.6 1.6 4.7 3.1 5.8.5.4-.3 7.8 1.2 8.8s3.2 1.1 3.2-1.6.2-8.2 1.2-10.5c.9-2.3 2-2 2-2s-2.2 16.3-.8 17.3c1.4 1 2.9 1.2 3.6-1.4.7-2.6 1.6-13.3 2.6-15.6.9-2.3.1-2.6 1-2.8.9-.2 3.2 6.1 7.3 7.3 4 1.2 4-1.7 3.2-3-.8-1.2-3.7-4-4-6.2-.3-2.3-.2-2.8-1.6-4.9-1.4-2-6.6-8.8-7.3-10.1-.7-1.2-2.1-4-2.1-4l-16 5.7 1 3.3z"/><path class="st15" d="M209.8 272.2c.1 0-.4 2.1-.8 4.6-.4 2.5-.5 4.6-.7 4.6-.1 0-.3-2.1.2-4.7.4-2.6 1.2-4.6 1.3-4.5zM205.4 269.1c.1 0 .2 1.1.1 2.5s-.2 2.5-.4 2.5c-.1 0-.2-1.1-.1-2.5s.3-2.5.4-2.5z"/><path class="st10" d="M184.3 139.4s-10.3 5.7-9.8 19.8c.3 7.9 0 53.6 1.2 56.6s21.1 43.4 21.1 43.4l21.9-7.8-20-42.7-.6-43.7"/><path class="st7" d="M198.1 165.1v.8c0 .5 0 1.3.1 2.3 0 2 .1 5 .2 8.7.1 7.6.3 18.5.5 31.9v-.1c5.7 12.1 12.5 26.7 20 42.7l.1.3-.3.1c-7.1 2.5-14.4 5.1-21.9 7.8l-.2.1-.1-.2c-.9-1.8-1.9-3.8-2.8-5.8-3.7-7.5-7.2-14.8-10.7-21.8-1.7-3.5-3.4-7-5-10.4l-2.4-5.1c-.2-.4-.3-.9-.4-1.4-.1-.5-.1-.9-.1-1.4-.1-.9-.1-1.8-.2-2.7-.3-7.2-.4-14.1-.4-20.5s-.1-12.4-.1-17.8c0-5.5-.1-10.4-.1-14.7 0-4.4 1.4-7.5 2.7-10.3 1.3-2.8 3.2-4.6 4.3-5.7.6-.6 2.1-1.6 2.5-1.9.3-.3.5-.4.5-.4s-.2.1-.5.4c-.3.3-1.9 1.3-2.4 1.9-1.1 1.2-3 3-4.2 5.8-1.2 2.8-2.6 5.9-2.6 10.2.1 4.3.1 9.3.2 14.7 0 5.5.1 11.4.2 17.8s.1 13.3.5 20.5c.1.9.1 1.8.2 2.7 0 .4.1.9.1 1.4.1.4.1.9.3 1.3.7 1.7 1.6 3.4 2.4 5.1 1.6 3.4 3.3 6.9 5 10.4 3.4 7.1 7 14.4 10.7 21.8 1 2 1.9 3.9 2.8 5.8l-.3-.1c7.5-2.7 14.9-5.3 21.9-7.8l-.1.3c-7.5-16-14.3-30.6-19.9-42.7-.1-13.4-.3-24.3-.4-31.9 0-3.8-.1-6.7-.1-8.7v-3.4zM265 145c.1 0 .3 12.2.4 27.2.1 15 0 27.2-.2 27.2-.1 0-.3-12.2-.4-27.2 0-15 .1-27.2.2-27.2zM275.6 219.9s-.1 0-.3-.1c-.3-.1-.6-.3-.9-.5-.9-.5-2-1.1-3.5-1.9-3-1.7-7.2-4.1-12.1-6.8l-.2-.1.1-.2c1.8-2.9 3.8-6.1 5.9-9.5 4.2-6.7 8.1-12.8 10.9-17.3v-.1h.1c3-1 5.6-.8 7.3-.4.9.2 1.5.3 1.9.5.4.1.7.2.7.2s-.2 0-.7-.1c-.4-.1-1.1-.2-1.9-.4-1.7-.3-4.2-.4-7.1.6l.1-.1c-2.9 4.6-6.7 10.7-10.8 17.4-2.1 3.3-4.1 6.5-5.9 9.5l-.1-.3c4.8 2.8 9 5.3 12 7 1.4.9 2.6 1.5 3.4 2 .4.2.7.4.9.6.1-.1.2 0 .2 0zM223.5 211.5s-.1-.3-.3-.8c-.2-.6-.4-1.3-.7-2.3-.6-2-1.4-4.9-2.5-8.3-2.1-7.1-4.9-16.8-8-27.6-3.1-10.8-5.7-20.6-6.7-27.9-.6-3.6-.8-6.6-1-8.7-.1-1-.1-1.8-.1-2.4v-.8s.1.3.1.8c.1.5.1 1.3.2 2.4.2 2 .5 5 1.1 8.6 1.1 7.3 3.7 17.1 6.8 27.8 3.1 10.8 5.8 20.5 7.9 27.6 1 3.5 1.8 6.4 2.3 8.4.3 1 .5 1.7.6 2.3.3.6.3.9.3.9zM246.1 129.6s.1.2.2.6c.1.5.3 1.1.5 1.8.5 1.6 1.1 3.8 1.8 6.7 1.4 5.7 3.2 13.5 4.3 22.4.6 4.4.9 8.6 1.1 12.5.1 3.9.2 7.3 0 10.2 0 1.5-.2 2.8-.2 3.9-.1 1.2-.2 2.1-.3 3-.1.8-.2 1.4-.2 1.9-.1.4-.1.6-.1.6v-.7c0-.5.1-1.1.1-1.9.1-.8.1-1.8.2-3s.1-2.5.2-3.9c.1-2.9 0-6.4-.1-10.2-.2-3.8-.6-8.1-1.1-12.5-1.2-8.8-2.8-16.7-4.2-22.3-.7-2.8-1.2-5.1-1.6-6.7-.2-.7-.3-1.4-.4-1.8-.1-.4-.2-.6-.2-.6z"/><path class="st7" d="M192.6 152.8c-.2 0-.3-2.3-2-4.5-1.6-2.3-3.8-3.2-3.7-3.3 0-.1.6.1 1.4.5.8.5 1.9 1.3 2.7 2.5.8 1.2 1.3 2.4 1.5 3.3.2.9.1 1.5.1 1.5zM221 63.6c.9-1.9 3.1-3 5.1-2.6 2.3-1.9 6.1-1.9 8.4 0 1.8-1.1 4.1-1.2 6-.2 1.9 1 3.1 2.9 3.3 5 2.1-.4 4.3.7 5.4 2.6 1 1.9.7 4.3-.7 5.9 2.3.7 3.8 3.3 3.4 5.6-.5 2.3-2.9 4.1-5.2 3.9L222 69.3c-1.5-1.4-2-3.8-1-5.7z"/><path class="st14" d="M247.3 84.4c-1.1-10.7-10.2-18.8-21-18.6h-1.1c-11.5.9-17.2 11.2-16 22.7l3.2 39.2.2.4 16.6 16 3.6-1.8 5.8-9.6-.2-8.8s11.1-2 11-13.1c-.1-5.3-1.1-16.4-2.1-26.4z"/><path class="st16" d="M238.3 123.9s-7 .5-14.5-4c0 0 3.7 8 14.6 6.8l-.1-2.8z"/><path class="st7" d="M243.3 95.9c0 .8-.6 1.6-1.5 1.6-.9.1-1.6-.6-1.7-1.4 0-.8.6-1.6 1.5-1.6s1.7.6 1.7 1.4zM245.1 90.5c-.2.2-1.4-.7-3.1-.6-1.7 0-2.9.9-3.1.7-.1-.1.1-.5.6-.9s1.4-.8 2.5-.8 2 .4 2.5.7c.5.4.7.8.6.9zM228.4 96.4c0 .8-.6 1.6-1.5 1.6-.9.1-1.6-.6-1.7-1.4 0-.8.6-1.6 1.5-1.6.9-.1 1.7.5 1.7 1.4zM228.8 90.6c-.2.2-1.4-.7-3.1-.6-1.7 0-2.9.9-3.1.7-.1-.1.1-.5.6-.9s1.4-.8 2.5-.8 2 .4 2.5.7c.5.4.7.8.6.9zM234.7 103.1c0-.1 1-.3 2.8-.6.4-.1.8-.1.9-.4.1-.3-.1-.8-.3-1.3-.4-1-.9-2.1-1.4-3.3-1.9-4.7-3.3-8.6-3.1-8.6.2-.1 1.9 3.7 3.8 8.4.5 1.2.9 2.3 1.3 3.3.2.5.5 1 .3 1.7-.1.3-.4.6-.7.7-.3.1-.5.1-.7.1-1.9.1-2.9.1-2.9 0zM228.7 85.7c-.2.4-1.7.1-3.5.1s-3.3.5-3.5 0c-.1-.2.2-.6.8-1 .6-.4 1.6-.7 2.6-.8 1.1 0 2 .3 2.6.6.8.5 1.1.9 1 1.1zM244.6 85.8c-.3.4-1.5.1-2.9.3-1.4.1-2.6.5-2.9.2-.1-.2 0-.6.5-1s1.3-.8 2.3-.9c1-.1 1.8.2 2.4.5.5.3.7.7.6.9z"/><path class="st7" d="M246.1 79.4s-3.1-6.9-6.5-8.5c-4.1-1.9-5.8 2.6-9.7 1.6-3.9-1-7.8-2.8-11.7.3-4.3 3.4-2.2 5.6-2.4 10.6-.7 20-4.2 25.7-5.4 16.3-.1-1-3-1.8-3.5-6.1-.7-5.6-1-12.5.2-16.5 1-3.4 2.9-5.8 6.3-8.4 5.4-4.2 12.9-4.4 18-4 5 .3 15 5.9 14.7 14.7z"/><path class="st14" d="M211.2 99.4c-.1-1.7-1.6-3-3.3-2.8-2.1.2-4.4 1.5-4.1 5.7.4 7.6 7.9 5.6 7.9 5.4 0-.2-.3-5.2-.5-8.3z"/><path class="st16" d="M209.9 104.9s-.1.1-.3.2c-.2.1-.6.2-1 .1-.8-.3-1.6-1.5-1.7-2.9-.1-.7.1-1.4.3-1.9.2-.6.5-1 .9-1.1.4-.1.7.1.8.3.1.2.1.4.1.4s.2-.1.1-.4c0-.1-.1-.3-.3-.5-.2-.1-.5-.2-.7-.2-.6.1-1.1.6-1.3 1.2-.3.6-.4 1.4-.3 2.1.1 1.5 1 2.9 2.1 3.2.5.1 1-.1 1.2-.3.1 0 .1-.2.1-.2z"/><path class="st7" d="M211 84.6c1 .7 2.1 1.3 3.2 1.4 1.2.1 2.5-.6 2.7-1.8.1-.5-.1-1.1.3-1.6s1.2-.4 1.8-.3c2.2.2 4.4-1.4 5-3.6.6.8 1.9.8 2.7.2.8-.6 1.4-1.5 2-2.3.7-.8 1.6-1.5 2.6-1.4.6.1 1.1.4 1.7.3 1-.1 1.5-1.3 1.6-2.3.1-1 .2-2.2 1.1-2.7.8-.5 1.8-.2 2.7-.1.9.1 2.1-.1 2.3-1 .1-.5-.1-1-.4-1.4-1.2-1.8-3.8-2.6-5.8-1.7-.8-2.5-3.2-4.4-5.8-4.6-2.6-.2-5.3 1.3-6.5 3.6-1.6-1.4-4-2-6.1-1.5-2.1.5-3.9 2.1-4.7 4.2-1.9-.4-3.9.3-5.1 1.8-1.1 1.5-1.3 3.8-.3 5.4-1.3.8-2.5 2.2-2.5 3.8 0 1.6 1.6 3.1 3.1 2.7-.6 1.2-.1 2.9 1.1 3.5 1.2.7 2.9.2 3.6-.9"/><path class="st16" d="M230.5 105.9c-.2-.1-.3-.2-.5-.1-.1.1-.2.2-.3.4-.5 1.2-.3 2.6.4 3.7 1.1 1.5 3.5 1.2 4.3-.6l.6-1.3c-1-.4-3.5-1.6-4.5-2.1z"/><path class="st7" d="M234 110c.1 0-.5.8-1.9.9-.3 0-.8 0-1.1-.2-.4-.1-.8-.4-1.1-.8-.6-.8-.8-1.8-.8-2.8 0-.3 0-.5.1-.8.1-.3.1-.6.5-.8.3-.2.7-.1.9 0l.6.3c.7.4 1.4.7 2 1 1.1.6 1.8 1 1.8 1.1 0 .1-.8-.2-1.9-.8-.6-.3-1.3-.6-2.1-.9-.4-.2-.9-.5-1-.3-.2.1-.3.7-.3 1.1 0 .9.2 1.9.6 2.5.2.3.5.5.9.7.3.2.6.2.9.2 1.3.1 1.9-.5 1.9-.4z"/><path class="st8" d="M206.1 81.8s-.1.6.5 1.5c.3.4.8.8 1.5.9.7.1 1.5-.1 2.2-.7h-.3c.4.6.9 1.3 1.6 1.9.4.4.9.7 1.4.8.5.2 1.1.2 1.5.1 1-.1 1.8-.7 2.2-1.3.4-.6.5-1.2.6-1.6.1-.4.1-.6 0-.6 0 0-.1.2-.2.6-.1.4-.3.9-.7 1.5-.7 1.1-3 1.7-4.6.2-.6-.5-1.1-1.1-1.5-1.7l-.1-.2-.2.2c-.5.5-1.2.7-1.8.6-.6-.1-1.1-.4-1.4-.7-.6-.9-.6-1.5-.7-1.5zM220.1 64.1s.2 0 .5.2c.3.1.8.4 1.2 1l.1.1.1-.1c.7-1 1.9-2.2 3.6-3 .9-.4 1.9-.7 3-.7s2.2.3 3.2.9c.8.5 1.5 1.1 2 1.8s.8 1.5.9 2.3v.2l.2-.1c1.1-.3 2.3-.1 3.2.3.9.5 1.4 1.2 1.8 1.8.6 1.3.4 2.3.5 2.2 0 0 .1-.2.1-.6 0-.4-.1-1-.4-1.7-.3-.7-.9-1.5-1.8-2s-2.2-.8-3.4-.4l.3.2c-.1-.8-.4-1.7-.9-2.5s-1.2-1.4-2.1-1.9c-1.1-.6-2.3-.9-3.5-.9-1.2 0-2.2.4-3.1.8-1.8.9-3 2.2-3.6 3.3h.2c-.4-.6-1-.9-1.4-1-.5-.2-.7-.2-.7-.2z"/></g><g id="Table"><path class="st0" d="M203.8 293.6h60.6v1.5h-60.6zM303 293.6h60.6v1.5H303z"/><path class="st7" d="M363.6 295.1v-1.5l.1.1c-6 .1-30.9.2-60.6.2l.3-.3v1.4l-.3-.3c16.8 0 31.8.1 42.8.1 5.5 0 9.9.1 13 .1h4.4c.1.2.2.2.3.2h-4.7c-3.1 0-7.5 0-12.9.1-11 0-26.2.1-43 .1h-.3v-1.6l.3-.3c29.7 0 54.5.1 60.6.2h.1v1.3c-.1.1-.1.2-.1.2z"/><path class="st4" d="M539 265h10.7v7.6H539z"/><path class="st10" d="M493.6 264.7h45.5v8.2h-45.5z"/><path class="st10" d="M538.8 265.2h11.5c.2 0 .3-.1.3-.3 0-.2-.1-.3-.3-.3h-11.5v.6zM538.8 272.9h11.5c.2 0 .3-.1.3-.3 0-.2-.1-.3-.3-.3h-11.5v.6z"/><path class="st0" d="M549.7 266.4s-2.4.1-5.3.1-5.3 0-5.3-.1c0 0 2.4-.1 5.3-.1 3 0 5.3.1 5.3.1zM549.7 267.9s-2.4.1-5.3.1-5.3 0-5.3-.1 2.4-.1 5.3-.1c3 0 5.3 0 5.3.1zM549.7 269.3s-2.4.1-5.3.1-5.3 0-5.3-.1c0 0 2.4-.1 5.3-.1 3 0 5.3.1 5.3.1zM549.7 270.7s-2.4.1-5.3.1-5.3 0-5.3-.1c0 0 2.4-.1 5.3-.1 3 .1 5.3.1 5.3.1z"/><path class="st3" d="M540.5 273.6h10.9v20.7h-10.9z"/><path class="st8" d="M489.2 272.9h51.3v22.4h-51.3z"/><path class="st8" d="M552.2 295.3H539v-1.5h13.2c.4 0 .7.3.7.7.1.5-.3.8-.7.8zM552.2 274.3H539v-1.5h13.2c.4 0 .7.3.7.7.1.5-.3.8-.7.8z"/><path class="st0" d="M551.4 276.4s-2.4.1-5.5.1c-3 0-5.5 0-5.5-.1s2.4-.1 5.5-.1c3 0 5.5 0 5.5.1zM551.4 279s-2.4.1-5.5.1c-3 0-5.5 0-5.5-.1 0 0 2.4-.1 5.5-.1 3 .1 5.5.1 5.5.1zM551.4 281.7s-2.4.1-5.5.1c-3 0-5.5 0-5.5-.1 0 0 2.4-.1 5.5-.1 3 0 5.5 0 5.5.1zM551.4 284.3s-2.4.1-5.5.1c-3 0-5.5 0-5.5-.1 0 0 2.4-.1 5.5-.1 3 .1 5.5.1 5.5.1zM551.4 287s-2.4.1-5.5.1c-3 0-5.5 0-5.5-.1s2.4-.1 5.5-.1c3 0 5.5.1 5.5.1zM551.4 289.6s-2.4.1-5.5.1c-3 0-5.5 0-5.5-.1s2.4-.1 5.5-.1c3 .1 5.5.1 5.5.1zM551.4 292.3s-2.4.1-5.5.1c-3 0-5.5 0-5.5-.1 0 0 2.4-.1 5.5-.1 3 0 5.5.1 5.5.1z"/><path class="st1" d="M504.3 289c.3 0 .6-.1.7-.1.2-.1.4-.4.4-.7v-5.7c0-.3-.1-.6-.3-.7-.1-.1-.4-.1-.7-.1v-.3h4.1v.3c-.5 0-.8.1-1 .2-.2.1-.2.4-.2.9v5.6c0 .3.1.4.2.5.1.1.4.1.8.1.7 0 1.3-.2 1.8-.5s.9-.9 1.2-1.8h.3l-.5 2.7h-6.8v-.4zM512.1 289c.3 0 .5-.1.7-.4.1-.1.3-.5.5-1l2.6-6.5h.3l2.6 6.2c.3.7.5 1.1.7 1.3.1.2.4.3.6.3v.3h-3.8v-.2c.4 0 .6 0 .8-.1.1 0 .2-.2.2-.4 0-.1 0-.2-.1-.4 0-.1-.1-.2-.2-.4l-.3-.7H514c-.2.5-.3.8-.3.9-.1.3-.2.5-.2.7 0 .2.1.3.3.4.1 0 .3.1.6.1v.3H512v-.4zm4.5-2.5-1.1-2.7h-.1l-1.1 2.7h2.3zM522.8 281.3v.3c-.3 0-.5.1-.6.1-.1.1-.2.2-.2.4v.2c0 .1 0 .1.1.2l1.4 4.1 1.3-3.5s0-.2-.2-.5c-.1-.3-.2-.5-.2-.6l-.3-.3c-.1-.1-.3-.1-.6-.1v-.3h3.7v.3c-.3 0-.6.1-.7.1-.1 0-.2.2-.2.3v.2c0 .1.1.3.1.5l1.4 3.8 1.3-3.9c0-.1 0-.1.1-.2v-.3c0-.2-.1-.4-.2-.4s-.3-.1-.6-.1v-.3h2.2v.3c-.2 0-.3.1-.4.1-.2.1-.3.3-.4.6l-2.4 7.1h-.3l-2-5.5h-.1l-2.2 5.5h-.3l-2.5-7.1c-.1-.3-.2-.5-.3-.6-.1-.1-.3-.1-.5-.2v-.3h3.6z"/><path class="st7" d="M506 266.6c.2.1.4.1.4.1h.2c.1 0 .1-.1.1-.2h.1l.1 1.4h-.1c-.1-.3-.2-.5-.3-.7-.3-.3-.6-.5-1-.5s-.8.2-1.1.5c-.3.3-.4.8-.4 1.4 0 .6.1 1 .4 1.3.3.3.7.5 1.1.5.3 0 .6-.1.9-.2.2-.1.3-.2.5-.4l.1.1c-.1.2-.3.3-.5.5-.3.2-.7.3-1.1.3-.7 0-1.2-.2-1.6-.6-.4-.4-.5-.9-.5-1.5s.2-1.1.6-1.5c.4-.4.9-.6 1.6-.6 0 0 .2 0 .5.1zM507.7 268.2c.3-.3.6-.4 1-.4s.7.1 1 .4c.3.3.4.6.4 1.1 0 .4-.1.8-.4 1.1-.3.3-.6.4-1 .4s-.7-.1-1-.4c-.3-.3-.4-.6-.4-1.1 0-.4.1-.8.4-1.1zm.5 0c-.2.2-.3.5-.3 1 0 .4.1.7.2 1 .2.3.4.5.7.5.2 0 .4-.1.5-.3.1-.2.2-.5.2-.8 0-.4-.1-.7-.2-1-.2-.3-.4-.5-.7-.5-.2-.1-.3 0-.4.1zM510.4 270.6c.1 0 .2-.1.3-.1.1-.1.1-.2.1-.4v-1.8c0-.1-.1-.1-.2-.1h-.2v-.1c.1 0 .3-.1.6-.2l.3-.1v.4l.4-.4c.2-.1.3-.1.5-.1.1 0 .3 0 .4.1.2.2.3.4.3.8v1.4c0 .1 0 .3.1.3.1.1.2.1.3.1v.1H512v-.1c.1 0 .3-.1.3-.1.1-.1.1-.2.1-.4v-1.3c0-.2 0-.3-.1-.4-.1-.1-.2-.2-.4-.2-.1 0-.2 0-.4.1-.1 0-.2.1-.3.2v1.7c0 .1 0 .2.1.3.1 0 .2.1.3.1v.1l-1.2.1zM513.7 269.7h.1c0 .2.1.4.2.5.1.2.3.3.6.3.2 0 .3 0 .4-.1.1-.1.1-.2.1-.3 0-.1 0-.2-.1-.2-.1-.1-.1-.2-.3-.2l-.3-.2c-.2-.1-.4-.3-.6-.4-.1-.1-.2-.3-.2-.5s.1-.4.2-.6c.2-.1.4-.2.6-.2.1 0 .2 0 .4.1.1 0 .2.1.2.1h.2v.8h-.1c0-.2-.1-.3-.2-.5s-.3-.3-.5-.3c-.1 0-.3 0-.3.1-.1.1-.1.2-.1.3 0 .2.1.4.4.5l.4.2c.4.2.6.5.6.8 0 .2-.1.4-.3.6-.2.2-.4.2-.7.2-.1 0-.3 0-.4-.1-.2 0-.2-.1-.3-.1h-.1v.1h-.1v-.9zM517.4 267.9v.2h-.6v2.1c0 .1.1.2.3.2.1 0 .1 0 .2-.1.1 0 .1-.1.2-.2l.1.1-.1.1-.3.3c-.1.1-.2.1-.3.1-.2 0-.4-.1-.5-.3 0-.1-.1-.3-.1-.5v-1.8h-.3l.1-.1.3-.3c.1-.1.2-.3.4-.6v.7h.6zM517.6 270.6c.2 0 .4-.1.4-.1.1-.1.1-.2.1-.4v-1.8c0-.1-.1-.1-.2-.1H517.6v-.1h.1c.4-.1.6-.2.7-.3h.1v2.2c0 .2 0 .4.1.4.1.1.2.1.4.1v.1h-1.4zm.5-4.1c.1-.1.1-.1.2-.1s.2 0 .2.1c.1.1.1.1.1.2s0 .2-.1.2c-.1.1-.1.1-.2.1s-.2 0-.2-.1c-.1-.1-.1-.1-.1-.2 0 0 .1-.1.1-.2zM520.8 267.9v.2h-.6v2.1c0 .1.1.2.3.2.1 0 .1 0 .2-.1.1 0 .1-.1.2-.2l.1.1-.1.1-.3.3c-.1.1-.2.1-.3.1-.2 0-.4-.1-.5-.3 0-.1-.1-.3-.1-.5v-1.8h-.3l.1-.1.3-.3c.1-.1.2-.3.4-.6v.7h.6zM521.9 267.9v1.9c0 .1 0 .2.1.3.1.2.2.2.4.2.1 0 .3 0 .4-.1.1-.1.2-.1.2-.2v-1.7c0-.2 0-.3-.1-.3s-.2-.1-.4-.1v-.1h1v2.1c0 .1 0 .2.1.3 0 .1.2.1.3.1v.1c-.1 0-.2.1-.2.1-.1 0-.1 0-.3.1-.1 0-.2.1-.3.1v-.5c-.1.2-.3.3-.4.4-.2.1-.4.2-.5.2-.2 0-.3-.1-.5-.2s-.2-.3-.2-.6v-1.6c0-.2 0-.3-.1-.3 0 0-.1-.1-.3-.1v-.1h.8zM525.7 267.9v.2h-.6v2.1c0 .1.1.2.3.2.1 0 .1 0 .2-.1.1 0 .1-.1.2-.2l.1.1-.1.1-.3.3c-.1.1-.2.1-.3.1-.2 0-.4-.1-.5-.3 0-.1-.1-.3-.1-.5v-1.8h-.3l.1-.1.3-.3c.1-.1.2-.3.4-.6v.7h.6z"/><path class="st7" d="M525.9 270.6c.2 0 .4-.1.4-.1.1-.1.1-.2.1-.4v-1.8c0-.1-.1-.1-.2-.1H525.9v-.1h.1c.4-.1.6-.2.7-.3h.1v2.2c0 .2 0 .4.1.4.1.1.2.1.4.1v.1h-1.4zm.5-4.1c.1-.1.1-.1.2-.1s.2 0 .2.1c.1.1.1.1.1.2s0 .2-.1.2c-.1.1-.1.1-.2.1s-.2 0-.2-.1c-.1-.1-.1-.1-.1-.2 0 0 .1-.1.1-.2zM528.1 268.2c.3-.3.6-.4 1-.4s.7.1 1 .4c.3.3.4.6.4 1.1 0 .4-.1.8-.4 1.1-.3.3-.6.4-1 .4s-.7-.1-1-.4c-.3-.3-.4-.6-.4-1.1 0-.4.1-.8.4-1.1zm.5 0c-.2.2-.3.5-.3 1 0 .4.1.7.2 1 .2.3.4.5.7.5.2 0 .4-.1.5-.3.1-.2.2-.5.2-.8 0-.4-.1-.7-.2-1-.2-.3-.4-.5-.7-.5-.2-.1-.3 0-.4.1zM530.8 270.6c.1 0 .2-.1.3-.1.1-.1.1-.2.1-.4v-1.8c0-.1-.1-.1-.2-.1h-.2v-.1c.1 0 .3-.1.6-.2l.3-.1v.4l.4-.4c.2-.1.3-.1.5-.1.1 0 .3 0 .4.1.2.2.3.4.3.8v1.4c0 .1 0 .3.1.3.1.1.2.1.3.1v.1h-1.3v-.1c.1 0 .3-.1.3-.1.1-.1.1-.2.1-.4v-1.3c0-.2 0-.3-.1-.4-.1-.1-.2-.2-.4-.2-.1 0-.2 0-.4.1-.1 0-.2.1-.3.2v1.7c0 .1 0 .2.1.3.1 0 .2.1.3.1v.1l-1.2.1zM429.7 295.5l-3.1-10.1h48.1l5.6 10.1z"/><path class="st8" d="m426.6 285.4-5.3 10.1h8.4z"/><path class="st1" d="M436.8 289.1h.9l2.2 3.4h2.1l.5.8h-3l-2.7-4.2zM445.2 292.3h-1.9l.2.9h-1l-.9-4.1h.9l4.6 4.1h-1l-.9-.9zm-.8-.7-1.7-1.6.4 1.6h1.3zM450.7 289.1l1.6 4.1h-1l-2.9-2.8 1 2.8h-1l-4.2-4.1h1l2.9 2.9-1-2.9h.9l3 2.9-1.1-2.9h.8zM454.4 289.9l.8 1.1h1.9l.6.8h-1.9l1.1 1.5h-1l-3-4.1h3.1l.6.8h-2.2zM456.6 289.1h.9l3.1 4.1h-1l-3-4.1zM464.3 293.2l-1.7-1.2h-.8l.9 1.2h-1l-3.1-4.1h1.8c.4 0 .7.1 1.1.2.4.1.7.3 1 .5.3.2.6.5.8.8.2.3.4.6.4.8 0 .2-.1.4-.2.5l1.9 1.3h-1.1zm-2.7-3.1c-.2-.1-.5-.2-.8-.2h-.8l1.1 1.4h.8c.3 0 .5-.1.5-.2.1-.1 0-.3-.2-.5s-.4-.4-.6-.5zM469.7 293.2l-2-2.5.4 2h-.4l-2.8-2 1.9 2.4h-.8l-3.2-4.1h.8l3.5 2.6-.5-2.6h.8l3.3 4.1h-1z"/><path class="st0" d="M524.6 309.8h12.2v153.4h-12.2z"/><path class="st7" d="M536.7 463.2v-12c0-7.7 0-18.8-.1-32.6 0-27.6-.1-65.9-.1-108.8l.3.3h-12.2l.3-.3c-.1 69.6-.1 129-.2 153.4l-.1-.1c3.9 0 7 0 9 .1H536.7 533.6c-2.1 0-5.1 0-9.1.1h-.1v-.1c0-24.3-.1-83.8-.2-153.4v-.3H537v.3c0 43-.1 81.3-.1 109 0 13.8-.1 24.9-.1 32.6V462.5c-.1.5-.1.7-.1.7z"/><path class="st0" d="M149.8 298.2H162v165h-12.2z"/><path class="st7" d="M161.9 463.2v-12.9c0-8.3 0-20.3-.1-35.1 0-29.7-.1-70.9-.1-117l.3.3h-12.2l.3-.3c-.1 75.5-.1 139.9-.2 165l-.1-.1c4 0 7 0 9.1.1h3H158.8c-2.1 0-5.1 0-9.1.1h-.1v-.1c0-25.2-.1-89.6-.2-165v-.3h12.8v.3c0 46.2-.1 87.5-.1 117.2 0 14.8-.1 26.8-.1 35.1v11.9c-.1.5-.1.8-.1.8z"/><path class="st15" d="M102.8 295.1h484.3V315H102.8z"/><path class="st9" d="M149.8 315H162v7.2h-12.2zM524.3 315h12.2v7.2h-12.2z"/></g></svg>